<?xml version="1.0" encoding="UTF-8" standalone="no"?>
<!-- Created with Inkscape (http://www.inkscape.org/) -->

<svg
   xmlns:dc="http://purl.org/dc/elements/1.1/"
   xmlns:cc="http://creativecommons.org/ns#"
   xmlns:rdf="http://www.w3.org/1999/02/22-rdf-syntax-ns#"
   xmlns:svg="http://www.w3.org/2000/svg"
   xmlns="http://www.w3.org/2000/svg"
   xmlns:sodipodi="http://sodipodi.sourceforge.net/DTD/sodipodi-0.dtd"
   xmlns:inkscape="http://www.inkscape.org/namespaces/inkscape"
   version="1.1"
   id="svg2"
   xml:space="preserve"
   width="1364.2573"
   height="736.55341"
   viewBox="0 0 1364.2573 736.55341"
   sodipodi:docname="SelfCatThreatModel-SimStep17-South-TargetChangers-Cropped-Highlighted.svg"
   inkscape:version="0.92.3 (2405546, 2018-03-11)"><metadata
     id="metadata8"><rdf:RDF><cc:Work
         rdf:about=""><dc:format>image/svg+xml</dc:format><dc:type
           rdf:resource="http://purl.org/dc/dcmitype/StillImage" /><dc:title></dc:title></cc:Work></rdf:RDF></metadata><defs
     id="defs6"><marker
       inkscape:stockid="Arrow2Send"
       orient="auto"
       refY="0.0"
       refX="0.0"
       id="marker4064"
       style="overflow:visible;"
       inkscape:isstock="true"><path
         id="path4062"
         style="fill-rule:evenodd;stroke-width:0.625;stroke-linejoin:round;stroke:#ff00ff;stroke-opacity:1;fill:#ff00ff;fill-opacity:1"
         d="M 8.7185878,4.0337352 L -2.2072895,0.016013256 L 8.7185884,-4.0017078 C 6.9730900,-1.6296469 6.9831476,1.6157441 8.7185878,4.0337352 z "
         transform="scale(0.3) rotate(180) translate(-2.3,0)" /></marker><marker
       inkscape:stockid="Arrow2Send"
       orient="auto"
       refY="0.0"
       refX="0.0"
       id="marker3548"
       style="overflow:visible;"
       inkscape:isstock="true"><path
         id="path3546"
         style="fill-rule:evenodd;stroke-width:0.625;stroke-linejoin:round;stroke:#ff00ff;stroke-opacity:1;fill:#ff00ff;fill-opacity:1"
         d="M 8.7185878,4.0337352 L -2.2072895,0.016013256 L 8.7185884,-4.0017078 C 6.9730900,-1.6296469 6.9831476,1.6157441 8.7185878,4.0337352 z "
         transform="scale(0.3) rotate(180) translate(-2.3,0)" /></marker><marker
       inkscape:isstock="true"
       style="overflow:visible;"
       id="marker2330"
       refX="0.0"
       refY="0.0"
       orient="auto"
       inkscape:stockid="Arrow2Send"
       inkscape:collect="always"><path
         transform="scale(0.3) rotate(180) translate(-2.3,0)"
         d="M 8.7185878,4.0337352 L -2.2072895,0.016013256 L 8.7185884,-4.0017078 C 6.9730900,-1.6296469 6.9831476,1.6157441 8.7185878,4.0337352 z "
         style="fill-rule:evenodd;stroke-width:0.625;stroke-linejoin:round;stroke:#ff00ff;stroke-opacity:1;fill:#ff00ff;fill-opacity:1"
         id="path2328" /></marker><marker
       inkscape:isstock="true"
       style="overflow:visible;"
       id="marker1574"
       refX="0.0"
       refY="0.0"
       orient="auto"
       inkscape:stockid="Arrow2Send"><path
         transform="scale(0.3) rotate(180) translate(-2.3,0)"
         d="M 8.7185878,4.0337352 L -2.2072895,0.016013256 L 8.7185884,-4.0017078 C 6.9730900,-1.6296469 6.9831476,1.6157441 8.7185878,4.0337352 z "
         style="fill-rule:evenodd;stroke-width:0.625;stroke-linejoin:round;stroke:#ff00ff;stroke-opacity:1;fill:#ff00ff;fill-opacity:1"
         id="path1572" /></marker><marker
       inkscape:stockid="Arrow2Mend"
       orient="auto"
       refY="0.0"
       refX="0.0"
       id="Arrow2Mend"
       style="overflow:visible;"
       inkscape:isstock="true"><path
         id="path1245"
         style="fill-rule:evenodd;stroke-width:0.625;stroke-linejoin:round;stroke:#000000;stroke-opacity:1;fill:#000000;fill-opacity:1"
         d="M 8.7185878,4.0337352 L -2.2072895,0.016013256 L 8.7185884,-4.0017078 C 6.9730900,-1.6296469 6.9831476,1.6157441 8.7185878,4.0337352 z "
         transform="scale(0.6) rotate(180) translate(0,0)" /></marker><marker
       inkscape:stockid="Arrow1Lend"
       orient="auto"
       refY="0.0"
       refX="0.0"
       id="Arrow1Lend"
       style="overflow:visible;"
       inkscape:isstock="true"><path
         id="path1221"
         d="M 0.0,0.0 L 5.0,-5.0 L -12.5,0.0 L 5.0,5.0 L 0.0,0.0 z "
         style="fill-rule:evenodd;stroke:#000000;stroke-width:1pt;stroke-opacity:1;fill:#000000;fill-opacity:1"
         transform="scale(0.8) rotate(180) translate(12.5,0)" /></marker><clipPath
       clipPathUnits="userSpaceOnUse"
       id="clipPath20"><path
         d="M 0.059,0 H 1023.266 V 552.359 H 0.059 Z"
         id="path18"
         inkscape:connector-curvature="0" /></clipPath><clipPath
       clipPathUnits="userSpaceOnUse"
       id="clipPath28"><path
         d="M 0,0 H 1024 V 553 H 0 Z"
         id="path26"
         inkscape:connector-curvature="0" /></clipPath><clipPath
       clipPathUnits="userSpaceOnUse"
       id="clipPath4662"><path
         d="M 0,2.0109136e-6 H 1024 V 553 H 0 Z"
         style="fill:#ffffff;fill-opacity:1;fill-rule:nonzero;stroke:none;stroke-width:0.99999994"
         id="path4664"
         inkscape:connector-curvature="0" /></clipPath></defs><sodipodi:namedview
     pagecolor="#ffffff"
     bordercolor="#666666"
     borderopacity="1"
     objecttolerance="10"
     gridtolerance="10"
     guidetolerance="10"
     inkscape:pageopacity="0"
     inkscape:pageshadow="2"
     inkscape:window-width="1920"
     inkscape:window-height="1015"
     id="namedview4"
     showgrid="false"
     inkscape:zoom="0.50369735"
     inkscape:cx="671.94288"
     inkscape:cy="511.8474"
     inkscape:window-x="0"
     inkscape:window-y="0"
     inkscape:window-maximized="1"
     inkscape:current-layer="g10"
     inkscape:snap-midpoints="true" /><g
     id="g10"
     inkscape:groupmode="layer"
     inkscape:label="SelfCatThreatModel-SimStep17-South-TargetChangers-Cropped"
     transform="matrix(1.3333333,0,0,1.3333333,0,2.3080501e-5)"><g
       id="g4649"
       clip-path="url(#clipPath4662)"><g
         id="g12" /><path
         inkscape:connector-curvature="0"
         id="path30"
         style="fill:#ffffff;fill-opacity:1;fill-rule:nonzero;stroke:none"
         d="M 0,0 H 1024 V 553 H 0 Z" /><path
         inkscape:connector-curvature="0"
         id="path32"
         style="fill:#ff9900;fill-opacity:1;fill-rule:nonzero;stroke:#ff00ff;stroke-width:6.00000015;stroke-miterlimit:4;stroke-dasharray:none"
         d="M 570.625,278.98 H 698.187 V 406.542 H 570.625 Z" /><path
         style="fill:none;stroke:#ff00ff;stroke-width:6;stroke-linecap:butt;stroke-linejoin:miter;stroke-miterlimit:4;stroke-dasharray:none;stroke-opacity:1;marker-end:url(#marker2330)"
         d="M 570.625,342.7729 H 506.10731"
         id="path2326"
         inkscape:connector-curvature="0" /><path
         inkscape:connector-curvature="0"
         id="path34"
         style="fill:#55a868;fill-opacity:1;fill-rule:nonzero;stroke:none"
         d="M 542.277,308.922 H 669.839 V 434.891 H 542.277 Z" /><path
         inkscape:connector-curvature="0"
         id="path36"
         style="fill:#dd8452;fill-opacity:1;fill-rule:nonzero;stroke:none"
         d="m 1242.445,-191.574 c 0,-156.555 -126.914,-283.469 -283.468,-283.469 -156.555,0 -283.469,126.914 -283.469,283.469 0,156.554 126.914,283.469 283.469,283.469 156.554,0 283.468,-126.915 283.468,-283.469" /><path
         inkscape:connector-curvature="0"
         id="path38"
         style="fill:#b3b3b3;fill-opacity:1;fill-rule:nonzero;stroke:none"
         d="M 710.789,554.918 796.461,963.176 358.859,1054.137 314.281,840.609 130.199,887.574 14.094,421.16 391.766,303.504 l 45.785,73.019 49.351,53.309 59.879,50.691 66.004,30.879 57.594,27.422 40.41,16.094" /><path
         inkscape:connector-curvature="0"
         id="path40"
         style="fill:#b3b3b3;fill-opacity:1;fill-rule:nonzero;stroke:none"
         d="m -439.039,668.973 -32.789,-168.852 367.246,-97.047 168.098,501.625 -108.559,29.176 -51.871,-82.566 -111.324,34.019 -195.239,53.715 -56.75,-242.727 21.188,-27.343" /><path
         inkscape:connector-curvature="0"
         id="path42"
         style="fill:#b3b3b3;fill-opacity:1;fill-rule:nonzero;stroke:none"
         d="m -828.945,1602.742 -168.727,-487.715 -75.269,-192.445 -92.969,-272.559 686.902,-177.398 7.18,27.496 32.789,168.852 -21.188,27.343 56.75,242.727 306.563,-87.734 51.871,82.566 194.5,411.266 -314.906,111.101 -143.731,51.383 -42.351,9.863 -28.606,-76.847 -121.574,43.89 -154.777,55.918 -172.457,62.293" /><g
         id="g50"
         transform="scale(1,-1)"><path
           inkscape:connector-curvature="0"
           id="path48"
           style="fill:none;stroke:#4c72ca;stroke-width:3.98510003;stroke-linecap:butt;stroke-linejoin:miter;stroke-miterlimit:10;stroke-dasharray:none;stroke-opacity:0.5"
           d="m 612.184,-421.34 14.671,-14.558 7.723,-19.172 17.442,-7.77 10.875,-17.129 10.136,-17.578 14.492,-12.43 14.176,-12.793 15,-14.218 10.707,-15.809 2.821,-20.476 8.246,-18.95 9.031,-13.535" /></g><g
         id="g54"
         transform="scale(1,-1)"><path
           inkscape:connector-curvature="0"
           id="path52"
           style="fill:none;stroke:#4c72ca;stroke-width:3.98510003;stroke-linecap:butt;stroke-linejoin:miter;stroke-miterlimit:10;stroke-dasharray:none;stroke-opacity:0.5"
           d="m 649.824,-352.066 4.742,-20.239 6.493,-19.484 12.992,-38.977 6.496,-19.484 12.992,-38.977 6.496,-19.484 0.985,-2.961" /></g><g
         id="g58"
         transform="scale(1,-1)"><path
           inkscape:connector-curvature="0"
           id="path56"
           style="fill:none;stroke:#4c72ca;stroke-width:3.98510003;stroke-linecap:butt;stroke-linejoin:miter;stroke-miterlimit:10;stroke-dasharray:none;stroke-opacity:0.5"
           d="m 632.328,-424.547 -17.195,14.41 -18.344,8.426 -19.504,7.008 -11.246,19.414 h -22.437 l -19.477,11.133 -11.34,3.097" /></g><g
         id="g62"
         transform="scale(1,-1)"><path
           inkscape:connector-curvature="0"
           id="path60"
           style="fill:none;stroke:#4c72ca;stroke-width:3.98510003;stroke-linecap:butt;stroke-linejoin:miter;stroke-miterlimit:10;stroke-dasharray:none;stroke-opacity:0.5"
           d="m 655.258,-326.332 h 21.238 l 20.59,5.199 20.324,6.156 h 27.231" /></g><g
         id="g66"
         transform="scale(1,-1)"><path
           inkscape:connector-curvature="0"
           id="path64"
           style="fill:none;stroke:#4c72ca;stroke-width:3.98510003;stroke-linecap:butt;stroke-linejoin:miter;stroke-miterlimit:10;stroke-dasharray:none;stroke-opacity:0.5"
           d="m 639.18,-327.156 6.156,-18.465 6.152,-18.461 3.778,-11.324" /></g><g
         id="g70"
         transform="scale(1,-1)"><path
           inkscape:connector-curvature="0"
           id="path68"
           style="fill:none;stroke:#4c72ca;stroke-width:3.98510003;stroke-linecap:butt;stroke-linejoin:miter;stroke-miterlimit:10;stroke-dasharray:none;stroke-opacity:0.5"
           d="m 572.824,-397.422 12.754,-16.535 2.715,-2.031" /></g><path
         inkscape:connector-curvature="0"
         id="path72"
         style="fill:#4c72ca;fill-opacity:1;fill-rule:nonzero;stroke:none"
         d="m 644.43,59.43 c 0,-6.106 -4.95,-11.055 -11.055,-11.055 -6.105,0 -11.055,4.949 -11.055,11.055 0,6.105 4.95,11.054 11.055,11.054 6.105,0 11.055,-4.949 11.055,-11.054 z" /><path
         inkscape:connector-curvature="0"
         id="path74"
         style="fill:#4c72ca;fill-opacity:1;fill-rule:nonzero;stroke:none"
         d="m 712.078,511.672 c 0,-6.106 -4.953,-11.055 -11.058,-11.055 -6.106,0 -11.055,4.949 -11.055,11.055 0,6.105 4.949,11.055 11.055,11.055 6.105,0 11.058,-4.95 11.058,-11.055 z" /><path
         inkscape:connector-curvature="0"
         id="path76"
         style="fill:#4c72ca;fill-opacity:1;fill-rule:nonzero;stroke:none"
         d="m 523.84,361.059 c 0,-6.106 -4.949,-11.055 -11.055,-11.055 -6.105,0 -11.055,4.949 -11.055,11.055 0,6.105 4.95,11.054 11.055,11.054 6.106,0 11.055,-4.949 11.055,-11.054 z" /><path
         inkscape:connector-curvature="0"
         id="path78"
         style="fill:#4c72ca;fill-opacity:1;fill-rule:nonzero;stroke:none"
         d="m 755.695,314.977 c 0,-6.106 -4.949,-11.055 -11.054,-11.055 -6.106,0 -11.055,4.949 -11.055,11.055 0,6.105 4.949,11.054 11.055,11.054 6.105,0 11.054,-4.949 11.054,-11.054 z" /><path
         inkscape:connector-curvature="0"
         id="path80"
         style="fill:#4c72ca;fill-opacity:1;fill-rule:nonzero;stroke:none"
         d="m 666.32,375.406 c 0,-6.105 -4.949,-11.054 -11.054,-11.054 -6.106,0 -11.059,4.949 -11.059,11.054 0,6.11 4.953,11.059 11.059,11.059 6.105,0 11.054,-4.949 11.054,-11.059 z" /><path
         inkscape:connector-curvature="0"
         id="path82"
         style="fill:#4c72ca;fill-opacity:1;fill-rule:nonzero;stroke:none"
         d="m 599.348,415.988 c 0,-6.105 -4.95,-11.054 -11.055,-11.054 -6.105,0 -11.055,4.949 -11.055,11.054 0,6.106 4.95,11.055 11.055,11.055 6.105,0 11.055,-4.949 11.055,-11.055 z" /><g
         id="g86"
         transform="scale(1,-1)"><path
           inkscape:connector-curvature="0"
           id="path84"
           style="fill:none;stroke:#000000;stroke-width:5.97766018;stroke-linecap:butt;stroke-linejoin:miter;stroke-miterlimit:10;stroke-dasharray:none;stroke-opacity:1"
           d="m 628.105,-59.43 5.27,10.203 5.273,-10.203" /></g><g
         id="g90"
         transform="scale(1,-1)"><path
           inkscape:connector-curvature="0"
           id="path88"
           style="fill:none;stroke:#000000;stroke-width:5.97766018;stroke-linecap:butt;stroke-linejoin:miter;stroke-miterlimit:10;stroke-dasharray:none;stroke-opacity:1"
           d="m 706.023,-510.004 -1.773,-11.348 -8.23,8.012" /></g><g
         id="g94"
         transform="scale(1,-1)"><path
           inkscape:connector-curvature="0"
           id="path92"
           style="fill:none;stroke:#000000;stroke-width:5.97766018;stroke-linecap:butt;stroke-linejoin:miter;stroke-miterlimit:10;stroke-dasharray:none;stroke-opacity:1"
           d="m 511.398,-366.145 -8.457,7.778 11.235,2.394" /></g><g
         id="g98"
         transform="scale(1,-1)"><path
           inkscape:connector-curvature="0"
           id="path96"
           style="fill:none;stroke:#000000;stroke-width:5.97766018;stroke-linecap:butt;stroke-linejoin:miter;stroke-miterlimit:10;stroke-dasharray:none;stroke-opacity:1"
           d="m 744.641,-309.703 10.207,-5.274 -10.207,-5.269" /></g><g
         id="g102"
         transform="scale(1,-1)"><path
           inkscape:connector-curvature="0"
           id="path100"
           style="fill:none;stroke:#000000;stroke-width:5.97766018;stroke-linecap:butt;stroke-linejoin:miter;stroke-miterlimit:10;stroke-dasharray:none;stroke-opacity:1"
           d="m 660.266,-373.742 -1.774,-11.348 -8.23,8.016" /></g><g
         id="g106"
         transform="scale(1,-1)"><path
           inkscape:connector-curvature="0"
           id="path104"
           style="fill:none;stroke:#000000;stroke-width:5.97766018;stroke-linecap:butt;stroke-linejoin:miter;stroke-miterlimit:10;stroke-dasharray:none;stroke-opacity:1"
           d="m 591.453,-411.77 5.008,-10.339 -11.332,1.898" /></g><g
         style="stroke-width:1.93734455"
         id="layer1"
         inkscape:label="Layer 1"
         transform="matrix(0.38712785,0,0,0.38712785,0.01770238,-64.138341)"><g
           style="stroke-width:1.93734455"
           id="g4436"
           transform="matrix(0.14581,0,0,0.14581,963.22,1159)"><path
             id="path3254-2-2-7-1"
             style="color:#000000;text-indent:0;text-transform:none;fill:#000000;stroke-width:1.93734455"
             inkscape:connector-curvature="0"
             d="m -4122.5,-6166.1 -272.97,1313.9 -492.72,-323.25 -10.375,10.344 322.69,491.94 -1311.3,272.34 v 23.5 l 1310.8,272.34 -324.78,495.09 10.344,10.344 493.03,-323.38 272.88,1313.8 h 23.5 l 273.03,-1314.1 492.75,323.22 10.344,-10.344 -322.81,-492.12 1311.2,-272.38 v -23.5 l -1310.5,-272.28 324.53,-494.69 -10.375,-10.344 -492.91,323.31 -272.88,-1313.7 h -23.5 z m -0.2188,119.03 v 1373.8 254.84 l -280.16,-280.25 28.969,-139.38 251.19,-1209 z m 736.97,923.69 -411.25,411.25 -25.875,-124.53 437.12,-286.72 z m -1460.5,10.781 410.31,410.31 -124.25,25.812 -286.06,-436.12 z m 1042,433.81 142.66,29.656 1205.7,250.5 h -1370 -258.53 l 280.22,-280.16 z m -1963.9,301.66 h 1370.3 258.5 l -280.22,280.22 -142.69,-29.656 -1205.9,-250.56 z m 1666.9,20.094 280.22,280.22 -28.969,139.38 -251.25,1209.2 v -1374.1 -254.75 z m 437.38,257.75 286.19,436.34 -410.53,-410.53 124.34,-25.812 z m -763.09,36.062 25.844,124.56 -437.19,286.78 411.34,-411.34 z" /><g
             id="text4344"
             style="fill:#000000;stroke-width:1.93734455"><path
               style="stroke-width:1.93734455"
               id="path4434"
               inkscape:connector-curvature="0"
               d="m -3979.5,-6530.1 c -23.317,2.1687 -34.975,39.275 -34.975,111.32 v 133.09 h -15.617 l -158.28,-222.83 v 67.196 c 0,32.965 1.1248,57.581 3.3745,73.848 4.8321,35.637 15.491,54.49 31.978,56.561 v 16.434 h -91.524 v -16.348 c 23.195,-3.5652 34.792,-46.361 34.792,-128.39 v -65.942 c 0,-9.6561 -1.6771,-16.108 -5.0312,-19.357 -3.3542,-3.2483 -11.236,-5.0187 -23.645,-5.3114 v -16.872 h 69.218 l 132.41,186.71 v -52.87 c -2e-4,-75.764 -11.594,-114.86 -34.78,-117.28 v -16.568 h 92.084 z" /></g><g
             id="text4344-1"
             style="fill:#000000;stroke-width:1.93734455"><path
               style="stroke-width:1.93734455"
               id="path4431"
               inkscape:connector-curvature="0"
               d="m -1997.1,-4399.2 c -3e-4,25.891 -7.34,50.6 -22.019,74.128 -14.68,23.528 -33.665,41.212 -56.957,53.053 -20.994,10.688 -43.108,16.032 -66.344,16.032 -33.939,1e-4 -62.378,-11.467 -85.317,-34.402 -22.939,-22.935 -34.408,-51.242 -34.408,-84.921 -1e-4,-38.17 14.129,-71.71 42.388,-100.62 28.258,-28.908 61.554,-43.362 99.887,-43.362 44.213,3e-4 78.688,17.896 103.43,53.686 12.896,18.606 19.345,40.741 19.345,66.404 z m -40.871,33.635 c -2e-4,-22.87 -4.7106,-44.343 -14.131,-64.419 -10.396,-21.911 -24.657,-38.097 -42.783,-48.558 -17.648,-10.119 -33.939,-15.179 -48.874,-15.179 -23.723,3e-4 -42.784,8.41 -57.183,25.229 -13.555,15.967 -20.332,36.323 -20.332,61.069 -1e-4,33.249 9.4979,62.145 28.494,86.688 20.62,26.63 46.771,39.945 78.453,39.945 22.439,0 40.964,-8.4503 55.574,-25.351 13.855,-16.275 20.782,-36.083 20.783,-59.424 z" /></g><g
             id="text4344-8"
             style="fill:#000000;stroke-width:1.93734455"><path
               style="stroke-width:1.93734455"
               id="path4428"
               inkscape:connector-curvature="0"
               d="m -4034.5,-2329.2 c -2e-4,22.602 -10.432,42.048 -31.296,58.34 -19.012,14.919 -40.079,22.378 -63.2,22.378 -17.339,0 -37.496,-4.4383 -60.472,-13.315 v -75.322 h 22.147 c 0,19.41 4.6779,35.356 14.034,47.839 10.046,13.465 22.858,20.198 38.434,20.198 12.32,0 22.33,-3.5896 30.029,-10.769 7.6989,-7.1792 11.548,-16.941 11.549,-29.286 -2e-4,-12.816 -5.9856,-24.855 -17.956,-36.12 -5.0597,-4.6778 -17.177,-13.392 -36.351,-26.143 -16.446,-10.923 -28.685,-19.816 -36.717,-26.679 -5.9206,-5.0676 -10.684,-11.488 -14.29,-19.26 -3.3054,-6.9192 -4.9581,-14.168 -4.9581,-21.745 0,-21.221 9.8837,-39.076 29.651,-53.565 17.534,-12.758 37.176,-19.138 58.925,-19.138 11.76,3e-4 28.283,3.6671 49.569,11 v 66.551 h -22.305 c -0.9991,-16.892 -5.3156,-30.333 -12.95,-40.323 -8.3001,-10.956 -18.935,-16.433 -31.905,-16.434 -9.429,2e-4 -17.319,2.8387 -23.67,8.5152 -6.3266,5.8883 -9.4898,13.535 -9.4898,22.939 0,11.971 6.895,24.141 20.685,36.51 5.3113,4.8081 17.899,13.859 37.764,27.154 17.851,11.898 29.541,20.677 35.072,26.338 11.8,11.947 17.7,25.392 17.701,40.335 z" /></g><g
             id="text4344-7"
             style="fill:#000000;stroke-width:1.93734455"><path
               style="stroke-width:1.93734455"
               id="path4425"
               inkscape:connector-curvature="0"
               d="m -5962.7,-4501.3 c -14.741,0.2602 -28.799,17.181 -42.174,50.763 l -77.417,193.55 h -17.627 l -53.236,-161.49 c -9.1855,20.669 -17.599,40.684 -25.241,60.045 l -39.957,101.44 h -17.274 l -65.284,-192.59 c -8.3407,-24.762 -16.19,-40.233 -23.548,-46.414 -3.8496,-3.1914 -8.8727,-5.0472 -15.069,-5.5672 v -16.641 h 75.261 v 16.848 c -4.7104,0.1302 -7.0656,0.9748 -7.0656,2.5339 0,0.7393 0.1665,1.6042 0.4995,2.5947 l 56.854,176.58 27.605,-77.758 c 9.1201,-23.008 13.68,-44.838 13.68,-65.491 -10e-5,-24.559 -10.704,-37.411 -32.112,-38.556 v -16.75 h 76.235 v 16.872 c -5.4822,0.1302 -8.2231,0.9017 -8.2229,2.3145 -2e-4,0.8693 0.1663,1.7992 0.4994,2.7897 l 57.572,176.58 34.719,-96.299 c 11.792,-29.862 17.688,-50.99 17.688,-63.383 -3e-4,-8.8765 -2.0712,-14.744 -6.2128,-17.603 -3.728,-2.6392 -11.975,-4.1051 -24.742,-4.3977 v -16.872 h 94.569 z" /></g></g></g><path
         inkscape:connector-curvature="0"
         id="path3544"
         d="m 698.187,342.761 h 64.51769"
         style="fill:none;stroke:#ff00ff;stroke-width:6;stroke-linecap:butt;stroke-linejoin:miter;stroke-miterlimit:4;stroke-dasharray:none;stroke-opacity:1;marker-end:url(#marker3548)" /><path
         inkscape:connector-curvature="0"
         id="path4060"
         d="M 634.406,278.98 V 214.46231"
         style="fill:none;stroke:#ff00ff;stroke-width:6;stroke-linecap:butt;stroke-linejoin:miter;stroke-miterlimit:4;stroke-dasharray:none;stroke-opacity:1;marker-end:url(#marker4064)" /><g
         id="g46"
         transform="scale(1,-1)"><path
           inkscape:connector-curvature="0"
           id="path44"
           style="fill:none;stroke:#4c72ca;stroke-width:3.98510003;stroke-linecap:butt;stroke-linejoin:miter;stroke-miterlimit:10;stroke-dasharray:none;stroke-opacity:0.5"
           d="m 640.934,-353.457 v 22.184 l -3.364,21.929 v 133.106 l -4.195,21.785 v 95.023" /></g><text
         id="text4506"
         y="372.79214"
         x="706.32648"
         style="font-style:normal;font-variant:normal;font-weight:normal;font-stretch:normal;font-size:30px;line-height:1.25;font-family:sans-serif;-inkscape-font-specification:'sans-serif, Normal';font-variant-ligatures:normal;font-variant-caps:normal;font-variant-numeric:normal;text-align:start;letter-spacing:0px;word-spacing:0px;writing-mode:lr-tb;text-anchor:start;fill:#000000;fill-opacity:1;stroke:none;stroke-width:0.75"
         xml:space="preserve"><tspan
           style="stroke-width:0.75"
           y="372.79214"
           x="706.32648"
           id="tspan4504"
           sodipodi:role="line">10%</tspan></text>
<text
         xml:space="preserve"
         style="font-style:normal;font-variant:normal;font-weight:normal;font-stretch:normal;font-size:30px;line-height:1.25;font-family:sans-serif;-inkscape-font-specification:'sans-serif, Normal';font-variant-ligatures:normal;font-variant-caps:normal;font-variant-numeric:normal;text-align:start;letter-spacing:0px;word-spacing:0px;writing-mode:lr-tb;text-anchor:start;fill:#000000;fill-opacity:1;stroke:none;stroke-width:0.75"
         x="477.39435"
         y="334.58258"
         id="text4528"><tspan
           sodipodi:role="line"
           id="tspan4526"
           x="477.39435"
           y="334.58258"
           style="stroke-width:0.75">10%</tspan></text>
<text
         id="text4532"
         y="228.05241"
         x="561.52911"
         style="font-style:normal;font-variant:normal;font-weight:normal;font-stretch:normal;font-size:30px;line-height:1.25;font-family:sans-serif;-inkscape-font-specification:'sans-serif, Normal';font-variant-ligatures:normal;font-variant-caps:normal;font-variant-numeric:normal;text-align:start;letter-spacing:0px;word-spacing:0px;writing-mode:lr-tb;text-anchor:start;fill:#000000;fill-opacity:1;stroke:none;stroke-width:0.75"
         xml:space="preserve"><tspan
           style="stroke-width:0.75"
           y="228.05241"
           x="561.52911"
           id="tspan4530"
           sodipodi:role="line">10%</tspan></text>
</g></g></svg>