<?xml version="1.0" encoding="UTF-8" standalone="no"?>
<!-- Created with Inkscape (http://www.inkscape.org/) -->

<svg
   xmlns:dc="http://purl.org/dc/elements/1.1/"
   xmlns:cc="http://creativecommons.org/ns#"
   xmlns:rdf="http://www.w3.org/1999/02/22-rdf-syntax-ns#"
   xmlns:svg="http://www.w3.org/2000/svg"
   xmlns="http://www.w3.org/2000/svg"
   xmlns:sodipodi="http://sodipodi.sourceforge.net/DTD/sodipodi-0.dtd"
   xmlns:inkscape="http://www.inkscape.org/namespaces/inkscape"
   width="216.06743mm"
   height="226.6769mm"
   viewBox="0 0 216.06743 226.67689"
   version="1.1"
   id="svg8"
   inkscape:version="0.92.3 (2405546, 2018-03-11)"
   sodipodi:docname="Socioculutral-SocialIdentityTheory.svg">
  <defs
     id="defs2">
    <marker
       inkscape:isstock="true"
       style="overflow:visible"
       id="marker5156"
       refX="0"
       refY="0"
       orient="auto"
       inkscape:stockid="Arrow2Send">
      <path
         transform="matrix(-0.3,0,0,-0.3,0.69,0)"
         d="M 8.7185878,4.0337352 -2.2072895,0.01601326 8.7185884,-4.0017078 c -1.7454984,2.3720609 -1.7354408,5.6174519 -6e-7,8.035443 z"
         style="fill:#000000;fill-opacity:1;fill-rule:evenodd;stroke:#000000;stroke-width:0.625;stroke-linejoin:round;stroke-opacity:1"
         id="path5154"
         inkscape:connector-curvature="0" />
    </marker>
    <marker
       inkscape:isstock="true"
       style="overflow:visible"
       id="marker2850"
       refX="0"
       refY="0"
       orient="auto"
       inkscape:stockid="Arrow2Send">
      <path
         transform="matrix(-0.3,0,0,-0.3,0.69,0)"
         d="M 8.7185878,4.0337352 -2.2072895,0.01601326 8.7185884,-4.0017078 c -1.7454984,2.3720609 -1.7354408,5.6174519 -6e-7,8.035443 z"
         style="fill:#000000;fill-opacity:1;fill-rule:evenodd;stroke:#000000;stroke-width:0.625;stroke-linejoin:round;stroke-opacity:1"
         id="path2848"
         inkscape:connector-curvature="0" />
    </marker>
    <marker
       inkscape:stockid="Arrow2Send"
       orient="auto"
       refY="0"
       refX="0"
       id="marker2382"
       style="overflow:visible"
       inkscape:isstock="true"
       inkscape:collect="always">
      <path
         id="path2380"
         style="fill:#000000;fill-opacity:1;fill-rule:evenodd;stroke:#000000;stroke-width:0.625;stroke-linejoin:round;stroke-opacity:1"
         d="M 8.7185878,4.0337352 -2.2072895,0.01601326 8.7185884,-4.0017078 c -1.7454984,2.3720609 -1.7354408,5.6174519 -6e-7,8.035443 z"
         transform="matrix(-0.3,0,0,-0.3,0.69,0)"
         inkscape:connector-curvature="0" />
    </marker>
    <marker
       inkscape:stockid="Arrow2Mend"
       orient="auto"
       refY="0"
       refX="0"
       id="marker2330"
       style="overflow:visible"
       inkscape:isstock="true">
      <path
         id="path2328"
         style="fill:#000000;fill-opacity:1;fill-rule:evenodd;stroke:#000000;stroke-width:0.625;stroke-linejoin:round;stroke-opacity:1"
         d="M 8.7185878,4.0337352 -2.2072895,0.01601326 8.7185884,-4.0017078 c -1.7454984,2.3720609 -1.7354408,5.6174519 -6e-7,8.035443 z"
         transform="scale(-0.6)"
         inkscape:connector-curvature="0" />
    </marker>
    <marker
       inkscape:stockid="Arrow2Mend"
       orient="auto"
       refY="0"
       refX="0"
       id="Arrow2Mend"
       style="overflow:visible"
       inkscape:isstock="true">
      <path
         id="path909"
         style="fill:#000000;fill-opacity:1;fill-rule:evenodd;stroke:#000000;stroke-width:0.625;stroke-linejoin:round;stroke-opacity:1"
         d="M 8.7185878,4.0337352 -2.2072895,0.01601326 8.7185884,-4.0017078 c -1.7454984,2.3720609 -1.7354408,5.6174519 -6e-7,8.035443 z"
         transform="scale(-0.6)"
         inkscape:connector-curvature="0" />
    </marker>
    <marker
       inkscape:stockid="Arrow2Send"
       orient="auto"
       refY="0"
       refX="0"
       id="Arrow2Send"
       style="overflow:visible"
       inkscape:isstock="true">
      <path
         id="path915"
         style="fill:#000000;fill-opacity:1;fill-rule:evenodd;stroke:#000000;stroke-width:0.625;stroke-linejoin:round;stroke-opacity:1"
         d="M 8.7185878,4.0337352 -2.2072895,0.01601326 8.7185884,-4.0017078 c -1.7454984,2.3720609 -1.7354408,5.6174519 -6e-7,8.035443 z"
         transform="matrix(-0.3,0,0,-0.3,0.69,0)"
         inkscape:connector-curvature="0" />
    </marker>
    <marker
       inkscape:stockid="Arrow1Mstart"
       orient="auto"
       refY="0"
       refX="0"
       id="Arrow1Mstart"
       style="overflow:visible"
       inkscape:isstock="true">
      <path
         id="path888"
         d="M 0,0 5,-5 -12.5,0 5,5 Z"
         style="fill:#000000;fill-opacity:1;fill-rule:evenodd;stroke:#000000;stroke-width:1.00000003pt;stroke-opacity:1"
         transform="matrix(0.4,0,0,0.4,4,0)"
         inkscape:connector-curvature="0" />
    </marker>
    <marker
       inkscape:stockid="Arrow1Lstart"
       orient="auto"
       refY="0"
       refX="0"
       id="marker1178"
       style="overflow:visible"
       inkscape:isstock="true">
      <path
         id="path1176"
         d="M 0,0 5,-5 -12.5,0 5,5 Z"
         style="fill:#000000;fill-opacity:1;fill-rule:evenodd;stroke:#000000;stroke-width:1.00000003pt;stroke-opacity:1"
         transform="matrix(0.8,0,0,0.8,10,0)"
         inkscape:connector-curvature="0" />
    </marker>
    <marker
       inkscape:stockid="Arrow1Lstart"
       orient="auto"
       refY="0"
       refX="0"
       id="Arrow1Lstart"
       style="overflow:visible"
       inkscape:isstock="true">
      <path
         id="path882"
         d="M 0,0 5,-5 -12.5,0 5,5 Z"
         style="fill:#000000;fill-opacity:1;fill-rule:evenodd;stroke:#000000;stroke-width:1.00000003pt;stroke-opacity:1"
         transform="matrix(0.8,0,0,0.8,10,0)"
         inkscape:connector-curvature="0" />
    </marker>
  </defs>
  <sodipodi:namedview
     id="base"
     pagecolor="#ffffff"
     bordercolor="#666666"
     borderopacity="1.0"
     inkscape:pageopacity="0.0"
     inkscape:pageshadow="2"
     inkscape:zoom="0.49497475"
     inkscape:cx="62.115895"
     inkscape:cy="466.68102"
     inkscape:document-units="mm"
     inkscape:current-layer="layer1"
     showgrid="false"
     inkscape:window-width="1920"
     inkscape:window-height="1015"
     inkscape:window-x="0"
     inkscape:window-y="0"
     inkscape:window-maximized="1"
     inkscape:object-paths="true"
     fit-margin-top="0"
     fit-margin-left="0"
     fit-margin-right="0"
     fit-margin-bottom="0" />
  <metadata
     id="metadata5">
    <rdf:RDF>
      <cc:Work
         rdf:about="">
        <dc:format>image/svg+xml</dc:format>
        <dc:type
           rdf:resource="http://purl.org/dc/dcmitype/StillImage" />
        <dc:title />
      </cc:Work>
    </rdf:RDF>
  </metadata>
  <g
     inkscape:label="Ebene 1"
     inkscape:groupmode="layer"
     id="layer1"
     transform="translate(13.375426,-29.15182)">
    <path
       style="opacity:1;fill:#000000;fill-opacity:1;stroke:none;stroke-width:3.19553041;stroke-linecap:round;stroke-linejoin:round;stroke-miterlimit:4;stroke-dasharray:none;stroke-dashoffset:0;stroke-opacity:1"
       d="M 97.871012,29.15182 V 64.72846 A 72.571427,72.571427 0 0 1 143.569,83.684927 L 168.6548,58.59912 A 108.10119,108.10119 0 0 0 97.871012,29.15182 Z m -6.425446,0.04703 A 108.10119,108.10119 0 0 0 20.66229,58.600151 L 45.761015,83.698878 A 72.571427,72.571427 0 0 1 91.445566,64.681435 Z M 16.093577,63.118224 A 108.10119,108.10119 0 0 0 -13.375426,133.92631 H 22.24979 A 72.571427,72.571427 0 0 1 41.196437,88.221083 Z m 157.081883,0.04754 -25.08478,25.084775 a 72.571427,72.571427 0 0 1 19.00763,45.675771 h 35.49861 A 108.10119,108.10119 0 0 0 173.17546,63.165764 Z M -13.280341,140.35176 a 108.10119,108.10119 0 0 0 29.421976,70.76053 L 41.225893,186.02804 A 72.571427,72.571427 0 0 1 22.218267,140.35176 Z m 180.347641,0 a 72.571427,72.571427 0 0 1 -18.94768,45.70573 l 25.10235,25.10235 A 108.10119,108.10119 0 0 0 202.692,140.35176 Z m -23.51225,50.22794 a 72.571427,72.571427 0 0 1 -45.684038,19.01744 v 35.48259 a 108.10119,108.10119 0 0 0 70.782758,-29.40131 z m -97.80747,0.014 -25.085807,25.08581 a 108.10119,108.10119 0 0 0 70.783793,29.4473 V 209.55012 A 72.571427,72.571427 0 0 1 45.74758,190.59365 Z"
       id="circle819"
       inkscape:connector-curvature="0" />
    <g
       id="g3056">
      <g
         id="g862">
        <circle
           r="33.828869"
           cy="137.13931"
           cx="124.71589"
           id="circle817"
           style="opacity:1;fill:#aaccff;fill-opacity:1;stroke:none;stroke-width:1;stroke-linecap:round;stroke-linejoin:round;stroke-miterlimit:4;stroke-dasharray:none;stroke-dashoffset:0;stroke-opacity:1" />
        <text
           xml:space="preserve"
           style="font-style:normal;font-weight:normal;font-size:10.58333302px;line-height:1.25;font-family:sans-serif;letter-spacing:0px;word-spacing:0px;fill:#000000;fill-opacity:1;stroke:none;stroke-width:0.26458332"
           x="124.47818"
           y="134.47023"
           id="text829"><tspan
             sodipodi:role="line"
             id="tspan827"
             x="124.47818"
             y="134.47023"
             style="text-align:center;text-anchor:middle;stroke-width:0.26458332">Social</tspan><tspan
             sodipodi:role="line"
             x="124.47818"
             y="147.6994"
             style="text-align:center;text-anchor:middle;stroke-width:0.26458332"
             id="tspan831">identities</tspan></text>
      </g>
      <g
         transform="translate(13.229165,2.7539673)"
         id="g856">
        <circle
           style="opacity:1;fill:#b380ff;fill-opacity:1;stroke:none;stroke-width:1;stroke-linecap:round;stroke-linejoin:round;stroke-miterlimit:4;stroke-dasharray:none;stroke-dashoffset:0;stroke-opacity:1"
           id="path815"
           cx="51.782001"
           cy="134.38535"
           r="33.828869" />
        <text
           xml:space="preserve"
           style="font-style:normal;font-weight:normal;font-size:10.58333302px;line-height:1.25;font-family:sans-serif;letter-spacing:0px;word-spacing:0px;fill:#000000;fill-opacity:1;stroke:none;stroke-width:0.26458332"
           x="51.756165"
           y="130.69048"
           id="text823"><tspan
             sodipodi:role="line"
             id="tspan821"
             x="51.756165"
             y="130.69048"
             style="text-align:center;text-anchor:middle;stroke-width:0.26458332">Personal</tspan><tspan
             sodipodi:role="line"
             x="51.756165"
             y="143.91965"
             style="text-align:center;text-anchor:middle;stroke-width:0.26458332"
             id="tspan825">identity</tspan></text>
      </g>
      <path
         inkscape:connector-curvature="0"
         id="path2270"
         d="m 88.576614,112.05112 h 10.87254"
         style="fill:none;stroke:#000000;stroke-width:1.65471876;stroke-linecap:round;stroke-linejoin:round;stroke-miterlimit:4;stroke-dasharray:none;stroke-opacity:1;marker-end:url(#marker2382)" />
      <path
         style="fill:none;stroke:#000000;stroke-width:1.65471876;stroke-linecap:round;stroke-linejoin:round;stroke-miterlimit:4;stroke-dasharray:none;stroke-opacity:1;marker-end:url(#marker2850)"
         d="M 101.0026,161.79283 H 90.13006"
         id="path2846"
         inkscape:connector-curvature="0" />
    </g>
    <g
       aria-label="Behavioral selection"
       style="font-style:normal;font-weight:normal;font-size:10.58333302px;line-height:1.25;font-family:sans-serif;letter-spacing:0px;word-spacing:0px;fill:#000000;fill-opacity:1;stroke:none;stroke-width:0.26458332"
       id="text5823">
      <path
         d="m 45.676171,241.11046 -1.171578,2.57248 1.523735,0.69395 q 0.76657,0.34912 1.276897,0.20109 0.517172,-0.15059 0.814886,-0.8043 0.299855,-0.6584 0.06969,-1.13799 -0.223323,-0.48216 -0.989893,-0.83128 z m 1.315081,-2.88757 -0.963821,2.1163 1.406162,0.6404 q 0.696027,0.31699 1.152435,0.21255 0.463253,-0.10701 0.707421,-0.64314 0.242026,-0.53143 0.01866,-0.95114 -0.218665,-0.41757 -0.914692,-0.73456 z m -0.59444,-1.21333 2.426688,1.10519 q 1.086367,0.49476 1.468612,1.21396 0.382245,0.71921 0.0031,1.55162 -0.29343,0.64429 -0.767902,0.88815 -0.474472,0.24386 -1.100467,0.0723 0.632192,0.46962 0.799362,1.12495 0.174015,0.65276 -0.151542,1.3676 -0.428365,0.94057 -1.301416,1.1619 -0.873051,0.22133 -2.053475,-0.31627 l -2.520746,-1.14802 z"
         style="stroke-width:0.26458332"
         id="path1178"
         inkscape:connector-curvature="0" />
      <path
         d="m 55.53985,245.82918 -0.16813,0.43364 -4.076164,-1.58043 q -0.297124,0.93787 0.0075,1.61023 0.311327,0.66942 1.19305,1.01128 0.510725,0.19802 1.036294,0.25769 0.530387,0.0615 1.099709,-0.006 l -0.325052,0.83836 q -0.555459,0.0174 -1.097647,-0.0709 -0.542187,-0.0883 -1.05773,-0.28817 -1.291267,-0.50066 -1.756292,-1.54559 -0.460206,-1.04306 0.03671,-2.32469 0.513733,-1.32499 1.527588,-1.82423 1.020541,-0.5022 2.234717,-0.0314 1.088904,0.42219 1.447338,1.37037 0.36512,0.94522 -0.10191,2.14976 z m -0.785663,-0.60391 q 0.27245,-0.73128 0.04067,-1.31997 -0.226958,-0.58682 -0.882228,-0.84088 -0.741997,-0.28769 -1.352612,-0.0423 -0.605797,0.24732 -0.968414,0.98243 z"
         style="stroke-width:0.26458332"
         id="path1180"
         inkscape:connector-curvature="0" />
      <path
         d="m 61.537417,247.42901 -1.07959,3.32232 -0.904301,-0.29386 1.070009,-3.29283 q 0.253927,-0.78143 0.07538,-1.26871 -0.178545,-0.48727 -0.787964,-0.6853 -0.732287,-0.23796 -1.306667,0.0916 -0.57438,0.32955 -0.836292,1.13556 l -1.010918,3.11099 -0.909215,-0.29545 2.484974,-7.64724 0.909215,0.29545 -0.974187,2.99795 q 0.485669,-0.39098 1.002926,-0.49457 0.522173,-0.10201 1.09719,0.0848 0.948532,0.30822 1.243442,1.05609 0.296506,0.74295 -0.074,1.88316 z"
         style="stroke-width:0.26458332"
         id="path1182"
         inkscape:connector-curvature="0" />
      <path
         d="m 65.575711,249.14372 q -1.11416,-0.29434 -1.611152,-0.15305 -0.496992,0.1413 -0.659343,0.75584 -0.129353,0.48963 0.11385,0.86388 0.249519,0.37058 0.804101,0.5171 0.764423,0.20194 1.366628,-0.21622 0.608522,-0.42183 0.846109,-1.32115 l 0.05412,-0.20485 z m 1.933931,0.1047 -0.843433,3.1926 -0.919307,-0.24287 0.224388,-0.84936 q -0.449396,0.42646 -0.983718,0.5472 -0.533002,0.11575 -1.212489,-0.0638 -0.859352,-0.22703 -1.242255,-0.8413 -0.376586,-0.61795 -0.162758,-1.42734 0.249466,-0.94428 1.005704,-1.25761 0.761235,-0.31201 2.015289,0.0193 l 1.289027,0.34054 0.02376,-0.0899 q 0.167631,-0.63452 -0.160978,-1.09013 -0.322292,-0.45929 -1.076723,-0.6586 -0.479638,-0.12672 -0.964654,-0.13192 -0.485015,-0.005 -0.965415,0.11376 l 0.224388,-0.84936 q 0.556096,-0.0615 1.055817,-0.0311 0.50104,0.0255 0.950701,0.14426 1.214084,0.32075 1.647321,1.10866 0.433237,0.78792 0.09534,2.06695 z"
         style="stroke-width:0.26458332"
         id="path1184"
         inkscape:connector-curvature="0" />
      <path
         d="m 69.0846,247.08159 0.986768,0.20428 0.78639,5.12338 2.755852,-4.39007 0.986767,0.20428 -3.298641,5.2276 -1.265087,-0.2619 z"
         style="stroke-width:0.26458332"
         id="path1186"
         inkscape:connector-curvature="0" />
      <path
         d="m 75.677056,248.37784 0.937928,0.15621 -0.950836,5.70912 -0.937927,-0.15621 z m 0.370147,-2.22248 0.937927,0.15621 -0.197808,1.1877 -0.937927,-0.15621 z"
         style="stroke-width:0.26458332"
         id="path1188"
         inkscape:connector-curvature="0" />
      <path
         d="m 80.486847,249.76332 q -0.758839,-0.0954 -1.274549,0.44396 -0.515065,0.53421 -0.64461,1.56479 -0.129545,1.03059 0.231512,1.68014 0.36683,0.64506 1.130797,0.7411 0.753712,0.0947 1.269422,-0.4446 0.51571,-0.53934 0.64461,-1.5648 0.128256,-1.02033 -0.237929,-1.67052 -0.365541,-0.65533 -1.119253,-0.75007 z m 0.100543,-0.79986 q 1.23055,0.15469 1.832447,1.04284 0.601897,0.88815 0.424015,2.30329 -0.177239,1.41 -0.980865,2.12669 -0.802982,0.71156 -2.033532,0.55688 -1.235679,-0.15532 -1.837575,-1.04348 -0.596126,-0.89263 -0.418887,-2.30264 0.177882,-1.41513 0.975737,-2.12734 0.802982,-0.71156 2.03866,-0.55624 z"
         style="stroke-width:0.26458332"
         id="path1190"
         inkscape:connector-curvature="0" />
      <path
         d="m 87.780347,250.68304 q -0.152355,-0.10537 -0.339698,-0.16168 -0.181783,-0.061 -0.40845,-0.079 -0.803637,-0.0636 -1.277971,0.42755 -0.468775,0.48645 -0.546279,1.46524 l -0.240667,3.0394 -0.953031,-0.0755 0.45686,-5.7697 0.953031,0.0755 -0.07098,0.89636 q 0.340395,-0.5018 0.839474,-0.71629 0.499486,-0.21964 1.184638,-0.16538 0.09788,0.008 0.21514,0.0326 0.11767,0.0197 0.259873,0.0569 z"
         style="stroke-width:0.26458332"
         id="path1192"
         inkscape:connector-curvature="0" />
      <path
         d="m 91.125064,252.80373 q -1.151758,-0.038 -1.604621,0.21078 -0.452862,0.24875 -0.473812,0.88403 -0.01669,0.50615 0.303979,0.81661 0.326006,0.30547 0.899303,0.32438 0.79022,0.0261 1.28378,-0.51608 0.498894,-0.54712 0.529553,-1.47679 l 0.007,-0.21176 z m 1.908439,-0.33002 -0.108836,3.30033 -0.95033,-0.0313 0.02895,-0.87802 q -0.342758,0.51608 -0.836598,0.75315 -0.49367,0.2319 -1.196088,0.20874 -0.888351,-0.0293 -1.398814,-0.5425 -0.505127,-0.51819 -0.477534,-1.35489 0.03219,-0.97616 0.699311,-1.45052 0.672285,-0.47419 1.968659,-0.43144 l 1.332527,0.0439 0.0031,-0.093 q 0.02163,-0.65593 -0.400463,-1.02661 -0.416759,-0.37568 -1.196649,-0.40139 -0.495824,-0.0164 -0.969741,0.0869 -0.473918,0.10329 -0.915599,0.32656 l 0.02895,-0.87802 q 0.528291,-0.18422 1.022186,-0.26618 0.494066,-0.0871 0.958901,-0.0718 1.255055,0.0414 1.853375,0.71259 0.59832,0.67121 0.554717,1.99341 z"
         style="stroke-width:0.26458332"
         id="path1194"
         inkscape:connector-curvature="0" />
      <path
         d="m 94.832938,247.72276 0.950823,-0.007 0.05609,8.04066 -0.950823,0.007 z"
         style="stroke-width:0.26458332"
         id="path1196"
         inkscape:connector-curvature="0" />
      <path
         d="m 104.47169,249.72307 0.064,0.89689 q -0.41676,-0.1775 -0.85709,-0.24971 -0.44034,-0.0722 -0.90424,-0.0391 -0.70618,0.0504 -1.0464,0.29222 -0.33507,0.24149 -0.30419,0.67447 0.0235,0.32989 0.2897,0.5026 0.26581,0.16755 1.04081,0.28324 l 0.32989,0.049 q 1.02573,0.14443 1.47671,0.51119 0.45577,0.36123 0.50613,1.06741 0.0573,0.80411 -0.54836,1.31875 -0.60056,0.51429 -1.71394,0.59369 -0.46391,0.0331 -0.97567,-0.0237 -0.50625,-0.052 -1.0758,-0.19267 l -0.0699,-0.97937 q 0.54525,0.2357 1.06547,0.33848 0.51986,0.0976 1.01985,0.062 0.67009,-0.0478 1.01474,-0.30032 0.34427,-0.25769 0.3145,-0.67521 -0.0276,-0.38659 -0.30516,-0.57403 -0.27243,-0.1878 -1.16746,-0.31565 l -0.33541,-0.0538 q -0.89466,-0.1227 -1.31361,-0.4762 -0.41932,-0.35865 -0.46711,-1.02874 -0.0581,-0.81442 0.48761,-1.29889 0.54569,-0.48446 1.60753,-0.56019 0.52577,-0.0375 0.99519,0.007 0.46942,0.0442 0.8722,0.17093 z"
         style="stroke-width:0.26458332"
         id="path1198"
         inkscape:connector-curvature="0" />
      <path
         d="m 111.2266,251.44747 0.0566,0.46163 -4.33937,0.53169 q 0.18096,0.96703 0.767,1.41585 0.59053,0.44307 1.52919,0.32805 0.5437,-0.0666 1.03516,-0.2622 0.49659,-0.1962 0.96658,-0.52452 l 0.10935,0.8925 q -0.4814,0.27765 -1.00102,0.45585 -0.51962,0.17821 -1.06845,0.24546 -1.37465,0.16843 -2.27799,-0.53307 -0.89821,-0.70213 -1.06538,-2.06651 -0.17284,-1.41056 0.48511,-2.32939 0.66245,-0.92458 1.95503,-1.08296 1.15922,-0.14204 1.92291,0.52451 0.7682,0.66079 0.92532,1.94311 z m -0.97773,-0.16135 q -0.10516,-0.77326 -0.58745,-1.18273 -0.47716,-0.4101 -1.17475,-0.32463 -0.78991,0.0968 -1.21225,0.60148 -0.41722,0.50407 -0.38973,1.3233 z"
         style="stroke-width:0.26458332"
         id="path1200"
         inkscape:connector-curvature="0" />
      <path
         d="m 111.85212,246.35546 0.93845,-0.15306 1.29434,7.93599 -0.93844,0.15306 z"
         style="stroke-width:0.26458332"
         id="path1202"
         inkscape:connector-curvature="0" />
      <path
         d="m 120.26757,249.75632 0.093,0.45569 -4.28349,0.87438 q 0.25713,0.94961 0.87694,1.35051 0.62383,0.39481 1.5504,0.20567 0.5367,-0.10956 1.01109,-0.34352 0.47945,-0.235 0.9219,-0.59958 l 0.17984,0.881 q -0.45785,0.31498 -0.96169,0.53386 -0.50383,0.21888 -1.0456,0.32947 -1.35695,0.27699 -2.31311,-0.3506 -0.9511,-0.62863 -1.22602,-1.97545 -0.28423,-1.39239 0.29873,-2.36054 0.58699,-0.97424 1.86292,-1.23469 1.14429,-0.23359 1.95847,0.37025 0.81821,0.59774 1.0766,1.86355 z m -0.98744,-0.0832 q -0.1662,-0.76248 -0.67946,-1.13239 -0.50821,-0.37094 -1.19681,-0.23038 -0.77974,0.15917 -1.1607,0.69579 -0.3759,0.53559 -0.28348,1.35005 z"
         style="stroke-width:0.26458332"
         id="path1204"
         inkscape:connector-curvature="0" />
      <path
         d="m 125.04923,246.02191 0.2226,0.86051 q -0.44588,-0.11418 -0.86829,-0.117 -0.4187,-0.009 -0.81894,0.0944 -0.89553,0.23166 -1.24328,0.93013 -0.34904,0.69346 -0.0837,1.71906 0.26532,1.02561 0.90815,1.46782 0.64154,0.4372 1.53707,0.20554 0.40023,-0.10354 0.76328,-0.30955 0.36676,-0.21231 0.70134,-0.52839 l 0.22002,0.85051 q -0.33864,0.27976 -0.73058,0.47723 -0.38695,0.19618 -0.85223,0.31654 -1.26574,0.32744 -2.21696,-0.27519 -0.95122,-0.60263 -1.30066,-1.95343 -0.35462,-1.37081 0.19263,-2.3504 0.55226,-0.98089 1.86303,-1.31998 0.42525,-0.11001 0.85378,-0.12479 0.42725,-0.0198 0.85277,0.057 z"
         style="stroke-width:0.26458332"
         id="path1206"
         inkscape:connector-curvature="0" />
      <path
         d="m 126.77815,243.55258 0.47776,1.57232 1.87394,-0.56941 0.21484,0.70705 -1.87393,0.56942 0.91346,3.00621 q 0.20583,0.67738 0.44737,0.81462 0.24648,0.13575 0.81509,-0.037 l 0.93449,-0.28396 0.23137,0.76145 -0.93449,0.28395 q -1.05316,0.32001 -1.57235,0.0511 -0.52069,-0.27386 -0.8362,-1.31219 l -0.91346,-3.00621 -0.6675,0.20283 -0.21484,-0.70706 0.6675,-0.20282 -0.47777,-1.57233 z"
         style="stroke-width:0.26458332"
         id="path1208"
         inkscape:connector-curvature="0" />
      <path
         d="m 130.15606,244.20591 0.90116,-0.30335 1.84645,5.48533 -0.90116,0.30334 z m -0.71879,-2.13536 0.90116,-0.30335 0.38412,1.14115 -0.90116,0.30334 z"
         style="stroke-width:0.26458332"
         id="path1210"
         inkscape:connector-curvature="0" />
      <path
         d="m 135.05544,243.1663 q -0.71467,0.27236 -0.91648,0.99078 -0.20365,0.71358 0.16625,1.68418 0.3699,0.9706 0.99382,1.37432 0.62692,0.39706 1.34642,0.12286 0.70984,-0.27053 0.91165,-0.98894 0.20181,-0.71841 -0.16625,-1.68418 -0.36622,-0.96095 -0.99497,-1.36283 -0.6306,-0.40671 -1.34044,-0.13619 z m -0.28708,-0.7533 q 1.15892,-0.44167 2.10756,0.0595 0.94864,0.50119 1.45656,1.83395 0.50608,1.32794 0.13345,2.33819 -0.37447,1.00542 -1.5334,1.44709 -1.16375,0.44351 -2.11239,-0.0577 -0.94565,-0.50785 -1.45173,-1.83578 -0.50792,-1.33277 -0.13828,-2.33635 0.37447,-1.00542 1.53823,-1.44893 z"
         style="stroke-width:0.26458332"
         id="path1212"
         inkscape:connector-curvature="0" />
      <path
         d="m 143.78264,241.24827 1.4225,3.19059 -0.86844,0.38719 -1.40988,-3.16227 q -0.33458,-0.75045 -0.79344,-0.99285 -0.45887,-0.24239 -1.04413,0.0185 -0.70325,0.31354 -0.90924,0.94289 -0.206,0.62935 0.13911,1.40339 l 1.33201,2.98764 -0.87316,0.38929 -2.3568,-5.28618 0.87316,-0.38929 0.36614,0.82125 q 0.099,-0.61559 0.41383,-1.03886 0.31956,-0.42537 0.87178,-0.67158 0.91092,-0.40612 1.6307,-0.0481 0.71767,0.35333 1.20586,1.44832 z"
         style="stroke-width:0.26458332"
         id="path1214"
         inkscape:connector-curvature="0" />
    </g>
    <g
       id="g1000"
       style="fill:#ffffff">
      <g
         id="text941"
         style="font-style:normal;font-weight:normal;font-size:10.58333302px;line-height:1.25;font-family:sans-serif;letter-spacing:0px;word-spacing:0px;fill:#ffffff;fill-opacity:1;stroke:none;stroke-width:0.26458332"
         aria-label="Behavior">
        <path
           inkscape:connector-curvature="0"
           id="path1154"
           style="font-size:12.69999981px;fill:#ffffff;stroke-width:0.26458332"
           d="m 33.303288,59.44255 2.051054,2.701689 1.600268,-1.214884 q 0.805074,-0.611192 0.939098,-1.234583 0.135213,-0.632081 -0.385987,-1.318616 -0.52495,-0.691474 -1.162615,-0.721233 -0.636476,-0.03845 -1.441549,0.572744 z m -2.30228,-3.032608 1.687339,2.222596 1.476791,-1.121143 q 0.730987,-0.554947 0.880372,-1.096572 0.150574,-0.550313 -0.276885,-1.113371 -0.423709,-0.558118 -0.994243,-0.560984 -0.565596,-0.0066 -1.296583,0.548331 z m -1.620139,-0.06246 2.548576,-1.934815 q 1.140933,-0.866167 2.118286,-0.860719 0.977353,0.0054 1.64104,0.87967 0.513701,0.676657 0.501319,1.316701 -0.01238,0.640044 -0.549837,1.203782 0.855914,-0.400646 1.643384,-0.204328 0.788659,0.187629 1.358605,0.938373 0.749928,0.98782 0.486921,2.036133 -0.263007,1.048313 -1.502721,1.989473 l -2.647358,2.009808 z" />
        <path
           inkscape:connector-curvature="0"
           id="path1156"
           style="font-size:12.69999981px;fill:#ffffff;stroke-width:0.26458332"
           d="m 44.983555,52.245736 0.296699,0.472707 -4.443441,2.788969 q 0.689391,0.958376 1.554791,1.147347 0.867355,0.180422 1.828525,-0.422866 0.556743,-0.349445 0.991007,-0.812373 0.439517,-0.466225 0.782816,-1.062417 l 0.573618,0.913899 q -0.381518,0.546966 -0.85523,1.005368 -0.473713,0.458403 -1.035708,0.811145 -1.407615,0.883503 -2.746504,0.581719 -1.333636,-0.30508 -2.210546,-1.70219 -0.90658,-1.444381 -0.660001,-2.777906 0.248534,-1.342073 1.572112,-2.17283 1.187019,-0.745043 2.356381,-0.41007 1.171318,0.326425 1.995481,1.639498 z m -1.144441,0.322961 q -0.5083,-0.786504 -1.240939,-0.985588 -0.727387,-0.202381 -1.441699,0.245964 -0.808854,0.507685 -1.010508,1.271223 -0.196402,0.760242 0.250937,1.636258 z" />
        <path
           inkscape:connector-curvature="0"
           id="path1158"
           style="font-size:12.69999981px;fill:#ffffff;stroke-width:0.26458332"
           d="m 51.840611,48.148793 1.914954,3.729042 -1.015005,0.52123 -1.897958,-3.695944 q -0.450411,-0.877097 -1.016212,-1.137255 -0.565802,-0.260159 -1.249827,0.0911 -0.821934,0.422083 -1.027225,1.189753 -0.205292,0.76767 0.259283,1.672349 l 1.793145,3.491839 -1.020522,0.524063 -4.407793,-8.583415 1.020521,-0.524063 1.727991,3.364964 q 0.07797,-0.744113 0.427283,-1.272046 0.354832,-0.530766 1.000243,-0.862201 1.064652,-0.546725 1.950702,-0.165209 0.883217,0.375999 1.54042,1.655788 z" />
        <path
           inkscape:connector-curvature="0"
           id="path1160"
           style="font-size:12.69999981px;fill:#ffffff;stroke-width:0.26458332"
           d="m 57.441002,46.503238 q -1.279956,0.523467 -1.653855,1.018067 -0.373899,0.494601 -0.08517,1.200586 0.230044,0.562492 0.733534,0.745162 0.506882,0.174584 1.14399,-0.08597 0.878176,-0.35915 1.152713,-1.194998 0.277928,-0.843936 -0.144601,-1.877085 l -0.09624,-0.235328 z m 1.928074,-1.297708 1.499978,3.667678 -1.056107,0.431918 -0.399056,-0.975751 q -0.122169,0.733336 -0.54668,1.235236 -0.426859,0.49616 -1.20746,0.815404 -0.987231,0.40375 -1.79803,0.09217 -0.807408,-0.319667 -1.187684,-1.2495 -0.443655,-1.084806 0.0542,-1.931589 0.503595,-0.849131 1.944263,-1.438324 l 1.480846,-0.605625 -0.04225,-0.103315 q -0.29812,-0.728942 -0.942226,-0.927802 -0.640713,-0.206948 -1.50741,0.147507 -0.551012,0.225349 -1.019336,0.570974 -0.468325,0.345626 -0.842481,0.806833 l -0.399055,-0.975752 q 0.488163,-0.460934 0.988836,-0.79299 0.498325,-0.337796 1.014899,-0.54906 1.394751,-0.570415 2.379287,-0.128897 0.984536,0.441518 1.585466,1.910885 z" />
        <path
           inkscape:connector-curvature="0"
           id="path1162"
           style="font-size:12.69999981px;fill:#ffffff;stroke-width:0.26458332"
           d="m 60.222869,41.700174 1.153374,-0.363264 3.821279,4.907844 0.31904,-6.211869 1.153374,-0.363264 -0.397751,7.406925 -1.478685,0.465723 z" />
        <path
           inkscape:connector-curvature="0"
           id="path1164"
           style="font-size:12.69999981px;fill:#ffffff;stroke-width:0.26458332"
           d="m 68.608786,39.20956 1.106835,-0.277191 1.687249,6.737251 -1.106834,0.277191 z m -0.656822,-2.622716 1.106834,-0.277191 0.351009,1.401589 -1.106835,0.277191 z" />
        <path
           inkscape:connector-curvature="0"
           id="path1166"
           style="font-size:12.69999981px;fill:#ffffff;stroke-width:0.26458332"
           d="m 75.233978,38.564127 q -0.902182,0.168448 -1.294396,0.973447 -0.393352,0.798902 -0.164581,2.024163 0.228772,1.225261 0.878945,1.835633 0.65513,0.603138 1.563408,0.433551 0.896087,-0.16731 1.288301,-0.972309 0.392213,-0.804998 0.16458,-2.024163 -0.226495,-1.21307 -0.882764,-1.822304 -0.657406,-0.615329 -1.553493,-0.448018 z m -0.177554,-0.950949 q 1.462998,-0.273161 2.475681,0.52186 1.012682,0.79502 1.326816,2.477468 0.312996,1.676352 -0.34344,2.789326 -0.657574,1.106878 -2.120573,1.380038 -1.469094,0.274298 -2.481776,-0.520722 -1.007725,-0.802254 -1.320721,-2.478606 -0.314134,-1.682449 0.337344,-2.788188 0.657575,-1.106878 2.126669,-1.381176 z" />
        <path
           inkscape:connector-curvature="0"
           id="path1168"
           style="font-size:12.69999981px;fill:#ffffff;stroke-width:0.26458332"
           d="m 84.694221,37.498804 q -0.203763,-0.08885 -0.437381,-0.111836 -0.228168,-0.02986 -0.499221,0.0014 -0.961008,0.110878 -1.405976,0.798933 -0.439518,0.681184 -0.304473,1.851642 l 0.419348,3.63458 -1.139656,0.13149 -0.796052,-6.89954 1.139656,-0.131491 0.123673,1.071893 q 0.2848,-0.669575 0.822881,-1.037531 0.53737,-0.374116 1.356691,-0.468647 0.117045,-0.0135 0.260865,-0.01137 0.143108,-0.004 0.319151,0.0069 z" />
      </g>
      <g
         id="text956"
         style="font-style:normal;font-weight:normal;font-size:10.58333302px;line-height:1.25;font-family:sans-serif;letter-spacing:0px;word-spacing:0px;fill:#ffffff;fill-opacity:1;stroke:none;stroke-width:0.26458332"
         aria-label="Behavior">
        <path
           inkscape:connector-curvature="0"
           id="path1114"
           style="font-size:12.69999981px;fill:#ffffff;stroke-width:0.26458332"
           d="m 172.68442,76.203663 -2.71269,2.036471 1.20624,1.60679 q 0.60685,0.808354 1.22951,0.945734 0.63134,0.138616 1.32068,-0.378879 0.69429,-0.521218 0.72748,-1.158713 0.0419,-0.63626 -0.56497,-1.444614 z m 3.04497,-2.285912 -2.23165,1.675342 1.11317,1.482809 q 0.551,0.733966 1.09181,0.886266 0.5495,0.153537 1.11485,-0.270883 0.56039,-0.420697 0.56633,-0.991208 0.01,-0.565551 -0.54134,-1.299517 z m 0.0712,-1.619779 1.92106,2.558961 q 0.86001,1.145582 0.84929,2.122891 -0.0107,0.97731 -0.88849,1.636278 -0.67942,0.510049 -1.31939,0.49422 -0.63996,-0.01583 -1.2008,-0.556314 0.39603,0.858061 0.19547,1.644461 -0.19187,0.787638 -0.94567,1.353531 -0.99185,0.744596 -2.03873,0.475947 -1.04688,-0.26865 -1.98135,-1.513416 l -1.99552,-2.658145 z" />
        <path
           inkscape:connector-curvature="0"
           id="path1116"
           style="font-size:12.69999981px;fill:#ffffff;stroke-width:0.26458332"
           d="m 179.81821,87.922531 -0.47429,0.294148 -2.765,-4.4584 q -0.96207,0.68422 -1.1557,1.548589 -0.18509,0.866371 0.41301,1.830776 0.34644,0.558618 0.80702,0.995369 0.46385,0.442022 1.05819,0.788527 l -0.91698,0.568687 q -0.5449,-0.384459 -1.00075,-0.860633 -0.45584,-0.476175 -0.80555,-1.040062 -0.87591,-1.412354 -0.56692,-2.749597 0.31226,-1.331974 1.71407,-2.201346 1.44925,-0.898786 2.78142,-0.645028 1.34072,0.255759 2.16433,1.583793 0.73864,1.191015 0.39738,2.358555 -0.33273,1.169543 -1.65023,1.986622 z m -0.31679,-1.146165 q 0.78923,-0.504055 0.99226,-1.235612 0.2063,-0.726286 -0.23819,-1.443003 -0.50333,-0.811576 -1.26577,-1.017341 -0.75917,-0.200494 -1.63758,0.24212 z" />
        <path
           inkscape:connector-curvature="0"
           id="path1118"
           style="font-size:12.69999981px;fill:#ffffff;stroke-width:0.26458332"
           d="m 183.87816,94.801553 -3.7393,1.89484 -0.51576,-1.017799 3.70612,-1.878021 q 0.87951,-0.44568 1.14271,-1.010072 0.2632,-0.564393 -0.0844,-1.2503 -0.41765,-0.824195 -1.18421,-1.033619 -0.76655,-0.209423 -1.67372,0.250272 l -3.50144,1.77431 -0.51856,-1.023329 8.60703,-4.361496 0.51856,1.02333 -3.37422,1.70984 q 0.74368,0.08197 1.26972,0.434129 0.52885,0.357685 0.8568,1.004872 0.54098,1.067582 0.1547,1.951564 -0.38075,0.881178 -1.66406,1.531479 z" />
        <path
           inkscape:connector-curvature="0"
           id="path1120"
           style="font-size:12.69999981px;fill:#ffffff;stroke-width:0.26458332"
           d="m 185.49353,100.41073 q -0.51657,-1.282761 -1.00915,-1.659319 -0.49258,-0.376557 -1.20011,-0.09164 -0.56372,0.22701 -0.7491,0.729509 -0.17731,0.505935 0.0798,1.14444 0.35442,0.8801 1.18878,1.15913 0.84242,0.28247 1.87783,-0.13448 l 0.23584,-0.095 z m 1.2873,1.93503 -3.6757,1.4802 -0.42623,-1.05842 0.97789,-0.39379 q -0.73267,-0.12612 -1.23227,-0.55333 -0.49386,-0.42952 -0.80889,-1.21183 -0.39843,-0.989391 -0.0825,-1.798501 0.32401,-0.805673 1.25588,-1.180936 1.08718,-0.437805 1.93127,0.0646 0.84641,0.508161 1.42783,1.951982 l 0.59764,1.484095 0.10354,-0.0417 q 0.73054,-0.29419 0.93287,-0.93721 0.21039,-0.639595 -0.13939,-1.508188 -0.22237,-0.552219 -0.56547,-1.022398 -0.3431,-0.470179 -0.80229,-0.846814 l 0.97789,-0.393794 q 0.4583,0.490639 0.78765,0.993093 0.33511,0.500137 0.54359,1.017842 0.56289,1.397803 0.11608,2.379949 -0.44682,0.98215 -1.9194,1.57515 z" />
        <path
           inkscape:connector-curvature="0"
           id="path1122"
           style="font-size:12.69999981px;fill:#ffffff;stroke-width:0.26458332"
           d="m 190.28154,103.21842 0.35704,1.15532 -4.92835,3.79479 6.21006,0.35249 0.35705,1.15532 -7.40468,-0.43765 -0.45775,-1.48117 z" />
        <path
           inkscape:connector-curvature="0"
           id="path1124"
           style="font-size:12.69999981px;fill:#ffffff;stroke-width:0.26458332"
           d="m 192.72695,111.61764 0.27122,1.10831 -6.74624,1.65094 -0.27123,-1.10831 z m 2.62621,-0.64268 0.27123,1.10831 -1.40346,0.34345 -0.27123,-1.10831 z" />
        <path
           inkscape:connector-curvature="0"
           id="path1126"
           style="font-size:12.69999981px;fill:#ffffff;stroke-width:0.26458332"
           d="m 193.33668,118.24621 q -0.16359,-0.90307 -0.96646,-1.29962 -0.79677,-0.39765 -2.02325,-0.17548 -1.22647,0.22217 -1.84034,0.86905 -0.60666,0.65187 -0.44196,1.56105 0.16248,0.89697 0.96535,1.29351 0.80287,0.39655 2.02325,0.17549 1.21427,-0.21996 1.82703,-0.87294 0.61886,-0.65408 0.45638,-1.55106 z m 0.95189,-0.17243 q 0.26528,1.46445 -0.53519,2.47284 -0.80046,1.00838 -2.48457,1.31345 -1.67802,0.30396 -2.78744,-0.35846 -1.10332,-0.66353 -1.3686,-2.12797 -0.26638,-1.47056 0.53409,-2.47894 0.80767,-1.00339 2.48568,-1.30735 1.68412,-0.30507 2.78633,0.35236 1.10332,0.66352 1.3697,2.13407 z" />
        <path
           inkscape:connector-curvature="0"
           id="path1128"
           style="font-size:12.69999981px;fill:#ffffff;stroke-width:0.26458332"
           d="m 194.35104,127.71205 q 0.0899,-0.20328 0.11419,-0.43677 0.0311,-0.228 0.001,-0.49922 -0.1057,-0.96159 -0.79135,-1.41026 -0.67881,-0.44318 -1.84997,-0.31444 l -3.63679,0.39976 -0.12535,-1.14035 6.90373,-0.75887 0.12535,1.14034 -1.07255,0.1179 q 0.66804,0.2884 1.03309,0.82846 0.37121,0.53938 0.46133,1.35919 0.0129,0.11712 0.01,0.26093 0.003,0.14312 -0.009,0.31911 z" />
      </g>
      <g
         id="text963"
         style="font-style:normal;font-weight:normal;font-size:10.58333302px;line-height:1.25;font-family:sans-serif;letter-spacing:0px;word-spacing:0px;fill:#ffffff;fill-opacity:1;stroke:none;stroke-width:0.26458332"
         aria-label="Behavior">
        <path
           inkscape:connector-curvature="0"
           id="path1134"
           style="font-size:12.69999981px;fill:#ffffff;stroke-width:0.26458332"
           d="m 106.89334,38.897107 -0.48329,3.357434 1.98868,0.286268 q 1.00048,0.144018 1.53843,-0.198306 0.54498,-0.347577 0.66779,-1.200746 0.12369,-0.859307 -0.30289,-1.334209 -0.41956,-0.480156 -1.42003,-0.624173 z m 0.5425,-3.768674 -0.39759,2.762058 1.83523,0.264179 q 0.90841,0.130764 1.39893,-0.143205 0.49755,-0.279225 0.59827,-0.978946 0.0998,-0.693583 -0.29875,-1.101804 -0.39245,-0.407338 -1.30086,-0.538103 z m -1.09319,-1.197368 3.16716,0.455908 q 1.41786,0.204099 2.10027,0.90378 0.68242,0.699682 0.52604,1.786091 -0.12105,0.840894 -0.58544,1.281517 -0.4644,0.440624 -1.24317,0.453823 0.88628,0.32806 1.29946,1.026577 0.42021,0.693263 0.28591,1.626224 -0.1767,1.227581 -1.10777,1.776451 -0.93106,0.54887 -2.47167,0.327101 l -3.28992,-0.473579 z" />
        <path
           inkscape:connector-curvature="0"
           id="path1136"
           style="font-size:12.69999981px;fill:#ffffff;stroke-width:0.26458332"
           d="m 120.21921,42.159617 -0.12821,0.543178 -5.10588,-1.205227 q -0.19825,1.163805 0.27489,1.912647 0.4806,0.744231 1.58506,1.004936 0.63974,0.15101 1.27428,0.135129 0.64057,-0.01446 1.30611,-0.18868 l -0.24788,1.050144 q -0.65733,0.112446 -1.31635,0.09706 -0.65901,-0.01538 -1.30479,-0.167818 -1.61746,-0.381797 -2.34277,-1.546971 -0.71926,-1.163749 -0.34032,-2.769142 0.39177,-1.659711 1.51436,-2.420553 1.13005,-0.765452 2.65095,-0.406449 1.36398,0.321964 1.94661,1.389745 0.5901,1.063169 0.23394,2.571998 z m -1.03357,-0.588037 q 0.20305,-0.914181 -0.16967,-1.575603 -0.36668,-0.659997 -1.18748,-0.853745 -0.92944,-0.219391 -1.61466,0.173192 -0.67919,0.394007 -0.98878,1.327642 z" />
        <path
           inkscape:connector-curvature="0"
           id="path1138"
           style="font-size:12.69999981px;fill:#ffffff;stroke-width:0.26458332"
           d="m 127.95118,44.164831 -1.31032,3.981941 -1.08384,-0.356656 1.29869,-3.946598 q 0.30819,-0.936581 0.0961,-1.522104 -0.21208,-0.585522 -0.9425,-0.825877 -0.87767,-0.288814 -1.5684,0.104081 -0.69072,0.392894 -1.00861,1.358927 l -1.22697,3.728652 -1.08973,-0.358594 3.01607,-9.165533 1.08973,0.358594 -1.18239,3.593172 q 0.58454,-0.467004 1.20571,-0.589014 0.62705,-0.120071 1.31624,0.106716 1.13685,0.3741 1.4874,1.27285 0.3525,0.892859 -0.0972,2.259443 z" />
        <path
           inkscape:connector-curvature="0"
           id="path1140"
           style="font-size:12.69999981px;fill:#ffffff;stroke-width:0.26458332"
           d="m 133.05537,46.996687 q -1.27148,-0.543725 -1.88618,-0.462625 -0.61469,0.0811 -0.9146,0.782411 -0.23894,0.558768 -0.0155,1.045514 0.23163,0.483483 0.86452,0.754127 0.87237,0.373049 1.66025,-0.01842 0.79603,-0.394732 1.23491,-1.421041 l 0.1,-0.23377 z m 2.27784,0.461499 -1.55803,3.643397 -1.04911,-0.448634 0.41449,-0.969291 q -0.6079,0.427966 -1.26334,0.478157 -0.65299,0.04449 -1.42843,-0.28711 -0.98069,-0.419376 -1.3282,-1.21544 -0.33936,-0.799327 0.0556,-1.723005 0.46082,-1.077625 1.41331,-1.317773 0.95819,-0.23771 2.38932,0.374286 l 1.47104,0.629063 0.0439,-0.102631 q 0.30966,-0.724118 -0.001,-1.322348 -0.30257,-0.601493 -1.16353,-0.969666 -0.54736,-0.234069 -1.1223,-0.324809 -0.57493,-0.09074 -1.16603,-0.03327 l 0.41449,-0.969292 q 0.67097,0.02389 1.25896,0.147193 0.59043,0.117597 1.10358,0.337038 1.38552,0.592489 1.76251,1.603493 0.37699,1.011004 -0.2472,2.470643 z" />
        <path
           inkscape:connector-curvature="0"
           id="path1142"
           style="font-size:12.69999981px;fill:#ffffff;stroke-width:0.26458332"
           d="m 138.42848,45.604611 1.06854,0.566096 -0.81098,6.166961 4.64675,-4.134824 1.06854,0.566095 -5.55289,4.917951 -1.36991,-0.725763 z" />
        <path
           inkscape:connector-curvature="0"
           id="path1144"
           style="font-size:12.69999981px;fill:#ffffff;stroke-width:0.26458332"
           d="m 146.09034,49.826307 0.97458,0.5934 -3.612,5.932185 -0.97458,-0.5934 z m 1.4061,-2.309315 0.97458,0.5934 -0.75143,1.234107 -0.97457,-0.593401 z" />
        <path
           inkscape:connector-curvature="0"
           id="path1146"
           style="font-size:12.69999981px;fill:#ffffff;stroke-width:0.26458332"
           d="m 151.20209,54.090086 q -0.75345,-0.524051 -1.602,-0.23803 -0.84502,0.280931 -1.55673,1.30419 -0.71172,1.023259 -0.68974,1.914772 0.0306,0.889963 0.78914,1.417555 0.74836,0.52051 1.59691,0.234488 0.84856,-0.286021 1.55673,-1.304189 0.70464,-1.013078 0.67757,-1.908131 -0.0235,-0.900145 -0.77188,-1.420655 z m 0.55238,-0.794171 q 1.2218,0.849812 1.36687,2.129085 0.14506,1.279272 -0.83222,2.684344 -0.97375,1.399982 -2.22711,1.714142 -1.24982,0.30907 -2.47162,-0.540742 -1.2269,-0.853354 -1.37196,-2.132626 -0.13644,-1.280823 0.8373,-2.680804 0.97729,-1.405072 2.22202,-1.717683 1.24982,-0.30907 2.47672,0.544284 z" />
        <path
           inkscape:connector-curvature="0"
           id="path1148"
           style="font-size:12.69999981px;fill:#ffffff;stroke-width:0.26458332"
           d="m 158.60356,60.077513 q -0.0798,-0.207467 -0.22751,-0.389937 -0.13896,-0.183415 -0.35156,-0.35444 -0.75376,-0.606359 -1.5561,-0.440015 -0.79362,0.165399 -1.53213,1.083444 l -2.29329,2.850769 -0.89388,-0.719079 4.35335,-5.41163 0.89388,0.719079 -0.67632,0.840736 q 0.67671,-0.267404 1.31653,-0.14268 0.6437,0.119893 1.28633,0.636853 0.0918,0.07385 0.19128,0.177746 0.10335,0.09906 0.21921,0.232055 z" />
      </g>
      <g
         id="text977"
         style="font-style:normal;font-weight:normal;font-size:10.58333302px;line-height:1.25;font-family:sans-serif;letter-spacing:0px;word-spacing:0px;fill:#ffffff;fill-opacity:1;stroke:none;stroke-width:0.26458332"
         aria-label="1">
        <path
           inkscape:connector-curvature="0"
           id="path1131"
           style="font-size:12.69999981px;fill:#ffffff;stroke-width:0.26458332"
           d="m 124.41521,60.590524 1.88478,0.797042 2.75101,-6.505372 -2.22432,-0.455859 0.44441,-1.050911 2.21289,0.451028 1.15372,0.487886 -3.19541,7.556283 1.88479,0.797042 -0.4106,0.970951 -4.91187,-2.077139 z" />
      </g>
      <g
         id="text981"
         style="font-style:normal;font-weight:normal;font-size:10.58333302px;line-height:1.25;font-family:sans-serif;letter-spacing:0px;word-spacing:0px;fill:#ffffff;fill-opacity:1;stroke:none;stroke-width:0.26458332"
         aria-label="...">
        <path
           inkscape:connector-curvature="0"
           id="path1171"
           style="font-size:12.69999981px;fill:#ffffff;stroke-width:0.26458332"
           d="m 6.1099747,104.49135 0.4607762,-1.22464 1.4741995,0.55468 -0.4607761,1.22463 z" />
        <path
           inkscape:connector-curvature="0"
           id="path1173"
           style="font-size:12.69999981px;fill:#ffffff;stroke-width:0.26458332"
           d="m 7.613203,100.66561 0.5130032,-1.203692 1.4489879,0.617552 -0.5130031,1.20368 z" />
        <path
           inkscape:connector-curvature="0"
           id="path1175"
           style="font-size:12.69999981px;fill:#ffffff;stroke-width:0.26458332"
           d="m 9.2803382,96.907365 0.5646401,-1.180346 1.4208897,0.679709 -0.56464,1.180346 z" />
      </g>
      <g
         id="text985"
         style="font-style:normal;font-weight:normal;font-size:10.58333302px;line-height:1.25;font-family:sans-serif;letter-spacing:0px;word-spacing:0px;fill:#ffffff;fill-opacity:1;stroke:none;stroke-width:0.26458332"
         aria-label="n">
        <path
           inkscape:connector-curvature="0"
           id="path1151"
           style="font-size:12.69999981px;fill:#ffffff;stroke-width:0.26458332"
           d="m 62.902122,55.450935 1.620218,3.866225 -1.052345,0.441006 -1.605837,-3.831909 q -0.381087,-0.909364 -0.925027,-1.212586 -0.543939,-0.303222 -1.253128,-0.006 -0.852171,0.357119 -1.116335,1.106571 -0.264163,0.749453 0.128907,1.687413 l 1.517157,3.620296 -1.058065,0.443403 -2.684384,-6.405579 1.058064,-0.443403 0.417039,0.995152 q 0.135397,-0.735833 0.524574,-1.235109 0.394895,-0.501673 1.064049,-0.782095 1.103819,-0.462577 1.957639,-0.01355 0.851423,0.443312 1.407474,1.770182 z" />
      </g>
      <g
         id="text993"
         style="font-style:normal;font-weight:normal;font-size:10.58333302px;line-height:1.25;font-family:sans-serif;letter-spacing:0px;word-spacing:0px;fill:#ffffff;fill-opacity:1;stroke:none;stroke-width:0.26458332"
         aria-label="2">
        <path
           inkscape:connector-curvature="0"
           id="path1111"
           style="font-size:12.69999981px;fill:#ffffff;stroke-width:0.26458332"
           d="m 170.19623,104.95542 1.6376,4.05353 -0.97745,0.39488 -2.20205,-5.45071 0.97745,-0.39488 q 0.95134,0.3848 2.5612,1.05867 1.61793,0.6773 2.06988,0.83581 0.85203,0.30453 1.37153,0.34881 0.52756,0.0477 0.94729,-0.12187 0.68421,-0.27641 0.92032,-0.9336 0.23843,-0.65144 -0.0728,-1.4219 -0.22066,-0.54622 -0.65662,-1.07903 -0.43364,-0.52707 -1.09761,-1.0614 l 1.17294,-0.47386 q 0.56512,0.58765 0.95508,1.13904 0.38996,0.5514 0.59437,1.05737 0.5389,1.33393 0.19249,2.39684 -0.34642,1.06291 -1.46186,1.51353 -0.52897,0.21371 -1.08749,0.20526 -0.55046,-0.005 -1.4058,-0.26808 -0.22481,-0.0764 -1.33528,-0.52397 -1.10472,-0.4499 -3.10316,-1.27444 z" />
      </g>
      <g
         id="text1025"
         style="font-style:normal;font-weight:normal;font-size:10.58333302px;line-height:1.25;font-family:sans-serif;letter-spacing:0px;word-spacing:0px;fill:#ffffff;fill-opacity:1;stroke:none;stroke-width:0.26458332"
         aria-label="...">
        <path
           inkscape:connector-curvature="0"
           id="path1104"
           style="font-size:12.69999981px;fill:#ffffff;stroke-width:0.26458332"
           d="m 184.40595,166.32921 -0.41294,1.24157 -1.4946,-0.4971 0.41294,-1.24157 z" />
        <path
           inkscape:connector-curvature="0"
           id="path1106"
           style="font-size:12.69999981px;fill:#ffffff;stroke-width:0.26458332"
           d="m 183.0522,170.21036 -0.46594,1.22268 -1.47185,-0.5609 0.46595,-1.22268 z" />
        <path
           inkscape:connector-curvature="0"
           id="path1108"
           style="font-size:12.69999981px;fill:#ffffff;stroke-width:0.26458332"
           d="m 181.53204,174.03043 -0.51845,1.20135 -1.44618,-0.6241 0.51845,-1.20135 z" />
      </g>
    </g>
  </g>
</svg>
