<?xml version="1.0" encoding="UTF-8" standalone="no"?>
<!-- Created with Inkscape (http://www.inkscape.org/) -->

<svg
   xmlns:dc="http://purl.org/dc/elements/1.1/"
   xmlns:cc="http://creativecommons.org/ns#"
   xmlns:rdf="http://www.w3.org/1999/02/22-rdf-syntax-ns#"
   xmlns:svg="http://www.w3.org/2000/svg"
   xmlns="http://www.w3.org/2000/svg"
   xmlns:sodipodi="http://sodipodi.sourceforge.net/DTD/sodipodi-0.dtd"
   xmlns:inkscape="http://www.inkscape.org/namespaces/inkscape"
   width="210mm"
   height="297mm"
   viewBox="0 0 210 297"
   version="1.1"
   id="svg8"
   inkscape:version="0.92.3 (2405546, 2018-03-11)"
   sodipodi:docname="02 - Inner Shadows.svg">
  <defs
     id="defs2">
    <clipPath
       clipPathUnits="userSpaceOnUse"
       id="clipPath1398">
      <path
         d="M 37.48156,166.76172 Q 73.579363,73.919257 90.260927,31.394948 q 1.093872,-2.051011 4.785693,-4.922428 3.828555,-3.00815 5.6061,-3.00815 0.4102,0 0.8204,0.410202 0.54694,0.273468 0.82041,0.410202 l 55.65078,146.032036 q 6.83671,17.6387 6.97344,18.0489 1.77755,4.23876 8.47752,6.83671 6.8367,2.46121 10.11832,2.46121 0.82041,1.23061 0.82041,4.10202 0,2.73469 -0.27347,3.82856 -27.34682,-1.36734 -30.08151,-1.36734 -5.6061,0 -10.52852,0.27347 -4.7857,0.13673 -10.802,0.54693 -6.0163,0.4102 -10.39179,0.54694 -0.95714,-1.09387 -0.95714,-3.96529 0.13673,-2.87142 1.23061,-3.96529 3.14488,0 8.34078,-0.95714 5.33263,-1.09387 6.97344,-2.59795 1.09387,-1.09387 1.09387,-3.82855 0,-3.69182 -4.64896,-16.95503 -4.64896,-13.39995 -9.29792,-24.88561 l -4.64896,-11.48567 q -0.8204,-1.09387 -1.64081,-1.09387 -3.55509,-0.27347 -27.073353,-0.27347 -17.228497,0 -29.534567,0.82041 l -1.367343,0.8204 q -7.65711,20.23665 -12.30607,33.36313 -3.828555,11.21219 -3.828555,19.41624 0,2.32448 2.461215,3.96529 2.597949,1.64081 6.153036,2.46121 3.691819,0.68367 6.289768,0.95714 2.597949,0.27347 3.965289,0.27347 0.546936,0.54694 0.68367,3.69182 0.273468,3.00815 -0.136734,4.23876 -3.965289,-0.13674 -8.614248,-0.54694 -4.64896,-0.4102 -8.614249,-0.54693 -3.965289,-0.27347 -9.297919,-0.27347 -5.6061,0 -9.981591,0.27347 -4.238758,0.13673 -9.434654,0.54693 -5.195897,0.4102 -9.8448566,0.54694 -0.5469366,-0.54694 -0.5469366,-3.55509 0,-3.00815 0.5469366,-4.37549 3.4183526,0 9.0244516,-1.36734 5.606098,-1.50408 7.383642,-3.82856 5.742834,-7.52037 12.853008,-25.70601 z M 91.081331,56.554026 65.922255,123.28027 q 0,1.09388 0.546936,1.09388 14.220346,0.54693 24.885608,0.54693 10.255061,0 22.971331,-0.8204 0.27347,0 0.54694,-0.27347 0.27346,-0.54694 0.27346,-0.82041 v -0.27346 z"
         style="font-style:normal;font-variant:normal;font-weight:normal;font-stretch:normal;font-size:280.03146362px;line-height:1.25;font-family:Amiri;-inkscape-font-specification:'Amiri, Normal';font-variant-ligatures:normal;font-variant-caps:normal;font-variant-numeric:normal;font-feature-settings:normal;text-align:start;letter-spacing:0px;word-spacing:0px;writing-mode:lr-tb;text-anchor:start;opacity:0.47000002;fill:#ff0000;fill-opacity:1;stroke:none;stroke-width:7.00078869"
         id="path1400"
         inkscape:connector-curvature="0" />
    </clipPath>
  </defs>
  <sodipodi:namedview
     id="base"
     pagecolor="#ffffff"
     bordercolor="#666666"
     borderopacity="1.0"
     inkscape:pageopacity="0.0"
     inkscape:pageshadow="2"
     inkscape:zoom="0.49497475"
     inkscape:cx="403.654"
     inkscape:cy="677.93185"
     inkscape:document-units="mm"
     inkscape:current-layer="layer1"
     showgrid="false"
     showguides="false"
     inkscape:window-width="1920"
     inkscape:window-height="1015"
     inkscape:window-x="0"
     inkscape:window-y="0"
     inkscape:window-maximized="1" />
  <metadata
     id="metadata5">
    <rdf:RDF>
      <cc:Work
         rdf:about="">
        <dc:format>image/svg+xml</dc:format>
        <dc:type
           rdf:resource="http://purl.org/dc/dcmitype/StillImage" />
        <dc:title></dc:title>
      </cc:Work>
    </rdf:RDF>
  </metadata>
  <g
     inkscape:label="Ebene 1"
     inkscape:groupmode="layer"
     id="layer1">
    <path
       style="opacity:0.48500001;fill:#000000;fill-opacity:1;stroke:#800000;stroke-width:0.26458332;stroke-opacity:1"
       d="M -24.069334,-0.36328516 V 236.83001 H 207.61056 V -0.36328516 Z M 96.419431,27.16837 c 0.27347,0 0.546637,0.136842 0.820107,0.41031 l 0.820614,0.410311 55.650858,146.031929 c 4.5578,11.75914 6.88206,17.77556 6.97321,18.04903 1.18504,2.82584 4.01088,5.10483 8.47752,6.83679 4.5578,1.64081 7.9305,2.46083 10.11825,2.46083 0.54694,0.82041 0.82062,2.18781 0.82062,4.10208 0,1.82313 -0.0911,3.09946 -0.27337,3.82871 -18.23121,-0.91156 -28.25824,-1.36736 -30.08137,-1.36736 -3.7374,0 -7.24694,0.091 -10.52855,0.27337 -3.19047,0.0911 -6.79106,0.27378 -10.80193,0.54725 -4.01086,0.27347 -7.47514,0.45558 -10.39213,0.54674 -0.63809,-0.72925 -0.95704,-2.05086 -0.95704,-3.96514 0.0911,-1.91427 0.50116,-3.2364 1.23041,-3.96565 2.09659,0 4.87716,-0.31895 8.34109,-0.95704 3.55509,-0.72925 5.87935,-1.59506 6.97322,-2.59778 0.72925,-0.72924 1.09399,-2.00558 1.09399,-3.8287 0,-2.46122 -1.5495,-8.1129 -4.64881,-16.95504 -3.09931,-8.9333 -6.19883,-17.2282 -9.29814,-24.8853 l -4.64881,-11.48561 c -0.54694,-0.72924 -1.09379,-1.09399 -1.64073,-1.09399 -2.37006,-0.18231 -11.39444,-0.27337 -27.073261,-0.27337 -11.485666,0 -21.330584,0.27317 -29.53463,0.82011 l -1.367359,0.82062 c -5.104741,13.4911 -9.206921,24.61183 -12.306226,33.36282 -2.552372,7.4748 -3.828706,13.94702 -3.828706,19.41639 0,1.54965 0.820537,2.87126 2.461347,3.96513 1.731966,1.09387 3.783055,1.91442 6.153113,2.46135 2.461215,0.45578 4.557573,0.77473 6.289538,0.95705 1.731967,0.18231 3.05409,0.27336 3.965651,0.27336 0.364623,0.36463 0.592522,1.5957 0.683678,3.69229 0.182312,2.00543 0.136525,3.41809 -0.136943,4.2385 -2.643526,-0.0912 -5.515154,-0.27327 -8.61446,-0.54674 -3.099305,-0.27347 -5.970418,-0.4561 -8.613944,-0.54725 -2.643526,-0.18232 -5.743054,-0.27337 -9.298141,-0.27337 -3.737398,0 -7.064309,0.091 -9.981303,0.27337 -2.825838,0.0911 -5.970635,0.27378 -9.434566,0.54725 -3.463931,0.27347 -6.7455692,0.45558 -9.844875,0.54674 -0.3646241,-0.36463 -0.5472533,-1.54939 -0.5472533,-3.55483 0,-2.00543 0.1826292,-3.4644 0.5472533,-4.37596 2.2789018,0 5.2868546,-0.45528 9.024253,-1.36684 3.737399,-1.00272 6.198499,-2.27905 7.383529,-3.8287 3.828554,-5.01358 8.112846,-13.58217 12.852962,-25.70593 C 57.3133,108.57113 74.906779,63.448691 86.02782,35.099151 c 0.72925,-1.367341 2.324023,-3.008419 4.785238,-4.922698 2.55237,-2.005432 4.421347,-3.008083 5.606373,-3.008083 z m -9.571506,33.08997 -25.159186,66.72618 c 0,0.72925 0.182628,1.09399 0.547253,1.09399 9.48023,0.36462 17.775129,0.54674 24.885301,0.54674 6.836709,0 14.494187,-0.27369 22.971707,-0.82063 0.18231,0 0.36442,-0.0911 0.54673,-0.27337 0.18231,-0.36462 0.27337,-0.63779 0.27337,-0.8201 v -0.27337 z"
       id="rect823"
       inkscape:connector-curvature="0"
       clip-path="url(#clipPath1398)" />
    <path
       inkscape:connector-curvature="0"
       id="path819"
       style="font-style:normal;font-variant:normal;font-weight:normal;font-stretch:normal;font-size:280.03146362px;line-height:1.25;font-family:Amiri;-inkscape-font-specification:'Amiri, Normal';font-variant-ligatures:normal;font-variant-caps:normal;font-variant-numeric:normal;font-feature-settings:normal;text-align:start;letter-spacing:0px;word-spacing:0px;writing-mode:lr-tb;text-anchor:start;fill:#b3b3b3;fill-opacity:1;stroke:none;stroke-width:7.00078869;opacity:0.47"
       d="M 37.481559,166.76172 Q 73.579364,73.919257 90.260926,31.394948 q 1.093873,-2.051011 4.785694,-4.922428 3.828555,-3.00815 5.6061,-3.00815 0.4102,0 0.8204,0.410202 0.54694,0.273468 0.82041,0.410202 l 55.65078,146.032036 q 6.83671,17.6387 6.97344,18.0489 1.77755,4.23876 8.47752,6.83671 6.8367,2.46121 10.11832,2.46121 0.82041,1.23061 0.82041,4.10202 0,2.73469 -0.27347,3.82856 -27.34682,-1.36734 -30.08151,-1.36734 -5.6061,0 -10.52852,0.27347 -4.7857,0.13673 -10.802,0.54693 -6.0163,0.4102 -10.39179,0.54694 -0.95714,-1.09387 -0.95714,-3.96529 0.13673,-2.87142 1.23061,-3.96529 3.14488,0 8.34078,-0.95714 5.33263,-1.09387 6.97344,-2.59795 1.09387,-1.09387 1.09387,-3.82855 0,-3.69182 -4.64896,-16.95503 -4.64896,-13.39995 -9.29792,-24.88561 l -4.64896,-11.48567 q -0.8204,-1.09387 -1.64081,-1.09387 -3.55509,-0.27347 -27.073353,-0.27347 -17.228498,0 -29.534568,0.82041 l -1.367341,0.8204 q -7.657111,20.23665 -12.30607,33.36313 -3.828556,11.21219 -3.828556,19.41624 0,2.32448 2.461215,3.96529 2.597948,1.64081 6.153035,2.46121 3.691821,0.68367 6.289769,0.95714 2.597948,0.27347 3.965289,0.27347 0.546937,0.54694 0.683671,3.69182 0.273468,3.00815 -0.136734,4.23876 -3.96529,-0.13674 -8.61425,-0.54694 -4.648959,-0.4102 -8.614249,-0.54693 -3.965289,-0.27347 -9.297919,-0.27347 -5.606099,0 -9.981591,0.27347 -4.238757,0.13673 -9.434653,0.54693 -5.195897,0.4102 -9.8448566,0.54694 -0.5469365,-0.54694 -0.5469365,-3.55509 0,-3.00815 0.5469365,-4.37549 3.4183526,0 9.0244516,-1.36734 5.606098,-1.50408 7.383642,-3.82856 5.742833,-7.52037 12.853007,-25.70601 z M 91.081331,56.554025 65.922254,123.28027 q 0,1.09388 0.546937,1.09388 14.220347,0.54693 24.885608,0.54693 10.255061,0 22.971331,-0.8204 0.27347,0 0.54694,-0.27347 0.27346,-0.54694 0.27346,-0.82041 v -0.27346 z" />
  </g>
</svg>
