<?xml version="1.0" encoding="UTF-8" standalone="no"?>
<!-- Created with Inkscape (http://www.inkscape.org/) -->

<svg
   xmlns:dc="http://purl.org/dc/elements/1.1/"
   xmlns:cc="http://creativecommons.org/ns#"
   xmlns:rdf="http://www.w3.org/1999/02/22-rdf-syntax-ns#"
   xmlns:svg="http://www.w3.org/2000/svg"
   xmlns="http://www.w3.org/2000/svg"
   xmlns:sodipodi="http://sodipodi.sourceforge.net/DTD/sodipodi-0.dtd"
   xmlns:inkscape="http://www.inkscape.org/namespaces/inkscape"
   width="210mm"
   height="297mm"
   viewBox="0 0 210 297"
   version="1.1"
   id="svg8"
   inkscape:version="0.92.3 (2405546, 2018-03-11)"
   sodipodi:docname="Infinite Loop Icon.svg">
  <defs
     id="defs2" />
  <sodipodi:namedview
     id="base"
     pagecolor="#ffffff"
     bordercolor="#666666"
     borderopacity="1.0"
     inkscape:pageopacity="0.0"
     inkscape:pageshadow="2"
     inkscape:zoom="0.35355339"
     inkscape:cx="306.65335"
     inkscape:cy="150.66817"
     inkscape:document-units="mm"
     inkscape:current-layer="layer1"
     showgrid="false"
     inkscape:snap-intersection-paths="true"
     inkscape:window-width="956"
     inkscape:window-height="1015"
     inkscape:window-x="960"
     inkscape:window-y="0"
     inkscape:window-maximized="0" />
  <metadata
     id="metadata5">
    <rdf:RDF>
      <cc:Work
         rdf:about="">
        <dc:format>image/svg+xml</dc:format>
        <dc:type
           rdf:resource="http://purl.org/dc/dcmitype/StillImage" />
        <dc:title></dc:title>
      </cc:Work>
    </rdf:RDF>
  </metadata>
  <g
     inkscape:label="Ebene 1"
     inkscape:groupmode="layer"
     id="layer1">
    <path
       style="color:#000000;font-style:normal;font-variant:normal;font-weight:normal;font-stretch:normal;font-size:medium;line-height:normal;font-family:sans-serif;font-variant-ligatures:normal;font-variant-position:normal;font-variant-caps:normal;font-variant-numeric:normal;font-variant-alternates:normal;font-feature-settings:normal;text-indent:0;text-align:start;text-decoration:none;text-decoration-line:none;text-decoration-style:solid;text-decoration-color:#000000;letter-spacing:normal;word-spacing:normal;text-transform:none;writing-mode:lr-tb;direction:ltr;text-orientation:mixed;dominant-baseline:auto;baseline-shift:baseline;text-anchor:start;white-space:normal;shape-padding:0;clip-rule:nonzero;display:inline;overflow:visible;visibility:visible;opacity:1;isolation:auto;mix-blend-mode:normal;color-interpolation:sRGB;color-interpolation-filters:linearRGB;solid-color:#000000;solid-opacity:1;vector-effect:none;fill:#ff0000;fill-opacity:1;fill-rule:nonzero;stroke:none;stroke-width:15;stroke-linecap:round;stroke-linejoin:round;stroke-miterlimit:4;stroke-dasharray:none;stroke-dashoffset:0;stroke-opacity:1;color-rendering:auto;image-rendering:auto;shape-rendering:auto;text-rendering:auto;enable-background:accumulate"
       d="m 56.718793,78.796043 c -12.313917,-5e-6 -24.688183,4.711621 -34.044943,14.068385 -18.7136479,18.713652 -18.71365,49.377802 -2e-6,68.091452 18.713652,18.71364 49.378315,18.71363 68.091966,0 4.360657,-4.36067 9.899346,-9.89934 15.790766,-15.79077 5.89143,5.89143 11.43013,11.43012 15.79077,15.79077 18.71387,18.71385 49.38018,18.71387 68.09403,0 18.71364,-18.71365 18.71364,-49.3778 0,-68.091451 -9.3572,-9.357201 -21.73309,-14.068392 -34.04702,-14.068389 -12.31392,10e-7 -24.68981,4.711187 -34.04701,14.068391 -4.36101,4.361013 -9.89945,9.900429 -15.79077,15.792319 C 100.66528,102.76486 95.126769,97.225523 90.765748,92.864502 81.408545,83.507299 69.03265,78.796117 56.718725,78.796117 Z m 1e-6,25.747777 c 5.705586,0 11.363634,2.14714 15.790772,6.57428 4.360919,4.36092 10.649546,10.64902 15.793347,15.79283 -5.143569,5.14301 -11.432092,11.42998 -15.793378,15.79126 -8.85413,8.85412 -22.727915,8.85412 -31.582049,0 -8.853839,-8.85385 -8.853843,-22.73028 -2e-6,-31.58411 4.427144,-4.42715 10.085705,-6.57429 15.791284,-6.57428 z m 99.675566,0 c 5.70559,0 11.36415,2.14714 15.79129,6.57428 8.85385,8.85384 8.85385,22.73027 0,31.58412 -8.85412,8.85412 -22.7279,8.85414 -31.58205,-1e-5 -4.36128,-4.36128 -10.64974,-10.64832 -15.79303,-15.79161 5.1438,-5.1438 11.43244,-11.4319 15.79335,-15.79283 4.42714,-4.42714 10.08519,-6.57427 15.79077,-6.57427 z"
       id="path862"
       inkscape:connector-curvature="0" />
    <path
       style="color:#000000;font-style:normal;font-variant:normal;font-weight:normal;font-stretch:normal;font-size:medium;line-height:normal;font-family:sans-serif;font-variant-ligatures:normal;font-variant-position:normal;font-variant-caps:normal;font-variant-numeric:normal;font-variant-alternates:normal;font-feature-settings:normal;text-indent:0;text-align:start;text-decoration:none;text-decoration-line:none;text-decoration-style:solid;text-decoration-color:#000000;letter-spacing:normal;word-spacing:normal;text-transform:none;writing-mode:lr-tb;direction:ltr;text-orientation:mixed;dominant-baseline:auto;baseline-shift:baseline;text-anchor:start;white-space:normal;shape-padding:0;clip-rule:nonzero;display:inline;overflow:visible;visibility:visible;opacity:1;isolation:auto;mix-blend-mode:normal;color-interpolation:sRGB;color-interpolation-filters:linearRGB;solid-color:#000000;solid-opacity:1;vector-effect:none;fill:#ffffff;fill-opacity:1;fill-rule:nonzero;stroke:none;stroke-width:10.81767941;stroke-linecap:round;stroke-linejoin:round;stroke-miterlimit:4;stroke-dasharray:none;stroke-dashoffset:0;stroke-opacity:1;color-rendering:auto;image-rendering:auto;shape-rendering:auto;text-rendering:auto;enable-background:accumulate"
       d="M 185.13908,98.166935 C 177.22445,90.252297 166.80872,86.295942 156.3943,86.29594 c -10.41441,0 -20.82941,3.956355 -28.74406,11.870997 -4.36076,4.360773 -10.64814,10.648443 -15.79145,15.792183 l 7.64908,7.64907 c 5.1437,-5.1437 11.43167,-11.43166 15.79255,-15.79254 5.84765,-5.847663 13.4706,-8.77161 21.09388,-8.771612 7.62328,4e-6 15.24622,2.923949 21.09388,8.771612 11.69532,11.69532 11.69532,30.4939 0,42.18922 -11.6953,11.6953 -30.49244,11.69531 -42.18776,0 -5.82514,-5.82514 -16.9907,-16.98924 -21.09535,-21.09388 l -7.64871,-7.64871 C 102.45182,115.15731 91.287575,103.99203 85.462481,98.166935 77.547841,90.252295 67.132841,86.295944 56.718427,86.29594 c -10.414296,9.9e-5 -20.827311,3.956441 -28.741863,11.870997 -15.829273,15.829283 -15.829643,41.657003 -3.65e-4,57.486283 15.829284,15.82927 41.657369,15.82926 57.486645,0 4.360743,-4.36075 10.647839,-10.64784 15.791086,-15.79109 l -7.649073,-7.64908 c -5.143696,5.1433 -11.431376,11.43065 -15.792182,15.79146 -11.695321,11.6953 -30.492086,11.69566 -42.1874,3.6e-4 -11.695315,-11.69531 -11.695308,-30.49391 0,-42.18922 5.847662,-5.847661 13.470604,-8.771614 21.093882,-8.771612 7.623154,9.6e-5 15.245953,2.92368 21.093516,8.771242 5.825161,5.82518 16.990794,16.99079 21.095343,21.09534 -7.1e-5,8e-5 -2.94e-4,3e-4 -3.65e-4,3.7e-4 l 7.648709,7.64871 c 7e-5,-7e-5 3e-4,-2.9e-4 3.7e-4,-3.7e-4 4.10446,4.10447 15.26878,15.26878 21.09388,21.09389 15.82928,15.82927 41.65884,15.82927 57.48811,0 15.82928,-15.82928 15.82965,-41.657 3.6e-4,-57.486285 z"
       id="path848"
       inkscape:connector-curvature="0" />
    <path
       inkscape:connector-curvature="0"
       id="path880"
       d="m 99.90215,151.81955 -18.253829,-18.25403 6.654328,-6.65485 18.253831,18.25402 -6.65433,6.65486"
       style="opacity:0.5;fill:#000000;stroke:none;stroke-width:0.15975156px;stroke-linecap:butt;stroke-linejoin:miter;stroke-opacity:1" />
    <path
       style="opacity:0.5;fill:#000000;stroke:none;stroke-width:0.15975156px;stroke-linecap:butt;stroke-linejoin:miter;stroke-opacity:1"
       d="m 124.81083,126.91086 -18.25382,-18.25402 6.65432,-6.65485 18.25384,18.25401 -6.65434,6.65486"
       id="path882"
       inkscape:connector-curvature="0" />
  </g>
</svg>
