<?xml version="1.0" encoding="UTF-8" standalone="no"?>
<svg
   xmlns:dc="http://purl.org/dc/elements/1.1/"
   xmlns:cc="http://creativecommons.org/ns#"
   xmlns:rdf="http://www.w3.org/1999/02/22-rdf-syntax-ns#"
   xmlns:svg="http://www.w3.org/2000/svg"
   xmlns="http://www.w3.org/2000/svg"
   xmlns:xlink="http://www.w3.org/1999/xlink"
   xmlns:sodipodi="http://sodipodi.sourceforge.net/DTD/sodipodi-0.dtd"
   xmlns:inkscape="http://www.inkscape.org/namespaces/inkscape"
   sodipodi:docname="05 - Text Styling.svg"
   inkscape:version="1.0 (4035a4fb49, 2020-05-01)"
   id="svg8"
   version="1.1"
   viewBox="0 0 210 297"
   height="297mm"
   width="210mm">
  <defs
     id="defs2">
    <linearGradient
       id="linearGradient1165"
       inkscape:collect="always">
      <stop
         id="stop1161"
         offset="0"
         style="stop-color:#ffffff;stop-opacity:1" />
      <stop
         id="stop1163"
         offset="1"
         style="stop-color:#00b7ff;stop-opacity:1" />
    </linearGradient>
    <inkscape:path-effect
       fuse_tolerance="0"
       hide_knot="false"
       vertical_pattern="false"
       prop_units="false"
       tang_offset="0"
       normal_offset="0"
       spacing="0"
       scale_y_rel="false"
       prop_scale="1"
       copytype="single_stretched"
       pattern="M 0,5 C 0,2.24 2.24,0 5,0 7.76,0 10,2.24 10,5 10,7.76 7.76,10 5,10 2.24,10 0,7.76 0,5 Z"
       lpeversion="1"
       is_visible="true"
       id="path-effect882"
       effect="skeletal" />
    <inkscape:path-effect
       fuse_tolerance="0"
       hide_knot="false"
       vertical_pattern="false"
       prop_units="false"
       tang_offset="0"
       normal_offset="0"
       spacing="0"
       scale_y_rel="false"
       prop_scale="1"
       copytype="single_stretched"
       pattern="M 0,5 C 0,2.24 2.24,0 5,0 7.76,0 10,2.24 10,5 10,7.76 7.76,10 5,10 2.24,10 0,7.76 0,5 Z"
       lpeversion="1"
       is_visible="true"
       id="path-effect878"
       effect="skeletal" />
    <filter
       height="1.2246447"
       y="-0.11232237"
       width="1.0262705"
       x="-0.013135242"
       id="filter995"
       style="color-interpolation-filters:sRGB"
       inkscape:collect="always">
      <feGaussianBlur
         id="feGaussianBlur997"
         stdDeviation="1.360449"
         inkscape:collect="always" />
    </filter>
    <radialGradient
       gradientUnits="userSpaceOnUse"
       gradientTransform="matrix(1.5442257,0,0,1.0987885,-63.125032,-11.805009)"
       r="88.789055"
       fy="119.49787"
       fx="115.99054"
       cy="119.49787"
       cx="115.99054"
       id="radialGradient1167"
       xlink:href="#linearGradient1165"
       inkscape:collect="always" />
  </defs>
  <sodipodi:namedview
     inkscape:window-maximized="0"
     inkscape:window-y="0"
     inkscape:window-x="448"
     inkscape:window-height="703"
     inkscape:window-width="918"
     inkscape:snap-global="false"
     inkscape:snap-intersection-paths="false"
     inkscape:object-paths="true"
     showgrid="false"
     inkscape:document-rotation="0"
     inkscape:current-layer="layer1"
     inkscape:document-units="mm"
     inkscape:cy="573.32904"
     inkscape:cx="523.9106"
     inkscape:zoom="0.38988042"
     inkscape:pageshadow="2"
     inkscape:pageopacity="0.0"
     borderopacity="1.0"
     bordercolor="#666666"
     pagecolor="#ffffff"
     id="base" />
  <metadata
     id="metadata5">
    <rdf:RDF>
      <cc:Work
         rdf:about="">
        <dc:format>image/svg+xml</dc:format>
        <dc:type
           rdf:resource="http://purl.org/dc/dcmitype/StillImage" />
        <dc:title></dc:title>
      </cc:Work>
    </rdf:RDF>
  </metadata>
  <g
     id="layer1"
     inkscape:groupmode="layer"
     inkscape:label="Ebene 1">
    <rect
       y="69.793777"
       x="27.201488"
       height="99.408188"
       width="177.57811"
       id="rect1147"
       style="opacity:1;fill:url(#radialGradient1167);stroke:none;stroke-width:4.99999;stroke-linecap:round;stroke-linejoin:round;stroke-miterlimit:4;stroke-dasharray:none;fill-opacity:1" />
    <g
       transform="translate(-71.450094,-4.9551948)"
       id="g1103">
      <path
         id="path1064"
         style="font-style:normal;font-variant:normal;font-weight:normal;font-stretch:normal;font-size:30.9572px;line-height:125%;font-family:C059;-inkscape-font-specification:'C059, Normal';font-variant-ligatures:normal;font-variant-caps:normal;font-variant-numeric:normal;font-variant-east-asian:normal;text-align:start;letter-spacing:17.4625px;word-spacing:0px;writing-mode:lr-tb;text-anchor:start;opacity:0.9;fill:#000000;fill-opacity:1;stroke:#000000;stroke-width:5;stroke-linecap:round;stroke-linejoin:round;stroke-miterlimit:4;stroke-dasharray:none;stroke-opacity:1;filter:url(#filter995)"
         d="m 241.22857,119.40508 c 0.031,-4.64358 -2.60041,-7.92504 -6.37719,-7.92504 -3.96252,0 -6.93441,3.43625 -6.93441,8.07983 0,4.36496 2.81711,7.27494 6.99633,7.27494 2.97189,0 5.04602,-1.45499 6.31527,-4.39592 l -1.0835,-0.58819 c -1.26925,2.38371 -2.56945,3.31242 -4.64358,3.31242 -1.57882,0 -2.72424,-0.6501 -3.52913,-2.04317 -0.55723,-0.92872 -0.80488,-2.01222 -0.77393,-3.71487 z m -9.99918,-1.33116 c 0,-0.95967 0.12383,-1.64073 0.4334,-2.50753 0.6501,-1.85743 1.64073,-2.75519 3.15764,-2.75519 1.85743,0 3.09572,1.64073 3.09572,4.14826 0,0.86681 -0.27862,1.11446 -1.26925,1.11446 z" />
      <path
         id="path1047"
         style="font-style:normal;font-variant:normal;font-weight:normal;font-stretch:normal;font-size:30.9572px;line-height:125%;font-family:C059;-inkscape-font-specification:'C059, Normal';font-variant-ligatures:normal;font-variant-caps:normal;font-variant-numeric:normal;font-variant-east-asian:normal;text-align:start;letter-spacing:17.4625px;word-spacing:0px;writing-mode:lr-tb;text-anchor:start;fill:#ff0000;fill-opacity:1;stroke:#ffffff;stroke-width:5;stroke-linecap:round;stroke-linejoin:round;stroke-miterlimit:4;stroke-dasharray:none;stroke-opacity:1"
         d="m 240.2281,117.40511 c 0.031,-4.64358 -2.6004,-7.92504 -6.37718,-7.92504 -3.96252,0 -6.93441,3.43625 -6.93441,8.07983 0,4.36496 2.8171,7.27494 6.99632,7.27494 2.97189,0 5.04603,-1.45499 6.31527,-4.39592 l -1.0835,-0.58819 c -1.26925,2.38371 -2.56945,3.31242 -4.64358,3.31242 -1.57882,0 -2.72423,-0.6501 -3.52912,-2.04317 -0.55723,-0.92872 -0.80489,-2.01222 -0.77393,-3.71487 z m -9.99917,-1.33116 c 0,-0.95967 0.12383,-1.64073 0.4334,-2.50753 0.6501,-1.85743 1.64073,-2.75519 3.15763,-2.75519 1.85743,0 3.09572,1.64073 3.09572,4.14826 0,0.86681 -0.27861,1.11446 -1.26924,1.11446 z" />
      <path
         id="path1030"
         style="font-style:normal;font-variant:normal;font-weight:normal;font-stretch:normal;font-size:30.9572px;line-height:125%;font-family:C059;-inkscape-font-specification:'C059, Normal';font-variant-ligatures:normal;font-variant-caps:normal;font-variant-numeric:normal;font-variant-east-asian:normal;text-align:start;letter-spacing:17.4625px;word-spacing:0px;writing-mode:lr-tb;text-anchor:start;fill:#000080;fill-opacity:1;stroke:#000080;stroke-width:3;stroke-linecap:round;stroke-linejoin:round;stroke-miterlimit:4;stroke-dasharray:none;stroke-opacity:1"
         d="m 240.2281,117.40511 c 0.031,-4.64358 -2.6004,-7.92504 -6.37718,-7.92504 -3.96252,0 -6.93441,3.43625 -6.93441,8.07983 0,4.36496 2.8171,7.27494 6.99632,7.27494 2.97189,0 5.04603,-1.45499 6.31527,-4.39592 l -1.0835,-0.58819 c -1.26925,2.38371 -2.56945,3.31242 -4.64358,3.31242 -1.57882,0 -2.72423,-0.6501 -3.52912,-2.04317 -0.55723,-0.92872 -0.80489,-2.01222 -0.77393,-3.71487 z m -9.99917,-1.33116 c 0,-0.95967 0.12383,-1.64073 0.4334,-2.50753 0.6501,-1.85743 1.64073,-2.75519 3.15763,-2.75519 1.85743,0 3.09572,1.64073 3.09572,4.14826 0,0.86681 -0.27861,1.11446 -1.26924,1.11446 z" />
      <path
         id="path1013"
         style="font-style:normal;font-variant:normal;font-weight:normal;font-stretch:normal;font-size:30.9572px;line-height:125%;font-family:C059;-inkscape-font-specification:'C059, Normal';font-variant-ligatures:normal;font-variant-caps:normal;font-variant-numeric:normal;font-variant-east-asian:normal;text-align:start;letter-spacing:17.4625px;word-spacing:0px;writing-mode:lr-tb;text-anchor:start;fill:#ffffff;fill-opacity:1;stroke:none;stroke-width:2.06381px;stroke-linecap:butt;stroke-linejoin:miter;stroke-opacity:1"
         d="m 240.2281,117.40511 c 0.031,-4.64358 -2.6004,-7.92504 -6.37718,-7.92504 -3.96252,0 -6.93441,3.43625 -6.93441,8.07983 0,4.36496 2.8171,7.27494 6.99632,7.27494 2.97189,0 5.04603,-1.45499 6.31527,-4.39592 l -1.0835,-0.58819 c -1.26925,2.38371 -2.56945,3.31242 -4.64358,3.31242 -1.57882,0 -2.72423,-0.6501 -3.52912,-2.04317 -0.55723,-0.92872 -0.80489,-2.01222 -0.77393,-3.71487 z m -9.99917,-1.33116 c 0,-0.95967 0.12383,-1.64073 0.4334,-2.50753 0.6501,-1.85743 1.64073,-2.75519 3.15763,-2.75519 1.85743,0 3.09572,1.64073 3.09572,4.14826 0,0.86681 -0.27861,1.11446 -1.26924,1.11446 z" />
    </g>
    <g
       transform="translate(-51.010321,-2.3093613)"
       id="g1109">
      <path
         id="path1062"
         style="font-style:normal;font-variant:normal;font-weight:normal;font-stretch:normal;font-size:30.9572px;line-height:125%;font-family:C059;-inkscape-font-specification:'C059, Normal';font-variant-ligatures:normal;font-variant-caps:normal;font-variant-numeric:normal;font-variant-east-asian:normal;text-align:start;letter-spacing:17.4625px;word-spacing:0px;writing-mode:lr-tb;text-anchor:start;opacity:0.9;fill:#000000;fill-opacity:1;stroke:#000000;stroke-width:5;stroke-linecap:round;stroke-linejoin:round;stroke-miterlimit:4;stroke-dasharray:none;stroke-opacity:1;filter:url(#filter995)"
         d="m 197.82395,111.9444 -5.3556,0.34053 v 1.33116 h 1.11446 c 1.17638,0.031 1.33116,0.2167 1.33116,1.54786 v 13.65212 1.48595 c -0.031,0.4334 -0.0619,0.61914 -0.18574,0.77393 -0.2167,0.27861 -0.80489,0.40244 -2.13605,0.4334 h -0.12383 v 1.11446 h 8.04887 v -1.11446 h -0.34052 c -2.07414,-0.0619 -2.35275,-0.2167 -2.35275,-1.33116 v -1.36212 -4.48879 c 1.02159,1.79552 2.167,2.50753 4.08635,2.50753 1.88839,0 3.43625,-0.80489 4.55071,-2.32179 1.0835,-1.48594 1.70264,-3.40529 1.70264,-5.41751 0,-2.01222 -0.61914,-3.90061 -1.76456,-5.38655 -1.14541,-1.48595 -2.56945,-2.22892 -4.30305,-2.22892 -1.91934,0 -3.18859,0.80489 -4.27209,2.66232 z m 3.71486,1.20733 c 2.13605,0 3.37434,2.13605 3.37434,5.75804 0,3.99348 -1.23829,6.25335 -3.46721,6.25335 -2.22892,0 -3.65295,-2.29083 -3.65295,-5.85091 0,-3.86965 1.39307,-6.16048 3.74582,-6.16048 z" />
      <path
         id="path1045"
         style="font-style:normal;font-variant:normal;font-weight:normal;font-stretch:normal;font-size:30.9572px;line-height:125%;font-family:C059;-inkscape-font-specification:'C059, Normal';font-variant-ligatures:normal;font-variant-caps:normal;font-variant-numeric:normal;font-variant-east-asian:normal;text-align:start;letter-spacing:17.4625px;word-spacing:0px;writing-mode:lr-tb;text-anchor:start;fill:#ff0000;fill-opacity:1;stroke:#ffffff;stroke-width:5;stroke-linecap:round;stroke-linejoin:round;stroke-miterlimit:4;stroke-dasharray:none;stroke-opacity:1"
         d="m 196.82348,109.94443 -5.35559,0.34053 v 1.33116 h 1.11446 c 1.17637,0.031 1.33116,0.2167 1.33116,1.54786 v 13.65212 1.48595 c -0.031,0.4334 -0.0619,0.61914 -0.18575,0.77393 -0.2167,0.27861 -0.80488,0.40244 -2.13604,0.4334 h -0.12383 v 1.11446 h 8.04887 v -1.11446 h -0.34053 c -2.07413,-0.0619 -2.35275,-0.2167 -2.35275,-1.33116 v -1.36212 -4.48879 c 1.02159,1.79552 2.16701,2.50753 4.08635,2.50753 1.88839,0 3.43625,-0.80489 4.55071,-2.32179 1.0835,-1.48594 1.70265,-3.40529 1.70265,-5.41751 0,-2.01222 -0.61915,-3.90061 -1.76456,-5.38655 -1.14542,-1.48595 -2.56945,-2.22892 -4.30305,-2.22892 -1.91935,0 -3.1886,0.80489 -4.2721,2.66232 z m 3.71487,1.20733 c 2.13604,0 3.37433,2.13605 3.37433,5.75804 0,3.99348 -1.23829,6.25335 -3.46721,6.25335 -2.22891,0 -3.65294,-2.29083 -3.65294,-5.85091 0,-3.86965 1.39307,-6.16048 3.74582,-6.16048 z" />
      <path
         id="path1028"
         style="font-style:normal;font-variant:normal;font-weight:normal;font-stretch:normal;font-size:30.9572px;line-height:125%;font-family:C059;-inkscape-font-specification:'C059, Normal';font-variant-ligatures:normal;font-variant-caps:normal;font-variant-numeric:normal;font-variant-east-asian:normal;text-align:start;letter-spacing:17.4625px;word-spacing:0px;writing-mode:lr-tb;text-anchor:start;fill:#000080;fill-opacity:1;stroke:#000080;stroke-width:3;stroke-linecap:round;stroke-linejoin:round;stroke-miterlimit:4;stroke-dasharray:none;stroke-opacity:1"
         d="m 196.82348,109.94443 -5.35559,0.34053 v 1.33116 h 1.11446 c 1.17637,0.031 1.33116,0.2167 1.33116,1.54786 v 13.65212 1.48595 c -0.031,0.4334 -0.0619,0.61914 -0.18575,0.77393 -0.2167,0.27861 -0.80488,0.40244 -2.13604,0.4334 h -0.12383 v 1.11446 h 8.04887 v -1.11446 h -0.34053 c -2.07413,-0.0619 -2.35275,-0.2167 -2.35275,-1.33116 v -1.36212 -4.48879 c 1.02159,1.79552 2.16701,2.50753 4.08635,2.50753 1.88839,0 3.43625,-0.80489 4.55071,-2.32179 1.0835,-1.48594 1.70265,-3.40529 1.70265,-5.41751 0,-2.01222 -0.61915,-3.90061 -1.76456,-5.38655 -1.14542,-1.48595 -2.56945,-2.22892 -4.30305,-2.22892 -1.91935,0 -3.1886,0.80489 -4.2721,2.66232 z m 3.71487,1.20733 c 2.13604,0 3.37433,2.13605 3.37433,5.75804 0,3.99348 -1.23829,6.25335 -3.46721,6.25335 -2.22891,0 -3.65294,-2.29083 -3.65294,-5.85091 0,-3.86965 1.39307,-6.16048 3.74582,-6.16048 z" />
      <path
         id="path1011"
         style="font-style:normal;font-variant:normal;font-weight:normal;font-stretch:normal;font-size:30.9572px;line-height:125%;font-family:C059;-inkscape-font-specification:'C059, Normal';font-variant-ligatures:normal;font-variant-caps:normal;font-variant-numeric:normal;font-variant-east-asian:normal;text-align:start;letter-spacing:17.4625px;word-spacing:0px;writing-mode:lr-tb;text-anchor:start;fill:#ffffff;fill-opacity:1;stroke:none;stroke-width:2.06381px;stroke-linecap:butt;stroke-linejoin:miter;stroke-opacity:1"
         d="m 196.82348,109.94443 -5.35559,0.34053 v 1.33116 h 1.11446 c 1.17637,0.031 1.33116,0.2167 1.33116,1.54786 v 13.65212 1.48595 c -0.031,0.4334 -0.0619,0.61914 -0.18575,0.77393 -0.2167,0.27861 -0.80488,0.40244 -2.13604,0.4334 h -0.12383 v 1.11446 h 8.04887 v -1.11446 h -0.34053 c -2.07413,-0.0619 -2.35275,-0.2167 -2.35275,-1.33116 v -1.36212 -4.48879 c 1.02159,1.79552 2.16701,2.50753 4.08635,2.50753 1.88839,0 3.43625,-0.80489 4.55071,-2.32179 1.0835,-1.48594 1.70265,-3.40529 1.70265,-5.41751 0,-2.01222 -0.61915,-3.90061 -1.76456,-5.38655 -1.14542,-1.48595 -2.56945,-2.22892 -4.30305,-2.22892 -1.91935,0 -3.1886,0.80489 -4.2721,2.66232 z m 3.71487,1.20733 c 2.13604,0 3.37433,2.13605 3.37433,5.75804 0,3.99348 -1.23829,6.25335 -3.46721,6.25335 -2.22891,0 -3.65294,-2.29083 -3.65294,-5.85091 0,-3.86965 1.39307,-6.16048 3.74582,-6.16048 z" />
    </g>
    <g
       transform="translate(-29.989418,-4.9551948)"
       id="g1115">
      <path
         id="path1060"
         style="font-style:normal;font-variant:normal;font-weight:normal;font-stretch:normal;font-size:30.9572px;line-height:125%;font-family:C059;-inkscape-font-specification:'C059, Normal';font-variant-ligatures:normal;font-variant-caps:normal;font-variant-numeric:normal;font-variant-east-asian:normal;text-align:start;letter-spacing:17.4625px;word-spacing:0px;writing-mode:lr-tb;text-anchor:start;opacity:0.9;fill:#000000;fill-opacity:1;stroke:#000000;stroke-width:5;stroke-linecap:round;stroke-linejoin:round;stroke-miterlimit:4;stroke-dasharray:none;stroke-opacity:1;filter:url(#filter995)"
         d="m 170.91952,116.40223 c 0,-1.9503 -0.34053,-2.94093 -1.23829,-3.6839 -1.02158,-0.83585 -2.53849,-1.23829 -4.51975,-1.23829 -3.49816,0 -6.03665,1.64073 -6.03665,3.90061 0,1.14541 0.71202,1.88839 1.79552,1.88839 0.99063,0 1.67169,-0.6501 1.67169,-1.57882 0,-0.40244 -0.15479,-0.83585 -0.46436,-1.26925 -0.18575,-0.2167 -0.2167,-0.27861 -0.2167,-0.4334 0,-0.61914 1.23829,-1.17637 2.72423,-1.17637 0.99063,0 2.07413,0.30957 2.56945,0.77393 0.58819,0.49531 0.80489,1.23829 0.80489,2.63136 v 1.20733 c -3.21955,0.55723 -4.24114,0.80489 -5.75804,1.39308 -2.69328,0.99063 -3.96252,2.41466 -3.96252,4.39592 0,2.22892 1.7336,3.62199 4.48879,3.62199 2.13605,0 4.05539,-0.8668 5.38655,-2.44562 0.49532,1.57882 1.26925,2.19796 2.72424,2.19796 1.39307,0 2.84806,-0.89776 2.84806,-1.79551 0,-0.2167 -0.12383,-0.37149 -0.30957,-0.37149 -0.12383,0 -0.24766,0.031 -0.46436,0.12383 -0.4334,0.18574 -0.61915,0.2167 -0.8668,0.2167 -0.86681,0 -1.17638,-0.55723 -1.17638,-2.13605 z m -2.90997,3.77678 c 0,1.85744 -0.0929,2.29084 -0.61915,3.09572 -0.77393,1.14542 -2.167,1.91935 -3.52912,1.91935 -1.42403,0 -2.44562,-1.02159 -2.44562,-2.41466 0,-1.3002 0.6501,-2.22892 2.01222,-2.87902 0.95967,-0.4334 2.167,-0.74297 4.58167,-1.14542 z" />
      <path
         id="path1043"
         style="font-style:normal;font-variant:normal;font-weight:normal;font-stretch:normal;font-size:30.9572px;line-height:125%;font-family:C059;-inkscape-font-specification:'C059, Normal';font-variant-ligatures:normal;font-variant-caps:normal;font-variant-numeric:normal;font-variant-east-asian:normal;text-align:start;letter-spacing:17.4625px;word-spacing:0px;writing-mode:lr-tb;text-anchor:start;fill:#ff0000;fill-opacity:1;stroke:#ffffff;stroke-width:5;stroke-linecap:round;stroke-linejoin:round;stroke-miterlimit:4;stroke-dasharray:none;stroke-opacity:1"
         d="m 169.91906,114.40227 c 0,-1.95031 -0.34053,-2.94094 -1.23829,-3.68391 -1.02159,-0.83585 -2.53849,-1.23829 -4.51975,-1.23829 -3.49817,0 -6.03666,1.64073 -6.03666,3.90061 0,1.14541 0.71202,1.88839 1.79552,1.88839 0.99063,0 1.67169,-0.6501 1.67169,-1.57882 0,-0.40244 -0.15479,-0.83584 -0.46436,-1.26925 -0.18574,-0.2167 -0.2167,-0.27861 -0.2167,-0.4334 0,-0.61914 1.23829,-1.17637 2.72424,-1.17637 0.99063,0 2.07413,0.30957 2.56944,0.77393 0.58819,0.49532 0.80489,1.23829 0.80489,2.63136 v 1.20733 c -3.21955,0.55723 -4.24114,0.80489 -5.75804,1.39308 -2.69328,0.99063 -3.96252,2.41466 -3.96252,4.39592 0,2.22892 1.7336,3.62199 4.48879,3.62199 2.13605,0 4.0554,-0.8668 5.38656,-2.44562 0.49531,1.57882 1.26924,2.19796 2.72423,2.19796 1.39307,0 2.84806,-0.89775 2.84806,-1.79551 0,-0.2167 -0.12383,-0.37149 -0.30957,-0.37149 -0.12383,0 -0.24766,0.031 -0.46436,0.12383 -0.4334,0.18574 -0.61914,0.2167 -0.8668,0.2167 -0.8668,0 -1.17637,-0.55723 -1.17637,-2.13605 z m -2.90998,3.77677 c 0,1.85744 -0.0929,2.29084 -0.61914,3.09572 -0.77393,1.14542 -2.16701,1.91935 -3.52912,1.91935 -1.42404,0 -2.44562,-1.02159 -2.44562,-2.41466 0,-1.3002 0.6501,-2.22892 2.01221,-2.87902 0.95968,-0.4334 2.16701,-0.74297 4.58167,-1.14542 z" />
      <path
         id="path1026"
         style="font-style:normal;font-variant:normal;font-weight:normal;font-stretch:normal;font-size:30.9572px;line-height:125%;font-family:C059;-inkscape-font-specification:'C059, Normal';font-variant-ligatures:normal;font-variant-caps:normal;font-variant-numeric:normal;font-variant-east-asian:normal;text-align:start;letter-spacing:17.4625px;word-spacing:0px;writing-mode:lr-tb;text-anchor:start;fill:#000080;fill-opacity:1;stroke:#000080;stroke-width:3;stroke-linecap:round;stroke-linejoin:round;stroke-miterlimit:4;stroke-dasharray:none;stroke-opacity:1"
         d="m 169.91906,114.40227 c 0,-1.95031 -0.34053,-2.94094 -1.23829,-3.68391 -1.02159,-0.83585 -2.53849,-1.23829 -4.51975,-1.23829 -3.49817,0 -6.03666,1.64073 -6.03666,3.90061 0,1.14541 0.71202,1.88839 1.79552,1.88839 0.99063,0 1.67169,-0.6501 1.67169,-1.57882 0,-0.40244 -0.15479,-0.83584 -0.46436,-1.26925 -0.18574,-0.2167 -0.2167,-0.27861 -0.2167,-0.4334 0,-0.61914 1.23829,-1.17637 2.72424,-1.17637 0.99063,0 2.07413,0.30957 2.56944,0.77393 0.58819,0.49532 0.80489,1.23829 0.80489,2.63136 v 1.20733 c -3.21955,0.55723 -4.24114,0.80489 -5.75804,1.39308 -2.69328,0.99063 -3.96252,2.41466 -3.96252,4.39592 0,2.22892 1.7336,3.62199 4.48879,3.62199 2.13605,0 4.0554,-0.8668 5.38656,-2.44562 0.49531,1.57882 1.26924,2.19796 2.72423,2.19796 1.39307,0 2.84806,-0.89775 2.84806,-1.79551 0,-0.2167 -0.12383,-0.37149 -0.30957,-0.37149 -0.12383,0 -0.24766,0.031 -0.46436,0.12383 -0.4334,0.18574 -0.61914,0.2167 -0.8668,0.2167 -0.8668,0 -1.17637,-0.55723 -1.17637,-2.13605 z m -2.90998,3.77677 c 0,1.85744 -0.0929,2.29084 -0.61914,3.09572 -0.77393,1.14542 -2.16701,1.91935 -3.52912,1.91935 -1.42404,0 -2.44562,-1.02159 -2.44562,-2.41466 0,-1.3002 0.6501,-2.22892 2.01221,-2.87902 0.95968,-0.4334 2.16701,-0.74297 4.58167,-1.14542 z" />
      <path
         id="path1009"
         style="font-style:normal;font-variant:normal;font-weight:normal;font-stretch:normal;font-size:30.9572px;line-height:125%;font-family:C059;-inkscape-font-specification:'C059, Normal';font-variant-ligatures:normal;font-variant-caps:normal;font-variant-numeric:normal;font-variant-east-asian:normal;text-align:start;letter-spacing:17.4625px;word-spacing:0px;writing-mode:lr-tb;text-anchor:start;fill:#ffffff;fill-opacity:1;stroke:none;stroke-width:2.06381px;stroke-linecap:butt;stroke-linejoin:miter;stroke-opacity:1"
         d="m 169.91906,114.40227 c 0,-1.95031 -0.34053,-2.94094 -1.23829,-3.68391 -1.02159,-0.83585 -2.53849,-1.23829 -4.51975,-1.23829 -3.49817,0 -6.03666,1.64073 -6.03666,3.90061 0,1.14541 0.71202,1.88839 1.79552,1.88839 0.99063,0 1.67169,-0.6501 1.67169,-1.57882 0,-0.40244 -0.15479,-0.83584 -0.46436,-1.26925 -0.18574,-0.2167 -0.2167,-0.27861 -0.2167,-0.4334 0,-0.61914 1.23829,-1.17637 2.72424,-1.17637 0.99063,0 2.07413,0.30957 2.56944,0.77393 0.58819,0.49532 0.80489,1.23829 0.80489,2.63136 v 1.20733 c -3.21955,0.55723 -4.24114,0.80489 -5.75804,1.39308 -2.69328,0.99063 -3.96252,2.41466 -3.96252,4.39592 0,2.22892 1.7336,3.62199 4.48879,3.62199 2.13605,0 4.0554,-0.8668 5.38656,-2.44562 0.49531,1.57882 1.26924,2.19796 2.72423,2.19796 1.39307,0 2.84806,-0.89775 2.84806,-1.79551 0,-0.2167 -0.12383,-0.37149 -0.30957,-0.37149 -0.12383,0 -0.24766,0.031 -0.46436,0.12383 -0.4334,0.18574 -0.61914,0.2167 -0.8668,0.2167 -0.8668,0 -1.17637,-0.55723 -1.17637,-2.13605 z m -2.90998,3.77677 c 0,1.85744 -0.0929,2.29084 -0.61914,3.09572 -0.77393,1.14542 -2.16701,1.91935 -3.52912,1.91935 -1.42404,0 -2.44562,-1.02159 -2.44562,-2.41466 0,-1.3002 0.6501,-2.22892 2.01221,-2.87902 0.95968,-0.4334 2.16701,-0.74297 4.58167,-1.14542 z" />
    </g>
    <g
       transform="translate(-10.562868,-2.3093613)"
       id="g1121">
      <path
         id="path1058"
         style="font-style:normal;font-variant:normal;font-weight:normal;font-stretch:normal;font-size:30.9572px;line-height:125%;font-family:C059;-inkscape-font-specification:'C059, Normal';font-variant-ligatures:normal;font-variant-caps:normal;font-variant-numeric:normal;font-variant-east-asian:normal;text-align:start;letter-spacing:17.4625px;word-spacing:0px;writing-mode:lr-tb;text-anchor:start;opacity:0.9;fill:#000000;fill-opacity:1;stroke:#000000;stroke-width:5;stroke-linecap:round;stroke-linejoin:round;stroke-miterlimit:4;stroke-dasharray:none;stroke-opacity:1;filter:url(#filter995)"
         d="m 137.66892,121.81974 c -0.99063,2.22892 -2.04318,3.12668 -3.65295,3.12668 -2.47658,0 -4.02444,-2.25987 -4.02444,-5.88187 0,-3.77677 1.5169,-6.25335 3.80774,-6.25335 0.92871,0 1.7336,0.4334 1.7336,0.92872 0,0.0929 -0.031,0.18574 -0.18574,0.37148 -0.49532,0.58819 -0.61915,0.89776 -0.61915,1.42403 0,1.02159 0.77393,1.73361 1.85743,1.73361 1.11446,0 1.88839,-0.86681 1.88839,-2.10509 0,-2.10509 -2.07413,-3.68391 -4.82932,-3.68391 -4.02444,0 -6.90345,3.28146 -6.90345,7.92504 0,4.39593 2.63136,7.42973 6.47005,7.42973 2.75519,0 4.33401,-1.26924 5.66517,-4.55071 z" />
      <path
         id="path1041"
         style="font-style:normal;font-variant:normal;font-weight:normal;font-stretch:normal;font-size:30.9572px;line-height:125%;font-family:C059;-inkscape-font-specification:'C059, Normal';font-variant-ligatures:normal;font-variant-caps:normal;font-variant-numeric:normal;font-variant-east-asian:normal;text-align:start;letter-spacing:17.4625px;word-spacing:0px;writing-mode:lr-tb;text-anchor:start;fill:#ff0000;fill-opacity:1;stroke:#ffffff;stroke-width:5;stroke-linecap:round;stroke-linejoin:round;stroke-miterlimit:4;stroke-dasharray:none;stroke-opacity:1"
         d="m 136.66845,119.81978 c -0.99063,2.22891 -2.04317,3.12667 -3.65295,3.12667 -2.47657,0 -4.02443,-2.25987 -4.02443,-5.88187 0,-3.77677 1.5169,-6.25335 3.80773,-6.25335 0.92872,0 1.7336,0.4334 1.7336,0.92872 0,0.0929 -0.0309,0.18574 -0.18574,0.37148 -0.49531,0.58819 -0.61914,0.89776 -0.61914,1.42403 0,1.02159 0.77393,1.73361 1.85743,1.73361 1.11446,0 1.88839,-0.8668 1.88839,-2.10509 0,-2.10509 -2.07413,-3.68391 -4.82932,-3.68391 -4.02444,0 -6.90346,3.28146 -6.90346,7.92504 0,4.39593 2.63136,7.42973 6.47005,7.42973 2.7552,0 4.33401,-1.26924 5.66517,-4.55071 z" />
      <path
         id="path1024"
         style="font-style:normal;font-variant:normal;font-weight:normal;font-stretch:normal;font-size:30.9572px;line-height:125%;font-family:C059;-inkscape-font-specification:'C059, Normal';font-variant-ligatures:normal;font-variant-caps:normal;font-variant-numeric:normal;font-variant-east-asian:normal;text-align:start;letter-spacing:17.4625px;word-spacing:0px;writing-mode:lr-tb;text-anchor:start;fill:#000080;fill-opacity:1;stroke:#000080;stroke-width:3;stroke-linecap:round;stroke-linejoin:round;stroke-miterlimit:4;stroke-dasharray:none;stroke-opacity:1"
         d="m 136.66845,119.81978 c -0.99063,2.22891 -2.04317,3.12667 -3.65295,3.12667 -2.47657,0 -4.02443,-2.25987 -4.02443,-5.88187 0,-3.77677 1.5169,-6.25335 3.80773,-6.25335 0.92872,0 1.7336,0.4334 1.7336,0.92872 0,0.0929 -0.0309,0.18574 -0.18574,0.37148 -0.49531,0.58819 -0.61914,0.89776 -0.61914,1.42403 0,1.02159 0.77393,1.73361 1.85743,1.73361 1.11446,0 1.88839,-0.8668 1.88839,-2.10509 0,-2.10509 -2.07413,-3.68391 -4.82932,-3.68391 -4.02444,0 -6.90346,3.28146 -6.90346,7.92504 0,4.39593 2.63136,7.42973 6.47005,7.42973 2.7552,0 4.33401,-1.26924 5.66517,-4.55071 z" />
      <path
         id="path1007"
         style="font-style:normal;font-variant:normal;font-weight:normal;font-stretch:normal;font-size:30.9572px;line-height:125%;font-family:C059;-inkscape-font-specification:'C059, Normal';font-variant-ligatures:normal;font-variant-caps:normal;font-variant-numeric:normal;font-variant-east-asian:normal;text-align:start;letter-spacing:17.4625px;word-spacing:0px;writing-mode:lr-tb;text-anchor:start;fill:#ffffff;fill-opacity:1;stroke:none;stroke-width:2.06381px;stroke-linecap:butt;stroke-linejoin:miter;stroke-opacity:1"
         d="m 136.66845,119.81978 c -0.99063,2.22891 -2.04317,3.12667 -3.65295,3.12667 -2.47657,0 -4.02443,-2.25987 -4.02443,-5.88187 0,-3.77677 1.5169,-6.25335 3.80773,-6.25335 0.92872,0 1.7336,0.4334 1.7336,0.92872 0,0.0929 -0.0309,0.18574 -0.18574,0.37148 -0.49531,0.58819 -0.61914,0.89776 -0.61914,1.42403 0,1.02159 0.77393,1.73361 1.85743,1.73361 1.11446,0 1.88839,-0.8668 1.88839,-2.10509 0,-2.10509 -2.07413,-3.68391 -4.82932,-3.68391 -4.02444,0 -6.90346,3.28146 -6.90346,7.92504 0,4.39593 2.63136,7.42973 6.47005,7.42973 2.7552,0 4.33401,-1.26924 5.66517,-4.55071 z" />
    </g>
    <g
       transform="translate(9.3009353,-4.9551948)"
       id="g1127">
      <path
         id="path1056"
         style="font-style:normal;font-variant:normal;font-weight:normal;font-stretch:normal;font-size:30.9572px;line-height:125%;font-family:C059;-inkscape-font-specification:'C059, Normal';font-variant-ligatures:normal;font-variant-caps:normal;font-variant-numeric:normal;font-variant-east-asian:normal;text-align:start;letter-spacing:17.4625px;word-spacing:0px;writing-mode:lr-tb;text-anchor:start;opacity:0.9;fill:#000000;fill-opacity:1;stroke:#000000;stroke-width:5;stroke-linecap:round;stroke-linejoin:round;stroke-miterlimit:4;stroke-dasharray:none;stroke-opacity:1;filter:url(#filter995)"
         d="m 105.96613,111.60387 h -1.08351 l -0.89775,1.11446 c -1.11446,-0.8668 -2.22892,-1.23829 -3.77678,-1.23829 -2.724236,0 -4.519754,1.76456 -4.519754,4.48879 0,1.20733 0.402444,2.22892 1.083502,2.84807 0.712016,0.6501 1.424031,0.95967 3.281462,1.39307 l 1.64073,0.37149 c 2.44562,0.58818 3.31242,1.20733 3.31242,2.44562 0,1.45498 -1.26924,2.47657 -3.06476,2.47657 -2.631362,0 -4.488794,-1.67169 -5.231766,-4.76741 h -1.238288 v 5.85091 h 1.083502 l 1.083502,-1.26924 c 1.269245,1.02159 2.66232,1.5169 4.24114,1.5169 3.0338,0 5.04602,-1.88839 5.04602,-4.76741 0,-1.36211 -0.4334,-2.41466 -1.3002,-3.12667 -0.74298,-0.65011 -1.36212,-0.89776 -3.25051,-1.30021 l -1.54786,-0.34053 c -1.702645,-0.37148 -1.702645,-0.37148 -2.259874,-0.68105 -0.681059,-0.30958 -1.083502,-0.95968 -1.083502,-1.64074 0,-1.26924 1.176373,-2.13604 2.879016,-2.13604 1.17638,0 2.13605,0.40244 3.00285,1.23828 0.68106,0.68106 1.02159,1.30021 1.5169,2.72424 h 1.08351 z" />
      <path
         id="path1039"
         style="font-style:normal;font-variant:normal;font-weight:normal;font-stretch:normal;font-size:30.9572px;line-height:125%;font-family:C059;-inkscape-font-specification:'C059, Normal';font-variant-ligatures:normal;font-variant-caps:normal;font-variant-numeric:normal;font-variant-east-asian:normal;text-align:start;letter-spacing:17.4625px;word-spacing:0px;writing-mode:lr-tb;text-anchor:start;fill:#ff0000;fill-opacity:1;stroke:#ffffff;stroke-width:5;stroke-linecap:round;stroke-linejoin:round;stroke-miterlimit:4;stroke-dasharray:none;stroke-opacity:1"
         d="m 104.96566,109.6039 h -1.0835 l -0.89776,1.11446 c -1.11446,-0.8668 -2.22892,-1.23829 -3.776778,-1.23829 -2.724234,0 -4.519751,1.76456 -4.519751,4.48879 0,1.20734 0.402443,2.22892 1.083502,2.84807 0.712015,0.6501 1.424031,0.95967 3.281463,1.39307 l 1.640734,0.37149 c 2.44562,0.58818 3.31242,1.20733 3.31242,2.44562 0,1.45498 -1.26925,2.47657 -3.06477,2.47657 -2.631357,0 -4.488789,-1.67169 -5.231762,-4.76741 H 94.47117 v 5.85091 h 1.083502 l 1.083502,-1.26924 c 1.269245,1.02159 2.662319,1.5169 4.241136,1.5169 3.03381,0 5.04602,-1.88839 5.04602,-4.76741 0,-1.36211 -0.4334,-2.41466 -1.3002,-3.12667 -0.74297,-0.65011 -1.36212,-0.89776 -3.2505,-1.30021 l -1.547864,-0.34053 c -1.702646,-0.37148 -1.702646,-0.37148 -2.259876,-0.68105 -0.681058,-0.30958 -1.083502,-0.95968 -1.083502,-1.64074 0,-1.26924 1.176374,-2.13604 2.87902,-2.13604 1.176372,0 2.136042,0.40244 3.002852,1.23829 0.68105,0.68105 1.02158,1.3002 1.5169,2.72423 h 1.0835 z" />
      <path
         id="path1022"
         style="font-style:normal;font-variant:normal;font-weight:normal;font-stretch:normal;font-size:30.9572px;line-height:125%;font-family:C059;-inkscape-font-specification:'C059, Normal';font-variant-ligatures:normal;font-variant-caps:normal;font-variant-numeric:normal;font-variant-east-asian:normal;text-align:start;letter-spacing:17.4625px;word-spacing:0px;writing-mode:lr-tb;text-anchor:start;fill:#000080;fill-opacity:1;stroke:#000080;stroke-width:3;stroke-linecap:round;stroke-linejoin:round;stroke-miterlimit:4;stroke-dasharray:none;stroke-opacity:1"
         d="m 104.96566,109.6039 h -1.0835 l -0.89776,1.11446 c -1.11446,-0.8668 -2.22892,-1.23829 -3.776778,-1.23829 -2.724234,0 -4.519751,1.76456 -4.519751,4.48879 0,1.20734 0.402443,2.22892 1.083502,2.84807 0.712015,0.6501 1.424031,0.95967 3.281463,1.39307 l 1.640734,0.37149 c 2.44562,0.58818 3.31242,1.20733 3.31242,2.44562 0,1.45498 -1.26925,2.47657 -3.06477,2.47657 -2.631357,0 -4.488789,-1.67169 -5.231762,-4.76741 H 94.47117 v 5.85091 h 1.083502 l 1.083502,-1.26924 c 1.269245,1.02159 2.662319,1.5169 4.241136,1.5169 3.03381,0 5.04602,-1.88839 5.04602,-4.76741 0,-1.36211 -0.4334,-2.41466 -1.3002,-3.12667 -0.74297,-0.65011 -1.36212,-0.89776 -3.2505,-1.30021 l -1.547864,-0.34053 c -1.702646,-0.37148 -1.702646,-0.37148 -2.259876,-0.68105 -0.681058,-0.30958 -1.083502,-0.95968 -1.083502,-1.64074 0,-1.26924 1.176374,-2.13604 2.87902,-2.13604 1.176372,0 2.136042,0.40244 3.002852,1.23829 0.68105,0.68105 1.02158,1.3002 1.5169,2.72423 h 1.0835 z" />
      <path
         id="path1005"
         style="font-style:normal;font-variant:normal;font-weight:normal;font-stretch:normal;font-size:30.9572px;line-height:125%;font-family:C059;-inkscape-font-specification:'C059, Normal';font-variant-ligatures:normal;font-variant-caps:normal;font-variant-numeric:normal;font-variant-east-asian:normal;text-align:start;letter-spacing:17.4625px;word-spacing:0px;writing-mode:lr-tb;text-anchor:start;fill:#ffffff;fill-opacity:1;stroke:none;stroke-width:2.06381px;stroke-linecap:butt;stroke-linejoin:miter;stroke-opacity:1"
         d="m 104.96566,109.6039 h -1.0835 l -0.89776,1.11446 c -1.11446,-0.8668 -2.22892,-1.23829 -3.776778,-1.23829 -2.724234,0 -4.519751,1.76456 -4.519751,4.48879 0,1.20734 0.402443,2.22892 1.083502,2.84807 0.712015,0.6501 1.424031,0.95967 3.281463,1.39307 l 1.640734,0.37149 c 2.44562,0.58818 3.31242,1.20733 3.31242,2.44562 0,1.45498 -1.26925,2.47657 -3.06477,2.47657 -2.631357,0 -4.488789,-1.67169 -5.231762,-4.76741 H 94.47117 v 5.85091 h 1.083502 l 1.083502,-1.26924 c 1.269245,1.02159 2.662319,1.5169 4.241136,1.5169 3.03381,0 5.04602,-1.88839 5.04602,-4.76741 0,-1.36211 -0.4334,-2.41466 -1.3002,-3.12667 -0.74297,-0.65011 -1.36212,-0.89776 -3.2505,-1.30021 l -1.547864,-0.34053 c -1.702646,-0.37148 -1.702646,-0.37148 -2.259876,-0.68105 -0.681058,-0.30958 -1.083502,-0.95968 -1.083502,-1.64074 0,-1.26924 1.176374,-2.13604 2.87902,-2.13604 1.176372,0 2.136042,0.40244 3.002852,1.23829 0.68105,0.68105 1.02158,1.3002 1.5169,2.72423 h 1.0835 z" />
    </g>
    <g
       transform="translate(29.429366,-2.3093613)"
       id="g1133">
      <path
         id="path1054"
         style="font-style:normal;font-variant:normal;font-weight:normal;font-stretch:normal;font-size:30.9572px;line-height:125%;font-family:C059;-inkscape-font-specification:'C059, Normal';font-variant-ligatures:normal;font-variant-caps:normal;font-variant-numeric:normal;font-variant-east-asian:normal;text-align:start;letter-spacing:17.4625px;word-spacing:0px;writing-mode:lr-tb;text-anchor:start;opacity:0.9;fill:#000000;fill-opacity:1;stroke:#000000;stroke-width:5;stroke-linecap:round;stroke-linejoin:round;stroke-miterlimit:4;stroke-dasharray:none;stroke-opacity:1;filter:url(#filter995)"
         d="M 64.07847,118.87881 V 103.555 l -5.727081,0.34053 v 1.33116 h 1.485945 c 1.176374,0.0309 1.33116,0.2167 1.33116,1.54786 v 15.78817 1.48594 c -0.03096,0.4334 -0.06191,0.61915 -0.185743,0.77393 -0.216701,0.27862 -0.804888,0.40245 -2.136047,0.4334 h -0.123829 v 1.11446 h 7.832171 v -1.11446 h -0.123828 c -2.074133,-0.0619 -2.352748,-0.2167 -2.352748,-1.33116 v -1.36211 -1.76456 l 1.88839,-1.79552 3.683906,5.16985 c 0.154786,0.24766 0.216701,0.40245 0.216701,0.52627 0,0.4334 -0.34053,0.55723 -1.362117,0.55723 h -0.588187 v 1.11446 h 8.172701 v -1.11446 c -1.733603,-0.15478 -2.352747,-0.52627 -3.621993,-2.13604 l -4.395922,-6.0057 1.393074,-1.36212 c 1.826475,-1.76456 3.126677,-2.44562 5.231767,-2.69327 v -1.11446 h -8.141744 v 1.11446 h 0.959674 c 0.99063,0 1.454988,0.18574 1.454988,0.58818 0,0.34053 -0.2167,0.71202 -0.712016,1.20733 z" />
      <path
         id="path1037"
         style="font-style:normal;font-variant:normal;font-weight:normal;font-stretch:normal;font-size:30.9572px;line-height:125%;font-family:C059;-inkscape-font-specification:'C059, Normal';font-variant-ligatures:normal;font-variant-caps:normal;font-variant-numeric:normal;font-variant-east-asian:normal;text-align:start;letter-spacing:17.4625px;word-spacing:0px;writing-mode:lr-tb;text-anchor:start;fill:#ff0000;fill-opacity:1;stroke:#ffffff;stroke-width:5;stroke-linecap:round;stroke-linejoin:round;stroke-miterlimit:4;stroke-dasharray:none;stroke-opacity:1"
         d="m 63.078005,116.87884 v -15.32381 l -5.727082,0.34053 v 1.33116 h 1.485946 c 1.176373,0.031 1.331159,0.2167 1.331159,1.54786 v 15.78817 1.48594 c -0.03096,0.4334 -0.06191,0.61915 -0.185743,0.77393 -0.2167,0.27862 -0.804887,0.40245 -2.136047,0.4334 H 57.72241 v 1.11446 h 7.832171 v -1.11446 h -0.123829 c -2.074132,-0.0619 -2.352747,-0.2167 -2.352747,-1.33116 v -1.36211 -1.76456 l 1.888389,-1.79552 3.683907,5.16985 c 0.154786,0.24766 0.2167,0.40245 0.2167,0.52627 0,0.43341 -0.340529,0.55723 -1.362116,0.55723 h -0.588187 v 1.11446 h 8.1727 v -1.11446 c -1.733603,-0.15478 -2.352747,-0.52627 -3.621992,-2.13604 l -4.395922,-6.0057 1.393074,-1.36212 c 1.826474,-1.76456 3.126677,-2.44561 5.231766,-2.69327 v -1.11446 h -8.141743 v 1.11446 h 0.959673 c 0.990631,0 1.454989,0.18574 1.454989,0.58818 0,0.34053 -0.216701,0.71202 -0.712016,1.20734 z" />
      <path
         id="path1020"
         style="font-style:normal;font-variant:normal;font-weight:normal;font-stretch:normal;font-size:30.9572px;line-height:125%;font-family:C059;-inkscape-font-specification:'C059, Normal';font-variant-ligatures:normal;font-variant-caps:normal;font-variant-numeric:normal;font-variant-east-asian:normal;text-align:start;letter-spacing:17.4625px;word-spacing:0px;writing-mode:lr-tb;text-anchor:start;fill:#000080;fill-opacity:1;stroke:#000080;stroke-width:3;stroke-linecap:round;stroke-linejoin:round;stroke-miterlimit:4;stroke-dasharray:none;stroke-opacity:1"
         d="m 63.078005,116.87884 v -15.32381 l -5.727082,0.34053 v 1.33116 h 1.485946 c 1.176373,0.031 1.331159,0.2167 1.331159,1.54786 v 15.78817 1.48594 c -0.03096,0.4334 -0.06191,0.61915 -0.185743,0.77393 -0.2167,0.27862 -0.804887,0.40245 -2.136047,0.4334 H 57.72241 v 1.11446 h 7.832171 v -1.11446 h -0.123829 c -2.074132,-0.0619 -2.352747,-0.2167 -2.352747,-1.33116 v -1.36211 -1.76456 l 1.888389,-1.79552 3.683907,5.16985 c 0.154786,0.24766 0.2167,0.40245 0.2167,0.52627 0,0.43341 -0.340529,0.55723 -1.362116,0.55723 h -0.588187 v 1.11446 h 8.1727 v -1.11446 c -1.733603,-0.15478 -2.352747,-0.52627 -3.621992,-2.13604 l -4.395922,-6.0057 1.393074,-1.36212 c 1.826474,-1.76456 3.126677,-2.44561 5.231766,-2.69327 v -1.11446 h -8.141743 v 1.11446 h 0.959673 c 0.990631,0 1.454989,0.18574 1.454989,0.58818 0,0.34053 -0.216701,0.71202 -0.712016,1.20734 z" />
      <path
         id="path1003"
         style="font-style:normal;font-variant:normal;font-weight:normal;font-stretch:normal;font-size:30.9572px;line-height:125%;font-family:C059;-inkscape-font-specification:'C059, Normal';font-variant-ligatures:normal;font-variant-caps:normal;font-variant-numeric:normal;font-variant-east-asian:normal;text-align:start;letter-spacing:17.4625px;word-spacing:0px;writing-mode:lr-tb;text-anchor:start;fill:#ffffff;fill-opacity:1;stroke:none;stroke-width:2.06381px;stroke-linecap:butt;stroke-linejoin:miter;stroke-opacity:1"
         d="m 63.078005,116.87884 v -15.32381 l -5.727082,0.34053 v 1.33116 h 1.485946 c 1.176373,0.031 1.331159,0.2167 1.331159,1.54786 v 15.78817 1.48594 c -0.03096,0.4334 -0.06191,0.61915 -0.185743,0.77393 -0.2167,0.27862 -0.804887,0.40245 -2.136047,0.4334 H 57.72241 v 1.11446 h 7.832171 v -1.11446 h -0.123829 c -2.074132,-0.0619 -2.352747,-0.2167 -2.352747,-1.33116 v -1.36211 -1.76456 l 1.888389,-1.79552 3.683907,5.16985 c 0.154786,0.24766 0.2167,0.40245 0.2167,0.52627 0,0.43341 -0.340529,0.55723 -1.362116,0.55723 h -0.588187 v 1.11446 h 8.1727 v -1.11446 c -1.733603,-0.15478 -2.352747,-0.52627 -3.621992,-2.13604 l -4.395922,-6.0057 1.393074,-1.36212 c 1.826474,-1.76456 3.126677,-2.44561 5.231766,-2.69327 v -1.11446 h -8.141743 v 1.11446 h 0.959673 c 0.990631,0 1.454989,0.18574 1.454989,0.58818 0,0.34053 -0.216701,0.71202 -0.712016,1.20734 z" />
    </g>
    <g
       transform="translate(49.096066,-4.9551948)"
       id="g1139">
      <path
         id="path1052"
         style="font-style:normal;font-variant:normal;font-weight:normal;font-stretch:normal;font-size:30.9572px;line-height:125%;font-family:C059;-inkscape-font-specification:'C059, Normal';font-variant-ligatures:normal;font-variant-caps:normal;font-variant-numeric:normal;font-variant-east-asian:normal;text-align:start;letter-spacing:17.4625px;word-spacing:0px;writing-mode:lr-tb;text-anchor:start;opacity:0.9;fill:#000000;fill-opacity:1;stroke:#000000;stroke-width:5;stroke-linecap:round;stroke-linejoin:round;stroke-miterlimit:4;stroke-dasharray:none;stroke-opacity:1;filter:url(#filter995)"
         d="m 27.732133,111.9444 -5.355595,0.34053 v 1.33116 h 1.114459 c 1.176373,0.031 1.331159,0.2167 1.331159,1.54786 v 7.39877 0.74297 0.71202 c -0.03096,0.46435 -0.06191,0.6501 -0.185743,0.80488 -0.2167,0.27862 -0.804887,0.40245 -2.136047,0.4334 h -0.123828 v 1.11446 h 7.832171 v -1.11446 H 30.08488 c -2.074132,-0.0619 -2.352747,-0.2167 -2.352747,-1.33116 v -1.36211 -3.21955 c 0,-1.5169 0.2167,-2.90998 0.55723,-3.62199 0.650101,-1.39308 2.043175,-2.35275 3.374334,-2.35275 0.804888,0 1.733604,0.4334 2.197962,1.0835 0.464358,0.68106 0.681058,1.60978 0.681058,3.09572 v 5.01507 1.45499 c -0.03096,0.46435 -0.06191,0.6501 -0.185743,0.80488 -0.216701,0.27862 -0.835845,0.40245 -2.167004,0.4334 h -0.123829 v 1.11446 h 7.832171 v -1.11446 h -0.123828 c -2.043176,-0.0619 -2.32179,-0.2167 -2.32179,-1.33116 v -1.36211 -4.86028 c 0,-2.22892 -0.09287,-2.78615 -0.650102,-3.8387 -0.77393,-1.48594 -2.321789,-2.3837 -4.179221,-2.3837 -2.012218,0 -3.529121,0.92872 -4.891238,2.97189 z" />
      <path
         id="path1035"
         style="font-style:normal;font-variant:normal;font-weight:normal;font-stretch:normal;font-size:30.9572px;line-height:125%;font-family:C059;-inkscape-font-specification:'C059, Normal';font-variant-ligatures:normal;font-variant-caps:normal;font-variant-numeric:normal;font-variant-east-asian:normal;text-align:start;letter-spacing:17.4625px;word-spacing:0px;writing-mode:lr-tb;text-anchor:start;fill:#ff0000;fill-opacity:1;stroke:#ffffff;stroke-width:5;stroke-linecap:round;stroke-linejoin:round;stroke-miterlimit:4;stroke-dasharray:none;stroke-opacity:1"
         d="m 26.731668,109.94443 -5.355596,0.34053 v 1.33116 h 1.114459 c 1.176374,0.031 1.33116,0.2167 1.33116,1.54786 v 7.39877 0.74297 0.71202 c -0.03096,0.46435 -0.06191,0.6501 -0.185743,0.80488 -0.216701,0.27862 -0.804887,0.40245 -2.136047,0.4334 h -0.123829 v 1.11446 h 7.832172 v -1.11446 h -0.123829 c -2.074132,-0.0619 -2.352747,-0.2167 -2.352747,-1.33116 v -1.36211 -3.21955 c 0,-1.5169 0.2167,-2.90998 0.557229,-3.62199 0.650101,-1.39308 2.043175,-2.35275 3.374335,-2.35275 0.804887,0 1.733603,0.4334 2.197961,1.0835 0.464358,0.68106 0.681059,1.60978 0.681059,3.09572 v 5.01507 1.45499 c -0.03096,0.46435 -0.06191,0.6501 -0.185744,0.80488 -0.2167,0.27862 -0.835844,0.40245 -2.167004,0.4334 h -0.123828 v 1.11446 h 7.832171 v -1.11446 h -0.123829 c -2.043175,-0.0619 -2.32179,-0.2167 -2.32179,-1.33116 v -1.36211 -4.86028 c 0,-2.22892 -0.09287,-2.78615 -0.650101,-3.8387 -0.77393,-1.48594 -2.32179,-2.3837 -4.179222,-2.3837 -2.012218,0 -3.529121,0.92872 -4.891237,2.97189 z" />
      <path
         id="path1018"
         style="font-style:normal;font-variant:normal;font-weight:normal;font-stretch:normal;font-size:30.9572px;line-height:125%;font-family:C059;-inkscape-font-specification:'C059, Normal';font-variant-ligatures:normal;font-variant-caps:normal;font-variant-numeric:normal;font-variant-east-asian:normal;text-align:start;letter-spacing:17.4625px;word-spacing:0px;writing-mode:lr-tb;text-anchor:start;fill:#000080;fill-opacity:1;stroke:#000080;stroke-width:3;stroke-linecap:round;stroke-linejoin:round;stroke-miterlimit:4;stroke-dasharray:none;stroke-opacity:1"
         d="m 26.731668,109.94443 -5.355596,0.34053 v 1.33116 h 1.114459 c 1.176374,0.031 1.33116,0.2167 1.33116,1.54786 v 7.39877 0.74297 0.71202 c -0.03096,0.46435 -0.06191,0.6501 -0.185743,0.80488 -0.216701,0.27862 -0.804887,0.40245 -2.136047,0.4334 h -0.123829 v 1.11446 h 7.832172 v -1.11446 h -0.123829 c -2.074132,-0.0619 -2.352747,-0.2167 -2.352747,-1.33116 v -1.36211 -3.21955 c 0,-1.5169 0.2167,-2.90998 0.557229,-3.62199 0.650101,-1.39308 2.043175,-2.35275 3.374335,-2.35275 0.804887,0 1.733603,0.4334 2.197961,1.0835 0.464358,0.68106 0.681059,1.60978 0.681059,3.09572 v 5.01507 1.45499 c -0.03096,0.46435 -0.06191,0.6501 -0.185744,0.80488 -0.2167,0.27862 -0.835844,0.40245 -2.167004,0.4334 h -0.123828 v 1.11446 h 7.832171 v -1.11446 h -0.123829 c -2.043175,-0.0619 -2.32179,-0.2167 -2.32179,-1.33116 v -1.36211 -4.86028 c 0,-2.22892 -0.09287,-2.78615 -0.650101,-3.8387 -0.77393,-1.48594 -2.32179,-2.3837 -4.179222,-2.3837 -2.012218,0 -3.529121,0.92872 -4.891237,2.97189 z" />
      <path
         id="path1001"
         style="font-style:normal;font-variant:normal;font-weight:normal;font-stretch:normal;font-size:30.9572px;line-height:125%;font-family:C059;-inkscape-font-specification:'C059, Normal';font-variant-ligatures:normal;font-variant-caps:normal;font-variant-numeric:normal;font-variant-east-asian:normal;text-align:start;letter-spacing:17.4625px;word-spacing:0px;writing-mode:lr-tb;text-anchor:start;fill:#ffffff;fill-opacity:1;stroke:none;stroke-width:2.06381px;stroke-linecap:butt;stroke-linejoin:miter;stroke-opacity:1"
         d="m 26.731668,109.94443 -5.355596,0.34053 v 1.33116 h 1.114459 c 1.176374,0.031 1.33116,0.2167 1.33116,1.54786 v 7.39877 0.74297 0.71202 c -0.03096,0.46435 -0.06191,0.6501 -0.185743,0.80488 -0.216701,0.27862 -0.804887,0.40245 -2.136047,0.4334 h -0.123829 v 1.11446 h 7.832172 v -1.11446 h -0.123829 c -2.074132,-0.0619 -2.352747,-0.2167 -2.352747,-1.33116 v -1.36211 -3.21955 c 0,-1.5169 0.2167,-2.90998 0.557229,-3.62199 0.650101,-1.39308 2.043175,-2.35275 3.374335,-2.35275 0.804887,0 1.733603,0.4334 2.197961,1.0835 0.464358,0.68106 0.681059,1.60978 0.681059,3.09572 v 5.01507 1.45499 c -0.03096,0.46435 -0.06191,0.6501 -0.185744,0.80488 -0.2167,0.27862 -0.835844,0.40245 -2.167004,0.4334 h -0.123828 v 1.11446 h 7.832171 v -1.11446 h -0.123829 c -2.043175,-0.0619 -2.32179,-0.2167 -2.32179,-1.33116 v -1.36211 -4.86028 c 0,-2.22892 -0.09287,-2.78615 -0.650101,-3.8387 -0.77393,-1.48594 -2.32179,-2.3837 -4.179222,-2.3837 -2.012218,0 -3.529121,0.92872 -4.891237,2.97189 z" />
    </g>
    <g
       transform="translate(67.269766,-2.3093613)"
       id="g1145">
      <path
         id="path1050"
         style="font-style:normal;font-variant:normal;font-weight:normal;font-stretch:normal;font-size:30.9572px;line-height:125%;font-family:C059;-inkscape-font-specification:'C059, Normal';font-variant-ligatures:normal;font-variant-caps:normal;font-variant-numeric:normal;font-variant-east-asian:normal;text-align:start;letter-spacing:17.4625px;word-spacing:0px;writing-mode:lr-tb;text-anchor:start;opacity:0.9;fill:#000000;fill-opacity:1;stroke:#000000;stroke-width:5;stroke-linecap:round;stroke-linejoin:round;stroke-miterlimit:4;stroke-dasharray:none;stroke-opacity:1;filter:url(#filter995)"
         d="m -7.3450002,105.47434 h 0.619144 c 1.7645603,0.031 2.3527471,0.12383 2.6004047,0.4334 0.1857432,0.27862 0.1857432,0.37149 0.1857432,1.91935 v 14.73563 c 0,1.54786 0,1.64073 -0.1857432,1.91934 -0.2476576,0.30958 -0.8358444,0.4334 -2.6004047,0.4334 h -0.619144 v 1.45499 H 2.9018327 v -1.45499 h -0.619144 c -1.73360311,0 -2.3217899,-0.0929 -2.56944749,-0.4334 -0.18574319,-0.27861 -0.18574319,-0.34053 -0.18574319,-1.91934 v -14.73563 c 0,-1.57882 0,-1.64073 0.18574319,-1.91935 0.24765759,-0.30957 0.80488718,-0.40244 2.56944749,-0.4334 h 0.619144 v -1.45498 H -7.3450002 Z" />
      <path
         id="path1033"
         style="font-style:normal;font-variant:normal;font-weight:normal;font-stretch:normal;font-size:30.9572px;line-height:125%;font-family:C059;-inkscape-font-specification:'C059, Normal';font-variant-ligatures:normal;font-variant-caps:normal;font-variant-numeric:normal;font-variant-east-asian:normal;text-align:start;letter-spacing:17.4625px;word-spacing:0px;writing-mode:lr-tb;text-anchor:start;fill:#ff0000;fill-opacity:1;stroke:#ffffff;stroke-width:5;stroke-linecap:round;stroke-linejoin:round;stroke-miterlimit:4;stroke-dasharray:none;stroke-opacity:1"
         d="m -8.3454656,103.47437 h 0.619144 c 1.7645604,0.031 2.3527471,0.12383 2.6004047,0.4334 0.1857432,0.27862 0.1857432,0.37149 0.1857432,1.91935 v 14.73563 c 0,1.54786 0,1.64073 -0.1857432,1.91934 -0.2476576,0.30958 -0.8358443,0.43341 -2.6004047,0.43341 h -0.619144 v 1.45498 H 1.9013673 v -1.45498 h -0.619144 c -1.73360311,0 -2.3217899,-0.0929 -2.5694475,-0.43341 -0.1857432,-0.27861 -0.1857432,-0.34052 -0.1857432,-1.91934 v -14.73563 c 0,-1.57882 0,-1.64073 0.1857432,-1.91935 0.2476576,-0.30957 0.80488719,-0.40244 2.5694475,-0.4334 h 0.619144 v -1.45498 H -8.3454656 Z" />
      <path
         id="path1016"
         style="font-style:normal;font-variant:normal;font-weight:normal;font-stretch:normal;font-size:30.9572px;line-height:125%;font-family:C059;-inkscape-font-specification:'C059, Normal';font-variant-ligatures:normal;font-variant-caps:normal;font-variant-numeric:normal;font-variant-east-asian:normal;text-align:start;letter-spacing:17.4625px;word-spacing:0px;writing-mode:lr-tb;text-anchor:start;fill:#000080;fill-opacity:1;stroke:#000080;stroke-width:3;stroke-linecap:round;stroke-linejoin:round;stroke-miterlimit:4;stroke-dasharray:none;stroke-opacity:1"
         d="m -8.3454656,103.47437 h 0.619144 c 1.7645604,0.031 2.3527471,0.12383 2.6004047,0.4334 0.1857432,0.27862 0.1857432,0.37149 0.1857432,1.91935 v 14.73563 c 0,1.54786 0,1.64073 -0.1857432,1.91934 -0.2476576,0.30958 -0.8358443,0.43341 -2.6004047,0.43341 h -0.619144 v 1.45498 H 1.9013673 v -1.45498 h -0.619144 c -1.73360311,0 -2.3217899,-0.0929 -2.5694475,-0.43341 -0.1857432,-0.27861 -0.1857432,-0.34052 -0.1857432,-1.91934 v -14.73563 c 0,-1.57882 0,-1.64073 0.1857432,-1.91935 0.2476576,-0.30957 0.80488719,-0.40244 2.5694475,-0.4334 h 0.619144 v -1.45498 H -8.3454656 Z" />
      <path
         id="path999"
         style="font-style:normal;font-variant:normal;font-weight:normal;font-stretch:normal;font-size:30.9572px;line-height:125%;font-family:C059;-inkscape-font-specification:'C059, Normal';font-variant-ligatures:normal;font-variant-caps:normal;font-variant-numeric:normal;font-variant-east-asian:normal;text-align:start;letter-spacing:17.4625px;word-spacing:0px;writing-mode:lr-tb;text-anchor:start;fill:#ffffff;fill-opacity:1;stroke:none;stroke-width:2.06381px;stroke-linecap:butt;stroke-linejoin:miter;stroke-opacity:1"
         d="m -8.3454656,103.47437 h 0.619144 c 1.7645604,0.031 2.3527471,0.12383 2.6004047,0.4334 0.1857432,0.27862 0.1857432,0.37149 0.1857432,1.91935 v 14.73563 c 0,1.54786 0,1.64073 -0.1857432,1.91934 -0.2476576,0.30958 -0.8358443,0.43341 -2.6004047,0.43341 h -0.619144 v 1.45498 H 1.9013673 v -1.45498 h -0.619144 c -1.73360311,0 -2.3217899,-0.0929 -2.5694475,-0.43341 -0.1857432,-0.27861 -0.1857432,-0.34052 -0.1857432,-1.91934 v -14.73563 c 0,-1.57882 0,-1.64073 0.1857432,-1.91935 0.2476576,-0.30957 0.80488719,-0.40244 2.5694475,-0.4334 h 0.619144 v -1.45498 H -8.3454656 Z" />
    </g>
  </g>
</svg>
