<?xml version="1.0" encoding="UTF-8" standalone="no"?>
<!-- Created with Inkscape (http://www.inkscape.org/) -->

<svg
   xmlns:dc="http://purl.org/dc/elements/1.1/"
   xmlns:cc="http://creativecommons.org/ns#"
   xmlns:rdf="http://www.w3.org/1999/02/22-rdf-syntax-ns#"
   xmlns:svg="http://www.w3.org/2000/svg"
   xmlns="http://www.w3.org/2000/svg"
   xmlns:sodipodi="http://sodipodi.sourceforge.net/DTD/sodipodi-0.dtd"
   xmlns:inkscape="http://www.inkscape.org/namespaces/inkscape"
   width="210mm"
   height="297mm"
   viewBox="0 0 210 297"
   version="1.1"
   id="svg8"
   inkscape:version="0.92.3 (2405546, 2018-03-11)"
   sodipodi:docname="Logo Design.svg">
  <defs
     id="defs2" />
  <sodipodi:namedview
     id="base"
     pagecolor="#ffffff"
     bordercolor="#666666"
     borderopacity="1.0"
     inkscape:pageopacity="0.0"
     inkscape:pageshadow="2"
     inkscape:zoom="0.49497475"
     inkscape:cx="256.20274"
     inkscape:cy="306.4013"
     inkscape:document-units="mm"
     inkscape:current-layer="layer1"
     showgrid="false"
     inkscape:object-nodes="false"
     inkscape:window-width="956"
     inkscape:window-height="1015"
     inkscape:window-x="960"
     inkscape:window-y="0"
     inkscape:window-maximized="0" />
  <metadata
     id="metadata5">
    <rdf:RDF>
      <cc:Work
         rdf:about="">
        <dc:format>image/svg+xml</dc:format>
        <dc:type
           rdf:resource="http://purl.org/dc/dcmitype/StillImage" />
        <dc:title></dc:title>
      </cc:Work>
    </rdf:RDF>
  </metadata>
  <g
     inkscape:label="Ebene 1"
     inkscape:groupmode="layer"
     id="layer1">
    <g
       id="g994"
       transform="matrix(0.54157578,0,0,0.54157578,50.034882,57.298652)"
       style="stroke-width:1.84646368">
      <path
         inkscape:connector-curvature="0"
         id="rect817"
         transform="scale(0.26458333)"
         d="m 166.49023,286.51367 -9.44726,9.44922 v 84.5 H -25.4375 l -8.328125,13.90625 58.222656,108.67774 -58.222656,108.67578 8.328125,13.9082 h 182.48047 v 84.5 l 4.44336,8.00976 207.08398,129.30079 h 10.00977 l 207.08398,-129.30079 4.44336,-8.00976 v -84.5 h 182.48047 l 8.32813,-13.9082 -58.22071,-108.67578 58.22071,-108.67774 -8.32813,-13.90625 H 590.10742 v -84.5 l -9.44726,-9.44922 z m 9.44922,18.89649 H 571.21094 V 704.88867 L 476.28516,764.15625 373.57617,700.02539 270.86523,764.15625 175.93945,704.88867 V 616.18164 389.91211 Z m 38.73438,28.0664 -10.66406,10.66406 11.89062,85.24805 c 0.30997,2.30138 1.45647,4.40804 3.2207,5.91797 l 67.74219,67.74219 -78.58008,78.58203 -2.76758,6.39844 -1.50585,50.4082 2.76367,1.19336 v 5.76953 l 24.44922,24.44922 h 5.76953 l 1.19531,2.76562 50.40625,-1.50781 6.40234,-2.76562 78.58008,-78.58008 78.58008,78.58008 6.40234,2.76562 50.40625,1.50781 1.19336,-2.76562 h 5.77149 l 24.44726,-24.44922 v -5.76953 l 2.76563,-1.19336 -1.50586,-50.4082 -2.76758,-6.39844 -78.58203,-78.58008 67.74414,-67.74414 c 1.76424,-1.50993 2.91073,-3.61659 3.2207,-5.91797 l 11.89063,-85.24805 -10.66406,-10.66406 -85.24414,11.89453 c -2.30292,0.31104 -4.41046,1.45973 -5.91993,3.22657 l -67.73828,67.74023 -67.74023,-67.74023 c -1.50898,-1.76641 -3.61576,-2.91507 -5.91797,-3.22657 z m 9.78125,20.45117 64.95312,9.06055 1.14258,38.36328 -18.67187,18.67188 -38.36329,-1.14844 z m 298.24219,0 -9.06055,64.94727 -38.36328,1.14844 -18.67188,-18.67188 1.14258,-38.36328 z m -213.9336,24.32422 214.08985,214.08985 0.68554,22.85547 -214.08594,-214.08399 z m 129.62305,0 -0.68945,22.86133 -39.67188,39.67188 -11.08594,-11.08399 z M -9.6484375,399.35938 H 157.04297 V 421.875 H 2.4121094 Z m 599.7558575,0 H 756.79883 L 744.73828,421.875 H 590.10742 Z M 300.12109,418.50586 520.33203,638.71875 509.24609,649.80664 289.0332,429.59375 Z m 146.91016,0 11.08789,11.08789 -35.64453,35.64453 -11.08594,-11.08984 z m -198.25195,19.73242 22.86132,0.6875 214.08594,214.08399 -22.85937,-0.6836 z m 249.59375,0 -51.44922,51.44727 -11.08594,-11.08789 39.67188,-39.67188 z M 12.535156,440.77344 H 157.04297 V 565.32031 H 12.533203 l 30.96875,-57.81445 v -8.91797 z m 577.572264,0 h 144.50781 l -30.96679,57.81445 v 8.91797 l 30.96875,57.81445 H 590.10742 Z m -289.88086,75.63867 11.08594,11.08594 -87.69922,87.69922 0.68555,-22.85547 z m 24.44922,24.44922 11.08789,11.08789 -97.85742,97.85742 -11.08789,-11.08789 z m 24.44922,24.44922 11.08789,11.08789 -75.92969,75.92773 -22.85742,0.6836 z M 2.4121094,584.2168 H 157.04297 v 22.51562 H -9.6484375 Z m 587.6953106,0 h 154.63086 l 12.06055,22.51562 H 590.10742 Z m -215.84961,152.17382 9.31446,20.35547 22.04882,3.86524 -16.48047,15.15039 3.13672,22.16406 -19.5,-10.99219 -20.11132,9.83203 4.42968,-21.94335 -15.5664,-16.08789 22.23828,-2.56836 z"
         style="color:#000000;font-style:normal;font-variant:normal;font-weight:normal;font-stretch:normal;font-size:medium;line-height:normal;font-family:sans-serif;font-variant-ligatures:normal;font-variant-position:normal;font-variant-caps:normal;font-variant-numeric:normal;font-variant-alternates:normal;font-feature-settings:normal;text-indent:0;text-align:start;text-decoration:none;text-decoration-line:none;text-decoration-style:solid;text-decoration-color:#000000;letter-spacing:normal;word-spacing:normal;text-transform:none;writing-mode:lr-tb;direction:ltr;text-orientation:mixed;dominant-baseline:auto;baseline-shift:baseline;text-anchor:start;white-space:normal;shape-padding:0;clip-rule:nonzero;display:inline;overflow:visible;visibility:visible;opacity:1;isolation:auto;mix-blend-mode:normal;color-interpolation:sRGB;color-interpolation-filters:linearRGB;solid-color:#000000;solid-opacity:1;vector-effect:none;fill:#000000;fill-opacity:1;fill-rule:nonzero;stroke:none;stroke-width:34.89380264;stroke-linecap:round;stroke-linejoin:bevel;stroke-miterlimit:4;stroke-dasharray:none;stroke-dashoffset:0;stroke-opacity:1;color-rendering:auto;image-rendering:auto;shape-rendering:auto;text-rendering:auto;enable-background:accumulate" />
      <text
         id="text973"
         y="141.98021"
         x="12.021791"
         style="font-style:normal;font-variant:normal;font-weight:bold;font-stretch:normal;font-size:25.59789276px;line-height:1.25;font-family:'Berenis ADF Pro';-inkscape-font-specification:'Berenis ADF Pro, Bold';font-variant-ligatures:normal;font-variant-caps:normal;font-variant-numeric:normal;font-feature-settings:normal;text-align:start;letter-spacing:0px;word-spacing:0px;writing-mode:lr-tb;text-anchor:start;fill:#000000;fill-opacity:1;stroke:none;stroke-width:0.48854348"
         xml:space="preserve"><tspan
           style="font-style:normal;font-variant:normal;font-weight:bold;font-stretch:normal;font-size:25.59789276px;font-family:'Berenis ADF Pro';-inkscape-font-specification:'Berenis ADF Pro, Bold';font-variant-ligatures:normal;font-variant-caps:normal;font-variant-numeric:normal;font-feature-settings:normal;text-align:start;writing-mode:lr-tb;text-anchor:start;stroke-width:0.48854348"
           y="141.98021"
           x="12.021791"
           id="tspan971"
           sodipodi:role="line">20</tspan></text>
      <text
         xml:space="preserve"
         style="font-style:normal;font-variant:normal;font-weight:bold;font-stretch:normal;font-size:25.59789276px;line-height:1.25;font-family:'Berenis ADF Pro';-inkscape-font-specification:'Berenis ADF Pro, Bold';font-variant-ligatures:normal;font-variant-caps:normal;font-variant-numeric:normal;font-feature-settings:normal;text-align:start;letter-spacing:0px;word-spacing:0px;writing-mode:lr-tb;text-anchor:start;fill:#000000;fill-opacity:1;stroke:none;stroke-width:0.48854348"
         x="157.92061"
         y="141.98021"
         id="text977"><tspan
           sodipodi:role="line"
           id="tspan975"
           x="157.92061"
           y="141.98021"
           style="font-style:normal;font-variant:normal;font-weight:bold;font-stretch:normal;font-size:25.59789276px;font-family:'Berenis ADF Pro';-inkscape-font-specification:'Berenis ADF Pro, Bold';font-variant-ligatures:normal;font-variant-caps:normal;font-variant-numeric:normal;font-feature-settings:normal;text-align:start;writing-mode:lr-tb;text-anchor:start;stroke-width:0.48854348">20</tspan></text>
    </g>
    <g
       aria-label="LOGO DESIGN"
       style="font-style:normal;font-variant:normal;font-weight:500;font-stretch:normal;font-size:13.25375462px;line-height:1.25;font-family:aakar;-inkscape-font-specification:'aakar, Medium';font-variant-ligatures:normal;font-variant-caps:normal;font-variant-numeric:normal;font-feature-settings:normal;text-align:start;letter-spacing:3.34962487px;word-spacing:0px;writing-mode:lr-tb;text-anchor:start;fill:#000000;fill-opacity:1;stroke:none;stroke-width:0.26458332"
       id="text1000"
       transform="translate(-0.2982089,22.547006)">
      <path
         d="m 46.174035,63.322803 0.181398,0.166045 q -0.471917,0.515553 -0.484398,0.855065 -0.01329,0.321226 0.530906,0.819361 l 4.515862,4.133648 q 0.267324,0.244698 0.49146,0.134022 0.21459,-0.119416 0.782639,-0.739989 1.10988,-1.212504 1.313815,-1.780343 0.29441,-0.800864 -0.234371,-1.986763 l 0.218481,-0.238682 1.241744,1.978893 -4.701697,5.136435 -0.181399,-0.166045 q 0.436961,-0.477364 0.431963,-0.797782 -0.0058,-0.338704 -0.530906,-0.819361 l -4.238991,-3.880211 q -0.544195,-0.498135 -0.854257,-0.466111 -0.319609,0.02328 -0.765309,0.510195 l -0.181398,-0.166045 z"
         style="font-style:normal;font-variant:normal;font-weight:500;font-stretch:normal;font-size:13.25375462px;font-family:aakar;-inkscape-font-specification:'aakar, Medium';font-variant-ligatures:normal;font-variant-caps:normal;font-variant-numeric:normal;font-feature-settings:normal;text-align:start;letter-spacing:3.34962487px;writing-mode:lr-tb;text-anchor:start;stroke-width:0.26458332"
         id="path1011"
         inkscape:connector-curvature="0" />
      <path
         d="m 61.517429,61.034302 q -1.424215,1.099249 -3.094422,0.884163 -1.742824,-0.224438 -2.976513,-1.822838 -1.289047,-1.670124 -1.003133,-3.460398 0.254628,-1.618976 1.617366,-2.670775 1.372985,-1.059707 2.985496,-0.89819 1.804301,0.176988 3.101257,1.857358 1.233689,1.5984 1.019497,3.333316 -0.20484,1.662299 -1.649548,2.777364 z M 61.232732,60.66544 q 0.9324,-0.719652 0.947036,-1.908146 0.01752,-1.354222 -1.208258,-2.942376 -1.249506,-1.618893 -2.594722,-1.921316 -1.129701,-0.256213 -2.031363,0.439714 -0.901662,0.695927 -0.940023,1.853683 -0.04826,1.377947 1.201245,2.996839 1.225781,1.588154 2.540259,1.914302 1.153426,0.286952 2.085826,-0.4327 z"
         style="font-style:normal;font-variant:normal;font-weight:500;font-stretch:normal;font-size:13.25375462px;font-family:aakar;-inkscape-font-specification:'aakar, Medium';font-variant-ligatures:normal;font-variant-caps:normal;font-variant-numeric:normal;font-feature-settings:normal;text-align:start;letter-spacing:3.34962487px;writing-mode:lr-tb;text-anchor:start;stroke-width:0.26458332"
         id="path1013"
         inkscape:connector-curvature="0" />
      <path
         d="m 74.029838,47.967567 0.106239,0.207343 q -0.460762,0.236087 -0.510744,0.450759 -0.08901,0.36556 0.158877,0.849361 l 1.186337,2.315331 q 0.07673,0.149747 -0.725327,0.997004 -0.807957,0.835737 -1.648848,1.266596 -0.944563,0.483978 -1.88103,0.61477 -1.069364,0.155257 -1.987358,-0.188799 -0.772722,-0.287603 -1.269271,-0.745798 -0.60755,-0.561295 -1.150549,-1.621049 -0.784989,-1.532035 -0.309266,-3.186481 0.520659,-1.793816 2.271556,-2.690946 0.564434,-0.289207 1.118775,-0.427809 0.566146,-0.115565 1.137908,-0.248551 0.184305,-0.09443 0.292453,-0.280737 0.102245,-0.197821 0.05417,-0.376794 l 0.25342,-0.129848 1.245358,2.430522 -0.172786,0.08853 q -0.957971,-0.876215 -1.891104,-0.994366 -0.822988,-0.101872 -1.640841,0.317183 -1.048235,0.537097 -1.425137,1.646439 -0.494856,1.475188 0.502611,3.421909 0.796793,1.555073 2.075301,2.063445 1.284125,0.490952 2.643374,-0.205504 0.61051,-0.312815 0.999875,-0.745012 0.383464,-0.443715 0.230008,-0.74321 l -0.956152,-1.866088 q -0.348228,-0.679624 -0.632585,-0.752073 -0.284357,-0.07245 -0.906386,0.246268 l -0.106239,-0.207343 z"
         style="font-style:normal;font-variant:normal;font-weight:500;font-stretch:normal;font-size:13.25375462px;font-family:aakar;-inkscape-font-specification:'aakar, Medium';font-variant-ligatures:normal;font-variant-caps:normal;font-variant-numeric:normal;font-feature-settings:normal;text-align:start;letter-spacing:3.34962487px;writing-mode:lr-tb;text-anchor:start;stroke-width:0.26458332"
         id="path1015"
         inkscape:connector-curvature="0" />
      <path
         d="m 83.926114,49.548207 q -1.723651,0.515526 -3.205695,-0.284096 -1.546482,-0.834388 -2.125058,-2.768845 -0.604538,-2.021259 0.304253,-3.589994 0.818166,-1.420043 2.467414,-1.913316 1.661649,-0.496982 3.10904,0.231947 1.620884,0.812135 2.22913,2.845795 0.578576,1.934456 -0.243411,3.477229 -0.787222,1.478336 -2.535673,2.00128 z m -0.133518,-0.446413 q 1.128433,-0.337503 1.568219,-1.441732 0.5019,-1.257903 -0.07297,-3.179959 -0.585993,-1.959258 -1.733341,-2.723888 -0.96273,-0.644222 -2.053962,-0.317846 -1.091232,0.326377 -1.542144,1.393404 -0.539101,1.26903 0.04689,3.228287 0.574867,1.922056 1.685014,2.697813 0.973855,0.681423 2.102288,0.343921 z"
         style="font-style:normal;font-variant:normal;font-weight:500;font-stretch:normal;font-size:13.25375462px;font-family:aakar;-inkscape-font-specification:'aakar, Medium';font-variant-ligatures:normal;font-variant-caps:normal;font-variant-numeric:normal;font-feature-settings:normal;text-align:start;letter-spacing:3.34962487px;writing-mode:lr-tb;text-anchor:start;stroke-width:0.26458332"
         id="path1017"
         inkscape:connector-curvature="0" />
      <path
         d="m 101.77172,46.335038 0.008,-0.245783 q 0.72441,0.02419 0.93916,-0.201739 0.21475,-0.225934 0.23808,-0.924473 l 0.19182,-5.743543 q 0.0246,-0.737347 -0.17543,-0.951234 -0.1867,-0.226391 -0.92404,-0.251017 l 0.008,-0.245782 3.4927,0.11665 q 2.39314,0.07993 3.70305,1.185602 1.38536,1.172948 1.31451,3.294437 -0.0549,1.64286 -1.08852,2.735017 -1.36915,1.443562 -4.03394,1.354563 z m 2.71099,-7.498355 -0.21947,6.57144 q -0.0108,0.323398 0.14097,0.43207 0.15178,0.108672 0.61747,0.124225 0.84083,0.02808 1.4014,-0.0827 1.12113,-0.221564 1.79212,-0.924373 0.8853,-0.915807 0.94233,-2.623346 0.0298,-0.892578 -0.21765,-1.626061 -0.24702,-0.74642 -0.88731,-1.35057 -0.50189,-0.482974 -1.07752,-0.696454 -0.7162,-0.269976 -1.8675,-0.308427 -0.40101,-0.01339 -0.53556,0.137517 -0.0806,0.08796 -0.0893,0.346678 z"
         style="font-style:normal;font-variant:normal;font-weight:500;font-stretch:normal;font-size:13.25375462px;font-family:aakar;-inkscape-font-specification:'aakar, Medium';font-variant-ligatures:normal;font-variant-caps:normal;font-variant-numeric:normal;font-feature-settings:normal;text-align:start;letter-spacing:3.34962487px;writing-mode:lr-tb;text-anchor:start;stroke-width:0.26458332"
         id="path1019"
         inkscape:connector-curvature="0" />
      <path
         d="m 122.25101,46.53649 -1.01666,2.022448 -6.84214,-1.426638 0.0502,-0.240741 q 0.63353,0.132096 0.90651,-0.03575 0.2883,-0.177875 0.43361,-0.874759 l 1.17301,-5.625755 q 0.15059,-0.722225 -0.0352,-0.97251 -0.18316,-0.262955 -0.82936,-0.397693 l 0.0502,-0.240742 6.72809,1.402861 -0.37779,1.811898 -0.27875,-0.05812 q 0.035,-0.865322 -0.28227,-1.182679 -0.30193,-0.327387 -1.36627,-0.549308 l -1.71053,-0.356659 q -0.24074,-0.0502 -0.34529,0.0073 -0.1019,0.04486 -0.16267,0.336284 l -0.5865,2.812878 1.95127,0.406856 q 0.81092,0.169083 1.08655,-0.01143 0.29094,-0.190545 0.5582,-0.901664 l 0.29143,0.06076 -0.61293,2.939584 -0.29142,-0.06076 q 0.0445,-0.784015 -0.16402,-1.052254 -0.19319,-0.278267 -0.97877,-0.442066 l -1.95127,-0.406856 -0.64992,3.116972 q -0.0819,0.392789 0.14299,0.51901 0.24021,0.116191 1.63398,0.406802 1.2037,0.250983 1.84521,0.02776 0.64151,-0.22322 1.27574,-1.109033 z"
         style="font-style:normal;font-variant:normal;font-weight:500;font-stretch:normal;font-size:13.25375462px;font-family:aakar;-inkscape-font-specification:'aakar, Medium';font-variant-ligatures:normal;font-variant-caps:normal;font-variant-numeric:normal;font-feature-settings:normal;text-align:start;letter-spacing:3.34962487px;writing-mode:lr-tb;text-anchor:start;stroke-width:0.26458332"
         id="path1021"
         inkscape:connector-curvature="0" />
      <path
         d="m 133.73091,43.565171 -0.71359,2.678111 -0.30246,-0.114994 q 0.14801,-0.899173 -0.18772,-1.691476 -0.37611,-0.90459 -1.27138,-1.244974 -0.49603,-0.188591 -0.97397,-0.02413 -0.47334,0.152363 -0.67573,0.684684 -0.28058,0.737989 0.49767,1.823168 0.73327,0.984991 1.47863,1.974582 0.73976,1.222858 0.33958,2.275401 -0.32658,0.858972 -1.17818,1.241391 -0.98518,0.442406 -2.2071,-0.02217 -0.53232,-0.20239 -1.07113,-0.642649 -0.53881,-0.440258 -0.6477,-0.481656 -0.18147,-0.069 -0.32425,0.01519 -0.14279,0.08418 -0.20258,0.24146 l -0.26617,-0.101195 0.61221,-2.702811 0.27826,0.105795 q 0.026,0.951471 0.22622,1.553796 0.38721,1.130359 1.43975,1.530541 0.6896,0.262187 1.21643,0.0055 0.54354,-0.264145 0.74593,-0.796466 0.21159,-0.556517 0.0396,-1.051155 -0.21985,-0.623623 -1.19747,-1.83999 -0.77587,-0.945798 -0.98702,-1.483032 -0.31153,-0.783104 0.001,-1.605781 0.37258,-0.979954 1.26627,-1.290981 0.7981,-0.278135 1.70546,0.06685 0.37505,0.142594 0.74789,0.436666 0.37283,0.294073 0.77737,0.614043 0.21777,0.0828 0.38645,-0.03308 0.10938,-0.06919 0.19338,-0.217264 z"
         style="font-style:normal;font-variant:normal;font-weight:500;font-stretch:normal;font-size:13.25375462px;font-family:aakar;-inkscape-font-specification:'aakar, Medium';font-variant-ligatures:normal;font-variant-caps:normal;font-variant-numeric:normal;font-feature-settings:normal;text-align:start;letter-spacing:3.34962487px;writing-mode:lr-tb;text-anchor:start;stroke-width:0.26458332"
         id="path1023"
         inkscape:connector-curvature="0" />
      <path
         d="m 135.15683,53.838725 0.11687,-0.216375 q 0.70606,0.381357 1.00423,0.292324 0.3157,-0.09427 0.654,-0.720619 l 2.73102,-5.056348 q 0.3506,-0.649125 0.24403,-0.942053 -0.089,-0.298165 -0.7951,-0.679522 l 0.11687,-0.216375 3.38228,1.826826 -0.11687,0.216375 q -0.66051,-0.356754 -0.99284,-0.286174 -0.32618,0.05919 -0.67678,0.708318 l -2.73101,5.056348 q -0.34445,0.637737 -0.22126,0.954355 0.1232,0.316617 0.78371,0.673371 l -0.11686,0.216375 z"
         style="font-style:normal;font-variant:normal;font-weight:500;font-stretch:normal;font-size:13.25375462px;font-family:aakar;-inkscape-font-specification:'aakar, Medium';font-variant-ligatures:normal;font-variant-caps:normal;font-variant-numeric:normal;font-feature-settings:normal;text-align:start;letter-spacing:3.34962487px;writing-mode:lr-tb;text-anchor:start;stroke-width:0.26458332"
         id="path1025"
         inkscape:connector-curvature="0" />
      <path
         d="m 151.77803,59.254752 -0.13935,0.186706 q -0.41491,-0.309667 -0.62965,-0.259982 -0.36739,0.0811 -0.69255,0.516753 l -1.55608,2.084889 q -0.10064,0.134844 -1.21456,-0.212022 -1.10618,-0.357239 -1.86338,-0.922383 -0.85055,-0.634819 -1.38046,-1.417938 -0.6104,-0.891653 -0.70587,-1.867345 -0.0822,-0.820404 0.11047,-1.468011 0.23631,-0.792672 0.94854,-1.74695 1.02965,-1.379554 2.7245,-1.681201 1.83976,-0.322694 3.4164,0.854044 0.50825,0.379343 0.87686,0.815962 0.35312,0.457363 0.72435,0.912096 0.16596,0.123868 0.38086,0.138898 0.22263,0.0047 0.36213,-0.117333 l 0.2282,0.170317 -1.6335,2.188615 -0.15559,-0.116125 q 0.36468,-1.245982 0.0597,-2.13576 -0.27104,-0.783723 -1.0075,-1.333383 -0.9439,-0.704494 -2.10585,-0.554231 -1.54234,0.205511 -2.85069,1.958478 -1.04513,1.400299 -0.93838,2.772025 0.12486,1.369094 1.34882,2.282614 0.54975,0.41031 1.10927,0.569499 0.56726,0.148818 0.76854,-0.12087 l 1.25415,-1.680358 q 0.45676,-0.611983 0.39655,-0.899181 -0.0602,-0.287197 -0.62032,-0.705249 l 0.13935,-0.186706 z"
         style="font-style:normal;font-variant:normal;font-weight:500;font-stretch:normal;font-size:13.25375462px;font-family:aakar;-inkscape-font-specification:'aakar, Medium';font-variant-ligatures:normal;font-variant-caps:normal;font-variant-numeric:normal;font-feature-settings:normal;text-align:start;letter-spacing:3.34962487px;writing-mode:lr-tb;text-anchor:start;stroke-width:0.26458332"
         id="path1027"
         inkscape:connector-curvature="0" />
      <path
         d="m 164.1893,66.14517 -0.18012,0.167431 q -0.55036,-0.478006 -0.83422,-0.479211 -0.44849,-0.0072 -1.21637,0.70657 l -4.98648,4.635198 -0.1498,-0.161159 1.31768,-9.00026 -3.6972,3.436744 q -0.72996,0.678537 -0.81782,1.078293 -0.0784,0.390944 0.4151,0.921823 l -0.18012,0.167431 -2.07085,-2.227796 0.18012,-0.167431 q 0.51991,0.559319 0.91486,0.527947 0.39495,-0.03137 1.15335,-0.736346 l 4.18068,-3.886164 q 0.0762,-0.583346 0.004,-0.851587 -0.0638,-0.258761 -0.33699,-0.552641 l 0.18012,-0.167431 1.50688,1.621077 -1.16719,7.888446 3.16631,-2.943263 q 0.77736,-0.722598 0.82049,-1.151462 0.0405,-0.355695 -0.45302,-0.886574 l 0.18012,-0.167431 z"
         style="font-style:normal;font-variant:normal;font-weight:500;font-stretch:normal;font-size:13.25375462px;font-family:aakar;-inkscape-font-specification:'aakar, Medium';font-variant-ligatures:normal;font-variant-caps:normal;font-variant-numeric:normal;font-feature-settings:normal;text-align:start;letter-spacing:3.34962487px;writing-mode:lr-tb;text-anchor:start;stroke-width:0.26458332"
         id="path1029"
         inkscape:connector-curvature="0" />
    </g>
    <g
       aria-label="WITH INKSCAPE"
       style="font-style:normal;font-variant:normal;font-weight:500;font-stretch:normal;font-size:13.25375462px;line-height:1.25;font-family:aakar;-inkscape-font-specification:'aakar, Medium';font-variant-ligatures:normal;font-variant-caps:normal;font-variant-numeric:normal;font-feature-settings:normal;text-align:start;letter-spacing:5.01914549px;word-spacing:0px;writing-mode:lr-tb;text-anchor:start;fill:#000000;fill-opacity:1;stroke:none;stroke-width:0.26458332"
       id="text1004"
       transform="translate(-0.2982089,22.547006)">
      <path
         d="m 48.714954,165.4236 -0.195882,0.14868 q -0.351397,-0.3345 -0.610628,-0.39772 -0.241096,-0.0607 -0.636463,0.0606 -1.186101,0.36406 -2.545353,0.77831 -1.76493,0.54344 -2.635656,0.83062 -1.402975,0.46368 -2.560259,0.88712 l -0.117381,-0.15464 q 0.395242,-0.59249 0.982764,-1.50968 0.413004,-0.65472 1.149082,-1.84716 0.248796,-0.40009 0.97705,-1.60283 l -5.566067,1.72246 -0.117381,-0.15465 q 0.877929,-1.28385 2.178799,-3.29498 1.090455,-1.68891 1.847152,-2.897 0.356488,-0.57933 0.499704,-0.88302 0.276122,-0.59958 -0.0995,-1.09444 l 0.195882,-0.14868 1.91722,2.52585 -0.195882,0.14868 q -0.508651,-0.67012 -0.859177,-0.40406 -0.113405,0.0861 -0.180231,0.1693 -0.06683,0.0832 -0.187311,0.28842 l -2.749551,4.42693 3.744621,-1.10363 0.587149,-0.9819 q 0.430766,-0.71695 0.444553,-1.01991 0.01379,-0.30295 -0.307054,-0.72564 l 0.195882,-0.14869 2.089378,2.75267 -0.195882,0.14868 q -0.266063,-0.35053 -0.442817,-0.47635 -0.304072,-0.20794 -0.551502,-0.0201 -0.09279,0.0704 -0.267304,0.33289 -0.156383,0.26495 -0.325559,0.55585 l -2.48262,4.02933 4.473125,-1.36411 q 0.230041,-0.0609 0.467534,-0.17613 0.245319,-0.10496 0.399963,-0.22235 0.268049,-0.20346 0.230288,-0.46728 -0.02994,-0.25352 -0.295999,-0.60404 l 0.195883,-0.14869 z"
         style="font-style:normal;font-variant:normal;font-weight:500;font-stretch:normal;font-size:13.25375462px;font-family:aakar;-inkscape-font-specification:'aakar, Medium';font-variant-ligatures:normal;font-variant-caps:normal;font-variant-numeric:normal;font-feature-settings:normal;text-align:start;letter-spacing:5.01914549px;writing-mode:lr-tb;text-anchor:start;stroke-width:0.26458332"
         id="path1037"
         inkscape:connector-curvature="0" />
      <path
         d="m 45.742554,174.42803 0.169445,-0.17823 q 0.581582,0.55293 0.892656,0.54507 0.329373,-0.008 0.819871,-0.52424 l 3.959656,-4.16488 q 0.508334,-0.53468 0.482178,-0.84529 -0.0079,-0.31107 -0.589439,-0.864 l 0.169444,-0.17823 2.785966,2.64869 -0.169445,0.17823 q -0.544061,-0.51725 -0.883276,-0.53615 -0.330298,-0.0283 -0.838632,0.5064 l -3.959656,4.16488 q -0.499416,0.5253 -0.463417,0.86313 0.036,0.33783 0.580059,0.85508 l -0.169445,0.17823 z"
         style="font-style:normal;font-variant:normal;font-weight:500;font-stretch:normal;font-size:13.25375462px;font-family:aakar;-inkscape-font-specification:'aakar, Medium';font-variant-ligatures:normal;font-variant-caps:normal;font-variant-numeric:normal;font-feature-settings:normal;text-align:start;letter-spacing:5.01914549px;writing-mode:lr-tb;text-anchor:start;stroke-width:0.26458332"
         id="path1039"
         inkscape:connector-curvature="0" />
      <path
         d="m 57.389364,183.76471 -0.143662,0.19959 -3.067436,-2.20785 0.143662,-0.1996 q 0.672314,0.48392 1.017243,0.38135 0.265104,-0.0803 0.733895,-0.7316 l 3.780576,-5.25246 -0.567266,-0.4083 q -0.871908,-0.62757 -1.368523,-0.60229 -0.489055,0.0148 -1.269586,0.7447 l -0.189089,-0.1361 1.285396,-1.78584 5.924774,4.26449 -1.285395,1.78584 -0.189089,-0.1361 q 0.45488,-0.96432 0.313639,-1.43277 -0.13368,-0.47895 -1.016094,-1.11409 l -0.567265,-0.4083 -3.863749,5.36801 q -0.400741,0.55677 -0.365819,0.8849 0.05299,0.32519 0.693788,0.78642 z"
         style="font-style:normal;font-variant:normal;font-weight:500;font-stretch:normal;font-size:13.25375462px;font-family:aakar;-inkscape-font-specification:'aakar, Medium';font-variant-ligatures:normal;font-variant-caps:normal;font-variant-numeric:normal;font-feature-settings:normal;text-align:start;letter-spacing:5.01914549px;writing-mode:lr-tb;text-anchor:start;stroke-width:0.26458332"
         id="path1041"
         inkscape:connector-curvature="0" />
      <path
         d="m 63.432754,187.92285 0.108622,-0.22063 q 0.685114,0.3373 0.99668,0.1733 0.253862,-0.1347 0.602596,-0.84303 l 2.475437,-5.02804 q 0.320149,-0.65028 0.231543,-0.93916 -0.08861,-0.28888 -0.738883,-0.60902 l 0.108622,-0.22063 3.228164,1.58931 -0.108622,0.22063 q -0.638665,-0.31444 -0.938976,-0.20261 -0.282982,0.10594 -0.597414,0.7446 l -1.109087,2.25275 3.518467,1.73224 1.109087,-2.25275 q 0.320149,-0.65028 0.231543,-0.93916 -0.08861,-0.28887 -0.738883,-0.60902 l 0.108622,-0.22063 3.228164,1.58931 -0.108622,0.22063 q -0.638665,-0.31443 -0.938976,-0.2026 -0.282982,0.10593 -0.597414,0.7446 l -2.538323,5.15577 q -0.302998,0.61544 -0.237439,0.92182 0.08289,0.30049 0.744779,0.62636 l -0.108622,0.22063 -3.228164,-1.58931 0.108622,-0.22063 q 0.685114,0.3373 0.99668,0.1733 0.253862,-0.13469 0.602596,-0.84303 l 1.114804,-2.26436 -3.518466,-1.73224 -1.177691,2.3921 q -0.302998,0.61544 -0.237439,0.92182 0.08289,0.30049 0.744779,0.62636 l -0.108622,0.22063 z"
         style="font-style:normal;font-variant:normal;font-weight:500;font-stretch:normal;font-size:13.25375462px;font-family:aakar;-inkscape-font-specification:'aakar, Medium';font-variant-ligatures:normal;font-variant-caps:normal;font-variant-numeric:normal;font-feature-settings:normal;text-align:start;letter-spacing:5.01914549px;writing-mode:lr-tb;text-anchor:start;stroke-width:0.26458332"
         id="path1043"
         inkscape:connector-curvature="0" />
      <path
         d="m 87.745141,196.80214 0.0425,-0.24222 q 0.790398,0.13868 1.045148,-0.04 0.269734,-0.18921 0.392762,-0.89037 l 0.993176,-5.66027 q 0.127502,-0.72666 -0.06618,-0.9709 -0.178695,-0.25474 -0.969093,-0.39343 l 0.0425,-0.24222 3.786263,0.66435 -0.0425,0.24222 q -0.739405,-0.12974 -1.032399,0.0422 -0.290757,0.15923 -0.41826,0.88589 l -0.993175,5.66027 q -0.125265,0.71391 0.09167,0.97537 0.21694,0.26146 0.956345,0.3912 l -0.0425,0.24222 z"
         style="font-style:normal;font-variant:normal;font-weight:500;font-stretch:normal;font-size:13.25375462px;font-family:aakar;-inkscape-font-specification:'aakar, Medium';font-variant-ligatures:normal;font-variant-caps:normal;font-variant-numeric:normal;font-feature-settings:normal;text-align:start;letter-spacing:5.01914549px;writing-mode:lr-tb;text-anchor:start;stroke-width:0.26458332"
         id="path1045"
         inkscape:connector-curvature="0" />
      <path
         d="m 106.16313,189.91483 -0.007,0.24581 q -0.72684,0.0556 -0.92721,0.25663 -0.32034,0.31397 -0.35226,1.36188 l -0.2073,6.80492 -0.21993,-0.007 -5.476364,-7.26294 -0.153699,5.04548 q -0.03034,0.99615 0.192276,1.33961 0.223016,0.33052 0.947495,0.35259 l -0.0075,0.24581 -3.040223,-0.0926 0.0075,-0.24581 q 0.76329,0.0233 1.018553,-0.27975 0.255264,-0.303 0.286792,-1.33797 l 0.173798,-5.70527 q -0.361383,-0.46423 -0.603248,-0.60109 -0.228927,-0.13646 -0.629977,-0.14868 l 0.0075,-0.24581 2.212248,0.0674 4.791229,6.37449 0.13163,-4.321 q 0.0323,-1.06084 -0.24245,-1.39294 -0.22459,-0.27878 -0.94907,-0.30085 l 0.007,-0.2458 z"
         style="font-style:normal;font-variant:normal;font-weight:500;font-stretch:normal;font-size:13.25375462px;font-family:aakar;-inkscape-font-specification:'aakar, Medium';font-variant-ligatures:normal;font-variant-caps:normal;font-variant-numeric:normal;font-feature-settings:normal;text-align:start;letter-spacing:5.01914549px;writing-mode:lr-tb;text-anchor:start;stroke-width:0.26458332"
         id="path1047"
         inkscape:connector-curvature="0" />
      <path
         d="m 115.21933,189.1969 -0.0353,-0.24337 3.35593,-0.48712 0.0353,0.24337 q -0.61482,0.0892 -0.91088,0.30224 -0.29791,0.20019 -0.89105,0.97946 l -2.08416,2.76132 3.44928,2.76902 q 1.45606,1.20116 2.21179,1.09147 l 0.0353,0.24337 -3.90671,0.56706 -0.0353,-0.24337 q 0.48674,-0.0707 0.57455,-0.0965 0.31278,-0.0977 0.2756,-0.35389 -0.0465,-0.32022 -1.13585,-1.24764 -0.34294,-0.29027 -0.84166,-0.66256 l -1.55296,-1.14785 -0.29398,0.31732 0.34767,2.39527 q 0.10225,0.70448 0.34066,0.9053 0.23655,0.188 0.97947,0.0802 l 0.0353,0.24337 -3.6121,0.52429 -0.0353,-0.24337 q 0.74292,-0.10783 0.91253,-0.38095 0.16962,-0.27311 0.0525,-1.08007 l -0.80504,-5.54625 q -0.10597,-0.73011 -0.36628,-0.90159 -0.26217,-0.18428 -0.95385,-0.0839 l -0.0353,-0.24337 3.63772,-0.52802 0.0353,0.24337 q -0.74292,0.10784 -0.92906,0.35719 -0.18615,0.24936 -0.082,0.96666 l 0.38114,2.62582 q 1.9478,-2.34917 2.35294,-2.89189 0.46897,-0.64353 0.42249,-0.96375 -0.0353,-0.24337 -0.23861,-0.29234 -0.20329,-0.049 -0.69003,0.0217 z"
         style="font-style:normal;font-variant:normal;font-weight:500;font-stretch:normal;font-size:13.25375462px;font-family:aakar;-inkscape-font-specification:'aakar, Medium';font-variant-ligatures:normal;font-variant-caps:normal;font-variant-numeric:normal;font-feature-settings:normal;text-align:start;letter-spacing:5.01914549px;writing-mode:lr-tb;text-anchor:start;stroke-width:0.26458332"
         id="path1049"
         inkscape:connector-curvature="0" />
      <path
         d="m 128.13293,185.562 1.10356,2.54238 -0.30849,0.0977 q -0.4423,-0.79674 -1.19743,-1.20934 -0.85652,-0.47553 -1.76964,-0.18645 -0.50592,0.16017 -0.77844,0.58585 -0.27643,0.41334 -0.10455,0.95628 0.2383,0.75271 1.52217,1.12011 1.18639,0.31679 2.38512,0.62968 1.33918,0.49922 1.67905,1.57276 0.27736,0.8761 -0.15272,1.70465 -0.49755,0.95852 -1.74384,1.35307 -0.54294,0.17189 -1.23866,0.16135 -0.69573,-0.0105 -0.80679,0.0246 -0.18509,0.0586 -0.24474,0.21324 -0.0597,0.15465 -0.009,0.31506 l -0.27147,0.0859 -1.19836,-2.49878 0.28381,-0.0898 q 0.61115,0.72971 1.14212,1.07751 1.00539,0.64562 2.07893,0.30575 0.70335,-0.22267 0.95696,-0.75097 0.26205,-0.54455 0.0902,-1.08749 -0.1797,-0.56762 -0.62163,-0.84858 -0.55955,-0.35232 -2.08116,-0.69876 -1.19545,-0.25962 -1.69455,-0.54963 -0.73045,-0.42041 -0.99609,-1.2595 -0.31643,-0.9995 0.19098,-1.79822 0.4529,-0.71358 1.37837,-1.00657 0.38252,-0.1211 0.85738,-0.12209 0.47485,-0.001 0.99063,-0.001 0.22211,-0.0703 0.28238,-0.26589 0.0428,-0.12215 0.0167,-0.29038 z"
         style="font-style:normal;font-variant:normal;font-weight:500;font-stretch:normal;font-size:13.25375462px;font-family:aakar;-inkscape-font-specification:'aakar, Medium';font-variant-ligatures:normal;font-variant-caps:normal;font-variant-numeric:normal;font-feature-settings:normal;text-align:start;letter-spacing:5.01914549px;writing-mode:lr-tb;text-anchor:start;stroke-width:0.26458332"
         id="path1051"
         inkscape:connector-curvature="0" />
      <path
         d="m 141.25805,182.87681 -0.16203,0.0811 q -0.71829,-0.85622 -1.60985,-1.10456 -0.97841,-0.27722 -2.00841,0.2386 -0.45135,0.22603 -0.82154,0.64302 -0.37598,0.40543 -0.56087,0.93228 -0.21378,0.6137 -0.16705,1.28512 0.0642,0.90873 0.63222,2.04288 0.86355,1.72438 2.19518,2.21555 1.16952,0.42759 2.37311,-0.17515 0.70596,-0.35354 1.1976,-0.93269 0.49742,-0.59651 0.83254,-1.54601 l 0.31264,0.10399 q -0.0751,0.28368 -0.14436,0.54999 -0.24269,0.6716 -0.67647,1.22176 -0.61885,0.78761 -1.57941,1.26865 -1.57393,0.78821 -3.08493,0.40135 -1.77731,-0.45615 -2.77996,-2.45829 -0.92731,-1.85168 -0.26852,-3.57123 0.60676,-1.59218 2.20384,-2.39198 0.50921,-0.25501 1.08795,-0.40009 0.56719,-0.11033 1.14016,-0.23804 0.19674,-0.0985 0.28925,-0.26066 0.10408,-0.16793 0.0519,-0.38785 l 0.24303,-0.12171 z"
         style="font-style:normal;font-variant:normal;font-weight:500;font-stretch:normal;font-size:13.25375462px;font-family:aakar;-inkscape-font-specification:'aakar, Medium';font-variant-ligatures:normal;font-variant-caps:normal;font-variant-numeric:normal;font-feature-settings:normal;text-align:start;letter-spacing:5.01914549px;writing-mode:lr-tb;text-anchor:start;stroke-width:0.26458332"
         id="path1053"
         inkscape:connector-curvature="0" />
      <path
         d="m 156.06767,179.56441 0.14536,0.19836 -2.66218,1.95092 -0.14536,-0.19836 q 0.37584,-0.27542 0.4733,-0.42708 0.15804,-0.24418 -0.0332,-0.50518 -0.0689,-0.094 -0.23582,-0.2123 -0.15652,-0.126 -0.44453,-0.30005 l -1.1625,-0.68856 -2.73526,2.00448 0.41489,1.5734 q 0.0771,0.28044 0.20721,0.45792 0.20657,0.28188 0.55451,0.18736 0.17397,-0.0473 0.47673,-0.26913 l 0.14536,0.19836 -2.0671,1.51483 -0.14536,-0.19836 q 0.18792,-0.13771 0.25685,-0.28451 0.0794,-0.15445 0.10727,-0.33535 0.0342,-0.2818 -0.0929,-0.95888 -0.066,-0.35281 -0.23135,-1.08209 l -1.58497,-6.71733 0.2088,-0.15301 6.94511,4.02485 q 0.68943,0.39337 0.96844,0.44565 0.2818,0.0342 0.63676,-0.22594 z m -6.93642,1.26413 2.41162,-1.7673 -3.31496,-1.9835 z"
         style="font-style:normal;font-variant:normal;font-weight:500;font-stretch:normal;font-size:13.25375462px;font-family:aakar;-inkscape-font-specification:'aakar, Medium';font-variant-ligatures:normal;font-variant-caps:normal;font-variant-numeric:normal;font-feature-settings:normal;text-align:start;letter-spacing:5.01914549px;writing-mode:lr-tb;text-anchor:start;stroke-width:0.26458332"
         id="path1055"
         inkscape:connector-curvature="0" />
      <path
         d="m 154.34394,170.30253 -0.17531,-0.17245 2.39625,-2.43593 q 1.02567,-1.04265 2.04857,-1.30732 1.15073,-0.30232 1.99039,0.52366 0.47058,0.46291 0.62182,1.04743 0.0758,0.31056 0.0701,0.74077 -0.0135,0.58587 -0.33816,1.17429 -0.31558,0.5792 -1.04172,1.31736 l -0.60814,0.61821 1.65163,1.62473 q 0.50749,0.49922 0.83696,0.49652 0.32931,-0.021 0.84669,-0.54695 l 0.17531,0.17246 -2.54148,2.58356 -0.17532,-0.17246 q 0.52645,-0.53517 0.45038,-0.88234 -0.057,-0.2558 -0.61986,-0.80948 l -3.99529,-3.93022 q -0.49826,-0.49014 -0.79142,-0.52434 -0.29316,-0.0342 -0.80145,0.4825 z m 2.16807,-1.24423 2.4267,2.38718 0.54461,-0.55362 q 0.40845,-0.41521 0.57078,-0.70943 0.65839,-1.18607 -0.42117,-2.24805 -0.65511,-0.64444 -1.4322,-0.53739 -0.77708,0.10706 -1.63029,0.9744 -0.23599,0.2399 -0.26247,0.3591 -0.0174,0.10997 0.20404,0.32781 z"
         style="font-style:normal;font-variant:normal;font-weight:500;font-stretch:normal;font-size:13.25375462px;font-family:aakar;-inkscape-font-specification:'aakar, Medium';font-variant-ligatures:normal;font-variant-caps:normal;font-variant-numeric:normal;font-feature-settings:normal;text-align:start;letter-spacing:5.01914549px;writing-mode:lr-tb;text-anchor:start;stroke-width:0.26458332"
         id="path1057"
         inkscape:connector-curvature="0" />
      <path
         d="m 171.17554,159.77811 1.43595,1.74983 -4.08018,5.67471 -0.19966,-0.14357 q 0.37779,-0.52543 0.33515,-0.84304 -0.0456,-0.33567 -0.62357,-0.75124 l -4.66587,-3.35482 q -0.599,-0.43068 -0.90314,-0.36242 -0.31465,0.0607 -0.7,0.59665 l -0.19967,-0.14356 4.01218,-5.58012 1.50274,1.08049 -0.16623,0.23119 q -0.77669,-0.38309 -1.19547,-0.2219 -0.42174,0.14312 -1.05644,1.02585 l -1.02004,1.41868 q -0.14356,0.19967 -0.1334,0.31856 -3.5e-4,0.11134 0.24135,0.28513 l 2.33293,1.6774 1.16361,-1.61834 q 0.48358,-0.67255 0.43042,-0.99772 -0.0561,-0.34322 -0.5976,-0.87604 l 0.17378,-0.2417 2.43802,1.75296 -0.17378,0.2417 q -0.69853,-0.35877 -1.02829,-0.27705 -0.33272,0.0637 -0.80119,0.7152 l -1.1636,1.61834 2.58514,1.85875 q 0.32577,0.23423 0.53238,0.0799 0.20367,-0.17239 1.03481,-1.32835 0.71781,-0.99833 0.77409,-1.67523 0.0563,-0.6769 -0.49599,-1.616 z"
         style="font-style:normal;font-variant:normal;font-weight:500;font-stretch:normal;font-size:13.25375462px;font-family:aakar;-inkscape-font-specification:'aakar, Medium';font-variant-ligatures:normal;font-variant-caps:normal;font-variant-numeric:normal;font-feature-settings:normal;text-align:start;letter-spacing:5.01914549px;writing-mode:lr-tb;text-anchor:start;stroke-width:0.26458332"
         id="path1059"
         inkscape:connector-curvature="0" />
    </g>
    <path
       style="color:#000000;font-style:normal;font-variant:normal;font-weight:normal;font-stretch:normal;font-size:medium;line-height:normal;font-family:sans-serif;font-variant-ligatures:normal;font-variant-position:normal;font-variant-caps:normal;font-variant-numeric:normal;font-variant-alternates:normal;font-feature-settings:normal;text-indent:0;text-align:start;text-decoration:none;text-decoration-line:none;text-decoration-style:solid;text-decoration-color:#000000;letter-spacing:normal;word-spacing:normal;text-transform:none;writing-mode:lr-tb;direction:ltr;text-orientation:mixed;dominant-baseline:auto;baseline-shift:baseline;text-anchor:start;white-space:normal;shape-padding:0;clip-rule:nonzero;display:inline;overflow:visible;visibility:visible;opacity:1;isolation:auto;mix-blend-mode:normal;color-interpolation:sRGB;color-interpolation-filters:linearRGB;solid-color:#000000;solid-opacity:1;vector-effect:none;fill:none;fill-opacity:1;fill-rule:nonzero;stroke:#000000;stroke-width:5.66929141;stroke-linecap:round;stroke-linejoin:bevel;stroke-miterlimit:4;stroke-dasharray:none;stroke-dashoffset:0;stroke-opacity:1;color-rendering:auto;image-rendering:auto;shape-rendering:auto;text-rendering:auto;enable-background:accumulate"
       d="M 642.99661 608.7957 C 665.26764 542.91359 661.54623 468.89322 628.26653 403.50792 "
       id="path1183"
       transform="scale(0.26458333)" />
    <path
       style="color:#000000;font-style:normal;font-variant:normal;font-weight:normal;font-stretch:normal;font-size:medium;line-height:normal;font-family:sans-serif;font-variant-ligatures:normal;font-variant-position:normal;font-variant-caps:normal;font-variant-numeric:normal;font-variant-alternates:normal;font-feature-settings:normal;text-indent:0;text-align:start;text-decoration:none;text-decoration-line:none;text-decoration-style:solid;text-decoration-color:#000000;letter-spacing:normal;word-spacing:normal;text-transform:none;writing-mode:lr-tb;direction:ltr;text-orientation:mixed;dominant-baseline:auto;baseline-shift:baseline;text-anchor:start;white-space:normal;shape-padding:0;clip-rule:nonzero;display:inline;overflow:visible;visibility:visible;opacity:1;isolation:auto;mix-blend-mode:normal;color-interpolation:sRGB;color-interpolation-filters:linearRGB;solid-color:#000000;solid-opacity:1;vector-effect:none;fill:none;fill-opacity:1;fill-rule:nonzero;stroke:#000000;stroke-width:5.66929141;stroke-linecap:round;stroke-linejoin:bevel;stroke-miterlimit:4;stroke-dasharray:none;stroke-dashoffset:0;stroke-opacity:1;color-rendering:auto;image-rendering:auto;shape-rendering:auto;text-rendering:auto;enable-background:accumulate"
       d="M 153.17411 406.19456 C 123.05732 467.39462 117.14088 539.01921 138.73894 605.46648 "
       id="path1179"
       transform="scale(0.26458333)" />
  </g>
</svg>
