<?xml version="1.0" encoding="UTF-8" standalone="no"?>
<!-- Created with Inkscape (http://www.inkscape.org/) -->

<svg
   xmlns:dc="http://purl.org/dc/elements/1.1/"
   xmlns:cc="http://creativecommons.org/ns#"
   xmlns:rdf="http://www.w3.org/1999/02/22-rdf-syntax-ns#"
   xmlns:svg="http://www.w3.org/2000/svg"
   xmlns="http://www.w3.org/2000/svg"
   xmlns:sodipodi="http://sodipodi.sourceforge.net/DTD/sodipodi-0.dtd"
   xmlns:inkscape="http://www.inkscape.org/namespaces/inkscape"
   width="210mm"
   height="297mm"
   viewBox="0 0 210 297"
   version="1.1"
   id="svg8"
   inkscape:version="0.92.3 (2405546, 2018-03-11)"
   sodipodi:docname="10 - Water Drop Icon.svg">
  <defs
     id="defs2" />
  <sodipodi:namedview
     id="base"
     pagecolor="#ffffff"
     bordercolor="#666666"
     borderopacity="1.0"
     inkscape:pageopacity="0.0"
     inkscape:pageshadow="2"
     inkscape:zoom="0.6440867"
     inkscape:cx="396.85039"
     inkscape:cy="561.25984"
     inkscape:document-units="mm"
     inkscape:current-layer="layer1"
     showgrid="false"
     showguides="true"
     inkscape:guide-bbox="true"
     inkscape:snap-global="false"
     inkscape:window-width="956"
     inkscape:window-height="1015"
     inkscape:window-x="960"
     inkscape:window-y="0"
     inkscape:window-maximized="0" />
  <metadata
     id="metadata5">
    <rdf:RDF>
      <cc:Work
         rdf:about="">
        <dc:format>image/svg+xml</dc:format>
        <dc:type
           rdf:resource="http://purl.org/dc/dcmitype/StillImage" />
        <dc:title></dc:title>
      </cc:Work>
    </rdf:RDF>
  </metadata>
  <g
     inkscape:label="Ebene 1"
     inkscape:groupmode="layer"
     id="layer1">
    <path
       transform="rotate(-45)"
       style="opacity:1;fill:#0066ff;fill-opacity:1;stroke:none;stroke-width:3.5;stroke-linecap:round;stroke-linejoin:round;stroke-miterlimit:4;stroke-dasharray:none;stroke-opacity:1"
       d="m -76.281829,153.04279 c 20.448147,-37.26988 118.897331,-46.12988 118.897331,-46.12988 0,0 -8.898391,98.5731 -46.2305374,118.99797 -18.0645946,9.88336 -46.2449446,2.12688 -60.5554306,-12.212 -14.310485,-14.33889 -22.028739,-42.58014 -12.111363,-60.65609 z"
       id="rect815"
       inkscape:connector-curvature="0"
       sodipodi:nodetypes="acaza" />
    <path
       sodipodi:nodetypes="acaza"
       inkscape:connector-curvature="0"
       id="path824"
       d="M 58.211505,156.74994 C 47.225896,119.05657 105.73305,48.977184 105.73305,48.977184 c 0,0 58.56301,70.185386 47.52154,107.904206 -5.34284,18.25171 -28.81177,31.58973 -47.52154,31.57119 -18.709772,-0.0185 -42.193503,-13.42131 -47.521545,-31.70264 z"
       style="opacity:1;fill:#00ccff;fill-opacity:1;stroke:none;stroke-width:3.23248434;stroke-linecap:round;stroke-linejoin:round;stroke-miterlimit:4;stroke-dasharray:none;stroke-opacity:1" />
    <path
       style="opacity:1;fill:#80e5ff;fill-opacity:1;stroke:none;stroke-width:2.32804275;stroke-linecap:round;stroke-linejoin:round;stroke-miterlimit:4;stroke-dasharray:none;stroke-opacity:1"
       d="M 71.509606,126.59537 C 63.597745,99.448521 105.73473,48.977184 105.73473,48.977184 c 0,0 42.17722,50.547679 34.22513,77.712856 -3.84793,13.14493 -20.75031,22.751 -34.22513,22.73765 -13.474818,-0.0133 -30.387856,-9.66606 -34.225124,-22.83232 z"
       id="path828"
       inkscape:connector-curvature="0"
       sodipodi:nodetypes="acaza" />
    <path
       sodipodi:nodetypes="acaza"
       inkscape:connector-curvature="0"
       id="path830"
       d="M 86.627448,92.314392 C 82.209952,77.157266 105.73665,48.977184 105.73665,48.977184 c 0,0 23.54915,28.222706 19.1092,43.390066 -2.14845,7.339318 -11.5857,12.70275 -19.1092,12.6953 -7.523511,-0.007 -16.966709,-5.396931 -19.109202,-12.748158 z"
       style="opacity:1;fill:#aaeeff;fill-opacity:1;stroke:none;stroke-width:1.29983544;stroke-linecap:round;stroke-linejoin:round;stroke-miterlimit:4;stroke-dasharray:none;stroke-opacity:1" />
    <path
       style="opacity:1;fill:#ffffff;fill-opacity:1;stroke:none;stroke-width:11.71350479;stroke-linecap:round;stroke-linejoin:round;stroke-miterlimit:4;stroke-dasharray:none;stroke-opacity:1"
       d="M 399.62109 185.11133 C 399.62109 185.11133 398.76604 186.14125 397.375 187.8457 C 398.83689 186.05204 399.62238 185.11408 399.62305 185.11328 C 399.62305 185.11328 399.62109 185.11133 399.62109 185.11133 z M 397.375 187.8457 C 375.27949 214.91963 189.96731 447.14536 227.41797 575.64453 C 246.72511 641.89031 331.82276 690.45849 399.62109 690.52539 C 467.41939 690.59259 552.46344 642.25954 571.82422 576.12109 C 607.01013 455.92227 447.26164 244.90592 408.19141 195.7207 C 446.1708 243.6299 596.01517 442.35075 562.83398 555.70117 C 544.48426 618.38569 463.88076 664.19454 399.62305 664.13086 C 335.36531 664.06736 254.71099 618.03627 236.41211 555.25 C 201.04071 433.88507 375.43727 214.76212 397.375 187.8457 z M 408.19141 195.7207 C 405.49623 192.32777 403.34019 189.64897 401.89844 187.88086 C 403.36186 189.6776 405.48941 192.31227 408.19141 195.7207 z "
       id="path832"
       transform="scale(0.26458333)" />
    <path
       style="opacity:1;fill:#ffffff;fill-opacity:1;stroke:none;stroke-width:8.43907452;stroke-linecap:round;stroke-linejoin:round;stroke-miterlimit:4;stroke-dasharray:none;stroke-opacity:1"
       d="M 525.80859 419.69141 C 524.99672 425.1988 523.84639 430.55761 522.32812 435.74414 C 505.54493 493.07739 439.00984 536.92196 377.60938 547.03125 C 385.08955 548.4602 392.49401 549.23317 399.62891 549.24023 C 448.47465 549.28861 509.74475 514.46635 523.69336 466.81641 C 527.85305 452.6065 528.21136 436.62603 525.80859 419.69141 z "
       transform="scale(0.26458333)"
       id="path837" />
    <g
       id="g851"
       transform="rotate(-15,119.0944,100.64314)">
      <ellipse
         ry="7.188796"
         rx="5.306016"
         cy="115.63692"
         cx="119.0944"
         id="path842"
         style="opacity:1;fill:#ffffff;fill-opacity:1;stroke:none;stroke-width:2.91666675;stroke-linecap:round;stroke-linejoin:round;stroke-miterlimit:4;stroke-dasharray:none;stroke-opacity:1" />
      <ellipse
         style="opacity:1;fill:#ffffff;fill-opacity:1;stroke:none;stroke-width:1.91666663;stroke-linecap:round;stroke-linejoin:round;stroke-miterlimit:4;stroke-dasharray:none;stroke-opacity:1"
         id="ellipse844"
         cx="119.0944"
         cy="96.740646"
         rx="3.4868104"
         ry="4.7240658" />
      <ellipse
         ry="3.2863064"
         rx="2.4256072"
         cy="81.746864"
         cx="119.0944"
         id="ellipse846"
         style="opacity:1;fill:#ffffff;fill-opacity:1;stroke:none;stroke-width:1.33333325;stroke-linecap:round;stroke-linejoin:round;stroke-miterlimit:4;stroke-dasharray:none;stroke-opacity:1" />
    </g>
  </g>
</svg>
