<?xml version="1.0" encoding="UTF-8" standalone="no"?>
<!-- Created with Inkscape (http://www.inkscape.org/) -->

<svg
   xmlns:dc="http://purl.org/dc/elements/1.1/"
   xmlns:cc="http://creativecommons.org/ns#"
   xmlns:rdf="http://www.w3.org/1999/02/22-rdf-syntax-ns#"
   xmlns:svg="http://www.w3.org/2000/svg"
   xmlns="http://www.w3.org/2000/svg"
   xmlns:sodipodi="http://sodipodi.sourceforge.net/DTD/sodipodi-0.dtd"
   xmlns:inkscape="http://www.inkscape.org/namespaces/inkscape"
   width="210mm"
   height="297mm"
   viewBox="0 0 210 297"
   version="1.1"
   id="svg8"
   inkscape:version="0.92.3 (2405546, 2018-03-11)"
   sodipodi:docname="15 - Battery Icon.svg">
  <defs
     id="defs2" />
  <sodipodi:namedview
     id="base"
     pagecolor="#ffffff"
     bordercolor="#666666"
     borderopacity="1.0"
     inkscape:pageopacity="0.0"
     inkscape:pageshadow="2"
     inkscape:zoom="0.54176587"
     inkscape:cx="310.01169"
     inkscape:cy="935.13475"
     inkscape:document-units="mm"
     inkscape:current-layer="layer1"
     showgrid="false"
     inkscape:object-paths="false"
     inkscape:window-width="956"
     inkscape:window-height="1015"
     inkscape:window-x="960"
     inkscape:window-y="0"
     inkscape:window-maximized="0" />
  <metadata
     id="metadata5">
    <rdf:RDF>
      <cc:Work
         rdf:about="">
        <dc:format>image/svg+xml</dc:format>
        <dc:type
           rdf:resource="http://purl.org/dc/dcmitype/StillImage" />
        <dc:title></dc:title>
      </cc:Work>
    </rdf:RDF>
  </metadata>
  <g
     inkscape:label="Ebene 1"
     inkscape:groupmode="layer"
     id="layer1">
    <path
       style="color:#000000;font-style:normal;font-variant:normal;font-weight:normal;font-stretch:normal;font-size:medium;line-height:normal;font-family:sans-serif;font-variant-ligatures:normal;font-variant-position:normal;font-variant-caps:normal;font-variant-numeric:normal;font-variant-alternates:normal;font-feature-settings:normal;text-indent:0;text-align:start;text-decoration:none;text-decoration-line:none;text-decoration-style:solid;text-decoration-color:#000000;letter-spacing:normal;word-spacing:normal;text-transform:none;writing-mode:lr-tb;direction:ltr;text-orientation:mixed;dominant-baseline:auto;baseline-shift:baseline;text-anchor:start;white-space:normal;shape-padding:0;clip-rule:nonzero;display:inline;overflow:visible;visibility:visible;opacity:0.55807363;isolation:auto;mix-blend-mode:normal;color-interpolation:sRGB;color-interpolation-filters:linearRGB;solid-color:#000000;solid-opacity:1;vector-effect:none;fill:#333333;fill-opacity:1;fill-rule:nonzero;stroke:none;stroke-width:56.69291306;stroke-linecap:round;stroke-linejoin:round;stroke-miterlimit:4;stroke-dasharray:none;stroke-dashoffset:0;stroke-opacity:1;color-rendering:auto;image-rendering:auto;shape-rendering:auto;text-rendering:auto;enable-background:accumulate"
       d="M 275.01953 117.73828 C 248.63181 117.75113 224.23179 121.44099 204.39258 128.17578 C 185.42491 134.61471 169.01612 142.99842 161.69922 159.79688 C 160.7275 161.53934 160.07637 163.44149 159.77734 165.41406 C 159.10945 167.9082 158.62118 170.4705 158.56445 173.0918 C 158.55916 173.33399 158.55916 173.57617 158.56445 173.81836 C 158.57225 174.17319 158.60195 174.52435 158.625 174.87695 C 157.36231 175.28446 156.0876 175.68388 154.8457 176.10547 C 122.57304 187.06102 94.65446 201.32443 82.205078 229.90625 A 28.349291 28.349291 0 0 0 78.935547 239.46484 C 77.799149 243.7085 76.967615 248.06731 76.871094 252.52734 A 28.349291 28.349291 0 0 0 76.871094 253.76367 C 76.959535 257.79153 77.652273 261.73498 78.595703 265.59766 L 78.595703 700.28711 C 77.651679 704.15376 76.958352 708.1028 76.871094 712.13477 A 28.349291 28.349291 0 0 0 76.871094 713.37109 C 76.96955 717.85388 77.808694 722.23313 78.957031 726.49609 A 28.349291 28.349291 0 0 0 82.142578 735.92578 C 94.582734 764.55109 122.52167 778.82628 154.82422 789.78906 C 188.58729 801.24749 230.11109 807.52536 275.01562 807.54297 A 28.349291 28.349291 0 0 0 275.04102 807.54297 C 319.93769 807.52029 361.45171 801.24363 395.20703 789.78516 C 427.48284 778.82891 455.40259 764.56279 467.85156 735.97656 A 28.349291 28.349291 0 0 0 471.11719 726.43164 C 472.25486 722.18425 473.08575 717.82154 473.18164 713.35742 A 28.349291 28.349291 0 0 0 473.18164 712.12305 C 473.09282 708.09588 472.40044 704.15297 471.45703 700.29102 L 471.45703 265.60547 C 472.40169 261.73682 473.09467 257.786 473.18164 253.75195 A 28.349291 28.349291 0 0 0 473.18164 252.51758 C 473.08337 248.03417 472.24434 243.65416 471.0957 239.39062 A 28.349291 28.349291 0 0 0 467.91211 229.96875 C 455.47421 201.34059 427.53375 187.06313 395.23047 176.09961 C 393.98058 175.6754 392.69868 175.27323 391.42773 174.86328 C 391.45041 174.51281 391.48068 174.16318 391.48828 173.81055 C 391.49206 173.56873 391.49206 173.32773 391.48828 173.08594 C 391.43008 170.45089 390.93678 167.87691 390.26172 165.37109 C 389.96918 163.42941 389.33573 161.5532 388.39062 159.83203 C 381.0805 143.00635 364.6595 134.61547 345.67383 128.17188 C 325.83031 121.43711 301.42533 117.7488 275.0332 117.73828 L 275.01953 117.73828 z M 159.57812 204.48828 L 159.57812 225.83008 C 159.02328 228.10263 158.61574 230.42521 158.56445 232.79492 C 158.55916 233.03711 158.55916 233.2793 158.56445 233.52148 C 158.62251 236.15617 159.11613 238.7289 159.79102 241.23438 C 160.08336 243.17769 160.71607 245.05484 161.66211 246.77734 C 168.97359 263.60135 185.39366 271.99041 204.37891 278.43359 C 224.22253 285.16808 248.62769 288.85878 275.01953 288.86914 L 275.03516 288.86914 C 301.42236 288.85553 325.82108 285.16615 345.66016 278.43164 C 364.62968 271.99231 381.03879 263.60768 388.35547 246.80664 C 389.32548 245.06647 389.97617 243.16693 390.27539 241.19727 C 390.94403 238.70094 391.43193 236.13737 391.48828 233.51367 C 391.49206 233.27186 391.49206 233.02891 391.48828 232.78711 C 391.43612 230.42021 391.02907 228.10378 390.47461 225.83398 L 390.47461 204.52344 A 169.81504 66.449369 0 0 1 444.8418 253.14062 A 169.81504 66.449369 0 0 1 275.02734 319.58984 A 169.81504 66.449369 0 0 1 105.21094 253.14062 A 169.81504 66.449369 0 0 1 159.57812 204.48828 z M 106.94141 359.55859 L 107.15234 359.55859 C 107.08012 359.76139 107.00982 359.96294 106.94141 360.16602 L 106.94141 359.55859 z M 442.93945 359.55859 L 443.11133 359.55859 L 443.11133 360.17578 C 443.05577 359.96983 442.99879 359.76431 442.93945 359.55859 z M 106.94141 380.08008 C 118.32505 416.86698 190.11396 444.3241 275.02734 444.36719 C 359.93171 444.32463 431.71639 416.87401 443.11133 380.0918 L 443.11133 710.74805 C 444.19798 714.04406 444.77603 717.36927 444.8418 720.69922 C 444.7777 724.03431 444.19953 727.36295 443.11133 730.66406 L 443.11133 731.27148 L 442.90234 731.27148 C 430.88802 767.77764 359.39202 794.89177 275.02734 794.9375 C 190.64785 794.90057 119.12971 767.78403 107.11328 731.27148 L 106.94141 731.27148 L 106.94141 730.65039 C 105.85454 727.35362 105.27644 724.02997 105.21094 720.69922 C 105.23807 719.29867 105.3778 717.89883 105.58594 716.50195 C 105.87331 718.22555 106.31137 719.94569 106.94141 721.65625 L 106.94141 722.21094 L 107.11328 722.21094 C 115.57957 745.237 153.60235 764.07416 204.83008 773.21484 L 204.83008 738.68359 C 153.60226 730.36566 115.57958 713.22342 107.11328 692.26953 L 106.94141 692.26953 L 106.94141 603.15625 L 107.11328 603.15625 C 115.57957 626.18234 153.60235 645.01948 204.83008 654.16016 L 204.83008 619.62891 C 153.60226 611.31097 115.57958 594.16873 107.11328 573.21484 L 106.94141 573.21484 L 106.94141 484.10156 L 107.11328 484.10156 C 115.57957 507.12766 153.60235 525.96479 204.83008 535.10547 L 204.83008 500.57422 C 153.60226 492.25628 115.57958 475.11403 107.11328 454.16016 L 106.94141 454.16016 L 106.94141 390.04492 C 107.00982 389.86313 107.08012 389.68172 107.15234 389.5 C 107.08012 389.66517 107.00982 389.82882 106.94141 389.99414 L 106.94141 380.08008 z "
       transform="scale(0.26458333)"
       id="path878" />
  </g>
</svg>
