<?xml version="1.0" encoding="UTF-8" standalone="no"?>
<svg
   xmlns:dc="http://purl.org/dc/elements/1.1/"
   xmlns:cc="http://creativecommons.org/ns#"
   xmlns:rdf="http://www.w3.org/1999/02/22-rdf-syntax-ns#"
   xmlns:svg="http://www.w3.org/2000/svg"
   xmlns="http://www.w3.org/2000/svg"
   xmlns:sodipodi="http://sodipodi.sourceforge.net/DTD/sodipodi-0.dtd"
   xmlns:inkscape="http://www.inkscape.org/namespaces/inkscape"
   inkscape:version="1.0 (4035a4fb49, 2020-05-01)"
   version="1.1"
   viewBox="0 0 700 700"
   xml:space="preserve"
   sodipodi:docname="Gat3.svg"
   id="svg3228"><defs
   id="defs9"><inkscape:path-effect
     fuse_tolerance="0"
     hide_knot="false"
     vertical_pattern="false"
     prop_units="false"
     tang_offset="0"
     normal_offset="0"
     spacing="0"
     scale_y_rel="false"
     prop_scale="1"
     copytype="single_stretched"
     pattern="M 0,5 C 0,2.24 2.24,0 5,0 7.76,0 10,2.24 10,5 10,7.76 7.76,10 5,10 2.24,10 0,7.76 0,5 Z"
     lpeversion="1"
     is_visible="true"
     id="path-effect849"
     effect="skeletal" /></defs>
  <sodipodi:namedview
   inkscape:guide-bbox="true"
   showguides="true"
   inkscape:object-paths="true"
   inkscape:document-rotation="0"
   inkscape:window-height="703"
   inkscape:pageopacity="0"
   showgrid="false"
   inkscape:window-width="895"
   inkscape:window-x="471"
   inkscape:window-y="0"
   inkscape:cy="350"
   inkscape:cx="350"
   inkscape:current-layer="g3246"
   borderopacity="1"
   objecttolerance="10"
   inkscape:zoom="0.46428571"
   inkscape:window-maximized="0"
   gridtolerance="10"
   pagecolor="#ffffff"
   guidetolerance="10"
   inkscape:pageshadow="2"
   bordercolor="#666666"
   id="namedview3230" />
  <g
   transform="matrix(1.25 0 0 -1.25 0 700)"
   inkscape:groupmode="layer"
   inkscape:label="gats"
   id="g3236">
    <g
   style="fill:none;stroke:#000000"
   transform="matrix(-0.88815,0,0,0.88815,103.24361,214.39)"
   id="g3246">
      
    <path
   id="path869"
   d="m -256.8483,253.76495 c -4.37785,5.54984 -8.96363,11.7828 -10.4082,14.81054 -2.44758,5.12994 -3.64408,9.96156 -9.77344,12.79297 l -0.48047,0.22265 -0.13476,0.50977 c 0,0 -0.49148,1.61236 -1.78516,2.32226 h -0.002 c -0.57541,0.31577 -2.54438,0.87376 -4.42774,1.41211 -0.94168,0.26918 -1.885,0.55357 -2.71875,0.8711 -0.83375,0.31752 -1.55365,0.62649 -2.14062,1.18164 -0.92227,0.87267 -2.03389,2.47797 -2.77149,4.40234 -0.7376,1.92437 -1.09273,4.29082 0.29883,6.14843 1.36936,1.82719 3.81351,2.67795 6.19141,3.16016 2.37789,0.48221 4.63271,0.57287 6.14453,0.1543 0.84811,-0.23465 1.78875,-0.76593 3.01562,-1.4961 1.09522,-0.65181 2.3732,-1.48749 3.6543,-2.34179 -0.487,0.61634 -1.09929,1.53233 -1.75391,2.53515 -0.72882,1.11651 -1.37304,2.13281 -1.37304,2.13281 l -0.0566,0.0898 -1.43164,3.625 0.24804,0.46094 c 0,0 0.56131,1.04466 1.16992,2.34375 0.60862,1.2991 1.25359,2.90583 1.39649,3.68945 0.14751,0.80993 0.30348,3.49922 0.51562,6.10352 0.10608,1.30215 0.23217,2.60876 0.40235,3.74609 0.17017,1.13733 0.33964,2.06655 0.73242,2.83984 0.3461,0.68172 0.96135,1.53693 1.75195,2.59375 0.79061,1.05683 1.73706,2.26135 2.65039,3.40039 1.57431,1.96338 2.65723,3.25096 3.03516,3.70312 -0.28539,0.49747 -0.84897,1.45791 -1.63672,3.0293 -0.48435,0.96618 -0.95055,1.96354 -1.27148,2.83789 -0.16047,0.43718 -0.28619,0.84025 -0.35547,1.24024 -0.0693,0.39998 -0.19524,0.83921 0.21875,1.44921 0.31686,0.4669 0.79357,0.63955 1.16015,0.70508 0.36659,0.0655 0.69843,0.0499 1.03907,0.0117 0.68127,-0.0764 1.39615,-0.26716 2.08398,-0.48242 0.47852,-0.14975 0.51406,-0.18978 0.91602,-0.33984 -0.0868,0.96364 -0.16279,1.70201 -0.29688,3.52148 -0.10088,1.36887 -0.19055,2.78113 -0.23633,3.95313 -0.0229,0.58599 -0.0343,1.11218 -0.0293,1.55273 0.005,0.44054 0.004,0.75122 0.0957,1.13671 0.10123,0.42483 0.0796,1.45792 0.37305,2.46289 0.14674,0.50249 0.42549,1.11804 1.08203,1.47266 0.65654,0.35463 1.44121,0.26329 2.14453,-0.0332 0.8794,-0.37072 1.90542,-1.14907 3.39453,-2.25391 1.48911,-1.10483 3.28459,-2.49203 5.08789,-3.88085 1.80331,-1.38882 3.61514,-2.7776 5.11719,-3.875 1.50205,-1.0974 2.81648,-1.93363 3.1289,-2.0625 0.93986,-0.38746 3.48537,-0.83071 6.40821,-1.51953 2.92283,-0.68882 6.31342,-1.67731 9.36328,-3.44727 2.89219,-1.67846 7.57088,-4.39468 11.87695,-7.07226 4.30607,-2.67758 8.14383,-5.17196 9.78125,-6.98047 1.34917,-1.48981 4.90961,-5.3894 8.45313,-9.39843 3.54351,-4.00903 7.02816,-8.05186 8.42382,-10.14844 0.37565,-0.56476 2.2034,-2.3941 4.80665,-4.94531 2.60324,-2.55121 6.04954,-5.96633 9.96875,-10.26757 7.8384,-8.60249 17.57581,-20.75478 26.32812,-36.71093 l -1.97461,-1.08398 c -8.64553,15.76147 -18.26502,27.76906 -26.01758,36.27733 -3.87628,4.25413 -7.28557,7.63237 -9.88086,10.17578 -2.59528,2.54341 -4.30969,4.11022 -5.10547,5.30664 h 0.002 c -1.16055,1.74338 -4.71052,5.91308 -8.23828,9.90429 -3.52777,3.99121 -7.0759,7.87947 -8.43555,9.38086 -1.07121,1.18314 -5.03621,3.92635 -9.30078,6.57812 -4.26458,2.65177 -8.9243,5.35674 -11.81641,7.03515 -2.73445,1.58692 -5.92075,2.53832 -8.75,3.20508 -2.82924,0.66676 -5.21031,0.99337 -6.75195,1.62891 -0.92822,0.38286 -2.06067,1.20324 -3.59766,2.32617 -1.53698,1.12293 -3.35689,2.51986 -5.16211,3.91016 -1.80521,1.39029 -3.59664,2.77223 -5.05664,3.85546 -1.46,1.08323 -2.74633,1.91181 -2.92773,1.98828 -0.35748,0.1507 -0.31988,0.0618 -0.19922,0.12696 0.12066,0.0652 0.0742,0.0976 0.01,-0.12305 -0.12885,-0.44122 -0.12222,-1.41562 -0.34571,-2.35352 0.0107,0.0449 -0.0309,-0.26193 -0.0352,-0.64062 -0.004,-0.37869 0.007,-0.87651 0.0293,-1.43945 0.044,-1.12589 0.13261,-2.52064 0.23243,-3.875 0.19962,-2.70872 0.43945,-5.25391 0.43945,-5.25391 l 0.17969,-1.89648 -1.74805,0.75781 c 0,0 -1.18206,0.5102 -2.41016,0.89453 -0.5404,0.16912 -1.05088,0.28436 -1.46093,0.34766 0.0383,-0.12461 0.0474,-0.19609 0.10156,-0.34375 0.2667,-0.72659 0.70789,-1.68186 1.17187,-2.60742 0.92798,-1.85112 1.94531,-3.59961 1.94531,-3.59961 l 0.39844,-0.6836 -0.50781,-0.60742 c 0,0 -1.68236,-2.0051 -3.49023,-4.25976 -0.90394,-1.12733 -1.8402,-2.31687 -2.60547,-3.33984 -0.76528,-1.02297 -1.3785,-1.93203 -1.54688,-2.26367 v -0.002 c -0.12201,-0.24022 -0.3569,-1.10458 -0.51367,-2.15235 -0.15677,-1.04776 -0.28061,-2.3171 -0.38477,-3.5957 -0.2083,-2.55719 -0.31204,-5.04561 -0.54492,-6.32421 -0.23793,-1.30472 -0.93433,-2.88051 -1.57226,-4.24219 -0.51307,-1.09516 -0.81748,-1.65561 -0.98633,-1.97461 l 0.97461,-2.4668 c 0.048,-0.0758 0.61105,-0.96681 1.30078,-2.02344 0.71847,-1.10064 1.60724,-2.38707 1.7793,-2.58789 -0.0525,0.0614 0.16953,-0.12959 0.48632,-0.27734 0.3168,-0.14775 0.72886,-0.30104 1.12696,-0.43164 0.7962,-0.2612 1.52343,-0.43359 1.52343,-0.43359 l 0.28516,-0.0684 0.21484,-0.19727 c 0.11388,-0.10411 0.86049,-0.42863 1.9375,-0.5664 1.07702,-0.13778 2.46961,-0.17003 3.96094,-0.125 2.98268,0.0901 6.3757,0.48338 8.74219,0.83984 5.17174,0.77977 10.70247,-0.83544 12.50781,-1.58008 v -0.002 c 0.94055,-0.38859 1.2628,-1.25699 1.43946,-2.04297 0.17665,-0.78597 0.20683,-1.65308 0.16992,-2.54101 -0.0738,-1.77587 -0.36879,-3.51028 -0.89649,-4.63477 -0.20736,-0.44157 -0.74672,-2.56919 -1.15625,-4.63476 -0.40952,-2.06558 -0.77539,-4.20149 -0.96875,-5.26172 -0.29912,-1.64237 -1.5725,-2.83716 -2.68359,-3.85351 -1.11109,-1.01635 -2.16406,-1.75 -2.16406,-1.75 l -0.83203,-0.57813 -0.66211,0.76368 c -1.64973,1.90047 -4.24727,4.20999 -5.88477,5.64843 -1.1215,0.98502 -2.44562,2.96338 -3.87695,4.9707 -0.71567,1.00366 -1.42202,1.99266 -2.03125,2.7832 -0.60923,0.79054 -1.18767,1.40869 -1.33789,1.52149 -1.46541,1.10032 -2.89897,1.96736 -5.59766,4.0957 -1.27978,1.00961 -4.19453,3.12267 -7.0293,5.0293 -1.41738,0.95331 -2.82078,1.85869 -3.99023,2.55468 -1.16945,0.69599 -2.19145,1.18662 -2.46289,1.26172 -0.72664,0.20118 -2.99094,0.23581 -5.09766,-0.19141 -2.10672,-0.42722 -4.11209,-1.33882 -4.83594,-2.30468 -0.70156,-0.93653 -0.59898,-2.42241 0.002,-3.99023 0.60094,-1.56783 1.70803,-3.09466 2.21484,-3.57422 0.12767,-0.12075 0.6753,-0.43899 1.39453,-0.71289 0.71924,-0.27391 1.61469,-0.54548 2.53516,-0.8086 1.84093,-0.52622 3.68414,-0.93927 4.89453,-1.60351 1.91008,-1.04815 2.50139,-2.67778 2.6875,-3.26563 6.50537,-3.2454 8.16502,-8.82905 10.43555,-13.58788 1.13506,-2.37902 5.80786,-8.88713 10.14453,-14.38476 z m 10.51563,20.1875 c 0.3625,0.27146 0.60118,0.42013 1.22656,0.99218 0.98594,0.90188 1.90702,2.1476 1.98828,2.59375 v 0.002 c 0.1875,1.02811 0.55732,3.19019 0.97461,5.29492 0.41728,2.10472 0.79521,4.01946 1.32812,5.1543 h -0.002 c 0.21174,0.4512 0.62227,2.24929 0.68555,3.77148 0.0316,0.7611 -0.0113,1.48387 -0.11719,1.95508 -0.10591,0.47121 -0.27476,0.52663 -0.10156,0.45508 -1.26576,0.52208 -6.87818,2.10413 -11.3125,1.43554 h -0.002 c -2.43681,-0.36705 -5.88211,-0.76884 -9.00976,-0.86328 -1.56383,-0.0472 -3.04399,-0.0197 -4.3125,0.14258 -1.07096,0.137 -1.96451,0.3822 -2.72852,0.89063 -0.0527,0.0125 -0.77865,0.18081 -1.65039,0.46679 -0.31223,0.10244 -0.63249,0.23719 -0.95117,0.36719 2.26404,-1.56558 4.63126,-3.23215 5.73828,-4.10547 2.62699,-2.07179 3.98509,-2.88248 5.55664,-4.0625 0.60901,-0.45729 1.11996,-1.10886 1.76758,-1.94922 0.64762,-0.84036 1.36471,-1.84167 2.08203,-2.84765 1.43464,-2.01196 3.00919,-4.12912 3.5293,-4.58594 1.43239,-1.25826 3.56891,-3.24694 5.31055,-5.10742 z"
   style="color:#000000;font-style:normal;font-variant:normal;font-weight:normal;font-stretch:normal;font-size:medium;line-height:normal;font-family:sans-serif;font-variant-ligatures:normal;font-variant-position:normal;font-variant-caps:normal;font-variant-numeric:normal;font-variant-alternates:normal;font-variant-east-asian:normal;font-feature-settings:normal;font-variation-settings:normal;text-indent:0;text-align:start;text-decoration:none;text-decoration-line:none;text-decoration-style:solid;text-decoration-color:#000000;letter-spacing:normal;word-spacing:normal;text-transform:none;writing-mode:lr-tb;direction:ltr;text-orientation:mixed;dominant-baseline:auto;baseline-shift:baseline;text-anchor:start;white-space:normal;shape-padding:0;shape-margin:0;inline-size:0;clip-rule:nonzero;display:inline;overflow:visible;visibility:visible;opacity:1;isolation:auto;mix-blend-mode:normal;color-interpolation:sRGB;color-interpolation-filters:linearRGB;solid-color:#000000;solid-opacity:1;vector-effect:none;fill:#a05a2c;fill-opacity:1;fill-rule:nonzero;stroke:none;stroke-width:2.25187;stroke-linecap:butt;stroke-linejoin:miter;stroke-miterlimit:4;stroke-dasharray:none;stroke-dashoffset:0;stroke-opacity:1;color-rendering:auto;image-rendering:auto;shape-rendering:auto;text-rendering:auto;enable-background:accumulate;stop-color:#000000;stop-opacity:1" /><path
   id="path873"
   d="m -110.67643,234.10089 a 1.1260375,1.1260375 0 0 0 -1.04883,0.84571 l -7.62109,29.69139 -4.16797,-10.46288 a 1.1260375,1.1260375 0 0 0 -0.002,-0.006 l -4.05664,-9.98829 a 1.1260375,1.1260375 0 0 0 -2.12695,0.11719 l -4.4043,15.60938 -1.83203,-5.95117 a 1.1260375,1.1260375 0 0 0 -1.10742,-0.79297 l -11.44727,0.30468 a 1.1259249,1.1259249 0 0 0 -1.0957,1.1543 1.1259249,1.1259249 0 0 0 1.1543,1.0957 l 10.5957,-0.28125 2.70312,8.77734 a 1.1260375,1.1260375 0 0 0 2.16016,-0.0254 l 4.54883,-16.11913 2.82031,6.94336 5.44141,13.66796 a 1.1260375,1.1260375 0 0 0 2.13671,-0.13672 l 6.91406,-26.93163 4.62891,45.12694 a 1.1260375,1.1260375 0 0 0 2.21875,0.13086 l 6.974607,-31.15234 h 12.199219 a 1.1259249,1.1259249 0 0 0 1.126953,-1.125 1.1259249,1.1259249 0 0 0 -1.126953,-1.12695 h -13.099609 a 1.1260375,1.1260375 0 0 0 -1.09961,0.88086 l -5.660157,25.27539 -4.56445,-44.51171 a 1.1260375,1.1260375 0 0 0 -1.16211,-1.00977 z"
   style="color:#000000;font-style:normal;font-variant:normal;font-weight:normal;font-stretch:normal;font-size:medium;line-height:normal;font-family:sans-serif;font-variant-ligatures:normal;font-variant-position:normal;font-variant-caps:normal;font-variant-numeric:normal;font-variant-alternates:normal;font-variant-east-asian:normal;font-feature-settings:normal;font-variation-settings:normal;text-indent:0;text-align:start;text-decoration:none;text-decoration-line:none;text-decoration-style:solid;text-decoration-color:#000000;letter-spacing:normal;word-spacing:normal;text-transform:none;writing-mode:lr-tb;direction:ltr;text-orientation:mixed;dominant-baseline:auto;baseline-shift:baseline;text-anchor:start;white-space:normal;shape-padding:0;shape-margin:0;inline-size:0;clip-rule:nonzero;display:inline;overflow:visible;visibility:visible;opacity:1;isolation:auto;mix-blend-mode:normal;color-interpolation:sRGB;color-interpolation-filters:linearRGB;solid-color:#000000;solid-opacity:1;vector-effect:none;fill:#a05a2c;fill-opacity:1;fill-rule:evenodd;stroke:none;stroke-width:2.25185;stroke-linecap:round;stroke-linejoin:round;stroke-miterlimit:4;stroke-dasharray:none;stroke-dashoffset:0;stroke-opacity:1;color-rendering:auto;image-rendering:auto;shape-rendering:auto;text-rendering:auto;enable-background:accumulate;stop-color:#000000;stop-opacity:1" /><path
   id="path877"
   d="m -28.641278,234.10089 a 1.1260375,1.1260375 0 0 0 -1.048828,0.84375 l -7.621094,29.69335 -4.167969,-10.46288 a 1.1260375,1.1260375 0 0 0 -0.002,-0.006 l -4.05664,-9.98829 a 1.1260375,1.1260375 0 0 0 -2.126954,0.11719 l -4.404296,15.60938 -1.832032,-5.95117 a 1.1260375,1.1260375 0 0 0 -1.08789,-0.79297 l -30.113282,0.30273 a 1.1259249,1.1259249 0 0 0 -1.113281,1.13867 1.1259249,1.1259249 0 0 0 1.136719,1.11328 l 29.273437,-0.29492 2.708985,8.79101 a 1.1260375,1.1260375 0 0 0 2.158203,-0.0254 l 4.548828,-16.11913 2.820313,6.94336 5.441406,13.66796 a 1.1260375,1.1260375 0 0 0 2.136719,-0.13672 l 6.914059,-26.93148 4.628906,45.12694 a 1.1260375,1.1260375 0 0 0 2.21875,0.13086 l 6.97461,-31.15233 h 12.1992681 a 1.1259249,1.1259249 0 0 0 1.126953,-1.125 1.1259249,1.1259249 0 0 0 -1.126953,-1.12696 H -16.15495 a 1.1260375,1.1260375 0 0 0 -1.099609,0.88086 l -5.660157,25.27539 -4.564453,-44.51171 a 1.1260375,1.1260375 0 0 0 -1.162109,-1.00977 z"
   style="color:#000000;font-style:normal;font-variant:normal;font-weight:normal;font-stretch:normal;font-size:medium;line-height:normal;font-family:sans-serif;font-variant-ligatures:normal;font-variant-position:normal;font-variant-caps:normal;font-variant-numeric:normal;font-variant-alternates:normal;font-variant-east-asian:normal;font-feature-settings:normal;font-variation-settings:normal;text-indent:0;text-align:start;text-decoration:none;text-decoration-line:none;text-decoration-style:solid;text-decoration-color:#000000;letter-spacing:normal;word-spacing:normal;text-transform:none;writing-mode:lr-tb;direction:ltr;text-orientation:mixed;dominant-baseline:auto;baseline-shift:baseline;text-anchor:start;white-space:normal;shape-padding:0;shape-margin:0;inline-size:0;clip-rule:nonzero;display:inline;overflow:visible;visibility:visible;opacity:1;isolation:auto;mix-blend-mode:normal;color-interpolation:sRGB;color-interpolation-filters:linearRGB;solid-color:#000000;solid-opacity:1;vector-effect:none;fill:#a05a2c;fill-opacity:1;fill-rule:evenodd;stroke:none;stroke-width:2.25185;stroke-linecap:round;stroke-linejoin:round;stroke-miterlimit:4;stroke-dasharray:none;stroke-dashoffset:0;stroke-opacity:1;color-rendering:auto;image-rendering:auto;shape-rendering:auto;text-rendering:auto;enable-background:accumulate;stop-color:#000000;stop-opacity:1" /><path
   id="path881"
   d="m -316.64322,234.10089 a 1.1260375,1.1260375 0 0 0 -1.04883,0.84571 l -7.62305,29.69139 -4.16601,-10.46288 a 1.1260375,1.1260375 0 0 0 -0.002,-0.006 l -4.05665,-9.98829 a 1.1260375,1.1260375 0 0 0 -2.12695,0.11719 l -4.4043,15.60742 -1.83398,-5.94921 a 1.1260375,1.1260375 0 0 0 -1.08594,-0.79297 l -30.11328,0.30273 a 1.1259249,1.1259249 0 0 0 -1.11523,1.13867 1.1259249,1.1259249 0 0 0 1.13867,1.11328 l 29.27148,-0.29492 2.70899,8.79101 a 1.1260375,1.1260375 0 0 0 2.16015,-0.0254 l 4.54883,-16.11913 2.82031,6.94336 5.44141,13.66796 a 1.1260375,1.1260375 0 0 0 2.13672,-0.13672 l 6.91406,-26.93163 4.62891,45.12694 a 1.1260375,1.1260375 0 0 0 2.21875,0.13086 l 6.97461,-31.15234 h 47.18945 a 1.1259249,1.1259249 0 0 0 1.125,-1.125 1.1259249,1.1259249 0 0 0 -1.125,-1.12695 h -48.0918 a 1.1260375,1.1260375 0 0 0 -1.09765,0.88086 l -5.66016,25.27734 -4.56445,-44.51366 a 1.1260375,1.1260375 0 0 0 -1.16211,-1.00977 z"
   style="color:#000000;font-style:normal;font-variant:normal;font-weight:normal;font-stretch:normal;font-size:medium;line-height:normal;font-family:sans-serif;font-variant-ligatures:normal;font-variant-position:normal;font-variant-caps:normal;font-variant-numeric:normal;font-variant-alternates:normal;font-variant-east-asian:normal;font-feature-settings:normal;font-variation-settings:normal;text-indent:0;text-align:start;text-decoration:none;text-decoration-line:none;text-decoration-style:solid;text-decoration-color:#000000;letter-spacing:normal;word-spacing:normal;text-transform:none;writing-mode:lr-tb;direction:ltr;text-orientation:mixed;dominant-baseline:auto;baseline-shift:baseline;text-anchor:start;white-space:normal;shape-padding:0;shape-margin:0;inline-size:0;clip-rule:nonzero;display:inline;overflow:visible;visibility:visible;opacity:1;isolation:auto;mix-blend-mode:normal;color-interpolation:sRGB;color-interpolation-filters:linearRGB;solid-color:#000000;solid-opacity:1;vector-effect:none;fill:#a05a2c;fill-opacity:1;fill-rule:evenodd;stroke:none;stroke-width:2.25185;stroke-linecap:round;stroke-linejoin:round;stroke-miterlimit:4;stroke-dasharray:none;stroke-dashoffset:0;stroke-opacity:1;color-rendering:auto;image-rendering:auto;shape-rendering:auto;text-rendering:auto;enable-background:accumulate;stop-color:#000000;stop-opacity:1" /></g>
  </g>
<metadata
   id="metadata6"><rdf:RDF><cc:Work><dc:format>image/svg+xml</dc:format><dc:type
         rdf:resource="http://purl.org/dc/dcmitype/StillImage" /><cc:license
         rdf:resource="http://creativecommons.org/licenses/publicdomain/" /><dc:publisher><cc:Agent
           rdf:about="http://openclipart.org/"><dc:title>Openclipart</dc:title></cc:Agent></dc:publisher></cc:Work><cc:License
       rdf:about="http://creativecommons.org/licenses/publicdomain/"><cc:permits
         rdf:resource="http://creativecommons.org/ns#Reproduction" /><cc:permits
         rdf:resource="http://creativecommons.org/ns#Distribution" /><cc:permits
         rdf:resource="http://creativecommons.org/ns#DerivativeWorks" /></cc:License></rdf:RDF></metadata></svg>
