<?xml version="1.0" encoding="UTF-8" standalone="no"?>
<!-- Created with Inkscape (http://www.inkscape.org/) -->

<svg
   xmlns:dc="http://purl.org/dc/elements/1.1/"
   xmlns:cc="http://creativecommons.org/ns#"
   xmlns:rdf="http://www.w3.org/1999/02/22-rdf-syntax-ns#"
   xmlns:svg="http://www.w3.org/2000/svg"
   xmlns="http://www.w3.org/2000/svg"
   xmlns:sodipodi="http://sodipodi.sourceforge.net/DTD/sodipodi-0.dtd"
   xmlns:inkscape="http://www.inkscape.org/namespaces/inkscape"
   width="437.61914mm"
   height="222.877mm"
   viewBox="0 0 437.61914 222.877"
   version="1.1"
   id="svg8"
   inkscape:version="0.92.3 (2405546, 2018-03-11)"
   sodipodi:docname="17 - Abstract Wavy Lines.svg">
  <defs
     id="defs2">
    <inkscape:path-effect
       effect="curvestitching"
       id="path-effect822"
       is_visible="true"
       count="30"
       startpoint_edge_variation="0;1"
       startpoint_spacing_variation="0;1"
       endpoint_edge_variation="0;1"
       endpoint_spacing_variation="0;1"
       strokepath="M 58.484654,127.09985 C 221.15115,75.276895 -22.168356,278.25014 303.16464,106.94648"
       prop_scale="1"
       scale_y_rel="false"
       strokepath-nodetypes="cc" />
    <inkscape:path-effect
       effect="curvestitching"
       id="path-effect820"
       is_visible="true"
       count="30"
       startpoint_edge_variation="0;1"
       startpoint_spacing_variation="0;1"
       endpoint_edge_variation="0;1"
       endpoint_spacing_variation="0;1"
       strokepath="M 0,0 H 1"
       prop_scale="1"
       scale_y_rel="false"
       strokepath-nodetypes="cc" />
  </defs>
  <sodipodi:namedview
     id="base"
     pagecolor="#ffffff"
     bordercolor="#666666"
     borderopacity="1.0"
     inkscape:pageopacity="0.0"
     inkscape:pageshadow="2"
     inkscape:zoom="0.25993083"
     inkscape:cx="1091.5983"
     inkscape:cy="546.49422"
     inkscape:document-units="mm"
     inkscape:current-layer="layer1"
     showgrid="false"
     fit-margin-top="0"
     fit-margin-left="0"
     fit-margin-right="0"
     fit-margin-bottom="0"
     inkscape:window-width="1920"
     inkscape:window-height="1015"
     inkscape:window-x="0"
     inkscape:window-y="0"
     inkscape:window-maximized="1" />
  <metadata
     id="metadata5">
    <rdf:RDF>
      <cc:Work
         rdf:about="">
        <dc:format>image/svg+xml</dc:format>
        <dc:type
           rdf:resource="http://purl.org/dc/dcmitype/StillImage" />
        <dc:title></dc:title>
      </cc:Work>
    </rdf:RDF>
  </metadata>
  <g
     inkscape:label="Ebene 1"
     inkscape:groupmode="layer"
     id="layer1"
     transform="translate(103.69644,-15.613136)">
    <path
       style="color:#000000;font-style:normal;font-variant:normal;font-weight:normal;font-stretch:normal;font-size:medium;line-height:normal;font-family:sans-serif;font-variant-ligatures:normal;font-variant-position:normal;font-variant-caps:normal;font-variant-numeric:normal;font-variant-alternates:normal;font-feature-settings:normal;text-indent:0;text-align:start;text-decoration:none;text-decoration-line:none;text-decoration-style:solid;text-decoration-color:#000000;letter-spacing:normal;word-spacing:normal;text-transform:none;writing-mode:lr-tb;direction:ltr;text-orientation:mixed;dominant-baseline:auto;baseline-shift:baseline;text-anchor:start;white-space:normal;shape-padding:0;clip-rule:nonzero;display:inline;overflow:visible;visibility:visible;opacity:1;isolation:auto;mix-blend-mode:normal;color-interpolation:sRGB;color-interpolation-filters:linearRGB;solid-color:#000000;solid-opacity:1;vector-effect:none;fill:#214478;fill-opacity:1;fill-rule:nonzero;stroke:none;stroke-width:0.36341912px;stroke-linecap:butt;stroke-linejoin:miter;stroke-miterlimit:4;stroke-dasharray:none;stroke-dashoffset:0;stroke-opacity:1;color-rendering:auto;image-rendering:auto;shape-rendering:auto;text-rendering:auto;enable-background:accumulate"
       d="m 166.96958,15.619029 c -5.99877,-0.07415 -13.50774,0.548851 -22.88282,2.017578 -37.5003,5.874907 -104.846692,25.311343 -224.46289,68.138672 l 0.121094,0.341797 C 39.353258,43.292578 106.69653,23.862213 144.14145,17.995982 c 18.72246,-2.933115 29.96903,-2.467155 36.50977,0.126953 3.27037,1.297054 5.36385,3.118342 6.6582,5.318359 1.29435,2.200018 1.78927,4.788359 1.82031,7.625 0.0621,5.673284 -1.73906,12.315747 -2.61719,18.683594 -0.87813,6.367848 -0.83136,12.489306 3.00391,17.082032 3.83527,4.592725 11.4113,7.605024 25.48047,7.861328 14.06917,0.256304 34.65202,-2.243181 64.5625,-8.722656 l -0.0762,-0.355469 c -29.89565,6.476263 -50.46081,8.970246 -64.48047,8.714844 -14.01966,-0.255403 -21.47275,-3.260629 -25.20703,-7.732422 -3.73428,-4.471793 -3.79741,-10.462026 -2.92383,-16.796875 0.87358,-6.334849 2.68601,-12.985323 2.62305,-18.738282 -0.0315,-2.876479 -0.53411,-5.534145 -1.8711,-7.80664 -1.33699,-2.272496 -3.50835,-4.150181 -6.83789,-5.470704 -3.32954,-1.320522 -7.81764,-2.09187 -13.8164,-2.166015 z m -3.00196,5.892578 c -5.99323,-0.07147 -13.49564,0.554438 -22.86133,2.027344 -37.46274,5.891622 -104.737172,25.359613 -224.222654,68.240234 l 0.123047,0.341797 C 36.484248,49.2432 103.75562,29.781231 141.16293,23.898326 c 18.70366,-2.941453 29.93891,-2.479831 36.47461,0.111328 3.26786,1.295579 5.36213,3.115004 6.65625,5.314453 1.29413,2.199449 1.78804,4.788354 1.82032,7.625 0.0646,5.673292 -1.731,12.317323 -2.60547,18.685547 -0.87447,6.368224 -0.82594,12.489049 3.00781,17.080078 3.83375,4.59103 11.40474,7.599573 25.46094,7.84961 14.0562,0.250037 34.61836,-2.257197 64.49804,-8.75 l -0.0762,-0.355469 c -29.86485,6.489579 -50.40937,8.991343 -64.41601,8.742187 -14.00665,-0.249155 -21.45472,-3.248634 -25.1875,-7.71875 -3.73278,-4.470116 -3.79768,-10.463575 -2.92774,-16.798828 0.86994,-6.335252 2.6768,-12.985388 2.61133,-18.738281 -0.0327,-2.876447 -0.53629,-5.532796 -1.87305,-7.804688 -1.33675,-2.271892 -3.50691,-4.149693 -6.83398,-5.46875 -3.32707,-1.319056 -7.81146,-2.088683 -13.80469,-2.160156 z m -2.8789,5.951172 c -5.99042,-0.07022 -13.49062,0.55833 -22.85157,2.033203 -37.44377,5.899491 -104.681722,25.379449 -224.101561,68.285156 l 0.123047,0.341797 C 33.670558,55.220071 100.90547,35.746112 138.29379,29.855357 c 18.69417,-2.945377 29.92588,-2.486254 36.45899,0.103516 3.26655,1.294884 5.35836,3.113318 6.65234,5.3125 1.29398,2.199181 1.78941,4.788351 1.82227,7.625 0.0657,5.673297 -1.72885,12.317147 -2.60156,18.685547 -0.87272,6.3684 -0.82119,12.489847 3.01171,17.080078 3.83291,4.590231 11.39961,7.596664 25.44922,7.84375 14.04962,0.247086 34.60263,-2.264594 64.4668,-8.763672 l -0.0781,-0.355469 c -29.84932,6.495849 -50.38277,9.002074 -64.38281,8.75586 -14.00003,-0.246215 -21.44383,-3.245518 -25.17578,-7.714844 -3.73195,-4.469326 -3.79984,-10.461433 -2.93164,-16.796875 0.8682,-6.335443 2.67212,-12.985421 2.60547,-18.738281 -0.0333,-2.876431 -0.53645,-5.533081 -1.87305,-7.804688 -1.33659,-2.271608 -3.50624,-4.14843 -6.83203,-5.466797 -3.32579,-1.318367 -7.80645,-2.087988 -13.79687,-2.158203 z m -2.77539,6 c -5.98996,-0.0701 -13.48943,0.558146 -22.84961,2.033203 C 98.022988,41.396209 30.791328,60.876995 -88.618317,103.78504 l 0.123047,0.3418 C 30.906458,61.221636 98.135078,41.744892 135.52036,35.853404 c 18.69263,-2.945744 29.92244,-2.486123 36.45507,0.103516 3.26632,1.294819 5.35843,3.113344 6.65235,5.3125 1.29392,2.199156 1.7913,4.78835 1.82422,7.625 0.0658,5.673299 -1.72905,12.317131 -2.60157,18.685547 -0.87251,6.368416 -0.82292,12.489921 3.00977,17.080078 3.8327,4.590157 11.40069,7.596939 25.44922,7.84375 14.04852,0.246811 34.59924,-2.265962 64.46094,-8.765625 l -0.0762,-0.355469 c -29.84686,6.496433 -50.37997,9.003752 -64.37891,8.757813 -13.99894,-0.24594 -21.44404,-3.245593 -25.17578,-7.714844 -3.73174,-4.469252 -3.79769,-10.459462 -2.92969,-16.794922 0.868,-6.335461 2.67222,-12.987378 2.60547,-18.740234 -0.0334,-2.876429 -0.53651,-5.533108 -1.87305,-7.804688 -1.33653,-2.27158 -3.50647,-4.148494 -6.83203,-5.466797 -3.32556,-1.318303 -7.80692,-2.086153 -13.79687,-2.15625 z m -2.66407,6.044922 c -5.992,-0.07112 -13.49375,0.555831 -22.85742,2.029297 C 95.337168,47.430863 28.078218,66.901182 -91.380036,109.78895 l 0.123047,0.3418 C 28.193358,67.245819 95.449248,47.781514 132.84848,41.896373 c 18.69962,-2.942571 29.93426,-2.483339 36.46875,0.107422 3.26725,1.29538 5.35835,3.11508 6.65235,5.314453 1.29399,2.199373 1.78982,4.788352 1.82226,7.625 0.0649,5.673296 -1.73156,12.317274 -2.60547,18.685547 -0.8739,6.368273 -0.82347,12.489275 3.00977,17.080078 3.83324,4.590803 11.40175,7.59846 25.45508,7.847656 14.05332,0.249197 34.61319,-2.259315 64.48632,-8.753906 l -0.0781,-0.355469 c -29.8583,6.491365 -50.39663,8.994411 -64.40039,8.746094 -14.00376,-0.248318 -21.45132,-3.246907 -25.1836,-7.716797 -3.73227,-4.46989 -3.79711,-10.46352 -2.92773,-16.798828 0.86938,-6.335308 2.67322,-12.9854 2.60742,-18.738281 -0.0329,-2.876441 -0.53448,-5.532878 -1.87109,-7.804688 -1.33661,-2.27181 -3.50752,-4.149889 -6.83399,-5.46875 -3.32647,-1.318861 -7.80877,-2.087088 -13.80078,-2.158203 z m -2.54297,6.091797 c -5.99677,-0.07327 -13.50523,0.551394 -22.87695,2.021484 -37.486892,5.88036 -104.807112,25.327161 -224.376954,68.171878 l 0.123047,0.34179 C 25.537368,73.292774 92.854488,53.852027 130.28598,47.980357 c 18.71575,-2.935834 29.95916,-2.472051 36.49805,0.121094 3.26944,1.296573 5.36201,3.116574 6.65625,5.316406 1.29424,2.199833 1.78887,4.788357 1.82031,7.625 0.0629,5.673288 -1.73637,12.317577 -2.61328,18.685547 -0.87691,6.367971 -0.8288,12.487905 3.00586,17.080078 3.83465,4.592168 11.40815,7.605118 25.47266,7.859378 14.0645,0.25426 34.63956,-2.2486 64.53906,-8.732425 l -0.0762,-0.355468 c -29.88468,6.480603 -50.44206,8.977973 -64.45703,8.724613 -14.01498,-0.25337 -21.4675,-3.25727 -25.20118,-7.72852 -3.73367,-4.471245 -3.79619,-10.463846 -2.92382,-16.798828 0.87236,-6.334981 2.68096,-12.985344 2.61718,-18.738281 -0.0319,-2.876468 -0.53422,-5.532389 -1.87109,-7.804687 -1.33687,-2.272299 -3.50731,-4.150659 -6.83594,-5.470704 -3.32863,-1.320045 -7.81377,-2.090788 -13.81055,-2.164062 z m -2.32421,6.1875 c -5.99877,-0.07415 -13.50774,0.54885 -22.88282,2.017578 -37.500302,5.874911 -104.846692,25.31133 -224.46289,68.138674 l 0.123047,0.34179 C 23.167708,79.460534 90.509028,60.030186 127.95395,54.163951 c 18.72246,-2.933117 29.96903,-2.467155 36.50977,0.126953 3.27037,1.297054 5.3658,3.116389 6.66015,5.316406 1.29435,2.200018 1.78927,4.790312 1.82032,7.626954 0.0621,5.673282 -1.74102,12.315745 -2.61915,18.683593 -0.87812,6.367848 -0.83136,12.489306 3.00391,17.082033 3.83527,4.59272 11.4113,7.60502 25.48047,7.86133 14.06917,0.2563 34.65202,-2.24318 64.5625,-8.72266 l -0.0762,-0.35547 c -29.89565,6.47627 -50.46081,8.97025 -64.48047,8.71484 -14.01966,-0.2554 -21.47275,-3.26062 -25.20703,-7.73242 -3.73429,-4.47179 -3.79741,-10.463975 -2.92383,-16.798825 0.87358,-6.334849 2.68601,-12.983369 2.62305,-18.736328 -0.0315,-2.876479 -0.53411,-5.534145 -1.8711,-7.80664 -1.33699,-2.272496 -3.50835,-4.150181 -6.83789,-5.470703 -3.32954,-1.320523 -7.81764,-2.091871 -13.8164,-2.166016 z m -2.08594,6.277344 c -5.99877,-0.07415 -13.50774,0.54885 -22.88281,2.017578 C 88.313018,65.956831 20.966628,85.39325 -98.649567,128.2206 l 0.123047,0.34179 C 21.081768,85.737878 88.423088,66.307529 125.86801,60.441295 c 18.72246,-2.933118 29.96903,-2.467155 36.50977,0.126953 3.27037,1.297054 5.3658,3.118342 6.66015,5.318359 1.29436,2.200018 1.78927,4.788359 1.82032,7.625 0.0621,5.673283 -1.74101,12.315746 -2.61914,18.683594 -0.87813,6.367848 -0.83137,12.489309 3.0039,17.082029 3.83527,4.59273 11.4113,7.60503 25.48047,7.86133 14.06917,0.2563 34.65398,-2.24318 64.56445,-8.72266 l -0.0781,-0.35547 c -29.89565,6.47627 -50.45886,8.97025 -64.47852,8.71485 -14.01965,-0.2554 -21.4747,-3.25868 -25.20898,-7.73047 -3.73428,-4.47179 -3.79741,-10.463978 -2.92383,-16.798828 0.87358,-6.334849 2.68601,-12.985322 2.62305,-18.738281 -0.0315,-2.876479 -0.5341,-5.534145 -1.8711,-7.806641 -1.33699,-2.272495 -3.50834,-4.150181 -6.83789,-5.470703 -3.32954,-1.320522 -7.81763,-2.091871 -13.8164,-2.166015 z m -1.82227,6.355468 c -5.99877,-0.07414 -13.50969,0.548851 -22.88476,2.017578 -37.500312,5.874911 -104.844742,25.311331 -224.46094,68.138672 l 0.12109,0.3418 C 19.257548,92.093348 86.600828,72.661045 124.04575,66.79481 c 18.72246,-2.933117 29.96902,-2.465201 36.50976,0.128907 3.27037,1.297053 5.36386,3.116388 6.65821,5.316406 1.29435,2.200018 1.78926,4.790312 1.82031,7.626953 0.0621,5.673283 -1.73906,12.315746 -2.61719,18.683594 -0.22382,1.62307 -0.37934,3.22714 -0.43555,4.79687 -0.0467,-0.34214 -0.0473,-0.70587 -0.11328,-1.03906 0.0436,-0.56622 0.16567,-1.1719 0.18164,-1.72461 0.88865,-4.92692 1.89796,-9.871192 1.84961,-14.28906 -0.0315,-2.876479 -0.5341,-5.532192 -1.87109,-7.804687 -1.33699,-2.272496 -3.50835,-4.152134 -6.83789,-5.472656 -6.65909,-2.641045 -17.94907,-3.085893 -36.69922,-0.148438 -37.500312,5.87491 -104.846692,25.311332 -224.46289,68.138671 l 0.12304,0.34376 C 17.759508,98.526942 85.102778,79.094638 122.5477,73.228404 c 18.72246,-2.933117 29.96707,-2.467155 36.50781,0.126953 3.27037,1.297054 5.36581,3.118342 6.66016,5.31836 1.29435,2.200018 1.78927,4.788358 1.82031,7.625 0.0341,3.118783 -0.49367,6.539006 -1.12305,10.037109 0.10697,-1.166838 0.38323,-2.418481 0.3711,-3.527344 -0.0315,-2.876479 -0.5341,-5.534145 -1.8711,-7.80664 -1.33699,-2.272496 -3.50834,-4.150181 -6.83789,-5.470704 -6.65908,-2.641044 -17.94906,-3.085892 -36.69921,-0.148437 -37.500312,5.87491 -104.846702,25.311329 -224.4629,68.138679 l 0.12305,0.34179 C 16.644268,105.03866 83.985588,85.608309 121.43051,79.742076 c 18.72246,-2.933117 29.96903,-2.467155 36.50977,0.126953 3.27037,1.297054 5.3658,3.118342 6.66015,5.318359 1.29436,2.200018 1.78927,4.788359 1.82032,7.625 0.0153,1.399427 -0.30297,2.981711 -0.47266,4.480469 -0.21936,-2.054712 -0.64717,-4.013759 -1.64453,-5.708984 -1.33699,-2.272495 -3.50835,-4.150181 -6.83789,-5.470703 -6.65908,-2.641044 -17.94907,-3.085893 -36.69922,-0.148438 -37.500302,5.874911 -104.846692,25.311328 -224.46289,68.138678 l 0.12305,0.34179 C 16.034898,111.62069 83.378168,92.190342 120.82309,86.324107 c 18.72246,-2.933117 29.96707,-2.467154 36.50781,0.126953 3.27037,1.297054 5.36581,3.118342 6.66016,5.31836 1.23131,2.09287 1.70407,4.555228 1.77734,7.230468 -0.1046,0.732102 -0.10098,1.403132 -0.22656,2.148442 -0.29132,-1.02773 -0.60873,-2.043018 -1.14648,-2.957035 -1.33699,-2.272496 -3.50835,-4.152134 -6.83789,-5.472657 C 150.89838,90.077594 139.6084,89.632746 120.85825,92.570201 83.357938,98.44511 16.011548,117.88153 -103.60464,160.70888 l 0.12304,0.34179 C 16.126688,118.22616 83.469968,98.795809 120.91489,92.929576 c 18.72246,-2.933116 29.96902,-2.467155 36.50976,0.126953 3.27037,1.297054 5.36386,3.118342 6.65821,5.318359 0.63945,1.086889 1.0775,2.271472 1.36718,3.531252 -0.13343,0.77737 -0.28782,1.55126 -0.40234,2.32422 -1.35447,-2.03984 -3.35342,-3.77367 -6.42578,-4.99219 -6.65908,-2.641045 -17.94907,-3.085893 -36.69922,-0.148438 -37.500302,5.874908 -104.846692,25.311338 -224.46289,68.138678 l 0.12305,0.34179 C 17.191138,124.7457 84.534418,105.31339 121.97934,99.447154 c 18.72246,-2.933116 29.96707,-2.465202 36.50781,0.128906 3.15723,1.25218 5.17704,3.01099 6.48047,5.10937 -0.0141,0.0992 -0.0371,0.19981 -0.0508,0.29883 -0.007,0.0515 -0.007,0.10089 -0.0137,0.15235 -0.13886,0.75202 -0.25627,1.49817 -0.39063,2.25195 -1.01686,-0.7435 -2.1107,-1.45061 -3.51562,-2.00781 -6.65908,-2.64105 -17.95102,-3.08394 -36.70117,-0.14649 -37.500262,5.87491 -104.844702,25.30939 -224.46089,68.13673 l 0.12109,0.34375 c 119.608288,-42.82451 186.951568,-62.25682 224.39649,-68.12306 18.72246,-2.93311 29.96902,-2.46715 36.50976,0.12696 1.44072,0.5714 2.56959,1.28265 3.58594,2.04492 -0.18106,1.02814 -0.38113,2.05092 -0.53125,3.07227 -6.71908,-2.47034 -17.83123,-2.86144 -36.12109,0.004 -37.500312,5.87491 -104.844752,25.31134 -224.460942,68.13868 l 0.121094,0.34375 C 23.064188,136.49765 90.407468,117.06534 127.85239,111.19911 c 18.3149,-2.86927 29.40191,-2.45229 36.00195,-0.006 -0.0144,0.10115 -0.0388,0.20367 -0.0527,0.30468 -0.15671,1.13639 -0.23295,2.24798 -0.31446,3.36133 -6.89326,-1.28818 -16.90055,-1.12 -31.61718,1.18555 -37.500312,5.87491 -104.844752,25.31133 -224.460943,68.13867 l 0.121093,0.34179 c 119.608258,-42.82445 186.951538,-62.25481 224.39646,-68.12105 14.72255,-2.30647 24.70349,-2.45506 31.52734,-1.17578 -0.0369,0.57439 -0.0553,1.14025 -0.0645,1.70508 -0.0583,0.38118 -0.14494,0.76505 -0.19727,1.14453 -0.0544,0.39471 -0.0627,0.77547 -0.10937,1.16797 -6.57618,-0.51057 -15.09912,-0.11849 -26.78907,1.71289 -37.500302,5.87492 -104.846692,25.31134 -224.462888,68.13868 l 0.123047,0.3418 c 119.608339,-42.82451 186.951609,-62.25487 224.396531,-68.1211 11.67129,-1.82846 20.16736,-2.21452 26.69922,-1.70899 -0.15472,1.37926 -0.24708,2.73786 -0.26172,4.07032 -5.83919,-0.002 -12.94523,0.58115 -21.83984,1.97461 -37.5003,5.87491 -104.846702,25.30938 -224.462891,68.13672 l 0.123047,0.34375 C 36.216528,151.31015 103.55786,131.87784 141.00278,126.01161 c 8.88794,-1.39241 15.98414,-1.96855 21.79883,-1.96485 10e-4,1.21564 0.0374,2.41749 0.20898,3.57032 -0.0218,0.26224 -0.0574,0.52848 -0.0742,0.78906 -4.94654,0.23645 -10.43162,0.72048 -17.17773,1.77735 -37.50031,5.8749 -104.846702,25.31134 -224.462894,68.13867 l 0.123046,0.3418 C 41.027098,155.83945 108.37038,136.40909 145.8153,130.54286 c 6.71391,-1.05182 12.16902,-1.53335 17.08789,-1.76953 -0.0804,1.45957 -0.0443,2.87706 0.084,4.26172 -3.69981,0.33156 -7.752,0.82333 -12.2832,1.5332 -37.5003,5.87491 -104.846702,25.31134 -224.462892,68.13867 l 0.123047,0.34375 c 119.608283,-42.8245 186.949615,-62.25681 224.394535,-68.12304 4.51774,-0.70777 8.55614,-1.19757 12.24219,-1.52735 0.161,1.47936 0.4756,2.90051 0.9746,4.25 9.3e-4,0.0518 0.005,0.10256 0.006,0.1543 -2.65498,0.3032 -5.19108,0.5521 -8.2246,1.02734 -37.50031,5.87491 -104.844752,25.31134 -224.460944,68.13868 l 0.121093,0.34179 C 51.025128,164.48789 118.36841,145.05753 155.81333,139.1913 c 3.02001,-0.47313 5.54099,-0.71992 8.18359,-1.02149 0.0555,1.50984 0.27072,2.9582 0.625,4.35547 -1.29435,0.17932 -2.34938,0.24971 -3.72266,0.46485 -37.5003,5.8749 -104.846692,25.31134 -224.46289,68.13867 l 0.123047,0.3418 C 56.167708,168.6461 123.51098,149.21573 160.9559,143.3495 c 1.38625,-0.21717 2.45047,-0.28833 3.75586,-0.46875 0.39883,1.44006 1.01357,2.79456 1.84375,4.06445 -0.146,0.0226 -0.25152,0.0258 -0.39843,0.0488 -37.50031,5.87491 -104.846702,25.31134 -224.462897,68.13867 l 0.123047,0.3418 c 119.608288,-42.8245 186.95157,-62.25486 224.39649,-68.12109 0.16003,-0.0251 0.27464,-0.0301 0.43359,-0.0547 0.25184,1.46998 0.69922,2.86415 1.32812,4.1875 -38.10663,6.47093 -104.719272,25.88568 -220.898434,67.48242 l 0.123046,0.3418 C 63.506578,177.6681 130.14173,158.26001 168.17465,151.8202 c 0.45541,0.89397 0.87913,1.80078 1.55274,2.60743 0.27403,0.32815 0.72193,0.58294 1.03515,0.89453 0.0483,0.14857 0.0625,0.31019 0.11524,0.45703 -38.4903,6.86782 -104.630802,26.28438 -218.419925,67.02539 l 0.123047,0.3418 C 66.387848,182.39899 132.52921,162.98844 170.96762,156.1327 c 0.53602,1.38701 1.25687,2.70138 2.25977,3.90235 0.0352,0.0422 0.097,0.0733 0.13281,0.11523 -38.89798,7.31313 -104.526552,26.75036 -215.519533,66.49024 l 0.121094,0.34179 C 69.222338,187.14662 134.89683,167.71759 173.71176,160.45497 c 0.42967,0.47137 1.00593,0.88022 1.52344,1.31445 0.38583,0.90997 0.94598,1.75101 1.53516,2.58008 -39.14899,7.60382 -104.456952,27.06775 -213.548833,66.12696 l 0.123047,0.34179 C 72.555038,191.71659 137.87917,172.25902 176.96958,164.68153 c 0.13367,0.17698 0.18779,0.38587 0.33203,0.5586 0.81709,0.97846 1.90267,1.84431 3.08593,2.66797 0.10066,0.18361 0.21251,0.36297 0.32227,0.54296 -39.3189,7.81022 -104.404962,27.30029 -212.105471,65.86133 l 0.121094,0.3418 C 76.541148,196.0519 141.64375,176.56814 180.90708,168.7831 c 0.2918,0.44913 0.46225,0.947 0.8164,1.37109 0.74214,0.88871 1.76054,1.66001 2.80274,2.42187 -39.48973,8.02789 -104.349622,27.5496 -210.541021,65.57032 l 0.123047,0.34375 C 80.562368,200.37534 145.4572,180.86117 184.87778,172.8788 c 0.21727,0.14947 0.37495,0.32488 0.60547,0.46875 0.31321,0.49412 0.50687,1.03578 0.89453,1.5 1.04849,1.25556 2.45139,2.36207 4.11523,3.35742 0.2569,0.38086 0.39459,0.80942 0.69727,1.17188 1.1024,1.32012 2.62624,2.46304 4.41211,3.49414 0.2038,0.28685 0.30069,0.61648 0.53125,0.89257 1.14856,1.3754 2.77259,2.55094 4.66601,3.61133 0.15416,0.20764 0.22012,0.45051 0.38868,0.65235 1.18543,1.41955 2.88771,2.6202 4.86914,3.70312 0.11057,0.14369 0.15386,0.31423 0.27148,0.45508 1.23824,1.48279 3.04948,2.72408 5.16016,3.83789 0.042,0.0518 0.0566,0.11455 0.0996,0.16602 1.32398,1.58546 3.30405,2.89225 5.63281,4.05273 1.30099,1.48847 3.1713,2.7354 5.38476,3.83789 1.30004,1.48681 3.16826,2.73236 5.37891,3.83399 1.30174,1.48931 3.17336,2.73696 5.38867,3.83984 1.30098,1.48677 3.16875,2.73457 5.38086,3.83594 1.3005,1.48624 3.16798,2.7348 5.37891,3.83593 3.89835,4.45603 11.40465,7.38691 25.22461,7.63868 14.06917,0.2563 34.65398,-2.24319 64.56445,-8.72266 l -0.0781,-0.35352 c -29.89565,6.47627 -50.45886,8.9683 -64.47852,8.71289 -12.88112,-0.23466 -20.05524,-2.85447 -24.05859,-6.73632 4.35942,1.87873 10.24237,3.11209 18.66992,3.26562 14.06917,0.25631 34.65202,-2.24318 64.5625,-8.72266 l -0.0762,-0.35546 c -29.89565,6.47626 -50.46081,8.97024 -64.48047,8.71484 -9.16598,-0.16698 -15.31377,-1.59507 -19.66211,-3.75391 -0.0444,-0.0515 -0.12071,-0.0907 -0.16406,-0.14257 -0.41703,-0.49939 -0.63365,-1.08154 -0.96289,-1.61719 3.98854,1.16609 8.94027,1.92333 15.40039,2.04101 14.06916,0.25631 34.65398,-2.24318 64.56445,-8.72265 l -0.0781,-0.35547 c -29.89564,6.47626 -50.45885,8.97024 -64.47851,8.71484 -6.61722,-0.12055 -11.67105,-0.89491 -15.66211,-2.10547 -0.45918,-0.81383 -0.88879,-1.63969 -1.17774,-2.52343 3.27573,0.61487 6.92075,1.07371 11.45118,1.15625 14.06917,0.2563 34.65202,-2.24318 64.5625,-8.72266 l -0.0762,-0.35547 c -29.89564,6.47627 -50.46081,8.97025 -64.48046,8.71484 -4.60005,-0.0838 -8.26978,-0.5571 -11.55665,-1.1875 -0.27264,-0.91392 -0.57214,-1.8171 -0.69726,-2.79101 2.15707,0.22441 4.29185,0.45894 6.86719,0.50586 14.06917,0.2563 34.65202,-2.24318 64.5625,-8.72266 l -0.0762,-0.35547 c -29.89565,6.47627 -50.46082,8.97025 -64.48047,8.71485 -2.5876,-0.0471 -4.72856,-0.28146 -6.88672,-0.50781 -0.11126,-0.99922 -0.12914,-2.03622 -0.11914,-3.08399 0.58268,0.0212 1.01058,0.10809 1.61718,0.11914 14.06917,0.25631 34.65398,-2.24318 64.56446,-8.72265 l -0.0781,-0.35547 c -29.89564,6.47626 -50.45886,8.97024 -64.47851,8.71484 -0.61572,-0.0112 -1.04804,-0.0994 -1.63867,-0.12109 0.0242,-1.13336 0.12396,-2.29576 0.25,-3.46875 13.90625,-0.2004 33.1833,-2.67435 60.5625,-8.60547 l -0.0762,-0.35547 c -27.34035,5.92271 -46.58803,8.3932 -60.45117,8.59765 0.0538,-0.4701 0.0654,-0.92399 0.13086,-1.39843 0.10991,-0.79701 0.28399,-1.60754 0.41797,-2.41211 13.38417,-0.74783 31.0385,-3.3053 54.7207,-8.43555 l -0.0781,-0.35547 c -23.61826,5.1164 -41.2358,7.67446 -54.58008,8.42774 0.24132,-1.42225 0.47739,-2.83702 0.74023,-4.25977 12.61192,-1.10591 28.38666,-3.55391 48.77539,-7.9707 l -0.0762,-0.35547 c -20.329,4.40385 -36.05911,6.84448 -48.63476,7.95312 0.2819,-1.53073 0.39085,-2.98193 0.61718,-4.47851 11.65425,-1.31474 25.60499,-3.60566 43.04102,-7.38281 l -0.0781,-0.35547 c -17.38611,3.76633 -31.30152,6.05408 -42.92382,7.36914 0.22977,-1.57176 0.41118,-3.12036 0.48437,-4.61328 10.5179,-1.4075 22.89497,-3.60563 37.57227,-6.78516 l -0.0762,-0.35547 c -14.63298,3.16993 -26.96845,5.35933 -37.45704,6.76563 0.0183,-0.48088 0.16139,-1.02456 0.15625,-1.49414 -0.0129,-1.18173 -0.16819,-2.29634 -0.36523,-3.39258 9.54897,-1.40978 20.23801,-3.30488 32.93164,-6.05469 l -0.0781,-0.35352 c -12.68122,2.74712 -23.35665,4.63878 -32.89258,6.04688 -0.29158,-1.44151 -0.73758,-2.81132 -1.4668,-4.05078 -0.1481,-0.25174 -0.42277,-0.44372 -0.5918,-0.68555 8.95888,-1.38711 18.77414,-3.13731 30.375,-5.65039 l -0.0781,-0.35547 c -11.69068,2.53254 -21.57273,4.29336 -30.57617,5.68164 -1.31075,-1.73335 -3.09658,-3.24205 -5.74414,-4.33593 9.33328,-1.40333 19.6892,-3.24293 31.97461,-5.9043 l -0.0762,-0.35547 c -12.40222,2.68668 -22.8509,4.54136 -32.24023,5.94531 -1.29049,-1.40749 -2.87892,-2.67216 -5.17578,-3.59765 -0.27073,-0.31222 -0.49653,-0.64591 -0.81055,-0.9375 9.8329,-1.41472 20.9805,-3.38986 34.22852,-6.25977 l -0.0762,-0.35547 c -13.33915,2.88965 -24.56042,4.87754 -34.43165,6.29102 -1.15032,-0.99226 -2.5419,-1.86719 -4.29101,-2.57227 -0.67949,-0.7837 -1.47847,-1.50979 -2.44141,-2.1582 10.55089,-1.40637 22.9904,-3.61726 37.74024,-6.8125 l -0.0762,-0.35352 c -14.93779,3.23596 -27.5439,5.47572 -38.16993,6.87696 -0.77778,-0.48073 -1.47012,-1.00296 -2.4375,-1.39258 -1.30676,-1.50606 -2.95229,-2.85068 -5.36718,-3.82617 11.77349,-1.29702 25.91386,-3.60105 43.67773,-7.44922 l -0.0781,-0.35352 c -17.88745,3.87494 -32.09332,6.17914 -43.89649,7.4668 -1.28132,-1.36836 -2.84869,-2.60007 -5.0957,-3.50586 -0.62324,-0.71882 -1.31923,-1.40218 -2.17969,-2.00781 12.8082,-1.03802 29.07098,-3.54316 50.18555,-8.11719 l -0.0781,-0.35547 c -21.36765,4.62886 -37.79719,7.1519 -50.64844,8.16211 -0.66583,-0.42768 -1.3257,-0.85788 -2.13476,-1.2168 -1.13124,-1.4577 -2.68546,-2.71469 -4.76172,-3.7207 -0.23005,-0.32972 -0.53582,-0.62323 -0.80664,-0.93359 13.74848,-0.42626 32.36705,-2.91498 58.33789,-8.54102 l -0.0781,-0.35547 c -26.14631,5.66405 -44.83095,8.14629 -58.5664,8.54297 -0.96359,-1.01689 -2.19183,-1.90773 -3.67969,-2.67383 -0.87868,-1.3573 -2.18484,-2.51225 -3.77344,-3.53125 0.76184,0.0324 1.33888,0.14356 2.14258,0.15821 14.06917,0.2563 34.65398,-2.24318 64.56445,-8.72266 l -0.0781,-0.35547 c -29.89565,6.47627 -50.45886,8.97025 -64.47852,8.71484 -1.08318,-0.0197 -1.87669,-0.16093 -2.88281,-0.21289 -0.0404,-0.0229 -0.0802,-0.0457 -0.12109,-0.0684 -0.99451,-1.68675 -2.6494,-3.06138 -4.69727,-4.24609 -0.0478,-0.0863 -0.0573,-0.19018 -0.10742,-0.27539 -0.51814,-0.88069 -1.28266,-1.64572 -2.07031,-2.39844 3.16714,0.5605 6.68293,0.97239 10.98633,1.05078 14.06917,0.25631 34.65398,-2.24317 64.56445,-8.72266 l -0.0781,-0.35547 c -29.89564,6.47628 -50.45885,8.97025 -64.47851,8.71485 -4.5194,-0.0823 -8.14242,-0.53774 -11.39258,-1.14843 -0.53947,-0.46412 -1.28597,-0.82847 -1.95117,-1.23243 -0.0987,-0.19168 -0.1246,-0.41693 -0.23438,-0.60351 -0.88376,-1.50215 -2.30719,-2.74706 -4.01367,-3.85743 -0.1585,-0.34133 -0.21641,-0.7287 -0.4082,-1.05469 -0.78881,-1.34074 -1.98565,-2.48881 -3.42188,-3.52148 -0.0587,-0.14717 -0.1076,-0.29875 -0.17187,-0.44336 4.29631,3.37058 11.34264,5.57904 23.08594,5.79297 14.06917,0.2563 34.65202,-2.24318 64.5625,-8.72266 l -0.0762,-0.35547 c -29.89564,6.47627 -50.46081,8.97025 -64.48046,8.71485 -12.20185,-0.22229 -19.23789,-2.60452 -23.36915,-6.14649 -0.0869,-0.16568 -0.1079,-0.36159 -0.20312,-0.52343 -0.6026,-1.02425 -1.43691,-1.94 -2.4082,-2.78907 -0.28767,-0.97497 -0.57923,-1.94714 -1.0918,-2.81836 -0.18524,-0.31486 -0.52209,-0.55814 -0.74023,-0.85742 -0.021,-0.0784 -0.0407,-0.15746 -0.0605,-0.23633 -0.11663,-0.81943 -0.30035,-1.6083 -0.53516,-2.37304 -0.32152,-2.76447 -0.14413,-5.73076 0.27735,-8.787112 0.87357,-6.334849 2.686,-12.983369 2.62304,-18.736328 -0.0315,-2.87648 -0.5341,-5.534146 -1.87109,-7.806641 -1.33699,-2.272495 -3.50835,-4.150181 -6.83789,-5.470703 -3.32954,-1.320522 -7.81764,-2.091871 -13.81641,-2.166016 z m 18.81641,39.60156 c 0.0608,0.59264 0.17942,1.15526 0.19141,1.77344 -0.11447,-0.24833 -0.16698,-0.52531 -0.29883,-0.76563 0.0454,-0.34098 0.0686,-0.67021 0.10742,-1.00781 z m -0.1875,1.78711 c 0.13124,0.27539 0.21999,0.57161 0.33008,0.85742 -0.006,0.52674 -0.14179,1.1247 -0.17578,1.66602 -0.14521,-0.13491 -0.22018,-0.30328 -0.375,-0.43359 0.12239,-0.72235 0.11728,-1.37801 0.2207,-2.08985 z m 0.61523,1.5957 c 0.006,0.0182 0.0158,0.0345 0.0215,0.0527 0.0783,0.66654 0.28284,1.28381 0.42578,1.92579 -0.19107,-0.2264 -0.37081,-0.45795 -0.58399,-0.67383 0.0307,-0.4272 0.12184,-0.88522 0.13672,-1.30469 z m -0.88672,0.98243 c 0.15019,0.13289 0.2348,0.2961 0.375,0.43359 -0.0654,0.86485 -0.16188,1.74869 -0.27929,2.64258 -0.15923,-0.0734 -0.26254,-0.17361 -0.42774,-0.24414 -0.002,-0.23436 -0.0304,-0.45875 -0.0273,-0.69531 0.13136,-0.71494 0.23639,-1.42762 0.35937,-2.13672 z m 0.69922,0.80859 c 0.27287,0.29266 0.54236,0.58724 0.77539,0.89844 0.096,0.75826 0.23505,1.49528 0.24805,2.29687 -0.41115,-0.25134 -0.81871,-0.50379 -1.28125,-0.73047 0.11147,-0.83397 0.18963,-1.65276 0.25781,-2.46484 z m -1.45117,0.5293 c -0.01,0.25832 0.033,0.49768 0.0293,0.7539 -0.0299,0.16321 -0.0558,0.32677 -0.0859,0.49024 -0.043,-0.0169 -0.1089,-0.0223 -0.15234,-0.0391 0.0585,-0.39932 0.14448,-0.80388 0.20898,-1.20508 z m 2.81055,1.04687 c 0.0607,0.0962 0.173,0.16795 0.23047,0.26563 0.36216,0.61558 0.53104,1.32658 0.77539,2 -0.38791,-0.73366 -0.7515,-1.47715 -1.00586,-2.26563 z m -3.08203,0.51367 c 0.0432,0.0168 0.10954,0.0241 0.15234,0.041 -0.13766,0.74554 -0.25192,1.4864 -0.38672,2.23438 0.069,-0.67375 0.0952,-1.33047 0.18945,-2.01367 0.0119,-0.0864 0.0327,-0.17517 0.0449,-0.26172 z m 0.70703,0.35547 c 0.1421,0.0624 0.23375,0.14833 0.37109,0.21289 -0.1112,0.80727 -0.11197,1.55301 -0.25,2.37696 -0.11359,-0.83386 -0.0987,-1.71932 -0.12109,-2.58985 z m 2.36523,0.39649 c 0.1195,0.28965 0.34757,0.53631 0.48633,0.81836 -0.13199,-0.0926 -0.30739,-0.16416 -0.44531,-0.25391 -2.2e-4,-0.0271 0.0101,-0.0589 0.01,-0.0859 -0.002,-0.16657 -0.0457,-0.31344 -0.0508,-0.47852 z m -1.64843,0.0137 c 0.46737,0.23378 0.89526,0.48515 1.30664,0.74414 9.8e-4,0.90767 -0.2246,1.93978 -0.30469,2.89062 -0.4143,-0.12661 -0.87144,-0.23352 -1.31641,-0.3457 -0.007,-0.0345 -0.0187,-0.067 -0.0254,-0.10156 0.19351,-1.10448 0.18865,-2.10666 0.33985,-3.1875 z m -1.05665,0.18164 c 0.0487,1.02561 0.15828,2.02684 0.3418,3.00195 -0.28459,-0.0674 -0.52717,-0.1552 -0.82422,-0.2168 0.16031,-0.93029 0.31043,-1.85357 0.48242,-2.78515 z m 2.70508,0.75781 c 0.26111,0.17445 0.621,0.3035 0.85938,0.48828 0.24867,0.4453 0.48115,0.89713 0.78515,1.32031 0.11545,0.53935 0.12007,1.13536 0.1836,1.70118 -0.20509,-0.0897 -0.32249,-0.22152 -0.53711,-0.30664 -0.44583,-0.17682 -1.09384,-0.25925 -1.58203,-0.41602 0.0785,-0.91892 0.28609,-1.90406 0.29101,-2.78711 z m 1.98828,1.62305 c 0.50562,0.51833 1.01389,1.03575 1.39258,1.61328 -0.28806,-0.28912 -0.70792,-0.52514 -0.96094,-0.82813 -0.18376,-0.22005 -0.25752,-0.48561 -0.42382,-0.71289 -0.005,-0.023 -0.003,-0.0493 -0.008,-0.0723 z m -5.23828,0.76562 c 0.29894,0.062 0.54226,0.14893 0.82813,0.2168 -0.21947,1.2352 -0.41761,2.48653 -0.64649,3.73633 -0.1177,-0.0117 -0.24797,-0.0164 -0.36718,-0.0273 -0.0545,-0.76818 -0.10189,-1.53926 -0.0899,-2.33399 0.0811,-0.52862 0.18537,-1.06053 0.27539,-1.59179 z m 5.33789,0.16406 c 0.0225,0.0273 0.03,0.0606 0.0527,0.0879 0.48038,0.57526 1.21129,1.04499 1.81445,1.56836 0.10855,0.20922 0.16031,0.44652 0.25586,0.66211 -0.61282,-0.40525 -1.25887,-0.79507 -1.99609,-1.14062 -0.0389,-0.39427 -0.0644,-0.79445 -0.12696,-1.17774 z m -3.94922,0.19922 c 0.39405,0.10209 0.80916,0.19303 1.17774,0.30664 -0.0804,0.8665 -0.15021,1.72802 -0.27734,2.6211 -0.41381,-0.92941 -0.67571,-1.92097 -0.9004,-2.92774 z m -0.27929,0.36914 c 0.26406,1.09542 0.62423,2.15232 1.11719,3.15821 -0.0114,0.0756 -0.0118,0.14493 -0.0234,0.2207 -0.49423,-0.0698 -1.13194,-0.0731 -1.65625,-0.12891 0.19966,-1.08741 0.36793,-2.16989 0.5625,-3.25 z m 1.81054,0.0312 c 0.45581,0.14772 1.06947,0.22335 1.48633,0.38868 0.28882,0.11454 0.44802,0.28754 0.71875,0.41015 0.0517,0.57882 0.17896,1.11821 0.18555,1.72071 0.005,0.45203 -0.13503,0.98354 -0.15234,1.44726 -0.79714,-0.18445 -1.45823,-0.43375 -2.35352,-0.57226 -0.0627,-0.11695 -0.14601,-0.22532 -0.20508,-0.34375 0.15507,-1.04126 0.2254,-2.04042 0.32031,-3.05079 z m 2.5918,1.01954 c 0.7828,0.38021 1.52213,0.78038 2.1543,1.22851 0.32251,0.83139 0.62909,1.67221 0.79101,2.58399 -0.85507,-0.31747 -1.9389,-0.52733 -2.94531,-0.77344 0.0196,-0.49698 0.16742,-1.05802 0.16211,-1.54297 -0.006,-0.52117 -0.12334,-0.99031 -0.16211,-1.49609 z m 2.64844,1.50976 c 1.22074,0.94255 2.20686,1.9923 2.9043,3.17774 0.10649,0.181 0.13265,0.40169 0.22851,0.58789 -0.75702,-0.45289 -1.39904,-0.96083 -2.33008,-1.33008 -0.0375,-0.0148 -0.0951,-0.0204 -0.13281,-0.0352 -0.14064,-0.83844 -0.39865,-1.62236 -0.66992,-2.40039 z m -8.71875,0.3418 c 0.005,0.0867 0.004,0.17538 0.01,0.26172 -0.0115,-9.9e-4 -0.0236,-9.8e-4 -0.0351,-0.002 0.0104,-0.0875 0.0145,-0.17209 0.0254,-0.25977 z m -0.0586,0.62304 c 0.027,0.002 0.0551,0.005 0.082,0.008 0.0597,0.71129 0.17441,1.4005 0.30273,2.08594 -0.1096,0.64206 -0.23511,1.28079 -0.33203,1.91992 -0.0941,-7.6e-4 -0.22156,0.0141 -0.31641,0.0137 0.0152,-1.31451 0.10994,-2.65889 0.26367,-4.02734 z m 0.44532,0.0352 c 0.0943,0.009 0.19764,0.0142 0.29101,0.0234 -0.0706,0.3876 -0.13267,0.77053 -0.20117,1.15821 -0.0545,-0.38407 -0.0559,-0.78926 -0.0898,-1.18164 z m 0.65625,0.0508 c 0.5318,0.0562 1.17958,0.0603 1.67969,0.13086 -0.2071,1.30969 -0.31431,2.58267 -0.56055,3.92188 -0.3444,-0.0141 -0.60752,-0.0652 -0.96289,-0.0742 -0.20712,-0.6446 -0.37302,-1.30594 -0.50196,-1.98242 0.11439,-0.66661 0.22377,-1.32816 0.34571,-1.9961 z m 2.04297,0.15821 c 0.0195,0.003 0.0469,0.003 0.0664,0.006 0.40861,0.73543 0.73427,1.50401 1.29688,2.17773 0.25765,0.30854 0.6804,0.54788 0.97265,0.8418 -0.0403,0.37198 -0.0684,0.73843 -0.11718,1.11523 -0.8933,-0.087 -1.79578,-0.17071 -2.77735,-0.21679 0.24624,-1.3376 0.35159,-2.61093 0.5586,-3.92383 z m 0.50976,0.0469 c 0.808,0.13026 1.35808,0.37854 2.08203,0.54687 -0.031,0.64333 -0.14337,1.334 -0.20898,1.9961 -0.2157,-0.22533 -0.54523,-0.40516 -0.74024,-0.63868 -0.49094,-0.5879 -0.76258,-1.26652 -1.13281,-1.90429 z m 2.4375,0.63867 c 1.03096,0.25358 2.15805,0.46446 3.02344,0.79297 0.14641,0.94851 0.30135,1.89122 0.3125,2.91015 9e-4,0.0823 -0.0275,0.18093 -0.0273,0.26368 -0.61577,-0.12018 -1.21351,-0.24859 -1.88282,-0.34375 -0.61626,-0.45094 -1.15202,-0.93397 -1.65625,-1.42969 0.0762,-0.73025 0.19486,-1.48316 0.23047,-2.19336 z m 3.39844,0.9043 c 1.04936,0.41969 1.8048,0.97273 2.62305,1.49609 0.37155,0.81815 0.76072,1.62789 0.96093,2.53125 -1.00071,-0.34044 -2.12331,-0.623 -3.32031,-0.87109 2e-4,-0.11423 0.0384,-0.2478 0.0371,-0.36133 -0.0106,-0.97354 -0.1682,-1.87803 -0.30078,-2.79492 z m -8.88672,1.12304 c 0.0862,0.36067 0.16405,0.72447 0.27344,1.07617 -0.16931,-0.003 -0.28135,-0.033 -0.45313,-0.0352 0.0528,-0.3456 0.12281,-0.69415 0.17969,-1.04101 z m 5.21289,0.60157 c 0.34228,0.32447 0.70481,0.64056 1.09375,0.94531 -0.36043,-0.0465 -0.80772,-0.0525 -1.18359,-0.0918 0.0372,-0.288 0.0575,-0.56799 0.0898,-0.85352 z m 6.79297,0.0527 c 1.47576,1.02859 2.70458,2.16833 3.49609,3.51367 0.0252,0.0428 0.0301,0.0956 0.0547,0.13867 -0.64969,-0.36266 -1.15641,-0.79252 -1.92578,-1.09765 -0.22188,-0.088 -0.55484,-0.12395 -0.78711,-0.20703 -0.1746,-0.83119 -0.5241,-1.5808 -0.83789,-2.34766 z m -12.19531,0.75586 c 0.21223,0.003 0.35019,0.0386 0.55859,0.043 0.22571,0.66713 0.54633,1.29611 0.86719,1.92578 -0.14391,0.78727 -0.27241,1.56662 -0.40625,2.35351 -0.40954,0.0119 -0.84572,0.0371 -1.26758,0.0547 -0.0528,-0.27014 -0.15988,-0.51817 -0.20117,-0.79297 0.08,-0.9479 0.13407,-1.88539 0.26758,-2.85351 0.0332,-0.24071 0.0912,-0.48697 0.12695,-0.72852 0.0161,1.9e-4 0.0386,-0.002 0.0547,-0.002 z m -0.42578,0.0176 c -0.0325,0.22079 -0.0849,0.44387 -0.11524,0.66406 -0.0344,0.24956 -0.037,0.48955 -0.0684,0.73828 -0.024,-0.46175 -0.0543,-0.92137 -0.0547,-1.39258 0.0713,3.4e-4 0.1674,-0.0103 0.23829,-0.01 z m 1.36523,0.0547 c 0.29649,0.008 0.51604,0.0509 0.80469,0.0625 -0.0791,0.42899 -0.14347,0.85684 -0.22266,1.2871 -0.20851,-0.44403 -0.42015,-0.88644 -0.58203,-1.3496 z m 1.16992,0.0918 c 0.99307,0.0458 1.90166,0.12926 2.80274,0.21679 -0.17353,1.27917 -0.19612,2.4771 -0.42969,3.79492 -0.38369,-0.003 -0.89502,0.0523 -1.29102,0.0547 -0.59055,-0.72176 -0.96918,-1.53138 -1.38281,-2.32617 0.10689,-0.58239 0.19346,-1.15914 0.30078,-1.74023 z m 3.16406,0.24414 c 0.53558,0.0559 1.18396,0.0605 1.6875,0.13085 0.57684,0.41702 1.22331,0.80509 1.9004,1.17969 -0.0329,0.87687 -0.19122,1.82421 -0.28907,2.73633 -1.24568,-0.0933 -2.30887,-0.27083 -3.71679,-0.28907 0.22987,-1.29947 0.24682,-2.49109 0.41796,-3.7578 z m 2.29493,0.17968 c 0.51278,0.0787 0.89958,0.21282 1.3789,0.30664 -0.002,0.14009 -0.0433,0.30219 -0.0469,0.44336 -0.44469,-0.25014 -0.93331,-0.4813 -1.33203,-0.75 z m 1.73242,0.40039 c 1.22592,0.25501 2.38809,0.53697 3.40039,0.88867 0.0796,0.40513 0.0858,0.8478 0.13672,1.26758 -1.38369,-0.47256 -2.49498,-1.0562 -3.58985,-1.64648 0.005,-0.16342 0.0505,-0.34765 0.0527,-0.50977 z m -0.0937,0.88867 c 1.13386,0.60174 2.24752,1.21045 3.67578,1.6875 0.0427,0.43222 0.12219,0.84511 0.13867,1.29102 -1.19351,-0.20267 -2.70008,-0.25994 -4.08594,-0.37305 0.0928,-0.86853 0.2365,-1.76546 0.27149,-2.60547 z m 3.86719,0.0977 c 0.17799,0.0651 0.43985,0.0922 0.61132,0.16015 0.9095,0.36072 1.52802,0.85243 2.26368,1.29102 0.085,0.16822 0.12835,0.35701 0.20507,0.5293 -0.9566,-0.22869 -2.09323,-0.38334 -2.9375,-0.65821 -0.0487,-0.4403 -0.0634,-0.89611 -0.14257,-1.32226 z m -11.36133,0.47656 c 0.34014,0.60566 0.62608,1.23288 1.07031,1.79688 -0.43077,0.005 -0.9453,0.0473 -1.39062,0.0586 0.10596,-0.61963 0.20741,-1.23452 0.32031,-1.85547 z m 11.54487,1.22458 c 0.88629,0.28412 2.04945,0.45184 3.05469,0.68555 0.2014,0.50057 0.44415,0.98053 0.58398,1.51172 -1.0896,-0.34258 -2.18876,-0.68145 -3.5,-0.91993 -0.0141,-0.44065 -0.0996,-0.84828 -0.13867,-1.27734 z m 3.18555,0.0312 c 0.27957,0.18166 0.65009,0.32245 0.90429,0.51563 -0.26375,-0.0549 -0.51581,-0.11556 -0.77148,-0.17383 -0.0473,-0.11255 -0.0822,-0.23079 -0.13281,-0.3418 z m 0.29101,0.74805 c 0.42421,0.094 0.82193,0.20023 1.26758,0.28515 0.84693,0.73858 1.539,1.54945 2.09375,2.42383 -0.5154,-0.26565 -0.87966,-0.60385 -1.46484,-0.83594 -0.36718,-0.14562 -0.90692,-0.20972 -1.30274,-0.34179 -0.13338,-0.54028 -0.39931,-1.01919 -0.59375,-1.53125 z m -11.9414,0.0742 c 1.42098,0.0174 2.48898,0.19559 3.74218,0.28906 -0.1237,1.07896 -0.15834,2.10924 -0.33984,3.22265 -1.40815,-0.75338 -2.58596,-1.59924 -3.57422,-2.52148 0.0604,-0.33002 0.11303,-0.66136 0.17188,-0.99023 z m -0.37305,0.0156 c -0.0413,0.23023 -0.079,0.46436 -0.12109,0.69531 -0.231,-0.22848 -0.553,-0.42088 -0.76172,-0.6582 0.26828,-5.8e-4 0.62036,-0.0392 0.88281,-0.0371 z m -1.40625,0.0605 c 0.32272,0.38395 0.836,0.68776 1.21289,1.04883 -0.19207,1.04787 -0.35481,2.096 -0.54492,3.15039 -0.76252,0.0391 -1.43618,0.0384 -2.23828,0.0957 -0.1983,-0.34996 -0.45181,-0.67752 -0.61719,-1.04102 0.0265,-0.20652 0.0281,-0.40402 0.0566,-0.61132 0.11721,-0.84993 0.30115,-1.71392 0.44531,-2.57227 0.54053,-0.0139 1.16669,-0.0662 1.68555,-0.0703 z m -2.05859,0.0859 c -0.13995,0.83803 -0.31895,1.67641 -0.4336,2.50782 -0.006,0.0436 -0.006,0.0854 -0.0117,0.1289 -0.33049,-0.81894 -0.47567,-1.71362 -0.66601,-2.58984 0.36919,-0.015 0.75174,-0.0362 1.11133,-0.0469 z m -1.51368,0.0625 c 0.0111,-4.9e-4 0.0221,5e-4 0.0332,0 0.23424,1.09785 0.52484,2.1732 0.97851,3.18555 -0.0428,0.3389 -0.0573,0.66885 -0.0937,1.00586 -0.30413,0.0245 -0.53209,0.014 -0.84179,0.041 -0.12648,-1.37072 -0.15751,-2.779 -0.0762,-4.23243 z m 9.45508,0.0918 c 1.42462,0.11581 2.94927,0.18647 4.16602,0.39649 0.002,0.0796 0.0245,0.14847 0.0254,0.22851 0.0113,1.03338 -0.25212,2.21838 -0.34766,3.3086 -1.13801,-0.0694 -2.13473,-0.2054 -3.40234,-0.21485 -0.2625,-0.12196 -0.54417,-0.23575 -0.79297,-0.36328 0.18948,-1.15543 0.22338,-2.23246 0.35156,-3.35547 z m 4.54102,0.49414 c 1.35183,0.24996 2.51245,0.58828 3.61914,0.94922 0.20677,0.89899 0.25637,1.87945 0.32031,2.85156 -1.24999,-0.19221 -2.82252,-0.23612 -4.27539,-0.33398 0.0962,-1.10227 0.3611,-2.28996 0.34961,-3.33984 -4.8e-4,-0.0442 -0.013,-0.0828 -0.0137,-0.12696 z m -8.88867,0.5918 c 1.0072,0.912 2.19837,1.74629 3.60742,2.48828 -0.0113,0.0677 -0.0101,0.12752 -0.0215,0.19531 -1.25148,0.008 -2.70198,0.10798 -4.08007,0.17383 0.17311,-0.95623 0.31868,-1.90413 0.49414,-2.85742 z m 12.89648,0.45898 c 0.31456,0.10828 0.75759,0.15834 1.05273,0.27539 0.79561,0.31555 1.31867,0.75348 1.98047,1.12891 0.39952,0.73337 0.6633,1.53318 0.90625,2.34375 -1.16176,-0.34247 -2.23437,-0.72637 -3.63867,-0.95508 -0.0593,-0.94975 -0.10774,-1.9052 -0.30078,-2.79297 z m 3.52539,1.68555 c 1.4905,0.92163 2.70142,1.9698 3.56055,3.18164 -0.35165,-0.16574 -0.5735,-0.39358 -0.95508,-0.54492 -0.49715,-0.19717 -1.21372,-0.29069 -1.76367,-0.46289 -0.21286,-0.75614 -0.49935,-1.47751 -0.8418,-2.17383 z m -20.20312,0.39258 c 0.0771,0.15396 0.18441,0.2957 0.26757,0.44726 -0.1123,0.008 -0.19746,0.005 -0.31054,0.0137 0.0169,-0.15456 0.0247,-0.30586 0.043,-0.46094 z m 7.73828,0.11133 c 0.0123,0.006 0.0267,0.0114 0.0391,0.0176 -0.0125,1e-5 -0.0285,0.002 -0.041,0.002 0.001,-0.007 8.3e-4,-0.0128 0.002,-0.0195 z m 0.77343,0.35547 c 1.03914,0.47711 2.04689,0.96625 3.30274,1.35156 -0.10572,0.8829 -0.13295,1.72298 -0.27734,2.6289 -1.4186,0.0223 -2.95096,0.0967 -4.52735,0.19141 0.25681,-1.39102 0.45247,-2.76346 0.6875,-4.13672 0.24758,-5.8e-4 0.57184,-0.0368 0.81445,-0.0352 z m 0.89454,0.0137 c 0.94726,0.0178 1.65696,0.14261 2.52734,0.19531 -0.0249,0.25869 -0.0526,0.52 -0.082,0.78125 -0.9182,-0.28381 -1.6481,-0.64325 -2.44531,-0.97656 z m -2.07813,0.0371 c -0.2349,1.36748 -0.43553,2.747 -0.69141,4.13672 -0.73932,0.0469 -1.33064,0.0267 -2.10546,0.0898 -0.64544,-0.47899 -1.22895,-0.98305 -1.75,-1.51172 0.1349,-0.84641 0.2888,-1.69206 0.4414,-2.54297 1.38929,-0.0671 2.84616,-0.16377 4.10547,-0.17187 z m 4.9668,0.18554 c 1.48145,0.0992 3.08949,0.14099 4.35547,0.33789 0.0146,0.30025 0.0904,0.56881 0.0937,0.875 0.002,0.19403 -0.0643,0.42486 -0.0664,0.6211 -1.60294,-0.28729 -3.13599,-0.60212 -4.4707,-1 0.0316,-0.27907 0.0614,-0.55751 0.0879,-0.83399 z m -9.44336,0.002 c -0.13448,0.75315 -0.26937,1.49898 -0.39063,2.25 -0.16539,-0.17792 -0.42733,-0.31709 -0.58008,-0.5 -0.43001,-0.51494 -0.65537,-1.11452 -0.99218,-1.66797 0.7008,-0.0487 1.29289,-0.0473 1.96289,-0.082 z m -2.3711,0.0996 c 0.37038,0.62899 0.6347,1.30035 1.1211,1.88281 0.20861,0.24981 0.55592,0.44136 0.78711,0.68164 -0.0788,0.50198 -0.19093,1.00666 -0.25977,1.50586 -0.005,0.039 -0.006,0.0763 -0.0117,0.11523 -0.72051,0.0706 -1.58812,0.20904 -2.33789,0.29297 -0.0176,-0.0453 -0.0199,-0.0971 -0.0371,-0.14258 -0.0235,-1.40485 0.0318,-2.8397 0.18164,-4.3125 0.2031,-0.0158 0.35607,-0.009 0.55664,-0.0234 z m -0.92382,0.0391 c -0.088,0.87312 -0.20977,1.75666 -0.24219,2.61133 -0.2148,-0.84466 -0.45186,-1.6798 -0.54883,-2.57227 0.28984,-0.0253 0.50611,-0.016 0.79102,-0.0391 z m 17.46289,0.25976 c 1.44781,0.23969 2.57762,0.62156 3.75781,0.98243 0.0892,0.33738 0.17774,0.67652 0.24414,1.02539 -1.38683,-0.1413 -2.76521,-0.28488 -3.98828,-0.49414 0.003,-0.22425 0.0766,-0.48343 0.0742,-0.70508 -0.003,-0.28156 -0.0754,-0.5314 -0.0879,-0.8086 z m -4.84961,0.79493 c 1.34154,0.39703 2.86745,0.71782 4.4707,1.0039 -0.0118,0.51728 -0.13456,1.0961 -0.17187,1.62696 -1.43261,-0.0734 -2.93115,-0.11686 -4.56446,-0.0977 0.1378,-0.86952 0.16334,-1.6824 0.26563,-2.5332 z m 9.03711,0.29882 c 0.4494,0.14604 1.05533,0.22158 1.46679,0.38477 0.52725,0.20911 0.84482,0.51233 1.3125,0.74805 -0.88768,-0.055 -1.77195,-0.11137 -2.59961,-0.19141 -0.058,-0.31454 -0.10372,-0.6352 -0.17968,-0.94141 z m -4.21094,0.78516 c 1.24555,0.21224 2.65349,0.35402 4.06445,0.49609 0.077,0.45968 0.10994,0.94247 0.15235,1.41993 -1.30288,-0.18721 -2.86492,-0.25257 -4.38282,-0.33985 0.0362,-0.51567 0.15339,-1.07198 0.16602,-1.57617 z m 4.42969,0.52344 c 0.9729,0.093 1.99286,0.16606 3.04687,0.22461 0.36638,0.65371 0.57599,1.38492 0.81446,2.10156 -1.17732,-0.32835 -2.28881,-0.68885 -3.70704,-0.9043 -0.0409,-0.47854 -0.0792,-0.95915 -0.15429,-1.42187 z m -18.71485,0.13867 c 0.39584,0.38868 0.83385,0.76 1.29492,1.12109 -0.46295,0.0397 -1.04391,0.13418 -1.51953,0.17969 10e-4,-0.007 9.5e-4,-0.0142 0.002,-0.0215 0.0583,-0.42276 0.15684,-0.8541 0.22265,-1.2793 z m 22.19532,0.21094 c 1.4429,0.85557 2.61745,1.83448 3.48632,2.95312 -0.20201,-0.0882 -0.31803,-0.21699 -0.52929,-0.30078 -0.60541,-0.24011 -1.46435,-0.36154 -2.14844,-0.56445 -0.22421,-0.71712 -0.46225,-1.42713 -0.80859,-2.08789 z m -10.86329,0.85351 c 0.90686,0.0113 1.54893,0.14295 2.38672,0.18555 -0.0976,1.22612 -0.20009,2.45816 -0.39257,3.73828 -0.57109,0.0128 -1.19924,0.052 -1.79493,0.0762 -0.95083,-0.21281 -2.00782,-0.38177 -2.85156,-0.63867 0.20407,-1.11155 0.29659,-2.17459 0.47461,-3.26953 0.67652,-0.008 1.53675,-0.0998 2.17773,-0.0918 z m -2.54492,0.10743 c -0.1735,1.06167 -0.26485,2.09528 -0.46289,3.17578 -1.66623,-0.52588 -3.01057,-1.1827 -4.2832,-1.86914 0.0672,-0.37321 0.1247,-0.74203 0.19336,-1.11524 1.58878,-0.0963 3.12571,-0.16857 4.55273,-0.1914 z m 5.29297,0.10546 c 1.54739,0.0884 3.14353,0.154 4.46289,0.34571 0.0322,0.456 0.13939,0.8735 0.14453,1.34375 0.007,0.63881 -0.17854,1.38329 -0.21484,2.04492 -1.47845,-0.0651 -3.09162,-0.0704 -4.7793,-0.0391 0.18834,-1.2615 0.29034,-2.48073 0.38672,-3.69532 z m -10.2168,0.10157 c -0.0579,0.31554 -0.10715,0.62758 -0.16406,0.94336 -0.50645,-0.2848 -1.02561,-0.56427 -1.47265,-0.87305 0.59773,-0.0467 1.06066,-0.0335 1.63671,-0.0703 z m -2.1621,0.0918 c 0.58888,0.42994 1.24103,0.83352 1.93554,1.21875 -0.17884,1.00223 -0.36689,1.99694 -0.51953,2.99414 -0.9784,0.10432 -2.06714,0.25867 -3.09766,0.38672 -0.1865,-0.1942 -0.46762,-0.35046 -0.63867,-0.55078 0.0633,-1.26016 0.18785,-2.54404 0.35938,-3.8457 0.64014,-0.0614 1.34387,-0.15225 1.96094,-0.20313 z m 17.20703,0.18164 c 1.47581,0.22664 2.62208,0.60237 3.82812,0.95118 0.26133,0.8844 0.42966,1.81789 0.53516,2.78125 -1.33732,-0.18122 -2.88021,-0.26756 -4.43946,-0.34571 0.037,-0.674 0.2259,-1.42349 0.21875,-2.07617 -0.005,-0.45632 -0.11244,-0.86593 -0.14257,-1.31055 z m -19.53516,0.0664 c -0.14746,1.13129 -0.24651,2.24724 -0.31445,3.35352 -0.75851,-0.96749 -1.37817,-1.99254 -1.83594,-3.08399 0.68821,-0.0764 1.48712,-0.20444 2.15039,-0.26953 z m -2.30469,0.71289 c 0.50445,1.12567 1.08493,2.22158 1.91602,3.2168 0.005,0.006 0.0129,0.01 0.0176,0.0156 -0.008,0.17962 -0.0102,0.3565 -0.0156,0.53516 -0.44283,0.0575 -0.85622,0.10223 -1.30859,0.16406 -0.32391,-1.26207 -0.53827,-2.56724 -0.60938,-3.93164 z m 26.09766,0.28516 c 0.57997,0.17848 1.33229,0.27843 1.85156,0.48437 0.54923,0.21783 0.88252,0.53262 1.36719,0.7793 0.0629,0.0995 0.17879,0.17428 0.23828,0.27539 0.36358,0.61798 0.53248,1.33155 0.77734,2.00781 -1.18531,-0.31548 -2.34075,-0.64539 -3.76367,-0.84961 -0.0979,-0.92631 -0.2319,-1.83619 -0.4707,-2.69726 z m -19.1875,0.1289 c 1.28066,0.68175 2.6235,1.33818 4.2832,1.85938 -0.0308,0.16711 -0.055,0.33459 -0.0859,0.50195 -1.47679,0.1052 -3.06604,0.26107 -4.68164,0.42969 0.14323,-0.92748 0.31786,-1.85727 0.48438,-2.79102 z m 23.06836,1.51172 c 1.06808,0.61111 2.03088,1.27135 2.78515,2.02539 -0.58771,0.015 -1.211,0.044 -1.77929,0.0508 -0.0719,-0.021 -0.15185,-0.038 -0.22461,-0.0586 -0.23315,-0.6852 -0.43204,-1.38592 -0.78125,-2.01758 z m -18.42774,0.42774 c 0.45042,0.13645 1.03604,0.21575 1.51563,0.33984 -0.5442,0.0292 -1.02378,0.028 -1.58789,0.0664 0.0251,-0.13579 0.0472,-0.27058 0.0723,-0.40625 z m 7.85352,0.43945 c 0.74508,0.009 1.26263,0.12187 1.96094,0.15234 -0.0152,0.23451 -0.0564,0.48375 -0.0762,0.72071 -1.65544,-0.15335 -3.2931,-0.31343 -4.72265,-0.56055 0.0104,-0.0663 0.009,-0.12719 0.0195,-0.19336 0.88929,-0.0168 1.98881,-0.12945 2.81836,-0.11914 z m -3.18555,0.13281 c -0.005,0.0336 -0.006,0.064 -0.0117,0.0977 -0.1304,-0.0236 -0.23668,-0.0557 -0.36523,-0.0801 0.12111,-0.003 0.25693,-0.0148 0.37695,-0.0176 z m 5.50781,0.0469 c 1.58857,0.079 3.16197,0.16603 4.51563,0.35156 0.0216,0.23955 0.0626,0.46914 0.0762,0.71289 -1.71054,-0.0501 -3.15502,-0.21311 -4.66797,-0.3457 0.0197,-0.23672 0.061,-0.48423 0.0762,-0.71875 z m -7.2832,0.0293 c 0.57729,0.12822 1.10936,0.27543 1.72656,0.38672 -0.18361,1.14362 -0.2746,2.25178 -0.48828,3.41797 -1.54064,0.11875 -3.30584,0.33922 -4.99414,0.52539 0.23228,-1.40138 0.46858,-2.79836 0.72852,-4.20312 1.07812,-0.0739 2.022,-0.0862 3.02734,-0.12696 z m -3.40039,0.14258 c -0.26118,1.41421 -0.49971,2.82148 -0.73242,4.23633 -0.419,0.0471 -0.87644,0.11078 -1.30469,0.16211 -1.028,-0.43554 -2.11984,-0.84522 -2.95898,-1.35742 0.0627,-0.58027 0.0811,-1.14337 0.16211,-1.73047 0.0399,-0.28916 0.10883,-0.58465 0.15234,-0.875 1.61148,-0.16877 3.20915,-0.32992 4.68164,-0.43555 z m 15.56641,0.20703 c 1.16265,0.16879 2.0887,0.44379 3.08594,0.6875 -0.7431,0.001 -1.67553,0.0832 -2.38477,0.0703 -0.23486,-0.004 -0.39381,-0.0411 -0.625,-0.0469 -0.0129,-0.24274 -0.0554,-0.47184 -0.0762,-0.71094 z m -10.08203,0.11719 c 1.43226,0.24663 3.07163,0.40559 4.72461,0.55859 -0.0777,0.84474 -0.147,1.68644 -0.26954,2.55664 -1.58719,0.0444 -3.149,0.0757 -4.92578,0.20704 0.20738,-1.13152 0.2917,-2.20857 0.47071,-3.32227 z m -14.25391,0.0566 c 0.0555,0.0623 0.14221,0.1121 0.19922,0.17383 -0.0642,0.008 -0.12704,0.0152 -0.19141,0.0234 0.002,-0.0676 -0.0104,-0.12948 -0.008,-0.19727 z m 3.71094,0.10156 c -0.0385,0.25919 -0.0991,0.52094 -0.13477,0.7793 -0.0748,0.54276 -0.0908,1.0671 -0.15039,1.60547 -0.96394,-0.61487 -1.64637,-1.34356 -2.375,-2.05274 0.88018,-0.1076 1.81867,-0.242 2.66016,-0.33203 z m -3.14063,0.39258 c 0.83026,0.84165 1.68009,1.67534 2.81836,2.38672 -0.0542,0.52592 -0.11107,1.05244 -0.14648,1.57227 -1.02381,0.14179 -1.87227,0.20499 -2.94531,0.36914 -0.0163,-0.0242 -0.0288,-0.0499 -0.0449,-0.0742 -0.19975,-1.34582 -0.26069,-2.74754 -0.23047,-4.18555 0.18473,-0.0236 0.36579,-0.0455 0.54883,-0.0684 z m 18.76953,0.0332 c 1.539,0.13481 3.00696,0.29972 4.7461,0.3496 0.009,0.22831 0.0678,0.43043 0.0703,0.66211 0.005,0.46493 -0.13783,1.01102 -0.15625,1.48829 -1.50737,-0.0567 -3.20516,-0.026 -4.92578,0.0156 0.11924,-0.85408 0.18946,-1.68349 0.26562,-2.51562 z m -19.67968,0.0801 c -0.0223,1.14509 0.0127,2.26937 0.13086,3.36328 -0.57935,-1.01869 -1.049,-2.08231 -1.36524,-3.20898 0.42652,-0.0581 0.81641,-0.10003 1.23438,-0.1543 z m 31.13476,0.17188 c 0.11637,0.12659 0.22511,0.25665 0.33399,0.38672 -0.07,-0.0287 -0.1067,-0.0734 -0.17774,-0.10157 -0.28015,-0.11111 -0.69738,-0.15651 -0.99414,-0.25976 0.27399,-0.006 0.55961,-0.0177 0.83789,-0.0254 z m -2.14258,0.0625 c 0.006,-7e-5 0.0133,7e-5 0.0195,0 0.68317,0.20156 1.54308,0.32201 2.14453,0.56055 0.40938,0.16236 0.64626,0.40158 1.01953,0.58007 0.13993,0.20484 0.37331,0.36611 0.49804,0.57813 0.30026,0.51034 0.42417,1.10774 0.64258,1.6582 -1.18188,-0.29887 -2.36803,-0.59558 -3.77929,-0.78711 -0.11411,-0.89455 -0.2933,-1.75893 -0.54493,-2.58984 z m -0.38281,0.0117 c 0.2538,0.81528 0.4438,1.66434 0.56055,2.54883 -1.36452,-0.17442 -2.87968,-0.27838 -4.4707,-0.34766 0.019,-0.48938 0.16538,-1.04183 0.16015,-1.51953 -0.002,-0.21966 -0.0603,-0.41383 -0.0684,-0.63086 0.21379,0.005 0.36126,0.039 0.57813,0.043 0.96433,0.0176 2.21379,-0.085 3.24023,-0.0937 z m 4.41406,1.61328 c 1.33662,0.7433 2.45327,1.58847 3.31836,2.54687 -0.74059,-0.28593 -1.73894,-0.45055 -2.5957,-0.68164 -0.23302,-0.62523 -0.38875,-1.28653 -0.72266,-1.86523 z m -28.94531,0.57422 c 0.66525,0.3988 1.53607,0.71076 2.3125,1.0625 -0.81052,0.10021 -1.59784,0.18944 -2.4414,0.30468 0.0315,-0.45152 0.083,-0.91009 0.1289,-1.36718 z m 18.65039,0.22851 c 0.59737,0.007 1.00505,0.1 1.57227,0.1211 -0.0561,1.13658 -0.21644,2.33249 -0.3711,3.52343 -0.45469,0.015 -0.92484,0.0387 -1.39453,0.0606 -1.23489,-0.0645 -2.42,-0.15052 -3.54297,-0.26172 0.20289,-1.13948 0.22284,-2.18662 0.38477,-3.30273 1.07142,-0.0262 2.3649,-0.15289 3.35156,-0.14063 z m 1.9336,0.15039 c 1.62062,0.07 3.16578,0.17298 4.54687,0.35157 0.08,0.71602 0.22417,1.39873 0.23242,2.15234 0.003,0.28427 -0.0898,0.62118 -0.0957,0.91016 -1.53024,-0.0482 -3.30294,0.0152 -5.04883,0.0664 0.15103,-1.17434 0.30948,-2.35365 0.36524,-3.48047 z m -5.65235,0.006 c -0.1612,1.10242 -0.18367,2.13086 -0.38476,3.25977 -1.79809,-0.18748 -3.44355,-0.43684 -4.9668,-0.73828 0.14152,-0.77396 0.25829,-1.54089 0.40039,-2.3125 1.79098,-0.13325 3.35437,-0.16391 4.95117,-0.20899 z m -5.32617,0.22461 c -0.13586,0.73832 -0.24743,1.47503 -0.38281,2.2168 -1.66471,-0.344 -3.34931,-0.67931 -4.70508,-1.15039 0.0277,-0.17723 0.063,-0.35566 0.0918,-0.53321 1.68477,-0.18642 3.45923,-0.41397 4.99609,-0.5332 z m 15.89258,0.15039 c 1.47027,0.20182 2.6891,0.5177 3.90234,0.83594 0.26485,0.74495 0.52499,1.49371 0.66602,2.30078 -0.88449,0.0427 -1.67897,0.0483 -2.52344,0.0742 -0.64753,-0.0455 -1.22582,-0.12462 -1.91602,-0.15039 0.006,-0.30048 0.10285,-0.64551 0.0996,-0.94141 -0.008,-0.73816 -0.1523,-1.41265 -0.22851,-2.11914 z m -21.26563,0.42964 c -0.0177,0.11012 -0.0393,0.22006 -0.0566,0.33008 -0.20702,-0.0753 -0.35276,-0.17575 -0.55273,-0.25391 0.19807,-0.023 0.41333,-0.0541 0.60937,-0.0762 z m -1.29101,0.16211 c 0.40868,0.17118 0.7309,0.37878 1.16992,0.53711 -0.0589,0.38501 -0.14636,0.77296 -0.19922,1.15625 -0.10972,0.79565 -0.14545,1.56808 -0.2207,2.35351 -0.89908,0.12992 -1.60122,0.16979 -2.53711,0.31641 -0.17186,0.0269 -0.39525,0.078 -0.56836,0.10547 -0.28896,-0.18981 -0.45827,-0.42805 -0.72461,-0.62695 -0.0593,-1.13154 -0.0969,-2.27166 -0.0254,-3.45508 1.07474,-0.14715 2.08447,-0.264 3.10547,-0.38672 z m 26.88672,0.35742 c 0.81597,0.22823 1.80614,0.37719 2.50976,0.65625 0.20943,0.0831 0.32161,0.20956 0.52149,0.29688 0.26755,0.35077 0.65926,0.64424 0.8789,1.01757 0.012,0.0204 0.0135,0.0459 0.0254,0.0664 -1.20529,0.0861 -2.19783,0.0829 -3.33593,0.14063 -0.13002,-0.75818 -0.36286,-1.46893 -0.59961,-2.17774 z m -30.35938,0.0762 c -0.0619,1.05333 -0.0223,2.06855 0.0176,3.08594 -0.78779,-0.62866 -1.64973,-1.22842 -2.24023,-1.93555 -0.20996,-0.25142 -0.29715,-0.55362 -0.48438,-0.81445 0.98426,-0.14984 1.76462,-0.20513 2.70703,-0.33594 z m 4.98438,0.25977 c 1.35894,0.46858 3.04914,0.7968 4.70703,1.13867 -0.0949,0.5237 -0.18113,1.04097 -0.27149,1.56445 -1.57164,0.18386 -3.1272,0.36086 -4.82812,0.60352 0.0734,-0.75391 0.1053,-1.49179 0.21094,-2.25781 0.0478,-0.34648 0.12871,-0.70067 0.18164,-1.04883 z m -7.62696,0.88476 c 0.0595,0.0743 0.0792,0.16474 0.14063,0.23829 0.67231,0.80508 1.62204,1.49366 2.53906,2.19531 0.0125,0.21536 0.007,0.43709 0.0254,0.65039 -0.4823,0.0785 -1.07058,0.20619 -1.5625,0.28906 -0.51741,-1.06851 -0.8848,-2.19826 -1.14258,-3.37305 z m 36.96289,0.26172 c 0.28816,0.14886 0.55229,0.30995 0.81836,0.46875 -0.14586,0.011 -0.32972,0.0382 -0.47461,0.0488 -0.0373,-0.0664 -0.0433,-0.14714 -0.082,-0.21289 -0.0657,-0.11164 -0.19196,-0.19496 -0.26172,-0.30469 z m -24.27148,0.0723 c 1.52669,0.30158 3.17143,0.55261 4.9668,0.74023 -0.006,0.0323 -0.01,0.0654 -0.0156,0.0977 -1.57912,0.12938 -3.46993,0.40081 -5.20117,0.59961 0.0835,-0.48047 0.16262,-0.95634 0.25,-1.4375 z m 25.63281,0.70508 c 0.81713,0.53601 1.54128,1.11603 2.14844,1.74804 -0.77333,-0.28526 -1.76013,-0.46991 -2.65625,-0.69726 -0.13158,-0.317 -0.2147,-0.65629 -0.37305,-0.96094 0.26941,-0.0199 0.60811,-0.0685 0.88086,-0.0898 z m -20.29883,0.0625 c 0.14678,0.0146 0.31428,0.0214 0.46289,0.0351 -0.17091,0.0128 -0.29994,0.006 -0.47265,0.0195 0.003,-0.0182 0.006,-0.0365 0.01,-0.0547 z m 9.18164,0.0332 c 0.026,3.2e-4 0.0424,0.006 0.0684,0.006 -0.19597,8.6e-4 -0.43137,0.0177 -0.625,0.0176 0.16614,9.9e-4 0.39281,-0.0255 0.55664,-0.0234 z m 9.86719,0.0312 c 0.13656,0.25496 0.19557,0.54792 0.3125,0.8125 -1.04269,-0.24758 -2.063,-0.50654 -3.27734,-0.67383 1.00839,-0.0544 1.90491,-0.0624 2.96484,-0.13867 z m -15.41601,0.20313 c 0.45775,0.0236 0.83924,0.0786 1.3125,0.0957 -0.16666,1.20367 -0.18148,2.32504 -0.40039,3.5625 -1.60231,0.13724 -3.58329,0.44668 -5.33985,0.6543 0.24834,-1.39053 0.46928,-2.77277 0.7207,-4.15626 1.35833,-0.10775 2.4589,-0.0985 3.70704,-0.15624 z m 9.01953,0.0352 c 0.88976,0.0622 1.82057,0.10486 2.63086,0.20313 0.11735,0.8572 0.27125,1.69615 0.28125,2.60937 0.002,0.14398 -0.048,0.31573 -0.0488,0.46094 -1.54974,-0.0419 -3.38062,0.0449 -5.14844,0.10351 0.1325,-1.11416 0.30837,-2.25136 0.34961,-3.32031 0.62418,-0.01 1.2885,-0.0371 1.93555,-0.0566 z m -2.30078,0.0664 c -0.0421,1.06693 -0.21524,2.20882 -0.34961,3.32617 -1.67178,0.0615 -3.20637,0.0599 -5.08203,0.21484 0.21492,-1.21758 0.22468,-2.33045 0.38867,-3.51953 0.44491,0.0142 0.76404,0.0815 1.22265,0.0898 1.13698,0.0207 2.59677,-0.0954 3.82032,-0.11133 z m -10.79883,0.0703 c -0.25276,1.39017 -0.47568,2.78598 -0.72461,4.1875 -1.36225,0.16389 -2.68687,0.31031 -4.14453,0.51758 -0.30915,-0.0698 -0.63212,-0.13444 -0.92969,-0.20899 0.0396,-0.3239 0.0449,-0.63506 0.0898,-0.96093 0.1335,-0.96803 0.34058,-1.95127 0.50782,-2.92969 1.72643,-0.1989 3.62688,-0.4757 5.20117,-0.60547 z m 16.09765,0.0957 c 1.43933,0.18576 2.67511,0.46272 3.87305,0.75782 0.33978,0.85339 0.65583,1.71907 0.82422,2.6582 -1.39676,-0.15941 -2.84509,-0.29437 -4.4707,-0.34766 9.6e-4,-0.15597 0.0525,-0.33749 0.0508,-0.49219 -0.01,-0.89735 -0.16487,-1.72652 -0.27735,-2.57617 z m -21.67773,0.5586 c -0.16075,0.94709 -0.36073,1.89291 -0.49023,2.83203 -0.0433,0.31427 -0.0475,0.61677 -0.0859,0.92969 -1.62861,-0.42415 -3.08527,-0.91714 -4.37891,-1.47852 0.0266,-0.55184 0.10608,-1.12455 0.15625,-1.68555 1.69316,-0.2421 3.23434,-0.41403 4.79883,-0.59765 z m 25.98047,0.3125 c 0.96848,0.2549 2.09366,0.44 2.91015,0.76367 0.42376,0.49559 0.96108,0.93821 1.28126,1.48242 0.18206,0.30946 0.2373,0.6814 0.38867,1.00586 -1.1768,-0.27036 -2.42579,-0.50822 -3.81836,-0.67773 -0.15669,-0.9032 -0.4507,-1.74239 -0.76172,-2.57422 z m -34.92383,0.25 c 0.0942,0.0676 0.1532,0.15032 0.25,0.21679 -0.0735,0.0118 -0.1665,0.0311 -0.24023,0.043 -0.007,-0.0851 -0.004,-0.17433 -0.01,-0.25976 z m 3.77539,0.082 c -0.0432,0.49148 -0.11335,0.99102 -0.13867,1.47656 -0.83297,-0.37785 -1.78332,-0.70732 -2.48438,-1.13867 0.0533,-0.008 0.12261,-0.0249 0.17579,-0.0332 0.90308,-0.14148 1.57865,-0.17889 2.44726,-0.30469 z m -3.17383,0.43945 c 0.83859,0.54182 1.96968,0.95927 3,1.41992 -0.0354,0.84525 0.0472,1.64776 0.0801,2.46875 -0.71437,0.1198 -1.54043,0.29078 -2.27539,0.41992 -0.19322,-0.17082 -0.41043,-0.33148 -0.58984,-0.50781 -0.37804,-1.1855 -0.66256,-2.40838 -0.79102,-3.69531 0.17704,-0.0286 0.40044,-0.0774 0.57617,-0.10547 z m -0.93554,0.17188 c 0.11271,1.11522 0.3786,2.17116 0.67382,3.21679 -0.17152,-0.18384 -0.44162,-0.32838 -0.5996,-0.51758 -0.63047,-0.75498 -1.02078,-1.60933 -1.45508,-2.44531 0.43383,-0.0729 0.95456,-0.18445 1.38086,-0.2539 z m 39.09961,0.34961 c 1.63377,0.76851 2.93195,1.6896 3.95703,2.73437 -0.0641,0.007 -0.12555,0.0127 -0.18946,0.0195 -0.76857,-0.2737 -1.71271,-0.46566 -2.59961,-0.68359 -0.18642,-0.42565 -0.26713,-0.9003 -0.5039,-1.30274 -0.16604,-0.28222 -0.47166,-0.49783 -0.66406,-0.76757 z m -34.8086,1.0625 c 1.29687,0.55469 2.75691,1.04039 4.375,1.45898 -0.004,0.0302 -0.004,0.0597 -0.008,0.0898 -0.59994,0.0892 -1.05398,0.11249 -1.66992,0.20899 -0.78939,0.12367 -1.79529,0.34469 -2.61133,0.48047 -0.0285,-0.74622 -0.11485,-1.46929 -0.0859,-2.23828 z m 25.57617,0.10742 c 0.34803,0.004 0.57828,0.0613 0.91602,0.0703 -0.0138,0.7846 -0.19046,1.65925 -0.26172,2.47461 -1.77131,0.0727 -3.54452,0.14657 -5.15234,0.15039 0.13991,-0.86562 0.15712,-1.66971 0.26367,-2.51758 1.3825,-0.0462 2.98782,-0.19322 4.23437,-0.17773 z m 1.27539,0.0996 c 1.65811,0.0537 3.13505,0.18799 4.55079,0.35156 0.0945,0.60211 0.16185,1.21801 0.19921,1.84961 -1.80203,0.13421 -3.35109,0.16231 -5.00585,0.23437 0.0693,-0.80339 0.24169,-1.65906 0.25585,-2.43554 z m -5.875,0.0937 c -0.10767,0.84796 -0.12457,1.64554 -0.26562,2.51367 -0.64874,-3.9e-4 -1.47107,0.0719 -2.09375,0.0606 -1.17126,-0.0213 -2.03592,-0.17151 -3.11719,-0.23047 0.13145,-0.71071 0.24298,-1.42072 0.36914,-2.12696 1.8908,-0.15711 3.42534,-0.15446 5.10742,-0.21679 z m -5.48242,0.23242 c -0.12353,0.69043 -0.23284,1.39005 -0.36133,2.08594 -1.77272,-0.10478 -3.62089,-0.17891 -5.16015,-0.38086 0.0589,-0.3488 0.11998,-0.69546 0.18164,-1.04492 1.75182,-0.20774 3.74228,-0.52252 5.33984,-0.66016 z m 16.27539,0.0547 c 1.45176,0.17886 2.72947,0.43622 3.93946,0.72461 0.0898,0.21318 0.17396,0.42941 0.25195,0.64843 -1.30202,0.1237 -2.76849,0.31627 -4,0.41016 -0.0363,-0.6074 -0.10292,-1.20004 -0.19141,-1.7832 z m -21.99218,0.65429 c -0.0569,0.3242 -0.1135,0.64492 -0.16797,0.96875 -1.07482,-0.14713 -1.89386,-0.3994 -2.85938,-0.59179 1.0479,-0.14354 2.03054,-0.25664 3.02735,-0.37696 z m 26.36132,0.1836 c 0.47597,0.12132 0.9748,0.23316 1.41407,0.37109 -0.4067,0.0415 -0.82267,0.0863 -1.22266,0.125 -0.0584,-0.16782 -0.12626,-0.33137 -0.19141,-0.49609 z m -30.45507,0.32617 c 1.264,0.28289 2.40371,0.6184 3.86328,0.81836 -0.12619,0.76464 -0.29183,1.53013 -0.39649,2.28906 -0.0283,0.20535 -0.0303,0.40263 -0.0566,0.60742 -0.36867,0.056 -0.64102,0.0683 -1.01562,0.12696 -1.09008,0.17077 -2.46441,0.47012 -3.60547,0.66406 -0.008,-1.42784 0.065,-2.88799 0.22851,-4.38281 0.35153,-0.0518 0.6364,-0.0738 0.98243,-0.12305 z m -1.35157,0.16797 c -0.16164,1.49837 -0.22984,2.96441 -0.21875,4.40429 -0.10803,0.0185 -0.23135,0.0438 -0.33984,0.0625 -1.31463,-0.47814 -2.46811,-1.02206 -3.50977,-1.61132 -0.10617,-0.70271 -0.12576,-1.43986 -0.16406,-2.16993 0.82976,-0.1382 1.8522,-0.36262 2.6543,-0.48828 0.58239,-0.0912 1.01011,-0.11256 1.57812,-0.19726 z m 34.22657,0.13867 c 0.20522,0.0741 0.50453,0.10565 0.70117,0.18359 0.42398,0.49578 0.96093,0.93993 1.28125,1.48438 0.1821,0.30951 0.23728,0.68133 0.38867,1.00586 -1.2143,-0.27903 -2.51853,-0.51793 -3.96289,-0.68946 -0.11333,-0.61453 -0.31577,-1.18778 -0.5,-1.76953 0.68533,-0.0665 1.38686,-0.13997 2.0918,-0.21484 z m -2.46289,0.25391 c 0.18136,0.56099 0.39251,1.10799 0.50585,1.70312 -1.42336,-0.15836 -2.8739,-0.30453 -4.5332,-0.35352 -2.6e-4,-0.0486 0.0162,-0.10581 0.0156,-0.15429 -0.003,-0.27011 -0.0724,-0.50929 -0.084,-0.77539 1.26159,-0.0962 2.76062,-0.29251 4.09571,-0.41992 z m -26.18555,0.28515 c 1.54153,0.20245 3.38983,0.27353 5.16015,0.37891 -0.10981,0.59465 -0.19893,1.18517 -0.30664,1.78125 -1.75562,0.21567 -3.38782,0.37494 -5.30078,0.66211 0.0225,-0.17298 0.0229,-0.33821 0.0469,-0.51172 0.10528,-0.76345 0.2728,-1.54007 0.40039,-2.31055 z m -10.17188,0.0742 c 0.0345,0.63671 0.0163,1.29234 0.10157,1.91016 -0.79288,-0.47219 -1.39721,-1.01981 -2.03907,-1.55274 0.62348,-0.10893 1.329,-0.25527 1.9375,-0.35742 z m 31.90235,0.0977 c 0.0109,0.2556 0.0772,0.48232 0.0801,0.74218 4.2e-4,0.0385 -0.0139,0.0845 -0.0137,0.12305 -1.56623,-0.0373 -3.44176,0.0666 -5.22851,0.13086 0.0281,-0.25325 0.0563,-0.50672 0.0801,-0.75781 1.67848,-0.0724 3.25303,-0.10201 5.08203,-0.23828 z m 8.54687,0.002 c 1.68131,0.79033 3.00021,1.74414 4.03906,2.82617 -0.83498,-0.30811 -1.89059,-0.51349 -2.86914,-0.7539 -0.18642,-0.42565 -0.26713,-0.9003 -0.5039,-1.30274 -0.16649,-0.28299 -0.47302,-0.49909 -0.66602,-0.76953 z m -24.75,0.23242 c 1.09857,0.0604 1.98209,0.2127 3.17188,0.23438 0.61441,0.0112 1.42496,-0.0611 2.06445,-0.0606 -0.0491,0.29556 -0.0383,0.55625 -0.0898,0.85352 -1.63245,0.14398 -3.6505,0.46343 -5.44141,0.67968 0.10371,-0.57126 0.18933,-1.13636 0.29492,-1.70703 z m 10.75586,0.0137 c -0.0242,0.25284 -0.0514,0.50839 -0.0801,0.76368 -1.7087,0.0676 -3.24053,0.0526 -5.16015,0.21679 0.0497,-0.28749 0.0405,-0.54396 0.0879,-0.83008 1.60726,-0.003 3.38323,-0.0785 5.15234,-0.15039 z m -28.8457,0.0957 c 0.78282,0.6758 1.59815,1.33796 2.60742,1.91797 0.10967,0.67751 0.31715,1.31737 0.5,1.96679 -0.28845,0.053 -0.57567,0.10578 -0.86719,0.16016 -0.0838,-0.0949 -0.22432,-0.16743 -0.30468,-0.26367 -0.95953,-1.14903 -1.66447,-2.40461 -2.18555,-3.73438 0.0812,-0.0144 0.16905,-0.0326 0.25,-0.0469 z m 33.61133,0.83008 c 0.27011,0.003 0.44703,0.0485 0.71093,0.0547 -0.007,1.14304 -0.25517,2.41915 -0.38281,3.62696 -1.73457,0.0721 -3.28595,0.0615 -5.23633,0.23242 0.21811,-1.28723 0.24123,-2.47523 0.38867,-3.72461 1.48532,-0.0539 3.18929,-0.20598 4.51954,-0.18945 z m 1.07031,0.084 c 1.69238,0.0492 3.17064,0.19497 4.61328,0.35742 0.16695,0.9964 0.31591,2.00039 0.33008,3.07617 -1.5884,-0.0349 -3.5044,0.0795 -5.31836,0.14844 0.12443,-1.1928 0.36694,-2.44623 0.375,-3.58203 z m -5.95508,0.12109 c -0.15041,1.26036 -0.17236,2.44978 -0.39453,3.75391 -1.66033,0.14947 -3.68282,0.46578 -5.50586,0.68945 0.25921,-1.4146 0.4868,-2.82647 0.73242,-4.22656 1.92744,-0.16558 3.45484,-0.14854 5.16797,-0.2168 z m -5.54687,0.25782 c -0.24594,1.39709 -0.47397,2.8164 -0.73243,4.23242 -0.48936,0.061 -0.96745,0.11711 -1.46875,0.18359 -1.35053,-0.0661 -2.62932,-0.16195 -3.84765,-0.2832 0.17204,-1.14578 0.38977,-2.29767 0.59765,-3.45313 1.79736,-0.21776 3.81424,-0.53482 5.45118,-0.67968 z m 16.48046,0.006 c 1.50436,0.18078 2.83682,0.43905 4.08399,0.73633 0.35041,0.83189 0.69733,1.66592 0.87891,2.58203 -0.22506,0.0249 -0.43513,0.0443 -0.65821,0.0684 -1.2767,-0.12493 -2.51375,-0.26807 -3.97265,-0.30859 -0.0127,-1.07179 -0.16949,-2.07596 -0.33204,-3.07813 z m -22.30859,0.72071 c -0.20243,1.13093 -0.41568,2.25471 -0.58398,3.3789 -1.76192,-0.1845 -3.37752,-0.4285 -4.875,-0.72265 0.0556,-0.66332 0.10417,-1.32416 0.1875,-1.99805 1.90591,-0.28684 3.52236,-0.44263 5.27148,-0.6582 z m -14.32227,0.0937 c 0.84301,0.4605 1.76936,0.88475 2.77735,1.27539 -0.75405,0.13165 -1.5676,0.28996 -2.34375,0.43164 -0.15985,-0.56274 -0.33034,-1.12125 -0.4336,-1.70703 z m 41.14258,0.0351 c 1.0515,0.26798 2.247,0.471 3.12305,0.81836 5.1e-4,2.1e-4 0.001,-2e-4 0.002,0 0.36087,0.4223 0.80476,0.80585 1.08985,1.26368 -1.22377,0.15407 -2.23616,0.21826 -3.40625,0.34961 -0.16802,-0.85738 -0.49596,-1.64111 -0.8086,-2.43165 z m -32.46093,0.57618 c -0.0769,0.62963 -0.12092,1.2489 -0.17383,1.87109 -1.51457,-0.31064 -3.13579,-0.57626 -4.39453,-0.99219 -6.8e-4,-0.0308 -0.003,-0.061 -0.004,-0.0918 1.15512,-0.19653 2.54575,-0.49913 3.64844,-0.67188 0.34091,-0.0534 0.58785,-0.0641 0.92383,-0.11523 z m 36.50976,0.76953 c 0.41421,0.1947 0.74889,0.42511 1.12109,0.63867 -0.18965,0.0246 -0.3331,0.0287 -0.52148,0.0527 -0.15207,-0.25336 -0.42605,-0.44821 -0.59961,-0.6914 z m -41.83984,0.1582 c 0.1534,0.0552 0.25102,0.1339 0.4082,0.1875 0.0394,1.31023 0.19117,2.57752 0.44727,3.80664 -1.26015,-0.64479 -2.35732,-1.35447 -3.29102,-2.13086 -0.17803,-0.42865 -0.25503,-0.89851 -0.39258,-1.34375 0.93613,-0.17082 1.92425,-0.36332 2.82813,-0.51953 z m 0.77734,0.33203 c 1.25156,0.40771 2.84958,0.66973 4.34375,0.97461 -0.0576,0.75046 -0.0995,1.49373 -0.11133,2.22852 -1.18075,0.20532 -2.44432,0.44763 -3.67968,0.67773 -0.0173,-0.008 -0.0355,-0.017 -0.0527,-0.0254 -0.27902,-1.24 -0.45193,-2.52218 -0.5,-3.85547 z m -3.96094,0.25391 c 0.081,0.26469 0.11032,0.54928 0.20508,0.80859 -0.2586,-0.23692 -0.57557,-0.45018 -0.80859,-0.69726 0.20215,-0.0375 0.40284,-0.0745 0.60351,-0.11133 z m 46.68946,0.20508 c 0.90699,0.57237 1.71453,1.19107 2.37304,1.87695 -0.83472,-0.30801 -1.889,-0.51355 -2.86718,-0.75391 -0.14766,-0.33722 -0.22141,-0.70847 -0.40039,-1.03125 0.32359,-0.0414 0.56719,-0.0488 0.89453,-0.0918 z m -1.26367,0.1289 c 0.15639,0.27335 0.20897,0.59794 0.34179,0.88282 -0.95638,-0.21979 -1.87476,-0.45774 -2.97265,-0.61133 0.91529,-0.10638 1.6836,-0.15153 2.63086,-0.27149 z m -9.63086,0.0937 c 0.23004,0.003 0.37992,0.042 0.60546,0.0469 -2e-5,0.13375 -0.0429,0.291 -0.0449,0.42578 -1.80172,0.15937 -3.69801,0.35807 -5.36133,0.45898 0.031,-0.24671 0.0488,-0.48755 0.0762,-0.73242 1.5606,-0.0598 3.33371,-0.2165 4.72461,-0.19922 z m 0.96679,0.0742 c 0.7262,0.0199 1.29312,0.11322 1.97266,0.1543 -0.66327,0.0658 -1.36651,0.14886 -2.01172,0.20703 0.002,-0.11495 0.0389,-0.24705 0.0391,-0.36133 z m -6.05859,0.13867 c -0.0277,0.24432 -0.0449,0.48409 -0.0762,0.73047 -1.89209,0.1103 -3.5355,0.11525 -5.25391,0.15235 0.0387,-0.21865 0.0561,-0.42852 0.0937,-0.64649 1.9494,-0.17124 3.50434,-0.16382 5.23633,-0.23633 z m -22.04102,0.16016 c 1.49217,0.2916 3.09849,0.53532 4.84571,0.71875 -0.0239,0.16484 -0.0632,0.33159 -0.0859,0.49609 -0.1851,0.0286 -0.31928,0.0333 -0.50586,0.0625 -1.31852,0.20657 -2.96805,0.56417 -4.36133,0.80469 0.0126,-0.68492 0.0546,-1.38131 0.10742,-2.08203 z m 32.10352,0.0117 c 0.22875,0.0225 0.48992,0.0315 0.71289,0.0566 0.16695,0.99641 0.31786,2.00037 0.33203,3.07617 -1.61949,-0.0356 -3.57166,0.0819 -5.42578,0.1543 0.0961,-0.95297 0.2758,-1.95011 0.29883,-2.86719 1.3081,-0.11747 2.69958,-0.27088 4.08203,-0.41992 z m 1.07812,0.084 c 1.50502,0.18086 2.83833,0.44082 4.08594,0.73828 0.36458,0.86635 0.70839,1.74381 0.89063,2.70118 -1.45769,-0.16218 -2.93723,-0.31396 -4.64258,-0.36133 -0.0127,-1.07181 -0.17143,-2.07594 -0.33399,-3.07813 z m -16.74804,0.0273 c -0.0353,0.20379 -0.0594,0.40487 -0.0957,0.60937 -1.47928,0.0278 -3.20011,0.15749 -4.55468,0.13281 -0.30604,-0.006 -0.51465,-0.0524 -0.81446,-0.0605 1.81042,-0.22219 3.816,-0.53287 5.46485,-0.68164 z m 11.2207,0.3457 c -0.0242,0.90655 -0.20217,1.90005 -0.29883,2.8457 -1.75935,0.075 -3.35926,0.0757 -5.33984,0.25196 0.15199,-0.91173 0.15936,-1.74924 0.27734,-2.64258 1.66638,-0.10039 3.55686,-0.2961 5.36133,-0.45508 z m -22.44531,0.27734 c 0.65816,0.0657 1.38258,0.10252 2.07812,0.15235 -0.75673,0.10747 -1.36924,0.15008 -2.15234,0.26953 0.0195,-0.13954 0.0539,-0.28205 0.0742,-0.42188 z m 16.71679,0.18946 c -0.12083,0.9068 -0.12552,1.74938 -0.28125,2.67773 -1.68087,0.15358 -3.70796,0.46416 -5.55468,0.69336 0.19832,-1.07679 0.36529,-2.14999 0.55664,-3.21875 1.72469,-0.0362 3.38091,-0.0425 5.27929,-0.15234 z m 15.76954,0.01 c 1.05033,0.26772 2.24584,0.46947 3.12109,0.81641 0.4236,0.49546 0.95921,0.93836 1.2793,1.48242 0.18249,0.31018 0.23897,0.68255 0.39062,1.00781 -1.2138,-0.27891 -2.51728,-0.51795 -3.96094,-0.68945 -0.16986,-0.92165 -0.49575,-1.77156 -0.83007,-2.61719 z m -28.56055,0.0899 c 0.47104,0.0229 0.85451,0.0817 1.3418,0.0976 -0.23876,1.32571 -0.4944,2.64481 -0.68555,3.96094 -0.0575,0.009 -0.0986,0.0105 -0.15625,0.0195 -1.10727,0.17347 -2.50222,0.47841 -3.66211,0.67578 -0.47839,-0.0678 -0.79775,-0.20229 -1.25391,-0.2793 0.066,-1.30083 0.19287,-2.62611 0.37305,-3.9707 1.47363,-0.22541 2.66234,-0.32077 4.04297,-0.5039 z m 7.14062,0.0625 c -0.19327,1.07821 -0.36454,2.16678 -0.56445,3.25586 -1.85445,0.23398 -3.51551,0.38078 -5.54297,0.69335 0.18889,-1.2882 0.43885,-2.58595 0.67383,-3.88671 0.34288,0.01 0.58464,0.062 0.93555,0.0684 1.3389,0.0244 3.03872,-0.10428 4.49804,-0.13086 z m -23.60547,0.36132 c 0.74691,0.53939 1.64803,1.01283 2.56446,1.48047 -0.5133,0.0966 -0.99482,0.17838 -1.51758,0.2793 -0.40965,-0.56151 -0.73666,-1.15725 -1.04688,-1.75977 z m 12.05274,0.12696 c -0.17198,1.29746 -0.2932,2.57975 -0.35938,3.84375 -1.57689,-0.27894 -3.06219,-0.59504 -4.38086,-0.98047 -0.045,-0.65988 -0.0805,-1.32236 -0.0762,-2.00196 1.4075,-0.24322 3.07335,-0.60203 4.4043,-0.81054 0.15205,-0.0238 0.26104,-0.0274 0.41211,-0.0508 z m 37.02148,0.70508 c 1.17732,0.55342 2.31924,1.12211 3.17188,1.82226 -0.58159,0.0826 -1.27531,0.2132 -1.8457,0.29102 -0.0528,-0.0133 -0.10297,-0.0279 -0.15625,-0.041 -0.18649,-0.42585 -0.26703,-0.90011 -0.50391,-1.30273 -0.16649,-0.28299 -0.47302,-0.49909 -0.66602,-0.76953 z m -42.19726,0.22265 c -0.003,0.62764 0.0312,1.24099 0.0703,1.85352 -1.20891,-0.36684 -2.18773,-0.82658 -3.19141,-1.27735 1.04141,-0.19226 2.11909,-0.40175 3.1211,-0.57617 z m -4.00586,0.73828 c 0.22169,0.89323 0.45902,1.77915 0.83203,2.61328 -0.77946,-0.62409 -1.63709,-1.21676 -2.22266,-1.91797 -0.10167,-0.12175 -0.13808,-0.27054 -0.23437,-0.39453 0.55902,-0.1077 1.07686,-0.198 1.625,-0.30078 z m 0.37305,0 c 1.1436,0.53708 2.30643,1.06504 3.71875,1.48828 0.0583,0.73655 0.16563,1.45302 0.29687,2.16211 -0.59962,0.1142 -1.14543,0.20424 -1.75781,0.32422 -0.33207,-0.1986 -0.63466,-0.40954 -0.93946,-0.61914 -0.57492,-1.06327 -1.01946,-2.17902 -1.31835,-3.35547 z m 36.59961,0.21094 c 0.23078,0.003 0.38116,0.042 0.60742,0.0469 -1e-4,0.63503 -0.17165,1.36468 -0.21289,2.02149 -1.78994,0.1723 -3.82042,0.44592 -5.47852,0.5625 0.12409,-0.82896 0.16592,-1.61748 0.25391,-2.42773 1.59941,-0.0629 3.40814,-0.2208 4.83008,-0.20313 z m 0.96874,0.0742 c 1.73624,0.0477 3.24185,0.20104 4.7168,0.36719 0.058,0.34654 0.0771,0.71355 0.11524,1.07031 -1.77027,0.21093 -3.38442,0.35559 -5.03907,0.51758 0.0388,-0.63667 0.20639,-1.3369 0.20703,-1.95508 z m -6.16601,0.14453 c -0.0899,0.81766 -0.13107,1.61011 -0.25781,2.44922 -2.01866,0.13813 -3.61977,0.0999 -5.44922,0.1582 0.14523,-0.79268 0.23369,-1.56668 0.36719,-2.35156 1.97971,-0.17657 3.58303,-0.18052 5.33984,-0.25586 z m 11.24805,0.25 c 1.30773,0.1572 2.49898,0.36756 3.61132,0.61328 -1.25453,0.1677 -2.30354,0.24784 -3.5039,0.39258 -0.0357,-0.33535 -0.0544,-0.67855 -0.10742,-1.00586 z m -16.95899,0.0527 c -0.13168,0.77011 -0.22839,1.5373 -0.37109,2.31641 -1.84019,0.0537 -3.86396,0.18415 -5.51953,0.16016 0.10401,-0.59472 0.19946,-1.18391 0.30859,-1.7793 1.8594,-0.23154 3.89158,-0.54249 5.58203,-0.69727 z m 23.5918,0.45313 c 0.23491,0.20824 0.37528,0.46028 0.58594,0.67969 -0.5343,-0.19716 -1.24361,-0.31267 -1.83594,-0.48243 0.38974,-0.0541 0.85513,-0.14093 1.25,-0.19726 z M 199.077,165.7892 c -0.10644,0.58293 -0.19931,1.1592 -0.30078,1.74218 -0.0186,-3.3e-4 -0.0439,0.002 -0.0625,0.002 -1.97702,-0.036 -3.53785,-0.24498 -5.26172,-0.38672 0.0184,-0.14014 0.0197,-0.27358 0.0391,-0.41407 0.0115,-0.0832 0.0312,-0.16863 0.043,-0.25195 2.03227,-0.31443 3.68503,-0.45622 5.54297,-0.6914 z m 27.42969,0.0527 c 1.0511,0.26792 2.24727,0.47111 3.12304,0.81836 5.1e-4,2e-4 0.001,-2e-4 0.002,0 0.42285,0.49484 0.9577,0.93717 1.27734,1.48047 0.1821,0.30951 0.23728,0.68133 0.38867,1.00586 -1.21374,-0.27884 -2.51738,-0.51606 -3.96094,-0.6875 -0.16988,-0.92177 -0.49568,-1.77146 -0.83007,-2.61719 z m -43.07813,0.041 c 1.31246,0.37892 2.77141,0.69618 4.33008,0.97071 -0.004,0.10017 -0.004,0.19895 -0.008,0.29883 -1.30398,0.22942 -2.66331,0.4848 -4.03321,0.74414 -0.12242,-0.66099 -0.23134,-1.32652 -0.28906,-2.01368 z m 42.71289,0.008 c 0.33086,0.81866 0.65699,1.64059 0.82813,2.53906 -1.45738,-0.1621 -2.93767,-0.31397 -4.64258,-0.36133 -0.007,-0.59413 -0.135,-1.13312 -0.18555,-1.70703 1.34606,-0.16228 2.58607,-0.27956 4,-0.4707 z m -4.35742,0.50781 c 0.0486,0.55191 0.16818,1.06718 0.17578,1.64063 -1.61943,-0.0356 -3.57175,0.0819 -5.42578,0.15429 0.0426,-0.42266 0.10535,-0.85537 0.13476,-1.27148 1.67825,-0.16373 3.31855,-0.30939 5.11524,-0.52344 z m -28.62695,0.12891 c -0.007,0.0519 -0.0202,0.10443 -0.0274,0.15625 -0.0203,0.14725 -0.0217,0.28857 -0.041,0.43554 -0.73247,-0.0638 -1.56966,-0.0837 -2.25782,-0.16601 0.713,-0.11782 1.59861,-0.3134 2.29102,-0.42188 0.0129,-0.002 0.0222,-0.002 0.0352,-0.004 z m -5.04102,0.40625 c 0.13546,0.0228 0.23374,0.062 0.37109,0.084 -0.1208,0.0209 -0.25557,0.0491 -0.37695,0.0703 0.002,-0.0515 0.004,-0.10267 0.006,-0.15429 z m 28.18359,0.0273 c -0.0296,0.40771 -0.0885,0.83333 -0.13086,1.24805 -1.78813,0.0762 -3.43047,0.0867 -5.44726,0.26758 0.0544,-0.32918 0.0491,-0.62806 0.0996,-0.95508 1.65745,-0.11595 3.69008,-0.38901 5.47851,-0.56055 z m 14.25586,0.22656 c 1.68054,0.79 2.99849,1.74278 4.03711,2.82422 -0.83421,-0.30774 -1.88777,-0.51176 -2.86523,-0.75195 -0.18653,-0.426 -0.26891,-0.89998 -0.50586,-1.30274 -0.16643,-0.28288 -0.4731,-0.49918 -0.66602,-0.76953 z m -41.13476,0.0254 c 1.06814,0.15013 2.45495,0.16483 3.63476,0.26758 -0.15121,1.2072 -0.27825,2.40744 -0.33398,3.58399 -0.65486,0.11614 -1.34437,0.24751 -2.01563,0.37109 -0.84144,-0.17209 -1.6861,-0.34168 -2.44726,-0.54688 -0.11717,-1.11583 -0.16247,-2.26103 -0.13281,-3.43554 0.41704,-0.0729 0.88458,-0.17035 1.29492,-0.24024 z m 3.99804,0.29492 c 1.73341,0.14247 3.30515,0.35253 5.28907,0.38868 10e-4,2e-5 0.003,-2e-5 0.004,0 -0.12219,0.71283 -0.2626,1.42163 -0.36914,2.13086 -1.58987,0.24971 -3.55331,0.66964 -5.25195,0.96875 0.0567,-1.14278 0.18032,-2.31047 0.32812,-3.48829 z m -5.65429,0.0117 c -0.0257,1.12006 0.0221,2.21518 0.1289,3.28711 -1.41157,-0.3955 -2.6381,-0.8673 -3.78515,-1.37109 -0.1109,-0.39169 -0.21967,-0.78447 -0.30274,-1.1875 1.34421,-0.25441 2.67853,-0.503 3.95899,-0.72852 z m 22.68554,0.0352 c -0.0518,0.33293 -0.0458,0.63327 -0.10156,0.96875 -1.70857,0.15728 -3.75526,0.46792 -5.63476,0.70313 0.0934,-0.50562 0.16887,-1.00744 0.26171,-1.51172 1.83543,-0.0575 3.45002,-0.0225 5.47461,-0.16016 z m -5.84765,0.16992 c -0.0949,0.5157 -0.17226,1.03114 -0.26758,1.54883 -1.88409,0.23964 -3.5514,0.38078 -5.61328,0.70117 0.10521,-0.69362 0.24105,-1.39183 0.36133,-2.08984 1.65504,0.0248 3.68173,-0.10759 5.51953,-0.16016 z m -21.15235,0.58985 c 0.0647,0.31452 0.15319,0.61957 0.23438,0.92773 -0.50043,-0.23179 -1.05652,-0.44162 -1.50781,-0.69336 0.44095,-0.0857 0.83919,-0.1517 1.27343,-0.23437 z m 37.87696,0.0449 c 0.23005,0.003 0.37992,0.042 0.60547,0.0469 -1.6e-4,1.02707 -0.24216,2.18826 -0.34375,3.26953 -1.81885,0.18453 -3.79252,0.43414 -5.47852,0.5625 0.20825,-1.26631 0.25155,-2.449 0.38477,-3.67578 1.59979,-0.0629 3.40979,-0.22079 4.83203,-0.20312 z m 0.96679,0.0742 c 1.73635,0.0476 3.24175,0.20108 4.7168,0.36718 0.12432,0.7424 0.20917,1.50542 0.2461,2.29297 -1.89686,0.23679 -3.53086,0.36076 -5.29883,0.54297 0.0976,-1.05979 0.33488,-2.1904 0.33593,-3.20312 z m -6.16406,0.14453 c -0.13577,1.235 -0.17874,2.41883 -0.39062,3.69922 -2.04406,0.15189 -3.78959,0.17789 -5.64453,0.25 0.22964,-1.24114 0.38128,-2.45517 0.58789,-3.67969 2.01559,-0.18113 3.66196,-0.19299 5.44726,-0.26953 z m -34.57031,0.0859 c 0.65192,0.38338 1.48355,0.69026 2.24023,1.02929 0.28487,0.9695 0.68823,1.89151 1.16602,2.78516 -1.13209,-0.79498 -2.18207,-1.62356 -2.96289,-2.5586 -0.31139,-0.37288 -0.45684,-0.81368 -0.71875,-1.20703 0.0963,-0.019 0.17944,-0.03 0.27539,-0.0488 z m 45.81641,0.16406 c 1.50443,0.18078 2.83676,0.43902 4.08398,0.73633 0.12592,0.29907 0.24869,0.59967 0.35156,0.91015 -1.40642,0.19711 -2.85265,0.41279 -4.19336,0.58203 -0.0364,-0.76296 -0.12461,-1.50324 -0.24218,-2.22851 z m -17.06641,0.0664 c -0.20495,1.20782 -0.36116,2.41497 -0.58789,3.64258 -1.90449,0.069 -3.89713,0.17401 -5.60938,0.16211 0.17245,-1.03316 0.34639,-2.06125 0.53711,-3.09765 1.89157,-0.23749 3.94256,-0.5486 5.66016,-0.70704 z m -6.03906,0.75391 c -0.18785,1.02431 -0.36141,2.03924 -0.53125,3.0625 -0.28823,-0.003 -0.6683,0.0325 -0.95118,0.0273 -1.64459,-0.03 -2.90846,-0.21872 -4.37695,-0.32226 0.0544,-0.47727 0.0664,-0.93817 0.13281,-1.41992 0.0295,-0.21416 0.0798,-0.43361 0.11133,-0.64844 2.06754,-0.32245 3.72695,-0.45826 5.61524,-0.69922 z m 27.61914,0.0293 c 0.63118,0.16091 1.308,0.30027 1.875,0.49023 -0.50735,0.074 -1.08889,0.17952 -1.58789,0.25 -0.0824,-0.25288 -0.18984,-0.49419 -0.28711,-0.74023 z m -47.66797,0.20898 c 1.12141,0.47672 2.32866,0.91685 3.6875,1.29297 0.0296,0.25416 0.0806,0.49923 0.11914,0.75 -0.9204,0.17735 -1.72563,0.30135 -2.67578,0.49219 -0.44688,-0.8164 -0.85184,-1.64985 -1.13086,-2.53516 z m 50.42383,0.51172 c 0.10425,0.0394 0.26132,0.0553 0.36328,0.0957 0.42375,0.49559 0.96107,0.93822 1.28125,1.48243 0.58067,0.98696 0.953,2.0762 1.24219,3.20703 -1.4389,0.20719 -3.07769,0.49912 -4.44922,0.67773 -2.3e-4,-0.0307 0.0101,-0.067 0.01,-0.0977 -0.0195,-1.77749 -0.31645,-3.42705 -0.78125,-4.99804 0.73423,-0.10389 1.58174,-0.25564 2.33399,-0.36719 z m -36.36719,0.01 c -0.0259,0.17855 -0.0692,0.35895 -0.0937,0.5371 -0.0674,0.4886 -0.0796,0.96022 -0.13477,1.44532 -1.69228,-0.12733 -3.50628,-0.2034 -4.97461,-0.42383 0.004,-0.20279 -0.0276,-0.39144 -0.0195,-0.5957 1.69097,-0.29836 3.63974,-0.71354 5.22266,-0.96289 z m 33.66797,0.41406 c 0.46355,1.54474 0.7638,3.17275 0.7832,4.94531 4.5e-4,0.0409 -0.0139,0.0899 -0.0137,0.13086 -1.98879,0.25622 -3.63041,0.36504 -5.48047,0.5625 0.17163,-1.51672 0.49216,-3.10815 0.47656,-4.5332 -0.002,-0.17747 -0.0491,-0.33401 -0.0547,-0.50977 1.36984,-0.17289 2.85091,-0.39377 4.28906,-0.5957 z m 3.99219,0.19922 c 2.09963,0.98723 3.63673,2.22962 4.75976,3.66211 -0.91906,0.14065 -1.90993,0.3119 -2.80273,0.4414 -0.29687,-1.17269 -0.68502,-2.302 -1.29102,-3.33203 -0.16667,-0.28329 -0.47277,-0.50076 -0.66601,-0.77148 z m -47.66602,0.24023 c 0.47728,0.12715 1.0179,0.22746 1.52539,0.3418 -0.47548,0.0889 -0.92846,0.16711 -1.41211,0.25976 -0.0311,-0.20318 -0.0881,-0.39594 -0.11328,-0.60156 z m 4.41992,0.17774 c -0.006,0.15256 0.0212,0.29347 0.0176,0.44531 -0.40885,-0.0646 -0.70776,-0.17445 -1.09961,-0.2461 0.35664,-0.0647 0.73013,-0.13669 1.08203,-0.19921 z m 34.60352,0.0156 c 0.005,0.16503 0.0489,0.3098 0.0508,0.47656 0.0156,1.42687 -0.30461,3.03862 -0.48047,4.56836 -1.83958,0.19344 -3.7705,0.42553 -5.47656,0.5625 0.30354,-1.75208 0.36076,-3.37637 0.52929,-5.05664 1.79214,-0.18408 3.4529,-0.31064 5.37696,-0.55078 z m -36.59375,0.35156 c 0.6968,0.14125 1.26909,0.33545 2.02148,0.45313 -0.0143,1.21558 -0.0106,2.42446 0.13867,3.58008 -1.37981,-0.36491 -2.64785,-0.77513 -3.7832,-1.24024 -0.25392,-0.77288 -0.46185,-1.56418 -0.60352,-2.38281 0.76247,-0.14603 1.48445,-0.27335 2.22657,-0.41016 z m 30.84765,0.23828 c -0.17168,1.6804 -0.22669,3.29475 -0.5332,5.05665 -2.03849,0.15999 -3.87084,0.23242 -5.72461,0.31445 0.29851,-1.62161 0.51091,-3.21135 0.7793,-4.8086 1.68499,-0.12768 3.66155,-0.37878 5.47851,-0.5625 z m -33.43164,0.23633 c 0.12637,0.7301 0.32739,1.43045 0.54102,2.12696 -1.00589,-0.43468 -2.10172,-0.83452 -2.92383,-1.34375 -0.0635,-0.10192 -0.12315,-0.20543 -0.18359,-0.3086 0.91021,-0.18249 1.68366,-0.30455 2.5664,-0.47461 z m 4.97071,0.0606 c 1.45484,0.21619 3.25733,0.28458 4.92578,0.41016 -0.15229,1.42472 -0.22378,2.82114 -0.22071,4.19335 -1.73293,-0.2493 -3.09717,-0.65234 -4.54492,-1.01953 -0.15684,-1.15296 -0.17125,-2.36367 -0.16015,-3.58398 z m 22.61328,0.30273 c -0.26744,1.58317 -0.48517,3.16992 -0.78125,4.78321 -1.96476,0.0819 -3.94044,0.16837 -5.70508,0.16601 0.24717,-1.56429 0.52359,-3.13069 0.81445,-4.70312 1.86574,-0.0714 3.616,-0.094 5.67188,-0.2461 z m -17.32422,0.13282 c 1.47745,0.1042 2.75223,0.29412 4.4043,0.32422 0.26626,0.005 0.62358,-0.0283 0.89453,-0.0254 -0.11012,0.67749 -0.25879,1.35649 -0.35157,2.0293 -0.10462,0.75866 -0.13547,1.49467 -0.20898,2.24414 -1.67559,-0.11205 -3.4955,-0.16412 -4.95703,-0.36523 -0.005,-1.37202 0.0652,-2.77305 0.21875,-4.20703 z m 11.2793,0.125 c -0.29,1.57126 -0.56623,3.1349 -0.8125,4.70312 -0.50142,-0.002 -1.14722,0.0557 -1.63282,0.0469 -1.40314,-0.0256 -2.45991,-0.19605 -3.73437,-0.27539 0.0729,-0.7424 0.10499,-1.46855 0.20898,-2.22266 0.0952,-0.69034 0.24751,-1.39359 0.36133,-2.08984 1.71133,0.0128 3.70772,-0.0943 5.60938,-0.16211 z m -23.59766,0.70898 c 0.79401,0.46265 1.76572,0.85108 2.71484,1.24805 0.3307,0.9746 0.83559,1.87934 1.375,2.77148 -1.41474,-0.9046 -2.57188,-1.91356 -3.49218,-3.01562 -0.25887,-0.31 -0.37317,-0.6797 -0.59766,-1.00391 z m 54.91992,1.39844 c 0.20284,0.28057 0.52009,0.50822 0.69336,0.80273 0.70302,1.19493 1.1348,2.52199 1.41992,3.92383 -1.50907,0.22127 -3.27487,0.54994 -4.71093,0.74024 0.005,-0.27966 0.0948,-0.60129 0.0918,-0.87696 -0.0157,-1.43689 -0.14932,-2.82011 -0.44531,-4.12695 0.94092,-0.13672 1.98123,-0.31383 2.95117,-0.46289 z m -51.78515,0.043 c 1.12632,0.44671 2.40489,0.82899 3.75781,1.17968 0.15826,1.05892 0.43821,2.07129 0.77734,3.06055 -1.05574,-0.43271 -2.12655,-0.85956 -2.98828,-1.37109 -0.60945,-0.91804 -1.17761,-1.85229 -1.54687,-2.86914 z m 48.47265,0.47851 c 0.29275,1.28301 0.42775,2.64616 0.44336,4.07227 0.003,0.28862 -0.0915,0.63035 -0.0977,0.92383 -2.00472,0.26316 -3.61297,0.36026 -5.47851,0.56445 0.20981,-1.63966 0.50158,-3.32119 0.50976,-4.86133 1.42826,-0.18554 3.12191,-0.48268 4.62305,-0.69922 z m -4.99023,0.73828 c -0.0104,1.53216 -0.29884,3.21713 -0.51172,4.85938 -1.87087,0.20186 -3.78688,0.42413 -5.52149,0.56836 0.30009,-1.68215 0.3573,-3.24065 0.55274,-4.86524 1.84796,-0.1966 3.49464,-0.3073 5.48047,-0.5625 z m -39.32813,0.0508 c 1.43319,0.35591 2.75771,0.75778 4.45899,1 0.0172,1.13421 0.0681,2.25648 0.23828,3.33399 -1.3968,-0.34877 -2.74,-0.7198 -3.89453,-1.16797 -0.37168,-1.01281 -0.63062,-2.07184 -0.80274,-3.16602 z m 33.47852,0.54883 c -0.19804,1.62306 -0.25861,3.17639 -0.56055,4.86524 -2.01805,0.16417 -3.89904,0.27264 -5.73828,0.36133 0.28325,-1.56006 0.53699,-3.1176 0.80859,-4.66211 1.70885,-0.13648 3.64808,-0.37138 5.49024,-0.56446 z m -28.6543,0.48047 c 1.45274,0.19831 3.24961,0.25035 4.9082,0.36133 -0.12257,1.35561 -0.15266,2.6774 -0.12304,3.98047 -1.71017,-0.23142 -3.07705,-0.60546 -4.51563,-0.94922 -0.1817,-1.09397 -0.25039,-2.23319 -0.26953,-3.39258 z m 22.78516,0.12305 c -0.26991,1.53006 -0.52028,3.08203 -0.80078,4.63281 -1.98642,0.0908 -3.92189,0.16 -5.70704,0.16602 0.22018,-1.48859 0.50405,-2.98766 0.7793,-4.49024 1.85795,-0.0812 3.68614,-0.14922 5.72852,-0.30859 z m -17.51367,0.26562 c 1.28257,0.0799 2.34947,0.25166 3.75976,0.27735 0.46966,0.009 1.09384,-0.0473 1.57813,-0.0449 -0.0579,0.37865 -0.14528,0.75973 -0.19727,1.13671 -0.1388,1.00654 -0.19803,1.9894 -0.2793,2.97852 -1.70888,-0.10264 -3.49334,-0.17387 -4.98437,-0.36719 -0.0314,-1.2987 1.4e-4,-2.62109 0.12305,-3.98047 z m 11.4121,0.0547 c -0.27429,1.50246 -0.55598,2.99728 -0.77539,4.49024 -0.68787,2.6e-4 -1.55615,0.0764 -2.21484,0.0644 -1.20208,-0.0219 -2.09189,-0.17482 -3.19922,-0.23633 0.0805,-0.98011 0.13918,-1.95119 0.27735,-2.95312 0.0546,-0.39613 0.14576,-0.80093 0.20703,-1.19922 1.76324,0.003 3.74375,-0.0854 5.70507,-0.16602 z m -23.78906,0.67774 c 0.83243,0.46487 1.78081,0.88001 2.77735,1.27539 0.34444,0.9127 0.89502,1.74352 1.43164,2.58007 -1.54664,-0.94915 -2.82535,-2.00654 -3.80664,-3.18164 -0.17392,-0.20826 -0.24408,-0.45908 -0.40235,-0.67382 z m 3.21289,1.47656 c 1.14347,0.42902 2.49988,0.7674 3.86719,1.10156 0.18062,1.00477 0.39383,1.99721 0.74609,2.93555 -1.09875,-0.43031 -2.14504,-0.88176 -3.04101,-1.39453 -0.59632,-0.85102 -1.19195,-1.70262 -1.57227,-2.64258 z m 48.85157,0.15039 c 0.19399,1.07538 0.34853,2.17042 0.36132,3.33984 0.005,0.48318 -0.14403,1.0504 -0.16406,1.54688 -1.99371,0.26503 -3.62326,0.3768 -5.48047,0.58398 0.22164,-1.59967 0.44761,-3.2025 0.49414,-4.71484 1.4591,-0.19296 3.25481,-0.53094 4.78907,-0.75586 z m -5.15821,0.80078 c -0.0492,1.50528 -0.26965,3.10694 -0.49414,4.70898 -1.89783,0.2088 -3.80539,0.42023 -5.56445,0.57032 0.29471,-1.62433 0.36844,-3.13984 0.58008,-4.7168 1.86327,-0.20331 3.47691,-0.3004 5.47851,-0.5625 z m -39.42969,0.23828 c 1.41669,0.33133 2.75825,0.6958 4.42774,0.91992 0.0399,1.10357 0.14319,2.18205 0.33594,3.22852 -1.41119,-0.33514 -2.81945,-0.67161 -3.99024,-1.10547 -0.38639,-0.9618 -0.57722,-2.0035 -0.77344,-3.04297 z m 33.58204,0.36328 c -0.21395,1.57501 -0.29387,3.0872 -0.58985,4.7168 -1.99991,0.16706 -3.91818,0.30092 -5.74414,0.39453 0.27108,-1.51951 0.51492,-3.03297 0.78711,-4.54297 1.74061,-0.1439 3.66966,-0.36645 5.54688,-0.56836 z m -28.79102,0.58142 c 1.4823,0.19066 3.24555,0.26353 4.9375,0.36524 -0.0959,1.29977 -0.0875,2.56155 -0.0332,3.80859 -1.69739,-0.21726 -3.1001,-0.55697 -4.53516,-0.88281 -0.20567,-1.06367 -0.32649,-2.16157 -0.36914,-3.29102 z m 22.86719,0.0254 c -0.2702,1.49664 -0.51287,3.00267 -0.78125,4.51368 -2.00216,0.0977 -3.90485,0.15536 -5.70508,0.16797 0.19808,-1.43012 0.48937,-2.88011 0.75,-4.32813 1.84187,-0.0878 3.71619,-0.19014 5.73633,-0.35352 z m -6.10938,0.36329 c -0.25854,1.44235 -0.54712,2.87989 -0.74414,4.30859 -9.1e-4,0.007 -0.001,0.0129 -0.002,0.0195 -0.83653,0.003 -1.87588,0.0926 -2.66992,0.0781 -1.01275,-0.0185 -1.75002,-0.15257 -2.69532,-0.19922 0.0785,-1.21401 0.17141,-2.43385 0.34375,-3.6836 0.0163,-0.1181 0.0456,-0.2391 0.0625,-0.35742 1.78301,-0.005 3.723,-0.0766 5.70508,-0.16601 z m -11.45898,0.002 c 1.11532,0.062 2.01504,0.21624 3.22461,0.23828 0.6423,0.0117 1.48847,-0.0626 2.1582,-0.0625 -0.0139,0.0979 -0.0373,0.19714 -0.0508,0.29492 -0.17284,1.25337 -0.26638,2.48455 -0.3457,3.70899 -1.74323,-0.0937 -3.49647,-0.18484 -5.01758,-0.3711 -0.0563,-1.2432 -0.0648,-2.50516 0.0312,-3.80859 z m -12.45508,0.66406 c 0.88299,0.47571 1.82469,0.92628 2.88672,1.32617 0.34748,0.83681 0.89174,1.59556 1.4082,2.36524 -1.64764,-0.98079 -3.03409,-2.0677 -4.06055,-3.29688 -0.10167,-0.12176 -0.13808,-0.27054 -0.23437,-0.39453 z m 3.46484,1.5918 c 1.09743,0.38324 2.47114,0.64867 3.76368,0.94922 0.19907,0.96152 0.36887,1.93441 0.73242,2.83203 -1.13793,-0.42854 -2.16299,-0.90352 -3.08985,-1.41797 -0.55252,-0.75354 -1.03043,-1.5369 -1.40625,-2.36328 z m 43.64649,0.63086 c -0.0762,1.48318 -0.25258,3.0235 -0.48438,4.59375 -1.91993,0.21429 -3.82058,0.4215 -5.59961,0.57617 0.28847,-1.57454 0.38228,-3.0551 0.60352,-4.58984 1.86031,-0.20691 3.4837,-0.31517 5.48047,-0.58008 z m -39.48633,0.4082 c 1.41293,0.31407 2.79193,0.64112 4.44922,0.85156 0.0625,1.08176 0.21827,2.1269 0.43555,3.15039 -1.374,-0.31057 -2.81887,-0.59225 -3.97071,-0.99414 -0.4233,-0.95409 -0.68917,-1.97256 -0.91406,-3.00781 z m 33.63672,0.20899 c -0.2232,1.53276 -0.322,3.01271 -0.61133,4.59179 -1.98597,0.16916 -3.93239,0.32268 -5.74805,0.41992 0.25984,-1.48357 0.4993,-2.95897 0.76953,-4.4375 1.7654,-0.14979 3.68529,-0.36532 5.58985,-0.57421 z m -5.96875,0.61328 c -0.26793,1.46536 -0.50657,2.9332 -0.76367,4.4082 -2.00075,0.10218 -3.86504,0.14604 -5.66602,0.16406 0.0218,-0.16782 0.0237,-0.32776 0.0469,-0.49609 0.16807,-1.21879 0.42123,-2.45597 0.63867,-3.68945 1.82958,-0.0927 3.74089,-0.22033 5.74414,-0.38672 z m -22.85547,0.0566 c 1.51151,0.1836 3.24555,0.27423 4.9707,0.36718 -0.0697,1.2527 -0.0233,2.46273 0.0566,3.66211 -1.6859,-0.20398 -3.12659,-0.50921 -4.55859,-0.81836 -0.23148,-1.03998 -0.40253,-2.10411 -0.46875,-3.21093 z m 16.74219,0.34179 c -0.213,1.21403 -0.46305,2.42418 -0.62891,3.62696 -0.026,0.18886 -0.0284,0.3702 -0.0527,0.55859 -0.96418,0.007 -2.14623,0.10444 -3.05469,0.0879 -0.86962,-0.0158 -1.49468,-0.13323 -2.31445,-0.16992 0.0641,-1.29063 0.19376,-2.60542 0.37109,-3.93945 1.79161,-0.0119 3.68989,-0.0682 5.67969,-0.16407 z m -11.41016,0.0508 c 0.95372,0.0472 1.70159,0.18257 2.72266,0.20117 0.78659,0.0143 1.81477,-0.0731 2.64258,-0.0762 -0.17377,1.31644 -0.30321,2.61877 -0.36719,3.90039 -1.73321,-0.0851 -3.42261,-0.18801 -4.93945,-0.36329 -0.0823,-1.19583 -0.12819,-2.40594 -0.0586,-3.6621 z m -12.57226,0.5996 c 0.96154,0.50242 1.92112,1.00526 3.08984,1.41993 0.33848,0.74093 0.78841,1.43735 1.26562,2.12304 -1.73106,-1.00542 -3.20084,-2.11593 -4.26367,-3.38867 -0.0398,-0.0477 -0.0528,-0.1063 -0.0918,-0.1543 z m 3.66796,1.6836 c 1.07455,0.35322 2.49062,0.56248 3.74414,0.83984 0.22998,0.97291 0.49316,1.93221 0.9004,2.83594 -1.28433,-0.45308 -2.35188,-0.99367 -3.38086,-1.55078 -0.51067,-0.67134 -0.89829,-1.39373 -1.26368,-2.125 z m 4.14063,0.92773 c 1.40891,0.29771 2.8274,0.59159 4.47266,0.78907 0.0873,1.06838 0.29992,2.08782 0.54687,3.0957 -1.33645,-0.28627 -2.8154,-0.51433 -3.94726,-0.88477 -0.4692,-0.95439 -0.81446,-1.95901 -1.07227,-3 z m 33.58203,0.0742 c -0.2279,1.4934 -0.34275,2.94506 -0.625,4.47852 -1.97555,0.17067 -3.94404,0.33957 -5.75195,0.43945 0.24975,-1.45047 0.48524,-2.89314 0.75195,-4.3418 1.78498,-0.15435 3.69877,-0.36183 5.625,-0.57617 z m -6.00195,0.61524 c -0.26427,1.43611 -0.49901,2.87021 -0.7461,4.3125 -1.99831,0.10549 -3.8324,0.1439 -5.63281,0.16601 0.0381,-0.30951 0.043,-0.60666 0.0859,-0.91797 0.14347,-1.04037 0.3653,-2.09643 0.54687,-3.14843 1.81849,-0.0964 3.75771,-0.24369 5.7461,-0.41211 z m -22.74414,0.12695 c 1.50694,0.17273 3.17752,0.27495 4.89257,0.35937 -0.0486,1.21161 0.0319,2.37868 0.13086,3.53711 -1.62334,-0.18796 -3.05233,-0.45601 -4.44336,-0.74023 -0.26281,-1.02403 -0.48795,-2.06303 -0.58007,-3.15625 z m 16.625,0.29687 c -0.17736,1.03285 -0.39398,2.0641 -0.53516,3.08789 -0.0455,0.33017 -0.0516,0.64791 -0.0918,0.97657 -1.06128,0.01 -2.34931,0.11577 -3.34375,0.0976 -0.7588,-0.0138 -1.29874,-0.11871 -2.01953,-0.14843 0.0468,-1.2563 0.19219,-2.55108 0.35352,-3.85157 1.79082,-0.0174 3.65015,-0.0618 5.63672,-0.16211 z m -11.3711,0.0898 c 0.8278,0.0371 1.46218,0.15588 2.33985,0.17187 0.90155,0.0164 2.0735,-0.0814 3.02929,-0.0879 -0.15807,1.28379 -0.30459,2.56477 -0.35156,3.8125 -1.72779,-0.0787 -3.37153,-0.19202 -4.88672,-0.35937 -0.10178,-1.15563 -0.17921,-2.32164 -0.13086,-3.53711 z m -12.59179,0.56445 c 1.05481,0.53455 2.03564,1.09985 3.33398,1.53125 0.33483,0.66176 0.69674,1.31263 1.14844,1.92774 -1.82225,-1.02137 -3.37519,-2.15136 -4.48242,-3.45899 z m 3.82812,1.66016 c 1.10791,0.34962 2.49994,0.57845 3.79297,0.84961 0.27089,1.00128 0.6395,1.96348 1.10937,2.88672 -1.43851,-0.47016 -2.53784,-1.08027 -3.67382,-1.67383 -0.51623,-0.64325 -0.85166,-1.36172 -1.22852,-2.0625 z m 4.18945,0.93945 c 1.36668,0.27335 2.7749,0.52914 4.35743,0.71094 0.1068,1.05396 0.36191,2.05077 0.63086,3.04297 -1.30123,-0.26763 -2.67998,-0.50368 -3.79102,-0.84961 -0.49932,-0.92702 -0.90993,-1.89032 -1.19727,-2.9043 z m 27.37696,0.55859 c -0.2604,1.41119 -0.49364,2.81756 -0.73242,4.23243 -1.99587,0.10779 -3.80802,0.13709 -5.60743,0.1621 0.0488,-0.41526 0.0575,-0.81577 0.11524,-1.23437 0.12432,-0.90154 0.31847,-1.8177 0.47265,-2.72852 1.81157,-0.099 3.77299,-0.2616 5.75196,-0.43164 z m -22.65625,0.17774 c 1.51885,0.1664 3.1576,0.28332 4.88476,0.36133 -0.0312,1.16887 0.0208,2.3089 0.13282,3.42578 -1.5753,-0.17652 -2.99688,-0.41529 -4.35547,-0.68164 -0.28628,-1.0088 -0.54963,-2.0261 -0.66211,-3.10547 z m 16.5332,0.26562 c -0.15015,0.89177 -0.33897,1.78349 -0.46094,2.66797 -0.0603,0.43711 -0.0705,0.85861 -0.12109,1.29297 -1.13279,0.0125 -2.49752,0.12278 -3.55469,0.10352 -0.66417,-0.0121 -1.13258,-0.10656 -1.76758,-0.13086 0.0332,-1.23065 0.15406,-2.49606 0.30274,-3.77149 1.78972,-0.0214 3.61801,-0.0586 5.60156,-0.16211 z m -11.28516,0.1211 c 0.71372,0.0292 1.24978,0.13477 2,0.14843 0.98717,0.018 2.26414,-0.0861 3.31641,-0.0957 -0.14575,1.25998 -0.26723,2.51137 -0.30078,3.73438 -1.73835,-0.074 -3.35952,-0.19652 -4.88477,-0.35938 -0.11501,-1.11406 -0.16159,-2.25543 -0.13086,-3.42773 z m -12.20507,0.73047 c 1.01862,0.47735 1.97276,0.98148 3.20312,1.36914 0.33347,0.60119 0.62537,1.2188 1.06055,1.77929 -1.72066,-0.9294 -3.16468,-1.96961 -4.26367,-3.14843 z m 3.6875,1.47851 c 1.08546,0.32574 2.38158,0.56147 3.63867,0.81445 0.28057,0.94227 0.67517,1.83865 1.13867,2.70899 -1.36535,-0.43492 -2.4209,-0.99445 -3.51758,-1.53906 -0.0438,-0.0509 -0.1193,-0.0894 -0.16211,-0.14063 -0.47543,-0.56933 -0.73561,-1.22757 -1.09765,-1.84375 z m 4.03125,0.9043 c 1.33328,0.25577 2.73527,0.48181 4.26953,0.65234 0.11782,1.0092 0.39909,1.95551 0.66992,2.90625 -1.28192,-0.25812 -2.60981,-0.49668 -3.70899,-0.83008 -0.49379,-0.8754 -0.93249,-1.77271 -1.23046,-2.72851 z m 4.63086,0.67969 c 1.52989,0.16202 3.14772,0.28607 4.88671,0.35937 -0.0178,1.10804 0.0124,2.20002 0.12696,3.25977 -1.54959,-0.17067 -2.96766,-0.39517 -4.3086,-0.65235 -0.28837,-0.96706 -0.58096,-1.93297 -0.70507,-2.96679 z m 16.46679,0.23828 c -0.13008,0.78555 -0.29874,1.57197 -0.40625,2.35156 -0.0679,0.4926 -0.0812,0.96798 -0.13672,1.45703 -1.16942,0.0139 -2.57299,0.12726 -3.66211,0.10742 -0.61571,-0.0112 -1.04804,-0.0994 -1.63867,-0.12109 0.0254,-1.18616 0.12963,-2.40364 0.26563,-3.63281 1.78896,-0.0243 3.59669,-0.0563 5.57812,-0.16211 z m -11.21679,0.14648 c 0.6271,0.0238 1.09112,0.11698 1.74609,0.12891 1.04979,0.0191 2.40385,-0.0914 3.52734,-0.10352 -0.13329,1.21399 -0.23773,2.41742 -0.26367,3.59571 -1.7442,-0.0716 -3.354,-0.19883 -4.88476,-0.35938 -0.11758,-1.05683 -0.14211,-2.15099 -0.125,-3.26172 z m -11.66797,0.86524 c 0.89693,0.38673 1.73975,0.79696 2.78906,1.11914 0.3023,0.52115 0.54726,1.06484 0.92773,1.55468 -1.47531,-0.79653 -2.70429,-1.69131 -3.71679,-2.67382 z m 3.27343,1.22656 c 1.07151,0.31321 2.31694,0.5533 3.55274,0.79687 0.27169,0.87004 0.65776,1.69427 1.08789,2.50196 -1.36208,-0.43396 -2.41513,-0.99396 -3.50977,-1.53711 -0.0453,-0.0525 -0.12375,-0.0916 -0.16796,-0.14453 -0.41709,-0.49947 -0.63361,-1.08144 -0.9629,-1.61719 z m 3.94922,0.88476 c 1.31524,0.24688 2.71402,0.4582 4.22266,0.62305 0.11863,0.94986 0.40834,1.83303 0.66406,2.73047 -1.28271,-0.25828 -2.61119,-0.49838 -3.71094,-0.83203 -0.45865,-0.81343 -0.88712,-1.63824 -1.17578,-2.52149 z m 4.58399,0.65039 c 1.53461,0.15969 3.1409,0.28848 4.88476,0.35938 -0.0109,1.04665 0.0125,2.08096 0.1211,3.08398 -1.55041,-0.1708 -2.96903,-0.39493 -4.31055,-0.65234 -0.27246,-0.91381 -0.5703,-1.81725 -0.69531,-2.79102 z m 5.24804,0.38672 c 0.58336,0.0213 1.01181,0.10808 1.61915,0.11914 1.08192,0.0197 2.4745,-0.092 3.63476,-0.10547 -0.12334,1.1572 -0.2233,2.30539 -0.24805,3.42969 -1.7442,-0.0716 -3.35399,-0.19882 -4.88476,-0.35937 -0.1113,-0.99967 -0.13116,-2.03573 -0.1211,-3.08399 z m -11.66601,0.69141 c 0.89465,0.38536 1.73514,0.79404 2.78125,1.11523 0.30185,0.52038 0.54599,1.06357 0.92578,1.55274 -1.47162,-0.79472 -2.69608,-1.68813 -3.70703,-2.66797 z m 3.26562,1.22266 c 1.07263,0.31354 2.31938,0.55312 3.55664,0.79687 0.27187,0.87026 0.65747,1.69409 1.0879,2.50195 -1.36415,-0.43445 -2.41966,-0.99512 -3.51563,-1.53906 -0.0447,-0.0519 -0.12237,-0.0903 -0.16602,-0.14258 -0.41718,-0.49958 -0.63354,-1.0813 -0.96289,-1.61718 z m 3.94922,0.88476 c 1.31524,0.24688 2.71402,0.4582 4.22266,0.62305 0.11866,0.94946 0.40841,1.83339 0.66406,2.73047 -1.28271,-0.25829 -2.61119,-0.49839 -3.71094,-0.83203 -0.45865,-0.81343 -0.88712,-1.63824 -1.17578,-2.52149 z m 4.58594,0.65039 c 1.5347,0.15966 3.14082,0.28852 4.88477,0.35938 -0.0109,1.04664 0.0106,2.08097 0.11914,3.08398 -1.54966,-0.17072 -2.96763,-0.3951 -4.3086,-0.65234 -0.27262,-0.91388 -0.5702,-1.81716 -0.69531,-2.79102 z m -6.42188,1.07617 c 0.89631,0.38627 1.73871,0.79536 2.78711,1.11719 0.30197,0.52034 0.54587,1.06362 0.92579,1.55274 -1.47354,-0.79556 -2.70108,-1.68882 -3.7129,-2.66993 z m 3.26758,1.22461 c 1.07284,0.31366 2.31909,0.55305 3.55664,0.79688 0.27185,0.87008 0.65755,1.69424 1.08789,2.50195 -1.36517,-0.43478 -2.42097,-0.99463 -3.51757,-1.53906 -0.0444,-0.0515 -0.12071,-0.0907 -0.16407,-0.14258 -0.41718,-0.49958 -0.63354,-1.0813 -0.96289,-1.61719 z m 3.94922,0.88477 c 1.31528,0.2469 2.71396,0.45818 4.22266,0.62305 0.11866,0.94946 0.4084,1.83339 0.66406,2.73046 -1.28192,-0.25812 -2.60981,-0.49667 -3.70898,-0.83007 -0.4591,-0.81376 -0.88884,-1.63979 -1.17774,-2.52344 z m -1.83594,1.72656 c 0.89626,0.38625 1.73877,0.79537 2.78711,1.11719 0.30197,0.52033 0.54587,1.06362 0.92579,1.55273 -1.47338,-0.7955 -2.70117,-1.6889 -3.7129,-2.66992 z m 3.26954,1.22461 c 1.07206,0.31338 2.31815,0.55322 3.55468,0.79688 0.27185,0.87008 0.65755,1.69424 1.08789,2.50195 -1.36349,-0.43432 -2.41813,-0.99534 -3.51367,-1.53906 -0.0447,-0.0519 -0.12237,-0.0903 -0.16601,-0.14258 -0.41693,-0.49927 -0.6337,-1.08167 -0.96289,-1.61719 z m 2.11523,2.61133 c 0.89508,0.38563 1.73648,0.79384 2.7832,1.11523 0.30201,0.52056 0.54382,1.06537 0.92383,1.55469 -1.47172,-0.79489 -2.69609,-1.68986 -3.70703,-2.66992 z"
       id="path817"
       inkscape:connector-curvature="0" />
  </g>
</svg>
