<?xml version="1.0" encoding="UTF-8" standalone="no"?>
<!-- Created with Inkscape (http://www.inkscape.org/) -->

<svg
   xmlns:dc="http://purl.org/dc/elements/1.1/"
   xmlns:cc="http://creativecommons.org/ns#"
   xmlns:rdf="http://www.w3.org/1999/02/22-rdf-syntax-ns#"
   xmlns:svg="http://www.w3.org/2000/svg"
   xmlns="http://www.w3.org/2000/svg"
   xmlns:sodipodi="http://sodipodi.sourceforge.net/DTD/sodipodi-0.dtd"
   xmlns:inkscape="http://www.inkscape.org/namespaces/inkscape"
   width="68.943306mm"
   height="31.181965mm"
   viewBox="0 0 68.943306 31.181965"
   version="1.1"
   id="svg8"
   inkscape:version="0.92.3 (2405546, 2018-03-11)"
   sodipodi:docname="18 - Warped Text into Shape.svg">
  <defs
     id="defs2">
    <inkscape:path-effect
       effect="envelope"
       id="path-effect843"
       is_visible="true"
       yy="true"
       xx="false"
       bendpath1="m 82.502354,121.65517 c 18.230586,-11.50053 15.558364,7.04261 26.589976,-3.47531"
       bendpath2="m 109.17483,121.65517 v 7.48241"
       bendpath3="m 82.502354,129.13758 c 18.776296,10.56869 17.565406,-7.30814 26.672476,3.03569"
       bendpath4="m 82.502354,121.65517 v 7.48241"
       bendpath1-nodetypes="cc"
       bendpath3-nodetypes="cc" />
  </defs>
  <sodipodi:namedview
     id="base"
     pagecolor="#ffffff"
     bordercolor="#666666"
     borderopacity="1.0"
     inkscape:pageopacity="0.0"
     inkscape:pageshadow="2"
     inkscape:zoom="0.76617265"
     inkscape:cx="155.76735"
     inkscape:cy="106.23015"
     inkscape:document-units="mm"
     inkscape:current-layer="layer1"
     showgrid="false"
     fit-margin-top="0"
     fit-margin-left="0"
     fit-margin-right="0"
     fit-margin-bottom="0"
     inkscape:window-width="956"
     inkscape:window-height="1015"
     inkscape:window-x="960"
     inkscape:window-y="0"
     inkscape:window-maximized="0" />
  <metadata
     id="metadata5">
    <rdf:RDF>
      <cc:Work
         rdf:about="">
        <dc:format>image/svg+xml</dc:format>
        <dc:type
           rdf:resource="http://purl.org/dc/dcmitype/StillImage" />
        <dc:title></dc:title>
      </cc:Work>
    </rdf:RDF>
  </metadata>
  <g
     inkscape:label="Ebene 1"
     inkscape:groupmode="layer"
     id="layer1"
     transform="translate(-80.60283,-81.886465)">
    <g
       aria-label="FISH"
       style="font-style:normal;font-variant:normal;font-weight:bold;font-stretch:normal;font-size:10.58333302px;line-height:1.25;font-family:UnShinmun;-inkscape-font-specification:'UnShinmun Bold';letter-spacing:0px;word-spacing:0px;opacity:1;fill:#0088aa;fill-opacity:1;stroke:none;stroke-width:0.26458332"
       id="text817"
       inkscape:path-effect="#path-effect843"
       transform="matrix(2.1718377,0,0,2.1718377,-91.396047,-173.8901)">
      <path
         d="m 90.24364,122.31034 c -0.457554,-1.29573 -1.06051,-2.51874 -1.880001,-3.66438 -2.075092,0.75065 -4.050602,1.89435 -5.921705,3.07298 0.295292,0.27829 0.556179,0.55743 0.78266,0.83744 0.07041,-0.0252 0.140823,-0.0502 0.211237,-0.0748 0.565538,-0.19324 0.87449,-0.10215 1.236539,0.66523 0.639346,1.3551 0.682831,2.72526 0.130455,4.11047 -0.312318,0.7832 -0.614542,0.89744 -1.184089,0.75446 -0.0711,-0.0184 -0.142233,-0.0372 -0.213396,-0.0562 -0.207355,0.29085 -0.449111,0.58256 -0.725268,0.87513 1.20183,0.6331 2.435507,1.23855 3.694831,1.75267 0.225026,-0.44556 0.421548,-0.8904 0.589564,-1.33451 -0.08546,-0.0394 -0.170865,-0.079 -0.25615,-0.11869 -0.216811,-0.10645 -0.40236,-0.30959 -0.424731,-0.50141 -0.03186,-0.19887 0.03863,-0.38832 0.208993,-0.97193 0.203282,-0.6964 0.315457,-1.39049 0.336525,-2.08226 0.0712,2.4e-4 0.142259,4.7e-4 0.213189,6.9e-4 0.432621,0.001 0.544251,0.0315 0.673497,0.21157 0.144505,0.21417 0.246358,0.77592 0.108801,1.73697 0.230984,0.0392 0.460941,0.0769 0.68983,0.11281 0.313724,-1.9027 0.234613,-3.79562 -0.237334,-5.67874 -0.232513,0.063 -0.465564,0.12901 -0.69913,0.19772 0.185349,0.81939 0.174575,1.29507 0.0973,1.5242 -0.08101,0.26407 -0.213251,0.34456 -0.664992,0.414 -0.08957,0.0138 -0.179325,0.0277 -0.269265,0.0417 -0.07039,-0.45904 -0.181265,-0.91704 -0.332635,-1.37402 -0.23884,-0.72104 -0.300096,-0.78591 -0.297788,-1.01057 0.0079,-0.20855 0.20844,-0.40568 0.613125,-0.56665 0.981433,-0.3904 2.044575,-0.0187 2.983119,1.89409 0.180243,-0.2514 0.357542,-0.50676 0.536824,-0.76792 z"
         style="font-style:normal;font-variant:normal;font-weight:bold;font-stretch:normal;font-family:'URW Bookman L';-inkscape-font-specification:'URW Bookman L Bold';fill:#0088aa;stroke-width:0.26458332"
         id="path834"
         inkscape:original-d="m 89.550854,123.96233 -1.005417,-2.16958 h -6.043083 v 0.86783 l 0.211667,0.0212 c 0.592667,0.0635 0.719667,0.21167 0.719667,0.889 v 3.65125 c 0,0.67733 -0.127,0.8255 -0.719667,0.889 l -0.211667,0.0212 V 129 h 3.788833 v -0.86783 l -0.28575,-0.0212 c -0.243416,-0.0212 -0.497416,-0.10583 -0.592666,-0.22225 -0.09525,-0.10583 -0.127,-0.26458 -0.127,-0.66675 v -1.49225 h 0.243416 c 0.497417,0 0.624417,0.0212 0.783167,0.13758 0.1905,0.14817 0.306917,0.48684 0.359833,1.10067 h 0.783167 v -3.429 h -0.783167 c -0.05292,0.52917 -0.127,0.80433 -0.264583,0.9525 -0.137583,0.15875 -0.296333,0.20108 -0.814917,0.20108 h -0.306916 v -0.99483 c 0,-0.48683 0.02117,-0.60325 0.09525,-0.70908 0.09525,-0.127 0.359833,-0.1905 0.79375,-0.1905 1.100666,0 1.820333,0.41275 2.645833,1.53458 z"
         inkscape:connector-curvature="0" />
      <path
         d="m 91.24221,128.46648 c -0.05715,0.76947 -0.126735,1.08706 -0.232777,1.27217 -0.112976,0.21363 -0.358703,0.34101 -0.604222,0.3397 -0.08117,-4.1e-4 -0.162542,-0.001 -0.24412,-0.003 -0.09456,0.54179 -0.20583,1.08396 -0.3338,1.6265 1.035683,0.23781 2.084098,0.38141 3.142113,0.39863 0.108448,0.001 0.217083,8.5e-4 0.3259,-7.9e-4 0.161992,-0.002 0.323813,-0.008 0.48538,-0.0178 -0.04779,-0.5747 -0.09046,-1.14922 -0.128001,-1.72355 -0.07397,-0.01 -0.147501,-0.0209 -0.220594,-0.0327 -0.06368,-0.0103 -0.126544,-0.0319 -0.18545,-0.0633 0,0 0,0 0,0 -0.11167,-0.0551 -0.208531,-0.14197 -0.273887,-0.25078 0,0 0,0 0,0 -0.0234,-0.0375 -0.04304,-0.0774 -0.05828,-0.1192 -0.08591,-0.2144 -0.108172,-0.52618 -0.105138,-1.32696 0.0092,-2.41701 -0.02129,-4.83503 -0.09134,-7.25407 -0.02321,-0.80139 -0.008,-1.11353 0.07565,-1.32762 0.01476,-0.0418 0.03412,-0.0816 0.05746,-0.11895 0,0 0,0 0,0 0.06585,-0.11257 0.164937,-0.20327 0.279959,-0.261 0,0 0,0 0,0 0.06107,-0.0304 0.126435,-0.0508 0.192854,-0.0595 0.07623,-0.0101 0.152849,-0.0189 0.229837,-0.0264 0.02708,-0.57191 0.05929,-1.14363 0.09662,-1.71517 -0.169544,-0.0153 -0.339723,-0.0255 -0.510427,-0.03 -0.113885,-0.003 -0.228008,-0.004 -0.342334,-0.002 -1.103626,0.0191 -2.18325,0.19771 -3.238272,0.49135 0.149482,0.53626 0.28226,1.07289 0.398334,1.60991 0.08334,-0.006 0.166527,-0.0112 0.249565,-0.0156 0.251327,-0.0134 0.50723,0.1036 0.630111,0.31281 0.114882,0.18105 0.196198,0.49541 0.280518,1.26223 0.257369,2.34056 0.298812,4.68547 0.124327,7.03472 z"
         style="font-style:normal;font-variant:normal;font-weight:bold;font-stretch:normal;font-family:'URW Bookman L';-inkscape-font-specification:'URW Bookman L Bold';fill:#0088aa;stroke-width:0.26458332"
         id="path836"
         inkscape:original-d="m 90.66938,127.222 c 0,0.40217 -0.03175,0.56092 -0.127,0.66675 -0.09525,0.11642 -0.338666,0.20108 -0.592666,0.22225 l -0.254,0.0212 V 129 h 3.799416 v -0.86783 l -0.254,-0.0212 c -0.254,-0.0212 -0.497416,-0.10583 -0.592666,-0.22225 -0.09525,-0.10583 -0.127,-0.26458 -0.127,-0.66675 v -3.65125 c 0,-0.40217 0.03175,-0.56092 0.127,-0.66675 0.09525,-0.11642 0.338666,-0.20108 0.592666,-0.22225 l 0.254,-0.0212 v -0.86783 h -3.799416 v 0.86783 l 0.254,0.0212 c 0.254,0.0212 0.497416,0.10583 0.592666,0.22225 0.09525,0.10583 0.127,0.26458 0.127,0.66675 z"
         inkscape:connector-curvature="0" />
      <path
         d="m 98.472495,120.26401 c -0.02995,-0.15231 -0.07531,-0.3065 -0.135652,-0.45772 -0.197585,-0.49702 -0.570291,-0.95806 -1.052546,-1.19788 -0.819808,-0.40768 -1.701329,-0.22057 -2.324352,0.44454 -0.628185,0.67062 -0.952828,1.7574 -1.022184,3.08116 -0.06796,1.29708 0.129872,2.47254 0.480904,3.0981 0.223083,0.38731 0.445315,0.66184 1.351301,1.10157 0.270649,0.1353 0.548306,0.25674 0.834692,0.36234 0.130048,0.0481 0.242583,0.0921 0.342807,0.1378 0.429461,0.20753 0.601523,0.41659 0.759815,0.88081 0.176971,0.51899 0.178477,1.0033 -0.03923,1.37541 -0.112444,0.20475 -0.290536,0.36908 -0.529655,0.45658 -0.659547,0.24136 -1.487888,-0.15042 -2.066891,-1.1313 -0.293667,-0.52373 -0.530592,-1.09116 -0.758861,-2.0026 -0.175238,0.17759 -0.345913,0.35499 -0.519701,0.53579 0.277446,1.77173 0.685096,3.49412 1.403306,5.17845 0.217028,-0.0438 0.433008,-0.0942 0.647746,-0.15064 -0.04859,-0.3404 -0.09506,-0.6786 -0.138399,-1.01515 0.599309,0.51659 1.486888,0.6448 2.218178,0.31616 0.257226,-0.1156 0.477265,-0.27476 0.657418,-0.46389 0,0 1e-6,0 1e-6,0 0.194812,-0.20238 0.343193,-0.43593 0.452655,-0.68491 0.425183,-0.99209 0.369498,-2.4152 0.08254,-3.46578 -0.210612,-0.77107 -0.596425,-1.48426 -1.058993,-1.95284 -0.233867,-0.24192 -0.331625,-0.31582 -0.645483,-0.5745 -0.141601,-0.12138 -0.330991,-0.27958 -0.538025,-0.46156 2.53e-4,2.1e-4 -0.02662,-0.0231 -0.02637,-0.0228 -0.220362,-0.18541 -0.438217,-0.37951 -0.657925,-0.58165 -0.02076,-0.0233 -0.15353,-0.13034 -0.360189,-0.29566 -0.442328,-0.37266 -0.625769,-0.8018 -0.514743,-1.42186 0.143995,-0.80419 0.702196,-1.23131 1.316531,-0.96733 0.391827,0.16837 0.683943,0.61555 0.838001,1.14301 0.05961,0.19722 0.103515,0.40692 0.131504,0.62003 0.02985,0.21485 0.05312,0.40938 0.09265,0.70572 0.02088,0.16942 0.05391,0.41364 0.11016,0.68014 0.259543,-0.0725 0.543779,-0.13385 0.855798,-0.18732 0.03196,-0.97877 0.318105,-2.00448 0.833809,-3.12398 -0.117179,-0.0746 -0.233909,-0.14983 -0.350516,-0.22521 -0.07874,-0.0509 -0.157434,-0.10189 -0.236187,-0.15274 -0.150788,0.13792 -0.295393,0.27775 -0.433917,0.41975 z"
         style="font-style:normal;font-variant:normal;font-weight:bold;font-stretch:normal;font-family:'URW Bookman L';-inkscape-font-specification:'URW Bookman L Bold';fill:#0088aa;stroke-width:0.26458332"
         id="path838"
         inkscape:original-d="m 98.56868,122.13142 c -0.423333,-0.28575 -1.0795,-0.47625 -1.693333,-0.47625 -1.5875,0 -2.7305,0.96308 -2.7305,2.30716 0,0.66675 0.296333,1.24884 0.804333,1.57692 0.370417,0.23283 0.582084,0.30692 1.830917,0.61383 l 1.04775,0.26459 c 0.79375,0.20108 1.016,0.35983 1.016,0.75141 0,0.55034 -0.550333,0.94192 -1.3335,0.94192 -0.740833,0 -1.481667,-0.32808 -2.010833,-0.87842 -0.28575,-0.3175 -0.486834,-0.58208 -0.762,-1.0795 l -0.79375,0.26459 0.878416,2.69875 h 0.624417 l 0.148167,-0.51859 c 0.4445,0.32809 1.17475,0.53975 1.894416,0.53975 1.725084,0 2.99508,-1.0795 2.99508,-2.54 0,-0.65616 -0.28575,-1.23825 -0.77258,-1.55575 -0.3175,-0.21166 -0.624416,-0.3175 -1.513416,-0.56091 l -0.963084,-0.254 c -0.03175,-0.0106 -0.22225,-0.0529 -0.518583,-0.11642 -0.645583,-0.14817 -0.931333,-0.34925 -0.931333,-0.68792 0,-0.43391 0.486833,-0.74083 1.164166,-0.74083 0.60325,0 1.259417,0.28575 1.661584,0.71967 0.179916,0.1905 0.3175,0.35983 0.656166,0.8255 l 0.762,-0.28575 -0.6985,-2.14842 h -0.635 z"
         inkscape:connector-curvature="0" />
      <path
         d="m 104.61473,124.20974 c -0.0356,-0.34018 -0.0854,-0.67962 -0.14951,-1.0183 -0.12867,-0.67958 0.0401,-0.8041 0.82985,-1.04972 0.0926,-0.0282 0.18338,-0.0575 0.27233,-0.0877 -0.16735,-0.30266 -0.35869,-0.60477 -0.57401,-0.90634 -0.45204,0.18433 -0.92485,0.32037 -1.40672,0.38088 -0.24602,0.0312 -0.49419,0.0426 -0.74296,0.0306 -0.63489,-0.0311 -1.25009,-0.21616 -1.82786,-0.47843 -0.24765,0.33835 -0.46503,0.67579 -0.65214,1.01233 0.0787,0.0345 0.15917,0.0677 0.2414,0.0994 0.71408,0.28171 0.81389,0.39589 0.61431,1.14304 -0.34536,1.29284 -0.3251,2.55721 0.0608,3.79313 0.2185,0.69979 0.1271,0.8459 -0.60109,1.12645 -0.0834,0.0315 -0.16496,0.0634 -0.24484,0.0958 0.19457,0.32513 0.41941,0.64936 0.67451,0.97268 0.59214,-0.28065 1.22012,-0.52166 1.89848,-0.65247 0.26569,-0.0536 0.53619,-0.0904 0.81237,-0.10594 0.54625,-0.0214 1.07721,0.059 1.57553,0.20839 0.18307,-0.31058 0.34215,-0.62062 0.47725,-0.93012 -0.0954,-0.0254 -0.19275,-0.0491 -0.29214,-0.0712 -0.85158,-0.19356 -1.04347,-0.27539 -0.96913,-0.97606 0.0559,-0.52648 0.0782,-1.05121 0.0671,-1.57418 1.009,-0.0384 1.90382,-0.0459 2.66372,-0.0291 0.20927,0.01 0.41056,0.0236 0.60363,0.0412 0.3533,0.0196 0.68912,0.04 1.00855,0.0607 -0.002,0.69216 -0.13457,1.38142 -0.39676,2.06776 -0.34546,0.90432 -0.68088,0.98795 -1.34884,0.82394 -0.0293,-0.007 -0.0587,-0.0148 -0.0882,-0.0221 -0.0574,-0.0152 -0.11543,-0.0299 -0.17399,-0.0441 -0.18711,0.33615 -0.40689,0.67228 -0.65935,1.00841 0.0473,0.0238 0.0942,0.0481 0.14065,0.073 1.18808,0.63307 2.16234,1.52054 3.04397,2.4388 0.38377,-0.5191 0.71929,-1.04031 1.00656,-1.56362 -0.0474,-0.0544 -0.0954,-0.10853 -0.14408,-0.16223 -0.44709,-0.50589 -0.32857,-0.71585 0.10072,-1.86279 0.74422,-1.98835 0.66501,-4.00957 -0.23762,-6.06364 -0.51941,-1.18198 -0.65127,-1.41124 -0.19022,-1.90102 0.0508,-0.0525 0.10104,-0.10544 0.15074,-0.15888 -0.32115,-0.54977 -0.69056,-1.10163 -1.10821,-1.6556 -0.95211,0.89913 -1.96099,1.75836 -3.10086,2.40529 -0.0442,0.0251 -0.0887,0.0498 -0.13332,0.0743 0.29032,0.33627 0.54796,0.67254 0.77293,1.00879 0.003,-6e-4 0.16733,-0.0343 0.17028,-0.0349 0.0291,-0.007 0.0581,-0.0133 0.0871,-0.02 0.66493,-0.14882 1.0173,-0.0465 1.45883,0.87439 0.21921,0.45717 0.38295,0.91309 0.49123,1.36777 -0.31562,0.026 -0.64674,0.0498 -0.99437,0.0711 -0.18965,0.004 -0.38695,0.0112 -0.59178,0.0208 -0.74316,0.051 -1.61462,0.10925 -2.59478,0.16945 z"
         style="font-style:normal;font-variant:normal;font-weight:bold;font-stretch:normal;font-family:'URW Bookman L';-inkscape-font-specification:'URW Bookman L Bold';fill:#0088aa;stroke-width:0.26458332"
         id="path840"
         inkscape:original-d="m 103.70325,124.60792 v -1.03717 c 0,-0.67733 0.127,-0.8255 0.71967,-0.889 l 0.21166,-0.0212 v -0.86783 h -3.71475 v 0.86783 l 0.21167,0.0212 c 0.59267,0.0635 0.71967,0.21167 0.71967,0.889 v 3.65125 c 0,0.67733 -0.127,0.8255 -0.71967,0.889 l -0.21167,0.0212 V 129 h 3.71475 v -0.86783 l -0.21166,-0.0212 c -0.59267,-0.0635 -0.71967,-0.21167 -0.71967,-0.889 v -1.5875 h 2.68817 v 1.5875 c 0,0.67733 -0.127,0.8255 -0.71967,0.889 l -0.21167,0.0212 V 129 h 3.71475 v -0.86783 l -0.21166,-0.0212 c -0.59267,-0.0635 -0.71967,-0.21167 -0.71967,-0.889 v -3.65125 c 0,-0.67733 0.127,-0.8255 0.71967,-0.889 l 0.21166,-0.0212 v -0.86783 h -3.71475 v 0.86783 l 0.21167,0.0212 c 0.59267,0.0635 0.71967,0.21167 0.71967,0.889 v 1.03717 z"
         inkscape:connector-curvature="0" />
    </g>
    <path
       style="opacity:1;fill:#0088aa;fill-opacity:1;stroke:none;stroke-width:2.08745217;stroke-linecap:butt;stroke-linejoin:miter;stroke-miterlimit:4;stroke-dasharray:none;stroke-dashoffset:0;stroke-opacity:1"
       d="m 86.37553,90.852738 a 27.651843,27.651843 0 0 0 -5.7727,7.157573 27.651843,27.651843 0 0 0 5.770089,7.150179 5.6537219,16.241601 0 0 0 0.585188,-7.150179 5.6537219,16.241601 0 0 0 -0.582577,-7.157573 z m -1.48886,3.704744 a 1.1821418,1.1821418 0 0 1 1.182124,1.182558 1.1821418,1.1821418 0 0 1 -1.182124,1.182124 1.1821418,1.1821418 0 0 1 -1.182123,-1.182124 1.1821418,1.1821418 0 0 1 1.182123,-1.182558 z"
       id="path819"
       inkscape:connector-curvature="0" />
  </g>
</svg>
