<?xml version="1.0" encoding="UTF-8" standalone="no"?>
<!-- Created with Inkscape (http://www.inkscape.org/) -->

<svg
   xmlns:dc="http://purl.org/dc/elements/1.1/"
   xmlns:cc="http://creativecommons.org/ns#"
   xmlns:rdf="http://www.w3.org/1999/02/22-rdf-syntax-ns#"
   xmlns:svg="http://www.w3.org/2000/svg"
   xmlns="http://www.w3.org/2000/svg"
   xmlns:sodipodi="http://sodipodi.sourceforge.net/DTD/sodipodi-0.dtd"
   xmlns:inkscape="http://www.inkscape.org/namespaces/inkscape"
   width="168.90033mm"
   height="96.396912mm"
   viewBox="0 0 168.90033 96.396912"
   version="1.1"
   id="svg8"
   inkscape:version="0.92.3 (2405546, 2018-03-11)"
   sodipodi:docname="19 - Vector Silhouttes from Raster Graphics.svg">
  <defs
     id="defs2">
    <inkscape:path-effect
       effect="envelope"
       id="path-effect869"
       is_visible="true"
       yy="true"
       xx="false"
       bendpath1="M 29.496555,98.743382 C 162.26488,-13.538069 51.984934,68.915806 175.60533,94.96362"
       bendpath2="M 175.60533,98.743382 V 133.96237"
       bendpath3="M 29.496555,133.96237 H 175.60533"
       bendpath4="M 29.496555,98.743382 V 133.96237"
       bendpath1-nodetypes="cc" />
  </defs>
  <sodipodi:namedview
     id="base"
     pagecolor="#ffffff"
     bordercolor="#666666"
     borderopacity="1.0"
     inkscape:pageopacity="0.0"
     inkscape:pageshadow="2"
     inkscape:zoom="0.42956861"
     inkscape:cx="259.17658"
     inkscape:cy="-101.01961"
     inkscape:document-units="mm"
     inkscape:current-layer="layer1"
     showgrid="false"
     inkscape:snap-bbox="true"
     inkscape:snap-bbox-midpoints="true"
     inkscape:snap-bbox-edge-midpoints="true"
     showguides="false"
     fit-margin-top="0"
     fit-margin-left="0"
     fit-margin-right="0"
     fit-margin-bottom="0"
     inkscape:window-width="956"
     inkscape:window-height="1015"
     inkscape:window-x="960"
     inkscape:window-y="0"
     inkscape:window-maximized="0" />
  <metadata
     id="metadata5">
    <rdf:RDF>
      <cc:Work
         rdf:about="">
        <dc:format>image/svg+xml</dc:format>
        <dc:type
           rdf:resource="http://purl.org/dc/dcmitype/StillImage" />
        <dc:title></dc:title>
      </cc:Work>
    </rdf:RDF>
  </metadata>
  <g
     inkscape:label="Ebene 1"
     inkscape:groupmode="layer"
     id="layer1"
     transform="translate(-16.271889,-33.420773)">
    <path
       style="fill:#ff0000;stroke-width:0.26458332"
       d="m 82.750077,129.55052 c -6.728951,0.19051 -13.677926,-3.7799 -15.611096,-10.48948 -3.092129,-6.53291 0.303768,-13.90576 0.818016,-20.378753 2.960653,-4.05279 1.450268,-5.83465 -2.33869,-2.4424 -5.924416,4.483223 -13.412385,6.345483 -20.62989,7.359213 -6.530113,0.18194 -13.038266,-0.60336 -19.50473,-1.32501 -6.740091,-1.117 -12.843084,-9.158433 -6.62631,-14.750103 4.200712,-5.31705 11.108785,-8.90985 17.927684,-8.36285 6.854455,1.05758 14.264191,2.10904 19.844997,6.50187 5.046379,1.56305 12.437116,8.88315 16.242137,1.9691 -1.040242,-6.16463 -0.431382,-12.70397 0.411424,-18.90644 2.281666,-6.47016 6.272829,-12.39966 12.277205,-15.92829 5.560851,-4.36568 12.71998,-5.62388 19.524966,-6.45894 4.04102,-5.03734 8.14961,-10.30499 14.59479,-12.60626 6.01432,-0.21648 13.73881,-1.6448 17.71348,4.15051 6.31799,1.16103 13.27424,0.85282 19.53992,3.30696 6.51989,2.27186 13.07367,4.42606 18.44661,8.86815 7.3828,4.83361 9.33794,14.11675 9.78974,22.34064 0.0922,7.85005 -3.18434,15.74088 -10.0851,19.83087 -5.32142,4.51635 -9.49524,10.435063 -15.35685,14.235373 -5.45537,3.39685 -11.53588,6.29255 -18.18291,5.2208 -8.81534,-0.54492 -18.68307,-0.94119 -25.22557,-7.73407 -1.7678,-2.15612 -4.90119,-0.70862 -7.32682,-1.12881 -1.39643,5.97492 -3.86211,11.5383 -5.712,17.33773 -4.170781,5.303 -10.468338,10.60754 -17.697478,9.51255 l -1.363123,-0.0584 z m 8.938492,-3.06106 c 7.211918,-2.68727 10.215991,-9.27664 12.354561,-16.0304 0.72431,-4.1148 4.59627,-8.80775 -0.16365,-11.694163 -1.80948,-2.81506 -1.97973,-7.31483 -6.318517,-5.8042 -5.274322,0.003 -10.590719,0.33527 -15.796033,0.83015 3.457627,5.57826 8.967664,10.140793 13.387853,15.131233 3.714783,2.94581 -0.566784,6.74488 -1.901813,1.78521 -4.601443,-5.0372 -9.467069,-9.63939 -13.7324,-14.952383 -2.698176,-4.00302 -7.438614,0.91467 -6.983969,4.783973 -3.86892,4.84772 -5.953348,12.88832 -2.42001,18.70487 2.56796,7.44858 11.492768,8.36346 18.253811,7.89686 1.124035,-0.0224 2.340519,0.002 3.320167,-0.65115 z M 47.438767,100.80968 c 5.601335,-1.840443 11.675783,-2.662223 16.360681,-6.576053 3.822707,-3.51167 -8.654098,-4.60007 -10.537111,-7.68322 -5.549493,-3.24479 -12.235982,-4.28391 -18.572619,-5.10601 -6.518845,1.41917 -14.551712,4.95454 -15.881594,12.15364 2.298595,7.135073 11.94806,6.756873 18.16904,7.332283 3.436859,0.5018 7.026874,0.3742 10.461603,-0.12064 z m 39.262512,-9.912973 c 4.041795,-1.43383 16.637651,2.73644 12.35779,-4.94739 -8.364274,0.80157 -1.145396,-16.43772 -8.15161,-8.26213 -4.108359,4.2555 -11.244693,7.05091 -13.650138,11.95958 2.110066,3.18238 6.370597,0.99597 9.443958,1.24994 z m -10.848382,-7.36339 c 2.663986,-6.58694 8.943123,-9.86827 14.858105,-13.00873 7.288163,-2.63538 4.824198,-12.42541 9.542618,-17.8776 4.58652,-6.4839 -7.878702,-0.81655 -10.505024,0.58335 -6.167645,3.13717 -10.730893,8.37347 -13.402405,14.68841 -1.377384,3.87986 -2.603304,14.70481 -0.493294,15.61457 z m 97.010703,-0.33473 c 2.37116,-5.74677 -4.38419,-13.13092 -10.42247,-14.77028 -8.565,-4.64528 -17.70986,-8.04146 -26.42358,-12.39198 -6.81736,-2.402 -7.37947,4.33563 -4.89106,8.81973 1.2073,3.76958 -3.8121,11.58375 2.12936,6.72698 6.85927,-2.56657 14.40092,-3.37712 21.7058,-3.29092 5.95207,1.46243 11.96322,4.72273 14.55527,10.59326 1.71661,0.84592 0.71447,7.11819 3.34668,4.31321 z m -91.194563,-1.65661 c 2.298984,-2.05172 10.220622,-6.72888 8.608577,-7.76239 -3.414547,1.67451 -11.756052,6.76907 -10.133836,8.96404 l 0.697069,-0.54101 z m 43.090643,-2.59802 c 2.59569,-6.14335 5.90309,-12.87363 2.29321,-19.37413 -6.47238,-1.20501 -5.37919,5.20172 -4.27671,9.58868 1.14684,2.20761 -0.0839,10.37651 1.9835,9.78545 z m -2.09477,-21.10633 c 6.92178,-2.30637 -7.65211,-3.50252 -1.58499,0.52917 l 0.64364,-0.15777 z m -11.61153,-13.08249 c 5.41228,-4.3943 12.35377,-5.34967 19.05089,-6.05495 9.33775,-1.15001 -6.4837,-4.28676 -9.49864,-2.45527 -3.09936,1.20131 -11.93714,6.76006 -9.55225,8.51022 z"
       id="path908"
       inkscape:connector-curvature="0" />
  </g>
</svg>
