<?xml version="1.0" encoding="UTF-8" standalone="no"?>
<!-- Created with Inkscape (http://www.inkscape.org/) -->

<svg
   xmlns:dc="http://purl.org/dc/elements/1.1/"
   xmlns:cc="http://creativecommons.org/ns#"
   xmlns:rdf="http://www.w3.org/1999/02/22-rdf-syntax-ns#"
   xmlns:svg="http://www.w3.org/2000/svg"
   xmlns="http://www.w3.org/2000/svg"
   xmlns:sodipodi="http://sodipodi.sourceforge.net/DTD/sodipodi-0.dtd"
   xmlns:inkscape="http://www.inkscape.org/namespaces/inkscape"
   width="135.00726mm"
   height="135.06602mm"
   viewBox="0 0 135.00726 135.06602"
   version="1.1"
   id="svg8"
   inkscape:version="0.92.3 (2405546, 2018-03-11)"
   sodipodi:docname="24 - Wireframe Patterns.svg">
  <defs
     id="defs2">
    <inkscape:path-effect
       effect="curvestitching"
       id="path-effect822"
       is_visible="true"
       count="75"
       startpoint_edge_variation="0;1"
       startpoint_spacing_variation="0;1"
       endpoint_edge_variation="0;1"
       endpoint_spacing_variation="0;1"
       strokepath="m 48.837212,131.44186 c 37.604651,-94.255814 146.023258,-157.255814 102.558138,0"
       prop_scale="1"
       scale_y_rel="false"
       strokepath-nodetypes="cc" />
  </defs>
  <sodipodi:namedview
     id="base"
     pagecolor="#ffffff"
     bordercolor="#666666"
     borderopacity="1.0"
     inkscape:pageopacity="0.0"
     inkscape:pageshadow="2"
     inkscape:zoom="0.54176587"
     inkscape:cx="350.15136"
     inkscape:cy="212.92099"
     inkscape:document-units="mm"
     inkscape:current-layer="layer1"
     showgrid="false"
     fit-margin-top="0"
     fit-margin-left="0"
     fit-margin-right="0"
     fit-margin-bottom="0"
     inkscape:window-width="956"
     inkscape:window-height="1015"
     inkscape:window-x="960"
     inkscape:window-y="0"
     inkscape:window-maximized="0" />
  <metadata
     id="metadata5">
    <rdf:RDF>
      <cc:Work
         rdf:about="">
        <dc:format>image/svg+xml</dc:format>
        <dc:type
           rdf:resource="http://purl.org/dc/dcmitype/StillImage" />
        <dc:title></dc:title>
      </cc:Work>
    </rdf:RDF>
  </metadata>
  <g
     inkscape:label="Ebene 1"
     inkscape:groupmode="layer"
     id="layer1"
     transform="translate(-32.612648,-63.908852)">
    <path
       id="circle817"
       style="opacity:1;fill:none;fill-opacity:1;stroke:#aa0044;stroke-width:1;stroke-linecap:round;stroke-linejoin:round;stroke-miterlimit:4;stroke-dasharray:none;stroke-dashoffset:0;stroke-opacity:1"
       d="m 110.86046,179.3183 c 13.52878,-94.255816 52.53383,-157.255816 36.89667,0 m -40.98501,0.73597 c 21.43515,-92.776742 65.60168,-152.258516 36.74509,3.11506 m -40.87133,-2.73018 c 29.14059,-90.649253 78.09624,-146.216375 36.30037,6.18457 m -40.44816,-6.15093 c 36.62701,-87.887188 89.99953,-139.164683 35.57751,9.19355 m -39.725596,-9.5127 C 138.21668,95.65206 195.62746,49.019618 128.94151,192.28061 M 90.227676,179.48064 C 141.05009,98.976184 202.10785,57.323991 123.58506,194.45048 M 86.161354,178.45501 C 143.61012,102.54269 207.90539,66.182728 118.05149,196.16215 M 82.184403,177.08163 C 145.87855,106.33274 212.97958,75.548941 112.38919,197.40551 M 78.331844,175.37 C 147.83558,110.32302 217.28614,85.365206 106.64816,198.17504 M 74.638668,173.33461 C 149.46139,114.48541 220.78083,95.562728 100.87842,198.47023 M 71.138134,170.99464 C 150.73789,118.78719 223.4234,106.06193 95.128228,198.29525 M 67.860252,168.37316 C 151.65011,123.19194 225.181,116.77441 89.442601,197.65816 M 64.830669,165.49577 C 152.1873,127.66074 226.03077,127.60597 83.862194,196.56955 M 62.070106,162.38894 C 152.3435,132.15383 225.96108,138.46039 78.422733,195.0409 M 59.594414,159.07833 c 92.523046,-22.44606 165.377026,-9.83499 13.560663,34.00452 M 57.415234,155.58717 c 94.096776,-14.52774 165.655736,4.27887 10.670641,35.11645 M 55.54119,151.93497 c 94.99171,-6.53265 164.73451,18.31319 7.697564,35.97277 m -9.25928,-39.77104 c 95.207796,1.49562 162.625426,32.18311 4.656443,36.55843 m -5.898192,-40.49274 c 94.744095,9.52323 159.339135,45.81996 1.562281,36.85846 m -2.472143,-40.91339 c 93.598427,17.5063 154.890357,59.13887 -1.56228,36.85845 m 1.002011,-40.96749 c 91.793076,25.31389 149.365656,71.92136 -4.656441,36.55843 m 4.447028,-40.6978 c 89.346829,32.91268 142.814779,84.12354 -7.697562,35.97276 m 7.840108,-40.12366 c 86.271643,40.2798 135.269823,95.71942 -10.670639,35.11646 M 51.696776,123.6094 C 134.27534,170.99211 178.4582,230.27631 38.136115,157.61392 M 52.546449,119.51107 C 130.82792,173.69095 169.87137,236.41996 36.193824,152.16303 M 53.74684,115.48512 c 73.40018,60.62247 107.00557,126.37609 -19.031522,31.07378 m 20.575523,-34.99295 c 67.962799,66.65689 95.862449,134.99126 -21.582347,29.28499 m 23.457975,-33.06216 c 62.007021,72.22789 83.970621,142.67443 -23.990091,27.3006 m 26.18044,-30.90144 c 55.580242,77.28198 71.421342,149.34854 -26.239749,25.13561 m 28.723548,-28.52832 c 48.738433,81.77068 58.320213,154.94486 -28.316314,22.80504 M 64.593348,97.638594 C 106.13733,183.29166 109.37681,257.04595 34.388569,117.96247 M 67.588758,94.741244 C 101.65142,183.6388 98.52182,257.43672 35.698622,112.44839 M 70.800568,92.121421 C 97.160898,183.60376 87.69161,256.90647 37.443186,107.09126 M 74.204151,89.792752 C 92.70372,183.18745 76.97816,255.45977 39.612646,101.91972 M 77.778,87.765193 C 88.314831,182.39432 66.466331,253.10959 42.200497,96.958735 M 81.504798,86.046433 C 84.025108,181.23104 56.231403,249.8741 45.204431,92.231 m 40.167605,-7.58736 c -5.511262,95.06112 -39.034362,161.129 -36.74509,3.11505 M 89.372101,83.565432 C 75.843314,177.82124 36.83826,240.82124 52.475435,83.565428 M 93.460442,82.829455 C 72.025286,175.6062 27.858753,235.08797 56.715352,79.714399 m 40.871332,2.730184 C 68.446087,173.09383 19.49043,228.66095 61.286318,76.260009 m 40.448152,6.150929 C 65.107455,170.29813 11.734934,221.57561 66.15697,73.217389 m 39.72559,9.512701 C 62.015868,167.23167 4.6050893,213.8641 71.291053,70.603117 M 110.00489,83.403092 C 59.182461,163.90754 -1.8752987,205.55973 76.647507,68.43325 M 114.07121,84.428728 C 56.622432,160.34103 -7.6728402,196.70099 82.181073,66.721579 M 118.04816,85.802108 C 54.353997,156.55098 -12.747032,187.33477 87.843382,65.478223 M 121.90072,87.513734 C 52.396974,152.5607 -17.053586,177.51851 93.584407,64.708689 m 32.009483,24.84044 C 50.771157,148.39832 -20.548279,167.32098 99.354147,64.413507 M 129.09443,91.889096 C 49.494659,144.09653 -23.190847,156.82178 105.10434,64.588487 m 27.26797,29.922086 C 48.582444,139.69179 -24.948451,146.1093 110.78997,65.225574 m 24.61192,32.162394 C 48.045252,135.22299 -25.798216,135.27774 116.37037,66.314181 M 138.16245,100.4948 C 47.889051,130.72989 -25.728524,124.42332 121.80983,67.842833 m 18.82832,35.962577 c -92.52306,22.44604 -165.377032,9.83496 -13.56066,-34.004527 m 15.73983,37.495687 c -94.096778,14.52772 -165.655732,-4.2789 -10.67063,-35.116461 m 12.54468,38.768651 C 49.699654,117.4814 -20.043137,92.635551 136.99381,74.975998 m 9.25927,39.771042 C 51.045288,113.2514 -16.372341,82.563894 141.59665,78.188601 m 5.89818,40.492739 C 52.750737,109.1581 -11.844296,72.861355 145.93256,81.822885 m 2.47213,40.913395 C 54.806272,105.22996 -6.4856534,63.597376 149.96698,85.87782 m -1.00202,40.9675 C 57.171893,101.53142 -0.40068512,54.923928 153.62141,90.286887 m -4.44704,40.697793 C 59.827544,98.071991 6.3596061,46.861124 156.87194,95.011917 m -7.84011,40.123663 C 62.760188,94.855773 13.762019,39.416145 159.70247,100.01913 m -11.16669,39.2552 C 65.957217,91.891611 21.774366,32.607408 162.09644,105.26981 m -14.41033,38.10285 C 69.404639,89.192776 30.361195,26.463756 164.03874,110.7207 m -17.55303,36.67791 C 73.085537,86.776131 39.480155,21.022505 165.51724,116.32483 m -20.57553,34.99295 C 76.978916,84.660887 49.079281,16.326507 166.52407,122.03278 m -23.45798,33.06217 C 81.059065,82.86706 59.09548,12.420514 167.05618,127.79435 m -26.18044,30.90144 C 85.295499,81.413805 69.454404,9.347243 167.11549,133.56017 M 138.39194,162.0885 C 89.653507,80.317822 80.071739,7.1436289 166.70826,139.28346 m -31.06905,25.96168 C 94.095233,79.592069 90.855752,5.8377747 165.84399,144.92125 M 132.6438,168.14248 C 98.581139,79.24493 101.71074,5.447001 164.53394,150.43534 m -35.10195,20.32697 C 103.07166,79.279969 112.54095,5.9772579 162.78938,155.79247 m -36.76097,17.29851 C 107.52884,79.696283 123.2544,7.4239609 160.61992,160.96401 m -38.16536,14.15453 C 111.91773,80.489411 133.76623,9.7741342 158.03207,165.92499 m -39.30431,10.91231 c -2.52031,-95.184607 25.27339,-163.827677 36.30037,-6.18457 m -40.16761,7.58736 c 5.51126,-95.06112 39.03436,-161.129006 36.7451,-3.11505 m -40.74516,4.19326 c 13.52878,-94.255816 52.53383,-157.255816 36.89667,0"
       inkscape:path-effect="#path-effect822"
       inkscape:original-d="m 110.86046,131.44186 a 10.744184,10.744184 0 0 1 -10.74418,10.74419 10.744184,10.744184 0 0 1 -10.744184,-10.74419 10.744184,10.744184 0 0 1 10.744184,-10.74418 10.744184,10.744184 0 0 1 10.74418,10.74418 z m 40.53489,0 a 51.279068,51.279068 0 0 1 -51.27907,51.27907 51.279068,51.279068 0 0 1 -51.279068,-51.27907 51.279068,51.279068 0 0 1 51.279068,-51.279064 51.279068,51.279068 0 0 1 51.27907,51.279064 z"
       inkscape:connector-curvature="0" />
  </g>
</svg>
