<?xml version="1.0" encoding="UTF-8" standalone="no"?>
<!-- Created with Inkscape (http://www.inkscape.org/) -->

<svg
   xmlns:dc="http://purl.org/dc/elements/1.1/"
   xmlns:cc="http://creativecommons.org/ns#"
   xmlns:rdf="http://www.w3.org/1999/02/22-rdf-syntax-ns#"
   xmlns:svg="http://www.w3.org/2000/svg"
   xmlns="http://www.w3.org/2000/svg"
   xmlns:xlink="http://www.w3.org/1999/xlink"
   xmlns:sodipodi="http://sodipodi.sourceforge.net/DTD/sodipodi-0.dtd"
   xmlns:inkscape="http://www.inkscape.org/namespaces/inkscape"
   width="167.50005mm"
   height="190.02786mm"
   viewBox="0 0 167.50005 190.02786"
   version="1.1"
   id="svg8"
   inkscape:version="0.92.3 (2405546, 2018-03-11)"
   sodipodi:docname="26 - Wavy Lines using Lattice Deformation.svg">
  <sodipodi:namedview
     inkscape:snap-global="false"
     id="base"
     pagecolor="#ffffff"
     bordercolor="#666666"
     borderopacity="1.0"
     inkscape:pageopacity="0.0"
     inkscape:pageshadow="2"
     inkscape:zoom="0.33387897"
     inkscape:cx="572.41046"
     inkscape:cy="327.46723"
     inkscape:document-units="mm"
     inkscape:current-layer="layer1"
     showgrid="false"
     inkscape:window-width="956"
     inkscape:window-height="1015"
     inkscape:window-x="960"
     inkscape:window-y="0"
     inkscape:window-maximized="0"
     fit-margin-top="0"
     fit-margin-left="0"
     fit-margin-right="0"
     fit-margin-bottom="0" />
  <defs
     id="defs2">
    <linearGradient
       inkscape:collect="always"
       id="linearGradient4266">
      <stop
         style="stop-color:#00add9;stop-opacity:1"
         offset="0"
         id="stop4262" />
      <stop
         style="stop-color:#d68d0d;stop-opacity:1"
         offset="1"
         id="stop4264" />
    </linearGradient>
    <inkscape:path-effect
       effect="lattice2"
       gridpoint0="14.651163,42.069602"
       gridpoint1="180.2093,42.069602"
       gridpoint2="14.651163,230.09302"
       gridpoint3="180.2093,230.09302"
       gridpoint4="56.040697,42.069602"
       gridpoint5="138.81977,42.069602"
       gridpoint6="56.040697,230.09302"
       gridpoint7="138.81977,230.09302"
       gridpoint8x9="97.430232,42.069602"
       gridpoint10x11="97.430232,230.09302"
       gridpoint12="14.651163,89.075457"
       gridpoint13="180.2093,89.075457"
       gridpoint14="14.651163,183.08717"
       gridpoint15="180.2093,183.08717"
       gridpoint16="56.040697,89.075457"
       gridpoint17="149.12166,133.45281"
       gridpoint18="79.02183,183.08716"
       gridpoint19="119.8009,202.10604"
       gridpoint20x21="114.86419,77.981118"
       gridpoint22x23="100.60004,152.18151"
       gridpoint24x26="14.651163,136.08131"
       gridpoint25x27="180.2093,136.08131"
       gridpoint28x30="56.040697,136.08131"
       gridpoint29x31="143.57449,164.60962"
       gridpoint32x33x34x35="106.14721,130.53414"
       id="path-effect4251"
       is_visible="true"
       horizontal_mirror="false"
       vertical_mirror="false"
       live_update="true" />
    <inkscape:path-effect
       effect="spiro"
       id="path-effect1947"
       is_visible="true" />
    <inkscape:path-effect
       effect="spiro"
       id="path-effect1943"
       is_visible="true" />
    <inkscape:path-effect
       effect="spiro"
       id="path-effect1048"
       is_visible="true" />
    <inkscape:path-effect
       is_visible="true"
       id="path-effect1044"
       effect="spiro" />
    <inkscape:path-effect
       effect="spiro"
       id="path-effect825"
       is_visible="true" />
    <inkscape:path-effect
       is_visible="true"
       id="path-effect821"
       effect="spiro" />
    <inkscape:path-effect
       effect="spiro"
       id="path-effect817"
       is_visible="true" />
    <linearGradient
       inkscape:collect="always"
       xlink:href="#linearGradient4266"
       id="linearGradient4268"
       x1="13.571883"
       y1="136.08353"
       x2="181.07193"
       y2="136.08353"
       gradientUnits="userSpaceOnUse" />
  </defs>
  <metadata
     id="metadata5">
    <rdf:RDF>
      <cc:Work
         rdf:about="">
        <dc:format>image/svg+xml</dc:format>
        <dc:type
           rdf:resource="http://purl.org/dc/dcmitype/StillImage" />
        <dc:title></dc:title>
      </cc:Work>
    </rdf:RDF>
  </metadata>
  <g
     inkscape:label="Ebene 1"
     inkscape:groupmode="layer"
     id="layer1"
     transform="translate(-13.571883,-41.069602)">
    <path
       style="fill:none;stroke:url(#linearGradient4268);stroke-width:2;stroke-linecap:butt;stroke-linejoin:round;stroke-miterlimit:4;stroke-dasharray:none;stroke-opacity:1"
       d="m 14.651163,230.09302 c 55.207143,0.01 165.558137,0 165.558137,0 M 14.651163,220.19705 c 16.943299,0.003 31.938448,-1.83308 51.676853,-3.01384 19.865337,-1.18837 34.363084,-0.88435 52.391154,0.63354 18.86576,1.58841 28.61652,3.02963 42.59777,3.24635 11.36475,0.17616 18.89236,-0.86605 18.89236,-0.86605 M 14.651163,210.30109 c 16.384879,0.003 35.983968,-3.39095 54.474486,-5.08522 20.303233,-1.86035 34.129551,-0.94751 51.241491,2.0154 17.41523,3.01542 27.30629,5.61658 40.67357,5.54352 11.23018,-0.0614 19.16859,-2.4737 19.16859,-2.4737 M 14.651163,200.40512 c 17.233998,0.002 38.233923,-4.43214 57.366751,-6.35429 21.027279,-2.11248 34.488086,-0.39235 50.736906,3.89871 16.22869,4.28574 25.66986,7.72862 38.41114,7.02506 10.88209,-0.6009 19.04334,-4.56948 19.04334,-4.56948 M 14.651163,190.50916 c 17.823912,0.002 40.243846,-5.10603 60.190912,-6.95753 10.219765,-0.94861 19.118582,-0.95505 27.799325,0.21839 8.64191,1.16818 15.86682,3.34198 22.94962,5.8444 7.16283,2.53069 12.9582,4.91705 19.1871,6.50948 6.11941,1.56444 11.46743,2 16.81351,1.31053 10.39185,-1.34023 18.61767,-6.92527 18.61767,-6.92527 M 14.651163,180.6132 c 18.181436,0.002 41.957142,-5.4627 62.805626,-7.02195 10.682419,-0.79893 19.875132,-0.51231 28.630881,1.09242 8.71607,1.59747 15.77203,4.27336 22.52766,7.21994 6.7975,2.96485 12.20539,5.67636 17.94641,7.32176 5.65196,1.61989 10.62137,1.85099 15.66366,0.72746 9.82305,-2.1888 17.9839,-9.33963 17.9839,-9.33963 M 14.651163,170.71723 c 18.333384,0.002 43.328958,-5.55004 65.090933,-6.66511 11.151368,-0.57138 20.675414,0.0464 29.562064,2.06559 8.84607,2.01002 15.80212,5.11843 22.29396,8.41204 6.51012,3.30288 11.55399,6.22591 16.85125,7.83696 5.21612,1.58636 9.80859,1.55889 14.53436,-0.0117 9.2303,-3.06757 17.22557,-11.63782 17.22557,-11.63782 M 14.651163,160.82127 c 18.30657,0.002 44.326179,-5.41378 66.948252,-5.99514 11.593292,-0.29793 21.455775,0.65703 30.510385,3.04647 9.01336,2.37854 15.93192,5.83111 22.23072,9.36774 6.29985,3.53722 11.03756,6.56671 15.95127,8.07441 4.83563,1.48375 9.08005,1.17297 13.50003,-0.82171 4.32198,-1.95045 8.3057,-5.33031 11.42256,-8.37493 3.10938,-3.03729 4.99492,-5.29684 4.99492,-5.29684 M 14.651163,150.9253 c -2.722958,-3.8e-4 65.577434,-5.11109 68.300393,-5.11071 11.979745,-0.007 22.161324,1.26397 31.403794,3.95668 9.20124,2.6807 16.13745,6.37453 22.31913,10.04651 6.16805,3.6639 10.67887,6.70325 15.28565,8.05617 4.53023,1.33043 8.47823,0.73718 12.62352,-1.62854 4.04545,-2.30874 7.84714,-6.11467 10.82303,-9.48121 2.9792,-3.37027 4.80262,-5.8389 4.80262,-5.8389 M 14.651163,141.02932 c 17.823913,0.002 45.123107,-4.64234 69.091544,-4.10107 12.287166,0.27747 22.745963,1.81967 32.180743,4.73099 9.39474,2.89896 16.39594,6.72106 22.53924,10.42012 6.11556,3.68235 10.49278,6.64381 14.88324,7.80697 4.31546,1.1433 8.03721,0.29025 11.95602,-2.36886 3.81686,-2.58993 7.45406,-6.70627 10.29546,-10.28813 2.85344,-3.59703 4.61189,-6.20002 4.61189,-6.20002 M 14.651163,131.13335 c 17.421699,0.002 44.915303,-4.08768 69.287279,-3.046 12.49689,0.53413 23.172288,2.28484 32.790128,5.31721 9.5808,3.02069 16.68574,6.85238 22.87009,10.47272 6.1417,3.59536 10.48708,6.40047 14.76246,7.3543 4.20273,0.93763 7.78263,-0.13435 11.53708,-2.99035 3.65083,-2.77717 7.15189,-7.06768 9.87478,-10.74746 2.74143,-3.70484 4.43632,-6.36042 4.43632,-6.36042 M 14.651163,121.23738 c 16.947981,0.002 44.317886,-3.47042 68.874558,-2.01583 12.59517,0.74606 23.411659,2.62845 33.191329,5.67625 9.74835,3.03805 16.98618,6.75944 23.2896,10.20079 6.24398,3.4089 10.66292,5.98932 14.93138,6.72835 4.19922,0.72705 7.73179,-0.50821 11.39463,-3.45156 7.23724,-5.81563 13.87664,-17.138 13.87664,-17.138 M 14.651163,111.34141 c 16.429571,0.002 43.356455,-2.82536 67.861725,-1.07148 12.573188,0.89989 23.444132,2.82773 33.354182,5.78215 9.88867,2.94805 17.27728,6.44247 23.77466,9.6132 6.41775,3.13186 11.01505,5.4306 15.38764,5.96199 4.30788,0.52352 7.89365,-0.80806 11.54497,-3.72198 7.21172,-5.75528 13.63496,-16.56388 13.63496,-16.56388 M 14.651163,101.44543 c 15.893285,0.002 42.068356,-2.185123 66.278505,-0.26438 12.427079,0.98591 23.258452,2.8681 33.259012,5.62198 9.99613,2.75266 17.53891,5.91093 24.30105,8.73115 6.65606,2.77598 11.53203,4.74895 16.11852,5.09083 4.5274,0.33748 8.26886,-1.01586 11.99275,-3.78201 7.34291,-5.45441 13.6083,-15.39757 13.6083,-15.39757 M 14.651163,91.549463 c 15.838713,0.0026 39.671824,-1.648347 64.176014,0.363445 12.157952,0.998167 22.852053,2.743309 32.896603,5.195949 10.07041,2.458955 17.74864,5.183233 24.8435,7.588213 6.94957,2.35573 12.19628,3.97338 17.10087,4.15319 4.85221,0.17789 8.84983,-1.11892 12.73103,-3.62297 7.63226,-4.92416 13.81012,-13.677827 13.81012,-13.677827 M 14.651163,81.65349 c 15.473558,0.0026 37.798918,-1.11177 61.626745,0.779445 25.949862,2.059641 40.884072,6.404022 57.643862,10.74763 15.08888,3.910561 23.03356,4.615356 32.04239,-0.057 C 174.04088,88.934642 180.2093,81.65349 180.2093,81.65349 M 14.651163,71.757518 c 15.149933,0.0026 35.822168,-0.655257 58.724579,0.9605 25.174426,1.776047 39.435168,5.081201 57.255648,8.328185 15.8926,2.895714 25.01954,3.232454 34.66861,-0.422236 8.67043,-3.28402 14.9093,-8.866449 14.9093,-8.866449 M 14.651163,61.861546 c 14.904106,0.0026 33.815314,-0.302723 55.584781,0.892939 24.386306,1.339388 37.479536,3.504378 56.569156,5.635922 16.72823,1.86787 27.1865,1.953722 37.6144,-0.543109 9.40394,-2.251659 15.7898,-5.985752 15.7898,-5.985752 M 14.651163,51.965574 c 14.769536,0.0027 31.865897,-0.07632 52.343999,0.572536 19.487105,0.617459 39.031548,1.974824 55.587498,2.806377 17.55262,0.881612 29.4445,0.850957 40.76157,-0.405433 10.25972,-1.139007 16.86507,-2.97348 16.86507,-2.97348 M 14.651163,42.069602 c 55.211627,0.01 165.558137,0 165.558137,0"
       id="path4248"
       inkscape:connector-curvature="0" />
    <path
       inkscape:connector-curvature="0"
       id="path4270"
       d="m 14.651163,230.09302 c 55.207143,0.01 165.558137,0 165.558137,0 M 14.651163,220.19705 c 16.943299,0.003 31.938448,-1.83308 51.676853,-3.01384 19.865337,-1.18837 34.363084,-0.88435 52.391154,0.63354 18.86576,1.58841 28.61652,3.02963 42.59777,3.24635 11.36475,0.17616 18.89236,-0.86605 18.89236,-0.86605 M 14.651163,210.30109 c 16.384879,0.003 35.983968,-3.39095 54.474486,-5.08522 20.303233,-1.86035 34.129551,-0.94751 51.241491,2.0154 17.41523,3.01542 27.30629,5.61658 40.67357,5.54352 11.23018,-0.0614 19.16859,-2.4737 19.16859,-2.4737 M 14.651163,200.40512 c 17.233998,0.002 38.233923,-4.43214 57.366751,-6.35429 21.027279,-2.11248 34.488086,-0.39235 50.736906,3.89871 16.22869,4.28574 25.66986,7.72862 38.41114,7.02506 10.88209,-0.6009 19.04334,-4.56948 19.04334,-4.56948 M 14.651163,190.50916 c 17.823912,0.002 40.243846,-5.10603 60.190912,-6.95753 10.219765,-0.94861 19.118582,-0.95505 27.799325,0.21839 8.64191,1.16818 15.86682,3.34198 22.94962,5.8444 7.16283,2.53069 12.9582,4.91705 19.1871,6.50948 6.11941,1.56444 11.46743,2 16.81351,1.31053 10.39185,-1.34023 18.61767,-6.92527 18.61767,-6.92527 M 14.651163,180.6132 c 18.181436,0.002 41.957142,-5.4627 62.805626,-7.02195 10.682419,-0.79893 19.875132,-0.51231 28.630881,1.09242 8.71607,1.59747 15.77203,4.27336 22.52766,7.21994 6.7975,2.96485 12.20539,5.67636 17.94641,7.32176 5.65196,1.61989 10.62137,1.85099 15.66366,0.72746 9.82305,-2.1888 17.9839,-9.33963 17.9839,-9.33963 M 14.651163,170.71723 c 18.333384,0.002 43.328958,-5.55004 65.090933,-6.66511 11.151368,-0.57138 20.675414,0.0464 29.562064,2.06559 8.84607,2.01002 15.80212,5.11843 22.29396,8.41204 6.51012,3.30288 11.55399,6.22591 16.85125,7.83696 5.21612,1.58636 9.80859,1.55889 14.53436,-0.0117 9.2303,-3.06757 17.22557,-11.63782 17.22557,-11.63782 M 14.651163,160.82127 c 18.30657,0.002 44.326179,-5.41378 66.948252,-5.99514 11.593292,-0.29793 21.455775,0.65703 30.510385,3.04647 9.01336,2.37854 15.93192,5.83111 22.23072,9.36774 6.29985,3.53722 11.03756,6.56671 15.95127,8.07441 4.83563,1.48375 9.08005,1.17297 13.50003,-0.82171 4.32198,-1.95045 8.3057,-5.33031 11.42256,-8.37493 3.10938,-3.03729 4.99492,-5.29684 4.99492,-5.29684 M 14.651163,150.9253 c -2.722958,-3.8e-4 65.577434,-5.11109 68.300393,-5.11071 11.979745,-0.007 22.161324,1.26397 31.403794,3.95668 9.20124,2.6807 16.13745,6.37453 22.31913,10.04651 6.16805,3.6639 10.67887,6.70325 15.28565,8.05617 4.53023,1.33043 8.47823,0.73718 12.62352,-1.62854 4.04545,-2.30874 7.84714,-6.11467 10.82303,-9.48121 2.9792,-3.37027 4.80262,-5.8389 4.80262,-5.8389 M 14.651163,141.02932 c 17.823913,0.002 45.123107,-4.64234 69.091544,-4.10107 12.287166,0.27747 22.745963,1.81967 32.180743,4.73099 9.39474,2.89896 16.39594,6.72106 22.53924,10.42012 6.11556,3.68235 10.49278,6.64381 14.88324,7.80697 4.31546,1.1433 8.03721,0.29025 11.95602,-2.36886 3.81686,-2.58993 7.45406,-6.70627 10.29546,-10.28813 2.85344,-3.59703 4.61189,-6.20002 4.61189,-6.20002 M 14.651163,131.13335 c 17.421699,0.002 44.915303,-4.08768 69.287279,-3.046 12.49689,0.53413 23.172288,2.28484 32.790128,5.31721 9.5808,3.02069 16.68574,6.85238 22.87009,10.47272 6.1417,3.59536 10.48708,6.40047 14.76246,7.3543 4.20273,0.93763 7.78263,-0.13435 11.53708,-2.99035 3.65083,-2.77717 7.15189,-7.06768 9.87478,-10.74746 2.74143,-3.70484 4.43632,-6.36042 4.43632,-6.36042 M 14.651163,121.23738 c 16.947981,0.002 44.317886,-3.47042 68.874558,-2.01583 12.59517,0.74606 23.411659,2.62845 33.191329,5.67625 9.74835,3.03805 16.98618,6.75944 23.2896,10.20079 6.24398,3.4089 10.66292,5.98932 14.93138,6.72835 4.19922,0.72705 7.73179,-0.50821 11.39463,-3.45156 7.23724,-5.81563 13.87664,-17.138 13.87664,-17.138 M 14.651163,111.34141 c 16.429571,0.002 43.356455,-2.82536 67.861725,-1.07148 12.573188,0.89989 23.444132,2.82773 33.354182,5.78215 9.88867,2.94805 17.27728,6.44247 23.77466,9.6132 6.41775,3.13186 11.01505,5.4306 15.38764,5.96199 4.30788,0.52352 7.89365,-0.80806 11.54497,-3.72198 7.21172,-5.75528 13.63496,-16.56388 13.63496,-16.56388 M 14.651163,101.44543 c 15.893285,0.002 42.068356,-2.185123 66.278505,-0.26438 12.427079,0.98591 23.258452,2.8681 33.259012,5.62198 9.99613,2.75266 17.53891,5.91093 24.30105,8.73115 6.65606,2.77598 11.53203,4.74895 16.11852,5.09083 4.5274,0.33748 8.26886,-1.01586 11.99275,-3.78201 7.34291,-5.45441 13.6083,-15.39757 13.6083,-15.39757 M 14.651163,91.549463 c 15.838713,0.0026 39.671824,-1.648347 64.176014,0.363445 12.157952,0.998167 22.852053,2.743309 32.896603,5.195949 10.07041,2.458955 17.74864,5.183233 24.8435,7.588213 6.94957,2.35573 12.19628,3.97338 17.10087,4.15319 4.85221,0.17789 8.84983,-1.11892 12.73103,-3.62297 7.63226,-4.92416 13.81012,-13.677827 13.81012,-13.677827 M 14.651163,81.65349 c 15.473558,0.0026 37.798918,-1.11177 61.626745,0.779445 25.949862,2.059641 40.884072,6.404022 57.643862,10.74763 15.08888,3.910561 23.03356,4.615356 32.04239,-0.057 C 174.04088,88.934642 180.2093,81.65349 180.2093,81.65349 M 14.651163,71.757518 c 15.149933,0.0026 35.822168,-0.655257 58.724579,0.9605 25.174426,1.776047 39.435168,5.081201 57.255648,8.328185 15.8926,2.895714 25.01954,3.232454 34.66861,-0.422236 8.67043,-3.28402 14.9093,-8.866449 14.9093,-8.866449 M 14.651163,61.861546 c 14.904106,0.0026 33.815314,-0.302723 55.584781,0.892939 24.386306,1.339388 37.479536,3.504378 56.569156,5.635922 16.72823,1.86787 27.1865,1.953722 37.6144,-0.543109 9.40394,-2.251659 15.7898,-5.985752 15.7898,-5.985752 M 14.651163,51.965574 c 14.769536,0.0027 31.865897,-0.07632 52.343999,0.572536 19.487105,0.617459 39.031548,1.974824 55.587498,2.806377 17.55262,0.881612 29.4445,0.850957 40.76157,-0.405433 10.25972,-1.139007 16.86507,-2.97348 16.86507,-2.97348 M 14.651163,42.069602 c 55.211627,0.01 165.558137,0 165.558137,0"
       style="fill:none;stroke:url(#linearGradient4268);stroke-width:2;stroke-linecap:butt;stroke-linejoin:round;stroke-miterlimit:4;stroke-dasharray:none;stroke-opacity:1" />
  </g>
</svg>
