<?xml version="1.0" encoding="UTF-8" standalone="no"?>
<!-- Created with Inkscape (http://www.inkscape.org/) -->

<svg
   xmlns:dc="http://purl.org/dc/elements/1.1/"
   xmlns:cc="http://creativecommons.org/ns#"
   xmlns:rdf="http://www.w3.org/1999/02/22-rdf-syntax-ns#"
   xmlns:svg="http://www.w3.org/2000/svg"
   xmlns="http://www.w3.org/2000/svg"
   xmlns:sodipodi="http://sodipodi.sourceforge.net/DTD/sodipodi-0.dtd"
   xmlns:inkscape="http://www.inkscape.org/namespaces/inkscape"
   width="232.95532mm"
   height="212.68164mm"
   viewBox="0 0 232.95532 212.68164"
   version="1.1"
   id="svg8"
   inkscape:version="0.92.3 (2405546, 2018-03-11)"
   sodipodi:docname="29 - Repeat an Object Around a Path.svg">
  <defs
     id="defs2">
    <inkscape:path-effect
       effect="skeletal"
       id="path-effect939"
       is_visible="true"
       pattern="m 124.95809,139.4328 c 0.97099,1.68179 2.4398,2.65158 3.2807,2.16609 0.84089,-0.48549 0.73543,-2.24242 -0.23555,-3.92421 -0.97097,-1.68178 -3.28069,-2.16609 -3.28069,-2.16609 0,0 -0.73544,2.24242 0.23554,3.92421 z"
       copytype="repeated_stretched"
       prop_scale="1"
       scale_y_rel="false"
       spacing="0"
       normal_offset="0"
       tang_offset="0"
       prop_units="false"
       vertical_pattern="false"
       fuse_tolerance="0" />
    <inkscape:path-effect
       effect="skeletal"
       id="path-effect891"
       is_visible="true"
       pattern="m 129.81388,115.30577 c -1.84724,3.19951 -4.64157,5.04447 -6.24133,4.12086 -1.59975,-0.92362 -1.39912,-4.26607 0.44811,-7.46558 1.84723,-3.19949 6.24132,-4.12086 6.24132,-4.12086 0,0 1.39913,4.26608 -0.4481,7.46558 z"
       copytype="repeated_stretched"
       prop_scale="1"
       scale_y_rel="false"
       spacing="0"
       normal_offset="0"
       tang_offset="0"
       prop_units="false"
       vertical_pattern="false"
       fuse_tolerance="0" />
    <inkscape:path-effect
       effect="skeletal"
       id="path-effect841"
       is_visible="true"
       pattern="#path815"
       copytype="repeated_stretched"
       prop_scale="1"
       scale_y_rel="false"
       spacing="0"
       normal_offset="0"
       tang_offset="0"
       prop_units="false"
       vertical_pattern="false"
       fuse_tolerance="0" />
    <inkscape:path-effect
       effect="skeletal"
       id="path-effect822"
       is_visible="true"
       pattern="#path815"
       copytype="repeated_stretched"
       prop_scale="1"
       scale_y_rel="false"
       spacing="0"
       normal_offset="0"
       tang_offset="0"
       prop_units="false"
       vertical_pattern="false"
       fuse_tolerance="0" />
  </defs>
  <sodipodi:namedview
     id="base"
     pagecolor="#ffffff"
     bordercolor="#666666"
     borderopacity="1.0"
     inkscape:pageopacity="0.0"
     inkscape:pageshadow="2"
     inkscape:zoom="0.38308632"
     inkscape:cx="396.8807"
     inkscape:cy="325.97063"
     inkscape:document-units="mm"
     inkscape:current-layer="layer1"
     showgrid="false"
     inkscape:snap-global="false"
     fit-margin-top="0"
     fit-margin-left="0"
     fit-margin-right="0"
     fit-margin-bottom="0"
     inkscape:window-width="956"
     inkscape:window-height="1015"
     inkscape:window-x="960"
     inkscape:window-y="0"
     inkscape:window-maximized="0" />
  <metadata
     id="metadata5">
    <rdf:RDF>
      <cc:Work
         rdf:about="">
        <dc:format>image/svg+xml</dc:format>
        <dc:type
           rdf:resource="http://purl.org/dc/dcmitype/StillImage" />
        <dc:title></dc:title>
      </cc:Work>
    </rdf:RDF>
  </metadata>
  <g
     inkscape:label="Ebene 1"
     inkscape:groupmode="layer"
     id="layer1"
     transform="translate(-5.8223857,-2.258953)">
    <path
       style="opacity:1;fill:#000000;fill-opacity:0.98823529;stroke:none;stroke-width:3.28606439;stroke-linecap:round;stroke-linejoin:round;stroke-miterlimit:4;stroke-dasharray:none;stroke-dashoffset:0;stroke-opacity:1"
       d="m 66.179848,117.85498 c 0.409521,-0.48205 0.803602,-0.98638 1.18004,-1.5132 -0.324338,-0.5777 -0.670334,-1.13229 -1.037202,-1.66174 0.66887,-0.14226 1.337447,-0.30409 2.005169,-0.48589 0.147993,-0.63938 0.269982,-1.28868 0.364272,-1.94712 0.645841,0.27029 1.285032,0.56114 1.917166,0.87198 0.575327,-0.41127 1.143088,-0.85166 1.701897,-1.32198 0.262839,0.71016 0.4968,1.43768 0.7017,2.1804 0.685027,0.15045 1.368582,0.30784 2.050604,0.47209 -0.343646,0.74586 -0.711169,1.46586 -1.100365,2.16022 0.317735,0.7004 0.611608,1.42234 0.880842,2.16384 -0.699674,0.16733 -1.399193,0.31514 -2.098012,0.44382 -0.279172,0.73761 -0.584387,1.46046 -0.913949,2.16779 -0.511617,-0.4925 -1.032934,-0.96899 -1.563527,-1.42891 -0.657498,0.27012 -1.317577,0.51312 -1.978851,0.72979 -0.0319,-0.69363 -0.09051,-1.37711 -0.17556,-2.04825 -0.642612,-0.26713 -1.287374,-0.5281 -1.934224,-0.78284 z m -3.373174,7.45456 c 0.547967,-0.34411 1.088962,-0.71141 1.620788,-1.10207 -0.121349,-0.65787 -0.266051,-1.30119 -0.433336,-1.92795 0.684449,0.0752 1.373097,0.13369 2.065389,0.17517 0.354495,-0.56169 0.68972,-1.13741 1.003995,-1.72638 0.5104,0.46733 1.011207,0.9506 1.501974,1.44922 0.675142,-0.1983 1.34993,-0.42267 2.022976,-0.67391 0.01418,0.74582 4.54e-4,1.50056 -0.0413,2.26205 0.596854,0.36345 1.191012,0.73244 1.782403,1.10689 -0.552482,0.58337 -1.120367,1.14 -1.701449,1.67008 0.08761,0.7606 0.149656,1.53418 0.18536,2.31871 -0.71637,-0.0609 -1.428086,-0.13847 -2.134617,-0.2322 -0.488471,0.61506 -0.996243,1.21127 -1.521621,1.78784 -0.34541,-0.62536 -0.703495,-1.23934 -1.073815,-1.84135 -0.712594,0.0596 -1.420558,0.095 -2.122512,0.10727 0.178241,-0.67883 0.330856,-1.35592 0.458022,-2.02913 -0.534068,-0.45286 -1.071511,-0.90095 -1.612275,-1.34424 z m -5.482728,6.27581 c 0.624206,-0.17985 1.249907,-0.38377 1.874922,-0.61195 0.07204,-0.67174 0.119038,-1.3375 0.141759,-1.99528 0.639091,0.26791 1.286874,0.52211 1.9428,0.76219 0.507564,-0.4421 1.002608,-0.90235 1.483429,-1.37996 0.351004,0.60313 0.689449,1.21758 1.014889,1.84275 0.708989,0.008 1.424834,-0.008 2.146158,-0.047 -0.207488,0.71953 -0.441812,1.43956 -0.703156,2.1579 0.468825,0.5246 0.933713,1.05333 1.394617,1.58612 -0.699119,0.39455 -1.405157,0.76146 -2.115918,1.10094 -0.132921,0.7545 -0.29311,1.5134 -0.481344,2.27469 -0.67213,-0.26451 -1.335121,-0.54271 -1.988428,-0.83418 -0.644338,0.45063 -1.301243,0.87829 -1.969011,1.28221 -0.155243,-0.69697 -0.326118,-1.38719 -0.512195,-2.07006 -0.701731,-0.14398 -1.391604,-0.30895 -2.068263,-0.49412 0.361367,-0.60208 0.698132,-1.21089 1.010466,-1.82423 -0.385652,-0.58673 -0.775919,-1.1701 -1.170725,-1.75005 z m -6.964368,4.46912 c 0.638228,0.0108 1.286442,-0.003 1.942437,-0.0428 0.255851,-0.61931 0.484943,-1.24125 0.688063,-1.86376 0.532812,0.43599 1.078808,0.8612 1.637423,1.2752 0.607209,-0.28063 1.208632,-0.58352 1.802582,-0.90789 0.167639,0.67769 0.319754,1.36208 0.455904,2.05259 0.676875,0.20646 1.367804,0.39298 2.07143,0.55878 -0.402086,0.63133 -0.829991,1.25473 -1.283892,1.868 0.300916,0.63389 0.596677,1.27049 0.887222,1.90977 -0.783539,0.17938 -1.565523,0.33023 -2.343769,0.45276 -0.343862,0.68213 -0.716693,1.36008 -1.119265,2.03183 -0.56696,-0.44342 -1.12029,-0.89761 -1.659444,-1.36214 -0.74678,0.24431 -1.499377,0.46154 -2.256104,0.65091 0.05886,-0.70735 0.09918,-1.41256 0.121311,-2.11505 -0.624892,-0.34046 -1.230714,-0.69884 -1.816112,-1.07435 0.517457,-0.46343 1.01133,-0.94201 1.481796,-1.43356 -0.19738,-0.66874 -0.400592,-1.33553 -0.609582,-2.0003 z m -7.818107,2.03455 c 0.590059,0.2277 1.19857,0.42956 1.823339,0.60538 0.430062,-0.50062 0.831671,-1.01241 1.205604,-1.53338 0.365589,0.5794 0.748861,1.15092 1.149244,1.71417 0.653422,-0.0773 1.3078,-0.18091 1.961438,-0.31013 -0.03968,0.69101 -0.09787,1.3841 -0.174967,2.07868 0.578779,0.39828 1.178831,0.77968 1.798784,1.14342 -0.569641,0.4812 -1.164084,0.94603 -1.783505,1.3923 0.09316,0.69132 0.17992,1.38395 0.260242,2.07786 -0.805752,-0.0621 -1.601488,-0.15367 -2.384997,-0.27442 -0.545217,0.54345 -1.121091,1.07415 -1.728416,1.59008 -0.400861,-0.59765 -0.783601,-1.20314 -1.147665,-1.81607 -0.79579,-0.004 -1.590655,-0.039 -2.382909,-0.10605 0.296986,-0.65649 0.572415,-1.31546 0.826709,-1.97634 -0.482069,-0.52987 -0.937873,-1.07461 -1.366032,-1.63341 -7e-6,-2e-5 -7e-6,-3e-5 -1.5e-5,-4e-5 8e-6,0 8e-6,0 1.5e-5,1e-5 0.646504,-0.26284 1.27044,-0.54927 1.871994,-0.85709 0.03074,-0.69891 0.05447,-1.39725 0.07111,-2.09497 z m -8.001093,-0.71049 c 0.482046,0.40953 0.986367,0.80361 1.513185,1.18004 0.577715,-0.32434 1.132301,-0.67033 1.661747,-1.0372 0.142268,0.66887 0.30409,1.33744 0.48589,2.00517 0.639377,0.148 1.288677,0.26999 1.947115,0.36428 -0.270282,0.64583 -0.561135,1.28503 -0.871967,1.91716 0.411255,0.57533 0.85165,1.14309 1.321969,1.7019 -0.71016,0.26284 -1.437686,0.4968 -2.180398,0.70169 -0.150458,0.68504 -0.307842,1.36859 -0.472099,2.0506 -0.745856,-0.34363 -1.465855,-0.71116 -2.160212,-1.10036 -0.700398,0.31774 -1.422346,0.61161 -2.163841,0.88084 -0.167331,-0.69967 -0.315138,-1.39918 -0.443823,-2.098 -0.737596,-0.27918 -1.460461,-0.5844 -2.167793,-0.91396 0.492509,-0.51161 0.969008,-1.03293 1.428918,-1.56353 -0.27012,-0.65749 -0.513119,-1.31757 -0.729791,-1.97885 0.693633,-0.0319 1.377111,-0.0905 2.048246,-0.17555 0.267131,-0.64261 0.528105,-1.28737 0.782854,-1.93423 z m -7.454566,-3.37318 c 0.344116,0.54797 0.711408,1.08897 1.102076,1.62079 0.657868,-0.12135 1.301189,-0.26605 1.927945,-0.43333 -0.0752,0.68445 -0.133685,1.37309 -0.175167,2.06539 0.56169,0.35449 1.13741,0.68972 1.726374,1.00399 -0.46733,0.5104 -0.950593,1.01121 -1.44922,1.50198 0.198305,0.67514 0.422674,1.34992 0.673902,2.02298 -0.74581,0.0142 -1.500549,4.5e-4 -2.262038,-0.0413 -0.363455,0.59686 -0.732442,1.191 -1.106899,1.7824 -0.583371,-0.55248 -1.139991,-1.12036 -1.670076,-1.70145 -0.760594,0.0876 -1.534172,0.14965 -2.318705,0.18536 0.06094,-0.71637 0.138461,-1.42809 0.232197,-2.13461 -0.61506,-0.48848 -1.211267,-0.99625 -1.787835,-1.52163 0.625362,-0.34541 1.239328,-0.7035 1.841344,-1.07381 -0.05956,-0.7126 -0.09504,-1.42056 -0.107265,-2.12251 0.678825,0.17823 1.355924,0.33085 2.029131,0.45801 0.452861,-0.53406 0.90096,-1.0715 1.344236,-1.61226 z m -6.275798,-5.48273 c 0.179852,0.62421 0.383757,1.24991 0.61194,1.87493 0.671736,0.072 1.337509,0.11904 1.995292,0.14175 -0.267924,0.6391 -0.522126,1.28688 -0.762197,1.9428 0.442097,0.50757 0.902346,1.00261 1.379954,1.48344 -0.603125,0.351 -1.217569,0.68944 -1.842754,1.01488 -0.0077,0.70899 0.0078,1.42484 0.047,2.14616 -0.719536,-0.20748 -1.439566,-0.44181 -2.157916,-0.70315 -0.524591,0.46882 -1.05332,0.9337 -1.586117,1.39461 -0.394544,-0.69912 -0.76145,-1.40515 -1.100928,-2.11592 -0.754508,-0.13292 -1.513408,-0.29311 -2.274696,-0.48135 0.26451,-0.67212 0.542713,-1.33512 0.834182,-1.98842 -0.450626,-0.64435 -0.878292,-1.30125 -1.282204,-1.96901 0.696969,-0.15525 1.387181,-0.32612 2.070051,-0.5122 0.143986,-0.70173 0.308951,-1.3916 0.494119,-2.06826 0.602086,0.36136 1.210898,0.69813 1.824232,1.01046 0.58673,-0.38565 1.170101,-0.77591 1.750059,-1.17072 z m -4.469125,-6.96437 c -0.01079,0.63823 0.0039,1.28644 0.04276,1.94244 0.619321,0.25585 1.241246,0.48495 1.863764,0.68807 -0.435994,0.5328 -0.861203,1.0788 -1.275201,1.63742 0.28063,0.6072 0.583518,1.20863 0.907879,1.80258 -0.677692,0.16764 -1.36208,0.31975 -2.052577,0.4559 -0.206463,0.67687 -0.392995,1.3678 -0.558793,2.07143 -0.631333,-0.40209 -1.254722,-0.82999 -1.867995,-1.2839 -0.633883,0.30092 -1.270493,0.59669 -1.909769,0.88723 -0.179382,-0.78354 -0.330232,-1.56553 -0.452768,-2.34377 -0.682123,-0.34386 -1.3600689,-0.71669 -2.0318209,-1.11927 0.443423,-0.56696 0.897608,-1.12029 1.3621409,-1.65945 -0.244309,-0.74678 -0.4615359,-1.49937 -0.6509019,-2.25609 0.7073399,0.0589 1.4125529,0.0992 2.1150459,0.1213 0.340457,-0.62488 0.698842,-1.23071 1.074355,-1.8161 0.463423,0.51745 0.942002,1.01133 1.433548,1.48179 0.668747,-0.19738 1.335537,-0.40059 2.000301,-0.60958 z m -2.03454,-7.81811 c -0.227697,0.59006 -0.429561,1.19857 -0.605375,1.82334 0.500614,0.43007 1.012408,0.83167 1.533371,1.20561 -0.579395,0.36559 -1.150924,0.74886 -1.714163,1.14924 0.07726,0.65342 0.180907,1.3078 0.310131,1.96144 -0.691021,-0.0397 -1.384107,-0.0979 -2.078688,-0.17498 -0.398273,0.57878 -0.77968,1.17884 -1.14342,1.7988 -0.481206,-0.56965 -0.9460319,-1.1641 -1.3923049,-1.78352 -0.6913064,0.0932 -1.3839454,0.17992 -2.0778564,0.26025 0.0621,-0.80576 0.153679,-1.60149 0.274427,-2.385 -0.543452,-0.54521 -1.074161,-1.12109 -1.590085,-1.72842 0.597648,-0.40086 1.203146,-0.7836 1.816072,-1.14766 0.0039,-0.79579 0.03899,-1.59066 0.106056,-2.38291 0.656481,0.29698 1.3154504,0.57241 1.9763234,0.82671 0.5298769,-0.48206 1.0746089,-0.93786 1.6334009,-1.36601 2.3e-5,-1e-5 4.7e-5,-2e-5 7.7e-5,-2e-5 -7e-6,0 -7e-6,1e-5 -1.5e-5,2e-5 0.262839,0.64649 0.549254,1.27042 0.857073,1.87197 0.698911,0.0307 1.397252,0.0545 2.094976,0.0711 z m 0.710499,-8.00109 c -0.409529,0.48205 -0.80361,0.98637 -1.180048,1.51319 0.324338,0.57771 0.670334,1.1323 1.037203,1.66174 -0.668871,0.14226 -1.337448,0.30409 -2.005178,0.48589 -0.147992,0.63938 -0.269981,1.28868 -0.364271,1.94712 -0.645833,-0.27029 -1.285033,-0.56114 -1.917167,-0.87198 -0.575327,0.41127 -1.1430879,0.85165 -1.7018959,1.32197 -0.262839,-0.71016 -0.4967934,-1.43768 -0.7016924,-2.18039 -0.685035,-0.15046 -1.368582,-0.30785 -2.050604,-0.4721 0.343646,-0.74586 0.711169,-1.46586 1.100365,-2.16021 -0.317735,-0.7004 -0.611608,-1.42235 -0.880834,-2.16385 0.699665,-0.16733 1.399184,-0.31514 2.098003,-0.44382 0.2791804,-0.7376 0.5843884,-1.46045 0.9139574,-2.16779 0.511609,0.49251 1.0329339,0.969 1.5635269,1.42891 0.657498,-0.27011 1.317577,-0.51311 1.978851,-0.72978 0.0319,0.69363 0.09051,1.3771 0.175552,2.04825 0.642612,0.26713 1.287374,0.52809 1.934232,0.78285 z m 3.373182,-7.454551 c -0.547968,0.34411 -1.08897,0.7114 -1.620797,1.10207 0.12135,0.657871 0.266052,1.301191 0.433337,1.927941 -0.684449,-0.0751 -1.373097,-0.1337 -2.06539,-0.17517 -0.354494,0.56168 -0.689719,1.1374 -1.003994,1.72637 -0.5104,-0.46733 -1.011207,-0.9506 -1.501975,-1.44922 -0.675141,0.1983 -1.349929,0.42267 -2.022982,0.6739 -0.01418,-0.74581 -4.47e-4,-1.50054 0.0413,-2.262031 -0.596854,-0.36346 -1.1910039,-0.73244 -1.7823949,-1.1069 0.552474,-0.58337 1.120359,-1.13999 1.7014489,-1.67008 -0.08761,-0.76059 -0.149657,-1.53417 -0.18536,-2.3187 0.71637,0.0609 1.428086,0.13847 2.134616,0.2322 0.488472,-0.61506 0.996244,-1.21126 1.521629,-1.78783 0.345411,0.62535 0.703488,1.23933 1.073808,1.84134 0.712594,-0.0596 1.420558,-0.095 2.122512,-0.10726 -0.178241,0.67882 -0.330856,1.35592 -0.458022,2.02912 0.534068,0.45286 1.071511,0.90097 1.612275,1.34425 z m 5.482735,-6.2758 c -0.624206,0.17985 -1.249914,0.38375 -1.874929,0.61194 -0.07204,0.67173 -0.119038,1.33751 -0.141752,1.99529 -0.639099,-0.26792 -1.286881,-0.52213 -1.942807,-0.7622 -0.507564,0.4421 -1.0026,0.90235 -1.483429,1.37996 -0.351004,-0.60313 -0.689442,-1.21758 -1.014882,-1.84276 -0.708996,-0.008 -1.424842,0.008 -2.146158,0.047 0.20748,-0.71954 0.441804,-1.43957 0.703148,-2.15791 -0.468817,-0.5246 -0.933704,-1.05332 -1.394608,-1.58612 0.699118,-0.39455 1.405156,-0.76145 2.115925,-1.10093 0.132922,-0.754513 0.29311,-1.513413 0.481345,-2.274703 0.672121,0.26451 1.335112,0.54272 1.988419,0.83419 0.644346,-0.45063 1.301243,-0.87829 1.969012,-1.2822 0.155242,0.69697 0.326117,1.38718 0.512202,2.07005 0.701723,0.14398 1.391604,0.30895 2.068256,0.494123 -0.361367,0.60209 -0.698133,1.21089 -1.010467,1.82422 0.385652,0.58674 0.775912,1.17011 1.170725,1.75006 z m 6.964376,-4.469123 c -0.638236,-0.0108 -1.286449,0.003 -1.942445,0.0428 -0.255851,0.61931 -0.484943,1.241253 -0.688063,1.863763 -0.532812,-0.436 -1.078807,-0.8612 -1.637423,-1.275193 -0.607209,0.280623 -1.208632,0.583513 -1.802582,0.907873 -0.167639,-0.67769 -0.319753,-1.362083 -0.455903,-2.052583 -0.676868,-0.20646 -1.367805,-0.393 -2.071423,-0.55879 0.402079,-0.63133 0.829991,-1.25473 1.283892,-1.868 -0.300923,-0.63388 -0.596677,-1.27049 -0.887222,-1.90977 0.78354,-0.17938 1.565523,-0.33022 2.343769,-0.45276 0.343862,-0.68212 0.716693,-1.36007 1.119273,-2.03183 0.566952,0.44343 1.12029,0.89761 1.659436,1.36215 0.74678,-0.24431 1.499377,-0.46153 2.256104,-0.65091 -0.05886,0.70735 -0.09918,1.41256 -0.12131,2.11505 0.624891,0.34046 1.230714,0.69885 1.816111,1.07436 -0.517457,0.46342 -1.011338,0.942 -1.481804,1.43355 0.19738,0.66875 0.4006,1.33553 0.60959,2.0003 z m 7.818099,-2.03453 c -0.590059,-0.2277 -1.19857,-0.42956 -1.823338,-0.60538 -0.430063,0.50061 -0.831671,1.0124 -1.205605,1.53337 -0.365589,-0.5794 -0.748853,-1.15092 -1.149244,-1.71417 -0.653422,0.0773 -1.307792,0.18091 -1.961438,0.31013 0.03968,-0.69102 0.09787,-1.3841 0.174975,-2.07868 -0.578779,-0.39828 -1.178831,-0.77968 -1.798784,-1.14342 0.569642,-0.48121 1.164084,-0.94604 1.783513,-1.39231 -0.09316,-0.69131 -0.179921,-1.38394 -0.260242,-2.07785 0.805752,0.0621 1.601488,0.15367 2.384997,0.27442 0.545209,-0.54345 1.121091,-1.07415 1.728416,-1.59008 0.400861,0.59765 0.783593,1.20315 1.147664,1.81607 0.79579,0.004 1.590648,0.039 2.38291,0.10606 -0.296994,0.65648 -0.572415,1.31545 -0.826717,1.97633 0.482061,0.52986 0.937849,1.07458 1.365993,1.63337 1.6e-5,3e-5 3.9e-5,5e-5 5.4e-5,7e-5 -1.5e-5,1e-5 -3.8e-5,2e-5 -5.4e-5,3e-5 -0.646488,0.26283 -1.270416,0.54925 -1.871955,0.85706 -0.03074,0.69891 -0.05447,1.39725 -0.07111,2.09498 z m 8.001093,0.7105 c -0.482038,-0.40953 -0.986366,-0.80361 -1.513184,-1.18004 -0.577708,0.32433 -1.132302,0.67032 -1.66174,1.03719 -0.142268,-0.66887 -0.304098,-1.33745 -0.485898,-2.00518 -0.639377,-0.14799 -1.288677,-0.26998 -1.947115,-0.36427 0.27029,-0.64583 0.561143,-1.28503 0.871975,-1.91716 -0.411255,-0.57533 -0.85165,-1.14309 -1.321969,-1.7019 0.710167,-0.26284 1.437694,-0.49679 2.180398,-0.70169 0.150458,-0.68503 0.307842,-1.36859 0.472099,-2.05061 0.745864,0.34365 1.465862,0.71117 2.160212,1.10038 0.700398,-0.31775 1.422354,-0.61161 2.163849,-0.88085 0.167331,0.69968 0.31513,1.3992 0.443822,2.09802 0.737597,0.27917 1.460454,0.58438 2.167786,0.91395 -0.492501,0.51161 -0.969,1.03294 -1.428918,1.56353 0.27012,0.6575 0.513119,1.31757 0.729784,1.97885 -0.693626,0.0319 -1.377104,0.0905 -2.048247,0.17555 -0.267131,0.64261 -0.528097,1.28737 -0.782854,1.93423 z m 7.454566,3.373193 c -0.344116,-0.54797 -0.711407,-1.08897 -1.102075,-1.620803 -0.657868,0.12135 -1.30119,0.26605 -1.927946,0.433343 0.07512,-0.684453 0.133693,-1.373103 0.175167,-2.065393 -0.561682,-0.3545 -1.137402,-0.68972 -1.726366,-1.004 0.467322,-0.51041 0.950593,-1.0112 1.44922,-1.50197 -0.198305,-0.67514 -0.422674,-1.34993 -0.673902,-2.02299 0.74581,-0.0142 1.500557,-4.4e-4 2.262045,0.0413 0.363455,-0.59686 0.732442,-1.19101 1.106892,-1.7824 0.583371,0.55248 1.139998,1.12037 1.670083,1.70145 0.760595,-0.0876 1.534165,-0.14965 2.318698,-0.18535 -0.06094,0.71636 -0.138461,1.42808 -0.232197,2.13461 0.61506,0.48847 1.211267,0.99625 1.787827,1.52162 -0.625354,0.34541 -1.239328,0.7035 -1.841336,1.07382 0.05956,0.71259 0.09503,1.42055 0.107257,2.122503 -0.678817,-0.178243 -1.355923,-0.330843 -2.029123,-0.458023 -0.452861,0.534073 -0.900968,1.071513 -1.344244,1.612283 z m 6.27579,5.48273 c -0.179843,-0.6242 -0.383756,-1.24991 -0.61194,-1.87492 -0.671736,-0.072 -1.337501,-0.11905 -1.995284,-0.14176 0.267916,-0.6391 0.522126,-1.28688 0.762197,-1.9428 -0.442097,-0.50757 -0.902346,-1.00261 -1.379954,-1.48344 0.603126,-0.351 1.217577,-0.68944 1.842754,-1.01488 0.0077,-0.708993 -0.0078,-1.424833 -0.047,-2.146163 0.719537,0.20749 1.439574,0.44182 2.157916,0.70316 0.524592,-0.46882 1.05332,-0.9337 1.586118,-1.39461 0.394543,0.69911 0.76145,1.40515 1.100927,2.11592 0.754509,0.13293 1.513408,0.29312 2.274697,0.481353 -0.264511,0.67212 -0.542713,1.33511 -0.834191,1.98842 0.450626,0.64435 0.878293,1.30124 1.282205,1.96901 -0.696969,0.15524 -1.387182,0.32612 -2.070051,0.5122 -0.143986,0.70173 -0.30896,1.39161 -0.494119,2.06826 -0.602094,-0.36137 -1.210898,-0.69813 -1.824232,-1.01047 -0.58673,0.38566 -1.170101,0.77592 -1.750059,1.17072 z m 4.469118,6.964381 c 0.01079,-0.63824 -0.0031,-1.28645 -0.04276,-1.94244 -0.619313,-0.255851 -1.241238,-0.484951 -1.863757,-0.688071 0.435995,-0.53281 0.861196,-1.0788 1.275201,-1.63742 -0.280629,-0.60721 -0.583517,-1.20863 -0.907878,-1.80258 0.677692,-0.16764 1.362079,-0.31975 2.052577,-0.4559 0.206463,-0.67687 0.392994,-1.36781 0.558792,-2.07142 0.631333,0.40208 1.25473,0.82999 1.867995,1.28389 0.633883,-0.30092 1.270494,-0.59668 1.909778,-0.88722 0.179373,0.78354 0.330224,1.56553 0.45276,2.34377 0.682122,0.34386 1.360069,0.7167 2.03182,1.11927 -0.443422,0.56696 -0.897608,1.12029 -1.362149,1.65944 0.24431,0.74678 0.461537,1.499381 0.650903,2.256101 -0.70734,-0.0589 -1.412553,-0.0992 -2.115039,-0.12131 -0.340464,0.62488 -0.698849,1.23071 -1.074362,1.8161 -0.463424,-0.51746 -0.942002,-1.01133 -1.433548,-1.4818 -0.668747,0.19738 -1.335537,0.40059 -2.000301,0.60959 z m 2.034524,7.8181 c 0.227706,-0.59006 0.429569,-1.19857 0.605383,-1.82334 -0.500614,-0.43006 -1.012408,-0.83168 -1.533371,-1.2056 0.579396,-0.3656 1.150924,-0.74886 1.714163,-1.14925 -0.07726,-0.65342 -0.180899,-1.30779 -0.310123,-1.96144 0.691013,0.0397 1.384107,0.0979 2.07868,0.17498 0.398281,-0.57878 0.779688,-1.17884 1.143428,-1.79879 0.481198,0.56964 0.946032,1.16409 1.392305,1.78351 0.691306,-0.0932 1.383945,-0.17992 2.077856,-0.26024 -0.0621,0.80576 -0.153679,1.60149 -0.274435,2.38501 0.543461,0.5452 1.074162,1.12109 1.590086,1.72841 -0.597656,0.40086 -1.203147,0.78359 -1.816073,1.14767 -0.0039,0.79579 -0.03899,1.59065 -0.106063,2.38291 -0.656481,-0.297 -1.315451,-0.57242 -1.976323,-0.82672 -0.529893,0.48208 -1.07464,0.93789 -1.633448,1.36605 -0.262839,-0.64652 -0.549262,-1.27046 -0.857089,-1.87201 -0.698903,-0.0307 -1.397251,-0.0545 -2.094976,-0.0711 z"
       id="path819"
       inkscape:connector-curvature="0" />
    <path
       style="fill:none;stroke:#000000;stroke-width:0.33274531px;stroke-linecap:butt;stroke-linejoin:miter;stroke-opacity:1"
       d="m 34.324866,170.05357 c -1.008083,-0.0762 -2.049569,-0.0855 -3.114924,-0.0316 -0.412537,1.01158 -0.763967,2.03089 -1.061432,3.05102 -0.882903,-0.70518 -1.796521,-1.3845 -2.737772,-2.03734 -0.991974,0.49376 -1.973404,1.03806 -2.938838,1.62605 -0.323011,-1.1004 -0.61601,-2.21783 -0.87607,-3.3507 -1.144394,-0.27843 -2.315297,-0.51156 -3.505454,-0.69898 0.638483,-1.1028 1.334651,-2.19447 2.093503,-3.26617 -0.525452,-1.02909 -1.039938,-2.06478 -1.543122,-3.10693 1.347471,-0.38878 2.70349,-0.71325 4.058539,-0.96972 0.620958,-1.16464 1.315275,-2.31957 2.090105,-3.45792 0.96549,0.72389 1.898347,1.47447 2.795482,2.25117 1.329858,-0.40269 2.679787,-0.73459 4.044305,-0.98887 -0.220574,1.17016 -0.38951,2.3361 -0.509726,3.4963 0.995142,0.5882 1.942218,1.22081 2.834626,1.89738 0.02817,0.0213 0.05622,0.0425 0.08426,0.0639 -0.01874,0.0141 -0.03748,0.0282 -0.05609,0.0422 -0.904053,0.67679 -1.74823,1.39779 -2.537236,2.15467 0.278161,1.11331 0.571551,2.22185 0.879844,3.32549 z m 12.822104,-1.68424 c -0.92552,-0.52293 -1.880356,-1.01445 -2.865286,-1.46367 -0.843801,0.70394 -1.628644,1.4375 -2.344569,2.1969 -0.45136,-1.0343 -0.94119,-2.05746 -1.471491,-3.06676 -1.082459,-0.0182 -2.164377,0.0229 -3.241592,0.13168 0.166912,-1.12868 0.38497,-2.25749 0.651347,-3.38431 -0.895111,-0.75555 -1.847746,-1.47414 -2.861664,-2.14901 1.071681,-0.72777 2.202243,-1.40022 3.380847,-2.01654 -0.0025,-1.15216 0.01132,-2.30558 0.04012,-3.46 1.41222,0.25509 2.778448,0.58331 4.09944,0.97376 1.088571,-0.7526 2.228603,-1.46462 3.410188,-2.13232 0.515938,1.08439 0.993469,2.17773 1.43458,3.27728 0.995444,0.17516 1.977985,0.38299 2.945962,0.62006 0.333295,0.0816 0.664879,0.166 0.994816,0.25303 -0.43808,0.63984 -0.864866,1.28456 -1.279553,1.93434 -0.215607,0.33679 -0.427604,0.67516 -0.635916,1.01503 0.142124,0.21483 0.281996,0.43022 0.419668,0.64612 0.499476,0.78351 0.972517,1.57316 1.422192,2.36826 -0.601859,0.1295 -1.197292,0.26978 -1.785393,0.42174 -0.541745,0.14142 -1.076938,0.29289 -1.604371,0.45434 -0.248456,1.12474 -0.485001,2.25152 -0.709348,3.38007 z m 14.189766,3.22124 c -0.891565,-0.76153 -1.786877,-1.51311 -2.693282,-2.24915 -1.086634,0.41334 -2.149864,0.84692 -3.181766,1.30495 -0.139659,-1.13864 -0.296723,-2.27742 -0.474035,-3.41605 -1.086848,-0.41059 -2.178965,-0.7912 -3.279345,-1.13451 0.627729,-0.96358 1.281616,-1.91639 1.958718,-2.85905 -0.55217,-1.03989 -1.139039,-2.07251 -1.767044,-3.09643 1.241359,-0.23472 2.499444,-0.42984 3.767717,-0.59176 0.407217,-1.07795 0.822018,-2.15379 1.24405,-3.22753 1.120339,0.71424 2.2012,1.45121 3.24993,2.20529 1.191004,-0.40254 2.394307,-0.78344 3.60195,-1.14688 0.15939,1.16677 0.302822,2.33221 0.433099,3.49606 0.632608,0.28819 1.25972,0.58075 1.881802,0.87651 0.52278,0.24725 1.04302,0.49669 1.560996,0.748 -0.813542,0.83809 -1.620607,1.68046 -2.419749,2.52792 0.427452,1.10639 0.84097,2.21339 1.244226,3.32126 -0.889175,0.021 -1.775382,0.0487 -2.657641,0.0848 -0.322856,0.0136 -0.645083,0.0283 -0.966581,0.0441 -0.504532,1.03587 -1.005656,2.07334 -1.503045,3.11246 z m 14.8865,5.4791 c -0.915006,-0.82711 -1.821285,-1.65359 -2.723665,-2.47762 -1.162809,0.31 -2.321215,0.62234 -3.471623,0.94059 -0.05244,-1.15949 -0.106772,-2.31894 -0.164434,-3.4787 -1.085603,-0.56112 -2.169973,-1.11537 -3.255903,-1.65929 0.803041,-0.83761 1.612709,-1.6712 2.427521,-2.50154 -0.397358,-1.1138 -0.802965,-2.22705 -1.22047,-3.34003 1.235838,-0.021 2.473475,-0.0311 3.71042,-0.0346 0.544059,-1.01552 1.08964,-2.03038 1.636553,-3.04465 0.934035,0.82486 1.855569,1.65146 2.769456,2.47795 1.17126,-0.30837 2.340746,-0.61543 3.504862,-0.9247 0.05383,1.16193 0.106897,2.32347 0.160522,3.48494 0.824131,0.43164 1.646276,0.86134 2.467627,1.28764 0.265811,0.13707 0.531747,0.27387 0.797822,0.41036 -0.511298,0.51796 -1.02408,1.03462 -1.538107,1.55001 -0.30769,0.30818 -0.615857,0.61607 -0.924401,0.92372 0.09155,0.26489 0.183411,0.52976 0.275519,0.79461 0.296773,0.85334 0.597118,1.70741 0.901978,2.56201 -0.623302,0.003 -1.246566,0.003 -1.869503,1.7e-4 -0.60938,-5.2e-4 -1.218571,-0.003 -1.827272,-0.004 -0.551705,1.01141 -1.104064,2.02252 -1.656902,3.03342 z m 15.729999,5.51799 c -1.012749,-0.7732 -2.008419,-1.55644 -2.989388,-2.3478 -1.180277,0.35844 -2.367194,0.7057 -3.558059,1.04306 -0.110545,-1.16827 -0.212953,-2.33558 -0.308193,-3.50184 -1.135341,-0.55329 -2.26188,-1.1151 -3.380533,-1.68299 0.824144,-0.82709 1.644552,-1.65767 2.460245,-2.49194 -0.406375,-1.11611 -0.803922,-2.23192 -1.194752,-3.34687 1.220206,-0.0113 2.438173,-0.0307 3.651638,-0.06 0.528905,-1.02609 1.055798,-2.05319 1.580565,-3.08129 0.896922,0.79186 1.799164,1.57835 2.709102,2.3575 1.128136,-0.36618 2.245946,-0.74297 3.350728,-1.13166 0.101238,1.1537 0.211104,2.30793 0.33049,3.46257 1.099462,0.49164 2.203099,0.96985 3.311817,1.43216 -0.735406,0.89494 -1.481955,1.78475 -2.238652,2.66962 0.470526,1.08545 0.95676,2.16833 1.460789,3.2481 -1.238039,0.11243 -2.483008,0.20726 -3.73263,0.2866 -0.481014,1.04937 -0.965437,2.09762 -1.453167,3.14477 z m 16.694365,3.84369 c -1.14558,-0.62179 -2.26656,-1.26295 -3.36528,-1.92153 -1.14245,0.50191 -2.30142,0.98553 -3.47421,1.45216 -0.26088,-1.14439 -0.50642,-2.2893 -0.73753,-3.43459 -1.209329,-0.42671 -2.407124,-0.87282 -3.594305,-1.33588 0.751805,-0.8978 1.492506,-1.80089 2.221146,-2.70945 -0.516278,-1.06777 -1.01368,-2.13925 -1.494304,-3.21386 1.202687,-0.12023 2.396083,-0.25797 3.577903,-0.41542 0.41488,-1.07242 0.82517,-2.14605 1.2308,-3.22089 0.93666,0.68506 1.88617,1.35546 2.85092,2.00922 1.04439,-0.50316 2.06857,-1.02402 3.06983,-1.56386 0.24016,1.11986 0.49614,2.23879 0.76889,3.35667 1.12782,0.32197 2.26255,0.61963 3.40509,0.89051 -0.57128,1.0008 -1.16104,1.99469 -1.7683,2.98182 0.62694,0.99527 1.27963,1.98395 1.96019,2.96549 -1.21036,0.311 -2.43471,0.59478 -3.67078,0.85343 -0.32075,1.10338 -0.64748,2.20545 -0.98006,3.30618 z m 17.51892,0.82331 c -1.26763,-0.36999 -2.51654,-0.76949 -3.74555,-1.19709 -1.03663,0.72155 -2.101,1.42314 -3.19231,2.10316 -0.48827,-1.07727 -0.95663,-2.15885 -1.40501,-3.24417 -0.50668,-0.0778 -1.0121,-0.1605 -1.51614,-0.24798 -0.78072,-0.13838 -1.55629,-0.28758 -2.32695,-0.44705 0.59721,-1.00736 1.17599,-2.02183 1.73534,-3.04356 -0.69817,-0.9613 -1.36738,-1.93031 -2.00976,-2.90648 1.03078,-0.28535 2.04848,-0.5925 3.0515,-0.9229 0.11872,-0.0387 0.2372,-0.0777 0.35549,-0.11709 0.212,-1.13133 0.41703,-2.2635 0.61505,-3.39646 1.01469,0.49814 2.05088,0.97378 3.10743,1.42552 0.91091,-0.701 1.79444,-1.41975 2.64981,-2.15467 0.45619,1.05059 0.93204,2.0966 1.42748,3.13743 1.16313,0.0828 2.33163,0.13684 3.50405,0.1617 -0.34522,1.10096 -0.71121,2.19965 -1.09788,3.29549 0.82393,0.84373 1.6744,1.67378 2.55107,2.48891 -1.12045,0.56385 -2.26372,1.10306 -3.42856,1.61628 -0.0846,1.14967 -0.17631,2.29932 -0.27506,3.4489 z m 17.33917,-2.96212 c -1.31134,-0.0919 -2.61343,-0.21365 -3.90434,-0.36588 -0.33362,0.3617 -0.67218,0.72157 -1.01576,1.07952 -0.53942,0.55964 -1.09064,1.11381 -1.65346,1.66213 -0.70895,-0.94733 -1.39884,-1.90327 -2.06963,-2.86727 -1.30472,0.0829 -2.6076,0.13265 -3.90718,0.14994 0.3701,-1.11461 0.71933,-2.23153 1.04758,-3.35016 -0.88808,-0.78987 -1.75028,-1.59532 -2.58628,-2.41508 1.05904,-0.55685 2.09525,-1.13693 3.10739,-1.73888 -0.035,-1.15036 -0.0771,-2.30003 -0.12624,-3.44898 1.09599,0.26968 2.20796,0.51235 3.33474,0.72662 0.0975,-0.11633 0.19428,-0.23286 0.29057,-0.34959 0.63412,-0.76532 1.24578,-1.53933 1.83593,-2.32111 0.67211,0.92776 1.36224,1.84664 2.06978,2.75651 1.1563,-0.16868 2.31323,-0.36618 3.46966,-0.59108 -0.10765,1.14933 -0.23389,2.30036 -0.37934,3.45276 0.98423,0.64901 1.9899,1.2805 3.01554,1.89436 -0.97396,0.7846 -1.97295,1.55207 -2.99798,2.30064 0.16287,1.14045 0.31923,2.28231 0.46902,3.42555 z m 16.2076,-6.29091 c -1.29038,0.14001 -2.5783,0.25465 -3.86182,0.34313 -0.65238,1.06829 -1.33242,2.13109 -2.04156,3.18699 -0.87476,-0.79201 -1.73607,-1.59367 -2.58327,-2.40484 -1.25051,0.33905 -2.5064,0.65158 -3.76654,0.93619 0.12697,-1.16575 0.23527,-2.32972 0.32549,-3.49157 -1.03068,-0.59038 -2.04221,-1.19821 -3.0331,-1.82344 0.92148,-0.76745 1.81944,-1.55147 2.6949,-2.35029 -0.26764,-1.11958 -0.54109,-2.23745 -0.82023,-3.3536 1.14312,0.035 2.29722,0.044 3.46037,0.0279 0.56558,-1.01334 1.10599,-2.03178 1.62268,-3.05392 0.84254,0.78234 1.69818,1.55522 2.56625,2.31851 1.11909,-0.38442 2.23474,-0.79124 3.34586,-1.21905 0.0904,1.15301 0.16652,2.3104 0.22777,3.47186 1.08639,0.46346 2.18695,0.90985 3.30018,1.33908 -0.81916,0.93935 -1.66085,1.86926 -2.52609,2.78793 0.36798,1.09297 0.73104,2.18804 1.08911,3.28515 z"
       id="path839"
       inkscape:connector-curvature="0" />
    <text
       xml:space="preserve"
       style="font-style:normal;font-variant:normal;font-weight:normal;font-stretch:normal;font-size:10.58333302px;line-height:1.25;font-family:sans-serif;-inkscape-font-specification:'sans-serif, Normal';font-variant-ligatures:normal;font-variant-caps:normal;font-variant-numeric:normal;text-align:start;letter-spacing:0px;word-spacing:0px;writing-mode:lr-tb;text-anchor:start;fill:#000000;fill-opacity:1;stroke:none;stroke-width:0.26458332"
       x="7.5463395"
       y="69.258423"
       id="text860"><tspan
         sodipodi:role="line"
         id="tspan858"
         x="7.5463395"
         y="69.258423"
         style="stroke-width:0.26458332">Path -&gt; Path effects -&gt; Pattern along path</tspan></text>
    <path
       sodipodi:type="star"
       style="opacity:1;fill:#ff8080;fill-opacity:0.98823529;stroke:none;stroke-width:1.18023252;stroke-linecap:round;stroke-linejoin:round;stroke-miterlimit:4;stroke-dasharray:none;stroke-dashoffset:0;stroke-opacity:1"
       id="path815"
       sodipodi:sides="8"
       sodipodi:cx="14.564276"
       sodipodi:cy="22.534904"
       sodipodi:r1="6.1901641"
       sodipodi:r2="4.3331146"
       sodipodi:arg1="1.0471976"
       sodipodi:arg2="1.4398966"
       inkscape:flatsided="false"
       inkscape:rounded="0"
       inkscape:randomized="0"
       d="m 17.659358,27.895744 -2.529497,-1.064795 -2.167718,1.683195 -1.0357,-2.541548 -2.7230068,-0.34261 1.0647958,-2.529496 -1.6831955,-2.167718 2.5415485,-1.0357 0.342609,-2.723007 2.529497,1.064795 2.167717,-1.683195 1.035701,2.541548 2.723006,0.34261 -1.064795,2.529496 1.683195,2.167718 -2.541548,1.0357 z" />
    <text
       id="text864"
       y="10.299806"
       x="7.990757"
       style="font-style:normal;font-variant:normal;font-weight:normal;font-stretch:normal;font-size:10.58333302px;line-height:1.25;font-family:sans-serif;-inkscape-font-specification:'sans-serif, Normal';font-variant-ligatures:normal;font-variant-caps:normal;font-variant-numeric:normal;text-align:start;letter-spacing:0px;word-spacing:0px;writing-mode:lr-tb;text-anchor:start;fill:#000000;fill-opacity:1;stroke:none;stroke-width:0.26458332"
       xml:space="preserve"><tspan
         style="stroke-width:0.26458332"
         y="10.299806"
         x="7.990757"
         id="tspan862"
         sodipodi:role="line">Original object (pattern)</tspan></text>
    <path
       style="opacity:1;fill:#000000;fill-opacity:0.98823529;stroke:none;stroke-width:4.26499987;stroke-linecap:round;stroke-linejoin:round;stroke-miterlimit:4;stroke-dasharray:none;stroke-dashoffset:0;stroke-opacity:1"
       d="m 158.94596,118.31622 c -2.56663,-2.52816 -4.03946,-4.81351 -3.17461,-5.91216 0.86269,-1.09589 4.33823,-1.37211 7.40312,0.796 1.55595,1.10069 2.31237,2.96744 2.60446,4.65911 0.28755,1.66529 0.1064,2.99869 0.1064,2.99869 0,0 -1.12849,0.0879 -2.54905,-0.23057 -1.45317,-0.32574 -3.08767,-1.02795 -4.39032,-2.31107 z m -3.17852,7.06222 c -1.77269,-3.17679 -2.44763,-5.83356 -1.23644,-6.65238 1.2016,-0.81231 4.50179,0.0248 6.76565,2.97502 1.1516,1.50073 1.35634,3.48662 1.17693,5.1763 -0.17665,1.66375 -0.7031,2.8862 -0.7031,2.8862 0,0 -1.11082,-0.23287 -2.3968,-0.93417 -1.31174,-0.71535 -2.71093,-1.84651 -3.60624,-3.45097 z m -4.98923,6.0287 c -0.89614,-3.53937 -0.84359,-6.34086 0.58651,-6.83069 1.41491,-0.48462 4.34701,1.25907 5.74788,4.7251 0.71208,1.76185 0.39109,3.73066 -0.22044,5.30994 -0.60236,1.55561 -1.42753,2.59537 -1.42753,2.59537 0,0 -1.01673,-0.51504 -2.08186,-1.52591 -1.08555,-1.03027 -2.15201,-2.48648 -2.60456,-4.27381 z m -6.35093,4.54618 c 0.0521,-3.62127 0.78354,-6.33006 2.29422,-6.44711 1.49207,-0.11559 3.88444,2.3334 4.3498,6.04629 0.23632,1.88549 -0.58229,3.69807 -1.58763,5.06003 -0.98998,1.34115 -2.0669,2.12618 -2.0669,2.12618 0,0 -0.84575,-0.75839 -1.60421,-2.0058 -0.77388,-1.27277 -1.41166,-2.94556 -1.38528,-4.77959 z m -7.26365,2.61467 c 1.06915,-3.43129 2.43669,-5.79236 3.88671,-5.50162 1.43015,0.28677 3.11701,3.2558 2.57143,6.93855 -0.27722,1.87126 -1.56229,3.38929 -2.92467,4.42657 -1.33989,1.02015 -2.62121,1.47864 -2.62121,1.47864 0,0 -0.59782,-0.96237 -0.96385,-2.37384 -0.37438,-1.44365 -0.49222,-3.22298 0.0516,-4.9683 z m -7.69965,0.28183 c 1.01271,-1.41306 2.12139,-2.67913 2.96999,-3.41365 0.9041,-0.73628 1.68861,-1.01991 2.36627,-0.62825 1.23537,0.71401 2.03849,4.03473 0.41275,7.4019 -0.58016,1.20159 -1.60866,2.11242 -2.77902,2.75831 -2.14588,1.12082 -4.42905,1.1466 -4.42905,1.1466 0,0 -0.26277,-1.10887 -0.16317,-2.56416 0.10208,-1.49161 0.55255,-3.20821 1.62223,-4.70075 z m -7.4106,-2.10481 c 2.88826,-2.181 5.3876,-3.24405 6.35251,-2.19111 0.95939,1.04693 0.65351,4.46072 -1.93914,7.13192 -1.31823,1.35817 -3.26127,1.8355 -4.96565,1.88692 -1.67788,0.0506 -2.96474,-0.30899 -2.96474,-0.30899 0,0 0.0773,-1.12917 0.59636,-2.49327 0.53006,-1.39309 1.45938,-2.92202 2.92066,-4.02547 z M 115.4518,132.605 c 3.39363,-1.34385 6.1515,-1.64801 6.81177,-0.31055 0.654,1.32478 -0.66232,4.46336 -3.90368,6.30429 -1.64853,0.93628 -3.64317,0.87483 -5.29107,0.47447 -1.62297,-0.3943 -2.76307,-1.07595 -2.76307,-1.07595 0,0 0.37878,-1.07337 1.24402,-2.25966 0.88198,-1.20924 2.18899,-2.45424 3.90203,-3.1326 z m -5.34356,-5.72621 c 3.6149,-0.43061 6.40073,-0.0333 6.70914,1.45478 0.30483,1.47087 -1.8158,4.15382 -5.43932,5.09637 -1.84084,0.47883 -3.74896,-0.0947 -5.23293,-0.90781 -1.46167,-0.80091 -2.38306,-1.75786 -2.38306,-1.75786 0,0 0.64159,-0.94086 1.77984,-1.86337 1.16047,-0.94051 2.73872,-1.8044 4.56633,-2.02211 z m -3.63654,-6.86342 c 3.55967,0.5519 6.12767,1.60701 6.0446,3.10488 -0.082,1.47835 -2.81302,3.53896 -6.54604,3.50814 -1.89571,-0.0156 -3.57811,-1.07154 -4.79124,-2.25993 -1.194003,-1.16964 -1.824703,-2.35469 -1.824703,-2.35469 0,0 0.865343,-0.73137 2.203803,-1.30436 1.36721,-0.5853 3.10694,-0.97414 4.91358,-0.69404 z m -1.48053,-7.55163 c 3.23724,1.60497 5.32304,3.27153 4.81816,4.63975 -0.49763,1.34854 -3.66286,2.61745 -7.22385,1.53962 -1.81183,-0.54841 -3.131913,-2.05453 -3.965993,-3.58188 -0.81954,-1.50072 -1.08799,-2.86647 -1.08799,-2.86647 0,0 1.50157,-0.61882 3.418453,-0.62686 0,0 0,0 0,0 0,0 0,0 0,0 0,0 0,0 0,0 0,0 0,0 0,0 0,0 0,0 0,0 0,0 0,0 0,0 0,0 0,0 0,0 0.028,-1.2e-4 0.056,-1.2e-4 0.0841,0 0,0 1e-5,0 1e-5,0 0,0 0,0 0,0 0,0 0,0 0,0 0,0 0,0 0,0 0,0 0,0 0,0 0,0 0,0 0,0 0,0 0,0 0,0 0,0 0,0 0,0 0,0 0,0 0,0 0,0 0,0 0,0 0,0 0,0 0,0 0,0 0,0 0,0 1.27952,0.005 2.67072,0.25809 3.95708,0.89584 z m 0.93083,-7.64424 c 2.56663,2.52817 4.03945,4.81352 3.1746,5.91217 -0.86269,1.09589 -4.33824,1.3721 -7.40312,-0.79603 -1.55595,-1.10069 -2.312363,-2.96744 -2.604453,-4.65911 -0.28754,-1.66529 -0.10639,-2.99869 -0.10639,-2.99869 0,0 1.128503,-0.0879 2.549053,0.23058 1.45317,0.32575 3.08767,1.02796 4.39031,2.31108 z m 3.17854,-7.062204 c 1.77268,3.176784 2.44762,5.833564 1.23642,6.652374 -1.20159,0.81231 -4.50179,-0.0249 -6.76564,-2.97503 -1.1516,-1.500734 -1.35633,-3.486624 -1.17691,-5.176294 0.17666,-1.66375 0.7031,-2.8862 0.7031,-2.8862 0,0 1.11083,0.23287 2.39681,0.93417 1.31174,0.71535 2.71092,1.84651 3.60622,3.45098 z m 4.98925,-6.02869 c 0.89613,3.53938 0.84358,6.34087 -0.58653,6.83069 -1.41491,0.48462 -4.347,-1.25908 -5.74786,-4.72512 -0.71208,-1.76185 -0.39109,-3.73065 0.22045,-5.30994 0.60237,-1.55561 1.42754,-2.59536 1.42754,-2.59536 0,0 1.01673,0.51504 2.08185,1.52592 1.08555,1.03026 2.15201,2.48648 2.60455,4.27381 z m 6.35094,-4.54616 c -0.0521,3.62127 -0.78355,6.33006 -2.29424,6.4471 -1.49207,0.11558 -3.88443,-2.33341 -4.34978,-6.0463 -0.23632,-1.88549 0.5823,-3.69807 1.58764,-5.06003 0.98999,-1.34114 2.06691,-2.12617 2.06691,-2.12617 0,0 0.84574,0.75839 1.6042,2.00581 0.77388,1.27277 1.41166,2.94556 1.38527,4.77959 z m 7.26365,-2.61465 c -1.06915,3.43129 -2.4367,5.79235 -3.88672,5.50161 -1.43015,-0.28678 -3.117,-3.25581 -2.57141,-6.93856 0.27723,-1.87125 1.5623,-3.38929 2.92468,-4.42656 1.3399,-1.02015 2.62122,-1.47863 2.62122,-1.47863 0,0 0.59781,0.96237 0.96385,2.37383 0.37437,1.44366 0.4922,3.22299 -0.0516,4.96831 z m 7.69966,-0.2818 c -1.01274,1.41308 -2.12145,2.67917 -2.97007,3.41369 -0.90407,0.73624 -1.68856,1.01984 -2.3662,0.62819 -1.23537,-0.71402 -2.03848,-4.03474 -0.41273,-7.4019 0.58014,-1.20156 1.60861,-2.11237 2.77893,-2.75826 2.14591,-1.12086 4.42915,-1.14664 4.42915,-1.14664 0,0 0.26277,1.10888 0.16317,2.56417 -0.10209,1.49161 -0.55257,3.20821 -1.62225,4.70075 z m 7.4106,2.10482 c -2.88827,2.181 -5.38762,3.24403 -6.35252,2.1911 -0.95939,-1.04694 -0.6535,-4.46072 1.93915,-7.13192 1.31824,-1.35816 3.26128,-1.83549 4.96566,-1.8869 1.67788,-0.0506 2.96474,0.30899 2.96474,0.30899 0,0 -0.0773,1.12918 -0.59636,2.49327 -0.53007,1.39309 -1.45939,2.92202 -2.92067,4.02546 z m 6.60157,4.14003 c -3.39364,1.34384 -6.15152,1.648 -6.81178,0.31053 -0.65399,-1.32478 0.66233,-4.46336 3.9037,-6.30428 1.64853,-0.93627 3.64317,-0.87482 5.29107,-0.47446 1.62297,0.39431 2.76307,1.07596 2.76307,1.07596 0,0 -0.37878,1.07337 -1.24403,2.25967 -0.88198,1.20923 -2.18899,2.45423 -3.90203,3.13258 z m 5.34354,5.72622 c -3.6149,0.43061 -6.40073,0.0333 -6.70913,-1.45479 -0.30483,-1.47088 1.8158,-4.15382 5.43933,-5.09636 1.84084,-0.47882 3.74896,0.0947 5.23292,0.90783 1.46167,0.80091 2.38306,1.75786 2.38306,1.75786 0,0 -0.6416,0.94086 -1.77984,1.86336 -1.16048,0.94052 -2.73873,1.8044 -4.56634,2.0221 z m 3.63652,6.863424 c -3.55966,-0.5519 -6.12767,-1.60702 -6.04459,-3.10488 0.082,-1.478354 2.81303,-3.538964 6.54605,-3.508134 1.89571,0.0157 3.57811,1.07156 4.79123,2.25994 1.194,1.16965 1.8247,2.354694 1.8247,2.354694 0,0 -0.86535,0.73137 -2.20381,1.30436 -1.36721,0.58529 -3.10694,0.97413 -4.91358,0.69402 z m 1.48051,7.55164 c -3.23723,-1.60498 -5.32303,-3.27154 -4.81815,-4.63977 0.49763,-1.34854 3.66287,-2.61744 7.22385,-1.53959 1.81183,0.54841 3.13191,2.05454 3.96599,3.58189 0.81953,1.50072 1.08798,2.86647 1.08798,2.86647 0,0 -1.04943,0.44517 -2.51591,0.58265 -1.50171,0.14079 -3.2941,-0.0338 -4.94376,-0.85165 z"
       id="path880"
       inkscape:connector-curvature="0" />
    <path
       style="opacity:1;fill:#000000;fill-opacity:0.98823529;stroke:none;stroke-width:4.04319096;stroke-linecap:round;stroke-linejoin:round;stroke-miterlimit:4;stroke-dasharray:none;stroke-dashoffset:0;stroke-opacity:1"
       d="m 149.48978,112.2696 c -2.51862,1.26679 -4.1994,2.4317 -3.8979,3.50756 0.29428,1.05012 2.65335,2.32393 5.5043,1.58756 1.45456,-0.3757 2.56298,-1.58529 3.26675,-2.86386 0.68949,-1.25258 0.90813,-2.4182 0.90813,-2.4182 0,0 -0.80902,-0.38148 -1.94583,-0.49738 -1.17126,-0.11945 -2.54512,0.0354 -3.83545,0.68432 z m -1.52516,6.00854 c -2.82376,0.22317 -4.90303,0.78429 -5.01031,1.94234 -0.10496,1.13301 1.71472,3.10616 4.65868,3.41306 1.5004,0.1564 2.95902,-0.57281 4.05077,-1.47993 1.07181,-0.89055 1.67339,-1.85027 1.67339,-1.85027 0,0 -2.46555,-2.25494 -5.37253,-2.0252 z m -3.63104,5.14435 c -2.76885,-0.7409 -4.90459,-0.84474 -5.36907,0.20332 -0.45597,1.0289 0.58558,3.48745 3.25454,4.74663 1.3627,0.64289 2.9878,0.44089 4.32207,-0.042 1.31039,-0.47429 2.1977,-1.16249 2.1977,-1.16249 0,0 -1.56922,-2.98652 -4.40524,-3.74542 z m -5.12192,3.6652 c -2.33411,-1.61595 -4.22384,-2.46495 -4.97415,-1.70953 -0.74232,0.7474 -0.75054,3.45819 1.29185,5.58824 1.04181,1.08653 2.649,1.45307 4.08065,1.44981 1.40563,-0.003 2.48105,-0.35485 2.48105,-0.35485 0,0 -0.0588,-0.88646 -0.48819,-1.93531 -0.44091,-1.07688 -1.20792,-2.21913 -2.39121,-3.03836 z m -5.9978,1.57104 c -0.28101,-0.43907 -0.57132,-0.86704 -0.84031,-1.24798 -1.19026,-1.642 -2.14416,-2.6207 -3.02816,-2.26831 -1.00155,0.39926 -2.06434,2.86061 -1.05431,5.62844 0.64527,1.76827 2.5052,2.8246 4.08247,3.31412 0.94447,0.25387 1.63534,0.2837 1.63534,0.2837 0,0 0.28943,-0.85368 0.28446,-1.98855 -0.005,-1.17248 -0.29788,-2.50019 -1.07949,-3.72142 z m -6.12524,-0.91684 c -0.47647,-2.78036 -1.19458,-4.79381 -2.34994,-4.80287 -1.12965,-0.009 -2.94835,1.96641 -3.00281,4.92245 -0.0277,1.50626 0.82613,2.89432 1.83097,3.90284 0.98612,0.98973 2.00348,1.50465 2.00348,1.50465 0,0 0.593,-0.66349 1.03661,-1.70239 0.45564,-1.06707 0.72421,-2.40945 0.48169,-3.82468 z m -5.41806,-3.16222 c 0.50747,-2.81753 0.43909,-4.96886 -0.65436,-5.35006 -1.07234,-0.37381 -3.42984,0.88682 -4.45935,3.65795 -0.52541,1.41422 -0.18751,3.01512 0.40656,4.30231 0.58346,1.26417 1.34567,2.0892 1.34567,2.0892 0,0 2.84163,-1.81322 3.36148,-4.6994 z m -4.09264,-4.80687 c 1.40698,-2.4792 2.0593,-4.4572 1.21503,-5.14354 -0.83299,-0.67716 -3.50541,-0.39676 -5.42395,1.83487 -0.97954,1.13938 -1.20028,2.768 -1.07179,4.18907 0.12615,1.39531 0.56798,2.43282 0.56798,2.43282 0,0 0.87909,-0.13818 1.88871,-0.65895 1.03554,-0.53415 2.11211,-1.39985 2.82402,-2.65427 z m -2.15222,-5.83649 c 1.0378,-0.83 2.04485,-1.7579 2.59885,-2.38822 0.56506,-0.69569 0.79648,-1.27869 0.51116,-1.81041 -0.50595,-0.94287 -3.05725,-1.77814 -5.71765,-0.49034 -0.94975,0.45974 -1.6765,1.30919 -2.1821,2.30075 -0.86541,1.82255 -0.78229,3.7567 -0.78229,3.7567 0,0 0.87118,0.19775 1.99522,0.0779 1.15928,-0.12373 2.45176,-0.54658 3.57681,-1.44633 z m 0.29253,-6.18364 c 2.71481,-0.73467 4.64037,-1.60604 4.54832,-2.74666 -0.0899,-1.11458 -2.20653,-2.76554 -5.1513,-2.56182 -1.50062,0.10382 -2.80671,1.07933 -3.72286,2.17863 -0.89867,1.07834 -1.32088,2.14922 -1.32088,2.14922 0,0 0.71518,0.52877 1.7925,0.87018 1.10771,0.35104 2.46929,0.48524 3.85422,0.11045 z m 2.65498,-5.65331 c 2.84268,0.26887 4.99022,0.0324 5.28391,-1.09455 0.28775,-1.104274 -1.17522,-3.346964 -4.02642,-4.141334 -1.45435,-0.4052 -3.01945,0.0659 -4.25051,0.76773 -1.20902,0.68921 -1.96567,1.52135 -1.96567,1.52135 0,0 2.04431,2.671144 4.95869,2.946804 z m 4.45337,-4.481634 c 2.59993,1.19109 4.64853,1.65443 5.26582,0.73138 0.60774,-0.9088 0.0561,-3.52566 -2.343,-5.22892 -1.22533,-0.86993 -2.86417,-0.94732 -4.26545,-0.69715 -1.37596,0.24565 -2.3695,0.77364 -2.3695,0.77364 0,0 1.04478,3.19904 3.71213,4.42105 z m 5.63674,-2.69498 c 1.56519,1.59603 3.08712,2.81603 3.91023,2.87487 0.20988,-0.001 0.4048,-0.0618 0.58543,-0.18868 0.87473,-0.61452 1.46464,-3.24312 -0.10441,-5.77197 -0.138,-0.22241 -0.2993,-0.43036 -0.48103,-0.62387 -2.02029,-2.10632 -5.81725,-1.69368 -5.81725,-1.69368 0,0 -0.13351,3.32253 1.90703,5.40333 z m 6.18132,-0.34065 c 0.998,2.62746 2.01853,4.44235 3.13254,4.24667 1.08794,-0.1911 2.55751,-2.43541 2.09006,-5.34526 -0.2383,-1.48341 -1.33237,-2.69623 -2.52292,-3.51083 -1.16716,-0.7986 -2.28745,-1.12203 -2.28745,-1.12203 0,0 -0.45825,0.76368 -0.69044,1.87363 -0.239,1.14249 -0.23203,2.51447 0.27821,3.85782 z m 5.85013,2.10929 c -0.0253,2.84466 0.37528,4.968394 1.52388,5.170674 1.12454,0.19803 3.23904,-1.45108 3.79257,-4.359994 0.28222,-1.48309 -0.31939,-3.00075 -1.1255,-4.16667 -0.79157,-1.14489 -1.68955,-1.82706 -1.68955,-1.82706 0,0 -2.47542,2.26189 -2.5014,5.18305 z m 4.83222,4.061434 c -0.96891,2.69641 -1.24975,4.79774 -0.25861,5.341 0.97426,0.534 3.51951,-0.27132 5.00315,-2.81623 0.75773,-1.29974 0.69418,-2.93744 0.32587,-4.309764 -0.36169,-1.34766 -0.9718,-2.29113 -0.9718,-2.29113 0,0 -3.10565,1.31285 -4.09861,4.076124 z m 3.1993,5.39855 c -1.81729,2.16471 -2.87217,3.94841 -2.21492,4.75766 0.65262,0.80354 3.38341,1.1172 5.72177,-0.71388 1.19092,-0.93256 1.70571,-2.50729 1.83122,-3.94018 0.12324,-1.40697 -0.13419,-2.51425 -0.13419,-2.51425 0,0 -3.3279,0.17606 -5.20388,2.41065 z"
       id="path928"
       inkscape:connector-curvature="0" />
    <text
       xml:space="preserve"
       style="font-style:normal;font-variant:normal;font-weight:normal;font-stretch:normal;font-size:10.58333302px;line-height:1.25;font-family:sans-serif;-inkscape-font-specification:'sans-serif, Normal';font-variant-ligatures:normal;font-variant-caps:normal;font-variant-numeric:normal;text-align:start;letter-spacing:0px;word-spacing:0px;writing-mode:lr-tb;text-anchor:start;fill:#ff0000;fill-opacity:1;stroke:none;stroke-width:0.26458332"
       x="7.5463395"
       y="212.73918"
       id="text975"><tspan
         sodipodi:role="line"
         id="tspan973"
         x="7.5463395"
         y="212.73918"
         style="fill:#ff0000;stroke-width:0.26458332">Properties (fill/stroke) from path are applied</tspan></text>
  </g>
</svg>
