<?xml version="1.0" encoding="UTF-8" standalone="no"?>
<!-- Created with Inkscape (http://www.inkscape.org/) -->

<svg
   xmlns:dc="http://purl.org/dc/elements/1.1/"
   xmlns:cc="http://creativecommons.org/ns#"
   xmlns:rdf="http://www.w3.org/1999/02/22-rdf-syntax-ns#"
   xmlns:svg="http://www.w3.org/2000/svg"
   xmlns="http://www.w3.org/2000/svg"
   xmlns:sodipodi="http://sodipodi.sourceforge.net/DTD/sodipodi-0.dtd"
   xmlns:inkscape="http://www.inkscape.org/namespaces/inkscape"
   width="215.8013mm"
   height="284.87976mm"
   viewBox="0 0 215.8013 284.87976"
   version="1.1"
   id="svg8"
   inkscape:version="0.92.3 (2405546, 2018-03-11)"
   sodipodi:docname="33 - Interlocking Letters.svg">
  <defs
     id="defs2" />
  <sodipodi:namedview
     id="base"
     pagecolor="#ffffff"
     bordercolor="#666666"
     borderopacity="1.0"
     inkscape:pageopacity="0.0"
     inkscape:pageshadow="2"
     inkscape:zoom="0.24748737"
     inkscape:cx="358.18851"
     inkscape:cy="597.02393"
     inkscape:document-units="mm"
     inkscape:current-layer="layer1"
     showgrid="false"
     inkscape:snap-global="false"
     inkscape:window-width="956"
     inkscape:window-height="1015"
     inkscape:window-x="960"
     inkscape:window-y="0"
     inkscape:window-maximized="0"
     fit-margin-top="0"
     fit-margin-left="0"
     fit-margin-right="0"
     fit-margin-bottom="0" />
  <metadata
     id="metadata5">
    <rdf:RDF>
      <cc:Work
         rdf:about="">
        <dc:format>image/svg+xml</dc:format>
        <dc:type
           rdf:resource="http://purl.org/dc/dcmitype/StillImage" />
        <dc:title></dc:title>
      </cc:Work>
    </rdf:RDF>
  </metadata>
  <g
     inkscape:label="Ebene 1"
     inkscape:groupmode="layer"
     id="layer1"
     transform="translate(28.34504,26.086779)">
    <path
       style="font-style:normal;font-variant:normal;font-weight:normal;font-stretch:normal;font-size:medium;line-height:1.25;font-family:sans-serif;-inkscape-font-specification:'sans-serif, Normal';font-variant-ligatures:normal;font-variant-caps:normal;font-variant-numeric:normal;text-align:start;letter-spacing:0px;word-spacing:0px;writing-mode:lr-tb;text-anchor:start;opacity:1;fill:#000000;fill-opacity:1;stroke:none;stroke-width:0.99999958"
       d="m 189.19531,-98.595703 c -92.365916,0 -164.940176,21.488368 -217.720701,64.466797 -52.40352,42.9784275 -78.605469,101.790758 -78.605469,176.437496 0,64.46765 19.039811,114.79788 57.117188,150.99024 37.332715,35.48456 97.331866,61.7206 179.964842,78.72265 V 255.51562 C 88.278461,245.19629 58.601198,232.72593 41.033203,218.08594 18.789982,198.85875 7.6679688,170.58314 7.6679688,133.25977 7.6679687,88.773323 24.444713,54.466132 57.998047,30.337891 91.928385,6.2096505 139.99555,-5.8535156 202.20117,-5.8535156 c 35.81536,0 72.94991,5.08847687 111.4043,15.2675781 38.45438,10.1791015 79.35942,25.6378395 122.71484,46.3730465 V -55.617188 C 393.3419,-69.94333 351.3063,-80.688491 310.21289,-87.851562 269.11948,-95.014634 228.78071,-98.595703 189.19531,-98.595703 Z M 313.23633,297.59961 v 128.89453 c 5.99349,4.02431 11.39705,8.25767 16.20312,12.70508 25.63626,23.37421 38.45508,55.79716 38.45508,97.26758 0,27.62207 -6.00367,51.53907 -17.98633,71.76758 h 126.70313 c 7.05666,-24.21747 10.60547,-50.95755 10.60547,-80.25 0,-68.61468 -20.3578,-123.28165 -61.07422,-163.99805 -27.3324,-27.84329 -64.97754,-49.96659 -112.90625,-66.38672 z m -416.97266,308.42383 v 117.625 c 48.256482,17.71918 94.8162427,31.1023 139.679689,40.15039 32.718723,6.54374 64.049747,10.70834 94.007811,12.51953 V 683.27148 C 97.895293,680.72701 65.428476,674.58838 32.548828,664.83594 -11.937615,651.6408 -57.364867,632.03669 -103.73633,606.02344 Z m 452.22852,4.54101 c -8.47653,13.58236 -19.7211,25.45657 -33.75586,35.60938 -0.49356,0.35704 -1.00067,0.70262 -1.5,1.05469 v 111.57031 c 35.86019,-10.48399 66.34249,-25.39654 91.41601,-44.76367 34.70174,-26.62052 58.45342,-61.11615 71.27735,-103.47071 z"
       transform="scale(0.26458333)"
       id="path858"
       inkscape:connector-curvature="0" />
    <path
       style="font-style:normal;font-variant:normal;font-weight:normal;font-stretch:normal;font-size:medium;line-height:1.25;font-family:sans-serif;-inkscape-font-specification:'sans-serif, Normal';font-variant-ligatures:normal;font-variant-caps:normal;font-variant-numeric:normal;text-align:start;letter-spacing:0px;word-spacing:0px;writing-mode:lr-tb;text-anchor:start;opacity:1;fill:#800000;fill-opacity:1;stroke:none;stroke-width:0.99999958"
       d="M 164.47852,133.81445 V 978.11523 H 708.49609 V 881.97852 H 278.71094 v -305.9375 h 38.43164 V 479.9043 H 278.71094 V 229.95117 H 698.31641 V 133.81445 Z M 511.42773,479.9043 v 96.13672 H 680.78516 V 479.9043 Z"
       transform="scale(0.26458333)"
       id="path861"
       inkscape:connector-curvature="0" />
  </g>
</svg>
