<?xml version="1.0" encoding="UTF-8" standalone="no"?>
<!-- Created with Inkscape (http://www.inkscape.org/) -->

<svg
   xmlns:dc="http://purl.org/dc/elements/1.1/"
   xmlns:cc="http://creativecommons.org/ns#"
   xmlns:rdf="http://www.w3.org/1999/02/22-rdf-syntax-ns#"
   xmlns:svg="http://www.w3.org/2000/svg"
   xmlns="http://www.w3.org/2000/svg"
   xmlns:xlink="http://www.w3.org/1999/xlink"
   xmlns:sodipodi="http://sodipodi.sourceforge.net/DTD/sodipodi-0.dtd"
   xmlns:inkscape="http://www.inkscape.org/namespaces/inkscape"
   width="354.75845mm"
   height="170.2196mm"
   viewBox="0 0 354.75845 170.2196"
   version="1.1"
   id="svg8"
   inkscape:version="0.92.3 (2405546, 2018-03-11)"
   sodipodi:docname="38 - Neon Text Effect.svg">
  <sodipodi:namedview
     id="base"
     pagecolor="#ffffff"
     bordercolor="#666666"
     borderopacity="1.0"
     inkscape:pageopacity="0.0"
     inkscape:pageshadow="2"
     inkscape:zoom="0.27088294"
     inkscape:cx="683.60688"
     inkscape:cy="-146.63676"
     inkscape:document-units="mm"
     inkscape:current-layer="layer1"
     showgrid="false"
     showguides="false"
     inkscape:window-width="956"
     inkscape:window-height="1015"
     inkscape:window-x="960"
     inkscape:window-y="0"
     inkscape:window-maximized="0"
     inkscape:snap-global="false"
     fit-margin-top="0"
     fit-margin-left="0"
     fit-margin-right="0"
     fit-margin-bottom="0" />
  <defs
     id="defs2">
    <linearGradient
       inkscape:collect="always"
       id="linearGradient1131">
      <stop
         style="stop-color:#d40055;stop-opacity:1"
         offset="0"
         id="stop1127" />
      <stop
         id="stop1135"
         offset="1"
         style="stop-color:#000000;stop-opacity:1" />
      <stop
         style="stop-color:#000000;stop-opacity:1"
         offset="1"
         id="stop1129" />
    </linearGradient>
    <filter
       inkscape:collect="always"
       style="color-interpolation-filters:sRGB"
       id="filter1063"
       x="-0.12083703"
       width="1.2416741"
       y="-0.35267118"
       height="1.7053424">
      <feGaussianBlur
         inkscape:collect="always"
         stdDeviation="8.3617539"
         id="feGaussianBlur1065" />
    </filter>
    <filter
       inkscape:collect="always"
       style="color-interpolation-filters:sRGB"
       id="filter1103"
       x="-0.048409797"
       width="1.0968196"
       y="-0.14043362"
       height="1.2808672">
      <feGaussianBlur
         inkscape:collect="always"
         stdDeviation="3.3296493"
         id="feGaussianBlur1105" />
    </filter>
    <filter
       inkscape:collect="always"
       style="color-interpolation-filters:sRGB"
       id="filter1115"
       x="-0.016135735"
       width="1.0322715"
       y="-0.046818469"
       height="1.0936369">
      <feGaussianBlur
         inkscape:collect="always"
         stdDeviation="1.1100553"
         id="feGaussianBlur1117" />
    </filter>
    <radialGradient
       inkscape:collect="always"
       xlink:href="#linearGradient1131"
       id="radialGradient1133"
       cx="106.70929"
       cy="127.82097"
       fx="106.70929"
       fy="127.82097"
       r="177.37923"
       gradientTransform="matrix(0.98072691,0,0,0.47706505,2.0566165,66.842048)"
       gradientUnits="userSpaceOnUse" />
  </defs>
  <metadata
     id="metadata5">
    <rdf:RDF>
      <cc:Work
         rdf:about="">
        <dc:format>image/svg+xml</dc:format>
        <dc:type
           rdf:resource="http://purl.org/dc/dcmitype/StillImage" />
        <dc:title></dc:title>
      </cc:Work>
    </rdf:RDF>
  </metadata>
  <g
     id="layer1"
     inkscape:groupmode="layer"
     inkscape:label="Ebene 1"
     transform="translate(70.669937,-42.711166)">
    <rect
       y="42.711166"
       x="-70.669937"
       height="170.2196"
       width="354.75845"
       id="rect838"
       style="opacity:1;vector-effect:none;fill:#000000;fill-opacity:1;stroke:none;stroke-width:1.05833328;stroke-linecap:butt;stroke-linejoin:round;stroke-miterlimit:4;stroke-dasharray:none;stroke-dashoffset:0;stroke-opacity:1" />
    <rect
       style="opacity:0.70200004;vector-effect:none;fill:url(#radialGradient1133);fill-opacity:1;stroke:none;stroke-width:1.05833328;stroke-linecap:butt;stroke-linejoin:round;stroke-miterlimit:4;stroke-dasharray:none;stroke-dashoffset:0;stroke-opacity:1"
       id="rect1125"
       width="354.75845"
       height="170.2196"
       x="-70.669937"
       y="42.711166" />
    <path
       inkscape:connector-curvature="0"
       id="path823"
       d="m 97.512068,99.399279 c -9.239941,0.607961 -15.48995,9.031671 -20.000262,16.249221 -5.359575,9.19603 -10.166244,19.68545 -9.146434,30.57541 0.81603,7.44757 9.010986,11.36253 15.795553,9.65036 7.114135,-1.35826 13.819253,-4.54757 19.727485,-8.68618 -0.24354,-2.1592 0.0998,-5.38614 -2.65678,-2.97322 -6.660252,3.24755 -14.431116,6.2171 -21.776708,3.63043 -3.216135,-1.57851 -5.882156,-7.72852 -1.281041,-9.09129 10.664536,-7.40787 21.938929,-16.12203 25.485309,-29.22648 1.37538,-4.38932 -0.60154,-10.64471 -6.147122,-10.128251 z m 41.487892,1.425241 c -8.4267,2.38096 -13.7871,10.1531 -18.99877,16.66846 -5.90464,7.85196 -10.31019,17.41877 -10.36468,27.36566 -0.0583,6.4404 6.15953,12.79425 12.71848,9.4196 10.17147,-4.93481 15.49561,-15.66839 20.58274,-25.19352 3.4339,-6.95057 5.55432,-14.50716 6.71977,-22.14309 -4.6121,-3.49786 -11.82272,5.83414 -10.90845,11.20721 -0.10565,10.8383 -5.17218,21.86896 -13.79712,28.4978 -6.22614,4.51869 -9.85301,-3.66319 -7.57437,-8.89558 2.90025,-10.48701 7.69074,-20.88573 15.68205,-28.44765 2.24127,-3.33167 5.34142,0.46746 7.66599,-1.32257 1.66949,-1.27316 4.76104,-4.16081 2.05638,-5.87816 -1.11048,-0.7698 -2.39861,-1.38209 -3.78202,-1.27816 z m -95.696477,2.08204 c -3.826478,-0.0957 -3.52366,4.51349 -4.550823,7.133 -4.025542,13.30348 -8.721682,26.41308 -14.146967,39.23379 -1.969147,2.82141 -0.802297,7.90628 3.266222,3.99064 3.826247,-4.51944 6.084448,-10.13127 9.453808,-14.99132 5.616038,-9.06957 11.162085,-18.35476 18.5533,-26.10414 6.269379,-4.24427 0.540903,7.89429 -0.346811,10.84408 -3.248797,8.32418 -7.310284,16.39745 -9.494834,25.08649 -2.855566,5.65202 3.064409,9.34173 7.466573,5.60057 2.959751,-2.58224 10.579399,-4.10661 8.694404,-9.05336 -0.117531,-2.74588 -2.850544,1.10051 -4.290438,1.38986 -2.455974,2.11941 -7.688686,4.05494 -5.378321,-1.62956 3.268689,-10.90929 8.479428,-21.05911 12.872281,-31.52547 1.312577,-3.35067 2.330524,-10.30439 -3.151214,-9.53473 -6.650701,1.05714 -10.181674,7.6694 -14.308412,12.28344 -4.160407,5.9315 -8.151477,11.99997 -11.744275,18.29549 3.468418,-9.69712 8.000897,-19.10927 10.078947,-29.2308 0.123881,-1.79022 -1.705834,-1.84859 -2.97344,-1.78798 z m 123.307717,0 c -3.82645,-0.096 -3.52383,4.51357 -4.5513,7.13301 -4.02532,13.30342 -8.72134,26.41337 -14.14701,39.23378 -1.96914,2.82141 -0.8023,7.90628 3.26622,3.99064 3.82664,-4.51922 6.0844,-10.13129 9.45381,-14.99132 5.61589,-9.06977 11.16283,-18.35442 18.55374,-26.10414 6.26935,-4.24422 0.54096,7.89434 -0.3472,10.84408 -3.24836,8.32428 -7.31026,16.39746 -9.49439,25.08649 -2.85595,5.65214 3.06398,9.3417 7.46629,5.60057 2.95985,-2.58218 10.57971,-4.10652 8.69471,-9.05336 -0.11761,-2.74595 -2.85106,1.10033 -4.29096,1.38986 -2.45597,2.11941 -7.68868,4.05494 -5.37831,-1.62956 3.26981,-10.90893 8.47855,-21.05961 12.87279,-31.52547 1.31152,-3.3511 2.33079,-10.30466 -3.15173,-9.53473 -6.6507,1.05714 -10.18167,7.6694 -14.30841,12.28344 -4.16041,5.9315 -8.15148,11.99997 -11.74428,18.29549 3.46845,-9.69715 8.00078,-19.10941 10.07939,-29.2308 0.12357,-1.78991 -1.70577,-1.84864 -2.97336,-1.78798 z m -72.489632,2.19263 c 5.57517,1.75444 1.16718,8.98689 -0.698452,12.59743 -3.758662,7.46978 -10.446426,12.94561 -17.483382,17.21522 1.424836,-10.96781 6.551728,-21.79524 15.248403,-28.79587 0.879252,-0.55684 1.870466,-1.01009 2.933431,-1.01678 z"
       style="font-style:normal;font-variant:normal;font-weight:normal;font-stretch:normal;font-size:medium;line-height:1.25;font-family:UnPilgia;-inkscape-font-specification:UnPilgia;font-variant-ligatures:normal;font-variant-caps:normal;font-variant-numeric:normal;text-align:start;letter-spacing:0px;word-spacing:0px;writing-mode:lr-tb;text-anchor:start;fill:#ff2a7f;fill-opacity:1;stroke:#ff2a7f;stroke-width:8;stroke-miterlimit:4;stroke-dasharray:none;stroke-opacity:1;filter:url(#filter1063)" />
    <path
       inkscape:connector-curvature="0"
       d="m 97.373518,99.399283 c -9.239945,0.607967 -15.489954,9.031667 -20.000266,16.249217 -1.09e-4,1.9e-4 -2.18e-4,3.8e-4 -3.27e-4,5.6e-4 -5.359444,9.1959 -10.165896,19.68511 -9.146107,30.57485 1.7e-5,1.5e-4 3.3e-5,3e-4 5e-5,4.6e-4 0.816313,7.44727 9.011074,11.36204 15.795503,9.6499 1.45e-4,-3e-5 2.89e-4,-5e-5 4.34e-4,-8e-5 7.113974,-1.35831 13.818943,-4.54757 19.727055,-8.6861 -2e-5,-1.8e-4 -4e-5,-3.5e-4 -6e-5,-5.3e-4 -0.24342,-2.15919 0.0996,-5.38541 -2.65672,-2.97269 -7e-5,3e-5 -1.4e-4,7e-5 -2e-4,1e-4 -6.660212,3.24751 -14.430995,6.21697 -21.776512,3.63033 -6.5e-5,-3e-5 -1.31e-4,-6e-5 -1.96e-4,-1e-4 -3.216047,-1.57866 -5.881866,-7.72845 -1.280845,-9.09119 5.4e-5,-4e-5 1.08e-4,-7e-5 1.63e-4,-1.1e-4 10.664488,-7.40785 21.938788,-16.12199 25.48515,-29.22637 3e-5,-9e-5 6e-5,-1.8e-4 8e-5,-2.7e-4 1.37522,-4.3893 -0.60173,-10.644425 -6.147202,-10.127977 0,0 0,0 0,0 m 13.829302,0.475079 m 27.65859,0.950158 c -5.61789,1.58733 -9.19157,6.76878 -12.6661,11.11238 -2.80876,0.79374 -4.5955,3.38436 -6.33267,5.55608 -3.93649,5.23472 -6.87358,11.61267 -6.90997,18.24401 -1.96812,2.61741 -3.43655,5.80638 -3.45471,9.12204 -0.0386,4.29347 4.10649,8.52904 8.47899,6.27934 -0.0194,2.1468 2.05317,4.26475 4.23949,3.13987 6.78103,-3.2899 10.33051,-10.44564 13.72198,-16.79575 3.39039,-1.64498 5.16508,-5.22277 6.86076,-8.39777 2.2893,-4.63378 3.70295,-9.67158 4.47995,-14.76227 1.14457,-2.3168 1.85135,-4.83559 2.23982,-7.38082 -3.07478,-2.33194 -7.88191,3.88936 -7.27244,7.47137 -1.53737,-1.16566 -3.94076,1.94487 -3.63601,3.73584 -0.0704,7.22564 -3.44812,14.57953 -9.19808,18.99886 -0.0354,3.61276 -1.7244,7.28958 -4.59942,9.49922 -4.15053,3.01185 -6.56825,-2.44251 -5.0492,-5.93067 -2.07538,1.50623 -3.28434,-1.22106 -2.52479,-2.96519 1.93353,-6.99145 5.12722,-13.92403 10.45479,-18.96542 0.96685,-3.4957 2.56375,-6.96194 5.22753,-9.48264 1.49416,-2.22039 3.56077,0.31198 5.11039,-0.8813 0.74723,-1.11066 1.78075,0.15561 2.55574,-0.44117 1.11309,-0.84893 3.1734,-2.7737 1.37051,-3.91846 0.55632,-0.42451 1.58665,-1.38719 0.68492,-1.95976 -0.7402,-0.51303 -1.59876,-0.921 -2.52081,-0.85174 -0.37016,-0.2566 -0.79953,-0.46069 -1.26067,-0.42605 m -63.797657,1.38803 m -31.898824,0.69401 c -1.275648,-0.0319 -1.174865,1.50449 -1.517408,2.37766 -2.550494,-0.0634 -2.348681,3.00911 -3.033415,4.75534 -1.341888,4.43463 -2.907309,8.80463 -4.715779,13.07834 -2.683667,8.86884 -5.814387,17.60844 -9.431188,26.15545 -0.656462,0.94059 -0.267593,2.63566 1.0885,1.33056 -1.312429,1.88101 -0.534458,5.27035 2.177722,2.66008 1.275494,-1.50657 2.028305,-3.37727 3.151503,-4.99738 2.550747,-3.01301 4.056248,-6.75419 6.302476,-9.99422 1.871955,-3.0231 3.720599,-6.11805 6.184262,-8.7011 3.744026,-6.04638 7.44139,-12.23651 12.368867,-17.40276 2.089921,-1.41484 0.180556,2.63126 -0.115221,3.61444 4.17897,-2.82876 0.360201,5.26317 -0.23159,7.22964 -1.082998,2.7749 -2.436894,5.46616 -3.165143,8.36267 -2.165861,5.54933 -4.873427,10.93142 -6.329778,16.72399 -0.951648,1.88391 1.021601,3.1137 2.488945,1.86669 -1.903651,3.76796 2.043059,6.22771 4.977896,3.73355 0.986713,-0.86065 3.526247,-1.36881 2.897954,-3.01763 1.973165,-1.72155 7.052928,-2.73785 5.796262,-6.03574 -0.03928,-0.91497 -0.950204,0.36701 -1.430139,0.46346 -0.0784,-1.83055 -1.900463,0.73376 -2.860442,0.9267 -0.818721,0.70642 -2.562698,1.3514 -1.792624,-0.54332 -1.637299,1.41289 -5.125757,2.70319 -3.585497,-1.08654 1.089566,-3.63636 2.826448,-7.01959 4.29071,-10.50832 2.179153,-7.27293 5.653006,-14.03954 8.581601,-21.01718 0.437487,-1.11697 0.77665,-3.43458 -1.050485,-3.17804 0.874984,-2.23377 1.553548,-6.86957 -2.101012,-6.35646 -2.216769,0.35249 -3.39373,2.55649 -4.769268,4.09445 -4.433843,0.70482 -6.787867,5.11306 -9.539068,8.18914 -1.386757,1.97711 -2.717069,3.99987 -3.914631,6.09832 -2.77357,3.95423 -5.434248,7.99978 -7.829411,12.19669 1.156126,-3.23226 2.666881,-6.36956 3.359543,-9.7433 2.312284,-6.46482 5.333941,-12.73966 6.719313,-19.48742 0.04113,-0.59652 -0.568678,-0.61597 -0.991162,-0.59577 0.08259,-1.19348 -1.137222,-1.2324 -1.982293,-1.19199 m 41.102571,0 m 82.20515,0 c -2.55104,-0.064 -2.34938,3.00904 -3.03443,4.75534 -1.27524,-0.0318 -1.1744,1.50458 -1.51687,2.37767 -2.68357,8.86901 -5.81427,17.60905 -9.4314,26.15606 -1.34176,4.4344 -2.90708,8.80432 -4.71561,13.07772 -1.3128,1.881 -0.53495,5.27097 2.17736,2.6606 -0.65621,0.9405 -0.26723,2.63517 1.08886,1.33004 2.55113,-3.01286 4.05634,-6.75428 6.30266,-9.99435 1.27547,-1.50638 2.02805,-3.37701 3.15115,-4.99697 3.74398,-6.0466 7.442,-12.23646 12.36933,-17.40304 1.87191,-3.02317 3.72085,-6.11794 6.18441,-8.7011 4.17963,-2.82952 0.36077,5.26281 -0.23128,7.22926 2.08948,-1.41437 0.18012,2.6316 -0.11592,3.61482 -2.16561,5.54961 -4.87357,10.93181 -6.32969,16.72458 -1.08277,2.77467 -2.43668,5.46566 -3.1647,8.36191 -1.904,3.76815 2.0426,6.22792 4.97744,3.73389 -0.95178,1.88395 1.02146,3.11369 2.48885,1.86668 1.97329,-1.72151 7.05326,-2.73778 5.79665,-6.03573 0.98675,-0.86063 3.52635,-1.36878 2.89806,-3.01763 -0.0784,-1.83069 -1.90071,0.73344 -2.86065,0.92641 -0.0393,-0.915 -0.95037,0.36695 -1.43031,0.46345 -1.63736,1.41298 -5.12589,2.70338 -3.58569,-1.08624 -0.81872,0.70642 -2.5627,1.3514 -1.79262,-0.54332 2.17989,-7.27267 5.6524,-14.03985 8.58191,-21.01715 1.08994,-3.63624 2.82616,-7.01975 4.29088,-10.50832 0.87437,-2.23413 1.55391,-6.8699 -2.10107,-6.35669 0.43713,-1.11711 0.77674,-3.43466 -1.05066,-3.17804 -4.43387,0.70477 -6.78792,5.11296 -9.53914,8.18899 -2.21677,0.35249 -3.39373,2.55649 -4.76927,4.09445 -2.77365,3.95439 -5.4344,8.0001 -7.82965,12.19717 -1.38675,1.97711 -2.71707,3.99988 -3.91463,6.09832 2.31234,-6.46486 5.33392,-12.7398 6.7197,-19.48749 1.15614,-3.23228 2.66684,-6.36961 3.35969,-9.74331 0.0824,-1.19334 -1.13717,-1.23257 -1.98222,-1.1922 0.041,-0.59643 -0.56866,-0.616 -0.99114,-0.59578 0,0 0,0 0,0 m -24.16321,0.73088 m -48.326422,1.46175 c 3.71684,1.16965 0.77823,5.9913 -0.46546,8.39834 1.85813,0.58491 0.38887,2.99561 -0.232996,4.19909 -2.505813,4.97993 -6.96436,8.63056 -11.655703,11.47704 -1.252908,2.48981 -3.482099,4.31502 -5.827679,5.73818 0.949898,-7.31193 4.367833,-14.53027 10.165624,-19.19741 0.474975,-3.65588 2.183932,-7.26495 5.082779,-9.59846 0.58624,-0.37127 1.24712,-0.67348 1.955834,-0.67799 0.293035,-0.18555 0.623371,-0.33656 0.977601,-0.33879"
       style="font-style:normal;font-variant:normal;font-weight:normal;font-stretch:normal;font-size:medium;line-height:1.25;font-family:UnPilgia;-inkscape-font-specification:UnPilgia;font-variant-ligatures:normal;font-variant-caps:normal;font-variant-numeric:normal;text-align:start;letter-spacing:0px;word-spacing:0px;writing-mode:lr-tb;text-anchor:start;opacity:1;fill:#ffb8d4;fill-opacity:1;stroke:#ffb8d4;stroke-width:2;stroke-miterlimit:4;stroke-dasharray:none;stroke-opacity:1;filter:url(#filter1115)"
       id="path848" />
    <path
       inkscape:connector-curvature="0"
       d="m 97.702268,99.399282 c -9.239939,0.607958 -15.489948,9.031668 -20.00026,16.249218 -5.5e-5,9e-5 -1.09e-4,1.9e-4 -1.64e-4,2.8e-4 -5.359509,9.19596 -10.16607,19.68528 -9.14627,30.57513 8e-6,8e-5 1.7e-5,1.5e-4 2.5e-5,2.3e-4 0.816172,7.44742 9.01103,11.36228 15.795528,9.65013 7.2e-5,-1e-5 1.45e-4,-3e-5 2.17e-4,-4e-5 7.114054,-1.35829 13.819094,-4.54757 19.727266,-8.68614 -1e-5,-9e-5 -2e-5,-1.8e-4 -3e-5,-2.6e-4 -0.24348,-2.1592 0.0997,-5.38578 -2.65675,-2.97296 -1.4e-4,7e-5 -2.7e-4,1.3e-4 -4.1e-4,2e-4 -6.660162,3.24747 -14.430853,6.21685 -21.776296,3.63023 -1.31e-4,-6e-5 -2.62e-4,-1.3e-4 -3.93e-4,-1.9e-4 -3.215959,-1.57882 -5.881576,-7.72839 -1.280648,-9.0911 1.08e-4,-8e-5 2.17e-4,-1.5e-4 3.25e-4,-2.3e-4 10.66444,-7.40782 21.938642,-16.12193 25.484982,-29.22625 6e-5,-1.8e-4 1.1e-4,-3.6e-4 1.7e-4,-5.4e-4 1.37505,-4.38929 -0.60194,-10.644146 -6.147292,-10.127708 0,0 0,0 0,0 m 27.658592,0.950158 m 13.8293,0.47508 c -2.80907,0.7937 -4.59604,3.38446 -6.33344,5.5563 -5.6175,1.58748 -9.19099,6.76872 -12.66533,11.11216 -1.96833,2.61748 -3.43697,5.80658 -3.45525,9.12237 -3.93625,5.23461 -6.87311,11.61236 -6.90943,18.24349 -0.0193,2.14673 2.05324,4.26452 4.23949,3.13967 -0.0389,4.2936 4.10636,8.5295 8.47899,6.27973 3.39059,-1.64499 5.16541,-5.2229 6.86122,-8.39799 6.78078,-3.28994 10.33015,-10.44554 13.72152,-16.79553 1.1447,-2.317 1.85158,-4.836 2.24013,-7.38145 2.28915,-4.6336 3.7027,-9.67118 4.47964,-14.76164 -1.53746,-1.16602 -3.94109,1.94457 -3.63643,3.73552 -3.07475,-2.33131 -7.88151,3.88975 -7.27202,7.47169 -0.0352,3.61299 -1.72406,7.29009 -4.59905,9.49993 -0.0707,7.22536 -3.44841,14.57887 -9.19826,18.99801 -2.07526,1.50592 -3.28412,-1.22126 -2.5246,-2.96533 -4.15076,3.01246 -6.56867,-2.44213 -5.04958,-5.93039 0.96681,-3.49588 2.5637,-6.96234 5.22753,-9.48319 1.93356,-6.99119 5.12723,-13.92347 10.45466,-18.96466 0.74708,-1.1102 1.78038,0.15598 2.55519,-0.44066 1.49425,-2.22116 3.56108,0.31154 5.11086,-0.88187 0.55655,-0.42446 1.5867,-1.38685 0.68526,-1.95923 1.1129,-0.84883 3.17385,-2.774 1.37065,-3.91896 -0.3701,-0.25651 -0.79938,-0.4605 -1.2604,-0.42586 -0.74032,-0.51321 -1.59908,-0.92139 -2.52135,-0.85211 m -31.89882,0.69401 m -63.797655,1.38803 c -2.551063,-0.0638 -2.349262,3.00899 -3.034116,4.75533 -1.275246,-0.0317 -1.17434,1.50455 -1.516707,2.37767 -2.683715,8.86905 -5.814496,17.60886 -9.431373,26.15606 -1.341833,4.43443 -2.907193,8.80422 -4.715594,13.07773 -1.312805,1.881 -0.534945,5.27097 2.177361,2.6606 -0.656215,0.9405 -0.267229,2.63517 1.088861,1.33004 2.55087,-3.01301 4.056377,-6.75427 6.302655,-9.99435 1.27546,-1.50664 2.028296,-3.37737 3.151496,-4.99752 3.743908,-6.04621 7.441197,-12.23611 12.368524,-17.40221 1.872012,-3.02319 3.720695,-6.11825 6.184433,-8.70138 4.17965,-2.82956 0.36073,5.26277 -0.231016,7.22926 2.089485,-1.41438 0.180101,2.63159 -0.115795,3.61482 -2.165898,5.54954 -4.873589,10.9318 -6.329988,16.72458 -1.082974,2.77475 -2.436801,5.46588 -3.16502,8.36225 -1.903296,3.76782 2.043203,6.2274 4.977889,3.73337 -0.951735,1.8839 1.021711,3.1137 2.489219,1.86654 1.973426,-1.7213 7.052495,-2.73762 5.795908,-6.03525 0.986579,-0.86086 3.526457,-1.3691 2.898121,-3.01813 -0.07856,-1.82993 -1.900407,0.73402 -2.860278,0.92691 -0.03928,-0.9152 -0.950381,0.36701 -1.430446,0.46355 -1.637442,1.41284 -5.125397,2.7028 -3.585247,-1.08663 -0.818625,0.70636 -2.562829,1.35142 -1.792674,-0.54352 2.179132,-7.27274 5.652897,-14.03918 8.581421,-21.01665 1.089616,-3.63657 2.826582,-7.01998 4.29092,-10.5089 0.874974,-2.23394 1.5533,-6.86915 -2.100969,-6.35608 0.43739,-1.11687 0.77657,-3.43475 -1.050811,-3.17818 -4.433538,0.70497 -6.787461,5.11297 -9.538535,8.1889 -2.216985,0.3525 -3.394061,2.55671 -4.769725,4.09484 -2.773513,3.95422 -5.434137,7.99975 -7.829263,12.19663 -1.386731,1.97697 -2.717018,3.9996 -3.914546,6.09791 2.312251,-6.46454 5.333762,-12.73913 6.719086,-19.48661 1.156149,-3.23252 2.666986,-6.37005 3.359679,-9.74404 0.08226,-1.19305 -1.137356,-1.23195 -1.982323,-1.19155 0.04129,-0.59674 -0.568612,-0.61619 -0.991147,-0.59599 m 82.205145,0 m 41.10257,0 c -1.27564,-0.032 -1.17492,1.50452 -1.51757,2.37766 -2.55047,-0.0636 -2.34879,3.00916 -3.03373,4.75535 -1.34181,4.43461 -2.9072,8.80473 -4.71579,13.07833 -2.68352,8.86881 -5.81416,17.60864 -9.43122,26.15545 -0.65646,0.94058 -0.26759,2.63566 1.0885,1.33056 -1.31243,1.88101 -0.53446,5.27035 2.17772,2.66008 1.27562,-1.5065 2.02829,-3.37728 3.1515,-4.99738 2.55096,-3.01277 4.05611,-6.75402 6.30231,-9.99394 1.87208,-3.02344 3.72117,-6.11851 6.18492,-8.70193 3.74381,-6.04634 7.4417,-12.23589 12.36882,-17.40221 2.08991,-1.41483 0.18058,2.63127 -0.11535,3.61443 4.17895,-2.82872 0.36024,5.26322 -0.23185,7.22965 -1.08285,2.77493 -2.43689,5.46616 -3.16499,8.36267 -2.16555,5.54934 -4.87336,10.93131 -6.3294,16.72382 -0.95204,1.88416 1.02121,3.11413 2.48859,1.8672 -1.90355,3.7679 2.04292,6.22738 4.9777,3.73337 0.98674,-0.86083 3.52681,-1.36905 2.8986,-3.0181 1.97349,-1.72126 7.0527,-2.73757 5.79611,-6.03526 -0.0392,-0.91543 -0.95036,0.36655 -1.43033,0.46295 -0.0786,-1.82998 -1.90076,0.7339 -2.86063,0.92691 -0.81876,0.70656 -2.56309,1.35182 -1.79307,-0.54293 -1.63744,1.41284 -5.12539,2.7028 -3.58524,-1.08663 1.08997,-3.63642 2.82625,-7.02009 4.29103,-10.50882 2.17988,-7.2725 5.65231,-14.03952 8.58176,-21.01665 0.43723,-1.11717 0.77704,-3.43516 -1.05042,-3.17865 0.87427,-2.23423 1.55348,-6.86933 -2.10131,-6.35608 -2.21704,0.3524 -3.39416,2.55651 -4.76988,4.09454 -4.43353,0.70497 -6.78745,5.11297 -9.53853,8.1889 -1.38689,1.97729 -2.71733,4.00023 -3.91501,6.09886 -2.77352,3.95422 -5.43414,7.99974 -7.82927,12.19663 1.15622,-3.23258 2.66707,-6.3702 3.36001,-9.74419 2.31227,-6.46456 5.33368,-12.73922 6.71938,-19.48661 0.0412,-0.59678 -0.56857,-0.6165 -0.99109,-0.59643 0.0821,-1.19285 -1.13731,-1.23199 -1.98227,-1.19155 0,0 0,0 0,0 m -48.32642,1.46175 m -24.163212,0.73088 c 1.8585,0.58485 0.38929,2.9957 -0.23248,4.19925 3.71626,1.16981 0.77775,5.99123 -0.46597,8.39818 -1.252964,2.49008 -3.482295,4.31551 -5.828023,5.73886 -2.505818,4.97962 -6.964198,8.63004 -11.655359,11.47636 0.47496,-3.65605 2.183938,-7.2653 5.082844,-9.59896 0.949952,-7.31176 4.367864,-14.52989 10.165559,-19.19691 0.293227,-0.1857 0.623775,-0.33688 0.978239,-0.3392 0.586061,-0.3711 1.24672,-0.67312 1.95519,-0.67758"
       style="font-style:normal;font-variant:normal;font-weight:normal;font-stretch:normal;font-size:medium;line-height:1.25;font-family:UnPilgia;-inkscape-font-specification:UnPilgia;font-variant-ligatures:normal;font-variant-caps:normal;font-variant-numeric:normal;text-align:start;letter-spacing:0px;word-spacing:0px;writing-mode:lr-tb;text-anchor:start;opacity:1;fill:#ff71a9;fill-opacity:1;stroke:#ff71a9;stroke-width:4;stroke-miterlimit:4;stroke-dasharray:none;stroke-opacity:1;filter:url(#filter1103)"
       id="path850" />
    <path
       inkscape:connector-curvature="0"
       id="path1141"
       d="m 97.512068,107.45544 c -9.239942,0.55578 -15.489951,8.25653 -20.000263,14.85464 -5.359575,8.40678 -10.166244,17.99595 -9.146434,27.95128 0.81603,6.80839 9.010986,10.38735 15.795553,8.82212 7.114135,-1.24168 13.819254,-4.15727 19.727486,-7.94069 -0.24354,-1.97388 0.0998,-4.92387 -2.65678,-2.71804 -6.660252,2.96883 -14.431117,5.68352 -21.776709,3.31885 -3.216135,-1.44304 -5.882156,-7.06522 -1.281041,-8.31103 10.664536,-6.7721 21.93893,-14.73837 25.48531,-26.71813 1.37538,-4.01261 -0.60154,-9.73113 -6.147122,-9.259 z m 41.487892,1.30292 c -8.4267,2.17662 -13.7871,9.28172 -18.99877,15.2379 -5.90464,7.17806 -10.31019,15.92381 -10.36468,25.01701 -0.0583,5.88765 6.15953,11.69619 12.71848,8.61116 10.17147,-4.51128 15.49561,-14.32365 20.58274,-23.03129 3.4339,-6.35404 5.55432,-13.26209 6.71977,-20.24267 -4.6121,-3.19765 -11.82272,5.33343 -10.90845,10.24536 -0.10565,9.9081 -5.17218,19.99206 -13.79712,26.05198 -6.22614,4.13088 -9.85301,-3.34879 -7.57437,-8.13212 2.90025,-9.58696 7.69074,-19.09322 15.68205,-26.00614 2.24127,-3.04573 5.34142,0.42734 7.66599,-1.20906 1.66949,-1.16389 4.76104,-3.80371 2.05638,-5.37367 -1.11048,-0.70373 -2.39861,-1.26347 -3.78202,-1.16846 z m -95.696478,1.90335 c -3.826478,-0.0875 -3.52366,4.12612 -4.550823,6.52081 -4.025542,12.16172 -8.721682,24.14619 -14.146967,35.86657 -1.969147,2.57926 -0.802297,7.22772 3.266222,3.64814 3.826247,-4.13156 6.084448,-9.26176 9.453808,-13.70469 5.616038,-8.29118 11.162085,-16.77947 18.5533,-23.86376 6.269379,-3.88001 0.540903,7.21676 -0.346811,9.91339 -3.248797,7.60976 -7.310284,14.99014 -9.494834,22.93345 -2.855566,5.16693 3.064409,8.53998 7.466573,5.1199 2.959751,-2.36062 10.579399,-3.75416 8.694404,-8.27636 -0.117531,-2.51021 -2.850544,1.00606 -4.290438,1.27058 -2.455974,1.93751 -7.688686,3.70692 -5.378321,-1.48971 3.268689,-9.973 8.479428,-19.25172 12.872281,-28.8198 1.312577,-3.0631 2.330524,-9.42002 -3.151214,-8.71642 -6.650701,0.96641 -10.181674,7.01118 -14.308412,11.22922 -4.160407,5.42243 -8.151477,10.97008 -11.744275,16.72528 3.468418,-8.86486 8.000897,-17.46922 10.078947,-26.72207 0.123881,-1.63658 -1.705834,-1.68994 -2.97344,-1.63453 z m 123.307718,0 c -3.82645,-0.0878 -3.52383,4.1262 -4.5513,6.52082 -4.02532,12.16166 -8.72134,24.14645 -14.14701,35.86656 -1.96914,2.57926 -0.8023,7.22772 3.26622,3.64814 3.82664,-4.13136 6.0844,-9.26177 9.45381,-13.70469 5.61589,-8.29136 11.16283,-16.77916 18.55374,-23.86376 6.26935,-3.87997 0.54096,7.21681 -0.3472,9.91339 -3.24836,7.60985 -7.31026,14.99015 -9.49439,22.93345 -2.85595,5.16704 3.06398,8.53995 7.46629,5.1199 2.95985,-2.36057 10.57971,-3.75408 8.69471,-8.27636 -0.11761,-2.51028 -2.85106,1.0059 -4.29096,1.27058 -2.45597,1.93751 -7.68868,3.70692 -5.37831,-1.48971 3.26981,-9.97267 8.47855,-19.25217 12.87279,-28.8198 1.31152,-3.0635 2.33079,-9.42026 -3.15173,-8.71642 -6.6507,0.96641 -10.18167,7.01118 -14.30841,11.22922 -4.16041,5.42243 -8.15148,10.97008 -11.74428,16.72528 3.46845,-8.86489 8.00078,-17.46935 10.07939,-26.72207 0.12357,-1.63629 -1.70577,-1.68998 -2.97336,-1.63453 z m -72.489632,2.00445 c 5.57517,1.60387 1.16718,8.21559 -0.698453,11.51626 -3.758662,6.82869 -10.446426,11.83456 -17.483382,15.73773 1.424836,-10.0265 6.551728,-19.92467 15.248403,-26.32448 0.879252,-0.50904 1.870466,-0.92339 2.933432,-0.92951 z"
       style="font-style:normal;font-variant:normal;font-weight:normal;font-stretch:normal;font-size:medium;line-height:1.25;font-family:UnPilgia;-inkscape-font-specification:UnPilgia;font-variant-ligatures:normal;font-variant-caps:normal;font-variant-numeric:normal;text-align:start;letter-spacing:0px;word-spacing:0px;writing-mode:lr-tb;text-anchor:start;opacity:0.52999998;fill:#000000;fill-opacity:1;stroke:none;stroke-width:0.26458329" />
    <path
       style="font-style:normal;font-variant:normal;font-weight:normal;font-stretch:normal;font-size:medium;line-height:1.25;font-family:UnPilgia;-inkscape-font-specification:UnPilgia;font-variant-ligatures:normal;font-variant-caps:normal;font-variant-numeric:normal;text-align:start;letter-spacing:0px;word-spacing:0px;writing-mode:lr-tb;text-anchor:start;fill:#ffffff;fill-opacity:1;stroke:none;stroke-width:0.26458329;opacity:1"
       d="m 97.512068,99.399281 c -9.239942,0.607959 -15.489951,9.031669 -20.000263,16.249219 -5.359575,9.19603 -10.166244,19.68545 -9.146434,30.57541 0.81603,7.44757 9.010986,11.36253 15.795553,9.65036 7.114135,-1.35826 13.819254,-4.54757 19.727486,-8.68618 -0.24354,-2.1592 0.0998,-5.38614 -2.65678,-2.97322 -6.660252,3.24755 -14.431117,6.2171 -21.776709,3.63043 -3.216135,-1.57851 -5.882156,-7.72852 -1.281041,-9.09129 10.664536,-7.40787 21.93893,-16.12203 25.48531,-29.22648 1.37538,-4.38932 -0.60154,-10.644708 -6.147122,-10.128249 z m 41.487892,1.425239 c -8.4267,2.38096 -13.7871,10.1531 -18.99877,16.66846 -5.90464,7.85196 -10.31019,17.41877 -10.36468,27.36566 -0.0583,6.4404 6.15953,12.79425 12.71848,9.4196 10.17147,-4.93481 15.49561,-15.66839 20.58274,-25.19352 3.4339,-6.95057 5.55432,-14.50716 6.71977,-22.14309 -4.6121,-3.49786 -11.82272,5.83414 -10.90845,11.20721 -0.10565,10.8383 -5.17218,21.86896 -13.79712,28.4978 -6.22614,4.51869 -9.85301,-3.66319 -7.57437,-8.89558 2.90025,-10.48701 7.69074,-20.88573 15.68205,-28.44765 2.24127,-3.33167 5.34142,0.46746 7.66599,-1.32257 1.66949,-1.27316 4.76104,-4.16081 2.05638,-5.87816 -1.11048,-0.7698 -2.39861,-1.38209 -3.78202,-1.27816 z m -95.696478,2.08204 c -3.826478,-0.0957 -3.52366,4.51349 -4.550823,7.133 -4.025542,13.30348 -8.721682,26.41308 -14.146967,39.23379 -1.969147,2.82141 -0.802297,7.90628 3.266222,3.99064 3.826247,-4.51944 6.084448,-10.13127 9.453808,-14.99132 5.616038,-9.06957 11.162085,-18.35476 18.5533,-26.10414 6.269379,-4.24427 0.540903,7.89429 -0.346811,10.84408 -3.248797,8.32418 -7.310284,16.39745 -9.494834,25.08649 -2.855566,5.65202 3.064409,9.34173 7.466573,5.60057 2.959751,-2.58224 10.579399,-4.10661 8.694404,-9.05336 -0.117531,-2.74588 -2.850544,1.10051 -4.290438,1.38986 -2.455974,2.11941 -7.688686,4.05494 -5.378321,-1.62956 3.268689,-10.90929 8.479428,-21.05911 12.872281,-31.52547 1.312577,-3.35067 2.330524,-10.30439 -3.151214,-9.53473 -6.650701,1.05714 -10.181674,7.6694 -14.308412,12.28344 -4.160407,5.9315 -8.151477,11.99997 -11.744275,18.29549 3.468418,-9.69712 8.000897,-19.10927 10.078947,-29.2308 0.123881,-1.79022 -1.705834,-1.84859 -2.97344,-1.78798 z m 123.307718,0 c -3.82645,-0.096 -3.52383,4.51357 -4.5513,7.13301 -4.02532,13.30342 -8.72134,26.41337 -14.14701,39.23378 -1.96914,2.82141 -0.8023,7.90628 3.26622,3.99064 3.82664,-4.51922 6.0844,-10.13129 9.45381,-14.99132 5.61589,-9.06977 11.16283,-18.35442 18.55374,-26.10414 6.26935,-4.24422 0.54096,7.89434 -0.3472,10.84408 -3.24836,8.32428 -7.31026,16.39746 -9.49439,25.08649 -2.85595,5.65214 3.06398,9.3417 7.46629,5.60057 2.95985,-2.58218 10.57971,-4.10652 8.69471,-9.05336 -0.11761,-2.74595 -2.85106,1.10033 -4.29096,1.38986 -2.45597,2.11941 -7.68868,4.05494 -5.37831,-1.62956 3.26981,-10.90893 8.47855,-21.05961 12.87279,-31.52547 1.31152,-3.3511 2.33079,-10.30465 -3.15173,-9.53473 -6.6507,1.05714 -10.18167,7.6694 -14.30841,12.28344 -4.16041,5.9315 -8.15148,11.99997 -11.74428,18.29549 3.46845,-9.69715 8.00078,-19.10941 10.07939,-29.2308 0.12357,-1.78991 -1.70577,-1.84864 -2.97336,-1.78798 z m -72.489632,2.19263 c 5.57517,1.75444 1.16718,8.98689 -0.698453,12.59743 -3.758662,7.46978 -10.446426,12.94561 -17.483382,17.21522 1.424836,-10.96781 6.551728,-21.79524 15.248403,-28.79587 0.879252,-0.55684 1.870466,-1.01009 2.933432,-1.01678 z"
       id="path840"
       inkscape:connector-curvature="0" />
  </g>
</svg>
