<?xml version="1.0" encoding="UTF-8" standalone="no"?>
<!-- Created with Inkscape (http://www.inkscape.org/) -->

<svg
   xmlns:dc="http://purl.org/dc/elements/1.1/"
   xmlns:cc="http://creativecommons.org/ns#"
   xmlns:rdf="http://www.w3.org/1999/02/22-rdf-syntax-ns#"
   xmlns:svg="http://www.w3.org/2000/svg"
   xmlns="http://www.w3.org/2000/svg"
   xmlns:sodipodi="http://sodipodi.sourceforge.net/DTD/sodipodi-0.dtd"
   xmlns:inkscape="http://www.inkscape.org/namespaces/inkscape"
   width="192.7234mm"
   height="199.91844mm"
   viewBox="0 0 192.7234 199.91844"
   version="1.1"
   id="svg8"
   inkscape:export-filename="/home/benedikt/ChalkAndSponge.png"
   inkscape:export-xdpi="203.2"
   inkscape:export-ydpi="203.2"
   inkscape:version="0.92.3 (2405546, 2018-03-11)"
   sodipodi:docname="39 - Distressed Text Effect.svg">
  <sodipodi:namedview
     id="base"
     pagecolor="#ffffff"
     bordercolor="#666666"
     borderopacity="1.0"
     inkscape:pageopacity="0.0"
     inkscape:pageshadow="2"
     inkscape:zoom="0.54176587"
     inkscape:cx="227.7496"
     inkscape:cy="400.17291"
     inkscape:document-units="mm"
     inkscape:current-layer="layer1"
     showgrid="false"
     inkscape:window-width="956"
     inkscape:window-height="1015"
     inkscape:window-x="960"
     inkscape:window-y="0"
     inkscape:window-maximized="0"
     inkscape:snap-global="false"
     fit-margin-top="0"
     fit-margin-left="0"
     fit-margin-right="0"
     fit-margin-bottom="0" />
  <defs
     id="defs2">
    <filter
       inkscape:label="Chalk and Sponge"
       inkscape:menu="Distort"
       inkscape:menu-tooltip="Low turbulence gives sponge look and high turbulence chalk"
       width="1.6"
       height="2"
       y="-0.5"
       x="-0.30000001"
       style="color-interpolation-filters:sRGB"
       id="filter3012">
      <feTurbulence
         baseFrequency="0.4"
         type="fractalNoise"
         seed="0"
         numOctaves="5"
         result="result1"
         id="feTurbulence3008" />
      <feDisplacementMap
         xChannelSelector="R"
         yChannelSelector="G"
         scale="30"
         in="SourceGraphic"
         in2="result1"
         id="feDisplacementMap3010" />
    </filter>
  </defs>
  <metadata
     id="metadata5">
    <rdf:RDF>
      <cc:Work
         rdf:about="">
        <dc:format>image/svg+xml</dc:format>
        <dc:type
           rdf:resource="http://purl.org/dc/dcmitype/StillImage" />
        <dc:title></dc:title>
      </cc:Work>
    </rdf:RDF>
  </metadata>
  <g
     id="layer1"
     inkscape:groupmode="layer"
     inkscape:label="Ebene 1"
     transform="translate(-30.200493,-39.788997)">
    <path
       style="font-style:normal;font-variant:normal;font-weight:bold;font-stretch:normal;font-size:medium;line-height:1.25;font-family:'Noto Serif';-inkscape-font-specification:'Noto Serif Bold';font-variant-ligatures:normal;font-variant-caps:normal;font-variant-numeric:normal;text-align:start;letter-spacing:0px;word-spacing:0px;writing-mode:lr-tb;text-anchor:start;opacity:1;fill:#000000;fill-opacity:1;stroke:none;stroke-width:0.26458332"
       d="m 31.46906,39.788997 -0.8084,14.706734 7.269412,0.945195 c 3.882974,0 13.923092,4.054028 16.696642,6.08789 2.773548,1.849131 2.375461,1.869416 2.375461,9.265602 l -6.17496,33.467912 8.059159,37.98869 1.256139,31.99414 -1.77227,32.48542 c 0,7.95091 -1.853003,9.19047 -4.626557,11.22435 -2.588648,2.03415 -3.866916,7.75446 -7.934792,7.75446 l -13.077481,0.21789 -1.48,4.75095 -1.05092,5.98211 96.722367,3.0471 c 21.4488,0 37.41027,-0.90462 52.01763,-9.59513 14.60738,-8.69045 23.72742,-25.84434 31.12354,-41.19125 7.39616,-15.34707 12.85986,-30.00551 12.85986,-50.3449 0,-31.43357 -9.13475,-55.879932 -26.51563,-71.96655 C 179.02731,50.523106 153.92303,40.000658 123.22907,40.000658 Z m 106.02523,8.314154 c 1.27614,0.150974 2.55047,0.330294 3.8244,0.528574 0.86461,0.786627 1.78993,1.804566 2.73612,3.071938 1.36112,1.823004 2.04274,3.153824 2.00232,4.1166 -3.4557,-1.456638 -7.14369,-2.490832 -11.01915,-3.096758 1.42605,-2.068163 2.43765,-3.868306 2.43765,-4.514635 0,-0.04609 0.0168,-0.06345 0.019,-0.105439 z m -50.873452,9.203347 34.369582,1.498664 c 18.86015,0 31.16585,5.718407 40.78086,18.661667 9.79986,12.943219 12.91577,27.964441 12.91577,54.405551 0,26.44122 -5.76499,50.56907 -15.56486,65.91597 -9.615,15.16212 -24.94453,23.75468 -43.98958,23.75468 l -12.05765,-2.19515 z M 186.99344,75.134902 c 1.4137,-0.110664 2.42526,3.155281 2.42526,9.184726 0,7.07401 -0.60162,9.41073 -2.86051,11.06266 -2.08292,1.52347 -2.36773,2.3999 -1.03852,3.22121 1.0048,0.62086 2.44601,2.754862 3.20253,4.744682 0.7569,1.98984 2.37898,3.61918 3.60052,3.61918 1.22151,0 2.83368,1.10245 3.58804,2.45011 1.61004,2.87675 -5.40928,9.77644 -14.11598,14.33355 -0.0646,-1.54651 -0.12223,-3.09007 -0.22364,-4.63278 0.5424,-0.79435 0.6944,-1.73373 0.24266,-2.77341 -0.20579,-0.47438 -0.43865,-1.40599 -0.66535,-2.24489 -0.42942,-4.69718 -0.95714,-9.378 -1.70387,-14.00404 a 7.2711016,7.2711016 0 0 0 -0.0231,-0.167772 c -0.65388,-3.5767 -1.66727,-7.12486 -2.94753,-10.59629 1.77224,-3.57024 3.85337,-6.45484 4.68871,-6.45484 0.8592,0 2.20396,-1.69177 2.99111,-3.76217 0.99984,-2.629771 1.99363,-3.913434 2.84182,-3.979776 z M 74.420164,77.143478 c 1.157286,-0.159744 2.461253,0.410389 4.912596,1.57947 0.970295,0.46287 1.650197,0.84237 2.282193,1.23128 l 1.517307,14.98037 c -0.192178,0.84963 -0.393407,1.59423 -0.596968,2.05831 -0.730437,1.66386 -0.492669,4.890552 0.578307,7.853962 1.331641,3.68234 1.379845,5.85581 0.180458,8.09644 -2.236416,4.17888 -3.981303,3.85827 -9.01059,-1.6479 -2.981783,-3.26467 -4.535069,-6.84438 -5.07428,-11.672102 -0.427185,-3.82871 -1.222546,-8.99238 -1.759834,-11.47931 -0.788195,-3.65065 -0.22618,-5.22529 2.916467,-8.17732 1.881751,-1.767863 2.897189,-2.663251 4.054456,-2.8232 z M 71.29226,117.61963 c 2.71257,0.12914 4.874227,2.96501 5.428741,7.99696 0.438008,3.97211 0.02127,5.44115 -1.535969,5.44115 -1.17326,0 -2.520653,-1.0157 -2.997309,-2.25728 -0.476508,-1.24223 -2.203498,-2.25729 -3.836806,-2.25729 -4.306673,0 -5.346364,-2.76072 -2.307069,-6.11902 1.795459,-1.984 3.620871,-2.88181 5.248412,-2.80452 z m 130.40792,14.94301 c 4.7234,0 10.85447,0.82474 13.63092,1.82827 0.0883,0.0345 0.17299,0.0403 0.26111,0.0687 0.0577,3.56034 -0.10898,7.11996 -0.37293,10.67094 -2.04303,-0.4738 -4.74692,-0.81486 -7.48707,-0.83948 -9.02955,-0.0842 -13.99619,2.56895 -18.28856,9.76303 -2.81208,4.71309 -7.3168,8.06377 -10.07396,7.95345 0.27207,-1.51406 0.53031,-3.03182 0.75868,-4.55193 1.30159,-1.48431 2.85641,-3.92761 4.06065,-6.57915 1.75293,-3.85967 3.81781,-8.03595 4.58928,-9.278 0.77134,-1.24221 2.06107,-3.78321 2.86672,-5.64641 1.27369,-2.94616 2.58705,-3.38907 10.05527,-3.38907 z m -130.99246,1.56081 c 2.698629,0.12037 9.8789,7.22549 8.898657,8.8116 -1.326808,2.14697 -8.784074,2.17244 -10.919661,0.0345 -1.161466,-1.16146 -1.899293,-1.16602 -2.617974,-0.0345 -0.101333,-1.07794 -0.2323,-2.16459 -0.379336,-3.25846 1.492991,0.14761 2.439456,-0.60345 2.928896,-2.47493 0.451277,-1.72296 1.390743,-3.10801 2.089418,-3.07821 z m 143.31753,21.27973 c -0.13381,0.83291 -0.20982,1.6773 -0.36084,2.50601 -3.11994,13.18606 -8.59522,25.93254 -15.37832,38.06957 -4.4043,2.29164 -7.50649,1.06187 -14.8622,-5.52818 l -7.50575,-6.72224 9.35886,0.98255 c 8.29133,0.86641 9.97717,0.56489 14.74403,-2.62422 5.69882,-3.81256 11.23059,-13.68269 11.23059,-20.02974 0,-1.56928 1.14825,-4.22722 2.77346,-6.65375 z m -124.668272,0.83327 0.634273,6.23089 c -0.653234,-0.3689 -1.33013,-1.19328 -1.697635,-2.15158 -0.777371,-2.02573 -0.08584,-3.61219 1.063362,-4.07931 z m 1.579487,15.54622 0.435303,4.30315 c -0.199438,-0.20579 -0.397961,-0.39946 -0.603183,-0.64669 -1.048134,-1.26222 -1.497209,-2.70002 -1.001181,-3.19631 0.305604,-0.3055 0.720229,-0.42769 1.16908,-0.45998 z m 68.695625,37.29844 c 0.74912,1.34374 -0.0847,3.53134 -2.5309,6.64136 -1.62861,2.07054 -3.39658,6.45975 -3.92386,9.75682 -0.44038,2.75513 -0.57976,4.33675 -0.0287,5.67748 -1.00532,0.12335 -2.00499,0.29627 -3.01595,0.36659 a 7.2711016,7.2711016 0 0 0 -0.0933,0.0231 c -0.7581,0.0623 -1.52276,0.083 -2.2822,0.1366 -0.023,-0.43748 -0.11644,-0.94969 -0.29856,-1.62922 -0.49919,-1.86325 -0.91454,-4.74426 -0.92659,-6.40502 -0.004,-0.59705 -0.45134,-1.58918 -1.05713,-2.69882 5.35053,-3.17252 10.08449,-7.22608 14.15948,-11.87115 z m 28.67965,2.96622 c -1.22977,1.62671 -2.57707,3.15299 -4.01711,4.58929 0.29108,-2.29056 1.35549,-3.36786 4.01711,-4.58929 z M 84.419487,218.1166 c 2.03627,0.10264 3.370431,1.19855 3.370431,3.52592 0,1.45343 -1.691924,5.4547 -3.886557,9.43344 -2.088989,-0.0577 -4.158421,-0.15339 -6.255808,-0.18676 -3.6436,-0.11477 -7.288321,-0.22767 -10.93209,-0.34181 0.239038,-0.40809 0.469248,-0.83125 0.72133,-1.20636 4.6133,-6.86433 12.502901,-11.45083 16.982694,-11.22443 z"
       id="path819"
       inkscape:connector-curvature="0" />
  </g>
</svg>
