<?xml version="1.0" encoding="UTF-8" standalone="no"?>
<!-- Created with Inkscape (http://www.inkscape.org/) -->

<svg
   xmlns:dc="http://purl.org/dc/elements/1.1/"
   xmlns:cc="http://creativecommons.org/ns#"
   xmlns:rdf="http://www.w3.org/1999/02/22-rdf-syntax-ns#"
   xmlns:svg="http://www.w3.org/2000/svg"
   xmlns="http://www.w3.org/2000/svg"
   xmlns:sodipodi="http://sodipodi.sourceforge.net/DTD/sodipodi-0.dtd"
   xmlns:inkscape="http://www.inkscape.org/namespaces/inkscape"
   id="svg2"
   viewBox="0 0 695.77505 528.74811"
   version="1.0"
   sodipodi:docname="SeaSceneWithBoat.svg"
   width="695.77509"
   height="528.74811"
   inkscape:version="0.92.3 (2405546, 2018-03-11)">
  <sodipodi:namedview
     pagecolor="#ffffff"
     bordercolor="#666666"
     borderopacity="1"
     objecttolerance="10"
     gridtolerance="10"
     guidetolerance="10"
     inkscape:pageopacity="0"
     inkscape:pageshadow="2"
     inkscape:window-width="1920"
     inkscape:window-height="1015"
     id="namedview41"
     showgrid="false"
     fit-margin-top="0"
     fit-margin-left="0"
     fit-margin-right="0"
     fit-margin-bottom="0"
     inkscape:zoom="0.97589006"
     inkscape:cx="286.6832"
     inkscape:cy="201.14692"
     inkscape:window-x="0"
     inkscape:window-y="0"
     inkscape:window-maximized="1"
     inkscape:current-layer="svg2" />
  <defs
     id="defs4">
    <linearGradient
       id="linearGradient4234"
       y2="-1807.7"
       gradientUnits="userSpaceOnUse"
       x2="283.19"
       gradientTransform="matrix(0.94571,0,0,1.9663,67.246189,3781.3517)"
       y1="-1574.4"
       x1="283.19">
      <stop
         id="stop4230"
         style="stop-color:#3771c8"
         offset="0" />
      <stop
         id="stop6519"
         style="stop-color:#56b0ff"
         offset=".5" />
      <stop
         id="stop4232"
         style="stop-color:#cff0ff"
         offset="1" />
    </linearGradient>
    <filter
       id="filter7578"
       y="-0.14336"
       width="1.2825"
       x="-0.14127"
       height="1.2867">
      <feGaussianBlur
         id="feGaussianBlur7580"
         stdDeviation="5.143983"
         inkscape:collect="always" />
    </filter>
    <clipPath
       id="clipPath7584">
      <path
         id="path7586"
         style="color:#000000;fill:#ffe680;fill-rule:evenodd"
         d="m -346.64,823.56 a 71.761,72.37 0 0 1 72.44,-71.62 l -0.68,72.37 z"
         transform="matrix(1.2069,-0.0012531,-0.0012531,1.2814,57.905,-232.44)"
         inkscape:connector-curvature="0" />
    </clipPath>
    <linearGradient
       id="linearGradient8739"
       y2="846.90997"
       gradientUnits="userSpaceOnUse"
       x2="348.09"
       gradientTransform="matrix(0.93026,0,0,0.93026,148.50919,-400.20826)"
       y1="866.71997"
       x1="349.12">
      <stop
         id="stop8686"
         style="stop-color:#808080"
         offset="0" />
      <stop
         id="stop8688"
         style="stop-color:#ffffff"
         offset="1" />
    </linearGradient>
    <radialGradient
       id="radialGradient8743"
       gradientUnits="userSpaceOnUse"
       cy="714.31"
       cx="289.25"
       gradientTransform="matrix(0.7709,0.1612,-0.56051,2.6805,608.36919,-1690.8483)"
       r="41.924999">
      <stop
         id="stop8694"
         style="stop-color:#ffffff"
         offset="0" />
      <stop
         id="stop10690"
         style="stop-color:#ebebeb"
         offset=".5" />
      <stop
         id="stop8696"
         style="stop-color:#b3b3b3"
         offset="1" />
    </radialGradient>
  </defs>
  <g
     id="g910"
     transform="translate(13.321173,7.6637788)">
    <path
       id="rect846"
       d="M -13.321173,-7.6637788 H 682.45391 V 521.08433 H -13.321173 Z"
       style="opacity:1;fill:#803300;fill-opacity:1;stroke:none;stroke-width:3.7739737;stroke-linecap:round;stroke-linejoin:round;stroke-miterlimit:4;stroke-dasharray:none;stroke-dashoffset:0;stroke-opacity:1"
       inkscape:connector-curvature="0" />
    <path
       id="rect3257"
       d="M -0.23481129,1.5937423 V 512.1289 H 670.35503 V 1.5937423 Z"
       style="color:#000000;fill:url(#linearGradient4234);fill-rule:evenodd"
       inkscape:connector-curvature="0" />
    <path
       id="path6523"
       style="color:#000000;fill:#ffe680;fill-rule:evenodd;filter:url(#filter7578)"
       clip-path="url(#clipPath7584)"
       d="m -346.64,823.56 a 71.761,72.37 0 0 1 72.44,-71.62 l -0.68,72.37 z"
       transform="matrix(0.023058,-1.3717,-1.3717,-0.023058,1136.4392,-356.75826)"
       inkscape:connector-curvature="0" />
    <path
       id="path2160"
       d="m 22.730033,358.95116 c 7.082772,0.63989 14.40204,1.2913 18.908203,1.95117 1.476,0.21 3.027484,0.37852 4.646484,0.47852 -0.182,0 -0.354062,-0.0193 -0.539062,-0.0293 -10.414,-0.36 -29.4525,-1.19023 -45.56250054,-1.49023 -0.14545681,0.0776 -0.27801873,0.17531 -0.41796875,0.26172 v 10.44922 c 2.46444659,0.2442 3.72964839,0.49409 5.12499999,0.66992 -1.8153372,0.17748 -3.4963459,0.40383 -5.12499999,0.65039 v 9.86133 c 6.76129059,0.55797 13.75356329,0.99645 20.56250029,1.04687 19.328,0.14 -0.179547,-1.14969 18.314453,-1.42969 10.856,-0.16 26.609266,-0.44961 39.447266,-0.84961 -5.19,1.01 -1.230391,3.15977 5.599609,4.00977 1.54,0.2 3.509766,0.27055 5.759766,0.31055 -8.47,0.66 -15.189531,1.67984 -24.519532,2.33984 -0.781,0.06 -1.585187,0.0791 -2.367187,0.11914 -0.009,-0.01 -0.02425,-0.009 -0.03125,-0.0293 -0.274,-0.67 15.729062,-2.51031 8.039063,-3.07031 -7.698001,-0.56 -28.716907,0.74133 -37.503907,0.36133 -8.787,-0.37 -0.434922,-1.31148 -11.419922,-1.52148 -7.18326,-0.135 -14.9034137,0.41206 -21.88085929,0.95312 v 4.05469 c 1.77022039,0.24985 3.54466119,0.46696 5.21484379,0.59375 6.6150005,0.5 -1.9784063,-0.13031 5.9335945,0.42969 5.545,0.39 14.882109,0.80875 23.412109,0.96875 3.594,1.26 11.766625,2.64 16.515625,3.5 7.129,1.28 -15.233906,0.80031 -0.628906,1.82031 14.604,1.03 6.698265,0.88015 26.197265,1.16015 19.5,0.28 56.36016,1.91977 68.91016,0.75977 12.56,-1.17 6.56836,-3.55898 10.06836,-4.95898 1.17,-0.46 1.9307,-0.80985 2.2207,-1.08985 4.56,0.67 11.20031,1.22914 19.82031,1.36914 12.96,0.2 24.98071,0.29039 36.72071,0.15039 -0.82,0.13 -1.01133,0.25993 -0.36133,0.41992 5.06,1.27 6.54961,2.51891 19.59961,3.37891 8.22,0.54 18.90039,1.06024 29.40039,1.49024 -0.29,0.13 -0.14914,0.27078 -0.61914,0.55078 -1.03,0.6 -11.09016,0.49929 -8.16016,1.02929 2.94,0.54 -4,1.95039 -0.75,2.65039 0.15,0.03 0.32977,0.0306 0.50977,0.0605 -1.07,0.13 -1.88977,0.24938 -2.00977,0.35938 -0.69,0.71 9.30992,0.34031 11.41992,1.07031 2.12,0.73 -0.47922,1.36922 6.30078,1.94922 6.78,0.57 38.80961,-0.17914 47.59961,-0.36914 5.92,-0.12 7.83922,0.23953 9.94922,0.26953 1.98,0.59 11.21961,0.61945 17.59961,1.18945 7.29,0.66 7.74055,0.89141 19.06055,1.19141 11.32,0.29 14.40953,0.32898 23.76953,0.20898 9.36,-0.12 2.02086,-1.24906 5.13086,-2.03906 3.1,-0.79 5.52055,-2.07992 0.81055,-2.91992 -1.7,-0.3 0.0591,-0.58102 2.53906,-0.79102 4.59,0.1 9.61078,0.24149 14.30078,0.27149 0.61,0.06 1.63883,0.15984 3.29883,0.33984 2.45,0.27 4.01133,0.7393 5.36133,1.2793 -9.65,0.31 -27.44118,0.15078 -14.20118,0.30078 4.46,0.05 9.89047,0.16984 15.73047,0.33984 2.62,1.18 5.25039,2.46938 13.40039,2.85938 2.3,0.1 4.34024,0.15968 6.24024,0.17968 2.78,0.44 5,0.94969 0.75,1.42969 -3.03,0.34 -6.95117,0.77024 -10.70117,1.24024 -0.66,-0.06 -1.32047,-0.13899 -1.98047,-0.20899 -11.88,-1.3 -16.60836,0.41961 -31.56836,-0.15039 -14.95,-0.57 -27.94125,-0.0812 -43.28125,0.54883 -15.34,0.62 -10.77852,3.79172 -20.22852,5.26172 -9.46,1.47 -2.16015,1.63867 9.58985,2.88867 11.75,1.25 18.28828,0.75 36.98828,1.25 9.89,0.26 7.90117,0.75023 6.20117,1.24023 -1.64,-0.08 -3.40938,-0.15023 -5.35938,-0.24023 -20.64,-0.89 -36.94171,-2.22992 -57.26172,-1.66992 -20.31,0.55 -32.39953,2.44094 -46.51953,3.71094 -14.11,1.27 -15.55953,-0.11969 -25.26953,1.82031 -1.78,0.36 -2.42023,0.65992 -2.24023,0.91992 -1.07,-0.54 -1.45992,-1.06148 -0.41992,-1.52148 4.63,-2.07 41.55992,-0.83961 25.91992,-2.34961 -15.63,-1.5 -32.7693,-0.13961 -58.0293,-0.84961 -15.69,-0.44 -24.87055,-0.84 -34.56055,-1 10.98,-0.93 21.86946,-2.14985 30.93946,-2.33985 15.19,-0.33 53.67015,2.91953 54.91015,1.26953 1.25,-1.65 6.39078,-4.56914 1.80079,-5.86914 -2.87001,-0.81 -5.72079,-1.61984 -10.55079,-2.33984 0.23,-0.23 0.56969,-0.48078 3.17969,-0.30078 5.47,0.36 17.20086,1.1907 25.38086,0.9707 8.18,-0.22 2.58008,0.57867 10.83008,0.38867 8.24,-0.18 11.96891,-2.04851 11.6289,-2.72851 -0.33999,-0.69 -3.35007,-0.25102 -3.33007,-1.04102 0.02,-0.78 -1.8493,-1.45062 -10.2793,-1.64062 -8.44,-0.19 -17.91984,-0.96008 -25.83984,-0.58008 -7.92,0.38 -0.72086,0.93164 -6.63086,1.43164 -5.91,0.51 -9.21868,0.87953 -7.63867,1.51953 0.98,0.4 -1.56985,0.87985 -2.33985,1.33984 -1.83,-0.18999 -3.90047,-0.34953 -6.23047,-0.51953 -12.74,-0.91 -35.45945,0.7293 -50.68945,0.2793 -15.23,-0.46 1.33992,-2.47922 -15.83008,-1.94922 -17.16,0.53 -28.87008,0.58852 -39.08008,1.97852 -10.21,1.39 -28.48023,2.69031 -25.24023,4.07031 3.24,1.39 33.13039,1.62008 39.65039,3.08008 4.43,0.99 -3.48039,2.42125 -3.65039,3.28125 -14.67,0.7 -22.41977,2.48961 -27.75977,4.34961 -2.85,1 -9.85093,0.71929 -17.21093,0.27929 -8.750005,-1.29 -37.87974,-0.83039 -50.80274,-1.40039 -13.243,-0.59 -7.810406,-2.95 -21.941406,-2.25 -14.131,0.69 -3.964594,-0.42023 -14.058594,0.75977 -4.013099,0.46123 -12.697972,0.73564 -21.55078129,0.9981 v 4.10156 c 2.03440799,0.11529 3.95210109,0.23455 5.51367189,0.37109 5.2035604,0.44935 -0.144793,1.28534 -5.51367189,2.125 v 2.30274 c 10.95944529,-0.024 26.94980829,-1.89041 38.81640629,-1.98828 14.064,-0.12 31.868282,2.41078 37.738282,1.30078 5.87,-1.1 -6.880782,-1.30922 1.949218,-2.69922 3.99,-0.64 12.220782,-1.1411 19.300782,-1.6211 9.670003,0.75 22.799453,1.45086 30.189453,2.38086 13.76,1.73 18.87008,3.73969 40.58008,3.67969 21.72,-0.07 25.12891,-2.09992 51.3789,-1.91992 26.26,0.18 22.75055,1.93984 35.31055,0.0898 9.12,-1.34 -0.71929,-3.31007 -5.02929,-5.08008 3.47999,0.91001 16.69023,1.39024 17.74023,2.74024 1.45,1.86 -4.27992,3.95984 12.08008,4.83984 16.36,0.87 22.12,1.62899 40.5,1.20899 18.38,-0.42 58.4289,1.47984 74.6289,0.33984 16.21,-1.15 4.31086,-2.09984 15.38086,-3.58984 11.07,-1.5 23.95875,-5.51985 7.96875,-7.08985 -6.9,-0.68 -11.03945,-1.25906 -15.18945,-1.78906 17.5,0.46 41.13961,0.77039 50.59961,-0.0996 12.01,-1.09 8.31086,-0.7514 18.13086,-2.1914 7.86,-1.15 -10.86969,-3.80899 -18.42969,-5.70899 2.3,0.04 4.62922,0.0691 6.94922,0.11914 16.39,0.34 0.39961,3.38047 16.84961,2.98047 16.44,-0.4 19.41008,-1.57969 31.08008,-2.67969 11.67,-1.1 46.03015,-0.83961 52.16015,-2.09961 6.12,-1.26 -3.69015,-2.0714 -13.91015,-3.1914 -10.22,-1.13 -23.47985,-2.03906 -33.83985,-3.03907 -10.36,-1 -26.68945,-0.33039 -42.68945,-0.40039 -4.18,-0.02 -7.37102,-0.0498 -10.04102,-0.0898 1.05001,-0.11 2.14079,-0.20078 3.30079,-0.30078 0.77,-0.07 1.65007,-0.13945 2.58007,-0.18945 4.28,0.06 8.34071,0.0913 11.72071,0.0312 18.61,-0.29 4.86929,-0.17047 21.27929,-0.48047 16.4,-0.32 8.80032,-0.50078 16.57032,-1.80078 6.73,-1.12 5.31875,-1.64008 4.46875,-2.58008 0.72,-0.24 1.34023,-0.47922 1.74023,-0.69922 7.31,0.31 14.73109,0.6293 18.3711,1.0293 9.88999,1.09 4.2996,1.03078 15.3496,1.80078 11.05,0.77 -12.85937,2.54875 3.39063,1.96875 2.26,-0.08 5.0293,-0.13844 8.0293,-0.14844 -8.28,0.8 -22.32016,2.20977 -19.66016,3.00977 2.98,0.9 18.44117,-0.12063 23.95117,0.60937 5.51,0.73 10.28953,1.18984 20.76953,1.33984 10.48,0.15 4.15953,1.27086 14.26953,0.88086 10.11,-0.39 26.03055,-0.65984 30.81055,-1.33984 4.79,-0.68 -14.03,-2.15172 -14.75,-3.01172 -0.71,-0.86 16.69953,-1.09992 7.76953,-1.66992 -1.15,-0.08 -2.01,-0.12969 -3,-0.17969 7.84,-1.35 11.96938,-4.27008 14.35938,-5.33008 2.67,-1.19 19.83047,-1.70015 17.23047,-3.16015 -2.59,-1.46 -19.88008,2.13054 -31.83008,1.06054 -11.95,-1.06 -45.50945,-3.47984 -61.68945,-3.58984 h -1.47071 c -14.13,0.03 -5.16875,2.07063 -14.46875,2.89063 -7.35,0.65 -23.54187,0.85968 -35.67187,1.42968 -7.11,-0.65 -17.78821,-1.16093 -28.65821,-1.46093 -0.9,-0.02 -1.68023,-0.0386 -2.49023,-0.0586 -1.32,-0.45 -2.72008,-0.77078 -10.58008,-0.55078 -7.28,0.21 -11.49055,0.75914 -15.56055,1.36914 -12.31,0.33 -36.43953,-1.00984 -45.76953,0.16016 -1.54,0.19 -2.54093,0.42015 -3.21093,0.66015 -8.1,-0.38 -17.7204,-1.11 -24.9004,-1 -8.72,0.14 -10.50835,1.67016 -16.06835,2.16016 -5.56,0.49 -14.54125,-0.98023 -14.03125,-0.24023 0.49,0.71 3.52085,1.12976 5.13086,1.75976 -7.77,0.1 -15.16016,0.63031 -23.41016,0.82031 -1.92,-0.31 -4.51008,-0.55906 -7.83008,-0.78906 -7.25,-0.49 4.48891,-1.07125 -6.62109,-1.03125 -2.59,0.01 -5.62985,-0.1 -8.83985,-0.25 -1.44,-0.26 -3.8689,-0.4882 -7.3789,-0.6582 -0.56,-0.03 -0.97032,-0.0616 -1.32032,-0.10156 13.8,-0.63 30.25016,-1.67891 41.16016,-2.12891 15.64,-0.64 -1.21969,-1.08984 2.82031,-2.08984 4.03,-1 -1.18125,-2.88985 -6.78125,-3.83985 -0.26,-0.04 -0.41961,-0.0811 -0.59961,-0.12109 -1.06,0 -3.02875,-0.049 -6.46875,-0.20899 -12.64,-0.58 -42.4407,-1.60078 -61.7207,-1.80078 -0.44,-0.79 5.45945,-1.88937 8.68945,-2.85937 1.89,0.37 4.37047,0.67008 7.73047,0.83008 15.75,0.71 6.86032,-0.58125 20.57032,-1.53125 13.70999,-0.95 50.67039,-1.59977 55.90039,-2.75977 5.23,-1.17 -2.11993,-1.09891 4.83007,-2.37891 6.94,-1.28 -11.21086,-2.49093 -20.63086,-3.71093 -0.58,-0.07 -1.05968,-0.14899 -1.42968,-0.20899 -0.84,0.01 -1.89094,0.0293 -3.21094,0.0293 -13.4,0.02 -49.35977,-0.73985 -67.50977,-0.33985 0.32,-0.43 0.11133,-0.88023 0.36133,-1.24023 0.58,-0.84 7.7393,-2.49937 -1.9707,-3.10937 -9.72,-0.6 -0.27953,0.58859 -10.01953,0.30859 -9.73,-0.28 -19.19133,-0.96953 -29.61133,-0.51953 -10.43,0.46 -19.97969,-0.44 -30.42969,0 -4.3,0.18 -8.25898,0.53117 -11.20898,0.95117 -2.94,-0.89 -18.40071,-0.53 -19.72071,-1.5 -1.35,-0.98 -8.84062,-0.72039 -18.64062,-1.15039 -9.8,-0.43 -13.88945,-0.5707 -25.68945,0.0293 -11.81,0.6 -3.69086,-0.68946 -12.38086,0.0605 -8.7,0.74 -26.949379,1.58969 -26.859379,2.42969 0.09,0.84 18.630629,2.41063 25.390629,3.14063 6.75,0.72 -18.850707,0.19921 -8.72071,0.69921 10.13,0.49 38.54071,0.12094 52.72071,0.21094 14.18,0.09 7.76968,-0.24086 18.67968,-0.88086 4.74,-0.28 8.71977,-0.6689 11.50977,-1.1289 4.29,0.78 18.27984,1.32812 25.83984,1.82812 7.91,0.52 -9.98961,1.17094 0.15039,1.46094 10.13,0.28 35.3,-1.07039 45.5,-1.40039 3.45,-0.12 4.78008,0.0801 5.33008,0.33008 -3.6,0.35 -1.19968,0.53046 0.57032,0.73046 0.14999,0.15 0.4689,0.2693 1.3789,0.2793 0.16,0.14 -0.76867,0.27977 -4.13867,0.50977 -12.55,0.85 -13.40156,1.66062 -15.85156,2.89062 -2.46,1.24 13.75015,-0.53922 20.41015,0.55078 3.04,0.5 3.98008,1.5286 5.58008,2.5586 -11.8,-0.42 -33.85851,0.20047 -44.72851,-0.51953 -13.04,-0.87 -11.60141,-2.36985 -26.94141,-2.33985 -8.3,0.01 -12.57008,0.50985 -16.58008,1.08985 0.04,-0.71 -0.61867,-1.42891 -4.88867,-1.87891 -7.81,-0.84 14.00891,-2.57148 1.37891,-2.77148 -12.63,-0.2 -40.9993,-0.10993 -52.7793,0.33007 -11.79,0.45 -4.85102,2.07125 -16.04102,2.53125 -7.07,0.29 -15.549451,-0.17984 -22.689451,-0.33984 3.5,-0.17 6.260703,-0.36008 7.970703,-0.58008 8.189998,-1.02 3.408988,-0.49156 -1.291015,-1.85156 -4.69,-1.36 -6.818594,-2.50891 -17.558594,-3.37891 -10.739,-0.86 -15.329516,-0.98117 -27.728516,-1.70117 -10.325,-0.6 -15.351031,-1.25812 -27.457031,-1.57812 14.749,-0.31 31.308969,0.28 43.792969,-0.25 14.762,-0.62 6.161406,-4.18055 2.941406,-5.56055 -3.231,-1.39 11.479844,0.64008 4.339844,-0.66992 -6.434,-1.19 -12.355797,-2.33117 -24.966797,-2.95117 10.237,0.23 22.507656,-0.78993 34.347656,0.33007 15.370005,1.45 2.188828,1.21032 21.798826,0.82032 5.22,-0.1 13.12985,-0.12039 22.08985,-0.15039 -5.21,0.86 -7.82977,2.06984 -14.50977,2.33984 -9.33,0.38 -12.39969,-0.19922 -17.929687,0.55078 -5.52,0.75 13.870157,2.22961 20.660157,3.09961 1.86,0.24 2.15992,0.37969 1.91992,0.42969 0.83,0.01 1.98039,0.0398 3.65039,0.0898 12.33,0.37 21.61063,-0.1393 32.14063,-0.0293 10.52,0.11 11.05968,-0.2896 19.92969,-0.84961 8.87,-0.56 4.95921,-0.64968 6.94921,-1.42968 1.99,-0.79 -4.39914,-0.63071 -11.86914,-1.22071 -7.47,-0.59 -7.08984,-1.7496 -18.33984,-2.09961 -4.69,-0.13999 -6.02984,-0.54015 -6.83984,-0.91015 21.38,-0.07 44.19875,-0.23031 52.96875,-1.07031 13.67,-1.3 -2.33993,-1.27024 -7.66993,-2.49024 z m 95.798827,10.00977 c -3.63,-0.07 -0.53,0.11 0,0 z m 227.39063,7.27148 c 8.32,-0.14 -5.09,-0.81 0,0 z m -7.47071,14.62891 c 2.6,0.01 -0.29875,-0.28899 -0.71875,-0.20899 0.04,0.03 0.22875,0.11899 0.71875,0.20899 z M 222.68902,358.95116 c 9.42,0.23 14.78984,0.28125 25.83984,0.0312 1.77,-0.04 3.83078,-0.0512 6.05078,-0.0312 z m 31.89062,0 c 15.59,0.14 40.37868,1.48078 48.88867,0.55078 1.57,-0.17 2.70102,-0.36078 3.54102,-0.55078 z m 126.16993,0 c -13.9,0.62 -21.4311,2.05055 -26.6211,3.56055 -2.85,0.83 -9.84898,0.58094 -17.20898,0.21094 -8.75,-1.07 -37.88078,-0.68039 -50.80078,-1.15039 -13.25,-0.49 -7.81922,-2.47063 -21.94922,-1.89063 -14.13,0.58 -3.96078,-0.31008 -14.05078,0.66992 -10.1,0.98 -48.62915,0.93071 -49.36914,2.22071 -0.74001,1.29 22.94007,1.55859 33.33007,2.30859 10.39,0.75 -21.46054,2.79055 -11.06054,3.56055 10.4,0.77 30.29937,-1.41954 44.35937,-1.51954 14.06,-0.1 31.87024,2.00961 37.74024,1.09961 5.87,-0.92 -6.87883,-1.11906 1.95117,-2.28906 3.99,-0.52 12.21883,-0.94008 19.29883,-1.33008 9.67,0.62 22.8014,1.19875 30.1914,1.96875 13.76,1.45 18.86813,3.13008 40.57813,3.08008 21.72,-0.06 25.12086,-1.75914 51.38086,-1.61914 26.25,0.15 22.75054,1.62984 35.31054,0.0898 9.11,-1.11 -0.72101,-2.7507 -5.04101,-4.2207 3.49,0.75 16.7,1.15125 17.75,2.28125 1.45,1.55 -4.27992,3.27977 12.08008,4.00977 16.36,0.73 22.12,1.38906 40.5,1.03906 18.38,-0.35 58.43086,1.21953 74.63086,0.26953 16.21,-0.95 4.3089,-1.76976 15.3789,-3.00976 11.07,-1.25 23.9607,-4.56914 7.9707,-5.86915 -6.9,-0.56999 -11.03945,-1.07953 -15.18945,-1.51953 10.32,0.22 22.73039,0.38938 33.15039,0.35938 -1.43,-1.42 -3.40008,-2.31055 -5.58008,-2.31055 h -44 c 1.15,0.2 0.13821,0.42992 -0.84179,0.66992 -1.64,-0.07 -3.40938,-0.13898 -5.35938,-0.20898 -4.08,-0.15 -7.89945,-0.30094 -11.68945,-0.46094 h -65.89063 c -9.56,0.66 -17.49921,1.51016 -26.19921,2.16016 -14.11001,1.06 -15.55954,-0.10047 -25.26954,1.51953 -1.78,0.3 -2.42023,0.54172 -2.24023,0.76172 -1.07,-0.45 -1.45992,-0.89125 -0.41992,-1.28125 4.63,-1.72 41.55992,-0.68946 25.91992,-1.93946 -15.63,-1.25999 -32.77125,-0.10921 -58.03125,-0.69921 -8.41,-0.2 -14.89844,-0.37149 -20.64844,-0.52149 z m -24.75977,10.2207 c -5.15,0.01 -10.19109,0.12969 -14.12109,0.42969 -7.87,0.58 -4.71899,1.83078 -7.45899,2.55078 -2.75,0.73 -17.03117,-0.4707 -12.95117,0.2793 4.07,0.74 11.86148,1.3393 17.77148,2.0293 5.91,0.7 9.69821,0.58047 19.15821,0.98047 9.45,0.4 -2.77899,-0.85875 7.04101,-1.21875 9.82,-0.36 17.44907,0.90929 24.03906,0.27929 6.59,-0.64 22.35047,-1.7207 19.48047,-2.4707 -2.87,-0.74 -19.65015,-0.84039 -27.66015,-1.15039 -8.01,-0.32 -1.94985,-1.01844 -10.58985,-1.39844 -4.31,-0.2 -9.55898,-0.31055 -14.70898,-0.31055 z m 117.43945,0.51954 c -16.02,0.04 -34.46039,0.95031 -44.15039,1.82031 -10.01,0.91 -21.55008,1.26945 -18.83008,2.43945 2.72,1.16 -0.17914,3.95024 7.88086,4.74024 4.25,0.42 11.90039,0.41984 20.15039,0.33984 -0.21,0.08 -0.38156,0.16023 -0.60156,0.24023 -3.94,1.45 -9.61953,2.92032 -14.26953,4.32032 1.68,0.02 3.71109,0.079 6.12109,0.20898 19.7,1.09 34.09875,3.22086 52.71875,4.38086 18.62,1.17 22.2311,-0.58008 42.8711,-1.33008 20.63,-0.76 27.02015,0.37969 31.41015,-1.07031 4.39,-1.45 0.14993,-1.66891 2.66993,-3.12891 1.28,-0.75 11.05015,-1.73039 18.16015,-2.65039 2.92,0.15 5.57,0.30024 7.5,0.49024 8.42,0.83 28.79992,1.49047 42.16992,1.98047 0.82,0.03 1.60844,0.0598 2.39844,0.0898 -12.33,0.73 -18.63859,2.12977 -24.30859,3.00977 -6.03,0.93 5.72875,0.39023 7.96875,1.49023 2.24,1.1 1.01125,2.02938 14.03125,2.85937 13.02,0.83 -14.92071,2.78922 1.52929,2.94922 16.45,0.16 21.86071,-1.39882 35.22071,-1.54882 0.93,-0.01 2.25867,-0.01 3.38867,0 v -6.75977 c -5.68,-0.18 -10.39859,-0.65109 -14.80859,-1.12109 3.09,0.05 6.3796,0.0307 10.09961,-0.0293 1.73,-0.03 3.27898,-0.0711 4.70898,-0.12109 v -6.87891 c -1.48,-0.02 -3.07977,-0.0504 -5.00977,-0.15039 -10.9,-0.55 -34.13875,-0.68992 -46.96875,-0.66992 -12.83,0.02 -15.73109,1.20976 -25.87109,1.75976 -2.9,0.16 -6.72047,0.2393 -10.73047,0.2793 -13.56,-0.84 -33.73898,-1.22953 -52.45898,-1.76953 0.02,-0.01 0.0193,-0.0405 0.0293,-0.0606 1.25,-1.21 24.49086,-1.49984 16.13086,-2.33984 -8.36,-0.84 -2.53101,-1.08992 -15.29101,-1.66992 -12.75,-0.59 -35.96008,-2.07961 -52.33008,-2.09961 z m -49.82031,13.90039 c -3.85,-0.05 -5.93008,0.14039 -6.83008,0.40039 -1.5,-0.08 -2.95976,-0.14071 -4.25976,-0.22071 -8.43,-0.48 1.86039,0.84985 -5.84961,0.33985 -7.7,-0.52 -25.97985,-1.17961 -35.33985,-0.84961 -9.35,0.32 -6.03125,0.0898 -16.03125,0.50976 -10.01,0.43 -20.78883,2.26938 -21.54882,3.10938 -0.77,0.84 5.71921,0.2107 14.19921,0.9707 8.49,0.76 11.28946,1.98094 19.93946,2.46094 4.11,0.24 11.3907,-0.0605 18.9707,-0.48047 -7.95,0.77 26.73031,3.10977 35.82031,4.00977 9.15,0.91 -23.51937,1.85961 -8.35937,2.09961 15.16,0.24 31.52898,-0.22938 47.95898,-0.35938 16.43,-0.13 40.10039,1.66055 52.15039,1.06055 12.05,-0.6 -10.64984,-1.86133 -5.83984,-2.86133 4.81,-0.99 0.68953,-2.49859 -4.23047,-3.55859 -4.91,-1.06 -2.37008,0.40836 -13.58008,-0.18164 -11.04,-0.58 -36.17961,-2.80954 -51.09961,-2.76954 -3.21,-0.71 -7.87015,-1.4689 -6.66015,-1.8789 1.52,-0.52 -4.67922,-0.85016 -11.44922,-1.16016 0.65,-0.21 1.33906,-0.43062 2.03906,-0.64062 z m 213.17969,-12.75 c -0.59,0.01 -1.13914,0.009 -1.61914,0.0391 -3.77,0.21 -3.13,0.7718 -5,1.0918 -1.88,0.32 -2.38946,0.31992 -3.68946,0.66992 -0.32,0.09 -0.5814,0.12844 -0.6914,0.14844 0.23,-0.02 1.15109,-0.09 3.12109,0 3.58,0.17 5.29867,0.59062 9.88867,0.64062 4.59,0.05 6.01172,0.2407 10.01172,-0.0293 4,-0.26 14.84883,-0.20007 16.54883,-0.58007 1.69,-0.38 -5.03953,-0.22079 -6.26953,-0.55079 -1.22,-0.32 -0.33945,-0.6807 -2.68945,-0.9707 -2.35,-0.28 -0.95102,-0.0986 -5.04102,-0.0586 -3.58,0.03 -10.39031,-0.43039 -14.57031,-0.40039 z M 118.34917,384.6621 c 0.47,0.01 0.95039,0.0306 1.4004,0.0606 11.31999,0.6 0.71046,0.0888 12.23046,0.29882 3.26,0.06 8.72938,0.1204 15.10938,0.15039 l -0.15039,0.0605 c -1.67,0.64 -0.73969,1.27992 0.57031,1.91992 -7.68,-0.7 -18.48016,-1.86023 -29.16016,-2.49023 z m 429.81055,3.18945 c -1.5,0.05 -2.40008,0.20024 -4.83008,0.49024 -4.72,0.54 -17.40086,0.80078 -22.63086,1.30078 -5.23,0.5 -1.46898,0.77844 -1.70898,1.39844 -0.24,0.63 -3.83109,1.05984 5.12891,1.33984 8.96,0.28 23.44117,0.94031 32.70117,0.82031 9.26,-0.11 8.46976,-0.33015 12.25976,-0.91015 3.79,-0.57 18.37938,-1.08993 20.85938,-1.66993 2.49,-0.59 12.86953,-0.11882 6.26953,-0.54882 -6.61,-0.43 -13.41922,-0.58086 -22.44922,-0.88086 -9.04,-0.3 -9.38008,-1.25055 -18.08008,-1.31055 -2.72,-0.02 -4.46976,-0.0293 -5.75976,-0.0293 -0.7,0 -1.26977,-0.02 -1.75977,0 z m -136.08984,0.69922 c 2.87,-0.01 5.93023,0.0604 8.99023,0.15039 -2.52,0.31 -5.45062,0.59117 -9.89062,0.70117 -9.56,0.24 -13.50039,-0.0714 -18.40039,0.0586 6.35,-0.38 12.41992,-0.75891 16.41992,-0.87891 0.94,-0.03 1.89086,-0.0312 2.88086,-0.0312 z m -412.30469129,5.12891 v 7.41015 c 9.10971489,0.23629 17.60217229,0.71688 26.70898429,0.75196 13.122,0.06 21.344922,-1.69922 25.419922,-2.69922 4.075,-1.01 -13.912625,-0.29039 -12.140625,-1.40039 1.773,-1.12 22.474657,-0.80008 16.097657,-1.83008 -6.377001,-1.03 -40.637891,-1.82086 -51.5878914,-2.13086 -1.9596662,-0.0515 -3.34566379,-0.0828 -4.49804689,-0.10156 z M 212.61871,397.92186 c -6.12,0.01 -13.75907,0.32938 -20.53907,0.60938 -1.27,-0.11 -2.73968,-0.17016 -5.17968,-0.16016 -0.45,0.01 -0.92141,0 -1.44141,0 -8.28,0.13 -11.19977,1.05125 -18.75977,1.53125 -7.57,0.47 -11.54984,1.62969 -14.83984,2.42969 -3.3,0.8 13.75117,0.29985 15.70117,1.08984 1.96,0.80001 -1.6314,1.62938 6.8086,1.85938 8.44,0.23 32.25,-1.74922 40.5,-1.94922 8.24,-0.19 12.78085,-0.0498 18.88086,-0.50976 2.28999,-0.18 0.34023,-0.37008 -2.75977,-0.58008 3.42,-0.08 6.61,-0.2111 8.75,-0.3711 6.59,-0.48 7.32969,-1.51961 3.92969,-2.09961 -3.39,-0.57 -9.46992,0.28063 -13.66992,-0.35937 -4.19,-0.64 -5.78946,-1.34023 -14.68946,-1.49024 -0.83,-0.02 -1.7314,0 -2.6914,0 z m -151.589849,3.00977 c -11.285,0.08 -15.715219,1.88024 -25.449219,2.49023 -10.383,0.66001 -7.255578,0.85977 -13.517578,2.00977 -6.262,1.15 -25.2833284,3.09922 -17.2363284,4.19922 8.0460004,1.1 25.4166564,0.99039 37.3476564,1.40039 11.932,0.41 -0.313453,-0.71969 14.060547,-0.17969 14.372,0.53 44.910471,1.64039 56.980471,1.15039 12.07,-0.49 -3.66938,-3.78062 0.39062,-4.89062 4.06,-1.11 19.46961,-2.01008 10.09961,-3.08008 -9.36,-1.07 7.72977,-0.40969 -1.74023,-1.42969 -9.46,-1.01 -45.498409,-1.48992 -58.566409,-1.66992 -0.817,-0.01 -1.61714,0 -2.36914,0 z m -24.070313,10.67969 c -11.542,-0.01 -25.911906,0.50117 -36.62890617,0.70117 -0.22361619,0.003 -0.36258377,0.005 -0.56445312,0.008 v 0.0312 c 2.55175969,0.0269 4.48347699,0.15159 0.44335938,0.54102 -0.12094775,0.0112 -0.31581547,0.0254 -0.44335938,0.037 v 7.94336 c 6.22816229,0.12064 11.41663629,0.0926 19.95703129,-0.14063 14.208,-0.38 45.21836,1.95992 54.94336,0.66992 9.73,-1.28 3.878906,-2.98015 2.128906,-4.16015 -1.74,-1.19 9.200625,-3.04031 6.890625,-4.32032 -2.3,-1.29 -22.229125,0.0594 -33.328125,-0.89062 -3.468,-0.29 -8.152438,-0.41992 -13.398438,-0.41992 z m 576.871092,2.46094 c -1.67,0.01 -3.58007,0.0793 -6.08007,0.27929 -8.91,0.67 -5.53126,1.23 -9.78126,2.25 -4.24,1.01 -12.3496,0.45063 -13.5996,1.64063 -1.26,1.19 9.99031,1.21015 17.32031,2.16015 3.56,0.46 3.54031,1.30032 3.57031,2.07032 -10.57,-0.91 -19.64086,-1.88055 -30.13086,-1.31055 -12.89,0.7 -11.48992,2.35883 -19.41992,3.79883 -1.93,0.35 -5.23992,0.67047 -9.16992,0.98047 -1.66,-0.18 -3.05969,-0.35883 -3.92969,-0.54883 -4.96,-1.08 6.60063,-2.19102 2.64063,-3.29102 -3.97001,-1.09 -10.13954,-1.84031 -21.51954,-2.07031 -11.39,-0.22 -16.09156,-0.31867 -27.10156,-0.38867 -11.01,-0.07 -4.83867,3.53836 -11.38867,4.31836 -6.55,0.78 -36.76102,-1.28914 -38.79102,-0.11914 -1.95,1.12 33.04055,3.55015 43.56055,4.41015 0.66,-0.02 1.63023,-0.0293 2.99024,-0.0293 6,-0.02 13.98015,0.01 21.91015,0 -1.18,0.14 -2.10016,0.29922 -2.66015,0.44921 -4.86001,1.31001 12.09054,1.27032 21.31054,2.32032 5.43,0.61 16.13977,2.08875 27.00977,3.21875 -9.53,0.25 -24.52047,1.52125 -32.23047,1.28125 -10.37,-0.33 -37.90938,-2.52078 -46.60938,-1.80078 -8.69,0.73 -14.53117,2.60078 -17.95117,3.80078 -3.42,1.21 -0.87992,0.65937 3.83008,1.85937 4.72,1.2 4.08117,0.67969 11.45117,1.42969 7.37,0.75 10.87844,1.38969 21.64844,1.42969 10.59,0.04 34.70992,1.08008 42.16992,0.33008 -0.47,0.12 -0.57898,0.25109 -0.20898,0.37109 2.7,0.89 29.45976,0.97008 38.00976,1.58008 8.55,0.61 8.19031,3.05976 18.82032,3.25976 10.63999,0.2 -5.33032,-2.22093 4.67968,-2.71093 10.01,-0.49 21.19961,1.85156 27.09961,0.85156 5.89,-1 15.51117,-2.95172 20.95117,-4.01172 5.44,-1.07 -3.09086,0.53086 -8.63086,-0.36914 -5.54,-0.9 -25.94906,-2.09953 -33.78906,-2.76953 -7.83,-0.66 -14.13015,-1.32055 -26.91015,-1.31055 -12.79,0.02 -9.52055,2.04922 -14.81055,2.94922 -3.82,0.66 -16.79945,1.23008 -22.68945,1.83008 2.98,-0.62 -1.87102,-1.01922 5.20898,-1.69922 8.24,-0.79 -3.07922,-2.65914 -3.19922,-3.86914 -0.1,-0.97 16.86914,-1.17047 20.61914,-1.73047 4.99,0.42 9.75977,0.72047 13.75977,0.73047 14.51,0.05 11.00133,-3.25031 25.36133,-3.32031 14.36,-0.06 44.06875,2.31976 50.46875,1.00976 2.88,-0.59 6.89984,-1.14094 9.83984,-1.71094 v -2.54882 c -2.61,-0.66 -1.23,-1.02094 0,-1.46094 v -1.49024 c -0.01,-0.01 -0.0193,0 -0.0293,0 -3.85,-1.28 -28.74078,-1.84859 -45.30078,-2.55859 3.12,-0.41 6.54039,-0.91164 11.40039,-1.18164 10.86,-0.62 15.9311,-0.27922 24.8711,-0.94922 2.69,-0.2 5.92859,-0.53016 9.05859,-0.91016 v -3.65039 c -5.81,-0.2 -12.27008,-0.32906 -15.83008,-0.78906 -6.29,-0.82 -12.08969,-1.89047 -22.92969,-1.73047 -7.79,0.1 -10.58914,-0.29929 -14.86914,-0.27929 z m -123.82031,14.17968 c -4.02,0.12 3.09055,0.50063 3.56055,0.39063 -0.03,-0.04 -0.67039,-0.15078 -2.40039,-0.30078 -0.32,-0.03 -0.76016,-0.0598 -1.16016,-0.0898 z m -362.82031,4.74024 c -5.15,0.01 -10.18914,0.16953 -14.11914,0.51953 -7.87,0.7 -4.72094,2.20031 -7.46094,3.07031 -2.75,0.87 -17.02922,-0.56015 -12.94922,0.33984 4.08,0.89 11.85953,1.62899 17.76953,2.45899 5.91,0.83 9.70016,0.68016 19.16016,1.16016 9.45,0.48 -2.78094,-1.02899 7.03906,-1.45899 9.82,-0.44 17.45102,1.09008 24.04102,0.33008 6.59,-0.76 22.35047,-2.08047 19.48047,-2.98047 -2.87,-0.9 -19.65016,-1.02039 -27.66016,-1.40039 -8.01,-0.37 -1.95008,-1.20992 -10.58008,-1.66992 -4.32,-0.23 -9.5707,-0.36914 -14.7207,-0.36914 z m 117.43945,0.63867 c -16.02,0.05 -34.45844,1.11016 -44.14844,2.16016 -10.01,1.09 -21.55007,1.58046 -18.83007,2.98046 2.72,1.4 -0.18133,4.73946 7.88867,5.68946 4.24,0.5 11.89062,0.50039 20.14062,0.40039 -0.2,0.1 -0.37961,0.20078 -0.59961,0.30078 -3.94,1.75 -9.61953,3.48992 -14.26953,5.16992 1.68,0.03 3.70914,0.1193 6.11914,0.2793 19.7,1.3 34.10071,3.83047 52.72071,5.23047 18.62,1.4 22.22914,-0.68008 42.86914,-1.58008 20.63,-0.91 27.02015,0.4607 31.41015,-1.2793 4.39,-1.74 0.15992,-2.02148 2.66992,-3.77148 1.28,-0.9 11.05016,-2.05992 18.16016,-3.16992 2.92,0.18 5.57,0.35007 7.5,0.58007 8.42,1 28.79992,1.75985 42.16992,2.33985 0.83,0.04 1.61039,0.0911 2.40039,0.12109 -12.33,0.88 -18.64054,2.56914 -24.31054,3.61914 -6.03,1.13 5.7307,0.48078 7.9707,1.80078 2.24,1.32 1.0093,2.43946 14.0293,3.43946 13.02,1 -14.92071,3.33125 1.52929,3.53125 16.45,0.19 21.86071,-1.68133 35.22071,-1.86133 7.6,-0.11 22.4607,0.46047 35.2207,0.73047 -1.67,0.55 -2.4107,0.98937 -7.9707,1.60937 -8.88,0.99 -13.54,2.22125 -10.25,3.53125 3.28,1.31 -9.64969,2.56008 7.82031,2.83008 10.66,0.17 20.14883,0.58961 29.79883,0.84961 -0.09,0.01 -0.14828,0.0293 -0.23828,0.0293 -9.4,0.73 -4.56079,0.80117 -7.80079,1.95117 -3.24,1.15 -25.11906,2.02992 -18.78906,2.91992 6.18,0.87 11.53977,2.16922 17.25977,2.94922 -1.05,0.73 -2.63071,1.57961 -0.72071,2.09961 3.26,0.88 17.02907,0.0511 24.03907,0.12109 4.57,0.05 7.17109,-0.13008 10.37109,-0.33008 1.46,0.02 2.87063,0.0586 4.14063,0.0586 3.34,0 5.64914,-0.0684 7.61914,-0.14844 2.42,0.38 3.25976,0.95867 4.00976,0.38867 0.4,-0.3 1.46992,-0.54906 2.66992,-0.78906 2.23,-0.15 4.7611,-0.32094 8.8711,-0.46094 11.82,-0.38 -3.44156,-0.41953 3.14843,-1.51953 6.59001,-1.1 20.17079,-3.35976 16.55079,-4.25977 -3.63,-0.88999 -3.26071,-2.29062 -13.22071,-2.64062 -5.75,-0.21 -13.19984,-0.47922 -20.83984,-0.69922 13.52,-0.54 27.85039,-1.28023 37.65039,-1.49023 14.44,-0.32 23.19039,-1.48047 20.90039,-2.98047 -2.3,-1.51 -0.82016,-1.37039 -5.16016,-2.65039 -0.78,-0.23 -2.32945,-0.39953 -4.43945,-0.51953 0.16,-0.02 0.25938,-0.0306 0.35938,-0.0606 1.96,-0.52 -7.54055,-1.25836 -8.06055,-1.81836 -0.52,-0.57 8.52992,-0.54047 4.16992,-0.98047 -4.36,-0.43 0.2511,-0.10937 -5.1289,-0.35937 -5.38,-0.26 -7.41946,-0.63063 -13.93946,-0.64063 -6.52,-0.01 -20.50148,1.27883 -25.27148,1.54883 -4.14,0.24 -4.30914,0.27008 -5.86914,0.58008 -2.59,-1.29 -0.61071,-2.98844 -8.72071,-2.64844 -5.45,0.23 -11.98976,0.45977 -18.25976,0.75977 -0.75,-0.49 -1.95031,-1.00024 -2.82031,-1.49024 -2.32,-1.31 -15.49899,-1.61101 -22.20899,-3.04101 -6.71,-1.43 -13.38016,-1.16899 -29.16015,-1.45899 -6.79001,-0.13 -12.1304,-0.77969 -17.1504,-1.42969 3.09,0.06 6.37961,0.0488 10.09961,-0.0312 14.08,-0.3 17.16071,-1.52 27.22071,-2.25 10.06,-0.74 1.67062,-1.09929 3.39062,-2.52929 1.72,-1.42 -3.36164,-2.3493 -10.43164,-3.2793 -7.08,-0.93 -9.56851,0.10922 -20.47851,-0.55078 -10.9,-0.66 -34.14071,-0.80906 -46.97071,-0.78906 -12.83,0.02 -15.72914,1.4589 -25.86914,2.1289 -2.9,0.19 -6.72047,0.26078 -10.73047,0.30078 -13.56,-1 -33.73117,-1.48086 -52.45117,-2.13086 0.01,-0.02 0.0113,-0.0405 0.0312,-0.0605 1.24,-1.46 24.48914,-1.78883 16.11914,-2.79883 -8.36,-1.01 -2.52929,-1.3 -15.27929,-2 -12.76,-0.7 -35.96985,-2.51125 -52.33985,-2.53125 z m -49.81836,16.70117 c -3.85,-0.05 -5.93008,0.18024 -6.83008,0.49024 -1.5,-0.09 -2.96172,-0.15024 -4.26172,-0.24024 -8.43,-0.59 1.86016,1.01063 -5.83984,0.39063 -7.71,-0.62 -25.98984,-1.42125 -35.33984,-1.03125 -9.36,0.39 -6.03907,0.12062 -16.03906,0.64062 -10.01001,0.51 -20.79079,2.69899 -21.55079,3.70899 -0.77,1.01 5.72118,0.24039 14.20118,1.15039 8.49,0.92 11.28945,2.40046 19.93945,2.98046 4.13,0.28 11.46984,-0.0896 19.08984,-0.5996 -8.6,0.91 26.54922,3.74007 35.69922,4.83007 9.15,1.1 -23.51937,2.2393 -8.35937,2.5293 15.16,0.29 31.53093,-0.29898 47.96093,-0.45898 16.43,-0.16 40.10821,2.02859 52.15821,1.30859 12.05,-0.72 -10.65961,-2.23945 -5.84961,-3.43945 4.81,-1.19 0.69148,-2.97977 -4.22852,-4.25977 -4.91,-1.27 -2.37031,0.46977 -13.57031,-0.24023 -11.04,-0.7 -36.19133,-3.39961 -51.11133,-3.34961 -3.21,-0.86 -7.87016,-1.75 -6.66016,-2.25 1.53001,-0.62 -4.67921,-1.02039 -11.44921,-1.40039 0.65,-0.25 1.34101,-0.49977 2.04101,-0.75977 z M 407.9898,435.00194 c -0.59,0.01 -1.14109,0.0306 -1.62109,0.0605 -3.77,0.26 -3.13,0.91859 -5,1.30859 -1.87,0.39 -2.38946,0.40032 -3.68946,0.82032 -0.32,0.11 -0.56945,0.15968 -0.68945,0.17968 0.23,-0.02 1.15914,-0.11 3.11914,0 3.58,0.21 5.30062,0.68047 9.89063,0.73047 4.58999,0.06 6.00976,0.29071 10.00976,-0.0293 4,-0.32 14.85078,-0.20993 16.55078,-0.66993 1.7,-0.45 -5.04148,-0.24062 -6.27148,-0.64062 -1.22,-0.39 -0.33946,-0.83969 -2.68946,-1.17969 -2.35,-0.35 -0.94906,-0.13984 -5.03906,-0.0898 -3.58,0.03 -10.39031,-0.53024 -14.57031,-0.49024 z m -395.191408,0.45899 c -2.505,-0.01 -5.0365783,0.0416 -7.6425783,0.18164 -1.8237073,0.0928 -3.6138201,0.12425 -5.39062499,0.13281 v 7.05469 C 11.017757,442.42721 24.45668,441.6308 31.292533,441.36132 c 3.452,-0.14 4.787937,0.0613 5.335937,0.36133 -3.6,0.43 -1.202687,0.66992 0.570313,0.91992 0.148,0.18 0.465906,0.29883 1.378906,0.29883 0.156,0.17 -0.767719,0.36062 -4.136719,0.64062 -12.551,1.02 -13.404422,1.97875 -15.857422,3.46875 -2.453,1.48 13.749063,-0.63812 20.414063,0.67188 3.044,0.59 3.979219,1.79906 5.574219,3.03906 -11.796,-0.5 -33.852703,0.28992 -44.72070379,-0.58008 -0.0326518,-0.003 -0.0534966,-0.005 -0.0859375,-0.008 v 15.26562 c 1.40275089,0.16637 2.98606239,0.32561 4.82031249,0.47266 12.7650008,1.01 31.4346568,1.98953 46.2226568,2.51953 -5.763,0.41 2.939312,1.06938 -0.929688,1.85938 -4.127,0.83 -26.221969,2.15976 -26.917969,3.00976 -0.695,0.85 9.306922,0.37 11.419922,1.25 2.113,0.87 -0.489078,1.6518 6.294922,2.3418 6.783,0.69 38.80961,-0.21164 47.59961,-0.43164 8.79,-0.22 8.730625,0.89 13.640625,0 4.91,-0.88 7.69906,-1.71992 7.03906,-2.66992 -0.66,-0.95 -4.5,-1.84946 -11.749998,-2.43946 -7.25,-0.59 4.490858,-1.3 -6.619141,-1.25 -5.65,0.03 -13.341093,-0.52929 -20.621093,-1.02929 14.32,-0.73 32.540232,-2.13094 44.240232,-2.71094 15.64,-0.77 -1.21968,-1.31953 2.82032,-2.51953 4.03,-1.2 -1.1793,-3.49086 -6.7793,-4.63086 -0.25841,-0.0497 -0.41705,-0.10844 -0.5957,-0.14844 3.46766,0.02 -2.81971,-0.64778 -0.004,0 -1.06,0 -3.0307,-0.0502 -6.4707,-0.24023 -12.640005,-0.69 -42.435708,-1.93016 -61.720708,-2.16016 -0.442,-0.95 5.46636,-2.27945 8.693359,-3.43945 1.890001,0.44 4.372422,0.78851 7.732422,0.97851 15.744,0.85 6.854454,-0.65883 20.564454,-1.79883 13.709999,-1.14 50.670393,-1.98086 55.900393,-3.38086 5.23,-1.39 -2.10992,-1.29007 4.83008,-2.83007 6.94,-1.53 -11.2111,-2.96946 -20.6211,-4.43946 -0.58844,-0.0898 -1.06594,-0.17036 -1.43554,-0.24023 8.3174,-0.16995 -5.08077,-0.96859 -0.004,0 -0.84,0.02 -1.88899,0.0293 -3.20899,0.0293 -13.4,0.02 -49.355902,-0.90969 -67.503902,-0.42969 0.312,-0.52 0.106422,-1.05024 0.357422,-1.49024 0.575,-1 7.738437,-2.97898 -1.976563,-3.70898 -9.715,-0.73 -0.275719,0.66984 -10.011719,0.33984 -7.303,-0.25 -14.459656,-0.78101 -21.972656,-0.79101 z m 537.960938,9.18164 c -1.25,0.01 -2.59945,0.0687 -4.18945,0.21875 -7.3,0.66 -10.99078,1.45023 -13.55078,2.49023 -2.56,1.04 -21.52993,1.77063 -23.91993,2.89063 -2.39,1.12 21.58,0.15945 26.5,0.93945 4.91,0.79 -5.80054,1.66984 6.43946,1.58984 12.25,-0.08 27.41,0.61977 39,0.50977 11.59,-0.1 12.64062,-1.31906 19.39062,-2.03906 6.75,-0.71 0.82985,-0.55024 4.58985,-1.49024 3.76,-0.93 -1.57016,-1.11117 -10.91016,-1.70117 -9.35,-0.59 -14.81,-2.03844 -26.5,-2.39844 -9.13,-0.29 -12.37961,-1.02976 -16.84961,-1.00976 z M 321.12847,455.4414 c -2.83,0.01 -3.34961,0.13007 -6.59961,0.58007 -4.72,0.66 -17.3989,1.00938 -22.6289,1.60938 -5.23,0.6 -1.46094,0.92164 -1.71094,1.68164 -0.24,0.75 -3.82914,1.24008 5.13086,1.58008 8.96,0.33 23.43922,1.10875 32.69922,0.96875 9.26,-0.14 8.46976,-0.37055 12.25976,-1.06055 3.79,-0.69 18.37938,-1.30976 20.85938,-2.00976 2.49,-0.71 12.87148,-0.15993 6.27148,-0.66993 -6.61,-0.52 -13.42117,-0.71031 -22.45117,-1.07031 -9.04,-0.35 -9.38008,-1.49812 -18.08008,-1.57812 -2.72,-0.02 -4.47,-0.0312 -5.75,-0.0312 z m -137.85937,0.84961 c 2.87,-0.01 5.93023,0.0814 8.99023,0.1914 -2.52,0.37 -5.45062,0.67836 -9.89062,0.81836 -9.56,0.29 -13.5004,-0.0682 -18.4004,0.0918 6.35,-0.46 12.41993,-0.92031 16.41993,-1.07031 0.94,-0.03 1.90086,-0.0213 2.88086,-0.0312 z m 340.27929,3.6914 c 1.58,0.03 3.60117,0.059 5.45118,0.20899 1.49,0.12 4.16937,0.37062 7.10937,0.64062 -1.59,-0.02 -3.12055,-0.0405 -4.56055,-0.0605 -4.05,-0.08 -6.47,-0.38906 -8,-0.78906 z m 36.57032,0.81836 c 1.21,-0.01 2.62961,0.0318 4.0996,0.0918 -1.89999,-0.02 -3.88968,-0.0312 -5.92968,-0.0312 0.53,-0.04 1.15008,-0.0606 1.83008,-0.0606 z m -225.38868,1.9707 c -14.13,0.04 -5.1707,2.44946 -14.4707,3.43946 -8.77,0.93 -30.24023,1.1314 -42.24023,2.1914 -3.73,-0.32 -8.24024,-0.56046 -13.49024,-0.73047 -16.47,-0.51999 -5.61992,-2.7707 -21.66992,-2.2207 -16.04,0.55 -17.20898,3.20992 -34.70898,3.91992 -9.52,0.39 -18.43165,-0.22015 -25.93165,-0.66015 0.37001,-0.32 3.34118,-0.3186 4.20118,-0.3086 -0.34,-0.01 -1.19039,-0.0198 -3.15039,-0.0898 -8.82,-0.29 -21.13961,-1.56039 -29.84961,-1.40039 -8.72,0.16 -10.51032,1.99984 -16.07032,2.58984 -5.56,0.58 -14.53929,-1.15929 -14.02929,-0.27929 0.51,0.89 3.74859,1.3582 5.30859,2.1582 1.55,0.81 6.92086,2.22 15.88086,2.5 8.97,0.27 5.99938,-1.02906 13.60938,-1.03906 7.3,0 21.07031,0.69968 30.07031,0.42968 2.82,0.4 5.27023,0.76985 6.74023,1.08985 7.17,1.57 -37.99929,1.03125 -19.02929,1.28125 18.97,0.25 54.25914,2.26992 72.86914,1.91992 18.61,-0.35 4.86929,-0.23133 21.27929,-0.61133 16.41,-0.38 8.80008,-0.60015 16.58008,-2.16015 7.77,-1.56 4.66086,-2.15969 4.13086,-3.67969 -0.05,-0.14 -0.16937,-0.26039 -0.35937,-0.40039 8.08,0.42 16.74882,0.83109 20.79882,1.37109 9.89,1.31 4.29961,1.24016 15.34961,2.16016 11.06,0.93 -12.85937,3.05914 3.39063,2.36914 13.18,-0.55 41.37078,0.53055 56.80078,0.31054 -3.75,0.7 -6.31102,1.5893 -8.54102,2.2793 -3.3,1.02 13.75094,0.3511 15.71094,1.3711 1.95,1.02 -1.64117,2.07914 6.79883,2.36914 8.44,0.29 32.25,-2.20899 40.5,-2.45899 8.24,-0.25 12.78086,-0.0799 18.88086,-0.66992 6.1,-0.59 -17.86977,-1.33984 -13.75977,-2.33984 2.16,-0.53 3.90922,-0.58133 4.19922,-0.61133 -0.23,-0.03 -1.31015,-0.11969 -3.66015,-0.42969 -6.27,-0.81 -11.7986,-0.53984 -19.8086,-1.08984 -7.51,-0.52 -7.08031,-1.22946 -13.82031,-1.18946 -0.45,0 -0.92141,-0.01 -1.44141,0 -4.26,0.08 -7.10867,0.44961 -9.88867,0.84961 5.44,-1.78 8.61008,-4.36015 10.58008,-5.41015 2.68,-1.43 19.83023,-2.01953 17.24023,-3.76953 -2.6,-1.76 -19.89179,2.54953 -31.84179,1.26953 -11.95,-1.28 -45.50946,-4.19032 -61.68946,-4.32032 z m 310.72852,1.31055 c -7.72,0.02 -7.98898,0.36977 -16.45898,1.00977 -9.04,0.68 -30.2511,-0.93071 -38.3711,-0.22071 -8.12,0.72 23.78125,1.79024 20.53125,2.74024 -3.24,0.95 -25.13101,0.42 -17.29101,1 7.83,0.59 17.81023,1.32109 27.99023,1.37109 9.59,0.06 28.67984,0.19875 38.33984,0.21875 -0.8,-0.08 -1.03961,-0.21969 0.15039,-0.42969 1.9,-0.34 4.52938,-0.5996 7.10938,-0.84961 v -2.52929 c -4.35,-0.42 -9.12961,-0.83024 -10.84961,-1.24024 -3.69,-0.88 -0.14977,-1.04031 -9.50977,-1.07031 z m 14.74023,6.11914 c 2.15,0.2 8.33008,0 1.83008,0 z M -0.23481129,469.05468 v 3.74609 C 4.109208,472.691 8.2954789,472.56311 10.94683,472.33202 c 6.582,-0.59 7.320781,-1.87055 3.925781,-2.56055 -3.395,-0.69 -9.4739692,0.34032 -13.6679692,-0.42968 -0.53265471,-0.0967 -0.9679195,-0.19138 -1.43945309,-0.28711 z M 651.06597,472.68163 c -1.73797,-0.0136 -3.42008,-0.0127 -5.01758,0.01 -3.77,0.05 -7.0389,0.21007 -9.3789,0.58007 -9.34,1.49 -0.44977,4.42055 0.99023,5.81055 0.59,0.57 -0.34008,0.62938 -1.08008,0.60938 0.61,0.07 1.64883,0.18992 3.29883,0.41992 8.46,1.2 6.67102,5.26984 20.29102,6.08984 2.3,0.14 4.34023,0.22024 6.24023,0.24024 0.38,0.08 0.69883,0.16023 1.04883,0.24023 v -13.65062 c -5.46,-0.135 -11.17867,-0.30883 -16.39258,-0.34961 z M 8.0386262,475.85155 c -0.866,0.01 -1.8513437,0.0396 -3.0273437,0.0996 -2.1512964,0.10342 -3.8358532,0.24149 -5.24609379,0.39845 v 9.77734 c 0.12267401,0.004 0.20464724,0.0117 0.33007812,0.0156 11.62800017,0.35 17.54950017,0.0794 27.18750017,-0.64063 9.637,-0.73 23.994125,0.35883 26.828125,-0.95117 2.834,-1.3 1.317766,-2.49812 5.634766,-3.82812 4.316,-1.33 15.886375,-0.44094 7.734375,-1.46094 -8.15,-1.01 -41.870703,0.52992 -49.220703,-0.33008 -6.661,-0.78 -1.847703,-3.11008 -10.2207038,-3.08008 z M 287.36871,477.4121 c -11.28,0.09 -15.70946,2.40945 -25.43946,3.18945 -10.39,0.83 -7.25953,1.09055 -13.51953,2.56055 -6.27,1.46 -25.29023,3.94961 -17.24023,5.34961 8.05,1.4 25.41961,1.26906 37.34961,1.78906 11.93,0.53 -0.30946,-0.92828 14.06054,-0.23828 14.37,0.69 44.91047,2.08898 56.98047,1.45898 12.07,-0.62 -3.67133,-4.82023 0.38867,-6.24023 4.06,-1.41 19.46961,-2.55992 10.09961,-3.91992 -9.36,-1.36 7.73172,-0.53031 -1.73828,-1.82031 -9.46,-1.3 -45.50031,-1.89891 -58.57031,-2.12891 -0.81,-0.02 -1.61109,-0.01 -2.37109,0 z m 298.8496,0.11914 c -9.74,-0.03 -18.66945,1.01039 -29.18945,1.15039 -10.53,0.15 -2.76945,2.07938 -7.18945,3.10938 -4.43,1.03 3.50992,0.12023 3.16992,1.24023 -0.34,1.12 10.66899,1.02133 17.95898,1.86133 7.29,0.84 7.74055,1.14953 19.06055,1.51953 11.32,0.37 14.40953,0.39023 23.76953,0.24023 9.36,-0.14 2.02086,-1.55078 5.13086,-2.55078 3.1,-1.01 5.52055,-2.69953 0.81055,-3.76953 -4.72,-1.07 16.97891,-1.65992 7.87891,-1.91992 -9.1,-0.26 -31.6504,-0.85086 -41.4004,-0.88086 z m -392.33984,0.12109 c -12.79,0.13 -34.48875,0.0498 -45.46875,0.75977 -10.98,0.71 6.31969,2.26945 -1.32031,3.43945 -7.64,1.17 -12.94109,0.48071 -15.6211,1.97071 -2.66999,1.5 4.16102,2.02031 7.29102,3.32031 3.13,1.3 11.71055,2.22929 24.31055,2.27929 12.6,0.05 17.34015,-1.01968 29.16015,-1.42968 11.82,-0.4 7.46875,1.60929 14.71875,0.27929 7.25,-1.34 4.47016,-4.4596 -0.0898,-5.59961 -4.56,-1.14999 -4.39922,-1.06945 -8.44922,-2.18945 -3.92,-1.09 7.52938,-2.84008 -3.39062,-2.83008 z m 309.01367,6.28711 c -0.93056,-0.008 -1.85015,-0.006 -2.7539,0.0117 -1.04,0.02 -2.0393,0.0611 -3.0293,0.1211 -7.92,0.48 -0.71891,1.18031 -6.62891,1.82031 -5.91,0.64 -9.22062,1.09992 -7.64062,1.91992 0.98,0.51 -1.56984,1.11922 -2.33984,1.69922 -1.83,-0.24 -3.90047,-0.44992 -6.23047,-0.66992 -12.74,-1.16 -35.45946,0.94914 -50.68946,0.36914 -15.23,-0.58 1.33993,-3.17 -15.83007,-2.5 -17.16001,0.68 -28.87008,0.75125 -39.08008,2.53125 -10.21,1.77 -28.48024,3.42922 -25.24024,5.19922 3.24,1.77 33.13039,2.06992 39.65039,3.91992 4.43,1.27 -3.48039,3.06992 -3.65039,4.16992 -14.67,0.9 -22.41976,3.16102 -27.75976,5.54102 -2.85,1.27 -9.85117,0.90007 -17.20118,0.33007 -8.75999,-1.64 -37.88859,-1.00046 -50.80859,-1.73047 -13.25,-0.75 -7.8114,-3.77062 -21.94141,-2.89062 -14.13999,0.88 -3.96859,-0.5193 -14.05859,0.9707 -10.1,1.5 -48.63109,1.45946 -49.37109,3.43946 -0.74,1.98 22.94008,2.38125 33.33008,3.53125 1.05486,0.11675 1.6572,0.25315 1.92968,0.40625 h 77.78907 c 3.87942,-0.40553 8.38042,-0.77556 12.57226,-1.13672 3.89185,0.38234 8.34159,0.75421 12.75586,1.13672 h 144.74219 c -1.72345,-0.74838 -3.67314,-1.50473 -5.06836,-2.23633 2.46046,0.82015 9.72614,1.37642 14.17773,2.23633 h 160.76367 c 1.98979,-1.64027 0.819,-3.24534 -6.63085,-4.17774 -6.91,-0.87 -11.05118,-1.62859 -15.20118,-2.30859 12,0.4 26.78977,0.69976 38.00977,0.50976 v -17.98047 c -0.11,0.02 -0.17883,0.0503 -0.29883,0.0703 -3.03,0.43 -6.95117,0.99937 -10.70117,1.60937 -0.66,-0.09 -1.31852,-0.15 -1.97852,-0.25 -11.88,-1.66 -16.61031,0.51102 -31.57031,-0.20898 -14.95,-0.72 -27.94125,-0.10078 -43.28125,0.69922 -15.34,0.8 -10.77851,4.81945 -20.22851,6.68945 -9.46,1.88 -2.16016,2.08969 9.58984,3.67969 11.75,1.59 18.29023,0.98109 36.99023,1.62109 9.89,0.33 7.89922,0.95008 6.19922,1.58008 -1.63,-0.12 -3.39937,-0.22984 -5.35937,-0.33984 -20.64,-1.13 -36.94,-2.79961 -57.25,-2.09961 -20.32,0.71 -32.41125,3.13 -46.53125,4.75 -14.11,1.62 -15.55977,-0.20071 -25.25977,2.27929 -1.79,0.46 -2.43,0.85946 -2.25,1.18946 -1.07,-0.69 -1.45992,-1.35922 -0.41992,-1.94922 4.63,-2.63 41.55969,-1.08977 25.92969,-3.00977 -15.64,-1.92 -32.77907,-0.16031 -58.03906,-1.07031 -15.69,-0.56 -24.87055,-1.04024 -34.56055,-1.24024 10.98,-1.18999 21.86945,-2.75976 30.93945,-3.00976 15.19,-0.42 53.67016,3.70937 54.91016,1.60937 1.25,-2.11 6.39078,-5.79921 1.80078,-7.44921 -2.87,-1.04 -5.72078,-2.07024 -10.55078,-2.99024 0.23,-0.29 0.56968,-0.61062 3.17968,-0.39062 5.47001,0.46 17.21086,1.52 25.38086,1.25 8.18,-0.28 2.58008,0.72047 10.83008,0.48046 8.24,-0.24 11.97086,-2.62 11.63086,-3.5 -0.34,-0.87 -3.35008,-0.30078 -3.33008,-1.30078 0.02,-1.01 -1.85125,-1.83031 -10.28125,-2.07031 -6.4575,-0.1925 -13.54267,-0.80473 -20.05664,-0.86133 z m -427.322263,2.74219 c -20.428,0.08 18.359765,4.57063 3.509765,6.39063 -14.849,1.82 -74.7170939,2.56882 -77.9960939,5.04882 -3.279,2.48 26.6546569,4.96149 38.0976569,7.52149 1.476,0.32 3.027484,0.53922 4.646484,0.69922 -0.182,-0.02 -0.356016,-0.031 -0.541016,-0.041 -9.987629,-0.53599 -27.865498,-1.70222 -43.52148429,-2.19338 v 8.02149 H 68.29058 c -3.061665,-2.06686 11.48867,0.99381 4.36914,-1.01758 -6.432,-1.82 -12.353844,-3.55 -24.964843,-4.5 10.237,0.36 22.503515,-1.22977 34.353515,0.49023 15.36,2.22 2.181016,1.90078 21.791018,1.30078 5.23,-0.16 13.12984,-0.23148 22.08984,-0.27148 -5.2,1.31 -7.82976,3.21109 -14.50976,3.62109 -7.70912,0.47924 -11.15367,-0.0633 -15.22852,0.37696 h 67.36328 c -4.33674,-0.94169 -5.7925,-2.21308 -15.02539,-2.65625 -4.69,-0.23 -6.03008,-0.83039 -6.83008,-1.40039 21.38,-0.1 44.19094,-0.34133 52.96094,-1.61133 15.02,-2.19 -5.80969,-1.92946 -8.92969,-4.43946 -3.12,-2.52 11.50993,-8.20937 -4.83007,-9.85937 -16.33,-1.66 -11.50172,0.91055 -34.26172,0.0606 -22.76,-0.85 -50.638364,-5.61102 -71.068363,-5.54102 z m 183.269533,4.34961 c -10.63,0.13 -22.79016,0.67062 -32.16016,0.89062 -0.86,0.02 -1.54015,0.009 -2.16015,0.0293 3.13,-0.02 6.91101,0.0699 2.04101,0.66992 -9.82,1.19 -38.96015,3.27133 -35.91015,5.11133 3.04,1.83 3.09953,2.65977 12.01953,4.25977 0.48,0.08 0.84945,0.17023 1.18945,0.24023 0.68,-0.09 2.64992,-0.1214 7.16992,0.0586 16.28,0.63 20.83102,0.85132 35.04102,0.36132 14.21,-0.48 45.21945,2.46008 54.93945,0.83008 9.73,-1.64 3.87891,-3.78078 2.12891,-5.30078 -1.74,-1.51 9.20039,-3.86 6.90039,-5.5 -2.31,-1.64 -22.23985,0.0791 -33.33985,-1.13086 -3.46,-0.38 -8.15039,-0.50953 -13.40039,-0.51953 -1.44,0 -2.93898,-0.01 -4.45898,0 z m -54.98047,11.20117 c -1.62,0.22 4.21,0.82 0,0 z m 20.59961,-10.28125 c -2.79,0.01 -4.98,0.1 0,0 z"
       style="color:#000000;opacity:0.45;fill:#ffffff;fill-rule:evenodd"
       inkscape:connector-curvature="0" />
    <path
       id="path4236"
       d="m 114.24175,366.86327 c -3.71426,0.008 -7.42304,0.0663 -11.12304,0.1875 -28.830005,0.07 -55.129365,0.11 -83.818365,0 -19.50100004,-0.39 -9.6600782,4.15133 6.294922,2.11133 23.62,0 -1.776344,-0.60969 -10.277344,3.32031 29.334,10.73 61.60125,5.87836 92.531247,6.31836 24.27,-0.49 51.59969,2.40156 72.42969,-6.14844 22.01,-3.42 -10.29,2.85008 8.75,3.58008 37.8,-2.64 75.78094,3.89891 113.46094,-0.87109 19.81,-2.34 52.64891,-5.28977 62.87891,0.74023 26,-2.91 57.1696,1.02922 80.0996,-0.55078 -24.73,-2.2 -4.93875,-3.70844 8.53126,-3.64844 26.8,-1.47 -7.83993,-2.9507 -16.91993,-2.7207 -23.86,-2.3 -47.38968,-0.46008 -71.17968,0.66992 -26.37,0.79 -52.39993,1.67922 -78.41993,-2.80078 -36.67,-0.37 -73.31046,0.92063 -109.98046,0.64063 -29.95,1.73 3.14054,0.19101 14.31054,3.04101 -25.305,-1.46125 -51.56855,-3.92574 -77.56836,-3.86914 z m 397.20899,0.0371 c -14.9243,0.0521 -29.83243,0.36828 -44.70117,1.33203 5.32999,2.82 27.84898,1.71899 39.95898,2.20899 35.94,0.04 -14.47875,1.45047 -19.96875,4.98046 23.25,1.87001 46.92844,2.63024 70.14844,0.24024 30.75,-3.13 -3.95907,-1.74945 -15.03907,-4.43945 6.04,-0.58 44.27961,-0.90024 62.09961,-1.74024 29.52,-0.66 -15.63922,1.62953 -11.94921,3.26953 -4.8,8.72 33.59007,5.56953 50.08007,6.01953 -25.94,2.06 -52.50953,0.76954 -77.76953,7.51954 17.37,2 7.4293,1.33976 -4.9707,1.75976 -24.34,-3.46 -49.19016,-3.17914 -73.91016,-2.86914 8.54,6.08 -25.28023,2.01102 -39.24023,5.04102 -10.04,1.35 -67.25914,2.56937 -40.11914,-1.64063 19.2,2.24 12.88875,-2.74023 -1.78125,-2.99023 -6.1,-3.78 35.21133,0.38054 48.36133,-0.43946 0.55,-3.42 8.05836,-0.9114 17.81835,-2.4414 30.61001,0.56 61.60063,2.25148 92.39063,0.77148 -25.2,0.28 3.34008,-1.60078 11.58008,-2.80078 -8.87,-4.13 -45.57078,-3.57055 -65.05078,-3.06055 -25.27,2.81 -50.53828,1.41125 -75.98828,1.53125 -9.75,2.46 -46.37,-4.80078 -41,4.44922 -26.6,0.27 -53.36157,-0.90961 -79.85157,1.40039 -25.22,0.06 -3.86882,7.91039 8.70118,6.15039 24.44999,0.43 49.10937,2.75852 73.10937,3.72852 -9.04,3.26 -45.33984,1.54101 -64.83984,3.29101 -28.37,8.72001 18.43062,5.85047 31.14062,7.73047 5.24,0.32 -31.85008,4.17961 -44.08008,2.34961 -1.02,-3.44 -9.6714,0.19985 -25.1914,-3.41015 -24.63,0.63 -49.04852,-0.91985 -73.72852,-0.0898 -34.08,-4.23 -69.38062,4.81907 -102.89062,-2.46093 -30.090005,-3.92 -60.815755,4.63093 -91.093755,1.71093 -35.679,-2.63 29.766344,5.87899 13.652344,8.45899 17.561,0.61 3.302375,2.61015 -5.265625,3.91015 26.299,3.45 52.716172,-0.14859 79.076176,-0.80859 31.78,0.48 -23.859614,-4.61039 -0.59961,-3.15039 -2.06,-1.74 22.09062,-4.42945 36.89062,-4.68945 15.55,9.22 41.62907,3.2489 61.28906,5.8789 -28.73999,-0.31 -57.48882,-0.14054 -86.04882,3.43946 -30.710004,2.23 1.34008,4.99125 14.08008,4.28125 21.16999,-2.2 44.77039,7.58023 64.40039,1.24023 21.9,-2.25 6.97929,0.68875 -5.72071,3.71875 17.63,5.32 39.97953,3.42102 59.51953,3.54102 29.9,-0.56 -29.26,0.51921 -5,6.94921 30.08,9.5 62.58946,3.62938 93.93946,4.60938 24.28047,1.89605 46.63586,-1.55788 68.03711,-7.05469 1.16701,-0.55733 2.94289,-1.07237 5.5332,-1.46484 -1.83689,0.50379 -3.68264,0.98953 -5.5332,1.46484 -4.33396,2.06979 0.2626,4.76009 7.61328,4.25586 34.08,-3.33 68.20047,3.28914 102.23047,-0.13086 19.72,-2.83 56.92054,-8.12851 66.81054,-1.22851 26.18,-0.82 57.77922,1.53921 81.44922,-0.30079 -26.81,-2.07999 10.41117,-2.45953 -3.79883,-7.01953 -23.28,-2.08 -46.19031,-1.51148 -69.32031,0.72852 -24.64,-0.59 -49.38039,4.07125 -73.40039,-2.71875 -33.95,-4.08 13.4507,-5.98969 23.7207,-6.42969 -9.29,-5.91 -47.23078,-5.74117 -66.55078,-6.45117 -20.46,4.97 -43.14922,-0.45906 -64.44922,1.96094 -7.94733,-2.15458 -17.30731,-3.57235 -26.95898,-3.94922 -2.13773,0.0607 -4.12686,0.0449 -5.75,-0.0977 -4.14934,0.021 -8.31265,0.23639 -12.40234,0.68555 -31.14,3.94 14.78078,6.79094 25.80078,4.46094 25.6,-0.7 -8.72055,-1.27094 2.68945,7.78906 27.01,0.95 54.26977,-3.49859 81.25977,0.69141 -1.15,0.88 -32.40985,1.31906 -43.58985,1.53906 -11.23,-0.77 -65.8189,0.60969 -32.8789,1.67969 32.75,2.98 -7.37164,0.69078 -18.68165,-0.44922 -34.61,-5.34 -70.09906,-2.13922 -104.53906,-1.94922 11.86,-2.21 73.38961,1.86859 45.84961,-7.44141 -28.28,-5.45 -57.89015,-2.16867 -86.66015,-2.63867 -32.75697,-0.80515 9.03052,-4.95142 19.2246,-5.7207 -23.52464,0.91691 22.31559,-7.46216 16.32618,2.74023 35.2,2.79 71.00906,-4.32 106.53906,-1.5 0.33327,0.0445 0.69201,0.0807 1.0625,0.11328 1.92313,-0.01 3.84129,0.0231 5.75,0.0977 14.70953,-0.41778 37.71705,-5.13433 16.08789,-7.33203 13.23,-2.47 33.44094,-0.07 48.46094,-5.5 18,3.15 47.02836,-6.97977 63.81836,3.74023 34.41,1.67 69.08117,0.25985 103.45117,-1.91015 -17.43,-0.49 9.3207,-4.01024 13.9707,-4.74024 7.07,-0.14 47.57938,-0.62 28.85938,-6 -23.37,-1.05 -46.68125,1.07047 -70.03125,0.98047 17.93,3.36 3.63125,2.22016 -4.96875,1.16016 -23.07,-1.85 3.26968,0.54062 -0.57032,-5.35938 25.49,-0.63 50.39922,3.39063 75.69922,1.39063 3.9193,0.32947 5.73811,-0.4927 6.30664,-1.83399 v -2.38867 c -0.78151,-2.68068 -3.57586,-5.83938 -5.19922,-7.11328 -0.28367,0.15131 -0.54245,0.30092 -0.85742,0.45508 -0.73232,-1.3211 -0.16889,-1.26046 0.85742,-0.45508 16.79273,-8.9575 -20.50639,-12.91386 -29.99609,-9.28516 -26.73,1.56 -4.81148,-0.73078 8.22852,-1.80078 h -57.28907 c -24.85625,0.40625 -49.7746,-0.2373 -74.64843,-0.15039 z m -251.85743,44.69141 c 0.70928,-0.0276 1.26637,-0.0347 2.10547,-0.0801 0.85385,-0.12198 -0.27153,-0.0583 -2.10547,0.0801 z m 69.92579,-13.41993 c 2.6,-0.44999 -2.69,-0.13999 0,0 z m 90.3164,-31.14843 c -12.60013,-1.4e-4 13.48492,0.40359 24.76367,0.0273 h -16.83984 c -3.535,-0.02 -6.12381,-0.0273 -7.92383,-0.0273 z m -56.08593,0.0273 c 4.47,1.8 34.76039,0.07 49.15039,0 z m 184.40039,9.76172 1.54882,0.01 z m -236.06055,0.20898 c -4.88,-0.01 -9.75086,0.081 -14.63086,0.29102 -6.48,2.58 -53.55016,0.87859 -28.41016,4.05859 23.29,0.42 41.7511,2.72032 64.3711,0.32032 27.91,-0.4 -11.84008,-4.58993 -21.33008,-4.66993 z m -116.75,0.5 c -19.18,0.02 -38.34024,1.38 -57.49024,2.25 -19.33,1.46 -8.4607,2.43094 4.7793,3.71094 -24.68,0.01 -49.879718,3.25899 -74.636719,0.45899 -20.22,1.27 -51.641249,-5.31907 -65.5312498,3.96093 2.2782008,2.03003 5.0140424,2.96166 7.2324219,3.36133 6.4303299,-0.42558 4.2017939,0.75701 0,0 -1.747548,0.11566 -4.0592176,0.33722 -7.2324219,0.76758 0.8645267,13.71703 27.5539818,5.73808 40.9335938,7.20703 -14.430946,-3.15588 43.191979,-5.3969 11.236328,-7.74609 -28.904,-2.15 4.190594,-1.65961 16.308594,-2.59961 25.5,-5.73 44.360623,8.05 69.140623,5.25 35.02,4.35 69.84907,-1.22055 104.78907,-3.06055 -30.61,-8.59 4.71007,0.95985 13.08007,-9.41016 -18.71,-3.70999 -41.99937,-3.66039 -62.60937,-4.15039 z m 49.5293,13.56055 c -6.55,2.44 -29.21032,4.62899 -42.82032,4.70899 -18.4,0.44 -47.96875,2.29148 -47.46875,8.02148 34.42,-1 68.8786,-0.78047 103.3086,-0.98047 -18.71,-0.51 -11.63828,-2.49039 1.76172,-2.90039 25.23,-3.12 47.42882,-2.19039 74.54882,-5.65039 -29.26,-6.74 -59.66007,-1.64922 -89.33007,-3.19922 z m -201.474615,8.15625 c 0.742125,0.1623 1.618135,0.32687 2.763672,0.49414 -0.833434,-0.22763 -1.765868,-0.38459 -2.763672,-0.49414 z M 32.948783,378.65233 c -4.832,-0.01 -9.652422,0.36891 -14.482422,0.37891 -41.912,2.39 49.103422,3.69109 14.482422,-0.37891 z m 289.634767,4.81836 c -1.51406,-0.0872 -7.16461,0.65664 -0.47461,0.43164 1.025,-0.28 0.9793,-0.40257 0.47461,-0.43164 z m 223.28906,8.58985 c 0.8876,0.008 1.71328,0.0268 2.45703,0.0605 -5.21,0.3 -10.42109,0.72141 -15.62109,1.19141 -27.36563,1.25625 -0.14994,-1.36453 13.16406,-1.25195 z m -424.8125,3.17187 c -15.95,0.11 -31.801484,1.95992 -47.771483,2.16992 12.379999,1.09 44.481093,4.51977 64.121093,2.50977 30.56,-0.92 -5.30961,-4.68969 -16.34961,-4.67969 z m 135.2793,0.68945 2.85937,0.0293 3.33985,0.13086 c 37.01,1.46 -32.87922,0.46984 -6.19922,-0.16016 z m 412.08008,4.98047 c -4.97,0.02 -9.94016,0.22985 -14.91016,0.33985 -8.05,0.46 -51.09984,0.68898 -38.08984,2.70898 24.87,1.11 -8.90118,0.87086 2.79882,3.13086 13.10001,-0.07 54.41118,8.59031 50.20118,-6.17969 z m -216.88282,4.03125 c -7.15982,0.052 -14.11312,2.1886 -21.29687,1.77735 -21.49,0.15 11.40914,3.20109 3.36914,3.12109 27.17,0.68 54.20109,3.74016 80.62109,-0.0898 -14.65,-5.01 -40.69132,-3.98141 -59.61132,-4.69141 -1.0325,-0.0913 -2.0592,-0.12461 -3.08204,-0.11719 z m 151.41211,3.0586 -5.83984,0.0801 c -17.43,1.07 -58.73961,-1.10032 -54.09961,4.42968 17.94,-1.5 2.44992,5.29907 10.41992,6.28907 35.95,-0.42 71.86,-0.8086 107.75,-2.3086 -10.29,-5.03 -38.48914,-7.00023 -55.86914,-8.49023 z m 45.78907,10.33008 c -6.92131,-0.0362 -14.20157,0.16484 -19.50782,0.0898 -12.63,0.14 -25.22109,1.19945 -37.87109,0.68945 -20.1,-0.49 4.56047,2.68938 -4.26953,7.85938 25.51,3.4 51.5007,-1.13852 77.2207,0.52148 13.13813,-7.85125 -0.3454,-9.08055 -15.57226,-9.16015 z m -596.324223,2.42382 c -16.754374,-0.15337 -33.231876,2.26055 -49.9531258,2.79493 4.828,9.86 41.5109068,2.40039 41.8789068,6.65039 -11.414,3.96 -42.9199068,-5.76977 -41.8789068,7.74023 23.8569998,5.65 48.6600468,-2.63016 72.4980468,2.33984 10.36,4.35 48.298912,-2.69015 42.128912,4.58985 12.17,5.15 -1.21907,2.41008 -11.53907,2.08008 -24.779998,-7.27 -51.21906,-0.51899 -76.66406,0.29101 -19.8560007,0.21 -8.394828,1.08024 4.576171,3.74024 27.883001,0.12 37.406954,3.74867 64.376954,-0.86133 35.720005,-2.66 72.130465,0.77117 108.230465,-5.54883 -24.19,-10.33 -54.18039,-0.29055 -80.65039,-3.31055 -32.919997,-0.17 4.94977,-3.24078 18.00977,-4.55078 18.62,-3.03 38.97078,-1.39969 65.30078,-4.42969 27.39,-2.64 -3.31898,-2.46023 -13.70898,-1.74023 -21.7,-3.61 -44.39016,-6.17914 -67.66016,-2.61914 0.4,5.65 -12.57078,4.83047 -25.80078,0.48047 -7.050002,-3.2 -46.172846,2.90929 -30.839846,-1.72071 29.629996,-0.25999 -4.420219,-5.28937 -14.949219,-5.85937 -1.119562,-0.0344 -2.23851,-0.0562 -3.355468,-0.0664 z m 126.455083,13.89649 c -8.27,0.48 2.99,0.48 0,0 z m 358.0957,4.54492 c -12.84734,-0.13938 -25.32735,3.07969 -38.2461,2.55469 -19.91,-0.16 -6.77906,3.16047 4.71094,3.48047 23.87,-0.51 42.60907,3.34 66.78906,-1.5 7.96,0.03 -24.01968,-4.94094 -30.67968,-4.46094 -0.86,-0.0413 -1.71773,-0.0649 -2.57422,-0.0742 z m -114.17578,0.70508 c -9.63,-0.03 -19.25891,0.44851 -28.87891,0.97851 -10.04,0.38 -59.57125,3.03125 -28.03125,5.28125 -2.31,2.34 -35.50992,1.50954 -47.91992,3.01953 -34.37,-3.25 -68.94969,-2.43054 -103.42969,-1.06054 -35.12,7.17 33.80125,8.12133 26.28125,8.36133 -23.99,0.89 -48.63078,1.98859 -71.80078,6.55859 -23.99,1.53 -47.3293,-0.58883 -72.029297,0.95117 7.499997,1.22 -5.48,2.38 -11.25,4.5 1.28,7.99 30.498747,2.50961 41.218747,5.09961 31.14,1.8 -7.53968,-1.12961 -18.67968,3.90039 12.64,4.05 15.83039,5.85008 28.40039,6.08008 17.29,-0.3 45.20906,4.19828 56.03906,-2.01172 16.84,-1.67 14.87992,-3.8393 -0.58008,-4.2793 -18.73,-3.41 -8.9993,-2.92906 4.9707,-3.28906 19.82,3.37 29.18969,-6.33125 3.67969,-7.28125 14.19,-3.8 50.29008,0.80133 72.83008,-0.13867 -23.44,-4.07 42.0007,-6.92039 8.4707,-9.90039 -31.16,-2.79 10.1793,-2.02992 21.5293,-3.41992 25.41,-5.46 42.12961,11.29976 67.59961,6.75976 33.82,5.24 67.39133,-2.04031 101.11133,-3.82031 -31.14,-10.13 5.82008,0.8507 13.08008,-11.2793 -18.47,-4.56 -42.02133,-4.41976 -62.61133,-5.00976 z m 49.53125,16.28906 c -6.67,2.64 -28.66031,5.66016 -42.82031,5.66016 -18.78,0.53 -48.06071,2.85039 -47.47071,9.65039 31.26,-0.67 62.53031,-1.73953 93.82031,-0.76953 25.47,0.16 -16.57914,-1.56 1.88086,-3 25.8,-4.03 43.77883,-2.50055 69.79883,-6.56055 22.04686,0.81042 9.13335,-3.5027 -2.40039,-4.5332 -0.22047,-0.0162 -0.43659,-0.0298 -0.6582,-0.0488 -1.4712,-0.11558 -2.91428,-0.18362 -4.24024,-0.16797 -23.32,-2.04 -46.30015,1.25953 -67.91015,-0.23047 z m 72.15039,0.39844 c 0.22083,0.0173 0.43609,0.029 0.6582,0.0488 2.79481,0.20558 5.48768,0.18719 7.65039,-0.17774 23.13,0.63 46.53125,3.15078 69.03125,4.30078 -8.21,3.96 -45.72179,1.81946 -64.8418,3.93946 -29.07,10.76 20.85118,7.0307 33.95118,9.4707 7.84,1.48 -24.57977,0.14867 -33.25977,4.88867 22.44,4.87 49,3.58117 72.75,1.95117 24.07,-4.07 -2.60148,-3.26937 -14.02148,-5.35937 5.21,-5.94 41.65062,0.60875 53.64062,-7.03125 0.13315,-0.49942 0.22762,-0.95952 0.32617,-1.42383 v -6.86719 c -3.53111,-10.2628 -26.48662,-0.96196 -38.3164,-3.89844 -30.83,-2.77999 25.60984,-1.46054 11.33984,-5.31054 -29.19,-2.73 -3.35844,-4.69969 12.35156,-2.67969 21.83,5.29 15.39953,-12.10977 -2.48046,-6.75977 -1.75,3.15 -48.3004,-4.71046 -33.4004,5.51954 -26.59,0.32 -53.41961,-1.06055 -79.8496,1.68945 -22.4105,0.91998 -8.20291,6.60792 4.4707,7.69922 z m 12.49804,8.11133 c 2.68,-0.7 -3.57,0.11 0,0 z M 260.38824,441.22265 c -4.83,-0.01 -9.64852,0.46851 -14.47852,0.47851 -41.94,2.88 49.13852,4.43149 14.47852,-0.47851 z m 289.64843,5.83789 c -1.50656,-0.105 -7.16328,0.77422 -0.48828,0.51172 1.03,-0.3325 0.99047,-0.47672 0.48828,-0.51172 z m -431.56836,3.57031 c -13.27999,0.8 -26.579527,1.25031 -39.769527,3.07031 -23.702,-0.51 -10.000453,5.23149 5.810547,5.27149 25.54319,1.09635 46.34056,-1.87043 70.10547,-2.33985 -7.64294,-1.01452 -27.5314,-4.83303 -36.14649,-6.00195 z m 36.14649,6.00195 c 2.4263,0.32207 3.64615,0.36849 2.84375,-0.0508 -0.95594,0.0103 -1.89773,0.0321 -2.84375,0.0508 z m 192.13477,4.5293 c -15.36,0.36 -30.60977,2.31937 -46.00977,2.60937 12.37,1.35 44.43914,5.37977 64.11914,3.00977 31.29,-1.2 -7.05937,-5.80914 -18.10937,-5.61914 z m 137.03906,0.83008 2.86133,0.0293 3.33984,0.16016 c 37.01,1.77 -32.89117,0.54055 -6.20117,-0.18945 z m -338.26953,3.58984 c -16.49,1.94 -15.36,0.38 0,0 z m -36.34961,0.79883 c 7.93,0.16 -13.390004,0.12 0,0 z m 218.9082,1.89844 c -25.70138,0.21837 -51.36484,5.90937 -76.94922,3.45312 -34.02,-3.19 23.04117,6.20852 10.95117,7.97852 -11.15,-0.17 -44.16093,0.93101 -39.46093,3.29101 -34.91,3.01 17.04078,2.17922 27.80078,4.19922 8.16,2.21 41.07992,-1.75851 35.91992,-3.97851 1.28,-2.16 37.78039,-1.30016 51.65039,-1.41016 2.45,-1.39 34.52008,-10.48148 39.08008,-2.77148 33.26,7.11 68.07922,2.34109 101.94922,2.12109 20.75,-0.61 2.61992,0.11875 -7.58008,-1.28125 22.98,-5.07 47.22922,3.19078 69.69922,-4.19922 -10.44,-3.36 -56.78844,-3.7 -62.14844,-1.25 -23.84,3.74 -47.56977,-7.47961 -71.00977,-1.59961 -25,1.37 -50.89171,0.77047 -74.76172,-4.51953 -1.71375,-0.0381 -3.42719,-0.0478 -5.14062,-0.0332 z m -305.38672,1.3125 -4.886719,0.0508 c -34.364,4.41 7.963563,8.02976 21.351563,5.75976 7.263,0.3 43.000234,-0.99 31.990234,-1.75 -17.706,0.36 -9.167078,-2.25086 3.919922,-2.38086 5.58,-2.48 -38.174328,0.70032 -50.736328,-1.67968 z m 647.33789,4.11914 -5.25,1.01172 -3.41015,0.28906 c -28.23,-3.39 10.06015,11.13922 8.66015,-1.30078 z M 7.8511262,475.55077 h 1.8164063 z m 1.1445313,2.17188 c -5.527525,0.13671 -9.01720317,2.00117 -6.5332032,11.02929 5.687,9.78 54.7803907,-11.47953 21.2753907,-10.76953 -4.911375,0.57313 -10.443001,-0.3661 -14.7421875,-0.25976 z m 652.8261725,3.21093 c -1.14422,-0.0312 -2.42023,0.0112 -3.83398,0.13868 -18.54,6.35 -39.43985,1.43031 -59.08985,3.32031 5.79,4.88 36.13047,6.94906 52.73047,6.78906 15.08438,7.19063 27.35661,-9.77955 10.19336,-10.24805 z m -572.330079,1.4668 c -2.41541,-0.01 -4.580703,0.082 -6.283203,0.30078 -13.07,1.01 -61.708593,-0.82953 -33.308593,2.73047 0.577,13 39.278906,3.64047 54.378905,3.98047 31.29875,-1.8725 2.12076,-6.94514 -14.787109,-7.01172 z m 290.806639,0.18164 c -5.2,-0.02 -10.40937,0.17 -15.60937,0.25 -16.71,0.26 -69.16016,0.47945 -36.66016,7.43945 -4.96,4.36 -4.50054,7.65071 5.68945,6.22071 34.22,-1.22 68.33922,-0.91008 102.44922,-3.08008 -9.92,-6.31 -38.39914,-8.92008 -55.86914,-10.83008 z m 87.38282,0.23438 c -1.17873,0.0367 -1.28547,0.41914 1.70703,1.88476 -31.53,10.3 14.13031,8.27094 26.32031,9.46094 8.23,2.56 56.16883,-3.65992 29.29883,-6.66992 -7.3,-6.06 -31.54953,-4.24992 -51.76953,-4.66992 -0.75375,0.4725 -4.04115,-0.053 -5.55664,-0.006 z m -301.73047,6.13867 c -6.61787,0.0641 -13.21703,0.65219 -19.83203,0.83594 -31.94,4.57 14.42906,8.91992 25.78906,5.66992 26.8,-1.59 -10.21883,-0.40985 2.70117,9.91015 28.33,0.92 57.06984,-4.3589 85.33984,1.3711 -27.69,1.33 -55.40156,1.48929 -83.10156,1.52929 -22.14,1.09 -5.00836,2.31094 5.68164,2.21094 5.58045,0.87153 8.44744,1.37268 9.59571,1.64649 h 125.28124 c -6.36272,-0.64353 -12.67043,-1.89392 -18.89843,-4.14649 -34.04,-5.11 13.0707,-7.63117 23.7207,-8.20117 -4.74,-6.44 -40.19922,-7.01867 -55.44922,-7.88867 -17.02,-0.02 -33.33015,4.20898 -51.41015,1.70898 -18.06,1.75 -30.73008,-0.99062 -46.58008,-4.64062 -0.94625,-0.015 -1.89248,-0.015 -2.83789,-0.006 z m 424.89648,2.67578 c -33.29,0.72 -66.10976,7.82992 -99.50976,4.91992 -21.5,-4.07 -1.39922,15.18031 -21.19922,12.32031 -1.31098,2.85707 12.99836,3.12712 25.64257,3.25782 h 83.40235 c 10.08706,-0.33968 20.22289,-0.71169 27.20508,-1.19727 14.52015,0.0205 10.10955,0.1801 2.7207,1.19727 h 60.97266 c -4.05292,-7.45082 -21.58301,-1.35008 -31.83399,-2.2168 -36.49,1.77 17.72039,-1.84109 26.65039,-7.12109 -23.12,-3.53 -46.76961,-2.50883 -70.09961,-4.29883 -26.42,0.71 11.99883,-7.28133 -3.95117,-6.86133 z m -574.859375,1.14453 c -6.80747,0.008 -12.0248125,1.43461 -13.5273438,6.32617 -11.591,24.3 54.3555628,4.54016 27.3515628,12.66016 -2.231061,0.0383 -4.05207,0.16732 -5.525391,0.36719 H 187.97027 c -5.12896,-0.39584 -13.03491,-1.11624 -17.35156,-1.22657 -37.45,-6.36 -75.480943,-6.03093 -113.210943,-2.71093 12.18,-3.79 38.561328,-0.39055 55.611333,-4.81055 -11.88,-9.84 -37.300692,-9.5982 -55.429692,-9.4082 -9.812906,3.9375 -28.605484,-1.21344 -41.601563,-1.19727 z m 392.679685,3.10547 c -16.96,0.57 -34.02843,0.53156 -50.89843,1.60156 12.04,2.63 -1.53125,9.2793 8.96875,10.5293 31.45,0.26 62.97117,-0.9393 94.45117,-1.2793 31.37,-3.87 -3.0607,-8.88984 -15.97071,-8.83984 -4.1,-2.05 -21.37078,-1.35172 -36.55078,-2.01172 z m 261.36133,0.20117 c -1.38,-0.06 0.57,0.98 0,0 z m -227.18164,0.68945 2.89063,0.041 z m 20.4707,10.01954 -0.9707,0.39062 z m -51.15625,2.11914 c -13.42125,-0.0425 -26.78203,0.80187 -40.2539,2.5625 -8.25826,-0.26026 -16.53007,0.21849 -24.77344,0.65625 h 117.62305 c -4.70748,-1.0552 -15.91251,-1.88535 -21.08985,-1.52735 -10.59187,-1.08937 -21.06711,-1.65835 -31.50586,-1.6914 z"
       style="color:#000000;opacity:0.45;fill:#ffffff;fill-rule:evenodd"
       inkscape:connector-curvature="0" />
    <path
       id="path7697"
       style="fill:#ffffff;fill-rule:evenodd;stroke:#8d8d8d;stroke-width:1px"
       d="m 371.65919,388.19174 c 0,0 -0.49,13.13 0.48,16.53 0.98,3.4 0.98,5.35 0.98,5.35 l 11.38,-1.95 3.53,-19.93 h -9.57 z"
       inkscape:connector-curvature="0" />
    <path
       id="path7582"
       style="color:#000000;opacity:0.49230999;fill:#fff6d5;fill-rule:evenodd;stroke-width:1.21427155"
       d="M -0.81923641,88.520154 A 87.876829,87.137338 0.96300318 0 0 87.612961,2.0323708 L -0.26533333,1.3810318 Z"
       inkscape:connector-curvature="0" />
    <path
       id="path7687"
       style="fill:none;stroke:#000000;stroke-width:3.20000005;stroke-linecap:round"
       d="m 447.98919,160.66174 35.97,211.49"
       inkscape:connector-curvature="0" />
    <path
       id="path7689"
       style="fill:url(#radialGradient8743);fill-rule:evenodd"
       d="m 448.95919,181.57174 30.14,177.45 c 0,0 -62.92,7.99 -74.38,5.35 -6.32,-1.46 0.48,-0.98 0.48,-0.98 l 6.32,-0.97 c 0,0 29.17,-162.86 34.04,-171.62 4.86,-8.75 2.91,-9.23 3.4,-9.23 z"
       inkscape:connector-curvature="0" />
    <path
       id="rect7693"
       d="m 412.04291,399.21774 h 104.11018 v 7.97217 H 412.04291 Z"
       style="color:#000000;fill:#333333;fill-rule:evenodd;stroke-width:0.99999887"
       transform="matrix(0.99828835,-0.0584839,0.03676614,0.9993239,0,0)"
       inkscape:connector-curvature="0" />
    <path
       id="path7695"
       style="fill:url(#linearGradient8739);fill-rule:evenodd;stroke:#7c7c7c;stroke-width:1px"
       d="m 385.26919,388.19174 52.02,-5.35 c 0,0 85.57,-5.83 89.94,-5.83 4.38,0 36.46,-0.97 36.46,-0.97 l -16.04,25.28 -16.53,2.91 c 0,0 -3.4,-4.86 -5.83,-2.43 -2.43,2.43 -3.41,0.97 -6.32,0.97 -2.92,0 -6.81,2.44 -6.81,2.44 0,0 -11.67,0.97 -14.58,0.97 -2.92,0 -4.87,-0.97 -7.78,0 -2.92,0.97 -6.81,2.43 -9.73,0.97 -2.91,-1.46 -6.32,-1.94 -8.75,-0.97 -2.43,0.97 -2.43,2.91 -8.75,1.46 -6.32,-1.46 -6.32,-1.46 -12.64,-1.46 -6.32,0 -6.81,0.48 -11.18,1.94 -4.38,1.46 -6.81,1.95 -10.7,1.46 -3.89,-0.49 -4.37,1.95 -10.69,2.43 -6.32,0.49 -4.38,1.95 -9.73,1.95 -5.34,0 -1.94,-1.46 -9.23,-1.46 h -14.1 c -4.86,0 -4.38,2.43 -8.75,0 -4.38,-2.43 -0.97,-2.43 -0.97,-2.43 0,0 8.26,-1.95 8.75,-7.78 0.48,-5.84 1.94,-13.13 1.94,-14.1 z"
       inkscape:connector-curvature="0" />
    <path
       id="path7705"
       style="fill:none;stroke:#6c6c6c;stroke-width:1px"
       d="m 371.65919,388.19174 1.46,-6.32 c 0,0 56.92,-5.24 80.21,-7.29 50.08,-4.38 96.75,-3.41 101.61,-3.41 4.87,0 10.7,-0.48 10.7,-0.48 l -2.92,5.35"
       inkscape:connector-curvature="0" />
    <path
       id="path8706"
       style="fill:none;stroke:#9d9d9d;stroke-width:0.99214px"
       d="m 417.83919,326.93174 c 19.58,2.44 37.14,2.47 55.43,-3.4"
       inkscape:connector-curvature="0" />
    <path
       id="path8708"
       style="fill:none;stroke:#9d9d9d;stroke-width:0.99214px"
       d="m 427.55919,278.32174 c 13.06,2.43 24.76,2.46 36.96,-3.41"
       inkscape:connector-curvature="0" />
    <path
       id="path8710"
       style="fill:none;stroke:#9d9d9d;stroke-width:0.99214px"
       d="m 437.28919,226.45174 c 7.04,2.19 13.36,2.22 19.94,-3.08"
       inkscape:connector-curvature="0" />
    <path
       id="path8746"
       style="fill:#800000;fill-rule:evenodd"
       d="m 385.13919,391.29174 -0.58,5.74 c 68.68,-7.8 165.29,-12.37 172.83,-11.73 l 4.24,-5.99 c -57.9,1.56 -115.6,5.45 -170.45,11.33 -1.99,0.22 -4.07,0.43 -6.04,0.65 z"
       inkscape:connector-curvature="0" />
    <path
       id="path8748"
       style="fill:#ffffff;fill-rule:evenodd"
       d="m 367.74919,412.63174 h 10.71 c 2.89,0 6.32,-0.67 9.45,-0.67 3.82,0 5.95,-2.61 8.82,-3.39 2.63,-0.7 5.65,0.68 8.83,0.68 h 9.45 c 3.27,0 7.11,-0.05 9.45,-0.68 3.8,-1.02 6.64,-2.03 10.71,-2.03 4.23,0 5.48,-2.03 10.09,-2.03 h 9.45 c 3.94,0 5.09,-0.15 8.19,0.68 3.26,0.87 6.68,-0.54 8.19,-1.35 3.36,-1.81 7.3,1.06 8.82,2.7 2.09,2.24 10.12,-2.03 12.61,-2.03 3.82,0 8.45,0.1 11.34,-0.67 2.95,-0.8 7.01,0 10.08,0 1.11,0 6.18,-4.74 12.61,-4.74 3.45,0 7.35,1.24 10.08,2.71 2.63,1.41 7.32,-0.55 8.82,-1.36 5.16,-2.77 3.59,1.51 1.26,3.39 -3,2.41 -6.33,2.03 -10.08,2.03 -4.86,0 -9.27,0.67 -13.86,0.67 -5,0 -8.29,2.03 -13.24,2.03 -4.43,0 -7.77,0.61 -11.97,1.36 -4.95,0.88 -10.73,0 -15.75,0 -4.31,0 -8.42,-0.56 -11.98,1.35 -3.15,1.69 -6.23,2.03 -10.08,2.03 h -13.86 c -3.7,0 -5.89,-1.35 -10.09,-1.35 -3.22,0 -6.25,0.67 -10.08,0.67 -4.43,0 -6.6,0.68 -10.71,0.68 -2.5,0 -5.92,2.71 -9.45,2.71 h -9.46 c -3.1,0 -6.63,0.67 -10.08,0.67 h -10.08 c -3.89,0 -11.6,-3.14 -11.97,-4.73 -0.31,-1.33 2.52,0.45 3.78,0.67 z"
       inkscape:connector-curvature="0" />
    <path
       id="path13657"
       style="opacity:0.28077004;fill:#008080"
       d="m 501.23919,106.46174 c 0.06,-0.11 0.1,-0.21 0.1,-0.23 0,-0.03 -0.36,-0.05 -0.8,-0.06 -0.53,-0.01 -0.86,-0.06 -0.98,-0.15 -0.09,-0.08 -0.36,-0.28 -0.6,-0.44 -0.52,-0.36 -0.72,-0.72 -0.51,-0.91 0.07,-0.08 0.59,-0.21 1.14,-0.29 1.99,-0.31 4.68,-1.11 5.99,-1.8 0.5,-0.26 0.92,-0.47 0.94,-0.47 0.08,0 0.93,-0.6 1.05,-0.74 0.07,-0.08 0.22,-0.19 0.34,-0.23 0.13,-0.04 0.21,-0.16 0.22,-0.35 0.01,-0.15 0.04,-0.38 0.08,-0.52 0.05,-0.19 0.02,-0.26 -0.17,-0.329998 -0.33,-0.14 -0.33,-0.34 0.01,-0.83 0.19,-0.27 0.27,-0.46 0.21,-0.52 -0.06,-0.05 -0.1,-0.22 -0.1,-0.38 0,-0.16 -0.06,-0.35 -0.14,-0.44 -0.31,-0.35 -1.45,-2.74 -1.91,-4.01 -0.1,-0.27 -0.24,-0.61 -0.31,-0.77 -0.07,-0.16 -0.16,-0.42 -0.2,-0.58 -0.04,-0.16 -0.16,-0.35 -0.26,-0.42 -0.13,-0.08 -0.19,-0.24 -0.19,-0.5 0,-0.28 -0.05,-0.4 -0.2,-0.48 -0.15,-0.08 -0.2,-0.2 -0.2,-0.48 0,-0.26 -0.05,-0.41 -0.17,-0.47 -0.11,-0.06 -0.17,-0.23 -0.18,-0.49 -0.02,-0.27 -0.1,-0.47 -0.24,-0.6 -0.23,-0.21 -0.28,-0.56 -0.09,-0.74 0.09,-0.08 0.07,-0.12 -0.05,-0.17 -0.12,-0.05 -0.17,-0.18 -0.17,-0.47 0,-0.26 -0.06,-0.46 -0.16,-0.54 -0.12,-0.1 -0.14,-0.23 -0.09,-0.55 0.05,-0.33 0.03,-0.47 -0.1,-0.61 -0.14,-0.142 -0.16,-0.276 -0.11,-0.626 0.08,-0.491 -0.09,-1.116 -0.5,-1.892 -0.13,-0.247 -0.24,-0.54 -0.24,-0.651 0,-0.111 -0.16,-0.401 -0.35,-0.644 -0.2,-0.244 -0.35,-0.498 -0.35,-0.566 0,-0.209 -0.71,-1.444 -0.94,-1.633 -1.89,-1.563 -2.36,-2.125 -2.44,-2.927 l -0.06,-0.541 0.26,0.064 c 0.15,0.035 0.27,0.047 0.27,0.026 0,-0.02 -0.12,-0.238 -0.26,-0.483 -0.23,-0.396 -0.24,-0.483 -0.14,-0.783 0.06,-0.185 0.08,-0.424 0.05,-0.531 -0.05,-0.139 -0.02,-0.195 0.09,-0.195 0.2,0 0.2,-0.102 0.01,-0.343 -0.19,-0.246 -0.19,-0.309 0.02,-0.362 0.15,-0.038 0.15,-0.046 0.02,-0.056 -0.09,-0.006 -0.24,-0.118 -0.33,-0.248 -0.13,-0.192 -0.14,-0.284 -0.05,-0.482 0.1,-0.204 0.09,-0.277 -0.06,-0.438 -0.16,-0.174 -0.17,-0.194 -0.02,-0.194 0.23,0 0.22,-0.035 -0.16,-0.86 -0.24,-0.523 -0.29,-0.727 -0.19,-0.757 0.08,-0.028 0.1,-0.143 0.06,-0.37 l -0.07,-0.329 0.48,-1.687 2.58,1.687 4.57,4.416 c 2.52,2.429 5.18,4.98 5.91,5.669 1.42,1.334 2.37,2.432 3.56,4.149 1.18,1.689 1.35,2.077 1.52,3.457 0.36,2.97 1.24,5.74 2.46,7.72 l 0.21,0.34 0.44,-0.15 c 0.24,-0.08 0.62,-0.3 0.84,-0.5 0.45,-0.41 1.1,-0.84 1.47,-0.98 0.14,-0.05 0.22,-0.14 0.19,-0.19 -0.11,-0.17 0.15,-0.37 0.76,-0.59 0.33,-0.11 0.59,-0.25 0.59,-0.3 0,-0.04 0.25,-0.19 0.55,-0.33 0.3,-0.13 0.7,-0.39 0.89,-0.57 0.19,-0.18 0.44,-0.33 0.55,-0.33 0.13,0 0.22,-0.09 0.27,-0.27 0.03,-0.14 0.21,-0.41 0.38,-0.58 0.18,-0.18 0.32,-0.37 0.33,-0.43 0.01,-0.07 0.02,-0.17 0.03,-0.24 0,-0.06 0.15,-0.19 0.32,-0.27 0.28,-0.14 0.33,-0.14 0.55,0 0.26,0.16 0.44,0.13 0.44,-0.08 0,-0.07 0.12,-0.18 0.26,-0.26 0.32,-0.16 0.38,-0.11 1.35,1.36 0.99,1.49 1.2,1.96 1.12,2.46 -0.07,0.35 -0.11,0.39 -0.53,0.53 -0.26,0.08 -0.53,0.19 -0.6,0.25 -0.08,0.05 -0.3,0.16 -0.49,0.23 -0.2,0.07 -0.45,0.21 -0.56,0.3 -0.11,0.1 -0.53,0.29 -0.92,0.42 -1.01,0.33 -2.2,0.94 -2.78,1.43 l -0.49,0.42 1.66,0.06 c 1.49,0.06 1.76,0.09 2.54,0.35 0.48,0.16 1.05,0.41 1.27,0.56 0.69,0.46 0.8,0.5 1.73,0.56 1.12,0.08 1.67,0.31 1.91,0.78 0.09,0.19 0.14,0.4 0.11,0.47 -0.07,0.169998 -0.77,0.249998 -1.82,0.179998 -0.84,-0.05 -0.97,-0.03 -2.05,0.31 -1.35,0.41 -2.04,0.76 -3.25,1.6 -1.49,1.05 -1.78,1.19 -3.28,1.62 -0.79,0.22 -2,0.58 -2.69,0.79 -0.69,0.21 -1.48,0.42 -1.76,0.47 -1.33,0.25 -5.32,0.55 -6.65,0.5 -0.47,-0.01 -1.31,0.05 -1.89,0.14 -0.8,0.13 -1.1,0.14 -1.29,0.05 -0.14,-0.06 -0.41,-0.11 -0.6,-0.11 -0.19,0 -0.56,-0.05 -0.8,-0.11 -0.58,-0.14 -1.04,-0.01 -1.67,0.46 -0.43,0.32 -0.54,0.36 -1.6,0.48 -0.62,0.07 -1.29,0.17 -1.48,0.23 -0.19,0.06 -0.61,0.1 -0.93,0.1 -0.55,0 -0.58,-0.01 -0.48,-0.18 z"
       inkscape:connector-curvature="0" />
    <path
       id="path14628"
       style="opacity:0.28077004;fill:#008080"
       d="m 549.61919,116.28174 c 0.04,-0.07 0.07,-0.14 0.07,-0.15 0,-0.02 -0.24,-0.04 -0.53,-0.04 -0.35,-0.01 -0.57,-0.04 -0.65,-0.1 -0.06,-0.05 -0.24,-0.18 -0.39,-0.29 -0.35,-0.24 -0.48,-0.47 -0.34,-0.6 0.05,-0.05 0.39,-0.14 0.75,-0.19 1.31,-0.2 3.09,-0.74 3.95,-1.19 0.33,-0.17 0.61,-0.31 0.62,-0.31 0.05,0 0.61,-0.39 0.69,-0.48 0.05,-0.06 0.15,-0.13 0.23,-0.16 0.09,-0.03 0.14,-0.11 0.14,-0.23 0.01,-0.1 0.03,-0.25 0.06,-0.34 0.03,-0.13 0.01,-0.17 -0.11,-0.22 -0.22,-0.1 -0.22,-0.23 0,-0.55 0.13,-0.18 0.18,-0.3 0.14,-0.34 -0.04,-0.04 -0.06,-0.15 -0.06,-0.25 0,-0.11 -0.04,-0.24 -0.09,-0.29 -0.21,-0.24 -0.96,-1.81 -1.27,-2.65 -0.06,-0.17 -0.15,-0.4 -0.2,-0.51 -0.05,-0.1 -0.11,-0.28 -0.14,-0.38 -0.02,-0.11 -0.1,-0.23 -0.17,-0.28 -0.08,-0.05 -0.12,-0.16 -0.12,-0.33 0,-0.18 -0.03,-0.26 -0.13,-0.31 -0.1,-0.05 -0.13,-0.14 -0.13,-0.32 0,-0.17 -0.04,-0.27 -0.11,-0.31 -0.08,-0.04 -0.12,-0.15 -0.13,-0.33 -0.01,-0.17 -0.06,-0.3 -0.15,-0.39 -0.16,-0.14 -0.19,-0.37 -0.06,-0.49 0.05,-0.05 0.05,-0.08 -0.04,-0.11 -0.08,-0.03 -0.11,-0.12 -0.11,-0.31 0,-0.17 -0.04,-0.31 -0.1,-0.36 -0.08,-0.06 -0.1,-0.15 -0.06,-0.36 0.03,-0.22 0.01,-0.31 -0.07,-0.4 -0.09,-0.1 -0.1,-0.18 -0.07,-0.42 0.05,-0.32 -0.06,-0.73 -0.33,-1.24 -0.09,-0.17 -0.16,-0.36 -0.16,-0.43 0,-0.08 -0.11,-0.27 -0.23,-0.43 -0.13,-0.16 -0.23,-0.329998 -0.23,-0.369998 0,-0.14 -0.47,-0.96 -0.62,-1.08 -1.25,-1.03 -1.56,-1.4 -1.62,-1.93 l -0.03,-0.36 0.17,0.04 c 0.1,0.03 0.18,0.03 0.18,0.02 0,-0.01 -0.08,-0.16 -0.17,-0.32 -0.15,-0.26 -0.17,-0.32 -0.1,-0.51 0.04,-0.13 0.06,-0.28 0.04,-0.36 -0.03,-0.09 -0.02,-0.12 0.06,-0.12 0.13,0 0.13,-0.07 0,-0.23 -0.12,-0.16 -0.12,-0.2 0.02,-0.24 0.1,-0.02 0.1,-0.03 0.01,-0.04 -0.06,0 -0.16,-0.07 -0.22,-0.16 -0.08,-0.13 -0.09,-0.19 -0.03,-0.32 0.07,-0.13 0.06,-0.18 -0.04,-0.29 -0.11,-0.11 -0.11,-0.12 -0.01,-0.12 0.14,0 0.14,-0.03 -0.11,-0.57 -0.16,-0.35 -0.19,-0.48 -0.13,-0.5 0.06,-0.02 0.07,-0.1 0.04,-0.25 l -0.04,-0.21 0.31,-1.12 1.71,1.12 3.01,2.91 c 1.66,1.6 3.42,3.29 3.9,3.74 0.94,0.88 1.56,1.609998 2.35,2.739998 0.78,1.11 0.89,1.37 1,2.28 0.24,1.96 0.82,3.79 1.63,5.1 l 0.13,0.22 0.3,-0.1 c 0.16,-0.05 0.41,-0.2 0.55,-0.33 0.3,-0.27 0.73,-0.56 0.97,-0.65 0.09,-0.03 0.15,-0.09 0.13,-0.12 -0.08,-0.12 0.1,-0.25 0.5,-0.39 0.22,-0.08 0.39,-0.16 0.39,-0.2 0,-0.03 0.16,-0.13 0.36,-0.21 0.2,-0.09 0.47,-0.26 0.59,-0.38 0.13,-0.12 0.29,-0.22 0.36,-0.22 0.09,0 0.15,-0.06 0.18,-0.18 0.02,-0.09 0.14,-0.27 0.25,-0.38 0.12,-0.12 0.21,-0.25 0.22,-0.29 0,-0.04 0.01,-0.11 0.02,-0.15 0,-0.05 0.1,-0.13 0.21,-0.18 0.19,-0.09 0.22,-0.09 0.36,0 0.17,0.11 0.3,0.08 0.3,-0.06 0,-0.04 0.07,-0.12 0.16,-0.16 0.22,-0.11 0.25,-0.08 0.89,0.89 0.66,0.98 0.8,1.3 0.74,1.62 -0.04,0.24 -0.07,0.27 -0.35,0.35 -0.17,0.06 -0.34,0.13 -0.39,0.17 -0.05,0.04 -0.2,0.1 -0.33,0.15 -0.12,0.05 -0.29,0.14 -0.36,0.2 -0.08,0.07 -0.35,0.19 -0.61,0.27 -0.67,0.22 -1.45,0.63 -1.84,0.95 l -0.32,0.28 1.1,0.04 c 0.98,0.04 1.16,0.06 1.67,0.23 0.32,0.1 0.69,0.27 0.84,0.37 0.45,0.3 0.53,0.33 1.14,0.37 0.74,0.05 1.1,0.2 1.26,0.51 0.06,0.13 0.1,0.27 0.08,0.31 -0.05,0.12 -0.51,0.16 -1.2,0.12 -0.56,-0.03 -0.65,-0.02 -1.36,0.2 -0.89,0.28 -1.35,0.51 -2.14,1.06 -0.98,0.69 -1.18,0.79 -2.17,1.07 -0.52,0.15 -1.32,0.38 -1.77,0.52 -0.46,0.14 -0.98,0.28 -1.16,0.31 -0.88,0.16 -3.51,0.36 -4.4,0.33 -0.3,-0.01 -0.86,0.03 -1.24,0.09 -0.53,0.09 -0.72,0.1 -0.85,0.04 -0.09,-0.04 -0.27,-0.07 -0.4,-0.07 -0.13,0 -0.36,-0.04 -0.53,-0.08 -0.38,-0.09 -0.68,-0.01 -1.1,0.3 -0.28,0.22 -0.36,0.24 -1.05,0.32 -0.41,0.05 -0.85,0.12 -0.98,0.15 -0.13,0.04 -0.4,0.07 -0.62,0.07 -0.35,0 -0.37,-0.01 -0.31,-0.12 z"
       inkscape:connector-curvature="0" />
    <path
       id="path14630"
       style="opacity:0.28077004;fill:#008080"
       d="m 50.267189,228.51174 c 0.037,-0.07 0.068,-0.14 0.068,-0.15 0,-0.02 -0.239,-0.03 -0.53,-0.04 -0.353,0 -0.569,-0.04 -0.645,-0.1 -0.063,-0.05 -0.242,-0.18 -0.398,-0.29 -0.347,-0.24 -0.478,-0.47 -0.34,-0.6 0.052,-0.05 0.392,-0.14 0.756,-0.19 1.309,-0.2 3.086,-0.73 3.951,-1.19 0.33,-0.17 0.608,-0.31 0.619,-0.31 0.052,0 0.613,-0.39 0.692,-0.48 0.05,-0.06 0.151,-0.13 0.225,-0.15 0.088,-0.04 0.138,-0.12 0.145,-0.24 0.007,-0.1 0.031,-0.25 0.054,-0.34 0.034,-0.13 0.012,-0.17 -0.11,-0.22 -0.219,-0.09 -0.217,-0.22 0.007,-0.55 0.125,-0.18 0.174,-0.3 0.134,-0.34 -0.034,-0.03 -0.063,-0.15 -0.063,-0.25 0,-0.1 -0.04,-0.23 -0.089,-0.29 -0.208,-0.23 -0.961,-1.81 -1.266,-2.65 -0.064,-0.17 -0.154,-0.4 -0.202,-0.51 -0.047,-0.1 -0.108,-0.27 -0.135,-0.38 -0.027,-0.1 -0.103,-0.23 -0.17,-0.27 -0.083,-0.06 -0.122,-0.17 -0.122,-0.33 0,-0.19 -0.034,-0.27 -0.132,-0.32 -0.098,-0.05 -0.132,-0.14 -0.132,-0.32 0,-0.17 -0.037,-0.27 -0.111,-0.31 -0.072,-0.04 -0.116,-0.15 -0.125,-0.32 -0.009,-0.18 -0.06,-0.31 -0.153,-0.4 -0.154,-0.13 -0.184,-0.37 -0.063,-0.48 0.059,-0.06 0.051,-0.09 -0.033,-0.12 -0.079,-0.03 -0.111,-0.12 -0.111,-0.31 0,-0.17 -0.039,-0.3 -0.104,-0.36 -0.081,-0.06 -0.095,-0.15 -0.062,-0.36 0.034,-0.22 0.019,-0.31 -0.068,-0.4 -0.088,-0.09 -0.102,-0.18 -0.066,-0.41 0.05,-0.33 -0.06,-0.74 -0.335,-1.25 -0.087,-0.16 -0.158,-0.36 -0.158,-0.43 0,-0.07 -0.104,-0.27 -0.232,-0.43 -0.127,-0.16 -0.231,-0.32 -0.231,-0.37 0,-0.14 -0.467,-0.95 -0.618,-1.08 -1.247,-1.03 -1.556,-1.4 -1.613,-1.93 l -0.038,-0.36 0.175,0.05 c 0.097,0.02 0.176,0.03 0.176,0.01 0,-0.01 -0.077,-0.15 -0.171,-0.32 -0.152,-0.26 -0.162,-0.31 -0.094,-0.51 0.042,-0.12 0.057,-0.28 0.034,-0.35 -0.03,-0.09 -0.013,-0.13 0.061,-0.13 0.13,0 0.131,-0.07 0.007,-0.23 -0.128,-0.16 -0.125,-0.2 0.014,-0.24 0.098,-0.02 0.1,-0.03 0.008,-0.03 -0.06,-0.01 -0.156,-0.08 -0.215,-0.17 -0.086,-0.12 -0.092,-0.18 -0.03,-0.32 0.063,-0.13 0.056,-0.18 -0.044,-0.28 -0.108,-0.12 -0.109,-0.13 -0.01,-0.13 0.147,0 0.142,-0.03 -0.106,-0.57 -0.157,-0.34 -0.192,-0.48 -0.13,-0.5 0.058,-0.02 0.071,-0.09 0.042,-0.24 l -0.042,-0.22 0.313,-1.11 1.701,1.11 3.018,2.91 c 1.66,1.61 3.415,3.29 3.9,3.74 0.939,0.88 1.561,1.61 2.35,2.74 0.777,1.12 0.891,1.38 1.001,2.28 0.238,1.96 0.82,3.79 1.625,5.1 l 0.135,0.22 0.291,-0.09 c 0.161,-0.06 0.41,-0.21 0.555,-0.34 0.3,-0.27 0.727,-0.55 0.972,-0.64 0.092,-0.04 0.148,-0.09 0.124,-0.13 -0.072,-0.11 0.099,-0.25 0.505,-0.39 0.214,-0.07 0.39,-0.16 0.39,-0.19 0,-0.04 0.162,-0.13 0.36,-0.22 0.198,-0.09 0.463,-0.26 0.589,-0.38 0.125,-0.12 0.287,-0.22 0.36,-0.22 0.088,0 0.146,-0.06 0.176,-0.17 0.025,-0.1 0.139,-0.27 0.255,-0.39 0.115,-0.11 0.212,-0.24 0.216,-0.29 0.004,-0.04 0.012,-0.11 0.018,-0.15 0.005,-0.04 0.101,-0.12 0.213,-0.18 0.187,-0.09 0.217,-0.09 0.366,0 0.169,0.11 0.291,0.09 0.291,-0.05 0,-0.05 0.075,-0.12 0.167,-0.17 0.215,-0.11 0.251,-0.08 0.89,0.89 0.65,0.99 0.8,1.3 0.74,1.63 -0.04,0.23 -0.07,0.26 -0.35,0.35 -0.17,0.05 -0.35,0.12 -0.4,0.16 -0.05,0.04 -0.193,0.11 -0.32,0.15 -0.127,0.05 -0.293,0.14 -0.367,0.21 -0.075,0.06 -0.349,0.18 -0.609,0.27 -0.664,0.21 -1.449,0.62 -1.833,0.95 l -0.326,0.27 1.099,0.04 c 0.984,0.04 1.159,0.06 1.674,0.23 0.315,0.11 0.692,0.27 0.842,0.37 0.45,0.3 0.53,0.33 1.14,0.37 0.74,0.06 1.1,0.2 1.26,0.52 0.06,0.12 0.09,0.26 0.07,0.3 -0.04,0.12 -0.5,0.17 -1.2,0.13 -0.55,-0.04 -0.64,-0.03 -1.35,0.2 -0.89,0.27 -1.351,0.5 -2.145,1.06 -0.982,0.69 -1.178,0.78 -2.169,1.06 -0.521,0.15 -1.319,0.38 -1.774,0.52 -0.454,0.14 -0.975,0.28 -1.157,0.31 -0.878,0.17 -3.512,0.36 -4.393,0.34 -0.31,-0.01 -0.863,0.03 -1.244,0.09 -0.532,0.08 -0.725,0.09 -0.852,0.03 -0.09,-0.04 -0.269,-0.07 -0.396,-0.07 -0.128,0 -0.367,-0.03 -0.531,-0.07 -0.383,-0.1 -0.687,-0.01 -1.1,0.3 -0.283,0.21 -0.359,0.23 -1.053,0.31 -0.412,0.05 -0.853,0.12 -0.98,0.16 -0.127,0.03 -0.403,0.06 -0.614,0.06 -0.358,0 -0.378,0 -0.314,-0.12 z"
       inkscape:connector-curvature="0" />
  </g>
  <metadata
     id="metadata38">
    <rdf:RDF>
      <cc:Work>
        <dc:format>image/svg+xml</dc:format>
        <dc:type
           rdf:resource="http://purl.org/dc/dcmitype/StillImage" />
        <cc:license
           rdf:resource="http://creativecommons.org/publicdomain/zero/1.0/" />
        <dc:publisher>
          <cc:Agent
             rdf:about="http://openclipart.org/">
            <dc:title>Openclipart</dc:title>
          </cc:Agent>
        </dc:publisher>
        <dc:title>Sea scene with boat</dc:title>
        <dc:date>2007-09-14T12:35:35</dc:date>
        <dc:description>An result of a selfmade tutorial to create vector water.</dc:description>
        <dc:source>https://openclipart.org/detail/5418/sea-scene-with-boat-by-chrisdesign</dc:source>
        <dc:creator>
          <cc:Agent>
            <dc:title>Chrisdesign</dc:title>
          </cc:Agent>
        </dc:creator>
        <dc:subject>
          <rdf:Bag>
            <rdf:li>boat</rdf:li>
            <rdf:li>jpg</rdf:li>
            <rdf:li>nature</rdf:li>
            <rdf:li>sea</rdf:li>
            <rdf:li>water</rdf:li>
          </rdf:Bag>
        </dc:subject>
      </cc:Work>
      <cc:License
         rdf:about="http://creativecommons.org/publicdomain/zero/1.0/">
        <cc:permits
           rdf:resource="http://creativecommons.org/ns#Reproduction" />
        <cc:permits
           rdf:resource="http://creativecommons.org/ns#Distribution" />
        <cc:permits
           rdf:resource="http://creativecommons.org/ns#DerivativeWorks" />
      </cc:License>
    </rdf:RDF>
  </metadata>
</svg>
