<?xml version="1.0" encoding="UTF-8" standalone="no"?>
<svg
   xmlns:dc="http://purl.org/dc/elements/1.1/"
   xmlns:cc="http://creativecommons.org/ns#"
   xmlns:rdf="http://www.w3.org/1999/02/22-rdf-syntax-ns#"
   xmlns:svg="http://www.w3.org/2000/svg"
   xmlns="http://www.w3.org/2000/svg"
   viewBox="0 0 377.952 113.38533"
   height="113.38533"
   width="377.952"
   xml:space="preserve"
   id="svg2"
   version="1.1"><metadata
     id="metadata8"><rdf:RDF><cc:Work
         rdf:about=""><dc:format>image/svg+xml</dc:format><dc:type
           rdf:resource="http://purl.org/dc/dcmitype/StillImage" /><dc:title></dc:title></cc:Work></rdf:RDF></metadata><defs
     id="defs6"><clipPath
       id="clipPath20"
       clipPathUnits="userSpaceOnUse"><path
         id="path18"
         d="M 0,0 V 85.04042 H 283.4681 V 0 Z" /></clipPath></defs><g
     transform="matrix(1.3333333,0,0,-1.3333333,0,113.38533)"
     id="g10"><g
       id="g12"><g
         id="g14"><g
           clip-path="url(#clipPath20)"
           id="g16"><g
             id="g22"><path
               id="path24"
               style="fill:#ffffff;fill-opacity:1;fill-rule:nonzero;stroke:none"
               d="M 0,0 V 85.04042 H 283.4681 V 0 Z" /></g><g
             id="g26" /><g
             id="g28"><path
               id="path30"
               style="fill:#55a868;fill-opacity:1;fill-rule:nonzero;stroke:none"
               d="M 14.17339,21.2601 H 42.5202 V 63.7803 H 14.17339 V 21.2601" /></g><g
             id="g32" /><g
             id="g34"><path
               id="path36"
               style="fill:#dd8452;fill-opacity:1;fill-rule:nonzero;stroke:none"
               d="m 240.94788,21.2601 h 28.3468 v 42.5202 h -28.3468 V 21.2601" /></g><g
             id="g38"><path
               id="path40"
               style="fill:none;stroke:#4463d7;stroke-width:2.98883009;stroke-linecap:butt;stroke-linejoin:miter;stroke-miterlimit:10;stroke-dasharray:none;stroke-opacity:1"
               d="m 124.72578,56.69362 v 0 0 0 0 0 0 0 0 0 l -11.03274,-8.23294 v 0 0 0 0 0 0 0 0 0 0 0 0 0 0 0 0 0 0 0" /></g><g
             id="g42"><path
               id="path44"
               style="fill:none;stroke:#4c9514;stroke-width:2.98883009;stroke-linecap:butt;stroke-linejoin:miter;stroke-miterlimit:10;stroke-dasharray:none;stroke-opacity:1"
               d="m 124.72578,39.68535 v 0 0 0 0 0 0 0 0 0 0 0 0 0 0 0 0 0 0 0 0 0 0 0 0 0 0 0 0 0" /></g><g
             id="g46"><path
               id="path48"
               style="fill:none;stroke:#dc83a1;stroke-width:2.98883009;stroke-linecap:butt;stroke-linejoin:miter;stroke-miterlimit:10;stroke-dasharray:none;stroke-opacity:1"
               d="m 124.72578,22.67752 v 0 0 0 0 0 0 0 0 0 0 0 0 0 0 0 0 0 0 0 0 0 0 0 0 0 0 0 0 0 0 0 0 0 0" /></g><g
             id="g50"><path
               id="path52"
               style="fill:none;stroke:#0b44fb;stroke-width:2.98883009;stroke-linecap:butt;stroke-linejoin:miter;stroke-miterlimit:10;stroke-dasharray:none;stroke-opacity:1"
               d="m 144.5689,65.19774 v 0 0 0 0 0 0 0 0 0 0 0 0 0 0 0 0 0 0 0 0 0 0 0 0 0 0 0 0 0 0 0 0 0 0" /></g><g
             id="g54"><path
               id="path56"
               style="fill:none;stroke:#7e3df5;stroke-width:2.98883009;stroke-linecap:butt;stroke-linejoin:miter;stroke-miterlimit:10;stroke-dasharray:none;stroke-opacity:1"
               d="m 138.89917,48.18947 v 0 0 0 0 0 0 0 0 0 0 0 0 0 0 0 l -10.40945,5.15413 v 0 0 0 0 0 0 0 0 0 0 0" /></g><g
             id="g58"><path
               id="path60"
               style="fill:none;stroke:#c60f50;stroke-width:2.98883009;stroke-linecap:butt;stroke-linejoin:miter;stroke-miterlimit:10;stroke-dasharray:none;stroke-opacity:1"
               d="m 141.73404,31.18166 v 0 0 0 0 0 0 0 0 0 0 0 0 0 0 0 0 0 0 0 0 0 0 0 0 0 l -0.54674,14.05531 v 0 0 0 0 0 0 0 0" /></g><g
             id="g62"><path
               id="path64"
               style="fill:none;stroke:#4b614c;stroke-width:2.98883009;stroke-linecap:butt;stroke-linejoin:miter;stroke-miterlimit:10;stroke-dasharray:none;stroke-opacity:1"
               d="m 158.7423,19.84267 v 0 0 0 0 0 0 0 0 0 0 0 0 0 0 0 0 0 0 0 0 0 0 0 0 0 0 0 0 0 0 0 0" /></g><g
             id="g66"><path
               id="path68"
               style="fill:none;stroke:#9584bd;stroke-width:2.98883009;stroke-linecap:butt;stroke-linejoin:miter;stroke-miterlimit:10;stroke-dasharray:none;stroke-opacity:1"
               d="m 153.07259,36.85092 v 0 0 0 0 0 0 0 0 0 0 0 0 0 0 0 0 0 0 0 0 0 0 0 0 0 0 0 0 0 l -11.33855,-5.66926 v 0 0 0" /></g><g
             id="g70"><path
               id="path72"
               style="fill:none;stroke:#0cd497;stroke-width:2.98883009;stroke-linecap:butt;stroke-linejoin:miter;stroke-miterlimit:10;stroke-dasharray:none;stroke-opacity:1"
               d="m 153.07259,53.85875 v 0 0 0 0 0 0 0 0 0 0 0 0 0 0 0 0 0 0 0 0 0" /></g><g
             id="g74"><path
               id="path76"
               style="fill:none;stroke:#630fbf;stroke-width:2.98883009;stroke-linecap:butt;stroke-linejoin:miter;stroke-miterlimit:10;stroke-dasharray:none;stroke-opacity:1"
               d="m 167.24599,62.36288 v 0 0 0 0 0 0 0 0 0 0 0 0 0 0 0 0 0 0 0 0 0 0 0 0 0 0 0 0 0 0 0 0 0 0 0" /></g><g
             id="g78"><path
               id="path80"
               style="fill:none;stroke:#aad8fa;stroke-width:2.98883009;stroke-linecap:butt;stroke-linejoin:miter;stroke-miterlimit:10;stroke-dasharray:none;stroke-opacity:1"
               d="m 167.24599,48.18947 v 0 0 0 0 0 0 0 0 0 0 0 0 0 0 0 0 0 0 0 0 0 0 0 0 0 0 0 0 0 0" /></g><g
             id="g82"><path
               id="path84"
               style="fill:none;stroke:#361208;stroke-width:2.98883009;stroke-linecap:butt;stroke-linejoin:miter;stroke-miterlimit:10;stroke-dasharray:none;stroke-opacity:1"
               d="m 167.24599,34.01608 v 0 0 0 0 0 0 0 0 0 0 0 0 0 0 0 0 0 0 0 0 0 0 0 0 0 0 0 0 0" /></g><g
             id="g86"><path
               id="path88"
               style="fill:none;stroke:#5972da;stroke-width:2.98883009;stroke-linecap:butt;stroke-linejoin:miter;stroke-miterlimit:10;stroke-dasharray:none;stroke-opacity:1"
               d="m 172.9157,22.67752 v 0 0 0 0 0 0 0 0 0 0 0 0 0 0 0 0 0 0 0 0 0 0 0 0 0 0 0 0 0 0" /></g><g
             id="g90"><path
               id="path92"
               style="fill:none;stroke:#eb2b34;stroke-width:2.98883009;stroke-linecap:butt;stroke-linejoin:miter;stroke-miterlimit:10;stroke-dasharray:none;stroke-opacity:1"
               d="m 31.20024,33.02773 26.23863,1.34042 25.72866,5.32152 h 26.27322 l 4.43178,-9.02491 -1.74875,13.01984 v 0 l 1.56926,4.77608 v 0 0 0 0 l 11.03274,8.23294 v 0 l 7.72858,1.8867 -3.96464,-5.23672 v 0 0 0 0 l 10.40945,-5.15413 2.28813,-2.9525 v 0 0 0 0 l 0.54674,-14.05531 v 0 0 0 0 l 11.33855,5.66926 2.65924,2.09435 26.25808,-0.88799 h 26.27321 3.8362" /></g><g
             id="g94"><g
               id="g96"><path
                 id="path98"
                 style="fill:#4463d7;fill-opacity:1;fill-rule:nonzero;stroke:none"
                 d="m 119.22064,48.46068 c 0,3.05284 -2.47476,5.5276 -5.5276,5.5276 -3.05286,0 -5.5276,-2.47476 -5.5276,-5.5276 0,-3.05284 2.47474,-5.52761 5.5276,-5.52761 3.05284,0 5.5276,2.47477 5.5276,5.52761 z" /></g><g
               transform="translate(113.692,48.46)"
               id="g100"><g
                 id="g102" /><g
                 transform="translate(-113.692,-48.46)"
                 id="g104" /></g></g><g
             id="g106"><g
               id="g108"><path
                 id="path110"
                 style="fill:#4c9514;fill-opacity:1;fill-rule:nonzero;stroke:none"
                 d="m 130.25339,39.68535 c 0,3.05284 -2.47476,5.5276 -5.52761,5.5276 -3.05285,0 -5.52761,-2.47476 -5.52761,-5.5276 0,-3.05285 2.47476,-5.5276 5.52761,-5.5276 3.05285,0 5.52761,2.47475 5.52761,5.5276 z" /></g><g
               transform="translate(124.724,39.685)"
               id="g112"><g
                 id="g114" /><g
                 transform="translate(-124.724,-39.685)"
                 id="g116" /></g></g><g
             id="g118"><g
               id="g120"><path
                 id="path122"
                 style="fill:#dc83a1;fill-opacity:1;fill-rule:nonzero;stroke:none"
                 d="m 130.25339,22.67752 c 0,3.05284 -2.47476,5.5276 -5.52761,5.5276 -3.05285,0 -5.52761,-2.47476 -5.52761,-5.5276 0,-3.05286 2.47476,-5.52762 5.52761,-5.52762 3.05285,0 5.52761,2.47476 5.52761,5.52762 z" /></g><g
               transform="translate(124.724,22.677)"
               id="g124"><g
                 id="g126" /><g
                 transform="translate(-124.724,-22.677)"
                 id="g128" /></g></g><g
             id="g130"><g
               id="g132"><path
                 id="path134"
                 style="fill:#0b44fb;fill-opacity:1;fill-rule:nonzero;stroke:none"
                 d="m 150.0965,65.19774 c 0,3.05284 -2.47477,5.5276 -5.5276,5.5276 -3.05285,0 -5.52761,-2.47476 -5.52761,-5.5276 0,-3.05286 2.47476,-5.5276 5.52761,-5.5276 3.05283,0 5.5276,2.47474 5.5276,5.5276 z" /></g><g
               transform="translate(144.567,65.197)"
               id="g136"><g
                 id="g138" /><g
                 transform="translate(-144.567,-65.197)"
                 id="g140" /></g></g><g
             id="g142"><g
               id="g144"><path
                 id="path146"
                 style="fill:#7e3df5;fill-opacity:1;fill-rule:nonzero;stroke:none"
                 d="m 134.01732,53.3436 c 0,3.05284 -2.47476,5.5276 -5.5276,5.5276 -3.05285,0 -5.52761,-2.47476 -5.52761,-5.5276 0,-3.05284 2.47476,-5.5276 5.52761,-5.5276 3.05284,0 5.5276,2.47476 5.5276,5.5276 z" /></g><g
               transform="translate(128.488,53.343)"
               id="g148"><g
                 id="g150" /><g
                 transform="translate(-128.488,-53.343)"
                 id="g152" /></g></g><g
             id="g154"><g
               id="g156"><path
                 id="path158"
                 style="fill:#c60f50;fill-opacity:1;fill-rule:nonzero;stroke:none"
                 d="m 146.7149,45.23697 c 0,3.05286 -2.47476,5.52762 -5.5276,5.52762 -3.05284,0 -5.5276,-2.47476 -5.5276,-5.52762 0,-3.05284 2.47476,-5.5276 5.5276,-5.5276 3.05284,0 5.5276,2.47476 5.5276,5.5276 z" /></g><g
               transform="translate(141.185,45.236)"
               id="g160"><g
                 id="g162" /><g
                 transform="translate(-141.185,-45.236)"
                 id="g164" /></g></g><g
             id="g166"><g
               id="g168"><path
                 id="path170"
                 style="fill:#4b614c;fill-opacity:1;fill-rule:nonzero;stroke:none"
                 d="m 164.2699,19.84267 c 0,3.05284 -2.47476,5.5276 -5.5276,5.5276 -3.05286,0 -5.52762,-2.47476 -5.52762,-5.5276 0,-3.05286 2.47476,-5.52761 5.52762,-5.52761 3.05284,0 5.5276,2.47475 5.5276,5.52761 z" /></g><g
               transform="translate(158.74,19.842)"
               id="g172"><g
                 id="g174" /><g
                 transform="translate(-158.74,-19.842)"
                 id="g176" /></g></g><g
             id="g178"><g
               id="g180"><path
                 id="path182"
                 style="fill:#9584bd;fill-opacity:1;fill-rule:nonzero;stroke:none"
                 d="m 147.26164,31.18166 c 0,3.05284 -2.47476,5.5276 -5.5276,5.5276 -3.05284,0 -5.5276,-2.47476 -5.5276,-5.5276 0,-3.05286 2.47476,-5.52761 5.5276,-5.52761 3.05284,0 5.5276,2.47475 5.5276,5.52761 z" /></g><g
               transform="translate(141.732,31.181)"
               id="g184"><g
                 id="g186" /><g
                 transform="translate(-141.732,-31.181)"
                 id="g188" /></g></g><g
             id="g190"><g
               id="g192"><path
                 id="path194"
                 style="fill:#0cd497;fill-opacity:1;fill-rule:nonzero;stroke:none"
                 d="m 158.60019,53.85875 c 0,3.05284 -2.47475,5.5276 -5.5276,5.5276 -3.05285,0 -5.52761,-2.47476 -5.52761,-5.5276 0,-3.05284 2.47476,-5.5276 5.52761,-5.5276 3.05285,0 5.5276,2.47476 5.5276,5.5276 z" /></g><g
               transform="translate(153.071,53.858)"
               id="g196"><g
                 id="g198" /><g
                 transform="translate(-153.071,-53.858)"
                 id="g200" /></g></g><g
             id="g202"><g
               id="g204"><path
                 id="path206"
                 style="fill:#630fbf;fill-opacity:1;fill-rule:nonzero;stroke:none"
                 d="m 172.77359,62.36288 c 0,3.05285 -2.47476,5.52761 -5.5276,5.52761 -3.05284,0 -5.52761,-2.47476 -5.52761,-5.52761 0,-3.05284 2.47477,-5.5276 5.52761,-5.5276 3.05284,0 5.5276,2.47476 5.5276,5.5276 z" /></g><g
               transform="translate(167.244,62.362)"
               id="g208"><g
                 id="g210" /><g
                 transform="translate(-167.244,-62.362)"
                 id="g212" /></g></g><g
             id="g214"><g
               id="g216"><path
                 id="path218"
                 style="fill:#aad8fa;fill-opacity:1;fill-rule:nonzero;stroke:none"
                 d="m 172.77359,48.18947 c 0,3.05285 -2.47476,5.52762 -5.5276,5.52762 -3.05284,0 -5.52761,-2.47477 -5.52761,-5.52762 0,-3.05284 2.47477,-5.5276 5.52761,-5.5276 3.05284,0 5.5276,2.47476 5.5276,5.5276 z" /></g><g
               transform="translate(167.244,48.189)"
               id="g220"><g
                 id="g222" /><g
                 transform="translate(-167.244,-48.189)"
                 id="g224" /></g></g><g
             id="g226"><g
               id="g228"><path
                 id="path230"
                 style="fill:#361208;fill-opacity:1;fill-rule:nonzero;stroke:none"
                 d="m 172.77359,34.01608 c 0,3.05284 -2.47476,5.52761 -5.5276,5.52761 -3.05284,0 -5.52761,-2.47477 -5.52761,-5.52761 0,-3.05285 2.47477,-5.52762 5.52761,-5.52762 3.05284,0 5.5276,2.47477 5.5276,5.52762 z" /></g><g
               transform="translate(167.244,34.016)"
               id="g232"><g
                 id="g234" /><g
                 transform="translate(-167.244,-34.016)"
                 id="g236" /></g></g><g
             id="g238"><g
               id="g240"><path
                 id="path242"
                 style="fill:#5972da;fill-opacity:1;fill-rule:nonzero;stroke:none"
                 d="m 178.44331,22.67752 c 0,3.05284 -2.47476,5.5276 -5.52761,5.5276 -3.05285,0 -5.52761,-2.47476 -5.52761,-5.5276 0,-3.05286 2.47476,-5.52762 5.52761,-5.52762 3.05285,0 5.52761,2.47476 5.52761,5.52762 z" /></g><g
               transform="translate(172.913,22.677)"
               id="g244"><g
                 id="g246" /><g
                 transform="translate(-172.913,-22.677)"
                 id="g248" /></g></g><g
             id="g250"><g
               id="g252"><path
                 id="path254"
                 style="fill:#eb2b34;fill-opacity:1;fill-rule:nonzero;stroke:none"
                 d="m 217.62692,38.05728 c 0,3.05284 -2.47476,5.5276 -5.5276,5.5276 -3.05284,0 -5.5276,-2.47476 -5.5276,-5.5276 0,-3.05285 2.47476,-5.5276 5.5276,-5.5276 3.05284,0 5.5276,2.47475 5.5276,5.5276 z" /></g><g
               transform="translate(212.097,38.057)"
               id="g256"><g
                 id="g258" /><g
                 transform="translate(-212.097,-38.057)"
                 id="g260" /></g></g><g
             id="g262" /><g
             id="g264"><path
               id="path266"
               style="fill:#b3b3b3;fill-opacity:1;fill-rule:nonzero;stroke:none"
               d="M -0.00302,14.17642 V -0.00302 H 283.47112 V 14.17642 H -0.00302" /></g><g
             id="g268" /><g
             id="g270"><path
               id="path272"
               style="fill:#b3b3b3;fill-opacity:1;fill-rule:nonzero;stroke:none"
               d="m 269.29166,-0.00302 h 14.17946 V 85.04344 H 269.29166 V -0.00302" /></g><g
             id="g274" /><g
             id="g276"><path
               id="path278"
               style="fill:#b3b3b3;fill-opacity:1;fill-rule:nonzero;stroke:none"
               d="M 283.47112,70.86398 V 85.04344 H -0.00302 V 70.86398 h 283.47414" /></g><g
             id="g280" /><g
             id="g282"><path
               id="path284"
               style="fill:#b3b3b3;fill-opacity:1;fill-rule:nonzero;stroke:none"
               d="M 14.17642,85.04344 H -0.00302 V -0.00302 h 14.17944 v 85.04646" /></g></g></g></g></g></svg>