<?xml version="1.0" encoding="UTF-8" standalone="no"?>
<svg
   xmlns:dc="http://purl.org/dc/elements/1.1/"
   xmlns:cc="http://creativecommons.org/ns#"
   xmlns:rdf="http://www.w3.org/1999/02/22-rdf-syntax-ns#"
   xmlns:svg="http://www.w3.org/2000/svg"
   xmlns="http://www.w3.org/2000/svg"
   xmlns:xlink="http://www.w3.org/1999/xlink"
   xmlns:sodipodi="http://sodipodi.sourceforge.net/DTD/sodipodi-0.dtd"
   xmlns:inkscape="http://www.inkscape.org/namespaces/inkscape"
   width="433.52078"
   height="300.53516"
   viewBox="0 0 433.52338 300.53927"
   version="1.1"
   id="svg143"
   sodipodi:docname="Behaviorism-Pavlov-DogConditioning-Wikipedia.svg"
   inkscape:version="0.92.3 (2405546, 2018-03-11)">
  <metadata
     id="metadata147">
    <rdf:RDF>
      <cc:Work
         rdf:about="">
        <dc:format>image/svg+xml</dc:format>
        <dc:type
           rdf:resource="http://purl.org/dc/dcmitype/StillImage" />
        <dc:title />
      </cc:Work>
    </rdf:RDF>
  </metadata>
  <sodipodi:namedview
     pagecolor="#ffffff"
     bordercolor="#666666"
     borderopacity="1"
     objecttolerance="10"
     gridtolerance="10"
     guidetolerance="10"
     inkscape:pageopacity="0"
     inkscape:pageshadow="2"
     inkscape:window-width="1920"
     inkscape:window-height="1015"
     id="namedview145"
     showgrid="false"
     fit-margin-top="0"
     fit-margin-left="0"
     fit-margin-right="0"
     fit-margin-bottom="0"
     inkscape:zoom="1.2346259"
     inkscape:cx="150.22808"
     inkscape:cy="86.523276"
     inkscape:window-x="0"
     inkscape:window-y="0"
     inkscape:window-maximized="1"
     inkscape:current-layer="svg143" />
  <defs
     id="defs6">
    <path
       id="4"
       d="m 176.87,52.822 c 0.079,0.466 0.167,1.142 6.187,-1.591 -2.216,-1.641 -4.756,-2.952 -6.276,-1.458 -0.841,1.119 -1.54,1.935 0.088,3.049 z"
       inkscape:connector-curvature="0"
       style="color:#000000;fill:#ffffff" />
    <path
       id="5"
       d="m 177.35,57.51 a 0.685,0.751 0 1 1 -1.37,0 0.685,0.751 0 1 1 1.37,0 z"
       inkscape:connector-curvature="0"
       style="color:#000000;fill:#ffffff" />
    <path
       id="6"
       d="m 185.26,41.95 c 4.445,1.463 5.135,3.609 4.419,6.01 m -4.331,-0.796 c -1.411,-2.245 -4.809,-3.332 -7.778,-4.419 1.576,0.245 1.072,1.422 3.536,2.121 -1.849,-0.227 -1.964,1.966 -2.652,3.359 1.01,0.666 2.072,1.34 3.889,2.121 1.146,0.571 1.176,1.369 -0.751,1.768 -2.32,0.658 -4.204,2.37 -5.348,0.884 -2.147,-2.507 0.895,-3.799 2.121,-4.596 m 18.208,-12.905 c -3.13,8.837 -1.176,18.05 -3.712,25.633 -3.158,9.158 -1.736,13.383 -0.707,18.03 l 13.435,-5.127 c 5.855,-3.514 9.855,-10.458 7.96,-18.385 -1,-4.199 -0.214,-5.531 0.146,-7.581 0.434,2.657 -2.937,7.82 3.644,6.429 5.853,4.803 4.03,-5.249 2.481,-9.455 M 203.147,33.497 c -1.914,0 -3.785,0.402 -5.425,1.406 -0.41,0.379 -0.844,-0.082 -1.188,-0.188 0.067,-0.133 0.133,-0.266 0.199,-0.399 -0.406,-0.422 -1.14,-0.562 -1.984,-0.593 -6.234,-3.739 -20.698,9.03 -22.693,16.806 -19.936,10.59 -31.12,9.757 -21.866,20.643 1.366,5.206 3.932,9.01 8.751,10.72 7.161,2.542 22.258,-6.369 24.749,-6.04 8.714,3.568 -15.865,12.853 -19.15,11.961 7.03,7.696 20.888,-5.655 24,-6.121 10.295,-2.335 18.595,7.123 16.447,5.34 -4.137,-3.436 -10.5,-6.19 -16.13,-4.469 l -1.562,0.375 c 3.516,6.815 10.285,15.628 13.679,24.573 3.418,4.741 3.326,5.607 3.02,10.65 -2.01,8.617 -2.106,15.437 -2.106,15.437 l 47.946,-0.011 c -0.177,-15.734 0.078,-30 -0.164,-47.34 -10.683,-4.647 -17.902,-33.15 -28.16,-38.996 -1.834,-1.89 -4.051,-5.496 -4.625,-7.356 -3.314,-3.704 -9.233,-6.25 -13.743,-6.405 z"
       inkscape:connector-curvature="0"
       style="color:#000000;fill:#fff197;stroke:#000000;stroke-linecap:round;stroke-linejoin:round" />
    <path
       id="7"
       d="m 164.25,91.75 c 1.187,2.534 -2.227,6.06 -3.972,1.104 -0.381,-2.583 -1.179,-6.669 5.884,-9.253 8.735,-0.369 11.09,-3.343 14.25,-5.25 6.816,-2.574 5.233,0.357 0.588,3.399 -4.738,1.94 -9.12,4.593 -14.5,5.25 -3.128,0.832 -3.597,2.504 -2.25,4.75 z"
       inkscape:connector-curvature="0"
       style="color:#000000;fill:#ff0000;stroke:#000000;stroke-width:0.5;stroke-linecap:round;stroke-linejoin:round" />
  </defs>
  <g
     id="g69"
     transform="matrix(0.84920321,0,0,1.0001307,0.21203071,0.25003267)"
     style="fill:#ffffff;stroke:#000000">
    <path
       d="m -0.002,0 h 510.01 V 300 H -0.002 Z"
       id="path65"
       inkscape:connector-curvature="0"
       style="stroke-width:0.5;fill:#ffffff" />
    <path
       d="M 6,154 H 504.19"
       id="path67"
       inkscape:connector-curvature="0"
       style="stroke-width:2.00999999;stroke-linecap:square;fill:#ffffff" />
  </g>
  <path
     d="M 221.23158,293.26964 V 5.2696372"
     id="path8"
     inkscape:connector-curvature="0"
     style="fill:none;stroke:#000000;stroke-width:2" />
  <g
     transform="translate(165.13104,8.0826372)"
     id="g22">
    <use
       xlink:href="#4"
       id="use10"
       x="0"
       y="0"
       width="100%"
       height="100%" />
    <g
       transform="translate(-0.002)"
       id="g18"
       style="color:#000000;stroke:#000000;stroke-linecap:round;stroke-linejoin:round">
      <path
         d="m 178.57,49.2 c -3.828,2.671 -1.581,3.178 -0.749,3.593 2.071,-1.232 2.225,-1.575 0.749,-3.593 z"
         id="path12"
         inkscape:connector-curvature="0" />
      <path
         d="m 185.26,41.949 c 4.445,1.463 5.135,3.609 4.419,6.01 m -4.331,-0.795 c -1.411,-2.245 -4.809,-3.332 -7.778,-4.419 1.576,0.245 1.072,1.422 3.536,2.121 -1.849,-0.227 -1.964,1.966 -2.652,3.359 1.01,0.666 2.072,1.34 3.889,2.121 1.146,0.571 1.176,1.369 -0.751,1.768 -2.32,0.658 -4.204,2.37 -5.347,0.884 -2.147,-2.507 0.895,-3.799 2.121,-4.596 m 18.208,-12.905 c -3.13,8.837 -1.176,18.05 -3.712,25.633 -3.158,9.158 -1.736,13.383 -0.707,18.03 l 13.435,-5.127 c 5.855,-3.514 9.855,-10.458 7.96,-18.385 -1,-4.198 -0.214,-5.531 0.146,-7.581 0.434,2.657 -2.937,7.82 3.644,6.429 5.853,4.803 4.03,-5.249 2.481,-9.454 M 203.148,33.499 c -1.914,0 -3.785,0.402 -5.425,1.406 -0.41,0.379 -0.844,-0.082 -1.188,-0.188 0.067,-0.133 0.133,-0.266 0.199,-0.399 -0.406,-0.422 -1.14,-0.562 -1.984,-0.593 -6.234,-3.739 -20.698,9.03 -22.693,16.805 -19.935,10.59 -31.12,9.757 -21.865,20.643 1.366,5.206 3.932,9.01 8.751,10.719 7.161,2.542 22.435,-2.833 24.926,-2.501 0.496,-0.184 -21.263,3.281 -22.825,3.175 0.701,5.01 23.813,-0.649 27.504,-0.871 10.295,-2.335 18.594,7.123 16.447,5.34 -4.137,-3.436 -10.499,-6.19 -16.13,-4.469 l -1.562,0.375 c 3.516,6.815 10.285,15.628 13.679,24.573 3.418,4.741 3.326,5.607 3.02,10.65 -2.01,8.617 -2.106,15.437 -2.106,15.437 l 47.945,-0.011 c -0.177,-15.733 0.078,-30 -0.164,-47.34 -10.683,-4.647 -17.901,-33.14 -28.16,-38.995 -1.834,-1.89 -4.05,-5.496 -4.625,-7.356 -3.314,-3.704 -9.233,-6.25 -13.743,-6.405 z"
         id="path14"
         inkscape:connector-curvature="0"
         style="fill:#fff197" />
      <path
         d="m 153.5,59.62 -3.75,1.5 c -2.374,1.474 -3.289,3.611 -2,6.75 l 2.5,3.25 c 4.832,-2.762 7.679,-6.092 3.25,-11.5 z"
         id="path16"
         inkscape:connector-curvature="0" />
    </g>
    <use
       transform="translate(0.573,-6.364)"
       xlink:href="#5"
       id="use20"
       x="0"
       y="0"
       width="100%"
       height="100%" />
  </g>
  <g
     transform="translate(-46.871432,8.0826372)"
     id="g36">
    <use
       xlink:href="#4"
       id="use24"
       x="0"
       y="0"
       width="100%"
       height="100%" />
    <path
       d="m 178.57,49.2 c -3.828,2.671 -1.581,3.178 -0.749,3.593 2.071,-1.233 2.225,-1.575 0.749,-3.593 z"
       id="path26"
       inkscape:connector-curvature="0"
       style="color:#000000;stroke:#000000;stroke-linecap:round;stroke-linejoin:round" />
    <use
       xlink:href="#6"
       id="use28"
       x="0"
       y="0"
       width="100%"
       height="100%" />
    <path
       d="m 153.5,59.63 -3.75,1.5 c -2.374,1.474 -3.29,3.611 -2,6.75 l 2.5,3.25 c 4.832,-2.762 7.679,-6.092 3.25,-11.5 z"
       id="path30"
       inkscape:connector-curvature="0"
       style="color:#000000;stroke:#000000;stroke-linecap:round;stroke-linejoin:round" />
    <use
       transform="translate(0.573,-6.364)"
       xlink:href="#5"
       id="use32"
       x="0"
       y="0"
       width="100%"
       height="100%" />
    <use
       transform="translate(-0.002)"
       xlink:href="#7"
       id="use34"
       x="0"
       y="0"
       width="100%"
       height="100%" />
  </g>
  <g
     transform="translate(-46.871432,152.08964)"
     id="g49">
    <use
       xlink:href="#4"
       id="use38"
       x="0"
       y="0"
       width="100%"
       height="100%" />
    <path
       d="m 178.57,49.2 c -3.828,2.671 -1.581,3.178 -0.749,3.593 2.071,-1.233 2.225,-1.575 0.749,-3.593 z"
       id="path40"
       inkscape:connector-curvature="0"
       style="color:#000000;stroke:#000000;stroke-linecap:round;stroke-linejoin:round" />
    <use
       xlink:href="#6"
       id="use42"
       x="0"
       y="0"
       width="100%"
       height="100%" />
    <path
       d="m 153.5,59.63 -3.75,1.5 c -2.374,1.474 -3.29,3.611 -2,6.75 l 2.5,3.25 c 4.832,-2.762 7.679,-6.092 3.25,-11.5 z"
       id="8"
       inkscape:connector-curvature="0"
       style="color:#000000;stroke:#000000;stroke-linecap:round;stroke-linejoin:round" />
    <use
       transform="translate(0.573,-6.364)"
       xlink:href="#5"
       id="use45"
       x="0"
       y="0"
       width="100%"
       height="100%" />
    <use
       transform="translate(-0.002)"
       xlink:href="#7"
       id="use47"
       x="0"
       y="0"
       width="100%"
       height="100%" />
  </g>
  <g
     transform="translate(165.13104,152.08964)"
     id="g63">
    <use
       xlink:href="#4"
       id="use51"
       x="0"
       y="0"
       width="100%"
       height="100%" />
    <path
       d="m 178.57,49.2 c -3.828,2.671 -1.581,3.178 -0.749,3.593 2.071,-1.233 2.225,-1.575 0.749,-3.593 z"
       id="path53"
       inkscape:connector-curvature="0"
       style="color:#000000;stroke:#000000;stroke-linecap:round;stroke-linejoin:round" />
    <use
       xlink:href="#6"
       id="use55"
       x="0"
       y="0"
       width="100%"
       height="100%" />
    <use
       xlink:href="#8"
       id="use57"
       x="0"
       y="0"
       width="100%"
       height="100%" />
    <use
       transform="translate(0.573,-6.364)"
       xlink:href="#5"
       id="use59"
       x="0"
       y="0"
       width="100%"
       height="100%" />
    <use
       transform="translate(-0.002)"
       xlink:href="#7"
       id="use61"
       x="0"
       y="0"
       width="100%"
       height="100%" />
  </g>
  <g
     transform="translate(479.46113,1.6017746)"
     id="0"
     style="color:#000000;stroke:#000000;stroke-linecap:round;stroke-linejoin:round">
    <g
       transform="translate(-0.228,1.508)"
       id="g77">
      <path
         d="m -236.64,100.71 c 8.604,1.025 18.75,-0.755 26.548,-4.766 -13.999,-1.217 -19.253,1.446 -26.548,4.766 z"
         id="path71"
         inkscape:connector-curvature="0"
         style="fill:#4d4d4d" />
      <path
         d="m -230.14,72.08 4.702,-0.686 c -0.786,-2.808 -1.392,-4.04 -1.893,-4.253 0.737,-2.471 0.009,-4.615 -0.718,-6.76 0.159,-2.702 0.325,-5.401 -1.142,-8.591 0.437,-1.187 -0.004,-2.227 -0.552,-3.249 0.048,-2.593 -3.058,-3.895 -2.589,0.455 -0.791,1.106 -0.572,2.212 -0.039,3.318 -0.905,3.799 0.059,6.102 0.75,8.625 -0.4,2.751 0.021,4.971 1.125,6.75 0.075,1.116 -0.521,2.031 0.356,4.392 z"
         id="path73"
         inkscape:connector-curvature="0"
         style="fill:#550000;stroke-width:0.5" />
      <path
         d="m -236.7,100.55 c 12.383,-4.796 19.995,-5.754 26.87,-4.419 -5.392,-1.311 -4.01,-8.132 -6.01,-12.198 -5.336,-17.349 -18.18,-17.06 -18.738,2.652 -0.707,4.655 2.567,11.301 -2.121,13.965 z"
         id="path75"
         inkscape:connector-curvature="0"
         style="fill:#ffff00" />
    </g>
    <g
       id="g97"
       style="fill:none">
      <g
         transform="translate(-0.002)"
         id="g93">
        <path
           d="m -242.54,89.1 c 0.025,5.908 0.019,11.843 3.229,15.14 m -7.35,-15.14 c 0.079,6.615 0.299,13.547 4.01,18.374 m -8.797,-19.376 c -0.006,8.241 0.811,16 5.791,21.604"
           id="path79"
           inkscape:connector-curvature="0" />
        <path
           d="m -233.07,74.74 c -2.594,5.079 -3.641,9.471 -3.563,13.363"
           id="path81"
           inkscape:connector-curvature="0" />
        <path
           d="m -235.75,76.63 c -2.166,4.379 -2.314,7.316 -2.45,10.245"
           id="path83"
           inkscape:connector-curvature="0" />
        <path
           d="m -238.42,78.86 c -1.294,2.159 -1.465,4.567 -1.225,7.02"
           id="path85"
           inkscape:connector-curvature="0" />
        <path
           d="m -216.82,73.18 c 2.319,1.78 3.653,3.689 4.788,6.682"
           id="path87"
           inkscape:connector-curvature="0" />
        <path
           d="m -218.85,73.76 c 3.351,2.586 4.795,5.734 5.705,8.89"
           id="path89"
           inkscape:connector-curvature="0" />
        <path
           d="m -221.6,73.51 c 4.153,3.135 6.151,7.564 7.35,12.472"
           id="path91"
           inkscape:connector-curvature="0" />
      </g>
      <path
         d="m -207.78,80.48 c 2.246,5.465 4.532,10.941 2.836,15.224 m 0.968,-16.806 c 2.468,6.138 4.928,12.623 3.357,18.505 m 0.679,-21.269 c 3.171,7.607 5.399,15.09 2.952,22.17"
         id="path95"
         inkscape:connector-curvature="0" />
    </g>
  </g>
  <use
     transform="translate(-1.762,145.1)"
     width="500.20001"
     height="292"
     xlink:href="#0"
     id="use100"
     x="0"
     y="0" />
  <use
     transform="translate(-214.11928,134.87)"
     width="500.20001"
     height="292"
     xlink:href="#0"
     id="use102"
     x="0"
     y="0" />
  <path
     d="m 30.571842,286.38964 c -6.289,-0.328 -11.961,-1.074 -13.363,-1.758 -1.151,-0.826 -1.016,-1.941 -0.621,-2.875 0.753,-0.47 1.545,-0.67 2.352,-1.01 1.089,-3.16 1.496,-5.891 2.656,-9.207 0.867,-1.465 13.34,-2.441 18.379,-2.445 6.386,0.105 16.05,-0.153 18.343,2.375 1.182,3.149 1.604,5.746 2.645,9.133 0.878,0.286 1.654,0.6 2.453,1.093 0.74,1.222 0.097,2.228 -0.68,2.813 -3.304,1.141 -11.148,1.851 -21.632,1.965 -4.071,0.05 -8.809,0.001 -10.532,-0.08 z"
     id="1"
     inkscape:connector-curvature="0"
     style="fill:#cccccc" />
  <path
     d="m 30.571842,286.38964 c -6.289,-0.328 -11.961,-1.074 -13.363,-1.758 -1.151,-0.826 -1.016,-1.941 -0.621,-2.875 0.753,-0.47 1.545,-0.67 2.352,-1.01 1.089,-3.16 1.496,-5.891 2.656,-9.207 0.867,-1.465 13.34,-2.441 18.379,-2.445 6.386,0.105 16.05,-0.153 18.343,2.375 1.182,3.149 1.604,5.746 2.645,9.133 0.878,0.286 1.654,0.6 2.453,1.093 0.74,1.222 0.097,2.228 -0.68,2.813 -3.304,1.141 -11.148,1.851 -21.632,1.965 -4.071,0.05 -8.809,0.001 -10.532,-0.08 z m -8.929,-14.86 c 2.197,1.491 5.068,1.431 7.625,1.813 8.338,0.663 16.765,0.818 25.06,-0.375 1.388,-0.36 2.729,-0.9 4.03,-1.5 m -41.815,10.211 c 5.269,2.875 42.11,3.191 46.828,-0.059"
     id="2"
     inkscape:connector-curvature="0"
     style="fill:none;stroke:#000000;stroke-width:0.5" />
  <path
     d="m 33.541842,272.46964 c -2.745,-0.495 -6.644,0.31 -8.568,-1.729 1.717,-1.884 3.394,-3.513 5.963,-4.374 1.749,-1.606 4.455,-2.755 5.959,-3.816 2.836,-0.08 5.799,-0.55 8.03,1.717 2.852,0.703 5.607,2.108 7.575,4.33 1.616,0.567 3.136,3.081 0.318,3.113 -6.368,1.047 -12.849,0.919 -19.276,0.759 z"
     id="3"
     inkscape:connector-curvature="0"
     style="fill:#d6b929;stroke:#000000;stroke-width:0.25" />
  <g
     transform="translate(-19.768158,-171.73036)"
     id="g113">
    <use
       xlink:href="#1"
       id="use107"
       x="0"
       y="0"
       width="100%"
       height="100%"
       transform="translate(19.768158,-0.26963721)" />
    <use
       xlink:href="#2"
       id="use109"
       x="0"
       y="0"
       width="100%"
       height="100%"
       transform="translate(19.768158,-0.26963721)" />
    <use
       xlink:href="#3"
       id="use111"
       x="0"
       y="0"
       width="100%"
       height="100%"
       transform="translate(19.768158,-0.26963721)" />
  </g>
  <path
     d="m 161.92212,113.41964 c -4.897,2.329 -0.049,8.484 1.543,3.727 -0.482,-0.832 -0.583,-3.596 -1.543,-3.727 z m 2.155,-10.547 c 5.247,2.303 1.331,8.48 -0.979,3.733 0.357,-0.834 0.04,-3.598 0.979,-3.733 z m -1.376,-1.267 c -5.746,0.245 -4.439,7.4 -0.499,3.823 -0.017,-0.904 1.322,-3.358 0.499,-3.823 z m 0.091,6.236 c -5.746,0.245 -4.439,7.4 -0.499,3.823 -0.017,-0.904 1.322,-3.358 0.499,-3.823 z m 2.6,1.55 c -4.897,2.329 -0.049,8.484 1.543,3.727 -0.482,-0.832 -0.583,-3.596 -1.543,-3.727 z"
     id="path115"
     inkscape:connector-curvature="0"
     style="fill:#cccccc;stroke:#000000;stroke-width:0.625" />
  <g
     id="g141"
     style="fill:#cccccc;stroke:#000000;stroke-width:0.625"
     transform="translate(0.23211596,0.26963721)">
    <path
       d="m 416.19,258.1 c -4.897,2.329 -0.049,8.484 1.543,3.727 -0.482,-0.832 -0.583,-3.596 -1.543,-3.727 z m 2.155,-10.547 c 5.247,2.303 1.331,8.48 -0.979,3.733 0.357,-0.834 0.039,-3.598 0.979,-3.733 z m -1.376,-1.267 c -5.746,0.245 -4.439,7.4 -0.499,3.823 -0.017,-0.904 1.322,-3.358 0.499,-3.823 z m 0.091,6.236 c -5.746,0.245 -4.439,7.4 -0.499,3.823 -0.017,-0.904 1.322,-3.358 0.499,-3.823 z m 2.6,1.55 c -4.897,2.329 -0.049,8.484 1.543,3.727 -0.482,-0.832 -0.583,-3.596 -1.543,-3.727 z"
       id="path137"
       inkscape:connector-curvature="0" />
    <path
       d="m 162.81,258.1 c -4.897,2.329 -0.049,8.484 1.543,3.727 -0.482,-0.832 -0.583,-3.596 -1.543,-3.727 z m 2.155,-10.547 c 5.247,2.303 1.331,8.48 -0.979,3.733 0.357,-0.834 0.04,-3.598 0.979,-3.733 z m -1.376,-1.267 c -5.746,0.245 -4.439,7.4 -0.499,3.823 -0.017,-0.904 1.322,-3.358 0.499,-3.823 z m 0.091,6.236 c -5.746,0.245 -4.439,7.4 -0.499,3.823 -0.017,-0.904 1.322,-3.358 0.499,-3.823 z m 2.6,1.55 c -4.897,2.329 -0.049,8.484 1.543,3.727 -0.482,-0.832 -0.583,-3.596 -1.543,-3.727 z"
       id="path139"
       inkscape:connector-curvature="0" />
  </g>
  <text
     xml:space="preserve"
     style="font-style:normal;font-weight:normal;font-size:31.11200333px;line-height:1.25;font-family:sans-serif;letter-spacing:0px;word-spacing:0px;fill:#000000;fill-opacity:1;stroke:none;stroke-width:0.77780008"
     x="6.8266716"
     y="32.122856"
     id="text956"><tspan
       sodipodi:role="line"
       id="tspan954"
       x="6.8266716"
       y="32.122856"
       style="stroke-width:0.77780008">1</tspan></text>
  <text
     id="text960"
     y="32.122856"
     x="226.8297"
     style="font-style:normal;font-weight:normal;font-size:31.11200333px;line-height:1.25;font-family:sans-serif;letter-spacing:0px;word-spacing:0px;fill:#000000;fill-opacity:1;stroke:none;stroke-width:0.77780008"
     xml:space="preserve"><tspan
       style="stroke-width:0.77780008"
       y="32.122856"
       x="226.8297"
       id="tspan958"
       sodipodi:role="line">2</tspan></text>
  <text
     id="text964"
     y="186.12497"
     x="6.8266716"
     style="font-style:normal;font-weight:normal;font-size:31.11200333px;line-height:1.25;font-family:sans-serif;letter-spacing:0px;word-spacing:0px;fill:#000000;fill-opacity:1;stroke:none;stroke-width:0.77780008"
     xml:space="preserve"><tspan
       style="stroke-width:0.77780008"
       y="186.12497"
       x="6.8266716"
       id="tspan962"
       sodipodi:role="line">3</tspan></text>
  <text
     xml:space="preserve"
     style="font-style:normal;font-weight:normal;font-size:31.11200333px;line-height:1.25;font-family:sans-serif;letter-spacing:0px;word-spacing:0px;fill:#000000;fill-opacity:1;stroke:none;stroke-width:0.77780008"
     x="226.8297"
     y="186.12497"
     id="text968"><tspan
       sodipodi:role="line"
       id="tspan966"
       x="226.8297"
       y="186.12497"
       style="stroke-width:0.77780008">4</tspan></text>
</svg>
