<?xml version="1.0" encoding="UTF-8" standalone="no"?>
<!-- Created with Inkscape (http://www.inkscape.org/) -->

<svg
   xmlns:dc="http://purl.org/dc/elements/1.1/"
   xmlns:cc="http://creativecommons.org/ns#"
   xmlns:rdf="http://www.w3.org/1999/02/22-rdf-syntax-ns#"
   xmlns:svg="http://www.w3.org/2000/svg"
   xmlns="http://www.w3.org/2000/svg"
   xmlns:sodipodi="http://sodipodi.sourceforge.net/DTD/sodipodi-0.dtd"
   xmlns:inkscape="http://www.inkscape.org/namespaces/inkscape"
   id="svg2"
   sodipodi:docname="Evolution-FromApeToHuman-Openclipart.svg"
   version="1.1"
   inkscape:version="0.92.3 (2405546, 2018-03-11)"
   viewBox="0 0 3667.279 1301.1333"
   width="3667.2791"
   height="1301.1333">
  <defs
     id="defs4" />
  <sodipodi:namedview
     id="base"
     bordercolor="#666666"
     inkscape:pageshadow="2"
     inkscape:window-y="0"
     pagecolor="#ffffff"
     inkscape:window-height="1015"
     inkscape:window-maximized="1"
     inkscape:zoom="0.1767767"
     inkscape:window-x="0"
     showgrid="false"
     borderopacity="1.0"
     inkscape:current-layer="layer1"
     inkscape:cx="2968.1079"
     inkscape:cy="210.78973"
     inkscape:window-width="1920"
     inkscape:pageopacity="0.0"
     inkscape:document-units="px"
     fit-margin-top="0"
     fit-margin-left="0"
     fit-margin-right="0"
     fit-margin-bottom="0" />
  <g
     id="layer1"
     inkscape:label="Layer 1"
     inkscape:groupmode="layer"
     transform="translate(2473.4713,245.51685)">
    <path
       id="path3372"
       style="fill:#000000;stroke:none"
       inkscape:connector-curvature="0"
       d="m -2452.1,1037.3 c -18.818,-1.9691 -21.746,-7.8277 -21.336,-42.686 l 0.3244,-27.599 24,-13.276 c 13.2,-7.3019 32.488,-20.579 42.862,-29.504 25.001,-21.509 75.481,-54.738 97.484,-64.17 9.7096,-4.162 17.654,-9.4754 17.654,-11.807 0,-2.3321 -7.3984,-15.955 -16.441,-30.273 -12.011,-19.018 -20.364,-27.669 -31,-32.105 -19.874,-8.2887 -39.264,-27.733 -51.456,-51.599 l -10.183,-19.932 10.611,-20.267 c 32.768,-62.587 143.88,-166.83 229.01,-214.84 10.703,-6.037 35.66,-20.928 55.46,-33.091 41.649,-25.585 72.99,-36.381 121.6,-41.887 19.067,-2.16 47.624,-8.4538 63.459,-13.986 36.736,-12.835 71.398,-13.456 95.651,-1.7158 18.425,8.9193 33.291,26.097 33.291,38.467 0,4.1663 6.3742,13.788 14.165,21.383 19.428,18.938 23.267,29.437 15.943,43.599 -9.639,18.64 -40.852,25.113 -76.108,15.784 -34.077,-9.0171 -37.622,-8.8882 -54.022,1.9642 -9.4622,6.2618 -16.936,14.897 -18.581,21.468 -1.5131,6.0458 -10.547,18.575 -20.074,27.843 -16.664,16.209 -17.323,17.772 -17.323,41.042 0,13.305 3.4584,39.923 7.6854,59.149 4.2269,19.227 8.8746,45.758 10.328,58.958 3.5999,32.691 20.524,114.67 29.728,144 6.2033,19.767 20.242,75.353 25.851,102.35 2.5283,12.171 -9.1736,57.45 -16.169,62.565 -3.8236,2.7959 -16.728,5.0834 -28.677,5.0834 -18.602,0 -21.028,-0.8403 -16.874,-5.845 2.668,-3.2148 8.4734,-6.9949 12.901,-8.4001 7.6653,-2.4328 7.9135,-4.6855 5.1965,-47.155 -3.1106,-48.622 -4.0995,-51.164 -49.208,-126.46 -9.8386,-16.423 -20.477,-36.056 -23.641,-43.628 -5.7926,-13.864 -29.276,-45.689 -31.83,-43.136 -0.755,0.755 -5.1697,22.804 -9.8103,48.998 -4.6407,26.194 -10.888,52.421 -13.884,58.281 -2.9953,5.8605 -6.4642,21.161 -7.7087,34 -1.2446,12.839 -4.7447,33.245 -7.7781,45.345 -3.0334,12.1 -7.2287,30.678 -9.323,41.285 -4.281,21.682 -3.3752,22.515 33.441,30.766 20.984,4.7027 37.772,12.076 37.772,16.591 0,1.8469 -20.25,3.3707 -45,3.3864 -24.75,0.016 -57.15,1.1759 -72,2.5784 l -27,2.55 v -16.318 c 0,-8.9748 1.8887,-21.285 4.197,-27.357 3.471,-9.1294 2.3569,-15.139 -6.441,-34.743 -8.4966,-18.933 -19.626,-64.655 -37.665,-154.74 -0.2203,-1.1 -7.393,12.446 -15.939,30.102 -16.944,35.006 -32.666,49.53 -76.095,70.298 -12.131,5.8013 -26.27,15.125 -31.42,20.719 -5.1501,5.594 -29.9,18.854 -55,29.466 -42.89,18.134 -45.636,19.976 -45.636,30.618 0,19.297 6.3607,25.89 29.641,30.723 11.916,2.4737 22.571,6.8563 23.677,9.7391 3.1203,8.1314 -51.859,12.282 -98.306,7.4223 z m 358.29,-323.59 c 5.8831,-13.475 10.697,-26.525 10.697,-29 0,-6.8146 -11.242,-5.4098 -27.455,3.431 -7.9996,4.3619 -19.805,9.8353 -26.234,12.163 l -11.689,4.2322 19.514,19.812 c 10.733,10.897 20.629,18.473 21.992,16.837 1.363,-1.6362 7.2918,-14 13.175,-27.475 z" />
    <path
       id="path3374"
       style="fill:#000000;stroke:none"
       inkscape:connector-curvature="0"
       d="m -1696.3,1037.9 c -7.0393,-3.5958 -19.206,-12.207 -27.037,-19.136 l -14.238,-12.598 -1.65,-55.499 c -0.9575,-32.204 0.024,-59.173 2.3384,-64.253 7.206,-15.815 27.624,-23.47 54.334,-20.37 23.37,2.7124 24.279,2.4303 71.091,-22.068 26.08,-13.648 54.274,-29.782 62.654,-35.852 12.922,-9.3603 14.345,-11.776 9.3708,-15.905 -20.563,-17.066 -65.346,-99.53 -90.785,-167.17 -9.2378,-24.564 -7.2923,-46.701 5.538,-63.012 12.249,-15.573 8.1349,-40.325 -14.367,-86.435 -21.07,-43.175 -21.316,-51.102 -2.3467,-75.435 6.003,-7.7 19.142,-27.5 29.198,-44 10.056,-16.5 26.896,-38.921 37.421,-49.825 14.228,-14.739 19.359,-23.285 20,-33.312 2.2514,-35.192 20.906,-58.464 64.506,-80.473 16.174,-8.1647 30.867,-20.319 47.288,-39.117 28.071,-32.135 34.521,-41.936 41.392,-62.892 6.7468,-20.578 35.12,-48.625 54.686,-54.058 23.016,-6.3908 34.921,-5.32 58.937,5.3011 24.13,10.671 52.595,42.409 62.197,69.348 2.9462,8.2657 8.4887,19.529 12.316,25.029 3.8278,5.5 8.1766,15.623 9.664,22.496 2.3028,10.64 0.6727,14.65 -10.975,27 -9.9496,10.55 -17.368,14.695 -27.207,15.204 -23.805,1.232 -45.083,-1.3007 -55.447,-6.6 -16.915,-8.6486 -44.544,-11.801 -48.514,-5.5353 -6.9964,11.042 -3.1809,28.854 11.157,52.083 13.496,21.865 14.978,27.251 17.775,64.603 1.6785,22.412 3.153,43.622 3.2766,47.133 0.1556,4.4192 9.1484,8.9796 29.225,14.82 15.95,4.6403 40.7,15.688 55,24.551 14.3,8.8625 40.687,24.693 58.637,35.18 25.659,14.989 35.209,23.224 44.665,38.513 11.696,18.912 11.867,19.901 6.2105,35.935 -3.1994,9.068 -8.4655,20.529 -11.702,25.469 -7.7302,11.798 -28.366,22.354 -35.688,18.257 -4.8197,-2.6972 -4.4972,-5.8746 2.0892,-20.586 10.299,-23.004 9.8255,-30.31 -2.3237,-35.846 -9.0176,-4.1087 -10.5,-3.5878 -13.694,4.8124 -2.9227,7.6873 -11.448,14.511 -18.13,14.511 -2.8441,0 -10.064,-25.903 -10.064,-36.107 0,-6.0023 -2.7621,-13.206 -6.1381,-16.008 -8.6699,-7.1954 -67.458,-30.734 -95.009,-38.041 -35.126,-9.3163 -41.586,-4.5849 -65.753,48.156 -4.0324,8.8 -13.439,27.361 -20.904,41.247 l -13.573,25.247 55.918,54.753 c 30.755,30.114 66.572,68.055 79.593,84.314 l 23.674,29.561 -0.4078,28.439 c -0.2244,15.642 -5.2305,50.939 -11.125,78.439 -5.8945,27.5 -13.326,67.1 -16.514,88 -10.187,66.773 -9.5315,80.887 4.3521,93.754 9.8703,9.1475 16.64,10.814 67.538,16.629 19.225,2.1963 26.335,5.1996 38,16.052 9.1576,8.5194 12.179,13.458 8.3496,13.648 -3.3,0.1644 -46.015,0.7974 -94.921,1.4066 l -88.921,1.1078 -4.8986,-14.298 c -2.6942,-7.8641 -4.4249,-15.962 -3.8461,-17.996 12.299,-43.209 12.645,-48.375 7.9317,-118.28 -4.5592,-67.621 -4.4219,-71.035 3.9665,-98.652 4.7791,-15.734 8.6892,-32.16 8.6892,-36.503 0,-5.7601 -9.4001,-13.165 -34.754,-27.379 -19.115,-10.716 -47.022,-30.733 -62.017,-44.483 -26.136,-23.967 -39.319,-30.702 -39.151,-20 0.09,5.7274 8.4365,52.443 18.759,105 9.6301,49.029 9.1114,79.828 -1.5232,90.463 -11.29,11.29 -63.797,28.225 -140.89,45.443 -87.382,19.515 -84.428,18.15 -84.401,38.995 0.03,22.784 7.0587,46.997 14.469,49.841 8.1452,3.1256 25.185,39.31 21.398,45.438 -4.9442,8 -40.112,8.9988 -54.688,1.5533 z" />
    <path
       id="path3376"
       style="fill:#000000;stroke:none"
       inkscape:connector-curvature="0"
       d="m -1000.3,1042.8 c -4.8345,-8.1063 -57.017,-33.814 -75.199,-37.047 -30.904,-5.4946 -54,-19.372 -54,-32.446 0,-9.6802 13.558,-24.916 31.496,-35.394 15.036,-8.7833 24.409,-25.046 34.365,-59.629 12.69,-44.081 34.276,-75.092 90.066,-129.39 l 30.074,-29.271 2,-78.729 c 1.1,-43.301 3.4285,-80.934 5.1744,-83.629 2.0083,-3.1001 -2.7208,-11.296 -12.874,-22.31 -8.8265,-9.5756 -17.613,-21.64 -19.525,-26.81 -5.3847,-14.556 1.6939,-43.015 18.976,-76.291 l 15.742,-30.312 -16.58,-16.58 -16.58,-16.58 8.8331,-30.024 c 4.8582,-16.513 8.8331,-36.031 8.8331,-43.373 0,-66.678 64.804,-207.11 130.41,-282.62 51.925,-59.754 81.302,-78.211 114.59,-71.993 24.665,4.608 37.744,11.753 55.759,30.461 19.953,20.72 22.375,28.931 23.785,80.627 1.1018,40.401 0.48332,45.095 -6.666,50.589 -12.638,9.7121 -25.565,11.56 -46.712,6.6792 -31.76,-7.3312 -32.58,-6.9954 -29.527,12.095 2.4802,15.51 29.04,109.97 32.491,115.55 0.85288,1.38 -2.3074,13.808 -7.0228,27.618 -7.6741,22.475 -8.1033,27.854 -4.0908,51.279 4.1432,24.188 6.2857,28.015 28.288,50.529 13.093,13.397 40.924,49.733 61.846,80.747 35.197,52.172 38.37,58.509 42.443,84.766 6.2685,40.401 5.4738,57.041 -3.4211,71.629 -13.759,22.565 -52.641,22.047 -77.377,-1.0294 -14.543,-13.568 -8.8144,-21.754 15.225,-21.754 h 17.044 l 1.9007,-27 c 1.7746,-25.209 0.99964,-28.51 -11.68,-49.764 -7.4696,-12.52 -19.62,-26.496 -27,-31.058 -7.3804,-4.5613 -20.324,-16.817 -28.762,-27.236 -17.64,-21.777 -45.543,-50.43 -47.088,-48.352 -0.57596,0.77512 -5.1604,13.109 -10.188,27.409 -5.0272,14.3 -15.965,40.4 -24.306,58 -26.861,56.676 -25.016,67.791 22.2,133.74 18.738,26.175 40.42,61.69 48.182,78.923 7.7621,17.233 17.605,37.86 21.872,45.839 4.8344,9.0386 9.2979,29.393 11.842,54 2.2456,21.721 4.9592,42.274 6.0304,45.672 1.0712,3.3985 5.3626,30.418 9.5364,60.043 10.663,75.685 12.112,78.483 46.437,89.663 15.376,5.008 37.767,10.451 49.757,12.096 23.7,3.2512 54.083,14.867 65.201,24.927 6.645,6.0128 6.5792,6.6322 -1.2888,12.143 -7.0604,4.9453 -12.892,5.06 -39.292,0.7728 -24.453,-3.9711 -42.536,-4.0404 -85.612,-0.328 -54.073,4.6601 -74.104,3.3754 -79.7,-5.1117 -1.5898,-2.4113 -1.849,-13.384 -0.57604,-24.384 2.1582,-18.649 0.77372,-22.91 -20.503,-63.09 -29.646,-55.984 -36.991,-81.381 -40.402,-139.7 l -2.7937,-47.763 -23.978,-20.723 c -13.188,-11.398 -33.027,-28.587 -44.086,-38.198 l -20.108,-17.475 -8.6782,35.475 c -4.773,19.511 -11.497,42.027 -14.942,50.034 -8.927,20.747 -33.503,46.508 -54.788,57.431 -10.04,5.152 -40.165,30.23 -66.945,55.729 -52.35296,49.848 -58.67196,60.548 -47.82496,80.991 6.9265,13.055 48.83996,51.122 73.17996,66.464 26.868,16.936 25.438,18.828 -14.229,18.828 -25.876,0 -36.939,-1.5124 -39.23596,-5.3636 z" />
    <path
       id="path3378"
       style="fill:#000000;stroke:none"
       inkscape:connector-curvature="0"
       d="m 162.51,1047.8 c -35.651,-10.236 -52.37,-12.039 -89.695,-9.6705 -21.832,1.3853 -43.152,4.369 -47.377,6.6304 -6.0655,3.2462 -9.7086,2.2087 -17.305,-4.9282 -11.497,-10.801 -12.822,-31.043 -3.0134,-46.014 5.8688,-8.9569 6.063,-13.982 1.7343,-44.859 -6.5746,-46.897 -6.1602,-45.181 -22.309,-92.344 -13.43,-39.222 -14.172,-44.082 -13.134,-86 1.0056,-40.626 0.2188,-46.312 -9.1899,-66.429 l -10.29,-22 -10.327,16.314 c -5.6801,8.9726 -16.35,21.777 -23.71,28.453 -48.963,44.414 -70.776,62.022 -103.1,83.233 -65.64,43.066 -72.568,47.744 -102.6,69.275 l -29.677,21.275 v 23.15 c 0,20.329 1.7181,25.4 14.099,41.614 13.78,18.047 37.881,34.993 57.901,40.712 11.555,3.3008 36,25.262 36,32.342 0,3.0883 -11.191,5.7896 -31.395,7.5781 -29.752,2.6337 -32.631,2.1475 -55,-9.2905 -17.303,-8.8473 -32.597,-22.026 -57.287,-49.363 -18.525,-20.511 -38.634,-39.093 -44.685,-41.293 -16.728,-6.0818 -36.665,-33.282 -33.594,-45.833 3.72,-15.203 10.436,-20.092 32.361,-23.558 26.886,-4.2501 41.625,-15.214 88.027,-65.479 38.185,-41.364 84.425,-81.016 122.76,-105.27 l 18.374,-11.624 -2.3563,-38.677 c -1.6348,-26.834 -0.14904,-55.105 4.8524,-92.331 3.9648,-29.51 6.0198,-58.392 4.5667,-64.181 -1.4531,-5.7896 -12.747,-20.994 -25.097,-33.788 -38.775,-40.167 -46.024,-68.754 -26.968,-106.36 17.046,-33.639 17.927,-40.209 7.1582,-53.378 -13.529,-16.543 -13.456,-62.016 0.17028,-106.94 6.6301,-21.858 11.91,-54.852 16.039,-100.22 l 6.1552,-67.636 14.229,-17.364 c 7.8257,-9.5503 15.564,-17.364 17.197,-17.364 1.6326,0 3.1068,-9.1802 3.276,-20.4 0.20252,-13.425 2.9452,-24.025 8.0216,-31 11.424,-15.697 21.199,-42.847 21.199,-58.879 0,-23.426 16.918,-46.557 50,-68.36 30.23,-19.924 80.609,-21.189 112.35,-2.822 8.9933,5.2038 19.237,9.4615 22.764,9.4615 8.8457,0 12.228,6.6902 15.166,30 1.3865,11 3.8729,23.124 5.5253,26.941 2.0996,4.8511 0.024,9.5979 -6.8986,15.762 -9.6702,8.6135 -9.7626,9.2328 -3.9297,26.351 7.3668,21.62 4.6364,40.814 -7.643,53.728 -5.1345,5.3997 -12.468,13.732 -16.296,18.517 -5.4153,6.768 -11.244,8.6996 -26.252,8.6996 -15.914,0 -21.172,1.9637 -30.039,11.219 -15.276,15.945 -14.013,29.2 4.2516,44.598 48.865,41.196 68.74,72.712 79.05,125.35 3.3765,17.24 11.765,17.092 40.151,-0.70578 14.39,-9.0226 31.032,-17.567 36.981,-18.988 5.9496,-1.4207 20.717,-7.7306 32.817,-14.022 12.1,-6.2913 24.115,-11.443 26.7,-11.447 2.5852,-0.005 8.8931,-7.6094 14.018,-16.899 10.678,-19.358 23.034,-26.966 43.928,-27.05 14.454,-0.0582 14.793,0.31352 25.792,28.349 10.26,26.151 10.676,29.245 5.2326,38.942 -9.0787,16.175 -22.376,21.352 -48.593,18.917 -25.583,-2.3754 -38.415,1.2512 -56.676,16.019 -6.8212,5.5163 -25.002,18.263 -40.402,28.326 -15.4,10.063 -33.432,23.44 -40.071,29.726 -6.639,6.2866 -17.439,13.372 -24,15.746 -18.918,6.8442 -36.795,35.102 -47.491,75.069 -5.2042,19.446 -12.382,41.003 -15.95,47.903 -3.5683,6.9003 -6.4878,15.274 -6.4878,18.609 0,3.3346 -2.8696,12.08 -6.3768,19.435 -6.0544,12.696 -5.8611,14.877 3.825,43.136 5.611,16.37 13.129,44.163 16.708,61.763 3.5784,17.6 11.863,48.2 18.411,68 23.941,72.398 26.905,92.564 28.218,192 0.6684,50.6 -0.3792,111.82 -2.3278,136.04 l -3.543,44.039 31.543,9.2148 c 41.636,12.163 109.48,39.40898 118.53,47.60298 3.9599,3.5837 5.8073,7.9042 4.1054,9.6011 -5.1944,5.179 -54.212,7.3907 -69.095,3.1175 z" />
    <path
       id="path3380"
       style="fill:#000000;stroke:none"
       inkscape:connector-curvature="0"
       d="m 474.51,1052.5 c -7.7,-1.5202 -22.291,-7.6322 -32.423,-13.582 -10.133,-5.95 -30.938,-15.075 -46.234,-20.277 -15.296,-5.2025 -33.466,-12.384 -40.378,-15.958 -6.912,-3.5743 -17.836,-6.4988 -24.276,-6.4988 -14.607,0 -19.033,-5.4706 -21.752,-26.887 -1.9317,-15.212 -0.66692,-18.584 12.753,-34 22.044,-25.324 48.581,-68.886 64.032,-105.11 22.279,-52.235 43.459,-92.829 49.679,-95.216 3.2023,-1.2288 17.072,-17.208 30.822,-35.509 13.75,-18.301 28.995,-37.775 33.878,-43.275 7.9826,-8.9907 9.1227,-15.711 11.296,-66.588 2.4815,-58.099 0.038,-69.715 -12.973,-61.674 -8.2366,5.0906 -19.567,0.43324 -30.47,-12.524 -15.86,-18.848 -14.274,-25.793 15.978,-69.957 15.162,-22.136 15.893,-24.606 15.152,-51.257 -0.42802,-15.4 -3.7765,-40.297 -7.4412,-55.326 -5.1512,-21.126 -6.2276,-39.277 -4.7444,-80 1.6514,-45.341 3.4124,-56.294 12.649,-78.674 18.683,-45.268 23.844,-70.904 24.159,-120 0.27,-42.105 1.2888,-48.153 12.033,-71.427 10.417,-22.565 15.296,-27.92 43.349,-47.577 17.386,-12.183 33.5,-26.296 35.808,-31.362 3.1422,-6.8964 2.4259,-16.051 -2.8502,-36.423 -6.0264,-23.269 -6.3529,-30.549 -2.254,-50.251 8.7821,-42.214 44.262,-68.634 92.209,-68.664 36.161,-0.0226 53.022,6.9896 79.792,33.184 19.447,19.029 23.867,26.021 27.675,43.78 9.3497,43.596 2.968,87.406 -17.94,123.15 -17.491,29.905 -27.119,34.044 -54.528,23.44 -11.456,-4.432 -8.3939,4.5723 15.172,44.615 34.623,58.83 36.244,64.15 39.436,129.42 1.5571,31.838 3.2459,58.301 3.753,58.809 0.50708,0.50708 33.258,10.647 72.78,22.534 96.255,28.95 114.7,38.73 135.12,71.63 14.297,23.04 2.545,46.768 -23.262,46.967 -10.245,0.0788 -12.982,-2.245 -18.711,-15.885 -5.3318,-12.694 -10.537,-17.618 -25.332,-23.959 -10.242,-4.39 -26.33,-7.9818 -35.752,-7.9818 -9.422,0 -37.623,-5.3885 -62.668,-11.974 -25.046,-6.586 -47.501,-11.986 -49.902,-12 -7.1998,-0.042 -26.429,39.194 -41.936,85.568 l -14.577,43.594 28.439,36.664 c 43.667,56.296 114.5,148.29 133.44,173.29 9.35,12.346 17,25.656 17,29.577 0,3.9213 8.2054,39.114 18.234,78.206 44.4,173.07 50.903,186.24 99.766,202.03 27.72,8.9581 55.392,10.649 118.2,7.2219 23.122,-1.2617 49.704,8.1295 46.892,16.566 -2.101,6.3028 -48.44,22.311 -85.087,29.394 -17.6,3.4016 -48.996,10.818 -69.768,16.482 -41.412,11.29 -96.387,14.799 -104.53,6.6721 -2.5984,-2.5922 -4.5611,-12.843 -4.3617,-22.779 0.3352,-16.705 -2.6685,-22.331 -39.873,-74.673 -49.386,-69.48 -61.423,-97.068 -69.564,-159.44 -5.2413,-40.153 -7.7442,-48.818 -18.601,-64.396 -18.056,-25.907 -34.02,-42.313 -61.298,-62.995 -13.2,-10.008 -37.896,-31.783 -54.88,-48.388 -16.984,-16.605 -31.938,-29.132 -33.232,-27.838 -1.2936,1.2936 -8.3218,23.905 -15.618,50.246 -21.524,77.708 -48.966,122.21 -94.378,153.05 -25.015,16.987 -23.931,15.441 -97.852,139.67 l -39.119,65.74 12.078,10.792 c 13.708,12.248 64.313,32.811 108.66,44.153 46.587,11.915 63.353,33.813 32.879,42.943 -16.576,4.9664 -61.626,5.4722 -84.536,0.9491 z" />
  </g>
  <g
     id="layer2"
     inkscape:label="vectors"
     inkscape:groupmode="layer"
     transform="translate(2473.4713,245.51685)" />
  <metadata
     id="metadata52">
    <rdf:RDF>
      <cc:Work>
        <dc:format>image/svg+xml</dc:format>
        <dc:type
           rdf:resource="http://purl.org/dc/dcmitype/StillImage" />
        <cc:license
           rdf:resource="http://creativecommons.org/publicdomain/zero/1.0/" />
        <dc:publisher>
          <cc:Agent
             rdf:about="http://openclipart.org/">
            <dc:title>Openclipart</dc:title>
          </cc:Agent>
        </dc:publisher>
        <dc:title></dc:title>
      </cc:Work>
      <cc:License
         rdf:about="http://creativecommons.org/publicdomain/zero/1.0/">
        <cc:permits
           rdf:resource="http://creativecommons.org/ns#Reproduction" />
        <cc:permits
           rdf:resource="http://creativecommons.org/ns#Distribution" />
        <cc:permits
           rdf:resource="http://creativecommons.org/ns#DerivativeWorks" />
      </cc:License>
    </rdf:RDF>
  </metadata>
</svg>
