<?xml version="1.0" encoding="UTF-8" standalone="no"?>
<!-- Created with Inkscape (http://www.inkscape.org/) -->

<svg
   xmlns:dc="http://purl.org/dc/elements/1.1/"
   xmlns:cc="http://creativecommons.org/ns#"
   xmlns:rdf="http://www.w3.org/1999/02/22-rdf-syntax-ns#"
   xmlns:svg="http://www.w3.org/2000/svg"
   xmlns="http://www.w3.org/2000/svg"
   xmlns:sodipodi="http://sodipodi.sourceforge.net/DTD/sodipodi-0.dtd"
   xmlns:inkscape="http://www.inkscape.org/namespaces/inkscape"
   width="98.054276mm"
   height="40.724957mm"
   viewBox="0 0 98.054276 40.724957"
   version="1.1"
   id="svg8"
   inkscape:version="0.92.3 (2405546, 2018-03-11)"
   sodipodi:docname="Unterschrift-Kleinmeier-Vectorized.svg">
  <defs
     id="defs2" />
  <sodipodi:namedview
     id="base"
     pagecolor="#ffffff"
     bordercolor="#666666"
     borderopacity="1.0"
     inkscape:pageopacity="0.0"
     inkscape:pageshadow="2"
     inkscape:zoom="2.8"
     inkscape:cx="166.58829"
     inkscape:cy="62.049009"
     inkscape:document-units="mm"
     inkscape:current-layer="layer1"
     showgrid="false"
     inkscape:window-width="1920"
     inkscape:window-height="1015"
     inkscape:window-x="0"
     inkscape:window-y="0"
     inkscape:window-maximized="1"
     showguides="true"
     inkscape:guide-bbox="true"
     fit-margin-top="0"
     fit-margin-left="0"
     fit-margin-right="0"
     fit-margin-bottom="0">
    <sodipodi:guide
       position="43.287304,15.66871"
       orientation="1,0"
       id="guide42"
       inkscape:locked="false" />
    <sodipodi:guide
       position="79.8565,16.80264"
       orientation="1,0"
       id="guide44"
       inkscape:locked="false" />
    <sodipodi:guide
       position="24.638796,40.67497"
       orientation="0,1"
       id="guide853"
       inkscape:locked="false" />
    <sodipodi:guide
       position="43.287302,0.050007006"
       orientation="0,1"
       id="guide855"
       inkscape:locked="false" />
    <sodipodi:guide
       position="0.050000012,29.44965"
       orientation="1,0"
       id="guide857"
       inkscape:locked="false" />
    <sodipodi:guide
       position="98.004275,20.09522"
       orientation="1,0"
       id="guide859"
       inkscape:locked="false" />
  </sodipodi:namedview>
  <metadata
     id="metadata5">
    <rdf:RDF>
      <cc:Work
         rdf:about="">
        <dc:format>image/svg+xml</dc:format>
        <dc:type
           rdf:resource="http://purl.org/dc/dcmitype/StillImage" />
        <dc:title></dc:title>
      </cc:Work>
    </rdf:RDF>
  </metadata>
  <g
     inkscape:label="Ebene 1"
     inkscape:groupmode="layer"
     id="layer1"
     transform="translate(-17.188884,-40.905788)">
    <path
       inkscape:connector-curvature="0"
       style="fill:#000000;stroke-width:0.25400001"
       d="m 26.325286,81.080186 c 0,-1.034796 1.026145,-6.2773 2.133948,-10.902185 1.534696,-6.407094 4.111171,-15.540622 6.233615,-22.098 0.565214,-1.74625 1.028286,-3.278439 1.029048,-3.404868 0.0023,-0.394078 -0.988939,0.634558 -3.403745,3.531868 -2.819316,3.382645 -7.008866,8.690615 -7.008866,8.879913 0,0.0754 -0.200025,0.345026 -0.4445,0.599176 -0.244475,0.25415 -1.670087,1.997225 -3.168028,3.8735 -3.79664,4.755561 -3.910653,4.883018 -4.2629,4.765602 -0.191224,-0.06374 0.318772,-0.884121 1.304206,-2.097946 1.826202,-2.249457 3.060511,-3.827252 5.809222,-7.425823 1.04775,-1.371696 2.093834,-2.723591 2.32463,-3.004207 0.230798,-0.28062 1.468777,-1.824665 2.751063,-3.431215 1.282288,-1.60655 2.990204,-3.66395 3.795369,-4.572 0.805165,-0.90805 2.010367,-2.27965 2.678229,-3.048 0.66786,-0.76835 1.314285,-1.505585 1.4365,-1.6383 0.139662,-0.151659 0.322504,-0.141006 0.492186,0.02868 0.190637,0.190637 0.08953,0.535877 -0.344028,1.174766 -0.337703,0.497631 -1.211255,2.770726 -1.941225,5.05132 -0.729968,2.280595 -1.443416,4.453964 -1.585435,4.829706 l -0.662167,2.174332 c -0.143368,0.523875 -0.852808,3.0099 -1.57653,5.5245 -2.532667,8.799853 -4.777079,18.648205 -4.818997,21.1455 -0.0056,0.334403 -0.167658,0.5715 -0.390594,0.5715 -0.216434,0 -0.381,-0.227981 -0.381,-0.527815 z"
       id="path32"
       sodipodi:nodetypes="csscsssscsscssccccsccscscc" />
    <path
       inkscape:connector-curvature="0"
       style="fill:#000000;stroke-width:0.25400001"
       d="m 100.49329,76.013724 c -1.174901,-0.203085 -1.874549,-0.602427 -2.541939,-1.450876 l -0.549331,-0.69836 -0.512732,0.703867 c -1.054974,1.448245 -3.129018,1.895663 -4.346852,0.937712 l -0.653361,-0.513931 -0.841393,0.512981 c -1.863748,1.136295 -4.298712,0.186891 -5.682468,-2.215616 -0.261501,-0.454025 -0.557713,-0.8255 -0.658251,-0.8255 -0.100538,0 -0.327454,0.40005 -0.504261,0.889 -0.176807,0.48895 -0.468422,0.889 -0.648033,0.889 -0.179611,0 -0.493718,-0.40005 -0.698012,-0.889 -0.204298,-0.48895 -0.472044,-0.889 -0.594993,-0.889 -0.122948,0 -0.491218,0.5715 -0.818378,1.27 -0.327159,0.6985 -0.739615,1.27 -0.916566,1.27 -0.176949,0 -0.629161,-0.564853 -1.004911,-1.25523 -0.375749,-0.690377 -0.867979,-1.326144 -1.09384,-1.412817 -0.286378,-0.109893 -0.893288,0.346863 -2.005386,1.50923 -1.759029,1.838544 -2.507351,2.081533 -3.373194,1.095317 -0.275958,-0.314325 -0.946813,-1.083 -1.490787,-1.708166 l -0.989043,-1.136667 -0.170099,1.263667 c -0.227352,1.689037 -0.308053,1.898666 -0.730933,1.898666 -0.213055,0 -0.430939,-0.374373 -0.532282,-0.914583 -0.224191,-1.195042 -0.921009,-2.641417 -1.272553,-2.641417 -0.436796,0 -0.99645,0.784217 -1.497518,2.098398 -0.529298,1.388224 -1.115545,1.819681 -2.010278,1.479504 -0.645993,-0.245605 -1.655747,-1.329045 -2.377691,-2.551199 l -0.434198,-0.73504 -0.559196,1.206965 c -1.086196,2.344443 -3.651375,2.693083 -5.510365,0.748929 l -0.949838,-0.993354 -0.803976,0.415753 c -1.631966,0.84392 -3.665738,-0.08655 -5.200927,-2.379475 -1.045512,-1.561554 -1.365817,-2.525016 -1.367968,-4.114805 l -0.0015,-1.144676 -1.331951,2.168306 c -2.525773,4.111752 -4.252854,6.220299 -5.71817,6.981165 -1.262341,0.655471 -2.281961,0.335679 -2.281961,0.335679 -1.230481,-0.696961 -2.847121,-3.089517 -3.042295,-8.40565 -0.07565,-2.060575 -0.207744,-3.744745 -0.293538,-3.742599 -0.08579,0.002 -0.772028,1.173721 -1.524965,2.6035 -1.571856,2.984846 -1.775437,3.283481 -2.101136,3.082189 -0.144531,-0.08933 -0.146332,-0.262288 -0.0046,-0.441704 0.128126,-0.162187 0.955927,-1.723636 1.839562,-3.469886 1.698752,-3.357093 4.331419,-7.975654 5.584183,-9.796481 0.412486,-0.599526 0.749973,-1.202804 0.749973,-1.340617 0,-0.137812 0.08572,-0.288668 0.1905,-0.335236 0.104775,-0.04657 0.6477,-0.759003 1.2065,-1.583193 1.924916,-2.839113 3.683,-4.492081 3.683,-3.462794 0,0.118633 -0.485775,0.716465 -1.0795,1.328514 -1.047664,1.079998 -5.03827,6.86202 -5.877045,8.515296 -0.228389,0.450172 -0.688268,1.220803 -1.021953,1.712517 -0.683563,1.007287 -0.737832,1.462245 -0.731236,6.130224 0.0049,3.453455 0.317467,5.407505 1.120816,7.006485 0.788462,1.569347 1.990206,2.034105 3.19003,1.527745 2.223878,-0.93854 5.839235,-7.227472 5.839235,-7.227472 0.312529,-0.496094 1.548329,-2.877571 1.714729,-4.252988 0.25096,-2.074367 1.096404,-4.918281 2.227537,-7.493 0.552361,-1.2573 1.178181,-2.771775 1.390716,-3.3655 0.429235,-1.199094 0.991867,-1.393393 1.716435,-0.592755 0.406825,0.449537 0.411394,0.600349 0.05977,1.972876 -0.436595,1.704201 -2.232904,6.003483 -3.871689,9.2665 -1.583807,3.153549 -1.498437,5.071122 0.346261,7.777741 1.035324,1.51907 2.181895,2.340138 3.267859,2.340138 0.963075,0 1.929184,-0.675716 1.755872,-1.228093 -0.240741,-0.767288 -0.435171,-4.089834 -0.269817,-4.610821 0.246083,-0.775333 1.206955,-0.649051 1.724216,0.226603 0.666148,1.127697 0.553656,2.30124 -0.446855,4.661767 -0.138709,0.327256 0.08151,0.717199 0.824812,1.4605 0.838756,0.838756 1.183858,1.012647 1.996425,1.005967 1.085614,-0.0089 1.723131,-0.390373 2.420828,-1.448456 0.496745,-0.753328 0.630657,-2.476065 0.212555,-2.734467 -0.318531,-0.196863 -0.337035,-1.651 -0.02101,-1.651 0.128146,0 0.435374,0.542925 0.682727,1.2065 0.78967,2.118446 2.890248,4.8895 3.706449,4.8895 0.105125,0 0.428833,-0.542925 0.719353,-1.2065 0.91039,-2.07942 1.057296,-2.302919 1.61145,-2.451636 0.983201,-0.26386 1.16031,-0.161669 1.757992,1.014377 l 0.592702,1.166241 0.311363,-1.039241 c 0.17125,-0.571584 0.424569,-1.039241 0.562928,-1.039241 0.287523,0 1.609049,1.449169 2.467701,2.706045 0.736925,1.078697 1.627195,1.139167 2.229724,0.151455 0.497367,-0.815325 2.548301,-2.603643 2.98547,-2.60319 0.505094,5.08e-4 1.579044,1.095865 1.934332,1.972861 l 0.336319,0.830173 0.590563,-1.274673 c 0.700499,-1.511953 1.411467,-1.696499 2.075873,-0.538838 0.415976,0.724796 0.42637,0.727654 0.693044,0.1905 0.467391,-0.941451 1.239728,-0.81405 1.996369,0.329313 1.355397,2.048142 3.824064,2.976908 5.024658,1.890385 0.45558,-0.412293 0.490901,-0.65546 0.335725,-2.3114 -0.16507,-1.7612 -0.147891,-1.850631 0.355455,-1.850631 0.756933,0 1.093455,0.820625 1.004834,2.45033 -0.06968,1.281389 -0.01229,1.466124 0.599334,1.929453 0.880793,0.667232 1.785922,0.447705 2.94882,-0.715193 0.848675,-0.848675 0.871751,-0.923189 0.703352,-2.271027 -0.09576,-0.76646 -0.07445,-1.393563 0.04736,-1.393563 0.45229,0 0.831077,0.633001 0.831077,1.388839 0,2.117265 2.865056,4.09669 4.591926,3.172495 0.39694,-0.212433 0.44209,-0.362658 0.22879,-0.761215 -0.14616,-0.273103 -0.29049,-1.21128 -0.32073,-2.084834 -0.0506,-1.460439 -0.0102,-1.594653 0.5009,-1.667404 0.90869,-0.129334 1.60312,0.792381 1.60312,2.127817 0,0.637834 -0.11859,1.381282 -0.26353,1.652105 -0.21971,0.410532 -0.15524,0.541743 0.38772,0.789137 0.52507,0.239237 0.81739,0.21751 1.50865,-0.112131 1.06005,-0.505501 3.74022,-2.966105 3.55581,-3.264499 -0.0743,-0.12017 0.0423,-0.150422 0.25915,-0.06723 0.21681,0.0832 0.39877,0.339063 0.40437,0.568592 0.007,0.277792 0.13159,0.193853 0.37333,-0.251058 0.39862,-0.733644 1.1405,-1.156623 1.1405,-0.650253 0,0.462049 1.43089,1.953636 1.87414,1.953636 0.20833,0 0.67198,-0.111471 1.03032,-0.247714 0.35835,-0.136243 0.65154,-0.159103 0.65154,-0.0508 0,0.464114 -0.67923,0.806514 -1.5999,0.806514 -0.7769,0 -1.14658,-0.167308 -1.7156,-0.776445 l -0.72531,-0.776445 -0.65087,1.284445 c -0.72831,1.437244 -1.01965,1.585666 -1.25691,0.640334 l -0.16167,-0.644111 -1.19937,0.995022 c -1.6356,1.356921 -2.84555,1.729524 -3.90311,1.201946 -0.47336,-0.236147 -0.91576,-0.309964 -1.08082,-0.180348 -0.42536,0.33401 -1.44985,0.452206 -2.43844,0.281325 z"
       id="path30"
       sodipodi:nodetypes="cscsccccssscscsccscsccscsscscscccsccssssccccssscssscccsscsscsssssscccscccsssssccsscccsccsssccsscscssccccssccccccsscsssccccccccc" />
    <path
       inkscape:connector-curvature="0"
       style="fill:#ffffff;stroke-width:0.25400001"
       d="m 103.56578,72.146501 c -0.37242,-0.978253 -0.78649,-0.870067 -0.78649,0.205491 0.01,0.822589 0.39374,1.584673 0.39374,1.584673 0.63256,0.539249 0.70629,-0.965261 0.39225,-1.790164 z"
       id="path28"
       sodipodi:nodetypes="ccscc" />
    <path
       inkscape:connector-curvature="0"
       style="fill:#ffffff;stroke-width:0.25400001"
       d="m 92.111286,72.210001 c 0,-0.2794 -0.103599,-0.508 -0.23022,-0.508 -0.126622,0 -0.170442,0.2286 -0.09738,0.508 0.07307,0.2794 0.176665,0.508 0.23022,0.508 0.05356,0 0.09738,-0.2286 0.09738,-0.508 z"
       id="path26" />
    <path
       inkscape:connector-curvature="0"
       style="fill:#ffffff;stroke-width:0.25400001"
       d="m 55.393539,69.759813 c 0.114971,-0.538739 0.02276,-1.118177 -0.282979,-1.778 l -0.453532,-0.978812 -0.08312,1.513416 c -0.09799,1.784078 0.126147,3.005442 0.444106,2.419995 0.112736,-0.207577 0.281724,-0.737045 0.375529,-1.176599 z"
       id="path23" />
    <path
       inkscape:connector-curvature="0"
       style="fill:#ffffff;stroke-width:0.25400001"
       d="m 49.883276,59.129001 c 1.660141,-3.832756 2.648148,-6.985 2.189305,-6.985 -0.230394,0 -1.109295,1.049919 -1.109295,1.325141 0,0.127274 -0.27532,0.833325 -0.611825,1.568998 -0.78188,1.709362 -2.064143,5.567596 -2.288146,6.884861 l -0.172773,1.016 0.55629,-0.889 c 0.305961,-0.48895 0.95236,-1.8034 1.436444,-2.921 z"
       id="path21" />
    <path
       style="fill:#000000;stroke-width:0.25400001"
       d="m 96.513951,62.939001 c 0,-0.708005 0.524557,-0.846145 1.006754,-0.265125 0.384157,0.462882 0.1346,0.900125 -0.513747,0.900125 -0.356547,0 -0.493007,-0.175768 -0.493007,-0.635 z"
       id="path19"
       inkscape:connector-curvature="0" />
    <path
       inkscape:connector-curvature="0"
       style="fill:#000000;stroke-width:0.25400001"
       d="m 60.424786,60.356667 c -0.44705,-0.178819 -0.395076,-0.762547 0.08428,-0.946491 0.700598,-0.268846 0.905835,-0.169662 0.822391,0.397429 -0.08557,0.581515 -0.37991,0.759765 -0.906666,0.549062 z"
       id="path17" />
  </g>
</svg>
